<?xml version="1.0" encoding="UTF-8" standalone="no"?>
<!DOCTYPE svg PUBLIC "-//W3C//DTD SVG 1.1//EN"
 "http://www.w3.org/Graphics/SVG/1.1/DTD/svg11.dtd">
<!-- Generated by graphviz version 7.0.5 (20221223.1930)
 -->
<!-- Title: src/core/App.h Pages: 1 -->
<svg width="832pt" height="159pt"
 viewBox="0.00 0.00 832.00 159.00" xmlns="http://www.w3.org/2000/svg" xmlns:xlink="http://www.w3.org/1999/xlink">
<g id="graph0" class="graph" transform="scale(1 1) rotate(0) translate(4 155)">
<title>src/core/App.h</title>
<!-- Node1 -->
<g id="node1" class="node">
<title>Node1</title>
<g id="a_node1"><a xlink:title="Abstract base class for applications.">
<polygon fill="#999999" stroke="#666666" points="475,-151 395,-151 395,-132 475,-132 475,-151"/>
<text text-anchor="middle" x="435" y="-139" font-family="Helvetica,sans-Serif" font-size="10.00">src/core/App.h</text>
</a>
</g>
</g>
<!-- Node2 -->
<g id="node2" class="node">
<title>Node2</title>
<g id="a_node2"><a xlink:href="ClockApp_8h.html" target="_top" xlink:title=" ">
<polygon fill="white" stroke="#666666" points="162,-90.5 10,-90.5 10,-71.5 162,-71.5 162,-90.5"/>
<text text-anchor="middle" x="86" y="-78.5" font-family="Helvetica,sans-Serif" font-size="10.00">src/apps/ClockApp/ClockApp.h</text>
</a>
</g>
</g>
<!-- Node1&#45;&gt;Node2 -->
<g id="edge1" class="edge">
<title>Node1&#45;&gt;Node2</title>
<path fill="none" stroke="#63b8ff" d="M383.38,-131.85C318.03,-120.89 205.99,-102.11 139.68,-91"/>
<polygon fill="#63b8ff" stroke="#63b8ff" points="382.69,-135.28 393.13,-133.48 383.85,-128.38 382.69,-135.28"/>
</g>
<!-- Node5 -->
<g id="node5" class="node">
<title>Node5</title>
<g id="a_node5"><a xlink:href="GooglyEyes_8h.html" target="_top" xlink:title=" ">
<polygon fill="white" stroke="#666666" points="288,-96 180,-96 180,-66 288,-66 288,-96"/>
<text text-anchor="start" x="188" y="-84" font-family="Helvetica,sans-Serif" font-size="10.00">src/apps/GooglyEyes</text>
<text text-anchor="middle" x="234" y="-73" font-family="Helvetica,sans-Serif" font-size="10.00">/GooglyEyes.h</text>
</a>
</g>
</g>
<!-- Node1&#45;&gt;Node5 -->
<g id="edge4" class="edge">
<title>Node1&#45;&gt;Node5</title>
<path fill="none" stroke="#63b8ff" d="M393.73,-128.49C361.81,-119.2 317.47,-106.29 283.61,-96.44"/>
<polygon fill="#63b8ff" stroke="#63b8ff" points="392.44,-131.76 403.02,-131.19 394.4,-125.04 392.44,-131.76"/>
</g>
<!-- Node7 -->
<g id="node7" class="node">
<title>Node7</title>
<g id="a_node7"><a xlink:href="PomodoroApp_8h.html" target="_top" xlink:title=" ">
<polygon fill="white" stroke="#666666" points="425.5,-96 306.5,-96 306.5,-66 425.5,-66 425.5,-96"/>
<text text-anchor="start" x="314.5" y="-84" font-family="Helvetica,sans-Serif" font-size="10.00">src/apps/PomodoroApp</text>
<text text-anchor="middle" x="366" y="-73" font-family="Helvetica,sans-Serif" font-size="10.00">/PomodoroApp.h</text>
</a>
</g>
</g>
<!-- Node1&#45;&gt;Node7 -->
<g id="edge7" class="edge">
<title>Node1&#45;&gt;Node7</title>
<path fill="none" stroke="#63b8ff" d="M415.85,-124.27C405.56,-115.54 392.98,-104.87 383.03,-96.44"/>
<polygon fill="#63b8ff" stroke="#63b8ff" points="413.47,-126.84 423.37,-130.64 418,-121.5 413.47,-126.84"/>
</g>
<!-- Node9 -->
<g id="node9" class="node">
<title>Node9</title>
<g id="a_node9"><a xlink:href="AppCollection_8h.html" target="_top" xlink:title=" ">
<polygon fill="white" stroke="#666666" points="566,-90.5 444,-90.5 444,-71.5 566,-71.5 566,-90.5"/>
<text text-anchor="middle" x="505" y="-78.5" font-family="Helvetica,sans-Serif" font-size="10.00">src/core/AppCollection.h</text>
</a>
</g>
</g>
<!-- Node1&#45;&gt;Node9 -->
<g id="edge10" class="edge">
<title>Node1&#45;&gt;Node9</title>
<path fill="none" stroke="#63b8ff" d="M454.25,-124.41C467.14,-113.64 483.64,-99.85 494.27,-90.97"/>
<polygon fill="#63b8ff" stroke="#63b8ff" points="452.22,-121.55 446.79,-130.64 456.71,-126.92 452.22,-121.55"/>
</g>
<!-- Node11 -->
<g id="node11" class="node">
<title>Node11</title>
<g id="a_node11"><a xlink:href="AppLauncher_8h.html" target="_top" xlink:title=" ">
<polygon fill="white" stroke="#666666" points="697.5,-96 584.5,-96 584.5,-66 697.5,-66 697.5,-96"/>
<text text-anchor="start" x="592.5" y="-84" font-family="Helvetica,sans-Serif" font-size="10.00">src/core/AppLauncher</text>
<text text-anchor="middle" x="641" y="-73" font-family="Helvetica,sans-Serif" font-size="10.00">/AppLauncher.h</text>
</a>
</g>
</g>
<!-- Node1&#45;&gt;Node11 -->
<g id="edge13" class="edge">
<title>Node1&#45;&gt;Node11</title>
<path fill="none" stroke="#63b8ff" d="M477.29,-128.49C510.02,-119.2 555.45,-106.29 590.15,-96.44"/>
<polygon fill="#63b8ff" stroke="#63b8ff" points="476.41,-125.1 467.74,-131.2 478.32,-131.84 476.41,-125.1"/>
</g>
<!-- Node12 -->
<g id="node12" class="node">
<title>Node12</title>
<g id="a_node12"><a xlink:href="SettingsApp_8h.html" target="_top" xlink:title=" ">
<polygon fill="white" stroke="#666666" points="824,-96 716,-96 716,-66 824,-66 824,-96"/>
<text text-anchor="start" x="724" y="-84" font-family="Helvetica,sans-Serif" font-size="10.00">src/core/SettingsApp</text>
<text text-anchor="middle" x="770" y="-73" font-family="Helvetica,sans-Serif" font-size="10.00">/SettingsApp.h</text>
</a>
</g>
</g>
<!-- Node1&#45;&gt;Node12 -->
<g id="edge16" class="edge">
<title>Node1&#45;&gt;Node12</title>
<path fill="none" stroke="#63b8ff" d="M486.38,-132.98C541.18,-124.75 630.46,-110.75 707,-96 709.86,-95.45 712.79,-94.86 715.74,-94.26"/>
<polygon fill="#63b8ff" stroke="#63b8ff" points="486.09,-129.48 476.72,-134.42 487.13,-136.41 486.09,-129.48"/>
</g>
<!-- Node3 -->
<g id="node3" class="node">
<title>Node3</title>
<g id="a_node3"><a xlink:href="ClockApp_8cpp.html" target="_top" xlink:title=" ">
<polygon fill="white" stroke="#666666" points="162,-24.5 0,-24.5 0,-5.5 162,-5.5 162,-24.5"/>
<text text-anchor="middle" x="81" y="-12.5" font-family="Helvetica,sans-Serif" font-size="10.00">src/apps/ClockApp/ClockApp.cpp</text>
</a>
</g>
</g>
<!-- Node2&#45;&gt;Node3 -->
<g id="edge2" class="edge">
<title>Node2&#45;&gt;Node3</title>
<path fill="none" stroke="#63b8ff" d="M84.41,-59.68C83.5,-47.94 82.39,-33.77 81.69,-24.82"/>
<polygon fill="#63b8ff" stroke="#63b8ff" points="80.92,-59.9 85.19,-69.59 87.9,-59.35 80.92,-59.9"/>
</g>
<!-- Node4 -->
<g id="node4" class="node">
<title>Node4</title>
<g id="a_node4"><a xlink:href="main_8cpp.html" target="_top" xlink:title=" ">
<polygon fill="white" stroke="#666666" points="529,-24.5 457,-24.5 457,-5.5 529,-5.5 529,-24.5"/>
<text text-anchor="middle" x="493" y="-12.5" font-family="Helvetica,sans-Serif" font-size="10.00">src/main.cpp</text>
</a>
</g>
</g>
<!-- Node2&#45;&gt;Node4 -->
<g id="edge3" class="edge">
<title>Node2&#45;&gt;Node4</title>
<path fill="none" stroke="#63b8ff" d="M150.3,-69.22C157.28,-68.11 164.29,-67.01 171,-66 287.66,-48.41 318.02,-51.64 434,-30 441.66,-28.57 449.82,-26.8 457.55,-25"/>
<polygon fill="#63b8ff" stroke="#63b8ff" points="149.82,-65.75 140.51,-70.8 150.94,-72.66 149.82,-65.75"/>
</g>
<!-- Node5&#45;&gt;Node4 -->
<g id="edge6" class="edge">
<title>Node5&#45;&gt;Node4</title>
<path fill="none" stroke="#63b8ff" d="M299.29,-63.87C349.13,-51.55 415.96,-35.04 456.68,-24.98"/>
<polygon fill="#63b8ff" stroke="#63b8ff" points="298.63,-60.42 289.76,-66.22 300.31,-67.22 298.63,-60.42"/>
</g>
<!-- Node6 -->
<g id="node6" class="node">
<title>Node6</title>
<g id="a_node6"><a xlink:href="GooglyEyes_8cpp.html" target="_top" xlink:title=" ">
<polygon fill="white" stroke="#666666" points="288,-30 180,-30 180,0 288,0 288,-30"/>
<text text-anchor="start" x="188" y="-18" font-family="Helvetica,sans-Serif" font-size="10.00">src/apps/GooglyEyes</text>
<text text-anchor="middle" x="234" y="-7" font-family="Helvetica,sans-Serif" font-size="10.00">/GooglyEyes.cpp</text>
</a>
</g>
</g>
<!-- Node5&#45;&gt;Node6 -->
<g id="edge5" class="edge">
<title>Node5&#45;&gt;Node6</title>
<path fill="none" stroke="#63b8ff" d="M234,-54.39C234,-46.13 234,-37.28 234,-30.16"/>
<polygon fill="#63b8ff" stroke="#63b8ff" points="230.5,-54.28 234,-64.28 237.5,-54.28 230.5,-54.28"/>
</g>
<!-- Node7&#45;&gt;Node4 -->
<g id="edge9" class="edge">
<title>Node7&#45;&gt;Node4</title>
<path fill="none" stroke="#63b8ff" d="M404.52,-60.59C428.01,-48.75 456.93,-34.18 475.17,-24.99"/>
<polygon fill="#63b8ff" stroke="#63b8ff" points="403.21,-57.33 395.85,-64.96 406.36,-63.58 403.21,-57.33"/>
</g>
<!-- Node8 -->
<g id="node8" class="node">
<title>Node8</title>
<g id="a_node8"><a xlink:href="PomodoroApp_8cpp.html" target="_top" xlink:title=" ">
<polygon fill="white" stroke="#666666" points="425.5,-30 306.5,-30 306.5,0 425.5,0 425.5,-30"/>
<text text-anchor="start" x="314.5" y="-18" font-family="Helvetica,sans-Serif" font-size="10.00">src/apps/PomodoroApp</text>
<text text-anchor="middle" x="366" y="-7" font-family="Helvetica,sans-Serif" font-size="10.00">/PomodoroApp.cpp</text>
</a>
</g>
</g>
<!-- Node7&#45;&gt;Node8 -->
<g id="edge8" class="edge">
<title>Node7&#45;&gt;Node8</title>
<path fill="none" stroke="#63b8ff" d="M366,-54.39C366,-46.13 366,-37.28 366,-30.16"/>
<polygon fill="#63b8ff" stroke="#63b8ff" points="362.5,-54.28 366,-64.28 369.5,-54.28 362.5,-54.28"/>
</g>
<!-- Node9&#45;&gt;Node4 -->
<g id="edge12" class="edge">
<title>Node9&#45;&gt;Node4</title>
<path fill="none" stroke="#63b8ff" d="M501.26,-60.05C499.05,-48.24 496.35,-33.87 494.65,-24.82"/>
<polygon fill="#63b8ff" stroke="#63b8ff" points="497.77,-60.43 503.05,-69.61 504.65,-59.14 497.77,-60.43"/>
</g>
<!-- Node10 -->
<g id="node10" class="node">
<title>Node10</title>
<g id="a_node10"><a xlink:href="AppLauncher_8cpp.html" target="_top" xlink:title=" ">
<polygon fill="white" stroke="#666666" points="679.5,-30 566.5,-30 566.5,0 679.5,0 679.5,-30"/>
<text text-anchor="start" x="574.5" y="-18" font-family="Helvetica,sans-Serif" font-size="10.00">src/core/AppLauncher</text>
<text text-anchor="middle" x="623" y="-7" font-family="Helvetica,sans-Serif" font-size="10.00">/AppLauncher.cpp</text>
</a>
</g>
</g>
<!-- Node9&#45;&gt;Node10 -->
<g id="edge11" class="edge">
<title>Node9&#45;&gt;Node10</title>
<path fill="none" stroke="#63b8ff" d="M531.37,-65.7C550.71,-55.21 576.89,-41.01 596.31,-30.48"/>
<polygon fill="#63b8ff" stroke="#63b8ff" points="529.86,-62.54 522.74,-70.38 533.2,-68.69 529.86,-62.54"/>
</g>
<!-- Node11&#45;&gt;Node4 -->
<g id="edge15" class="edge">
<title>Node11&#45;&gt;Node4</title>
<path fill="none" stroke="#63b8ff" d="M597.58,-61.22C569.95,-49.27 535.42,-34.34 513.78,-24.99"/>
<polygon fill="#63b8ff" stroke="#63b8ff" points="595.83,-64.28 606.4,-65.04 598.61,-57.85 595.83,-64.28"/>
</g>
<!-- Node11&#45;&gt;Node10 -->
<g id="edge14" class="edge">
<title>Node11&#45;&gt;Node10</title>
<path fill="none" stroke="#63b8ff" d="M633.96,-54.97C631.59,-46.55 629.03,-37.45 626.98,-30.16"/>
<polygon fill="#63b8ff" stroke="#63b8ff" points="630.52,-55.66 636.6,-64.34 637.26,-53.77 630.52,-55.66"/>
</g>
<!-- Node12&#45;&gt;Node4 -->
<g id="edge18" class="edge">
<title>Node12&#45;&gt;Node4</title>
<path fill="none" stroke="#63b8ff" d="M704.6,-64.89C649.81,-52.23 573.62,-34.63 529.19,-24.36"/>
<polygon fill="#63b8ff" stroke="#63b8ff" points="703.6,-68.25 714.13,-67.09 705.17,-61.43 703.6,-68.25"/>
</g>
<!-- Node13 -->
<g id="node13" class="node">
<title>Node13</title>
<g id="a_node13"><a xlink:href="SettingsApp_8cpp.html" target="_top" xlink:title=" ">
<polygon fill="white" stroke="#666666" points="824,-30 716,-30 716,0 824,0 824,-30"/>
<text text-anchor="start" x="724" y="-18" font-family="Helvetica,sans-Serif" font-size="10.00">src/core/SettingsApp</text>
<text text-anchor="middle" x="770" y="-7" font-family="Helvetica,sans-Serif" font-size="10.00">/SettingsApp.cpp</text>
</a>
</g>
</g>
<!-- Node12&#45;&gt;Node13 -->
<g id="edge17" class="edge">
<title>Node12&#45;&gt;Node13</title>
<path fill="none" stroke="#63b8ff" d="M770,-54.39C770,-46.13 770,-37.28 770,-30.16"/>
<polygon fill="#63b8ff" stroke="#63b8ff" points="766.5,-54.28 770,-64.28 773.5,-54.28 766.5,-54.28"/>
</g>
</g>
</svg>
