<?xml version="1.0" encoding="UTF-8" standalone="no"?>
<!DOCTYPE svg PUBLIC "-//W3C//DTD SVG 1.1//EN"
 "http://www.w3.org/Graphics/SVG/1.1/DTD/svg11.dtd">
<!-- Generated by graphviz version 12.1.2 (0)
 -->
<!-- Title: src/core/App.h Pages: 1 -->
<svg width="830pt" height="157pt"
 viewBox="0.00 0.00 829.62 156.50" xmlns="http://www.w3.org/2000/svg" xmlns:xlink="http://www.w3.org/1999/xlink">
<g id="graph0" class="graph" transform="scale(1 1) rotate(0) translate(4 152.5)">
<title>src/core/App.h</title>
<!-- Node1 -->
<g id="Node000001" class="node">
<title>Node1</title>
<g id="a_Node000001"><a xlink:title="Abstract base class for applications.">
<polygon fill="#999999" stroke="#666666" points="475.75,-148.5 396,-148.5 396,-130 475.75,-130 475.75,-148.5"/>
<text text-anchor="middle" x="435.88" y="-135" font-family="Helvetica,sans-Serif" font-size="10.00">src/core/App.h</text>
</a>
</g>
</g>
<!-- Node2 -->
<g id="Node000002" class="node">
<title>Node2</title>
<g id="a_Node000002"><a xlink:href="ClockApp_8h.html" target="_top" xlink:title=" ">
<polygon fill="white" stroke="#666666" points="163.5,-88.75 10.25,-88.75 10.25,-70.25 163.5,-70.25 163.5,-88.75"/>
<text text-anchor="middle" x="86.88" y="-75.25" font-family="Helvetica,sans-Serif" font-size="10.00">src/apps/ClockApp/ClockApp.h</text>
</a>
</g>
</g>
<!-- Node1&#45;&gt;Node2 -->
<g id="edge1_Node000001_Node000002" class="edge">
<title>Node1&#45;&gt;Node2</title>
<g id="a_edge1_Node000001_Node000002"><a xlink:title=" ">
<path fill="none" stroke="#63b8ff" d="M384.55,-129.76C318.88,-118.89 205.74,-100.17 139.47,-89.2"/>
<polygon fill="#63b8ff" stroke="#63b8ff" points="383.91,-133.2 394.35,-131.38 385.05,-126.29 383.91,-133.2"/>
</a>
</g>
</g>
<!-- Node5 -->
<g id="Node000005" class="node">
<title>Node5</title>
<g id="a_Node000005"><a xlink:href="GooglyEyes_8h.html" target="_top" xlink:title=" ">
<polygon fill="white" stroke="#666666" points="290,-94 181.75,-94 181.75,-65 290,-65 290,-94"/>
<text text-anchor="start" x="189.75" y="-80.5" font-family="Helvetica,sans-Serif" font-size="10.00">src/apps/GooglyEyes</text>
<text text-anchor="middle" x="235.88" y="-70" font-family="Helvetica,sans-Serif" font-size="10.00">/GooglyEyes.h</text>
</a>
</g>
</g>
<!-- Node1&#45;&gt;Node5 -->
<g id="edge4_Node000001_Node000005" class="edge">
<title>Node1&#45;&gt;Node5</title>
<g id="a_edge4_Node000001_Node000005"><a xlink:title=" ">
<path fill="none" stroke="#63b8ff" d="M395.15,-126.49C363.06,-117.23 318.23,-104.28 284.3,-94.48"/>
<polygon fill="#63b8ff" stroke="#63b8ff" points="393.9,-129.77 404.48,-129.18 395.84,-123.05 393.9,-129.77"/>
</a>
</g>
</g>
<!-- Node7 -->
<g id="Node000007" class="node">
<title>Node7</title>
<g id="a_Node000007"><a xlink:href="PomodoroApp_8h.html" target="_top" xlink:title=" ">
<polygon fill="white" stroke="#666666" points="425.88,-94 307.88,-94 307.88,-65 425.88,-65 425.88,-94"/>
<text text-anchor="start" x="315.88" y="-80.5" font-family="Helvetica,sans-Serif" font-size="10.00">src/apps/PomodoroApp</text>
<text text-anchor="middle" x="366.88" y="-70" font-family="Helvetica,sans-Serif" font-size="10.00">/PomodoroApp.h</text>
</a>
</g>
</g>
<!-- Node1&#45;&gt;Node7 -->
<g id="edge7_Node000001_Node000007" class="edge">
<title>Node1&#45;&gt;Node7</title>
<g id="a_edge7_Node000001_Node000007"><a xlink:title=" ">
<path fill="none" stroke="#63b8ff" d="M416.92,-122.38C406.46,-113.63 393.59,-102.86 383.52,-94.43"/>
<polygon fill="#63b8ff" stroke="#63b8ff" points="414.62,-125.02 424.53,-128.76 419.11,-119.66 414.62,-125.02"/>
</a>
</g>
</g>
<!-- Node9 -->
<g id="Node000009" class="node">
<title>Node9</title>
<g id="a_Node000009"><a xlink:href="AppCollection_8h.html" target="_top" xlink:title=" ">
<polygon fill="white" stroke="#666666" points="567.5,-88.75 444.25,-88.75 444.25,-70.25 567.5,-70.25 567.5,-88.75"/>
<text text-anchor="middle" x="505.88" y="-75.25" font-family="Helvetica,sans-Serif" font-size="10.00">src/core/AppCollection.h</text>
</a>
</g>
</g>
<!-- Node1&#45;&gt;Node9 -->
<g id="edge10_Node000001_Node000009" class="edge">
<title>Node1&#45;&gt;Node9</title>
<g id="a_edge10_Node000001_Node000009"><a xlink:title=" ">
<path fill="none" stroke="#63b8ff" d="M454.91,-122.54C467.98,-111.76 484.84,-97.86 495.5,-89.06"/>
<polygon fill="#63b8ff" stroke="#63b8ff" points="452.86,-119.7 447.37,-128.77 457.31,-125.1 452.86,-119.7"/>
</a>
</g>
</g>
<!-- Node11 -->
<g id="Node000011" class="node">
<title>Node11</title>
<g id="a_Node000011"><a xlink:href="AppLauncher_8h.html" target="_top" xlink:title=" ">
<polygon fill="white" stroke="#666666" points="696.5,-94 585.25,-94 585.25,-65 696.5,-65 696.5,-94"/>
<text text-anchor="start" x="593.25" y="-80.5" font-family="Helvetica,sans-Serif" font-size="10.00">src/core/AppLauncher</text>
<text text-anchor="middle" x="640.88" y="-70" font-family="Helvetica,sans-Serif" font-size="10.00">/AppLauncher.h</text>
</a>
</g>
</g>
<!-- Node1&#45;&gt;Node11 -->
<g id="edge13_Node000001_Node000011" class="edge">
<title>Node1&#45;&gt;Node11</title>
<g id="a_edge13_Node000001_Node000011"><a xlink:title=" ">
<path fill="none" stroke="#63b8ff" d="M477.62,-126.49C510.51,-117.23 556.46,-104.28 591.24,-94.48"/>
<polygon fill="#63b8ff" stroke="#63b8ff" points="476.7,-123.11 468.02,-129.19 478.6,-129.85 476.7,-123.11"/>
</a>
</g>
</g>
<!-- Node12 -->
<g id="Node000012" class="node">
<title>Node12</title>
<g id="a_Node000012"><a xlink:href="SettingsApp_8h.html" target="_top" xlink:title=" ">
<polygon fill="white" stroke="#666666" points="821.62,-94 714.12,-94 714.12,-65 821.62,-65 821.62,-94"/>
<text text-anchor="start" x="722.12" y="-80.5" font-family="Helvetica,sans-Serif" font-size="10.00">src/core/SettingsApp</text>
<text text-anchor="middle" x="767.88" y="-70" font-family="Helvetica,sans-Serif" font-size="10.00">/SettingsApp.h</text>
</a>
</g>
</g>
<!-- Node1&#45;&gt;Node12 -->
<g id="edge16_Node000001_Node000012" class="edge">
<title>Node1&#45;&gt;Node12</title>
<g id="a_edge16_Node000001_Node000012"><a xlink:title=" ">
<path fill="none" stroke="#63b8ff" d="M487.33,-130.63C541.76,-122.38 630.08,-108.45 705.88,-94 708.47,-93.5 711.13,-92.98 713.81,-92.45"/>
<polygon fill="#63b8ff" stroke="#63b8ff" points="487.11,-127.12 477.74,-132.08 488.15,-134.05 487.11,-127.12"/>
</a>
</g>
</g>
<!-- Node3 -->
<g id="Node000003" class="node">
<title>Node3</title>
<g id="a_Node000003"><a xlink:href="ClockApp_8cpp.html" target="_top" xlink:title=" ">
<polygon fill="white" stroke="#666666" points="163.75,-23.75 0,-23.75 0,-5.25 163.75,-5.25 163.75,-23.75"/>
<text text-anchor="middle" x="81.88" y="-10.25" font-family="Helvetica,sans-Serif" font-size="10.00">src/apps/ClockApp/ClockApp.cpp</text>
</a>
</g>
</g>
<!-- Node2&#45;&gt;Node3 -->
<g id="edge2_Node000002_Node000003" class="edge">
<title>Node2&#45;&gt;Node3</title>
<g id="a_edge2_Node000002_Node000003"><a xlink:title=" ">
<path fill="none" stroke="#63b8ff" d="M85.3,-58.64C84.37,-46.91 83.24,-32.69 82.54,-23.86"/>
<polygon fill="#63b8ff" stroke="#63b8ff" points="81.8,-58.8 86.08,-68.49 88.78,-58.25 81.8,-58.8"/>
</a>
</g>
</g>
<!-- Node4 -->
<g id="Node000004" class="node">
<title>Node4</title>
<g id="a_Node000004"><a xlink:href="main_8cpp.html" target="_top" xlink:title=" ">
<polygon fill="white" stroke="#666666" points="529,-23.75 456.75,-23.75 456.75,-5.25 529,-5.25 529,-23.75"/>
<text text-anchor="middle" x="492.88" y="-10.25" font-family="Helvetica,sans-Serif" font-size="10.00">src/main.cpp</text>
</a>
</g>
</g>
<!-- Node2&#45;&gt;Node4 -->
<g id="edge3_Node000002_Node000004" class="edge">
<title>Node2&#45;&gt;Node4</title>
<g id="a_edge3_Node000002_Node000004"><a xlink:title=" ">
<path fill="none" stroke="#63b8ff" d="M152.8,-68.02C159.57,-66.98 166.36,-65.96 172.88,-65 289.16,-47.89 319.29,-50.35 434.88,-29 442.3,-27.63 450.2,-25.94 457.71,-24.23"/>
<polygon fill="#63b8ff" stroke="#63b8ff" points="152.29,-64.56 142.94,-69.54 153.36,-71.47 152.29,-64.56"/>
</a>
</g>
</g>
<!-- Node5&#45;&gt;Node4 -->
<g id="edge6_Node000005_Node000004" class="edge">
<title>Node5&#45;&gt;Node4</title>
<g id="a_edge6_Node000005_Node000004"><a xlink:title=" ">
<path fill="none" stroke="#63b8ff" d="M301.33,-62.45C350.95,-50.29 417.23,-34.04 457.39,-24.2"/>
<polygon fill="#63b8ff" stroke="#63b8ff" points="300.73,-59 291.85,-64.78 302.39,-65.8 300.73,-59"/>
</a>
</g>
</g>
<!-- Node6 -->
<g id="Node000006" class="node">
<title>Node6</title>
<g id="a_Node000006"><a xlink:href="GooglyEyes_8cpp.html" target="_top" xlink:title=" ">
<polygon fill="white" stroke="#666666" points="290,-29 181.75,-29 181.75,0 290,0 290,-29"/>
<text text-anchor="start" x="189.75" y="-15.5" font-family="Helvetica,sans-Serif" font-size="10.00">src/apps/GooglyEyes</text>
<text text-anchor="middle" x="235.88" y="-5" font-family="Helvetica,sans-Serif" font-size="10.00">/GooglyEyes.cpp</text>
</a>
</g>
</g>
<!-- Node5&#45;&gt;Node6 -->
<g id="edge5_Node000005_Node000006" class="edge">
<title>Node5&#45;&gt;Node6</title>
<g id="a_edge5_Node000005_Node000006"><a xlink:title=" ">
<path fill="none" stroke="#63b8ff" d="M235.88,-53.01C235.88,-44.96 235.88,-36.37 235.88,-29.44"/>
<polygon fill="#63b8ff" stroke="#63b8ff" points="232.38,-53 235.88,-63 239.38,-53 232.38,-53"/>
</a>
</g>
</g>
<!-- Node7&#45;&gt;Node4 -->
<g id="edge9_Node000007_Node000004" class="edge">
<title>Node7&#45;&gt;Node4</title>
<g id="a_edge9_Node000007_Node000004"><a xlink:title=" ">
<path fill="none" stroke="#63b8ff" d="M404.84,-59.52C428.31,-47.78 457.32,-33.28 475.46,-24.21"/>
<polygon fill="#63b8ff" stroke="#63b8ff" points="403.57,-56.24 396.19,-63.84 406.7,-62.5 403.57,-56.24"/>
</a>
</g>
</g>
<!-- Node8 -->
<g id="Node000008" class="node">
<title>Node8</title>
<g id="a_Node000008"><a xlink:href="PomodoroApp_8cpp.html" target="_top" xlink:title=" ">
<polygon fill="white" stroke="#666666" points="425.88,-29 307.88,-29 307.88,0 425.88,0 425.88,-29"/>
<text text-anchor="start" x="315.88" y="-15.5" font-family="Helvetica,sans-Serif" font-size="10.00">src/apps/PomodoroApp</text>
<text text-anchor="middle" x="366.88" y="-5" font-family="Helvetica,sans-Serif" font-size="10.00">/PomodoroApp.cpp</text>
</a>
</g>
</g>
<!-- Node7&#45;&gt;Node8 -->
<g id="edge8_Node000007_Node000008" class="edge">
<title>Node7&#45;&gt;Node8</title>
<g id="a_edge8_Node000007_Node000008"><a xlink:title=" ">
<path fill="none" stroke="#63b8ff" d="M366.88,-53.01C366.88,-44.96 366.88,-36.37 366.88,-29.44"/>
<polygon fill="#63b8ff" stroke="#63b8ff" points="363.38,-53 366.88,-63 370.38,-53 363.38,-53"/>
</a>
</g>
</g>
<!-- Node9&#45;&gt;Node4 -->
<g id="edge12_Node000009_Node000004" class="edge">
<title>Node9&#45;&gt;Node4</title>
<g id="a_edge12_Node000009_Node000004"><a xlink:title=" ">
<path fill="none" stroke="#63b8ff" d="M501.85,-59.01C499.42,-47.22 496.44,-32.78 494.6,-23.86"/>
<polygon fill="#63b8ff" stroke="#63b8ff" points="498.37,-59.43 503.82,-68.52 505.22,-58.02 498.37,-59.43"/>
</a>
</g>
</g>
<!-- Node10 -->
<g id="Node000010" class="node">
<title>Node10</title>
<g id="a_Node000010"><a xlink:href="AppLauncher_8cpp.html" target="_top" xlink:title=" ">
<polygon fill="white" stroke="#666666" points="677.5,-29 566.25,-29 566.25,0 677.5,0 677.5,-29"/>
<text text-anchor="start" x="574.25" y="-15.5" font-family="Helvetica,sans-Serif" font-size="10.00">src/core/AppLauncher</text>
<text text-anchor="middle" x="621.88" y="-5" font-family="Helvetica,sans-Serif" font-size="10.00">/AppLauncher.cpp</text>
</a>
</g>
</g>
<!-- Node9&#45;&gt;Node10 -->
<g id="edge11_Node000009_Node000010" class="edge">
<title>Node9&#45;&gt;Node10</title>
<g id="a_edge11_Node000009_Node000010"><a xlink:title=" ">
<path fill="none" stroke="#63b8ff" d="M531.41,-64.63C550.68,-54.17 577.01,-39.87 596.29,-29.4"/>
<polygon fill="#63b8ff" stroke="#63b8ff" points="529.97,-61.43 522.85,-69.28 533.31,-67.58 529.97,-61.43"/>
</a>
</g>
</g>
<!-- Node11&#45;&gt;Node4 -->
<g id="edge15_Node000011_Node000004" class="edge">
<title>Node11&#45;&gt;Node4</title>
<g id="a_edge15_Node000011_Node000004"><a xlink:title=" ">
<path fill="none" stroke="#63b8ff" d="M597.76,-60.15C569.94,-48.3 535.02,-33.44 513.33,-24.21"/>
<polygon fill="#63b8ff" stroke="#63b8ff" points="596.06,-63.23 606.64,-63.93 598.81,-56.79 596.06,-63.23"/>
</a>
</g>
</g>
<!-- Node11&#45;&gt;Node10 -->
<g id="edge14_Node000011_Node000010" class="edge">
<title>Node11&#45;&gt;Node10</title>
<g id="a_edge14_Node000011_Node000010"><a xlink:title=" ">
<path fill="none" stroke="#63b8ff" d="M633.36,-53.57C630.88,-45.37 628.22,-36.53 626.08,-29.44"/>
<polygon fill="#63b8ff" stroke="#63b8ff" points="629.98,-54.51 636.22,-63.07 636.68,-52.48 629.98,-54.51"/>
</a>
</g>
</g>
<!-- Node12&#45;&gt;Node4 -->
<g id="edge18_Node000012_Node000004" class="edge">
<title>Node12&#45;&gt;Node4</title>
<g id="a_edge18_Node000012_Node000004"><a xlink:title=" ">
<path fill="none" stroke="#63b8ff" d="M702.98,-63.63C648.75,-51.21 573.39,-33.94 529.21,-23.82"/>
<polygon fill="#63b8ff" stroke="#63b8ff" points="701.87,-66.97 712.4,-65.79 703.43,-60.15 701.87,-66.97"/>
</a>
</g>
</g>
<!-- Node13 -->
<g id="Node000013" class="node">
<title>Node13</title>
<g id="a_Node000013"><a xlink:href="SettingsApp_8cpp.html" target="_top" xlink:title=" ">
<polygon fill="white" stroke="#666666" points="821.62,-29 714.12,-29 714.12,0 821.62,0 821.62,-29"/>
<text text-anchor="start" x="722.12" y="-15.5" font-family="Helvetica,sans-Serif" font-size="10.00">src/core/SettingsApp</text>
<text text-anchor="middle" x="767.88" y="-5" font-family="Helvetica,sans-Serif" font-size="10.00">/SettingsApp.cpp</text>
</a>
</g>
</g>
<!-- Node12&#45;&gt;Node13 -->
<g id="edge17_Node000012_Node000013" class="edge">
<title>Node12&#45;&gt;Node13</title>
<g id="a_edge17_Node000012_Node000013"><a xlink:title=" ">
<path fill="none" stroke="#63b8ff" d="M767.88,-53.01C767.88,-44.96 767.88,-36.37 767.88,-29.44"/>
<polygon fill="#63b8ff" stroke="#63b8ff" points="764.38,-53 767.88,-63 771.38,-53 764.38,-53"/>
</a>
</g>
</g>
</g>
</svg>
