<?xml version="1.0" encoding="UTF-8" standalone="no"?>
<!DOCTYPE svg PUBLIC "-//W3C//DTD SVG 1.1//EN"
 "http://www.w3.org/Graphics/SVG/1.1/DTD/svg11.dtd">
<!-- Generated by graphviz version 12.2.0 (20241103.1931)
 -->
<!-- Title: src/core/App.h Pages: 1 -->
<!--zoomable 160 -->

<svg id="main" version="1.1" xmlns="http://www.w3.org/2000/svg" xmlns:xlink="http://www.w3.org/1999/xlink" xml:space="preserve" onload="init(evt)">

<style type="text/css"><![CDATA[
.node, .edge {opacity: 0.7;}
.node.selected, .edge.selected {opacity: 1;}
.edge:hover path { stroke: red; }
.edge:hover polygon { stroke: red; fill: red; }
]]></style>

<defs>
  <circle id="rim" cx="0" cy="0" r="7"/>
  <circle id="rim2" cx="0" cy="0" r="3.5"/>
  <g id="zoomPlus">
    <use xlink:href="#rim" fill="#404040"><set attributeName="fill" to="#808080" begin="zoomplus.mouseover" end="zoomplus.mouseout"/></use>
    <path d="M-4,0h8M0,-4v8" fill="none" stroke="white" stroke-width="1.5" pointer-events="none"/>
  </g>
  <g id="zoomMin">
    <use xlink:href="#rim" fill="#404040"><set attributeName="fill" to="#808080" begin="zoomminus.mouseover" end="zoomminus.mouseout"/></use>
    <path d="M-4,0h8" fill="none" stroke="white" stroke-width="1.5" pointer-events="none"/>
  </g>
  <g id="arrowUp" transform="translate(30 24)">
    <use xlink:href="#rim"/>
    <path pointer-events="none" fill="none" stroke="white" stroke-width="1.5" d="M0,-3.0v7 M-2.5,-0.5L0,-3.0L2.5,-0.5"/>
  </g>
  <g id="arrowRight" transform="rotate(90) translate(36 -43)">
    <use xlink:href="#rim"/>
    <path pointer-events="none" fill="none" stroke="white" stroke-width="1.5" d="M0,-3.0v7 M-2.5,-0.5L0,-3.0L2.5,-0.5"/>
  </g>
  <g id="arrowDown" transform="rotate(180) translate(-30 -48)">
    <use xlink:href="#rim"/>
    <path pointer-events="none" fill="none" stroke="white" stroke-width="1.5" d="M0,-3.0v7 M-2.5,-0.5L0,-3.0L2.5,-0.5"/>
  </g>
  <g id="arrowLeft" transform="rotate(270) translate(-36 17)">
    <use xlink:href="#rim"/>
    <path pointer-events="none" fill="none" stroke="white" stroke-width="1.5" d="M0,-3.0v7 M-2.5,-0.5L0,-3.0L2.5,-0.5"/>
  </g>
  <g id="resetDef">
    <use xlink:href="#rim2" fill="#404040"><set attributeName="fill" to="#808080" begin="reset.mouseover" end="reset.mouseout"/></use>
  </g>
</defs>
<script type="application/ecmascript">
var viewWidth = 1116;
var viewHeight = 160;
var sectionId = 'dynsection-0';
</script>
<script type="application/ecmascript" xlink:href="svg.min.js"/>
<svg id="graph" class="graph">
<g id="viewport">
<title>src/core/App.h</title>
<!-- Node1 -->
<g id="Node000001" class="node">
<title>Node1</title>
<g id="a_Node000001"><a xlink:title="Abstract base class for applications.">
<polygon fill="#999999" stroke="#666666" points="628.25,-152.25 549.25,-152.25 549.25,-133 628.25,-133 628.25,-152.25"/>
<text text-anchor="middle" x="588.75" y="-138.75" font-family="Helvetica,sans-Serif" font-size="10.00">src/core/App.h</text>
</a>
</g>
</g>
<!-- Node2 -->
<g id="Node000002" class="node">
<title>Node2</title>
<g id="a_Node000002"><a xlink:href="ClockApp_8h.html" target="_top" xlink:title=" ">
<polygon fill="white" stroke="#666666" points="173.25,-91.38 22.25,-91.38 22.25,-72.12 173.25,-72.12 173.25,-91.38"/>
<text text-anchor="middle" x="97.75" y="-77.88" font-family="Helvetica,sans-Serif" font-size="10.00">src/apps/ClockApp/ClockApp.h</text>
</a>
</g>
</g>
<!-- Node1&#45;&gt;Node2 -->
<g id="edge1_Node000001_Node000002" class="edge">
<title>Node1&#45;&gt;Node2</title>
<g id="a_edge1_Node000001_Node000002"><a xlink:title=" ">
<path fill="none" stroke="#63b8ff" d="M537.48,-136.98C460.2,-129.76 309.32,-114.8 181.75,-97 170.91,-95.49 159.32,-93.66 148.31,-91.82"/>
<polygon fill="#63b8ff" stroke="#63b8ff" points="537,-140.45 547.28,-137.89 537.65,-133.48 537,-140.45"/>
</a>
</g>
</g>
<!-- Node5 -->
<g id="Node000005" class="node">
<title>Node5</title>
<g id="a_Node000005"><a xlink:href="CurrencyConverterApp_8h.html" target="_top" xlink:title=" ">
<polygon fill="white" stroke="#666666" points="332.38,-97 191.12,-97 191.12,-66.5 332.38,-66.5 332.38,-97"/>
<text text-anchor="start" x="199.12" y="-83.5" font-family="Helvetica,sans-Serif" font-size="10.00">src/apps/CurrencyConverter</text>
<text text-anchor="middle" x="261.75" y="-72.25" font-family="Helvetica,sans-Serif" font-size="10.00">App/CurrencyConverterApp.h</text>
</a>
</g>
</g>
<!-- Node1&#45;&gt;Node5 -->
<g id="edge4_Node000001_Node000005" class="edge">
<title>Node1&#45;&gt;Node5</title>
<g id="a_edge4_Node000001_Node000005"><a xlink:title=" ">
<path fill="none" stroke="#63b8ff" d="M537.62,-132.43C487.48,-123.41 408.85,-109.27 340.75,-97 338.14,-96.53 335.49,-96.05 332.81,-95.57"/>
<polygon fill="#63b8ff" stroke="#63b8ff" points="536.85,-135.85 547.31,-134.17 538.09,-128.96 536.85,-135.85"/>
</a>
</g>
</g>
<!-- Node7 -->
<g id="Node000007" class="node">
<title>Node7</title>
<g id="a_Node000007"><a xlink:href="GooglyEyes_8h.html" target="_top" xlink:title=" ">
<polygon fill="white" stroke="#666666" points="457.5,-97 350,-97 350,-66.5 457.5,-66.5 457.5,-97"/>
<text text-anchor="start" x="358" y="-83.5" font-family="Helvetica,sans-Serif" font-size="10.00">src/apps/GooglyEyes</text>
<text text-anchor="middle" x="403.75" y="-72.25" font-family="Helvetica,sans-Serif" font-size="10.00">/GooglyEyes.h</text>
</a>
</g>
</g>
<!-- Node1&#45;&gt;Node7 -->
<g id="edge7_Node000001_Node000007" class="edge">
<title>Node1&#45;&gt;Node7</title>
<g id="a_edge7_Node000001_Node000007"><a xlink:title=" ">
<path fill="none" stroke="#63b8ff" d="M549.65,-129.18C520.52,-119.91 480.63,-107.22 449.92,-97.44"/>
<polygon fill="#63b8ff" stroke="#63b8ff" points="548.22,-132.4 558.81,-132.1 550.34,-125.73 548.22,-132.4"/>
</a>
</g>
</g>
<!-- Node9 -->
<g id="Node000009" class="node">
<title>Node9</title>
<g id="a_Node000009"><a xlink:href="MatrixApp_8h.html" target="_top" xlink:title=" ">
<polygon fill="white" stroke="#666666" points="575.75,-97 475.75,-97 475.75,-66.5 575.75,-66.5 575.75,-97"/>
<text text-anchor="start" x="483.75" y="-83.5" font-family="Helvetica,sans-Serif" font-size="10.00">src/apps/MatrixApp</text>
<text text-anchor="middle" x="525.75" y="-72.25" font-family="Helvetica,sans-Serif" font-size="10.00">/MatrixApp.h</text>
</a>
</g>
</g>
<!-- Node1&#45;&gt;Node9 -->
<g id="edge10_Node000001_Node000009" class="edge">
<title>Node1&#45;&gt;Node9</title>
<g id="a_edge10_Node000001_Node000009"><a xlink:title=" ">
<path fill="none" stroke="#63b8ff" d="M570.98,-125.02C561.64,-116.29 550.29,-105.68 541.3,-97.28"/>
<polygon fill="#63b8ff" stroke="#63b8ff" points="568.38,-127.38 578.08,-131.65 573.16,-122.26 568.38,-127.38"/>
</a>
</g>
</g>
<!-- Node11 -->
<g id="Node000011" class="node">
<title>Node11</title>
<g id="a_Node000011"><a xlink:href="PomodoroApp_8h.html" target="_top" xlink:title=" ">
<polygon fill="white" stroke="#666666" points="711.75,-97 593.75,-97 593.75,-66.5 711.75,-66.5 711.75,-97"/>
<text text-anchor="start" x="601.75" y="-83.5" font-family="Helvetica,sans-Serif" font-size="10.00">src/apps/PomodoroApp</text>
<text text-anchor="middle" x="652.75" y="-72.25" font-family="Helvetica,sans-Serif" font-size="10.00">/PomodoroApp.h</text>
</a>
</g>
</g>
<!-- Node1&#45;&gt;Node11 -->
<g id="edge13_Node000001_Node000011" class="edge">
<title>Node1&#45;&gt;Node11</title>
<g id="a_edge13_Node000001_Node000011"><a xlink:title=" ">
<path fill="none" stroke="#63b8ff" d="M606.8,-125.02C616.29,-116.29 627.82,-105.68 636.95,-97.28"/>
<polygon fill="#63b8ff" stroke="#63b8ff" points="604.57,-122.31 599.58,-131.66 609.31,-127.46 604.57,-122.31"/>
</a>
</g>
</g>
<!-- Node13 -->
<g id="Node000013" class="node">
<title>Node13</title>
<g id="a_Node000013"><a xlink:href="AppCollection_8h.html" target="_top" xlink:title=" ">
<polygon fill="white" stroke="#666666" points="851.62,-91.38 729.88,-91.38 729.88,-72.12 851.62,-72.12 851.62,-91.38"/>
<text text-anchor="middle" x="790.75" y="-77.88" font-family="Helvetica,sans-Serif" font-size="10.00">src/core/AppCollection.h</text>
</a>
</g>
</g>
<!-- Node1&#45;&gt;Node13 -->
<g id="edge16_Node000001_Node000013" class="edge">
<title>Node1&#45;&gt;Node13</title>
<g id="a_edge16_Node000001_Node000013"><a xlink:title=" ">
<path fill="none" stroke="#63b8ff" d="M630.69,-129.4C669.08,-118.21 725.03,-101.9 759.59,-91.83"/>
<polygon fill="#63b8ff" stroke="#63b8ff" points="629.94,-125.97 621.32,-132.13 631.9,-132.69 629.94,-125.97"/>
</a>
</g>
</g>
<!-- Node15 -->
<g id="Node000015" class="node">
<title>Node15</title>
<g id="a_Node000015"><a xlink:href="AppLauncher_8h.html" target="_top" xlink:title=" ">
<polygon fill="white" stroke="#666666" points="981.75,-97 869.75,-97 869.75,-66.5 981.75,-66.5 981.75,-97"/>
<text text-anchor="start" x="877.75" y="-83.5" font-family="Helvetica,sans-Serif" font-size="10.00">src/core/AppLauncher</text>
<text text-anchor="middle" x="925.75" y="-72.25" font-family="Helvetica,sans-Serif" font-size="10.00">/AppLauncher.h</text>
</a>
</g>
</g>
<!-- Node1&#45;&gt;Node15 -->
<g id="edge19_Node000001_Node000015" class="edge">
<title>Node1&#45;&gt;Node15</title>
<g id="a_edge19_Node000001_Node000015"><a xlink:title=" ">
<path fill="none" stroke="#63b8ff" d="M639.65,-134.1C694.4,-125.82 783.96,-111.71 860.75,-97 863.59,-96.46 866.49,-95.88 869.42,-95.29"/>
<polygon fill="#63b8ff" stroke="#63b8ff" points="639.37,-130.6 630,-135.55 640.41,-137.53 639.37,-130.6"/>
</a>
</g>
</g>
<!-- Node16 -->
<g id="Node000016" class="node">
<title>Node16</title>
<g id="a_Node000016"><a xlink:href="SettingsApp_8h.html" target="_top" xlink:title=" ">
<polygon fill="white" stroke="#666666" points="1107.5,-97 1000,-97 1000,-66.5 1107.5,-66.5 1107.5,-97"/>
<text text-anchor="start" x="1008" y="-83.5" font-family="Helvetica,sans-Serif" font-size="10.00">src/core/SettingsApp</text>
<text text-anchor="middle" x="1053.75" y="-72.25" font-family="Helvetica,sans-Serif" font-size="10.00">/SettingsApp.h</text>
</a>
</g>
</g>
<!-- Node1&#45;&gt;Node16 -->
<g id="edge22_Node000001_Node000016" class="edge">
<title>Node1&#45;&gt;Node16</title>
<g id="a_edge22_Node000001_Node000016"><a xlink:title=" ">
<path fill="none" stroke="#63b8ff" d="M639.82,-137.8C716.42,-131.64 865.44,-118.06 990.75,-97 993.63,-96.52 996.57,-95.98 999.53,-95.42"/>
<polygon fill="#63b8ff" stroke="#63b8ff" points="639.81,-134.29 630.12,-138.57 640.36,-141.27 639.81,-134.29"/>
</a>
</g>
</g>
<!-- Node3 -->
<g id="Node000003" class="node">
<title>Node3</title>
<g id="a_Node000003"><a xlink:href="ClockApp_8cpp.html" target="_top" xlink:title=" ">
<polygon fill="white" stroke="#666666" points="161.5,-24.88 0,-24.88 0,-5.63 161.5,-5.63 161.5,-24.88"/>
<text text-anchor="middle" x="80.75" y="-11.38" font-family="Helvetica,sans-Serif" font-size="10.00">src/apps/ClockApp/ClockApp.cpp</text>
</a>
</g>
</g>
<!-- Node2&#45;&gt;Node3 -->
<g id="edge2_Node000002_Node000003" class="edge">
<title>Node2&#45;&gt;Node3</title>
<g id="a_edge2_Node000002_Node000003"><a xlink:title=" ">
<path fill="none" stroke="#63b8ff" d="M92.55,-61.02C89.4,-49.05 85.52,-34.35 83.09,-25.14"/>
<polygon fill="#63b8ff" stroke="#63b8ff" points="89.07,-61.54 95,-70.32 95.84,-59.76 89.07,-61.54"/>
</a>
</g>
</g>
<!-- Node4 -->
<g id="Node000004" class="node">
<title>Node4</title>
<g id="a_Node000004"><a xlink:href="main_8cpp.html" target="_top" xlink:title=" ">
<polygon fill="white" stroke="#666666" points="665.5,-24.88 594,-24.88 594,-5.63 665.5,-5.63 665.5,-24.88"/>
<text text-anchor="middle" x="629.75" y="-11.38" font-family="Helvetica,sans-Serif" font-size="10.00">src/main.cpp</text>
</a>
</g>
</g>
<!-- Node2&#45;&gt;Node4 -->
<g id="edge3_Node000002_Node000004" class="edge">
<title>Node2&#45;&gt;Node4</title>
<g id="a_edge3_Node000002_Node000004"><a xlink:title=" ">
<path fill="none" stroke="#63b8ff" d="M158.66,-69.84C166.41,-68.62 174.26,-67.47 181.75,-66.5 360.09,-43.44 408.44,-65.85 584.75,-30.5 591.18,-29.21 597.98,-27.34 604.3,-25.37"/>
<polygon fill="#63b8ff" stroke="#63b8ff" points="158.21,-66.36 148.89,-71.42 159.33,-73.27 158.21,-66.36"/>
</a>
</g>
</g>
<!-- Node5&#45;&gt;Node4 -->
<g id="edge6_Node000005_Node000004" class="edge">
<title>Node5&#45;&gt;Node4</title>
<g id="a_edge6_Node000005_Node000004"><a xlink:title=" ">
<path fill="none" stroke="#63b8ff" d="M344.08,-66.01C450.94,-49.16 481.48,-54.31 584.75,-30.5 590.98,-29.06 597.59,-27.18 603.77,-25.25"/>
<polygon fill="#63b8ff" stroke="#63b8ff" points="343.6,-62.54 334.28,-67.58 344.71,-69.45 343.6,-62.54"/>
</a>
</g>
</g>
<!-- Node6 -->
<g id="Node000006" class="node">
<title>Node6</title>
<g id="a_Node000006"><a xlink:href="CurrencyConverterApp_8cpp.html" target="_top" xlink:title=" ">
<polygon fill="white" stroke="#666666" points="331.62,-30.5 179.88,-30.5 179.88,0 331.62,0 331.62,-30.5"/>
<text text-anchor="start" x="187.88" y="-17" font-family="Helvetica,sans-Serif" font-size="10.00">src/apps/CurrencyConverter</text>
<text text-anchor="middle" x="255.75" y="-5.75" font-family="Helvetica,sans-Serif" font-size="10.00">App/CurrencyConverterApp.cpp</text>
</a>
</g>
</g>
<!-- Node5&#45;&gt;Node6 -->
<g id="edge5_Node000005_Node000006" class="edge">
<title>Node5&#45;&gt;Node6</title>
<g id="a_edge5_Node000005_Node000006"><a xlink:title=" ">
<path fill="none" stroke="#63b8ff" d="M259.34,-54.81C258.58,-46.64 257.77,-37.91 257.11,-30.83"/>
<polygon fill="#63b8ff" stroke="#63b8ff" points="255.84,-54.97 260.25,-64.61 262.81,-54.33 255.84,-54.97"/>
</a>
</g>
</g>
<!-- Node7&#45;&gt;Node4 -->
<g id="edge9_Node000007_Node000004" class="edge">
<title>Node7&#45;&gt;Node4</title>
<g id="a_edge9_Node000007_Node000004"><a xlink:title=" ">
<path fill="none" stroke="#63b8ff" d="M468.65,-63.34C503.21,-53.91 546.39,-41.9 584.75,-30.5 590.25,-28.87 596.11,-27.06 601.71,-25.3"/>
<polygon fill="#63b8ff" stroke="#63b8ff" points="467.94,-59.9 459.21,-65.91 469.78,-66.66 467.94,-59.9"/>
</a>
</g>
</g>
<!-- Node8 -->
<g id="Node000008" class="node">
<title>Node8</title>
<g id="a_Node000008"><a xlink:href="GooglyEyes_8cpp.html" target="_top" xlink:title=" ">
<polygon fill="white" stroke="#666666" points="457.5,-30.5 350,-30.5 350,0 457.5,0 457.5,-30.5"/>
<text text-anchor="start" x="358" y="-17" font-family="Helvetica,sans-Serif" font-size="10.00">src/apps/GooglyEyes</text>
<text text-anchor="middle" x="403.75" y="-5.75" font-family="Helvetica,sans-Serif" font-size="10.00">/GooglyEyes.cpp</text>
</a>
</g>
</g>
<!-- Node7&#45;&gt;Node8 -->
<g id="edge8_Node000007_Node000008" class="edge">
<title>Node7&#45;&gt;Node8</title>
<g id="a_edge8_Node000007_Node000008"><a xlink:title=" ">
<path fill="none" stroke="#63b8ff" d="M403.75,-54.81C403.75,-46.64 403.75,-37.91 403.75,-30.83"/>
<polygon fill="#63b8ff" stroke="#63b8ff" points="400.25,-54.6 403.75,-64.6 407.25,-54.6 400.25,-54.6"/>
</a>
</g>
</g>
<!-- Node9&#45;&gt;Node4 -->
<g id="edge12_Node000009_Node000004" class="edge">
<title>Node9&#45;&gt;Node4</title>
<g id="a_edge12_Node000009_Node000004"><a xlink:title=" ">
<path fill="none" stroke="#63b8ff" d="M559.11,-60.06C578.04,-48.32 600.76,-34.23 615.22,-25.26"/>
<polygon fill="#63b8ff" stroke="#63b8ff" points="557.29,-57.07 550.64,-65.32 560.98,-63.02 557.29,-57.07"/>
</a>
</g>
</g>
<!-- Node10 -->
<g id="Node000010" class="node">
<title>Node10</title>
<g id="a_Node000010"><a xlink:href="MatrixApp_8cpp.html" target="_top" xlink:title=" ">
<polygon fill="white" stroke="#666666" points="575.75,-30.5 475.75,-30.5 475.75,0 575.75,0 575.75,-30.5"/>
<text text-anchor="start" x="483.75" y="-17" font-family="Helvetica,sans-Serif" font-size="10.00">src/apps/MatrixApp</text>
<text text-anchor="middle" x="525.75" y="-5.75" font-family="Helvetica,sans-Serif" font-size="10.00">/MatrixApp.cpp</text>
</a>
</g>
</g>
<!-- Node9&#45;&gt;Node10 -->
<g id="edge11_Node000009_Node000010" class="edge">
<title>Node9&#45;&gt;Node10</title>
<g id="a_edge11_Node000009_Node000010"><a xlink:title=" ">
<path fill="none" stroke="#63b8ff" d="M525.75,-54.81C525.75,-46.64 525.75,-37.91 525.75,-30.83"/>
<polygon fill="#63b8ff" stroke="#63b8ff" points="522.25,-54.6 525.75,-64.6 529.25,-54.6 522.25,-54.6"/>
</a>
</g>
</g>
<!-- Node11&#45;&gt;Node4 -->
<g id="edge15_Node000011_Node000004" class="edge">
<title>Node11&#45;&gt;Node4</title>
<g id="a_edge15_Node000011_Node000004"><a xlink:title=" ">
<path fill="none" stroke="#63b8ff" d="M643.75,-55.52C639.92,-44.76 635.69,-32.91 632.9,-25.07"/>
<polygon fill="#63b8ff" stroke="#63b8ff" points="640.37,-56.44 647.02,-64.69 646.96,-54.09 640.37,-56.44"/>
</a>
</g>
</g>
<!-- Node12 -->
<g id="Node000012" class="node">
<title>Node12</title>
<g id="a_Node000012"><a xlink:href="PomodoroApp_8cpp.html" target="_top" xlink:title=" ">
<polygon fill="white" stroke="#666666" points="801.75,-30.5 683.75,-30.5 683.75,0 801.75,0 801.75,-30.5"/>
<text text-anchor="start" x="691.75" y="-17" font-family="Helvetica,sans-Serif" font-size="10.00">src/apps/PomodoroApp</text>
<text text-anchor="middle" x="742.75" y="-5.75" font-family="Helvetica,sans-Serif" font-size="10.00">/PomodoroApp.cpp</text>
</a>
</g>
</g>
<!-- Node11&#45;&gt;Node12 -->
<g id="edge14_Node000011_Node000012" class="edge">
<title>Node11&#45;&gt;Node12</title>
<g id="a_edge14_Node000011_Node000012"><a xlink:title=" ">
<path fill="none" stroke="#63b8ff" d="M682.31,-59.57C695.44,-50.16 710.57,-39.31 722.41,-30.83"/>
<polygon fill="#63b8ff" stroke="#63b8ff" points="680.49,-56.56 674.4,-65.23 684.57,-62.25 680.49,-56.56"/>
</a>
</g>
</g>
<!-- Node13&#45;&gt;Node4 -->
<g id="edge18_Node000013_Node000004" class="edge">
<title>Node13&#45;&gt;Node4</title>
<g id="a_edge18_Node000013_Node000004"><a xlink:title=" ">
<path fill="none" stroke="#63b8ff" d="M757.58,-67.46C726.14,-54.87 679.76,-36.28 652.36,-25.31"/>
<polygon fill="#63b8ff" stroke="#63b8ff" points="756.03,-70.61 766.62,-71.08 758.64,-64.11 756.03,-70.61"/>
</a>
</g>
</g>
<!-- Node14 -->
<g id="Node000014" class="node">
<title>Node14</title>
<g id="a_Node000014"><a xlink:href="AppLauncher_8cpp.html" target="_top" xlink:title=" ">
<polygon fill="white" stroke="#666666" points="956.75,-30.5 844.75,-30.5 844.75,0 956.75,0 956.75,-30.5"/>
<text text-anchor="start" x="852.75" y="-17" font-family="Helvetica,sans-Serif" font-size="10.00">src/core/AppLauncher</text>
<text text-anchor="middle" x="900.75" y="-5.75" font-family="Helvetica,sans-Serif" font-size="10.00">/AppLauncher.cpp</text>
</a>
</g>
</g>
<!-- Node13&#45;&gt;Node14 -->
<g id="edge17_Node000013_Node000014" class="edge">
<title>Node13&#45;&gt;Node14</title>
<g id="a_edge17_Node000013_Node000014"><a xlink:title=" ">
<path fill="none" stroke="#63b8ff" d="M815.83,-66.04C833.81,-55.5 857.93,-41.36 875.87,-30.84"/>
<polygon fill="#63b8ff" stroke="#63b8ff" points="814.21,-62.94 807.35,-71.02 817.75,-68.98 814.21,-62.94"/>
</a>
</g>
</g>
<!-- Node15&#45;&gt;Node4 -->
<g id="edge21_Node000015_Node000004" class="edge">
<title>Node15&#45;&gt;Node4</title>
<g id="a_edge21_Node000015_Node000004"><a xlink:title=" ">
<path fill="none" stroke="#63b8ff" d="M858.28,-66.04C776.34,-49.59 752.93,-50.37 674.75,-30.5 668.87,-29.01 662.63,-27.19 656.73,-25.35"/>
<polygon fill="#63b8ff" stroke="#63b8ff" points="857.42,-69.44 867.91,-68 858.81,-62.58 857.42,-69.44"/>
</a>
</g>
</g>
<!-- Node15&#45;&gt;Node14 -->
<g id="edge20_Node000015_Node000014" class="edge">
<title>Node15&#45;&gt;Node14</title>
<g id="a_edge20_Node000015_Node000014"><a xlink:title=" ">
<path fill="none" stroke="#63b8ff" d="M916.03,-55.66C912.77,-47.25 909.24,-38.16 906.4,-30.83"/>
<polygon fill="#63b8ff" stroke="#63b8ff" points="912.65,-56.64 919.53,-64.7 919.18,-54.11 912.65,-56.64"/>
</a>
</g>
</g>
<!-- Node16&#45;&gt;Node4 -->
<g id="edge24_Node000016_Node000004" class="edge">
<title>Node16&#45;&gt;Node4</title>
<g id="a_edge24_Node000016_Node000004"><a xlink:title=" ">
<path fill="none" stroke="#63b8ff" d="M988.45,-66.25C849.37,-43.71 809.49,-59.23 674.75,-30.5 668.34,-29.13 661.54,-27.23 655.22,-25.26"/>
<polygon fill="#63b8ff" stroke="#63b8ff" points="987.6,-69.66 998.04,-67.84 988.74,-62.75 987.6,-69.66"/>
</a>
</g>
</g>
<!-- Node17 -->
<g id="Node000017" class="node">
<title>Node17</title>
<g id="a_Node000017"><a xlink:href="SettingsApp_8cpp.html" target="_top" xlink:title=" ">
<polygon fill="white" stroke="#666666" points="1107.5,-30.5 1000,-30.5 1000,0 1107.5,0 1107.5,-30.5"/>
<text text-anchor="start" x="1008" y="-17" font-family="Helvetica,sans-Serif" font-size="10.00">src/core/SettingsApp</text>
<text text-anchor="middle" x="1053.75" y="-5.75" font-family="Helvetica,sans-Serif" font-size="10.00">/SettingsApp.cpp</text>
</a>
</g>
</g>
<!-- Node16&#45;&gt;Node17 -->
<g id="edge23_Node000016_Node000017" class="edge">
<title>Node16&#45;&gt;Node17</title>
<g id="a_edge23_Node000016_Node000017"><a xlink:title=" ">
<path fill="none" stroke="#63b8ff" d="M1053.75,-54.81C1053.75,-46.64 1053.75,-37.91 1053.75,-30.83"/>
<polygon fill="#63b8ff" stroke="#63b8ff" points="1050.25,-54.6 1053.75,-64.6 1057.25,-54.6 1050.25,-54.6"/>
</a>
</g>
</g>
</g>
</svg>

<g id="navigator" transform="translate(0 0)" fill="#404254">
  <rect fill="#f2f5e9" fill-opacity="0.5" stroke="#606060" stroke-width=".5" x="0" y="0" width="60" height="60"/>
  <use id="zoomplus" xlink:href="#zoomPlus" x="17" y="9" onmousedown="handleZoom(evt,'in')"/>
  <use id="zoomminus" xlink:href="#zoomMin" x="42" y="9" onmousedown="handleZoom(evt,'out')"/>
  <use id="reset" xlink:href="#resetDef" x="30" y="36" onmousedown="handleReset()"/>
   <use id="arrowup" xlink:href="#arrowUp" x="0" y="0" onmousedown="handlePan(0,-1)"/>
  <use id="arrowright" xlink:href="#arrowRight" x="0" y="0" onmousedown="handlePan(1,0)"/>
  <use id="arrowdown" xlink:href="#arrowDown" x="0" y="0" onmousedown="handlePan(0,1)"/>
  <use id="arrowleft" xlink:href="#arrowLeft" x="0" y="0" onmousedown="handlePan(-1,0)"/>
</g>
<svg viewBox="0 0 15 15" width="100%" height="30px" preserveAspectRatio="xMaxYMin meet">
 <g id="arrow_out" transform="scale(0.3 0.3)">
  <a xlink:href="App_8h__dep__incl_org.svg" target="_base">
   <rect id="button" ry="5" rx="5" y="6" x="6" height="38" width="38"
        fill="#f2f5e9" fill-opacity="0.5" stroke="#606060" stroke-width="1.0"/>
   <path id="arrow"
     d="M 11.500037,31.436501 C 11.940474,20.09759 22.043105,11.32322 32.158766,21.979434 L 37.068811,17.246167 C 37.068811,17.246167 37.088388,32 37.088388,32 L 22.160133,31.978069 C 22.160133,31.978069 26.997745,27.140456 26.997745,27.140456 C 18.528582,18.264221 13.291696,25.230495 11.500037,31.436501 z"
     style="fill:#404040;"/>
  </a>
 </g>
</svg>

<style type='text/css'>
<![CDATA[
[data-mouse-over-selected='false'] { opacity: 0.7; }
[data-mouse-over-selected='true']  { opacity: 1.0; }
]]>
</style>
<script type="application/ecmascript"><![CDATA[
document.addEventListener('DOMContentLoaded', (event) => {
  highlightEdges();
  highlightAdjacentNodes();
});
]]></script>
</svg>
