<?xml version="1.0" encoding="UTF-8" standalone="no"?>
<!DOCTYPE svg PUBLIC "-//W3C//DTD SVG 1.1//EN"
 "http://www.w3.org/Graphics/SVG/1.1/DTD/svg11.dtd">
<!-- Generated by graphviz version 12.2.0 (20241103.1931)
 -->
<!-- Title: src/core/App.h Pages: 1 -->
<!--zoomable 160 -->

<svg id="main" version="1.1" xmlns="http://www.w3.org/2000/svg" xmlns:xlink="http://www.w3.org/1999/xlink" xml:space="preserve" onload="init(evt)">

<style type="text/css"><![CDATA[
.node, .edge {opacity: 0.7;}
.node.selected, .edge.selected {opacity: 1;}
.edge:hover path { stroke: red; }
.edge:hover polygon { stroke: red; fill: red; }
]]></style>

<defs>
  <circle id="rim" cx="0" cy="0" r="7"/>
  <circle id="rim2" cx="0" cy="0" r="3.5"/>
  <g id="zoomPlus">
    <use xlink:href="#rim" fill="#404040"><set attributeName="fill" to="#808080" begin="zoomplus.mouseover" end="zoomplus.mouseout"/></use>
    <path d="M-4,0h8M0,-4v8" fill="none" stroke="white" stroke-width="1.5" pointer-events="none"/>
  </g>
  <g id="zoomMin">
    <use xlink:href="#rim" fill="#404040"><set attributeName="fill" to="#808080" begin="zoomminus.mouseover" end="zoomminus.mouseout"/></use>
    <path d="M-4,0h8" fill="none" stroke="white" stroke-width="1.5" pointer-events="none"/>
  </g>
  <g id="arrowUp" transform="translate(30 24)">
    <use xlink:href="#rim"/>
    <path pointer-events="none" fill="none" stroke="white" stroke-width="1.5" d="M0,-3.0v7 M-2.5,-0.5L0,-3.0L2.5,-0.5"/>
  </g>
  <g id="arrowRight" transform="rotate(90) translate(36 -43)">
    <use xlink:href="#rim"/>
    <path pointer-events="none" fill="none" stroke="white" stroke-width="1.5" d="M0,-3.0v7 M-2.5,-0.5L0,-3.0L2.5,-0.5"/>
  </g>
  <g id="arrowDown" transform="rotate(180) translate(-30 -48)">
    <use xlink:href="#rim"/>
    <path pointer-events="none" fill="none" stroke="white" stroke-width="1.5" d="M0,-3.0v7 M-2.5,-0.5L0,-3.0L2.5,-0.5"/>
  </g>
  <g id="arrowLeft" transform="rotate(270) translate(-36 17)">
    <use xlink:href="#rim"/>
    <path pointer-events="none" fill="none" stroke="white" stroke-width="1.5" d="M0,-3.0v7 M-2.5,-0.5L0,-3.0L2.5,-0.5"/>
  </g>
  <g id="resetDef">
    <use xlink:href="#rim2" fill="#404040"><set attributeName="fill" to="#808080" begin="reset.mouseover" end="reset.mouseout"/></use>
  </g>
</defs>
<script type="application/ecmascript">
var viewWidth = 828;
var viewHeight = 160;
var sectionId = 'dynsection-0';
</script>
<script type="application/ecmascript" xlink:href="svg.min.js"/>
<svg id="graph" class="graph">
<g id="viewport">
<title>src/core/App.h</title>
<!-- Node1 -->
<g id="Node000001" class="node">
<title>Node1</title>
<g id="a_Node000001"><a xlink:title="Abstract base class for applications.">
<polygon fill="#999999" stroke="#666666" points="473.25,-152.25 394.25,-152.25 394.25,-133 473.25,-133 473.25,-152.25"/>
<text text-anchor="middle" x="433.75" y="-138.75" font-family="Helvetica,sans-Serif" font-size="10.00">src/core/App.h</text>
</a>
</g>
</g>
<!-- Node2 -->
<g id="Node000002" class="node">
<title>Node2</title>
<g id="a_Node000002"><a xlink:href="ClockApp_8h.html" target="_top" xlink:title=" ">
<polygon fill="white" stroke="#666666" points="162.25,-91.38 11.25,-91.38 11.25,-72.12 162.25,-72.12 162.25,-91.38"/>
<text text-anchor="middle" x="86.75" y="-77.88" font-family="Helvetica,sans-Serif" font-size="10.00">src/apps/ClockApp/ClockApp.h</text>
</a>
</g>
</g>
<!-- Node1&#45;&gt;Node2 -->
<g id="edge1_Node000001_Node000002" class="edge">
<title>Node1&#45;&gt;Node2</title>
<g id="a_edge1_Node000001_Node000002"><a xlink:title=" ">
<path fill="none" stroke="#63b8ff" d="M382.78,-132.98C317.9,-121.97 206.31,-103.04 140.24,-91.83"/>
<polygon fill="#63b8ff" stroke="#63b8ff" points="382.01,-136.4 392.45,-134.62 383.18,-129.49 382.01,-136.4"/>
</a>
</g>
</g>
<!-- Node5 -->
<g id="Node000005" class="node">
<title>Node5</title>
<g id="a_Node000005"><a xlink:href="GooglyEyes_8h.html" target="_top" xlink:title=" ">
<polygon fill="white" stroke="#666666" points="287.5,-97 180,-97 180,-66.5 287.5,-66.5 287.5,-97"/>
<text text-anchor="start" x="188" y="-83.5" font-family="Helvetica,sans-Serif" font-size="10.00">src/apps/GooglyEyes</text>
<text text-anchor="middle" x="233.75" y="-72.25" font-family="Helvetica,sans-Serif" font-size="10.00">/GooglyEyes.h</text>
</a>
</g>
</g>
<!-- Node1&#45;&gt;Node5 -->
<g id="edge4_Node000001_Node000005" class="edge">
<title>Node1&#45;&gt;Node5</title>
<g id="a_edge4_Node000001_Node000005"><a xlink:title=" ">
<path fill="none" stroke="#63b8ff" d="M391.9,-129.3C360.36,-120.02 317.01,-107.26 283.67,-97.44"/>
<polygon fill="#63b8ff" stroke="#63b8ff" points="390.9,-132.66 401.49,-132.13 392.88,-125.95 390.9,-132.66"/>
</a>
</g>
</g>
<!-- Node7 -->
<g id="Node000007" class="node">
<title>Node7</title>
<g id="a_Node000007"><a xlink:href="PomodoroApp_8h.html" target="_top" xlink:title=" ">
<polygon fill="white" stroke="#666666" points="423.75,-97 305.75,-97 305.75,-66.5 423.75,-66.5 423.75,-97"/>
<text text-anchor="start" x="313.75" y="-83.5" font-family="Helvetica,sans-Serif" font-size="10.00">src/apps/PomodoroApp</text>
<text text-anchor="middle" x="364.75" y="-72.25" font-family="Helvetica,sans-Serif" font-size="10.00">/PomodoroApp.h</text>
</a>
</g>
</g>
<!-- Node1&#45;&gt;Node7 -->
<g id="edge7_Node000001_Node000007" class="edge">
<title>Node1&#45;&gt;Node7</title>
<g id="a_edge7_Node000001_Node000007"><a xlink:title=" ">
<path fill="none" stroke="#63b8ff" d="M414.6,-125.29C404.31,-116.51 391.73,-105.77 381.78,-97.28"/>
<polygon fill="#63b8ff" stroke="#63b8ff" points="412.24,-127.87 422.12,-131.7 416.78,-122.55 412.24,-127.87"/>
</a>
</g>
</g>
<!-- Node9 -->
<g id="Node000009" class="node">
<title>Node9</title>
<g id="a_Node000009"><a xlink:href="AppCollection_8h.html" target="_top" xlink:title=" ">
<polygon fill="white" stroke="#666666" points="563.62,-91.38 441.88,-91.38 441.88,-72.12 563.62,-72.12 563.62,-91.38"/>
<text text-anchor="middle" x="502.75" y="-77.88" font-family="Helvetica,sans-Serif" font-size="10.00">src/core/AppCollection.h</text>
</a>
</g>
</g>
<!-- Node1&#45;&gt;Node9 -->
<g id="edge10_Node000001_Node000009" class="edge">
<title>Node1&#45;&gt;Node9</title>
<g id="a_edge10_Node000001_Node000009"><a xlink:title=" ">
<path fill="none" stroke="#63b8ff" d="M452.72,-125.44C465.44,-114.59 481.7,-100.71 492.17,-91.78"/>
<polygon fill="#63b8ff" stroke="#63b8ff" points="450.72,-122.55 445.38,-131.7 455.26,-127.87 450.72,-122.55"/>
</a>
</g>
</g>
<!-- Node11 -->
<g id="Node000011" class="node">
<title>Node11</title>
<g id="a_Node000011"><a xlink:href="AppLauncher_8h.html" target="_top" xlink:title=" ">
<polygon fill="white" stroke="#666666" points="693.75,-97 581.75,-97 581.75,-66.5 693.75,-66.5 693.75,-97"/>
<text text-anchor="start" x="589.75" y="-83.5" font-family="Helvetica,sans-Serif" font-size="10.00">src/core/AppLauncher</text>
<text text-anchor="middle" x="637.75" y="-72.25" font-family="Helvetica,sans-Serif" font-size="10.00">/AppLauncher.h</text>
</a>
</g>
</g>
<!-- Node1&#45;&gt;Node11 -->
<g id="edge13_Node000001_Node000011" class="edge">
<title>Node1&#45;&gt;Node11</title>
<g id="a_edge13_Node000001_Node000011"><a xlink:title=" ">
<path fill="none" stroke="#63b8ff" d="M476.02,-129.43C508.22,-120.13 552.68,-107.3 586.83,-97.44"/>
<polygon fill="#63b8ff" stroke="#63b8ff" points="475.27,-126 466.63,-132.14 477.21,-132.72 475.27,-126"/>
</a>
</g>
</g>
<!-- Node12 -->
<g id="Node000012" class="node">
<title>Node12</title>
<g id="a_Node000012"><a xlink:href="SettingsApp_8h.html" target="_top" xlink:title=" ">
<polygon fill="white" stroke="#666666" points="819.5,-97 712,-97 712,-66.5 819.5,-66.5 819.5,-97"/>
<text text-anchor="start" x="720" y="-83.5" font-family="Helvetica,sans-Serif" font-size="10.00">src/core/SettingsApp</text>
<text text-anchor="middle" x="765.75" y="-72.25" font-family="Helvetica,sans-Serif" font-size="10.00">/SettingsApp.h</text>
</a>
</g>
</g>
<!-- Node1&#45;&gt;Node12 -->
<g id="edge16_Node000001_Node000012" class="edge">
<title>Node1&#45;&gt;Node12</title>
<g id="a_edge16_Node000001_Node000012"><a xlink:title=" ">
<path fill="none" stroke="#63b8ff" d="M484.91,-134.04C539.14,-125.79 627.22,-111.79 702.75,-97 705.72,-96.42 708.77,-95.8 711.84,-95.16"/>
<polygon fill="#63b8ff" stroke="#63b8ff" points="484.39,-130.58 475.03,-135.54 485.44,-137.5 484.39,-130.58"/>
</a>
</g>
</g>
<!-- Node3 -->
<g id="Node000003" class="node">
<title>Node3</title>
<g id="a_Node000003"><a xlink:href="ClockApp_8cpp.html" target="_top" xlink:title=" ">
<polygon fill="white" stroke="#666666" points="161.5,-24.88 0,-24.88 0,-5.63 161.5,-5.63 161.5,-24.88"/>
<text text-anchor="middle" x="80.75" y="-11.38" font-family="Helvetica,sans-Serif" font-size="10.00">src/apps/ClockApp/ClockApp.cpp</text>
</a>
</g>
</g>
<!-- Node2&#45;&gt;Node3 -->
<g id="edge2_Node000002_Node000003" class="edge">
<title>Node2&#45;&gt;Node3</title>
<g id="a_edge2_Node000002_Node000003"><a xlink:title=" ">
<path fill="none" stroke="#63b8ff" d="M84.88,-60.65C83.77,-48.75 82.43,-34.26 81.58,-25.14"/>
<polygon fill="#63b8ff" stroke="#63b8ff" points="81.36,-60.64 85.78,-70.27 88.33,-59.99 81.36,-60.64"/>
</a>
</g>
</g>
<!-- Node4 -->
<g id="Node000004" class="node">
<title>Node4</title>
<g id="a_Node000004"><a xlink:href="main_8cpp.html" target="_top" xlink:title=" ">
<polygon fill="white" stroke="#666666" points="526.5,-24.88 455,-24.88 455,-5.63 526.5,-5.63 526.5,-24.88"/>
<text text-anchor="middle" x="490.75" y="-11.38" font-family="Helvetica,sans-Serif" font-size="10.00">src/main.cpp</text>
</a>
</g>
</g>
<!-- Node2&#45;&gt;Node4 -->
<g id="edge3_Node000002_Node000004" class="edge">
<title>Node2&#45;&gt;Node4</title>
<g id="a_edge3_Node000002_Node000004"><a xlink:title=" ">
<path fill="none" stroke="#63b8ff" d="M149.99,-69.8C156.99,-68.66 164.02,-67.53 170.75,-66.5 286.93,-48.67 317.3,-52.55 432.75,-30.5 440.39,-29.04 448.53,-27.21 456.22,-25.36"/>
<polygon fill="#63b8ff" stroke="#63b8ff" points="149.47,-66.34 140.18,-71.43 150.62,-73.25 149.47,-66.34"/>
</a>
</g>
</g>
<!-- Node5&#45;&gt;Node4 -->
<g id="edge6_Node000005_Node000004" class="edge">
<title>Node5&#45;&gt;Node4</title>
<g id="a_edge6_Node000005_Node000004"><a xlink:title=" ">
<path fill="none" stroke="#63b8ff" d="M298.86,-64.41C348.32,-52 414.49,-35.39 454.8,-25.27"/>
<polygon fill="#63b8ff" stroke="#63b8ff" points="298.25,-60.95 289.41,-66.78 299.96,-67.74 298.25,-60.95"/>
</a>
</g>
</g>
<!-- Node6 -->
<g id="Node000006" class="node">
<title>Node6</title>
<g id="a_Node000006"><a xlink:href="GooglyEyes_8cpp.html" target="_top" xlink:title=" ">
<polygon fill="white" stroke="#666666" points="287.5,-30.5 180,-30.5 180,0 287.5,0 287.5,-30.5"/>
<text text-anchor="start" x="188" y="-17" font-family="Helvetica,sans-Serif" font-size="10.00">src/apps/GooglyEyes</text>
<text text-anchor="middle" x="233.75" y="-5.75" font-family="Helvetica,sans-Serif" font-size="10.00">/GooglyEyes.cpp</text>
</a>
</g>
</g>
<!-- Node5&#45;&gt;Node6 -->
<g id="edge5_Node000005_Node000006" class="edge">
<title>Node5&#45;&gt;Node6</title>
<g id="a_edge5_Node000005_Node000006"><a xlink:title=" ">
<path fill="none" stroke="#63b8ff" d="M233.75,-54.81C233.75,-46.64 233.75,-37.91 233.75,-30.83"/>
<polygon fill="#63b8ff" stroke="#63b8ff" points="230.25,-54.6 233.75,-64.6 237.25,-54.6 230.25,-54.6"/>
</a>
</g>
</g>
<!-- Node7&#45;&gt;Node4 -->
<g id="edge9_Node000007_Node000004" class="edge">
<title>Node7&#45;&gt;Node4</title>
<g id="a_edge9_Node000007_Node000004"><a xlink:title=" ">
<path fill="none" stroke="#63b8ff" d="M403.28,-61.03C426.57,-49.1 455.14,-34.48 473.15,-25.26"/>
<polygon fill="#63b8ff" stroke="#63b8ff" points="402,-57.75 394.69,-65.42 405.18,-63.98 402,-57.75"/>
</a>
</g>
</g>
<!-- Node8 -->
<g id="Node000008" class="node">
<title>Node8</title>
<g id="a_Node000008"><a xlink:href="PomodoroApp_8cpp.html" target="_top" xlink:title=" ">
<polygon fill="white" stroke="#666666" points="423.75,-30.5 305.75,-30.5 305.75,0 423.75,0 423.75,-30.5"/>
<text text-anchor="start" x="313.75" y="-17" font-family="Helvetica,sans-Serif" font-size="10.00">src/apps/PomodoroApp</text>
<text text-anchor="middle" x="364.75" y="-5.75" font-family="Helvetica,sans-Serif" font-size="10.00">/PomodoroApp.cpp</text>
</a>
</g>
</g>
<!-- Node7&#45;&gt;Node8 -->
<g id="edge8_Node000007_Node000008" class="edge">
<title>Node7&#45;&gt;Node8</title>
<g id="a_edge8_Node000007_Node000008"><a xlink:title=" ">
<path fill="none" stroke="#63b8ff" d="M364.75,-54.81C364.75,-46.64 364.75,-37.91 364.75,-30.83"/>
<polygon fill="#63b8ff" stroke="#63b8ff" points="361.25,-54.6 364.75,-64.6 368.25,-54.6 361.25,-54.6"/>
</a>
</g>
</g>
<!-- Node9&#45;&gt;Node4 -->
<g id="edge12_Node000009_Node000004" class="edge">
<title>Node9&#45;&gt;Node4</title>
<g id="a_edge12_Node000009_Node000004"><a xlink:title=" ">
<path fill="none" stroke="#63b8ff" d="M499.01,-60.65C496.8,-48.75 494.1,-34.26 492.4,-25.14"/>
<polygon fill="#63b8ff" stroke="#63b8ff" points="495.53,-61.1 500.8,-70.29 502.42,-59.82 495.53,-61.1"/>
</a>
</g>
</g>
<!-- Node10 -->
<g id="Node000010" class="node">
<title>Node10</title>
<g id="a_Node000010"><a xlink:href="AppLauncher_8cpp.html" target="_top" xlink:title=" ">
<polygon fill="white" stroke="#666666" points="675.75,-30.5 563.75,-30.5 563.75,0 675.75,0 675.75,-30.5"/>
<text text-anchor="start" x="571.75" y="-17" font-family="Helvetica,sans-Serif" font-size="10.00">src/core/AppLauncher</text>
<text text-anchor="middle" x="619.75" y="-5.75" font-family="Helvetica,sans-Serif" font-size="10.00">/AppLauncher.cpp</text>
</a>
</g>
</g>
<!-- Node9&#45;&gt;Node10 -->
<g id="edge11_Node000009_Node000010" class="edge">
<title>Node9&#45;&gt;Node10</title>
<g id="a_edge11_Node000009_Node000010"><a xlink:title=" ">
<path fill="none" stroke="#63b8ff" d="M529.16,-66.19C548.35,-55.61 574.22,-41.35 593.4,-30.78"/>
<polygon fill="#63b8ff" stroke="#63b8ff" points="527.66,-63.02 520.59,-70.91 531.04,-69.15 527.66,-63.02"/>
</a>
</g>
</g>
<!-- Node11&#45;&gt;Node4 -->
<g id="edge15_Node000011_Node000004" class="edge">
<title>Node11&#45;&gt;Node4</title>
<g id="a_edge15_Node000011_Node000004"><a xlink:title=" ">
<path fill="none" stroke="#63b8ff" d="M593.89,-61.51C566.53,-49.5 532.58,-34.6 511.28,-25.26"/>
<polygon fill="#63b8ff" stroke="#63b8ff" points="592.44,-64.69 603.01,-65.51 595.26,-58.28 592.44,-64.69"/>
</a>
</g>
</g>
<!-- Node11&#45;&gt;Node10 -->
<g id="edge14_Node000011_Node000010" class="edge">
<title>Node11&#45;&gt;Node10</title>
<g id="a_edge14_Node000011_Node000010"><a xlink:title=" ">
<path fill="none" stroke="#63b8ff" d="M630.59,-55.09C628.29,-46.84 625.82,-37.99 623.82,-30.83"/>
<polygon fill="#63b8ff" stroke="#63b8ff" points="627.2,-55.96 633.26,-64.66 633.94,-54.08 627.2,-55.96"/>
</a>
</g>
</g>
<!-- Node12&#45;&gt;Node4 -->
<g id="edge18_Node000012_Node000004" class="edge">
<title>Node12&#45;&gt;Node4</title>
<g id="a_edge18_Node000012_Node000004"><a xlink:title=" ">
<path fill="none" stroke="#63b8ff" d="M700.82,-65.52C646.43,-52.76 570.79,-35.02 526.68,-24.68"/>
<polygon fill="#63b8ff" stroke="#63b8ff" points="699.74,-68.86 710.27,-67.74 701.34,-62.05 699.74,-68.86"/>
</a>
</g>
</g>
<!-- Node13 -->
<g id="Node000013" class="node">
<title>Node13</title>
<g id="a_Node000013"><a xlink:href="SettingsApp_8cpp.html" target="_top" xlink:title=" ">
<polygon fill="white" stroke="#666666" points="819.5,-30.5 712,-30.5 712,0 819.5,0 819.5,-30.5"/>
<text text-anchor="start" x="720" y="-17" font-family="Helvetica,sans-Serif" font-size="10.00">src/core/SettingsApp</text>
<text text-anchor="middle" x="765.75" y="-5.75" font-family="Helvetica,sans-Serif" font-size="10.00">/SettingsApp.cpp</text>
</a>
</g>
</g>
<!-- Node12&#45;&gt;Node13 -->
<g id="edge17_Node000012_Node000013" class="edge">
<title>Node12&#45;&gt;Node13</title>
<g id="a_edge17_Node000012_Node000013"><a xlink:title=" ">
<path fill="none" stroke="#63b8ff" d="M765.75,-54.81C765.75,-46.64 765.75,-37.91 765.75,-30.83"/>
<polygon fill="#63b8ff" stroke="#63b8ff" points="762.25,-54.6 765.75,-64.6 769.25,-54.6 762.25,-54.6"/>
</a>
</g>
</g>
</g>
</svg>

<g id="navigator" transform="translate(0 0)" fill="#404254">
  <rect fill="#f2f5e9" fill-opacity="0.5" stroke="#606060" stroke-width=".5" x="0" y="0" width="60" height="60"/>
  <use id="zoomplus" xlink:href="#zoomPlus" x="17" y="9" onmousedown="handleZoom(evt,'in')"/>
  <use id="zoomminus" xlink:href="#zoomMin" x="42" y="9" onmousedown="handleZoom(evt,'out')"/>
  <use id="reset" xlink:href="#resetDef" x="30" y="36" onmousedown="handleReset()"/>
   <use id="arrowup" xlink:href="#arrowUp" x="0" y="0" onmousedown="handlePan(0,-1)"/>
  <use id="arrowright" xlink:href="#arrowRight" x="0" y="0" onmousedown="handlePan(1,0)"/>
  <use id="arrowdown" xlink:href="#arrowDown" x="0" y="0" onmousedown="handlePan(0,1)"/>
  <use id="arrowleft" xlink:href="#arrowLeft" x="0" y="0" onmousedown="handlePan(-1,0)"/>
</g>
<svg viewBox="0 0 15 15" width="100%" height="30px" preserveAspectRatio="xMaxYMin meet">
 <g id="arrow_out" transform="scale(0.3 0.3)">
  <a xlink:href="App_8h__dep__incl_org.svg" target="_base">
   <rect id="button" ry="5" rx="5" y="6" x="6" height="38" width="38"
        fill="#f2f5e9" fill-opacity="0.5" stroke="#606060" stroke-width="1.0"/>
   <path id="arrow"
     d="M 11.500037,31.436501 C 11.940474,20.09759 22.043105,11.32322 32.158766,21.979434 L 37.068811,17.246167 C 37.068811,17.246167 37.088388,32 37.088388,32 L 22.160133,31.978069 C 22.160133,31.978069 26.997745,27.140456 26.997745,27.140456 C 18.528582,18.264221 13.291696,25.230495 11.500037,31.436501 z"
     style="fill:#404040;"/>
  </a>
 </g>
</svg>

<style type='text/css'>
<![CDATA[
[data-mouse-over-selected='false'] { opacity: 0.7; }
[data-mouse-over-selected='true']  { opacity: 1.0; }
]]>
</style>
<script type="application/ecmascript"><![CDATA[
document.addEventListener('DOMContentLoaded', (event) => {
  highlightEdges();
  highlightAdjacentNodes();
});
]]></script>
</svg>
