<?xml version="1.0" encoding="UTF-8" standalone="no"?>
<!DOCTYPE svg PUBLIC "-//W3C//DTD SVG 1.1//EN"
 "http://www.w3.org/Graphics/SVG/1.1/DTD/svg11.dtd">
<!-- Generated by graphviz version 12.1.2 (0)
 -->
<!-- Title: src/core/AppCollection.h Pages: 1 -->
<svg width="238pt" height="81pt"
 viewBox="0.00 0.00 237.75 81.00" xmlns="http://www.w3.org/2000/svg" xmlns:xlink="http://www.w3.org/1999/xlink">
<g id="graph0" class="graph" transform="scale(1 1) rotate(0) translate(4 77)">
<title>src/core/AppCollection.h</title>
<!-- Node1 -->
<g id="Node000001" class="node">
<title>Node1</title>
<g id="a_Node000001"><a xlink:title=" ">
<polygon fill="#999999" stroke="#666666" points="180.62,-73 57.38,-73 57.38,-54.5 180.62,-54.5 180.62,-73"/>
<text text-anchor="middle" x="119" y="-59.5" font-family="Helvetica,sans-Serif" font-size="10.00">src/core/AppCollection.h</text>
</a>
</g>
</g>
<!-- Node2 -->
<g id="Node000002" class="node">
<title>Node2</title>
<g id="a_Node000002"><a xlink:title=" ">
<polygon fill="#e0e0e0" stroke="#999999" points="52,-18.5 0,-18.5 0,0 52,0 52,-18.5"/>
<text text-anchor="middle" x="26" y="-5" font-family="Helvetica,sans-Serif" font-size="10.00">memory</text>
</a>
</g>
</g>
<!-- Node1&#45;&gt;Node2 -->
<g id="edge1_Node000001_Node000002" class="edge">
<title>Node1&#45;&gt;Node2</title>
<g id="a_edge1_Node000001_Node000002"><a xlink:title=" ">
<path fill="none" stroke="#63b8ff" d="M103.64,-54.08C89.37,-46.03 67.86,-33.88 51.1,-24.42"/>
<polygon fill="#63b8ff" stroke="#63b8ff" points="53.13,-21.54 42.7,-19.68 49.69,-27.64 53.13,-21.54"/>
</a>
</g>
</g>
<!-- Node3 -->
<g id="Node000003" class="node">
<title>Node3</title>
<g id="a_Node000003"><a xlink:title=" ">
<polygon fill="#e0e0e0" stroke="#999999" points="110,-18.5 70,-18.5 70,0 110,0 110,-18.5"/>
<text text-anchor="middle" x="90" y="-5" font-family="Helvetica,sans-Serif" font-size="10.00">string</text>
</a>
</g>
</g>
<!-- Node1&#45;&gt;Node3 -->
<g id="edge2_Node000001_Node000003" class="edge">
<title>Node1&#45;&gt;Node3</title>
<g id="a_edge2_Node000001_Node000003"><a xlink:title=" ">
<path fill="none" stroke="#63b8ff" d="M114.21,-54.08C110.41,-47.2 104.96,-37.34 100.2,-28.71"/>
<polygon fill="#63b8ff" stroke="#63b8ff" points="103.33,-27.14 95.43,-20.08 97.2,-30.53 103.33,-27.14"/>
</a>
</g>
</g>
<!-- Node4 -->
<g id="Node000004" class="node">
<title>Node4</title>
<g id="a_Node000004"><a xlink:title=" ">
<polygon fill="#e0e0e0" stroke="#999999" points="170.12,-18.5 127.88,-18.5 127.88,0 170.12,0 170.12,-18.5"/>
<text text-anchor="middle" x="149" y="-5" font-family="Helvetica,sans-Serif" font-size="10.00">vector</text>
</a>
</g>
</g>
<!-- Node1&#45;&gt;Node4 -->
<g id="edge3_Node000001_Node000004" class="edge">
<title>Node1&#45;&gt;Node4</title>
<g id="a_edge3_Node000001_Node000004"><a xlink:title=" ">
<path fill="none" stroke="#63b8ff" d="M123.95,-54.08C127.89,-47.2 133.52,-37.34 138.45,-28.71"/>
<polygon fill="#63b8ff" stroke="#63b8ff" points="141.46,-30.49 143.39,-20.07 135.39,-27.02 141.46,-30.49"/>
</a>
</g>
</g>
<!-- Node5 -->
<g id="Node000005" class="node">
<title>Node5</title>
<g id="a_Node000005"><a xlink:href="App_8h.html" target="_top" xlink:title="Abstract base class for applications.">
<polygon fill="white" stroke="#666666" points="229.75,-18.5 188.25,-18.5 188.25,0 229.75,0 229.75,-18.5"/>
<text text-anchor="middle" x="209" y="-5" font-family="Helvetica,sans-Serif" font-size="10.00">App.h</text>
</a>
</g>
</g>
<!-- Node1&#45;&gt;Node5 -->
<g id="edge4_Node000001_Node000005" class="edge">
<title>Node1&#45;&gt;Node5</title>
<g id="a_edge4_Node000001_Node000005"><a xlink:title=" ">
<path fill="none" stroke="#63b8ff" d="M133.86,-54.08C147.54,-46.1 168.1,-34.11 184.25,-24.69"/>
<polygon fill="#63b8ff" stroke="#63b8ff" points="185.93,-27.76 192.81,-19.69 182.41,-21.71 185.93,-27.76"/>
</a>
</g>
</g>
</g>
</svg>
