<?xml version="1.0" encoding="UTF-8" standalone="no"?>
<!DOCTYPE svg PUBLIC "-//W3C//DTD SVG 1.1//EN"
 "http://www.w3.org/Graphics/SVG/1.1/DTD/svg11.dtd">
<!-- Generated by graphviz version 12.2.0 (20241103.1931)
 -->
<!-- Title: src/core/AppLauncher/AppLauncher.cpp Pages: 1 -->
<svg width="617pt" height="149pt"
 viewBox="0.00 0.00 616.88 149.00" xmlns="http://www.w3.org/2000/svg" xmlns:xlink="http://www.w3.org/1999/xlink">
<g id="graph0" class="graph" transform="scale(1 1) rotate(0) translate(4 145)">
<title>src/core/AppLauncher/AppLauncher.cpp</title>
<!-- Node1 -->
<g id="Node000001" class="node">
<title>Node1</title>
<g id="a_Node000001"><a xlink:title=" ">
<polygon fill="#999999" stroke="#666666" points="320.88,-141 208.88,-141 208.88,-110.5 320.88,-110.5 320.88,-141"/>
<text text-anchor="start" x="216.88" y="-127.5" font-family="Helvetica,sans-Serif" font-size="10.00">src/core/AppLauncher</text>
<text text-anchor="middle" x="264.88" y="-116.25" font-family="Helvetica,sans-Serif" font-size="10.00">/AppLauncher.cpp</text>
</a>
</g>
</g>
<!-- Node2 -->
<g id="Node000002" class="node">
<title>Node2</title>
<g id="a_Node000002"><a xlink:href="AppLauncher_8h.html" target="_top" xlink:title=" ">
<polygon fill="white" stroke="#666666" points="305.5,-74.5 224.25,-74.5 224.25,-55.25 305.5,-55.25 305.5,-74.5"/>
<text text-anchor="middle" x="264.88" y="-61" font-family="Helvetica,sans-Serif" font-size="10.00">AppLauncher.h</text>
</a>
</g>
</g>
<!-- Node1&#45;&gt;Node2 -->
<g id="edge1_Node000001_Node000002" class="edge">
<title>Node1&#45;&gt;Node2</title>
<g id="a_edge1_Node000001_Node000002"><a xlink:title=" ">
<path fill="none" stroke="#63b8ff" d="M264.88,-110.2C264.88,-102.96 264.88,-94.09 264.88,-86.19"/>
<polygon fill="#63b8ff" stroke="#63b8ff" points="268.38,-86.46 264.88,-76.46 261.38,-86.46 268.38,-86.46"/>
</a>
</g>
</g>
<!-- Node6 -->
<g id="Node000006" class="node">
<title>Node6</title>
<g id="a_Node000006"><a xlink:href="AppCollection_8h.html" target="_top" xlink:title=" ">
<polygon fill="white" stroke="#666666" points="428.5,-74.5 323.25,-74.5 323.25,-55.25 428.5,-55.25 428.5,-74.5"/>
<text text-anchor="middle" x="375.88" y="-61" font-family="Helvetica,sans-Serif" font-size="10.00">core/AppCollection.h</text>
</a>
</g>
</g>
<!-- Node1&#45;&gt;Node6 -->
<g id="edge5_Node000001_Node000006" class="edge">
<title>Node1&#45;&gt;Node6</title>
<g id="a_edge5_Node000001_Node000006"><a xlink:title=" ">
<path fill="none" stroke="#63b8ff" d="M292.6,-110.05C309.83,-100.91 331.87,-89.22 348.95,-80.16"/>
<polygon fill="#63b8ff" stroke="#63b8ff" points="350.32,-83.39 357.52,-75.61 347.04,-77.21 350.32,-83.39"/>
</a>
</g>
</g>
<!-- Node10 -->
<g id="Node000010" class="node">
<title>Node10</title>
<g id="a_Node000010"><a xlink:href="Button_8h.html" target="_top" xlink:title=" ">
<polygon fill="white" stroke="#666666" points="581.25,-74.5 486.5,-74.5 486.5,-55.25 581.25,-55.25 581.25,-74.5"/>
<text text-anchor="middle" x="533.88" y="-61" font-family="Helvetica,sans-Serif" font-size="10.00">hardware/Button.h</text>
</a>
</g>
</g>
<!-- Node1&#45;&gt;Node10 -->
<g id="edge10_Node000001_Node000010" class="edge">
<title>Node1&#45;&gt;Node10</title>
<g id="a_edge10_Node000001_Node000010"><a xlink:title=" ">
<path fill="none" stroke="#63b8ff" d="M321.27,-112.41C368.42,-102.09 435.17,-87.48 481.24,-77.39"/>
<polygon fill="#63b8ff" stroke="#63b8ff" points="481.98,-80.81 491.01,-75.26 480.49,-73.98 481.98,-80.81"/>
</a>
</g>
</g>
<!-- Node12 -->
<g id="Node000012" class="node">
<title>Node12</title>
<g id="a_Node000012"><a xlink:href="Display_8h.html" target="_top" xlink:title=" ">
<polygon fill="white" stroke="#666666" points="97.75,-74.5 0,-74.5 0,-55.25 97.75,-55.25 97.75,-74.5"/>
<text text-anchor="middle" x="48.88" y="-61" font-family="Helvetica,sans-Serif" font-size="10.00">hardware/Display.h</text>
</a>
</g>
</g>
<!-- Node1&#45;&gt;Node12 -->
<g id="edge12_Node000001_Node000012" class="edge">
<title>Node1&#45;&gt;Node12</title>
<g id="a_edge12_Node000001_Node000012"><a xlink:title=" ">
<path fill="none" stroke="#63b8ff" d="M210.93,-110.05C174.66,-100.16 127.45,-87.29 93.35,-78"/>
<polygon fill="#63b8ff" stroke="#63b8ff" points="94.35,-74.64 83.78,-75.39 92.51,-81.4 94.35,-74.64"/>
</a>
</g>
</g>
<!-- Node14 -->
<g id="Node000014" class="node">
<title>Node14</title>
<g id="a_Node000014"><a xlink:href="Piezo_8h.html" target="_top" xlink:title=" ">
<polygon fill="white" stroke="#666666" points="206,-74.5 115.75,-74.5 115.75,-55.25 206,-55.25 206,-74.5"/>
<text text-anchor="middle" x="160.88" y="-61" font-family="Helvetica,sans-Serif" font-size="10.00">hardware/Piezo.h</text>
</a>
</g>
</g>
<!-- Node1&#45;&gt;Node14 -->
<g id="edge15_Node000001_Node000014" class="edge">
<title>Node1&#45;&gt;Node14</title>
<g id="a_edge15_Node000001_Node000014"><a xlink:title=" ">
<path fill="none" stroke="#63b8ff" d="M238.9,-110.05C222.91,-100.99 202.49,-89.44 186.56,-80.41"/>
<polygon fill="#63b8ff" stroke="#63b8ff" points="188.57,-77.53 178.14,-75.65 185.12,-83.62 188.57,-77.53"/>
</a>
</g>
</g>
<!-- Node3 -->
<g id="Node000003" class="node">
<title>Node3</title>
<g id="a_Node000003"><a xlink:title=" ">
<polygon fill="#e0e0e0" stroke="#999999" points="158.12,-19.25 101.62,-19.25 101.62,0 158.12,0 158.12,-19.25"/>
<text text-anchor="middle" x="129.88" y="-5.75" font-family="Helvetica,sans-Serif" font-size="10.00">Arduino.h</text>
</a>
</g>
</g>
<!-- Node2&#45;&gt;Node3 -->
<g id="edge2_Node000002_Node000003" class="edge">
<title>Node2&#45;&gt;Node3</title>
<g id="a_edge2_Node000002_Node000003"><a xlink:title=" ">
<path fill="none" stroke="#63b8ff" d="M241.97,-54.84C220.45,-46.35 187.96,-33.54 163.5,-23.89"/>
<polygon fill="#63b8ff" stroke="#63b8ff" points="164.88,-20.67 154.3,-20.26 162.31,-27.18 164.88,-20.67"/>
</a>
</g>
</g>
<!-- Node4 -->
<g id="Node000004" class="node">
<title>Node4</title>
<g id="a_Node000004"><a xlink:title=" ">
<polygon fill="#e0e0e0" stroke="#999999" points="251.12,-19.25 176.62,-19.25 176.62,0 251.12,0 251.12,-19.25"/>
<text text-anchor="middle" x="213.88" y="-5.75" font-family="Helvetica,sans-Serif" font-size="10.00">eSPI_Menu.h</text>
</a>
</g>
</g>
<!-- Node2&#45;&gt;Node4 -->
<g id="edge3_Node000002_Node000004" class="edge">
<title>Node2&#45;&gt;Node4</title>
<g id="a_edge3_Node000002_Node000004"><a xlink:title=" ">
<path fill="none" stroke="#63b8ff" d="M256.45,-55.08C249.34,-47.65 238.93,-36.79 230.19,-27.66"/>
<polygon fill="#63b8ff" stroke="#63b8ff" points="232.97,-25.5 223.53,-20.7 227.92,-30.35 232.97,-25.5"/>
</a>
</g>
</g>
<!-- Node5 -->
<g id="Node000005" class="node">
<title>Node5</title>
<g id="a_Node000005"><a xlink:href="App_8h.html" target="_top" xlink:title="Abstract base class for applications.">
<polygon fill="white" stroke="#666666" points="332.12,-19.25 269.62,-19.25 269.62,0 332.12,0 332.12,-19.25"/>
<text text-anchor="middle" x="300.88" y="-5.75" font-family="Helvetica,sans-Serif" font-size="10.00">core/App.h</text>
</a>
</g>
</g>
<!-- Node2&#45;&gt;Node5 -->
<g id="edge4_Node000002_Node000005" class="edge">
<title>Node2&#45;&gt;Node5</title>
<g id="a_edge4_Node000002_Node000005"><a xlink:title=" ">
<path fill="none" stroke="#63b8ff" d="M270.82,-55.08C275.59,-48.03 282.44,-37.9 288.4,-29.08"/>
<polygon fill="#63b8ff" stroke="#63b8ff" points="291.25,-31.11 293.95,-20.86 285.45,-27.19 291.25,-31.11"/>
</a>
</g>
</g>
<!-- Node6&#45;&gt;Node5 -->
<g id="edge9_Node000006_Node000005" class="edge">
<title>Node6&#45;&gt;Node5</title>
<g id="a_edge9_Node000006_Node000005"><a xlink:title=" ">
<path fill="none" stroke="#63b8ff" d="M363.15,-54.84C352.16,-47.04 336.03,-35.59 322.94,-26.29"/>
<polygon fill="#63b8ff" stroke="#63b8ff" points="325.07,-23.51 314.89,-20.58 321.02,-29.22 325.07,-23.51"/>
</a>
</g>
</g>
<!-- Node7 -->
<g id="Node000007" class="node">
<title>Node7</title>
<g id="a_Node000007"><a xlink:title=" ">
<polygon fill="#e0e0e0" stroke="#999999" points="401.12,-19.25 350.62,-19.25 350.62,0 401.12,0 401.12,-19.25"/>
<text text-anchor="middle" x="375.88" y="-5.75" font-family="Helvetica,sans-Serif" font-size="10.00">memory</text>
</a>
</g>
</g>
<!-- Node6&#45;&gt;Node7 -->
<g id="edge6_Node000006_Node000007" class="edge">
<title>Node6&#45;&gt;Node7</title>
<g id="a_edge6_Node000006_Node000007"><a xlink:title=" ">
<path fill="none" stroke="#63b8ff" d="M375.88,-55.08C375.88,-48.57 375.88,-39.42 375.88,-31.12"/>
<polygon fill="#63b8ff" stroke="#63b8ff" points="379.38,-31.12 375.88,-21.12 372.38,-31.12 379.38,-31.12"/>
</a>
</g>
</g>
<!-- Node8 -->
<g id="Node000008" class="node">
<title>Node8</title>
<g id="a_Node000008"><a xlink:title=" ">
<polygon fill="#e0e0e0" stroke="#999999" points="458.88,-19.25 418.88,-19.25 418.88,0 458.88,0 458.88,-19.25"/>
<text text-anchor="middle" x="438.88" y="-5.75" font-family="Helvetica,sans-Serif" font-size="10.00">string</text>
</a>
</g>
</g>
<!-- Node6&#45;&gt;Node8 -->
<g id="edge7_Node000006_Node000008" class="edge">
<title>Node6&#45;&gt;Node8</title>
<g id="a_edge7_Node000006_Node000008"><a xlink:title=" ">
<path fill="none" stroke="#63b8ff" d="M386.56,-54.84C395.58,-47.22 408.71,-36.12 419.56,-26.95"/>
<polygon fill="#63b8ff" stroke="#63b8ff" points="421.81,-29.63 427.19,-20.5 417.29,-24.28 421.81,-29.63"/>
</a>
</g>
</g>
<!-- Node9 -->
<g id="Node000009" class="node">
<title>Node9</title>
<g id="a_Node000009"><a xlink:title=" ">
<polygon fill="#e0e0e0" stroke="#999999" points="520.38,-19.25 477.38,-19.25 477.38,0 520.38,0 520.38,-19.25"/>
<text text-anchor="middle" x="498.88" y="-5.75" font-family="Helvetica,sans-Serif" font-size="10.00">vector</text>
</a>
</g>
</g>
<!-- Node6&#45;&gt;Node9 -->
<g id="edge8_Node000006_Node000009" class="edge">
<title>Node6&#45;&gt;Node9</title>
<g id="a_edge8_Node000006_Node000009"><a xlink:title=" ">
<path fill="none" stroke="#63b8ff" d="M396.74,-54.84C416.18,-46.43 445.42,-33.77 467.64,-24.15"/>
<polygon fill="#63b8ff" stroke="#63b8ff" points="468.73,-27.49 476.52,-20.3 465.95,-21.06 468.73,-27.49"/>
</a>
</g>
</g>
<!-- Node11 -->
<g id="Node000011" class="node">
<title>Node11</title>
<g id="a_Node000011"><a xlink:title=" ">
<polygon fill="#e0e0e0" stroke="#999999" points="608.88,-19.25 538.88,-19.25 538.88,0 608.88,0 608.88,-19.25"/>
<text text-anchor="middle" x="573.88" y="-5.75" font-family="Helvetica,sans-Serif" font-size="10.00">OneButton.h</text>
</a>
</g>
</g>
<!-- Node10&#45;&gt;Node11 -->
<g id="edge11_Node000010_Node000011" class="edge">
<title>Node10&#45;&gt;Node11</title>
<g id="a_edge11_Node000010_Node000011"><a xlink:title=" ">
<path fill="none" stroke="#63b8ff" d="M540.48,-55.08C545.83,-47.96 553.55,-37.68 560.22,-28.8"/>
<polygon fill="#63b8ff" stroke="#63b8ff" points="563.01,-30.92 566.22,-20.82 557.41,-26.71 563.01,-30.92"/>
</a>
</g>
</g>
<!-- Node12&#45;&gt;Node3 -->
<g id="edge13_Node000012_Node000003" class="edge">
<title>Node12&#45;&gt;Node3</title>
<g id="a_edge13_Node000012_Node000003"><a xlink:title=" ">
<path fill="none" stroke="#63b8ff" d="M62.62,-54.84C74.6,-46.96 92.25,-35.36 106.46,-26.02"/>
<polygon fill="#63b8ff" stroke="#63b8ff" points="108.37,-28.95 114.8,-20.53 104.52,-23.1 108.37,-28.95"/>
</a>
</g>
</g>
<!-- Node13 -->
<g id="Node000013" class="node">
<title>Node13</title>
<g id="a_Node000013"><a xlink:title=" ">
<polygon fill="#e0e0e0" stroke="#999999" points="83.12,-19.25 14.62,-19.25 14.62,0 83.12,0 83.12,-19.25"/>
<text text-anchor="middle" x="48.88" y="-5.75" font-family="Helvetica,sans-Serif" font-size="10.00">TFT_eSPI.h</text>
</a>
</g>
</g>
<!-- Node12&#45;&gt;Node13 -->
<g id="edge14_Node000012_Node000013" class="edge">
<title>Node12&#45;&gt;Node13</title>
<g id="a_edge14_Node000012_Node000013"><a xlink:title=" ">
<path fill="none" stroke="#63b8ff" d="M48.88,-55.08C48.88,-48.57 48.88,-39.42 48.88,-31.12"/>
<polygon fill="#63b8ff" stroke="#63b8ff" points="52.38,-31.12 48.88,-21.12 45.38,-31.12 52.38,-31.12"/>
</a>
</g>
</g>
<!-- Node14&#45;&gt;Node3 -->
<g id="edge16_Node000014_Node000003" class="edge">
<title>Node14&#45;&gt;Node3</title>
<g id="a_edge16_Node000014_Node000003"><a xlink:title=" ">
<path fill="none" stroke="#63b8ff" d="M155.76,-55.08C151.7,-48.11 145.88,-38.12 140.79,-29.37"/>
<polygon fill="#63b8ff" stroke="#63b8ff" points="143.92,-27.8 135.87,-20.92 137.87,-31.32 143.92,-27.8"/>
</a>
</g>
</g>
</g>
</svg>
