<?xml version="1.0" encoding="UTF-8" standalone="no"?>
<!DOCTYPE svg PUBLIC "-//W3C//DTD SVG 1.1//EN"
 "http://www.w3.org/Graphics/SVG/1.1/DTD/svg11.dtd">
<!-- Generated by graphviz version 12.1.2 (0)
 -->
<!-- Title: src/core/AppLauncher/AppLauncher.h Pages: 1 -->
<svg width="210pt" height="102pt"
 viewBox="0.00 0.00 209.75 102.00" xmlns="http://www.w3.org/2000/svg" xmlns:xlink="http://www.w3.org/1999/xlink">
<g id="graph0" class="graph" transform="scale(1 1) rotate(0) translate(4 98)">
<title>src/core/AppLauncher/AppLauncher.h</title>
<!-- Node1 -->
<g id="Node000001" class="node">
<title>Node1</title>
<g id="a_Node000001"><a xlink:title=" ">
<polygon fill="#999999" stroke="#666666" points="166.25,-94 55,-94 55,-65 166.25,-65 166.25,-94"/>
<text text-anchor="start" x="63" y="-80.5" font-family="Helvetica,sans-Serif" font-size="10.00">src/core/AppLauncher</text>
<text text-anchor="middle" x="110.62" y="-70" font-family="Helvetica,sans-Serif" font-size="10.00">/AppLauncher.h</text>
</a>
</g>
</g>
<!-- Node2 -->
<g id="Node000002" class="node">
<title>Node2</title>
<g id="a_Node000002"><a xlink:href="AppLauncher_8cpp.html" target="_top" xlink:title=" ">
<polygon fill="white" stroke="#666666" points="111.25,-29 0,-29 0,0 111.25,0 111.25,-29"/>
<text text-anchor="start" x="8" y="-15.5" font-family="Helvetica,sans-Serif" font-size="10.00">src/core/AppLauncher</text>
<text text-anchor="middle" x="55.62" y="-5" font-family="Helvetica,sans-Serif" font-size="10.00">/AppLauncher.cpp</text>
</a>
</g>
</g>
<!-- Node1&#45;&gt;Node2 -->
<g id="edge1_Node000001_Node000002" class="edge">
<title>Node1&#45;&gt;Node2</title>
<g id="a_edge1_Node000001_Node000002"><a xlink:title=" ">
<path fill="none" stroke="#63b8ff" d="M91.07,-56.1C83.31,-47.21 74.63,-37.27 67.8,-29.44"/>
<polygon fill="#63b8ff" stroke="#63b8ff" points="88.21,-58.15 97.42,-63.38 93.48,-53.54 88.21,-58.15"/>
</a>
</g>
</g>
<!-- Node3 -->
<g id="Node000003" class="node">
<title>Node3</title>
<g id="a_Node000003"><a xlink:href="main_8cpp.html" target="_top" xlink:title=" ">
<polygon fill="white" stroke="#666666" points="201.75,-23.75 129.5,-23.75 129.5,-5.25 201.75,-5.25 201.75,-23.75"/>
<text text-anchor="middle" x="165.62" y="-10.25" font-family="Helvetica,sans-Serif" font-size="10.00">src/main.cpp</text>
</a>
</g>
</g>
<!-- Node1&#45;&gt;Node3 -->
<g id="edge2_Node000001_Node000003" class="edge">
<title>Node1&#45;&gt;Node3</title>
<g id="a_edge2_Node000001_Node000003"><a xlink:title=" ">
<path fill="none" stroke="#63b8ff" d="M130.15,-56.13C139.79,-45.1 150.85,-32.42 158.02,-24.21"/>
<polygon fill="#63b8ff" stroke="#63b8ff" points="127.77,-53.54 123.83,-63.38 133.04,-58.15 127.77,-53.54"/>
</a>
</g>
</g>
</g>
</svg>
