<?xml version="1.0" encoding="UTF-8" standalone="no"?>
<!DOCTYPE svg PUBLIC "-//W3C//DTD SVG 1.1//EN"
 "http://www.w3.org/Graphics/SVG/1.1/DTD/svg11.dtd">
<!-- Generated by graphviz version 12.1.2 (0)
 -->
<!-- Title: src/core/AppLauncher/AppLauncher.h Pages: 1 -->
<svg width="239pt" height="92pt"
 viewBox="0.00 0.00 239.25 91.50" xmlns="http://www.w3.org/2000/svg" xmlns:xlink="http://www.w3.org/1999/xlink">
<g id="graph0" class="graph" transform="scale(1 1) rotate(0) translate(4 87.5)">
<title>src/core/AppLauncher/AppLauncher.h</title>
<!-- Node1 -->
<g id="Node000001" class="node">
<title>Node1</title>
<g id="a_Node000001"><a xlink:title=" ">
<polygon fill="#999999" stroke="#666666" points="168.25,-83.5 57,-83.5 57,-54.5 168.25,-54.5 168.25,-83.5"/>
<text text-anchor="start" x="65" y="-70" font-family="Helvetica,sans-Serif" font-size="10.00">src/core/AppLauncher</text>
<text text-anchor="middle" x="112.62" y="-59.5" font-family="Helvetica,sans-Serif" font-size="10.00">/AppLauncher.h</text>
</a>
</g>
</g>
<!-- Node2 -->
<g id="Node000002" class="node">
<title>Node2</title>
<g id="a_Node000002"><a xlink:title=" ">
<polygon fill="#e0e0e0" stroke="#999999" points="57.25,-18.5 0,-18.5 0,0 57.25,0 57.25,-18.5"/>
<text text-anchor="middle" x="28.62" y="-5" font-family="Helvetica,sans-Serif" font-size="10.00">Arduino.h</text>
</a>
</g>
</g>
<!-- Node1&#45;&gt;Node2 -->
<g id="edge1_Node000001_Node000002" class="edge">
<title>Node1&#45;&gt;Node2</title>
<g id="a_edge1_Node000001_Node000002"><a xlink:title=" ">
<path fill="none" stroke="#63b8ff" d="M92.29,-54.02C79.6,-45.3 63.27,-34.07 50.33,-25.17"/>
<polygon fill="#63b8ff" stroke="#63b8ff" points="52.68,-22.54 42.46,-19.76 48.72,-28.31 52.68,-22.54"/>
</a>
</g>
</g>
<!-- Node3 -->
<g id="Node000003" class="node">
<title>Node3</title>
<g id="a_Node000003"><a xlink:title=" ">
<polygon fill="#e0e0e0" stroke="#999999" points="149.88,-18.5 75.38,-18.5 75.38,0 149.88,0 149.88,-18.5"/>
<text text-anchor="middle" x="112.62" y="-5" font-family="Helvetica,sans-Serif" font-size="10.00">eSPI_Menu.h</text>
</a>
</g>
</g>
<!-- Node1&#45;&gt;Node3 -->
<g id="edge2_Node000001_Node000003" class="edge">
<title>Node1&#45;&gt;Node3</title>
<g id="a_edge2_Node000001_Node000003"><a xlink:title=" ">
<path fill="none" stroke="#63b8ff" d="M112.62,-54.02C112.62,-46.92 112.62,-38.17 112.62,-30.36"/>
<polygon fill="#63b8ff" stroke="#63b8ff" points="116.13,-30.42 112.63,-20.42 109.13,-30.42 116.13,-30.42"/>
</a>
</g>
</g>
<!-- Node4 -->
<g id="Node000004" class="node">
<title>Node4</title>
<g id="a_Node000004"><a xlink:href="App_8h.html" target="_top" xlink:title="Abstract base class for applications.">
<polygon fill="white" stroke="#666666" points="231.25,-18.5 168,-18.5 168,0 231.25,0 231.25,-18.5"/>
<text text-anchor="middle" x="199.62" y="-5" font-family="Helvetica,sans-Serif" font-size="10.00">core/App.h</text>
</a>
</g>
</g>
<!-- Node1&#45;&gt;Node4 -->
<g id="edge3_Node000001_Node000004" class="edge">
<title>Node1&#45;&gt;Node4</title>
<g id="a_edge3_Node000001_Node000004"><a xlink:title=" ">
<path fill="none" stroke="#63b8ff" d="M133.69,-54.02C146.83,-45.3 163.74,-34.07 177.14,-25.17"/>
<polygon fill="#63b8ff" stroke="#63b8ff" points="178.93,-28.19 185.33,-19.74 175.06,-22.36 178.93,-28.19"/>
</a>
</g>
</g>
</g>
</svg>
