<?xml version="1.0" encoding="UTF-8" standalone="no"?>
<!DOCTYPE svg PUBLIC "-//W3C//DTD SVG 1.1//EN"
 "http://www.w3.org/Graphics/SVG/1.1/DTD/svg11.dtd">
<!-- Generated by graphviz version 12.2.0 (20241103.1931)
 -->
<!-- Title: src/core/AppLauncher/AppLauncher.cpp Pages: 1 -->
<!--zoomable 204 -->

<svg id="main" version="1.1" xmlns="http://www.w3.org/2000/svg" xmlns:xlink="http://www.w3.org/1999/xlink" xml:space="preserve" onload="init(evt)">

<style type="text/css"><![CDATA[
.node, .edge {opacity: 0.7;}
.node.selected, .edge.selected {opacity: 1;}
.edge:hover path { stroke: red; }
.edge:hover polygon { stroke: red; fill: red; }
]]></style>

<defs>
  <circle id="rim" cx="0" cy="0" r="7"/>
  <circle id="rim2" cx="0" cy="0" r="3.5"/>
  <g id="zoomPlus">
    <use xlink:href="#rim" fill="#404040"><set attributeName="fill" to="#808080" begin="zoomplus.mouseover" end="zoomplus.mouseout"/></use>
    <path d="M-4,0h8M0,-4v8" fill="none" stroke="white" stroke-width="1.5" pointer-events="none"/>
  </g>
  <g id="zoomMin">
    <use xlink:href="#rim" fill="#404040"><set attributeName="fill" to="#808080" begin="zoomminus.mouseover" end="zoomminus.mouseout"/></use>
    <path d="M-4,0h8" fill="none" stroke="white" stroke-width="1.5" pointer-events="none"/>
  </g>
  <g id="arrowUp" transform="translate(30 24)">
    <use xlink:href="#rim"/>
    <path pointer-events="none" fill="none" stroke="white" stroke-width="1.5" d="M0,-3.0v7 M-2.5,-0.5L0,-3.0L2.5,-0.5"/>
  </g>
  <g id="arrowRight" transform="rotate(90) translate(36 -43)">
    <use xlink:href="#rim"/>
    <path pointer-events="none" fill="none" stroke="white" stroke-width="1.5" d="M0,-3.0v7 M-2.5,-0.5L0,-3.0L2.5,-0.5"/>
  </g>
  <g id="arrowDown" transform="rotate(180) translate(-30 -48)">
    <use xlink:href="#rim"/>
    <path pointer-events="none" fill="none" stroke="white" stroke-width="1.5" d="M0,-3.0v7 M-2.5,-0.5L0,-3.0L2.5,-0.5"/>
  </g>
  <g id="arrowLeft" transform="rotate(270) translate(-36 17)">
    <use xlink:href="#rim"/>
    <path pointer-events="none" fill="none" stroke="white" stroke-width="1.5" d="M0,-3.0v7 M-2.5,-0.5L0,-3.0L2.5,-0.5"/>
  </g>
  <g id="resetDef">
    <use xlink:href="#rim2" fill="#404040"><set attributeName="fill" to="#808080" begin="reset.mouseover" end="reset.mouseout"/></use>
  </g>
</defs>
<script type="application/ecmascript">
var viewWidth = 729;
var viewHeight = 204;
var sectionId = 'dynsection-0';
</script>
<script type="application/ecmascript" xlink:href="svg.min.js"/>
<svg id="graph" class="graph">
<g id="viewport">
<title>src/core/AppLauncher/AppLauncher.cpp</title>
<!-- Node1 -->
<g id="Node000001" class="node">
<title>Node1</title>
<g id="a_Node000001"><a xlink:title=" ">
<polygon fill="#999999" stroke="#666666" points="470.75,-196.25 358.75,-196.25 358.75,-165.75 470.75,-165.75 470.75,-196.25"/>
<text text-anchor="start" x="366.75" y="-182.75" font-family="Helvetica,sans-Serif" font-size="10.00">src/core/AppLauncher</text>
<text text-anchor="middle" x="414.75" y="-171.5" font-family="Helvetica,sans-Serif" font-size="10.00">/AppLauncher.cpp</text>
</a>
</g>
</g>
<!-- Node2 -->
<g id="Node000002" class="node">
<title>Node2</title>
<g id="a_Node000002"><a xlink:href="AppLauncher_8h.html" target="_top" xlink:title=" ">
<polygon fill="white" stroke="#666666" points="455.38,-129.75 374.12,-129.75 374.12,-110.5 455.38,-110.5 455.38,-129.75"/>
<text text-anchor="middle" x="414.75" y="-116.25" font-family="Helvetica,sans-Serif" font-size="10.00">AppLauncher.h</text>
</a>
</g>
</g>
<!-- Node1&#45;&gt;Node2 -->
<g id="edge1_Node000001_Node000002" class="edge">
<title>Node1&#45;&gt;Node2</title>
<g id="a_edge1_Node000001_Node000002"><a xlink:title=" ">
<path fill="none" stroke="#63b8ff" d="M414.75,-165.45C414.75,-158.21 414.75,-149.34 414.75,-141.44"/>
<polygon fill="#63b8ff" stroke="#63b8ff" points="418.25,-141.71 414.75,-131.71 411.25,-141.71 418.25,-141.71"/>
</a>
</g>
</g>
<!-- Node6 -->
<g id="Node000006" class="node">
<title>Node6</title>
<g id="a_Node000006"><a xlink:href="AppCollection_8h.html" target="_top" xlink:title=" ">
<polygon fill="white" stroke="#666666" points="623.38,-129.75 518.12,-129.75 518.12,-110.5 623.38,-110.5 623.38,-129.75"/>
<text text-anchor="middle" x="570.75" y="-116.25" font-family="Helvetica,sans-Serif" font-size="10.00">core/AppCollection.h</text>
</a>
</g>
</g>
<!-- Node1&#45;&gt;Node6 -->
<g id="edge5_Node000001_Node000006" class="edge">
<title>Node1&#45;&gt;Node6</title>
<g id="a_edge5_Node000001_Node000006"><a xlink:title=" ">
<path fill="none" stroke="#63b8ff" d="M453.71,-165.3C479.07,-155.73 511.84,-143.36 536.25,-134.14"/>
<polygon fill="#63b8ff" stroke="#63b8ff" points="537.29,-137.49 545.41,-130.69 534.82,-130.94 537.29,-137.49"/>
</a>
</g>
</g>
<!-- Node10 -->
<g id="Node000010" class="node">
<title>Node10</title>
<g id="a_Node000010"><a xlink:href="Hardware_8h.html" target="_top" xlink:title=" ">
<polygon fill="white" stroke="#666666" points="300.88,-129.75 192.62,-129.75 192.62,-110.5 300.88,-110.5 300.88,-129.75"/>
<text text-anchor="middle" x="246.75" y="-116.25" font-family="Helvetica,sans-Serif" font-size="10.00">hardware/Hardware.h</text>
</a>
</g>
</g>
<!-- Node1&#45;&gt;Node10 -->
<g id="edge10_Node000001_Node000010" class="edge">
<title>Node1&#45;&gt;Node10</title>
<g id="a_edge10_Node000001_Node000010"><a xlink:title=" ">
<path fill="none" stroke="#63b8ff" d="M372.79,-165.3C345.24,-155.64 309.55,-143.13 283.19,-133.9"/>
<polygon fill="#63b8ff" stroke="#63b8ff" points="284.54,-130.66 273.94,-130.65 282.22,-137.26 284.54,-130.66"/>
</a>
</g>
</g>
<!-- Node3 -->
<g id="Node000003" class="node">
<title>Node3</title>
<g id="a_Node000003"><a xlink:title=" ">
<polygon fill="#e0e0e0" stroke="#999999" points="307,-19.25 250.5,-19.25 250.5,0 307,0 307,-19.25"/>
<text text-anchor="middle" x="278.75" y="-5.75" font-family="Helvetica,sans-Serif" font-size="10.00">Arduino.h</text>
</a>
</g>
</g>
<!-- Node2&#45;&gt;Node3 -->
<g id="edge2_Node000002_Node000003" class="edge">
<title>Node2&#45;&gt;Node3</title>
<g id="a_edge2_Node000002_Node000003"><a xlink:title=" ">
<path fill="none" stroke="#63b8ff" d="M403.62,-110.25C380.71,-91.97 327.98,-49.9 298.91,-26.71"/>
<polygon fill="#63b8ff" stroke="#63b8ff" points="301.22,-24.07 291.22,-20.57 296.85,-29.54 301.22,-24.07"/>
</a>
</g>
</g>
<!-- Node4 -->
<g id="Node000004" class="node">
<title>Node4</title>
<g id="a_Node000004"><a xlink:title=" ">
<polygon fill="#e0e0e0" stroke="#999999" points="452,-74.5 377.5,-74.5 377.5,-55.25 452,-55.25 452,-74.5"/>
<text text-anchor="middle" x="414.75" y="-61" font-family="Helvetica,sans-Serif" font-size="10.00">eSPI_Menu.h</text>
</a>
</g>
</g>
<!-- Node2&#45;&gt;Node4 -->
<g id="edge3_Node000002_Node000004" class="edge">
<title>Node2&#45;&gt;Node4</title>
<g id="a_edge3_Node000002_Node000004"><a xlink:title=" ">
<path fill="none" stroke="#63b8ff" d="M414.75,-110.33C414.75,-103.82 414.75,-94.67 414.75,-86.37"/>
<polygon fill="#63b8ff" stroke="#63b8ff" points="418.25,-86.37 414.75,-76.37 411.25,-86.37 418.25,-86.37"/>
</a>
</g>
</g>
<!-- Node5 -->
<g id="Node000005" class="node">
<title>Node5</title>
<g id="a_Node000005"><a xlink:href="App_8h.html" target="_top" xlink:title="Abstract base class for applications.">
<polygon fill="white" stroke="#666666" points="533,-74.5 470.5,-74.5 470.5,-55.25 533,-55.25 533,-74.5"/>
<text text-anchor="middle" x="501.75" y="-61" font-family="Helvetica,sans-Serif" font-size="10.00">core/App.h</text>
</a>
</g>
</g>
<!-- Node2&#45;&gt;Node5 -->
<g id="edge4_Node000002_Node000005" class="edge">
<title>Node2&#45;&gt;Node5</title>
<g id="a_edge4_Node000002_Node000005"><a xlink:title=" ">
<path fill="none" stroke="#63b8ff" d="M429.51,-110.09C442.63,-102.06 462.07,-90.16 477.48,-80.73"/>
<polygon fill="#63b8ff" stroke="#63b8ff" points="478.93,-83.95 485.63,-75.74 475.27,-77.98 478.93,-83.95"/>
</a>
</g>
</g>
<!-- Node6&#45;&gt;Node5 -->
<g id="edge9_Node000006_Node000005" class="edge">
<title>Node6&#45;&gt;Node5</title>
<g id="a_edge9_Node000006_Node000005"><a xlink:title=" ">
<path fill="none" stroke="#63b8ff" d="M559.05,-110.09C548.97,-102.32 534.21,-90.92 522.19,-81.65"/>
<polygon fill="#63b8ff" stroke="#63b8ff" points="524.54,-79.04 514.48,-75.7 520.26,-84.58 524.54,-79.04"/>
</a>
</g>
</g>
<!-- Node7 -->
<g id="Node000007" class="node">
<title>Node7</title>
<g id="a_Node000007"><a xlink:title=" ">
<polygon fill="#e0e0e0" stroke="#999999" points="721,-74.5 670.5,-74.5 670.5,-55.25 721,-55.25 721,-74.5"/>
<text text-anchor="middle" x="695.75" y="-61" font-family="Helvetica,sans-Serif" font-size="10.00">memory</text>
</a>
</g>
</g>
<!-- Node6&#45;&gt;Node7 -->
<g id="edge6_Node000006_Node000007" class="edge">
<title>Node6&#45;&gt;Node7</title>
<g id="a_edge6_Node000006_Node000007"><a xlink:title=" ">
<path fill="none" stroke="#63b8ff" d="M591.95,-110.09C611.71,-101.68 641.42,-89.02 664,-79.4"/>
<polygon fill="#63b8ff" stroke="#63b8ff" points="665.22,-82.68 673.05,-75.55 662.48,-76.24 665.22,-82.68"/>
</a>
</g>
</g>
<!-- Node8 -->
<g id="Node000008" class="node">
<title>Node8</title>
<g id="a_Node000008"><a xlink:title=" ">
<polygon fill="#e0e0e0" stroke="#999999" points="590.75,-74.5 550.75,-74.5 550.75,-55.25 590.75,-55.25 590.75,-74.5"/>
<text text-anchor="middle" x="570.75" y="-61" font-family="Helvetica,sans-Serif" font-size="10.00">string</text>
</a>
</g>
</g>
<!-- Node6&#45;&gt;Node8 -->
<g id="edge7_Node000006_Node000008" class="edge">
<title>Node6&#45;&gt;Node8</title>
<g id="a_edge7_Node000006_Node000008"><a xlink:title=" ">
<path fill="none" stroke="#63b8ff" d="M570.75,-110.33C570.75,-103.82 570.75,-94.67 570.75,-86.37"/>
<polygon fill="#63b8ff" stroke="#63b8ff" points="574.25,-86.37 570.75,-76.37 567.25,-86.37 574.25,-86.37"/>
</a>
</g>
</g>
<!-- Node9 -->
<g id="Node000009" class="node">
<title>Node9</title>
<g id="a_Node000009"><a xlink:title=" ">
<polygon fill="#e0e0e0" stroke="#999999" points="652.25,-74.5 609.25,-74.5 609.25,-55.25 652.25,-55.25 652.25,-74.5"/>
<text text-anchor="middle" x="630.75" y="-61" font-family="Helvetica,sans-Serif" font-size="10.00">vector</text>
</a>
</g>
</g>
<!-- Node6&#45;&gt;Node9 -->
<g id="edge8_Node000006_Node000009" class="edge">
<title>Node6&#45;&gt;Node9</title>
<g id="a_edge8_Node000006_Node000009"><a xlink:title=" ">
<path fill="none" stroke="#63b8ff" d="M580.93,-110.09C589.51,-102.47 602.02,-91.37 612.35,-82.2"/>
<polygon fill="#63b8ff" stroke="#63b8ff" points="614.43,-85.04 619.59,-75.78 609.79,-79.8 614.43,-85.04"/>
</a>
</g>
</g>
<!-- Node10&#45;&gt;Node3 -->
<g id="edge11_Node000010_Node000003" class="edge">
<title>Node10&#45;&gt;Node3</title>
<g id="a_edge11_Node000010_Node000003"><a xlink:title=" ">
<path fill="none" stroke="#63b8ff" d="M260.98,-110.1C271.96,-102.21 286.33,-89.67 292.75,-74.5 298.84,-60.11 294.33,-42.72 288.86,-29.72"/>
<polygon fill="#63b8ff" stroke="#63b8ff" points="292.16,-28.51 284.7,-20.98 285.84,-31.52 292.16,-28.51"/>
</a>
</g>
</g>
<!-- Node11 -->
<g id="Node000011" class="node">
<title>Node11</title>
<g id="a_Node000011"><a xlink:href="Button_2Button_8h.html" target="_top" xlink:title=" ">
<polygon fill="white" stroke="#666666" points="83.5,-74.5 0,-74.5 0,-55.25 83.5,-55.25 83.5,-74.5"/>
<text text-anchor="middle" x="41.75" y="-61" font-family="Helvetica,sans-Serif" font-size="10.00">Button/Button.h</text>
</a>
</g>
</g>
<!-- Node10&#45;&gt;Node11 -->
<g id="edge12_Node000010_Node000011" class="edge">
<title>Node10&#45;&gt;Node11</title>
<g id="a_edge12_Node000010_Node000011"><a xlink:title=" ">
<path fill="none" stroke="#63b8ff" d="M211.97,-110.09C177.66,-101.18 125.03,-87.51 87.38,-77.73"/>
<polygon fill="#63b8ff" stroke="#63b8ff" points="88.72,-74.46 78.16,-75.33 86.96,-81.23 88.72,-74.46"/>
</a>
</g>
</g>
<!-- Node13 -->
<g id="Node000013" class="node">
<title>Node13</title>
<g id="a_Node000013"><a xlink:href="Display_8h.html" target="_top" xlink:title=" ">
<polygon fill="white" stroke="#666666" points="191.5,-74.5 102,-74.5 102,-55.25 191.5,-55.25 191.5,-74.5"/>
<text text-anchor="middle" x="146.75" y="-61" font-family="Helvetica,sans-Serif" font-size="10.00">Display/Display.h</text>
</a>
</g>
</g>
<!-- Node10&#45;&gt;Node13 -->
<g id="edge14_Node000010_Node000013" class="edge">
<title>Node10&#45;&gt;Node13</title>
<g id="a_edge14_Node000010_Node000013"><a xlink:title=" ">
<path fill="none" stroke="#63b8ff" d="M229.79,-110.09C214.49,-101.94 191.72,-89.82 173.89,-80.33"/>
<polygon fill="#63b8ff" stroke="#63b8ff" points="175.6,-77.27 165.13,-75.66 172.31,-83.45 175.6,-77.27"/>
</a>
</g>
</g>
<!-- Node15 -->
<g id="Node000015" class="node">
<title>Node15</title>
<g id="a_Node000015"><a xlink:href="Piezo_8h.html" target="_top" xlink:title=" ">
<polygon fill="white" stroke="#666666" points="284,-74.5 209.5,-74.5 209.5,-55.25 284,-55.25 284,-74.5"/>
<text text-anchor="middle" x="246.75" y="-61" font-family="Helvetica,sans-Serif" font-size="10.00">Piezo/Piezo.h</text>
</a>
</g>
</g>
<!-- Node10&#45;&gt;Node15 -->
<g id="edge17_Node000010_Node000015" class="edge">
<title>Node10&#45;&gt;Node15</title>
<g id="a_edge17_Node000010_Node000015"><a xlink:title=" ">
<path fill="none" stroke="#63b8ff" d="M246.75,-110.33C246.75,-103.82 246.75,-94.67 246.75,-86.37"/>
<polygon fill="#63b8ff" stroke="#63b8ff" points="250.25,-86.37 246.75,-76.37 243.25,-86.37 250.25,-86.37"/>
</a>
</g>
</g>
<!-- Node12 -->
<g id="Node000012" class="node">
<title>Node12</title>
<g id="a_Node000012"><a xlink:title=" ">
<polygon fill="#e0e0e0" stroke="#999999" points="76.75,-19.25 6.75,-19.25 6.75,0 76.75,0 76.75,-19.25"/>
<text text-anchor="middle" x="41.75" y="-5.75" font-family="Helvetica,sans-Serif" font-size="10.00">OneButton.h</text>
</a>
</g>
</g>
<!-- Node11&#45;&gt;Node12 -->
<g id="edge13_Node000011_Node000012" class="edge">
<title>Node11&#45;&gt;Node12</title>
<g id="a_edge13_Node000011_Node000012"><a xlink:title=" ">
<path fill="none" stroke="#63b8ff" d="M41.75,-55.08C41.75,-48.57 41.75,-39.42 41.75,-31.12"/>
<polygon fill="#63b8ff" stroke="#63b8ff" points="45.25,-31.12 41.75,-21.12 38.25,-31.12 45.25,-31.12"/>
</a>
</g>
</g>
<!-- Node13&#45;&gt;Node3 -->
<g id="edge15_Node000013_Node000003" class="edge">
<title>Node13&#45;&gt;Node3</title>
<g id="a_edge15_Node000013_Node000003"><a xlink:title=" ">
<path fill="none" stroke="#63b8ff" d="M169.14,-54.84C190.19,-46.35 221.95,-33.54 245.87,-23.89"/>
<polygon fill="#63b8ff" stroke="#63b8ff" points="246.88,-27.26 254.84,-20.27 244.26,-20.76 246.88,-27.26"/>
</a>
</g>
</g>
<!-- Node14 -->
<g id="Node000014" class="node">
<title>Node14</title>
<g id="a_Node000014"><a xlink:title=" ">
<polygon fill="#e0e0e0" stroke="#999999" points="181,-19.25 112.5,-19.25 112.5,0 181,0 181,-19.25"/>
<text text-anchor="middle" x="146.75" y="-5.75" font-family="Helvetica,sans-Serif" font-size="10.00">TFT_eSPI.h</text>
</a>
</g>
</g>
<!-- Node13&#45;&gt;Node14 -->
<g id="edge16_Node000013_Node000014" class="edge">
<title>Node13&#45;&gt;Node14</title>
<g id="a_edge16_Node000013_Node000014"><a xlink:title=" ">
<path fill="none" stroke="#63b8ff" d="M146.75,-55.08C146.75,-48.57 146.75,-39.42 146.75,-31.12"/>
<polygon fill="#63b8ff" stroke="#63b8ff" points="150.25,-31.12 146.75,-21.12 143.25,-31.12 150.25,-31.12"/>
</a>
</g>
</g>
<!-- Node15&#45;&gt;Node3 -->
<g id="edge18_Node000015_Node000003" class="edge">
<title>Node15&#45;&gt;Node3</title>
<g id="a_edge18_Node000015_Node000003"><a xlink:title=" ">
<path fill="none" stroke="#63b8ff" d="M252.03,-55.08C256.22,-48.11 262.23,-38.12 267.48,-29.37"/>
<polygon fill="#63b8ff" stroke="#63b8ff" points="270.42,-31.28 272.57,-20.91 264.42,-27.68 270.42,-31.28"/>
</a>
</g>
</g>
</g>
</svg>

<g id="navigator" transform="translate(0 0)" fill="#404254">
  <rect fill="#f2f5e9" fill-opacity="0.5" stroke="#606060" stroke-width=".5" x="0" y="0" width="60" height="60"/>
  <use id="zoomplus" xlink:href="#zoomPlus" x="17" y="9" onmousedown="handleZoom(evt,'in')"/>
  <use id="zoomminus" xlink:href="#zoomMin" x="42" y="9" onmousedown="handleZoom(evt,'out')"/>
  <use id="reset" xlink:href="#resetDef" x="30" y="36" onmousedown="handleReset()"/>
   <use id="arrowup" xlink:href="#arrowUp" x="0" y="0" onmousedown="handlePan(0,-1)"/>
  <use id="arrowright" xlink:href="#arrowRight" x="0" y="0" onmousedown="handlePan(1,0)"/>
  <use id="arrowdown" xlink:href="#arrowDown" x="0" y="0" onmousedown="handlePan(0,1)"/>
  <use id="arrowleft" xlink:href="#arrowLeft" x="0" y="0" onmousedown="handlePan(-1,0)"/>
</g>
<svg viewBox="0 0 15 15" width="100%" height="30px" preserveAspectRatio="xMaxYMin meet">
 <g id="arrow_out" transform="scale(0.3 0.3)">
  <a xlink:href="AppLauncher_8cpp__incl_org.svg" target="_base">
   <rect id="button" ry="5" rx="5" y="6" x="6" height="38" width="38"
        fill="#f2f5e9" fill-opacity="0.5" stroke="#606060" stroke-width="1.0"/>
   <path id="arrow"
     d="M 11.500037,31.436501 C 11.940474,20.09759 22.043105,11.32322 32.158766,21.979434 L 37.068811,17.246167 C 37.068811,17.246167 37.088388,32 37.088388,32 L 22.160133,31.978069 C 22.160133,31.978069 26.997745,27.140456 26.997745,27.140456 C 18.528582,18.264221 13.291696,25.230495 11.500037,31.436501 z"
     style="fill:#404040;"/>
  </a>
 </g>
</svg>

<style type='text/css'>
<![CDATA[
[data-mouse-over-selected='false'] { opacity: 0.7; }
[data-mouse-over-selected='true']  { opacity: 1.0; }
]]>
</style>
<script type="application/ecmascript"><![CDATA[
document.addEventListener('DOMContentLoaded', (event) => {
  highlightEdges();
  highlightAdjacentNodes();
});
]]></script>
</svg>
