<?xml version="1.0" encoding="UTF-8" standalone="no"?>
<!DOCTYPE svg PUBLIC "-//W3C//DTD SVG 1.1//EN"
 "http://www.w3.org/Graphics/SVG/1.1/DTD/svg11.dtd">
<!-- Generated by graphviz version 7.0.5 (20221223.1930)
 -->
<!-- Title: src/core/AppLauncher/AppLauncher.cpp Pages: 1 -->
<svg width="622pt" height="148pt"
 viewBox="0.00 0.00 621.50 148.00" xmlns="http://www.w3.org/2000/svg" xmlns:xlink="http://www.w3.org/1999/xlink">
<g id="graph0" class="graph" transform="scale(1 1) rotate(0) translate(4 144)">
<title>src/core/AppLauncher/AppLauncher.cpp</title>
<!-- Node1 -->
<g id="node1" class="node">
<title>Node1</title>
<g id="a_node1"><a xlink:title=" ">
<polygon fill="#999999" stroke="#666666" points="323.5,-140 210.5,-140 210.5,-110 323.5,-110 323.5,-140"/>
<text text-anchor="start" x="218.5" y="-128" font-family="Helvetica,sans-Serif" font-size="10.00">src/core/AppLauncher</text>
<text text-anchor="middle" x="267" y="-117" font-family="Helvetica,sans-Serif" font-size="10.00">/AppLauncher.cpp</text>
</a>
</g>
</g>
<!-- Node2 -->
<g id="node2" class="node">
<title>Node2</title>
<g id="a_node2"><a xlink:href="AppLauncher_8h.html" target="_top" xlink:title=" ">
<polygon fill="white" stroke="#666666" points="308,-74 226,-74 226,-55 308,-55 308,-74"/>
<text text-anchor="middle" x="267" y="-62" font-family="Helvetica,sans-Serif" font-size="10.00">AppLauncher.h</text>
</a>
</g>
</g>
<!-- Node1&#45;&gt;Node2 -->
<g id="edge1" class="edge">
<title>Node1&#45;&gt;Node2</title>
<path fill="none" stroke="#63b8ff" d="M267,-109.54C267,-102.34 267,-93.53 267,-85.68"/>
<polygon fill="#63b8ff" stroke="#63b8ff" points="270.5,-85.69 267,-75.69 263.5,-85.69 270.5,-85.69"/>
</g>
<!-- Node6 -->
<g id="node6" class="node">
<title>Node6</title>
<g id="a_node6"><a xlink:href="AppCollection_8h.html" target="_top" xlink:title=" ">
<polygon fill="white" stroke="#666666" points="432,-74 326,-74 326,-55 432,-55 432,-74"/>
<text text-anchor="middle" x="379" y="-62" font-family="Helvetica,sans-Serif" font-size="10.00">core/AppCollection.h</text>
</a>
</g>
</g>
<!-- Node1&#45;&gt;Node6 -->
<g id="edge5" class="edge">
<title>Node1&#45;&gt;Node6</title>
<path fill="none" stroke="#63b8ff" d="M294.69,-109.54C312.17,-100.4 334.66,-88.66 352.01,-79.6"/>
<polygon fill="#63b8ff" stroke="#63b8ff" points="353.48,-82.78 360.72,-75.05 350.24,-76.57 353.48,-82.78"/>
</g>
<!-- Node10 -->
<g id="node10" class="node">
<title>Node10</title>
<g id="a_node10"><a xlink:href="Button_8h.html" target="_top" xlink:title=" ">
<polygon fill="white" stroke="#666666" points="584.5,-74 489.5,-74 489.5,-55 584.5,-55 584.5,-74"/>
<text text-anchor="middle" x="537" y="-62" font-family="Helvetica,sans-Serif" font-size="10.00">hardware/Button.h</text>
</a>
</g>
</g>
<!-- Node1&#45;&gt;Node10 -->
<g id="edge10" class="edge">
<title>Node1&#45;&gt;Node10</title>
<path fill="none" stroke="#63b8ff" d="M323.93,-111.67C371.38,-101.38 438.44,-86.85 484.59,-76.85"/>
<polygon fill="#63b8ff" stroke="#63b8ff" points="485.05,-80.34 494.08,-74.8 483.56,-73.5 485.05,-80.34"/>
</g>
<!-- Node12 -->
<g id="node12" class="node">
<title>Node12</title>
<g id="a_node12"><a xlink:href="Display_8h.html" target="_top" xlink:title=" ">
<polygon fill="white" stroke="#666666" points="98,-74 0,-74 0,-55 98,-55 98,-74"/>
<text text-anchor="middle" x="49" y="-62" font-family="Helvetica,sans-Serif" font-size="10.00">hardware/Display.h</text>
</a>
</g>
</g>
<!-- Node1&#45;&gt;Node12 -->
<g id="edge12" class="edge">
<title>Node1&#45;&gt;Node12</title>
<path fill="none" stroke="#63b8ff" d="M213.11,-109.54C176.14,-99.62 127.68,-86.61 93.02,-77.31"/>
<polygon fill="#63b8ff" stroke="#63b8ff" points="94.31,-74.04 83.75,-74.82 92.5,-80.8 94.31,-74.04"/>
</g>
<!-- Node14 -->
<g id="node14" class="node">
<title>Node14</title>
<g id="a_node14"><a xlink:href="Piezo_8h.html" target="_top" xlink:title=" ">
<polygon fill="white" stroke="#666666" points="207.5,-74 116.5,-74 116.5,-55 207.5,-55 207.5,-74"/>
<text text-anchor="middle" x="162" y="-62" font-family="Helvetica,sans-Serif" font-size="10.00">hardware/Piezo.h</text>
</a>
</g>
</g>
<!-- Node1&#45;&gt;Node14 -->
<g id="edge15" class="edge">
<title>Node1&#45;&gt;Node14</title>
<path fill="none" stroke="#63b8ff" d="M241.04,-109.54C224.8,-100.49 203.97,-88.88 187.76,-79.85"/>
<polygon fill="#63b8ff" stroke="#63b8ff" points="189.64,-76.89 179.2,-75.08 186.23,-83.01 189.64,-76.89"/>
</g>
<!-- Node3 -->
<g id="node3" class="node">
<title>Node3</title>
<g id="a_node3"><a xlink:title=" ">
<polygon fill="#e0e0e0" stroke="#999999" points="159.5,-19 102.5,-19 102.5,0 159.5,0 159.5,-19"/>
<text text-anchor="middle" x="131" y="-7" font-family="Helvetica,sans-Serif" font-size="10.00">Arduino.h</text>
</a>
</g>
</g>
<!-- Node2&#45;&gt;Node3 -->
<g id="edge2" class="edge">
<title>Node2&#45;&gt;Node3</title>
<path fill="none" stroke="#63b8ff" d="M243.93,-54.51C222.11,-46.01 189.12,-33.15 164.42,-23.53"/>
<polygon fill="#63b8ff" stroke="#63b8ff" points="165.73,-20.28 155.14,-19.91 163.19,-26.8 165.73,-20.28"/>
</g>
<!-- Node4 -->
<g id="node4" class="node">
<title>Node4</title>
<g id="a_node4"><a xlink:title=" ">
<polygon fill="#e0e0e0" stroke="#999999" points="252.5,-19 177.5,-19 177.5,0 252.5,0 252.5,-19"/>
<text text-anchor="middle" x="215" y="-7" font-family="Helvetica,sans-Serif" font-size="10.00">eSPI_Menu.h</text>
</a>
</g>
</g>
<!-- Node2&#45;&gt;Node4 -->
<g id="edge3" class="edge">
<title>Node2&#45;&gt;Node4</title>
<path fill="none" stroke="#63b8ff" d="M258.41,-54.75C251.16,-47.35 240.55,-36.54 231.63,-27.45"/>
<polygon fill="#63b8ff" stroke="#63b8ff" points="234.34,-25.21 224.83,-20.52 229.34,-30.11 234.34,-25.21"/>
</g>
<!-- Node5 -->
<g id="node5" class="node">
<title>Node5</title>
<g id="a_node5"><a xlink:href="App_8h.html" target="_top" xlink:title="Abstract base class for applications.">
<polygon fill="white" stroke="#666666" points="333.5,-19 270.5,-19 270.5,0 333.5,0 333.5,-19"/>
<text text-anchor="middle" x="302" y="-7" font-family="Helvetica,sans-Serif" font-size="10.00">core/App.h</text>
</a>
</g>
</g>
<!-- Node2&#45;&gt;Node5 -->
<g id="edge4" class="edge">
<title>Node2&#45;&gt;Node5</title>
<path fill="none" stroke="#63b8ff" d="M272.78,-54.75C277.41,-47.73 284.07,-37.64 289.87,-28.87"/>
<polygon fill="#63b8ff" stroke="#63b8ff" points="292.67,-30.98 295.26,-20.71 286.83,-27.12 292.67,-30.98"/>
</g>
<!-- Node6&#45;&gt;Node5 -->
<g id="edge9" class="edge">
<title>Node6&#45;&gt;Node5</title>
<path fill="none" stroke="#63b8ff" d="M365.94,-54.51C354.48,-46.62 337.57,-34.98 324.02,-25.65"/>
<polygon fill="#63b8ff" stroke="#63b8ff" points="326.34,-23 316.12,-20.22 322.37,-28.77 326.34,-23"/>
</g>
<!-- Node7 -->
<g id="node7" class="node">
<title>Node7</title>
<g id="a_node7"><a xlink:title=" ">
<polygon fill="#e0e0e0" stroke="#999999" points="402.5,-19 351.5,-19 351.5,0 402.5,0 402.5,-19"/>
<text text-anchor="middle" x="377" y="-7" font-family="Helvetica,sans-Serif" font-size="10.00">memory</text>
</a>
</g>
</g>
<!-- Node6&#45;&gt;Node7 -->
<g id="edge6" class="edge">
<title>Node6&#45;&gt;Node7</title>
<path fill="none" stroke="#63b8ff" d="M378.67,-54.75C378.43,-48.27 378.08,-39.16 377.77,-30.9"/>
<polygon fill="#63b8ff" stroke="#63b8ff" points="381.27,-30.82 377.39,-20.95 374.27,-31.08 381.27,-30.82"/>
</g>
<!-- Node8 -->
<g id="node8" class="node">
<title>Node8</title>
<g id="a_node8"><a xlink:title=" ">
<polygon fill="#e0e0e0" stroke="#999999" points="461.5,-19 420.5,-19 420.5,0 461.5,0 461.5,-19"/>
<text text-anchor="middle" x="441" y="-7" font-family="Helvetica,sans-Serif" font-size="10.00">string</text>
</a>
</g>
</g>
<!-- Node6&#45;&gt;Node8 -->
<g id="edge7" class="edge">
<title>Node6&#45;&gt;Node8</title>
<path fill="none" stroke="#63b8ff" d="M389.52,-54.51C398.39,-46.93 411.31,-35.88 421.99,-26.75"/>
<polygon fill="#63b8ff" stroke="#63b8ff" points="424.16,-29.5 429.49,-20.34 419.61,-24.18 424.16,-29.5"/>
</g>
<!-- Node9 -->
<g id="node9" class="node">
<title>Node9</title>
<g id="a_node9"><a xlink:title=" ">
<polygon fill="#e0e0e0" stroke="#999999" points="524,-19 480,-19 480,0 524,0 524,-19"/>
<text text-anchor="middle" x="502" y="-7" font-family="Helvetica,sans-Serif" font-size="10.00">vector</text>
</a>
</g>
</g>
<!-- Node6&#45;&gt;Node9 -->
<g id="edge8" class="edge">
<title>Node6&#45;&gt;Node9</title>
<path fill="none" stroke="#63b8ff" d="M399.87,-54.51C419.42,-46.08 448.9,-33.38 471.17,-23.79"/>
<polygon fill="#63b8ff" stroke="#63b8ff" points="472.25,-27.13 480.05,-19.96 469.48,-20.7 472.25,-27.13"/>
</g>
<!-- Node11 -->
<g id="node11" class="node">
<title>Node11</title>
<g id="a_node11"><a xlink:title=" ">
<polygon fill="#e0e0e0" stroke="#999999" points="613.5,-19 542.5,-19 542.5,0 613.5,0 613.5,-19"/>
<text text-anchor="middle" x="578" y="-7" font-family="Helvetica,sans-Serif" font-size="10.00">OneButton.h</text>
</a>
</g>
</g>
<!-- Node10&#45;&gt;Node11 -->
<g id="edge11" class="edge">
<title>Node10&#45;&gt;Node11</title>
<path fill="none" stroke="#63b8ff" d="M543.77,-54.75C549.32,-47.58 557.34,-37.2 564.23,-28.3"/>
<polygon fill="#63b8ff" stroke="#63b8ff" points="566.81,-30.69 570.16,-20.64 561.27,-26.41 566.81,-30.69"/>
</g>
<!-- Node12&#45;&gt;Node3 -->
<g id="edge13" class="edge">
<title>Node12&#45;&gt;Node3</title>
<path fill="none" stroke="#63b8ff" d="M62.91,-54.51C75.24,-46.54 93.47,-34.75 107.97,-25.38"/>
<polygon fill="#63b8ff" stroke="#63b8ff" points="109.53,-28.55 116.02,-20.18 105.73,-22.67 109.53,-28.55"/>
</g>
<!-- Node13 -->
<g id="node13" class="node">
<title>Node13</title>
<g id="a_node13"><a xlink:title=" ">
<polygon fill="#e0e0e0" stroke="#999999" points="83.5,-19 14.5,-19 14.5,0 83.5,0 83.5,-19"/>
<text text-anchor="middle" x="49" y="-7" font-family="Helvetica,sans-Serif" font-size="10.00">TFT_eSPI.h</text>
</a>
</g>
</g>
<!-- Node12&#45;&gt;Node13 -->
<g id="edge14" class="edge">
<title>Node12&#45;&gt;Node13</title>
<path fill="none" stroke="#63b8ff" d="M49,-54.75C49,-48.27 49,-39.16 49,-30.9"/>
<polygon fill="#63b8ff" stroke="#63b8ff" points="52.5,-30.96 49,-20.96 45.5,-30.96 52.5,-30.96"/>
</g>
<!-- Node14&#45;&gt;Node3 -->
<g id="edge16" class="edge">
<title>Node14&#45;&gt;Node3</title>
<path fill="none" stroke="#63b8ff" d="M156.88,-54.75C152.82,-47.81 147.01,-37.86 141.91,-29.16"/>
<polygon fill="#63b8ff" stroke="#63b8ff" points="145.06,-27.61 136.99,-20.75 139.02,-31.15 145.06,-27.61"/>
</g>
</g>
</svg>
