<?xml version="1.0" encoding="UTF-8" standalone="no"?>
<!DOCTYPE svg PUBLIC "-//W3C//DTD SVG 1.1//EN"
 "http://www.w3.org/Graphics/SVG/1.1/DTD/svg11.dtd">
<!-- Generated by graphviz version 12.1.2 (0)
 -->
<!-- Title: src/core/AppLauncher/AppLauncher.cpp Pages: 1 -->
<svg width="619pt" height="146pt"
 viewBox="0.00 0.00 618.62 146.00" xmlns="http://www.w3.org/2000/svg" xmlns:xlink="http://www.w3.org/1999/xlink">
<g id="graph0" class="graph" transform="scale(1 1) rotate(0) translate(4 142)">
<title>src/core/AppLauncher/AppLauncher.cpp</title>
<!-- Node1 -->
<g id="Node000001" class="node">
<title>Node1</title>
<g id="a_Node000001"><a xlink:title=" ">
<polygon fill="#999999" stroke="#666666" points="320.88,-138 209.62,-138 209.62,-109 320.88,-109 320.88,-138"/>
<text text-anchor="start" x="217.62" y="-124.5" font-family="Helvetica,sans-Serif" font-size="10.00">src/core/AppLauncher</text>
<text text-anchor="middle" x="265.25" y="-114" font-family="Helvetica,sans-Serif" font-size="10.00">/AppLauncher.cpp</text>
</a>
</g>
</g>
<!-- Node2 -->
<g id="Node000002" class="node">
<title>Node2</title>
<g id="a_Node000002"><a xlink:href="AppLauncher_8h.html" target="_top" xlink:title=" ">
<polygon fill="white" stroke="#666666" points="305.88,-73 224.62,-73 224.62,-54.5 305.88,-54.5 305.88,-73"/>
<text text-anchor="middle" x="265.25" y="-59.5" font-family="Helvetica,sans-Serif" font-size="10.00">AppLauncher.h</text>
</a>
</g>
</g>
<!-- Node1&#45;&gt;Node2 -->
<g id="edge1_Node000001_Node000002" class="edge">
<title>Node1&#45;&gt;Node2</title>
<g id="a_edge1_Node000001_Node000002"><a xlink:title=" ">
<path fill="none" stroke="#63b8ff" d="M265.25,-108.52C265.25,-101.42 265.25,-92.67 265.25,-84.86"/>
<polygon fill="#63b8ff" stroke="#63b8ff" points="268.75,-84.92 265.25,-74.92 261.75,-84.92 268.75,-84.92"/>
</a>
</g>
</g>
<!-- Node6 -->
<g id="Node000006" class="node">
<title>Node6</title>
<g id="a_Node000006"><a xlink:href="AppCollection_8h.html" target="_top" xlink:title=" ">
<polygon fill="white" stroke="#666666" points="430.62,-73 323.88,-73 323.88,-54.5 430.62,-54.5 430.62,-73"/>
<text text-anchor="middle" x="377.25" y="-59.5" font-family="Helvetica,sans-Serif" font-size="10.00">core/AppCollection.h</text>
</a>
</g>
</g>
<!-- Node1&#45;&gt;Node6 -->
<g id="edge5_Node000001_Node000006" class="edge">
<title>Node1&#45;&gt;Node6</title>
<g id="a_edge5_Node000001_Node000006"><a xlink:title=" ">
<path fill="none" stroke="#63b8ff" d="M292.36,-108.52C309.95,-99.45 332.77,-87.69 350.31,-78.64"/>
<polygon fill="#63b8ff" stroke="#63b8ff" points="351.84,-81.79 359.12,-74.1 348.63,-75.57 351.84,-81.79"/>
</a>
</g>
</g>
<!-- Node10 -->
<g id="Node000010" class="node">
<title>Node10</title>
<g id="a_Node000010"><a xlink:href="Button_8h.html" target="_top" xlink:title=" ">
<polygon fill="white" stroke="#666666" points="582.62,-73 487.88,-73 487.88,-54.5 582.62,-54.5 582.62,-73"/>
<text text-anchor="middle" x="535.25" y="-59.5" font-family="Helvetica,sans-Serif" font-size="10.00">hardware/Button.h</text>
</a>
</g>
</g>
<!-- Node1&#45;&gt;Node10 -->
<g id="edge10_Node000001_Node000010" class="edge">
<title>Node1&#45;&gt;Node10</title>
<g id="a_edge10_Node000001_Node000010"><a xlink:title=" ">
<path fill="none" stroke="#63b8ff" d="M321.19,-110.53C369,-100.31 437.22,-85.72 483.71,-75.77"/>
<polygon fill="#63b8ff" stroke="#63b8ff" points="484.22,-79.24 493.26,-73.73 482.75,-72.4 484.22,-79.24"/>
</a>
</g>
</g>
<!-- Node12 -->
<g id="Node000012" class="node">
<title>Node12</title>
<g id="a_Node000012"><a xlink:href="Display_8h.html" target="_top" xlink:title=" ">
<polygon fill="white" stroke="#666666" points="98.5,-73 0,-73 0,-54.5 98.5,-54.5 98.5,-73"/>
<text text-anchor="middle" x="49.25" y="-59.5" font-family="Helvetica,sans-Serif" font-size="10.00">hardware/Display.h</text>
</a>
</g>
</g>
<!-- Node1&#45;&gt;Node12 -->
<g id="edge12_Node000001_Node000012" class="edge">
<title>Node1&#45;&gt;Node12</title>
<g id="a_edge12_Node000001_Node000012"><a xlink:title=" ">
<path fill="none" stroke="#63b8ff" d="M212.96,-108.52C176.12,-98.67 127.37,-85.64 92.67,-76.36"/>
<polygon fill="#63b8ff" stroke="#63b8ff" points="93.96,-73.08 83.4,-73.88 92.15,-79.84 93.96,-73.08"/>
</a>
</g>
</g>
<!-- Node14 -->
<g id="Node000014" class="node">
<title>Node14</title>
<g id="a_Node000014"><a xlink:href="Piezo_8h.html" target="_top" xlink:title=" ">
<polygon fill="white" stroke="#666666" points="206.38,-73 116.12,-73 116.12,-54.5 206.38,-54.5 206.38,-73"/>
<text text-anchor="middle" x="161.25" y="-59.5" font-family="Helvetica,sans-Serif" font-size="10.00">hardware/Piezo.h</text>
</a>
</g>
</g>
<!-- Node1&#45;&gt;Node14 -->
<g id="edge15_Node000001_Node000014" class="edge">
<title>Node1&#45;&gt;Node14</title>
<g id="a_edge15_Node000001_Node000014"><a xlink:title=" ">
<path fill="none" stroke="#63b8ff" d="M240.07,-108.52C223.9,-99.54 202.96,-87.91 186.72,-78.9"/>
<polygon fill="#63b8ff" stroke="#63b8ff" points="188.6,-75.93 178.16,-74.14 185.2,-82.05 188.6,-75.93"/>
</a>
</g>
</g>
<!-- Node3 -->
<g id="Node000003" class="node">
<title>Node3</title>
<g id="a_Node000003"><a xlink:title=" ">
<polygon fill="#e0e0e0" stroke="#999999" points="158.88,-18.5 101.62,-18.5 101.62,0 158.88,0 158.88,-18.5"/>
<text text-anchor="middle" x="130.25" y="-5" font-family="Helvetica,sans-Serif" font-size="10.00">Arduino.h</text>
</a>
</g>
</g>
<!-- Node2&#45;&gt;Node3 -->
<g id="edge2_Node000002_Node000003" class="edge">
<title>Node2&#45;&gt;Node3</title>
<g id="a_edge2_Node000002_Node000003"><a xlink:title=" ">
<path fill="none" stroke="#63b8ff" d="M242.96,-54.08C221.27,-45.65 188.05,-32.73 163.29,-23.1"/>
<polygon fill="#63b8ff" stroke="#63b8ff" points="164.57,-19.84 153.99,-19.48 162.04,-26.37 164.57,-19.84"/>
</a>
</g>
</g>
<!-- Node4 -->
<g id="Node000004" class="node">
<title>Node4</title>
<g id="a_Node000004"><a xlink:title=" ">
<polygon fill="#e0e0e0" stroke="#999999" points="251.5,-18.5 177,-18.5 177,0 251.5,0 251.5,-18.5"/>
<text text-anchor="middle" x="214.25" y="-5" font-family="Helvetica,sans-Serif" font-size="10.00">eSPI_Menu.h</text>
</a>
</g>
</g>
<!-- Node2&#45;&gt;Node4 -->
<g id="edge3_Node000002_Node000004" class="edge">
<title>Node2&#45;&gt;Node4</title>
<g id="a_edge3_Node000002_Node000004"><a xlink:title=" ">
<path fill="none" stroke="#63b8ff" d="M256.83,-54.08C249.7,-46.74 239.27,-36.01 230.52,-27"/>
<polygon fill="#63b8ff" stroke="#63b8ff" points="233.05,-24.58 223.57,-19.84 228.03,-29.46 233.05,-24.58"/>
</a>
</g>
</g>
<!-- Node5 -->
<g id="Node000005" class="node">
<title>Node5</title>
<g id="a_Node000005"><a xlink:href="App_8h.html" target="_top" xlink:title="Abstract base class for applications.">
<polygon fill="white" stroke="#666666" points="332.88,-18.5 269.62,-18.5 269.62,0 332.88,0 332.88,-18.5"/>
<text text-anchor="middle" x="301.25" y="-5" font-family="Helvetica,sans-Serif" font-size="10.00">core/App.h</text>
</a>
</g>
</g>
<!-- Node2&#45;&gt;Node5 -->
<g id="edge4_Node000002_Node000005" class="edge">
<title>Node2&#45;&gt;Node5</title>
<g id="a_edge4_Node000002_Node000005"><a xlink:title=" ">
<path fill="none" stroke="#63b8ff" d="M271.19,-54.08C276.02,-47.05 282.98,-36.9 288.99,-28.14"/>
<polygon fill="#63b8ff" stroke="#63b8ff" points="291.79,-30.23 294.56,-20.01 286.02,-26.27 291.79,-30.23"/>
</a>
</g>
</g>
<!-- Node6&#45;&gt;Node5 -->
<g id="edge9_Node000006_Node000005" class="edge">
<title>Node6&#45;&gt;Node5</title>
<g id="a_edge9_Node000006_Node000005"><a xlink:title=" ">
<path fill="none" stroke="#63b8ff" d="M364.7,-54.08C353.37,-46.25 336.45,-34.57 322.93,-25.23"/>
<polygon fill="#63b8ff" stroke="#63b8ff" points="325.28,-22.6 315.06,-19.79 321.3,-28.36 325.28,-22.6"/>
</a>
</g>
</g>
<!-- Node7 -->
<g id="Node000007" class="node">
<title>Node7</title>
<g id="a_Node000007"><a xlink:title=" ">
<polygon fill="#e0e0e0" stroke="#999999" points="403.25,-18.5 351.25,-18.5 351.25,0 403.25,0 403.25,-18.5"/>
<text text-anchor="middle" x="377.25" y="-5" font-family="Helvetica,sans-Serif" font-size="10.00">memory</text>
</a>
</g>
</g>
<!-- Node6&#45;&gt;Node7 -->
<g id="edge6_Node000006_Node000007" class="edge">
<title>Node6&#45;&gt;Node7</title>
<g id="a_edge6_Node000006_Node000007"><a xlink:title=" ">
<path fill="none" stroke="#63b8ff" d="M377.25,-54.08C377.25,-47.58 377.25,-38.42 377.25,-30.16"/>
<polygon fill="#63b8ff" stroke="#63b8ff" points="380.75,-30.27 377.25,-20.27 373.75,-30.27 380.75,-30.27"/>
</a>
</g>
</g>
<!-- Node8 -->
<g id="Node000008" class="node">
<title>Node8</title>
<g id="a_Node000008"><a xlink:title=" ">
<polygon fill="#e0e0e0" stroke="#999999" points="461.25,-18.5 421.25,-18.5 421.25,0 461.25,0 461.25,-18.5"/>
<text text-anchor="middle" x="441.25" y="-5" font-family="Helvetica,sans-Serif" font-size="10.00">string</text>
</a>
</g>
</g>
<!-- Node6&#45;&gt;Node8 -->
<g id="edge7_Node000006_Node000008" class="edge">
<title>Node6&#45;&gt;Node8</title>
<g id="a_edge7_Node000006_Node000008"><a xlink:title=" ">
<path fill="none" stroke="#63b8ff" d="M387.82,-54.08C397.14,-46.44 410.95,-35.11 422.19,-25.88"/>
<polygon fill="#63b8ff" stroke="#63b8ff" points="424.2,-28.77 429.71,-19.72 419.76,-23.35 424.2,-28.77"/>
</a>
</g>
</g>
<!-- Node9 -->
<g id="Node000009" class="node">
<title>Node9</title>
<g id="a_Node000009"><a xlink:title=" ">
<polygon fill="#e0e0e0" stroke="#999999" points="521.38,-18.5 479.12,-18.5 479.12,0 521.38,0 521.38,-18.5"/>
<text text-anchor="middle" x="500.25" y="-5" font-family="Helvetica,sans-Serif" font-size="10.00">vector</text>
</a>
</g>
</g>
<!-- Node6&#45;&gt;Node9 -->
<g id="edge8_Node000006_Node000009" class="edge">
<title>Node6&#45;&gt;Node9</title>
<g id="a_edge8_Node000006_Node000009"><a xlink:title=" ">
<path fill="none" stroke="#63b8ff" d="M397.56,-54.08C417.15,-45.72 447.05,-32.96 469.54,-23.36"/>
<polygon fill="#63b8ff" stroke="#63b8ff" points="470.69,-26.67 478.52,-19.53 467.95,-20.23 470.69,-26.67"/>
</a>
</g>
</g>
<!-- Node11 -->
<g id="Node000011" class="node">
<title>Node11</title>
<g id="a_Node000011"><a xlink:title=" ">
<polygon fill="#e0e0e0" stroke="#999999" points="610.62,-18.5 539.88,-18.5 539.88,0 610.62,0 610.62,-18.5"/>
<text text-anchor="middle" x="575.25" y="-5" font-family="Helvetica,sans-Serif" font-size="10.00">OneButton.h</text>
</a>
</g>
</g>
<!-- Node10&#45;&gt;Node11 -->
<g id="edge11_Node000010_Node000011" class="edge">
<title>Node10&#45;&gt;Node11</title>
<g id="a_edge11_Node000010_Node000011"><a xlink:title=" ">
<path fill="none" stroke="#63b8ff" d="M541.86,-54.08C547.27,-46.97 555.12,-36.68 561.84,-27.85"/>
<polygon fill="#63b8ff" stroke="#63b8ff" points="564.57,-30.04 567.85,-19.96 559.01,-25.8 564.57,-30.04"/>
</a>
</g>
</g>
<!-- Node12&#45;&gt;Node3 -->
<g id="edge13_Node000012_Node000003" class="edge">
<title>Node12&#45;&gt;Node3</title>
<g id="a_edge13_Node000012_Node000003"><a xlink:title=" ">
<path fill="none" stroke="#63b8ff" d="M62.63,-54.08C74.82,-46.18 93.08,-34.34 107.56,-24.96"/>
<polygon fill="#63b8ff" stroke="#63b8ff" points="109.1,-28.13 115.58,-19.76 105.29,-22.26 109.1,-28.13"/>
</a>
</g>
</g>
<!-- Node13 -->
<g id="Node000013" class="node">
<title>Node13</title>
<g id="a_Node000013"><a xlink:title=" ">
<polygon fill="#e0e0e0" stroke="#999999" points="83.5,-18.5 15,-18.5 15,0 83.5,0 83.5,-18.5"/>
<text text-anchor="middle" x="49.25" y="-5" font-family="Helvetica,sans-Serif" font-size="10.00">TFT_eSPI.h</text>
</a>
</g>
</g>
<!-- Node12&#45;&gt;Node13 -->
<g id="edge14_Node000012_Node000013" class="edge">
<title>Node12&#45;&gt;Node13</title>
<g id="a_edge14_Node000012_Node000013"><a xlink:title=" ">
<path fill="none" stroke="#63b8ff" d="M49.25,-54.08C49.25,-47.58 49.25,-38.42 49.25,-30.16"/>
<polygon fill="#63b8ff" stroke="#63b8ff" points="52.75,-30.27 49.25,-20.27 45.75,-30.27 52.75,-30.27"/>
</a>
</g>
</g>
<!-- Node14&#45;&gt;Node3 -->
<g id="edge16_Node000014_Node000003" class="edge">
<title>Node14&#45;&gt;Node3</title>
<g id="a_edge16_Node000014_Node000003"><a xlink:title=" ">
<path fill="none" stroke="#63b8ff" d="M156.13,-54.08C152.02,-47.12 146.11,-37.12 140.98,-28.42"/>
<polygon fill="#63b8ff" stroke="#63b8ff" points="144.14,-26.89 136.04,-20.06 138.11,-30.45 144.14,-26.89"/>
</a>
</g>
</g>
</g>
</svg>
