<?xml version="1.0" encoding="UTF-8" standalone="no"?>
<!DOCTYPE svg PUBLIC "-//W3C//DTD SVG 1.1//EN"
 "http://www.w3.org/Graphics/SVG/1.1/DTD/svg11.dtd">
<!-- Generated by graphviz version 12.2.0 (20241103.1931)
 -->
<!-- Title: src/hardware/Button/Button.h Pages: 1 -->
<svg width="882pt" height="238pt"
 viewBox="0.00 0.00 881.50 238.00" xmlns="http://www.w3.org/2000/svg" xmlns:xlink="http://www.w3.org/1999/xlink">
<g id="graph0" class="graph" transform="scale(1 1) rotate(0) translate(4 234)">
<title>src/hardware/Button/Button.h</title>
<!-- Node1 -->
<g id="Node000001" class="node">
<title>Node1</title>
<g id="a_Node000001"><a xlink:title=" ">
<polygon fill="#999999" stroke="#666666" points="418.62,-230 314.88,-230 314.88,-199.5 418.62,-199.5 418.62,-230"/>
<text text-anchor="start" x="322.88" y="-216.5" font-family="Helvetica,sans-Serif" font-size="10.00">src/hardware/Button</text>
<text text-anchor="middle" x="366.75" y="-205.25" font-family="Helvetica,sans-Serif" font-size="10.00">/Button.h</text>
</a>
</g>
</g>
<!-- Node2 -->
<g id="Node000002" class="node">
<title>Node2</title>
<g id="a_Node000002"><a xlink:href="Button_8cpp.html" target="_top" xlink:title=" ">
<polygon fill="white" stroke="#666666" points="352.62,-163.5 248.88,-163.5 248.88,-133 352.62,-133 352.62,-163.5"/>
<text text-anchor="start" x="256.88" y="-150" font-family="Helvetica,sans-Serif" font-size="10.00">src/hardware/Button</text>
<text text-anchor="middle" x="300.75" y="-138.75" font-family="Helvetica,sans-Serif" font-size="10.00">/Button.cpp</text>
</a>
</g>
</g>
<!-- Node1&#45;&gt;Node2 -->
<g id="edge1_Node000001_Node000002" class="edge">
<title>Node1&#45;&gt;Node2</title>
<g id="a_edge1_Node000001_Node000002"><a xlink:title=" ">
<path fill="none" stroke="#63b8ff" d="M343.66,-191.19C334.37,-182.11 323.93,-171.9 315.67,-163.83"/>
<polygon fill="#63b8ff" stroke="#63b8ff" points="341.09,-193.57 350.69,-198.06 345.99,-188.56 341.09,-193.57"/>
</a>
</g>
</g>
<!-- Node3 -->
<g id="Node000003" class="node">
<title>Node3</title>
<g id="a_Node000003"><a xlink:href="Hardware_8h.html" target="_top" xlink:title=" ">
<polygon fill="white" stroke="#666666" points="495.12,-157.88 370.38,-157.88 370.38,-138.62 495.12,-138.62 495.12,-157.88"/>
<text text-anchor="middle" x="432.75" y="-144.38" font-family="Helvetica,sans-Serif" font-size="10.00">src/hardware/Hardware.h</text>
</a>
</g>
</g>
<!-- Node1&#45;&gt;Node3 -->
<g id="edge2_Node000001_Node000003" class="edge">
<title>Node1&#45;&gt;Node3</title>
<g id="a_edge2_Node000001_Node000003"><a xlink:title=" ">
<path fill="none" stroke="#63b8ff" d="M389.82,-191.21C401.51,-179.78 415.03,-166.57 423.72,-158.07"/>
<polygon fill="#63b8ff" stroke="#63b8ff" points="387.51,-188.56 382.81,-198.06 392.41,-193.57 387.51,-188.56"/>
</a>
</g>
</g>
<!-- Node4 -->
<g id="Node000004" class="node">
<title>Node4</title>
<g id="a_Node000004"><a xlink:href="ClockApp_8cpp.html" target="_top" xlink:title=" ">
<polygon fill="white" stroke="#666666" points="161.5,-91.38 0,-91.38 0,-72.12 161.5,-72.12 161.5,-91.38"/>
<text text-anchor="middle" x="80.75" y="-77.88" font-family="Helvetica,sans-Serif" font-size="10.00">src/apps/ClockApp/ClockApp.cpp</text>
</a>
</g>
</g>
<!-- Node3&#45;&gt;Node4 -->
<g id="edge3_Node000003_Node000004" class="edge">
<title>Node3&#45;&gt;Node4</title>
<g id="a_edge3_Node000003_Node000004"><a xlink:title=" ">
<path fill="none" stroke="#63b8ff" d="M376.92,-135.93C371.79,-134.92 366.68,-133.93 361.75,-133 282.39,-117.94 190.17,-101.69 133.64,-91.86"/>
<polygon fill="#63b8ff" stroke="#63b8ff" points="376.11,-139.34 386.6,-137.84 377.47,-132.47 376.11,-139.34"/>
</a>
</g>
</g>
<!-- Node5 -->
<g id="Node000005" class="node">
<title>Node5</title>
<g id="a_Node000005"><a xlink:href="GooglyEyes_8cpp.html" target="_top" xlink:title=" ">
<polygon fill="white" stroke="#666666" points="287.5,-97 180,-97 180,-66.5 287.5,-66.5 287.5,-97"/>
<text text-anchor="start" x="188" y="-83.5" font-family="Helvetica,sans-Serif" font-size="10.00">src/apps/GooglyEyes</text>
<text text-anchor="middle" x="233.75" y="-72.25" font-family="Helvetica,sans-Serif" font-size="10.00">/GooglyEyes.cpp</text>
</a>
</g>
</g>
<!-- Node3&#45;&gt;Node5 -->
<g id="edge4_Node000003_Node000005" class="edge">
<title>Node3&#45;&gt;Node5</title>
<g id="a_edge4_Node000003_Node000005"><a xlink:title=" ">
<path fill="none" stroke="#63b8ff" d="M394.07,-134.71C361.1,-124.03 313.66,-108.65 278.95,-97.4"/>
<polygon fill="#63b8ff" stroke="#63b8ff" points="392.63,-137.92 403.22,-137.68 394.79,-131.27 392.63,-137.92"/>
</a>
</g>
</g>
<!-- Node6 -->
<g id="Node000006" class="node">
<title>Node6</title>
<g id="a_Node000006"><a xlink:href="MatrixApp_8cpp.html" target="_top" xlink:title=" ">
<polygon fill="white" stroke="#666666" points="391.75,-30.5 291.75,-30.5 291.75,0 391.75,0 391.75,-30.5"/>
<text text-anchor="start" x="299.75" y="-17" font-family="Helvetica,sans-Serif" font-size="10.00">src/apps/MatrixApp</text>
<text text-anchor="middle" x="341.75" y="-5.75" font-family="Helvetica,sans-Serif" font-size="10.00">/MatrixApp.cpp</text>
</a>
</g>
</g>
<!-- Node3&#45;&gt;Node6 -->
<g id="edge5_Node000003_Node000006" class="edge">
<title>Node3&#45;&gt;Node6</title>
<g id="a_edge5_Node000003_Node000006"><a xlink:title=" ">
<path fill="none" stroke="#63b8ff" d="M383.76,-134.2C365.06,-126.57 345.63,-114.81 334.75,-97 322.35,-76.71 329.37,-48.02 335.58,-30.86"/>
<polygon fill="#63b8ff" stroke="#63b8ff" points="382.31,-137.39 392.9,-137.6 384.75,-130.83 382.31,-137.39"/>
</a>
</g>
</g>
<!-- Node7 -->
<g id="Node000007" class="node">
<title>Node7</title>
<g id="a_Node000007"><a xlink:href="MatrixApp_8h.html" target="_top" xlink:title=" ">
<polygon fill="white" stroke="#666666" points="443.75,-97 343.75,-97 343.75,-66.5 443.75,-66.5 443.75,-97"/>
<text text-anchor="start" x="351.75" y="-83.5" font-family="Helvetica,sans-Serif" font-size="10.00">src/apps/MatrixApp</text>
<text text-anchor="middle" x="393.75" y="-72.25" font-family="Helvetica,sans-Serif" font-size="10.00">/MatrixApp.h</text>
</a>
</g>
</g>
<!-- Node3&#45;&gt;Node7 -->
<g id="edge6_Node000003_Node000007" class="edge">
<title>Node3&#45;&gt;Node7</title>
<g id="a_edge6_Node000003_Node000007"><a xlink:title=" ">
<path fill="none" stroke="#63b8ff" d="M421.4,-128.48C415.35,-118.47 408.02,-106.34 402.42,-97.09"/>
<polygon fill="#63b8ff" stroke="#63b8ff" points="418.37,-130.24 426.54,-136.99 424.36,-126.62 418.37,-130.24"/>
</a>
</g>
</g>
<!-- Node8 -->
<g id="Node000008" class="node">
<title>Node8</title>
<g id="a_Node000008"><a xlink:href="main_8cpp.html" target="_top" xlink:title=" ">
<polygon fill="white" stroke="#666666" points="494.5,-24.88 423,-24.88 423,-5.63 494.5,-5.63 494.5,-24.88"/>
<text text-anchor="middle" x="458.75" y="-11.38" font-family="Helvetica,sans-Serif" font-size="10.00">src/main.cpp</text>
</a>
</g>
</g>
<!-- Node3&#45;&gt;Node8 -->
<g id="edge12_Node000003_Node000008" class="edge">
<title>Node3&#45;&gt;Node8</title>
<g id="a_edge12_Node000003_Node000008"><a xlink:title=" ">
<path fill="none" stroke="#63b8ff" d="M442.03,-127.96C446.02,-118.79 450.32,-107.55 452.75,-97 458.62,-71.52 459.13,-40.44 458.97,-25.35"/>
<polygon fill="#63b8ff" stroke="#63b8ff" points="438.92,-126.34 437.93,-136.88 445.29,-129.25 438.92,-126.34"/>
</a>
</g>
</g>
<!-- Node9 -->
<g id="Node000009" class="node">
<title>Node9</title>
<g id="a_Node000009"><a xlink:href="PomodoroApp_8cpp.html" target="_top" xlink:title=" ">
<polygon fill="white" stroke="#666666" points="617.75,-97 499.75,-97 499.75,-66.5 617.75,-66.5 617.75,-97"/>
<text text-anchor="start" x="507.75" y="-83.5" font-family="Helvetica,sans-Serif" font-size="10.00">src/apps/PomodoroApp</text>
<text text-anchor="middle" x="558.75" y="-72.25" font-family="Helvetica,sans-Serif" font-size="10.00">/PomodoroApp.cpp</text>
</a>
</g>
</g>
<!-- Node3&#45;&gt;Node9 -->
<g id="edge9_Node000003_Node000009" class="edge">
<title>Node3&#45;&gt;Node9</title>
<g id="a_edge9_Node000003_Node000009"><a xlink:title=" ">
<path fill="none" stroke="#63b8ff" d="M460.62,-132.99C481.34,-122.38 509.53,-107.95 530.37,-97.28"/>
<polygon fill="#63b8ff" stroke="#63b8ff" points="459.19,-129.78 451.88,-137.46 462.38,-136.01 459.19,-129.78"/>
</a>
</g>
</g>
<!-- Node10 -->
<g id="Node000010" class="node">
<title>Node10</title>
<g id="a_Node000010"><a xlink:href="AppLauncher_8cpp.html" target="_top" xlink:title=" ">
<polygon fill="white" stroke="#666666" points="747.75,-97 635.75,-97 635.75,-66.5 747.75,-66.5 747.75,-97"/>
<text text-anchor="start" x="643.75" y="-83.5" font-family="Helvetica,sans-Serif" font-size="10.00">src/core/AppLauncher</text>
<text text-anchor="middle" x="691.75" y="-72.25" font-family="Helvetica,sans-Serif" font-size="10.00">/AppLauncher.cpp</text>
</a>
</g>
</g>
<!-- Node3&#45;&gt;Node10 -->
<g id="edge10_Node000003_Node000010" class="edge">
<title>Node3&#45;&gt;Node10</title>
<g id="a_edge10_Node000003_Node000010"><a xlink:title=" ">
<path fill="none" stroke="#63b8ff" d="M480.23,-135.43C523.99,-124.53 589,-108.34 635.38,-96.79"/>
<polygon fill="#63b8ff" stroke="#63b8ff" points="479.64,-131.97 470.78,-137.78 481.33,-138.76 479.64,-131.97"/>
</a>
</g>
</g>
<!-- Node11 -->
<g id="Node000011" class="node">
<title>Node11</title>
<g id="a_Node000011"><a xlink:href="SettingsApp_8cpp.html" target="_top" xlink:title=" ">
<polygon fill="white" stroke="#666666" points="873.5,-97 766,-97 766,-66.5 873.5,-66.5 873.5,-97"/>
<text text-anchor="start" x="774" y="-83.5" font-family="Helvetica,sans-Serif" font-size="10.00">src/core/SettingsApp</text>
<text text-anchor="middle" x="819.75" y="-72.25" font-family="Helvetica,sans-Serif" font-size="10.00">/SettingsApp.cpp</text>
</a>
</g>
</g>
<!-- Node3&#45;&gt;Node11 -->
<g id="edge11_Node000003_Node000011" class="edge">
<title>Node3&#45;&gt;Node11</title>
<g id="a_edge11_Node000003_Node000011"><a xlink:title=" ">
<path fill="none" stroke="#63b8ff" d="M506.47,-137.29C572.3,-128.04 671.25,-113.28 756.75,-97 759.61,-96.45 762.55,-95.87 765.5,-95.27"/>
<polygon fill="#63b8ff" stroke="#63b8ff" points="506.3,-133.78 496.88,-138.63 507.27,-140.71 506.3,-133.78"/>
</a>
</g>
</g>
<!-- Node7&#45;&gt;Node6 -->
<g id="edge7_Node000007_Node000006" class="edge">
<title>Node7&#45;&gt;Node6</title>
<g id="a_edge7_Node000007_Node000006"><a xlink:title=" ">
<path fill="none" stroke="#63b8ff" d="M374.89,-57.35C367.74,-48.48 359.81,-38.65 353.5,-30.83"/>
<polygon fill="#63b8ff" stroke="#63b8ff" points="372,-59.35 381,-64.94 377.45,-54.95 372,-59.35"/>
</a>
</g>
</g>
<!-- Node7&#45;&gt;Node8 -->
<g id="edge8_Node000007_Node000008" class="edge">
<title>Node7&#45;&gt;Node8</title>
<g id="a_edge8_Node000007_Node000008"><a xlink:title=" ">
<path fill="none" stroke="#63b8ff" d="M416.47,-58.21C427.98,-46.78 441.29,-33.57 449.86,-25.07"/>
<polygon fill="#63b8ff" stroke="#63b8ff" points="414.21,-55.52 409.57,-65.05 419.14,-60.49 414.21,-55.52"/>
</a>
</g>
</g>
</g>
</svg>
