<?xml version="1.0" encoding="UTF-8" standalone="no"?>
<!DOCTYPE svg PUBLIC "-//W3C//DTD SVG 1.1//EN"
 "http://www.w3.org/Graphics/SVG/1.1/DTD/svg11.dtd">
<!-- Generated by graphviz version 12.1.2 (0)
 -->
<!-- Title: src/hardware/Button.cpp Pages: 1 -->
<svg width="130pt" height="136pt"
 viewBox="0.00 0.00 129.75 135.50" xmlns="http://www.w3.org/2000/svg" xmlns:xlink="http://www.w3.org/1999/xlink">
<g id="graph0" class="graph" transform="scale(1 1) rotate(0) translate(4 131.5)">
<title>src/hardware/Button.cpp</title>
<!-- Node1 -->
<g id="Node000001" class="node">
<title>Node1</title>
<g id="a_Node000001"><a xlink:title=" ">
<polygon fill="#999999" stroke="#666666" points="121.75,-127.5 0,-127.5 0,-109 121.75,-109 121.75,-127.5"/>
<text text-anchor="middle" x="60.88" y="-114" font-family="Helvetica,sans-Serif" font-size="10.00">src/hardware/Button.cpp</text>
</a>
</g>
</g>
<!-- Node2 -->
<g id="Node000002" class="node">
<title>Node2</title>
<g id="a_Node000002"><a xlink:href="Button_8h.html" target="_top" xlink:title=" ">
<polygon fill="white" stroke="#666666" points="87.25,-73 34.5,-73 34.5,-54.5 87.25,-54.5 87.25,-73"/>
<text text-anchor="middle" x="60.88" y="-59.5" font-family="Helvetica,sans-Serif" font-size="10.00">Button.h</text>
</a>
</g>
</g>
<!-- Node1&#45;&gt;Node2 -->
<g id="edge1_Node000001_Node000002" class="edge">
<title>Node1&#45;&gt;Node2</title>
<g id="a_edge1_Node000001_Node000002"><a xlink:title=" ">
<path fill="none" stroke="#63b8ff" d="M60.88,-108.58C60.88,-102.08 60.88,-92.92 60.88,-84.66"/>
<polygon fill="#63b8ff" stroke="#63b8ff" points="64.38,-84.77 60.88,-74.77 57.38,-84.77 64.38,-84.77"/>
</a>
</g>
</g>
<!-- Node3 -->
<g id="Node000003" class="node">
<title>Node3</title>
<g id="a_Node000003"><a xlink:title=" ">
<polygon fill="#e0e0e0" stroke="#999999" points="96.25,-18.5 25.5,-18.5 25.5,0 96.25,0 96.25,-18.5"/>
<text text-anchor="middle" x="60.88" y="-5" font-family="Helvetica,sans-Serif" font-size="10.00">OneButton.h</text>
</a>
</g>
</g>
<!-- Node2&#45;&gt;Node3 -->
<g id="edge2_Node000002_Node000003" class="edge">
<title>Node2&#45;&gt;Node3</title>
<g id="a_edge2_Node000002_Node000003"><a xlink:title=" ">
<path fill="none" stroke="#63b8ff" d="M60.88,-54.08C60.88,-47.58 60.88,-38.42 60.88,-30.16"/>
<polygon fill="#63b8ff" stroke="#63b8ff" points="64.38,-30.27 60.88,-20.27 57.38,-30.27 64.38,-30.27"/>
</a>
</g>
</g>
</g>
</svg>
