<?xml version="1.0" encoding="UTF-8" standalone="no"?>
<!DOCTYPE svg PUBLIC "-//W3C//DTD SVG 1.1//EN"
 "http://www.w3.org/Graphics/SVG/1.1/DTD/svg11.dtd">
<!-- Generated by graphviz version 12.1.2 (0)
 -->
<!-- Title: src/hardware/Button.h Pages: 1 -->
<svg width="704pt" height="92pt"
 viewBox="0.00 0.00 703.75 91.50" xmlns="http://www.w3.org/2000/svg" xmlns:xlink="http://www.w3.org/1999/xlink">
<g id="graph0" class="graph" transform="scale(1 1) rotate(0) translate(4 87.5)">
<title>src/hardware/Button.h</title>
<!-- Node1 -->
<g id="Node000001" class="node">
<title>Node1</title>
<g id="a_Node000001"><a xlink:title=" ">
<polygon fill="#999999" stroke="#666666" points="422.5,-83.5 311.25,-83.5 311.25,-65 422.5,-65 422.5,-83.5"/>
<text text-anchor="middle" x="366.88" y="-70" font-family="Helvetica,sans-Serif" font-size="10.00">src/hardware/Button.h</text>
</a>
</g>
</g>
<!-- Node2 -->
<g id="Node000002" class="node">
<title>Node2</title>
<g id="a_Node000002"><a xlink:href="ClockApp_8cpp.html" target="_top" xlink:title=" ">
<polygon fill="white" stroke="#666666" points="163.75,-23.75 0,-23.75 0,-5.25 163.75,-5.25 163.75,-23.75"/>
<text text-anchor="middle" x="81.88" y="-10.25" font-family="Helvetica,sans-Serif" font-size="10.00">src/apps/ClockApp/ClockApp.cpp</text>
</a>
</g>
</g>
<!-- Node1&#45;&gt;Node2 -->
<g id="edge1_Node000001_Node000002" class="edge">
<title>Node1&#45;&gt;Node2</title>
<g id="a_edge1_Node000001_Node000002"><a xlink:title=" ">
<path fill="none" stroke="#63b8ff" d="M312.7,-62.27C258.09,-51.21 174.91,-34.35 124.73,-24.18"/>
<polygon fill="#63b8ff" stroke="#63b8ff" points="311.92,-65.69 322.42,-64.24 313.31,-58.82 311.92,-65.69"/>
</a>
</g>
</g>
<!-- Node3 -->
<g id="Node000003" class="node">
<title>Node3</title>
<g id="a_Node000003"><a xlink:href="GooglyEyes_8cpp.html" target="_top" xlink:title=" ">
<polygon fill="white" stroke="#666666" points="290,-29 181.75,-29 181.75,0 290,0 290,-29"/>
<text text-anchor="start" x="189.75" y="-15.5" font-family="Helvetica,sans-Serif" font-size="10.00">src/apps/GooglyEyes</text>
<text text-anchor="middle" x="235.88" y="-5" font-family="Helvetica,sans-Serif" font-size="10.00">/GooglyEyes.cpp</text>
</a>
</g>
</g>
<!-- Node1&#45;&gt;Node3 -->
<g id="edge2_Node000001_Node000003" class="edge">
<title>Node1&#45;&gt;Node3</title>
<g id="a_edge2_Node000001_Node000003"><a xlink:title=" ">
<path fill="none" stroke="#63b8ff" d="M336.83,-60.01C316.12,-50.88 288.65,-38.77 267.59,-29.48"/>
<polygon fill="#63b8ff" stroke="#63b8ff" points="335.32,-63.16 345.88,-63.99 338.14,-56.76 335.32,-63.16"/>
</a>
</g>
</g>
<!-- Node4 -->
<g id="Node000004" class="node">
<title>Node4</title>
<g id="a_Node000004"><a xlink:href="PomodoroApp_8cpp.html" target="_top" xlink:title=" ">
<polygon fill="white" stroke="#666666" points="425.88,-29 307.88,-29 307.88,0 425.88,0 425.88,-29"/>
<text text-anchor="start" x="315.88" y="-15.5" font-family="Helvetica,sans-Serif" font-size="10.00">src/apps/PomodoroApp</text>
<text text-anchor="middle" x="366.88" y="-5" font-family="Helvetica,sans-Serif" font-size="10.00">/PomodoroApp.cpp</text>
</a>
</g>
</g>
<!-- Node1&#45;&gt;Node4 -->
<g id="edge3_Node000001_Node000004" class="edge">
<title>Node1&#45;&gt;Node4</title>
<g id="a_edge3_Node000001_Node000004"><a xlink:title=" ">
<path fill="none" stroke="#63b8ff" d="M366.88,-53.24C366.88,-45.39 366.88,-36.57 366.88,-29.43"/>
<polygon fill="#63b8ff" stroke="#63b8ff" points="363.38,-53.22 366.88,-63.22 370.38,-53.22 363.38,-53.22"/>
</a>
</g>
</g>
<!-- Node5 -->
<g id="Node000005" class="node">
<title>Node5</title>
<g id="a_Node000005"><a xlink:href="AppLauncher_8cpp.html" target="_top" xlink:title=" ">
<polygon fill="white" stroke="#666666" points="555.5,-29 444.25,-29 444.25,0 555.5,0 555.5,-29"/>
<text text-anchor="start" x="452.25" y="-15.5" font-family="Helvetica,sans-Serif" font-size="10.00">src/core/AppLauncher</text>
<text text-anchor="middle" x="499.88" y="-5" font-family="Helvetica,sans-Serif" font-size="10.00">/AppLauncher.cpp</text>
</a>
</g>
</g>
<!-- Node1&#45;&gt;Node5 -->
<g id="edge4_Node000001_Node000005" class="edge">
<title>Node1&#45;&gt;Node5</title>
<g id="a_edge4_Node000001_Node000005"><a xlink:title=" ">
<path fill="none" stroke="#63b8ff" d="M397.09,-60.13C418.14,-50.99 446.19,-38.81 467.67,-29.48"/>
<polygon fill="#63b8ff" stroke="#63b8ff" points="395.95,-56.81 388.17,-64 398.74,-63.23 395.95,-56.81"/>
</a>
</g>
</g>
<!-- Node6 -->
<g id="Node000006" class="node">
<title>Node6</title>
<g id="a_Node000006"><a xlink:href="Button_8cpp.html" target="_top" xlink:title=" ">
<polygon fill="white" stroke="#666666" points="695.75,-23.75 574,-23.75 574,-5.25 695.75,-5.25 695.75,-23.75"/>
<text text-anchor="middle" x="634.88" y="-10.25" font-family="Helvetica,sans-Serif" font-size="10.00">src/hardware/Button.cpp</text>
</a>
</g>
</g>
<!-- Node1&#45;&gt;Node6 -->
<g id="edge5_Node000001_Node000006" class="edge">
<title>Node1&#45;&gt;Node6</title>
<g id="a_edge5_Node000001_Node000006"><a xlink:title=" ">
<path fill="none" stroke="#63b8ff" d="M418.46,-62.13C469.82,-51.07 547.58,-34.31 594.57,-24.18"/>
<polygon fill="#63b8ff" stroke="#63b8ff" points="417.81,-58.69 408.77,-64.22 419.28,-65.54 417.81,-58.69"/>
</a>
</g>
</g>
</g>
</svg>
