<?xml version="1.0" encoding="UTF-8" standalone="no"?>
<!DOCTYPE svg PUBLIC "-//W3C//DTD SVG 1.1//EN"
 "http://www.w3.org/Graphics/SVG/1.1/DTD/svg11.dtd">
<!-- Generated by graphviz version 12.2.0 (20241103.1931)
 -->
<!-- Title: src/hardware/Button.h Pages: 1 -->
<svg width="702pt" height="94pt"
 viewBox="0.00 0.00 701.62 93.75" xmlns="http://www.w3.org/2000/svg" xmlns:xlink="http://www.w3.org/1999/xlink">
<g id="graph0" class="graph" transform="scale(1 1) rotate(0) translate(4 89.75)">
<title>src/hardware/Button.h</title>
<!-- Node1 -->
<g id="Node000001" class="node">
<title>Node1</title>
<g id="a_Node000001"><a xlink:title=" ">
<polygon fill="#999999" stroke="#666666" points="420.38,-85.75 309.12,-85.75 309.12,-66.5 420.38,-66.5 420.38,-85.75"/>
<text text-anchor="middle" x="364.75" y="-72.25" font-family="Helvetica,sans-Serif" font-size="10.00">src/hardware/Button.h</text>
</a>
</g>
</g>
<!-- Node2 -->
<g id="Node000002" class="node">
<title>Node2</title>
<g id="a_Node000002"><a xlink:href="ClockApp_8cpp.html" target="_top" xlink:title=" ">
<polygon fill="white" stroke="#666666" points="161.5,-24.88 0,-24.88 0,-5.63 161.5,-5.63 161.5,-24.88"/>
<text text-anchor="middle" x="80.75" y="-11.38" font-family="Helvetica,sans-Serif" font-size="10.00">src/apps/ClockApp/ClockApp.cpp</text>
</a>
</g>
</g>
<!-- Node1&#45;&gt;Node2 -->
<g id="edge1_Node000001_Node000002" class="edge">
<title>Node1&#45;&gt;Node2</title>
<g id="a_edge1_Node000001_Node000002"><a xlink:title=" ">
<path fill="none" stroke="#63b8ff" d="M309.91,-63.76C255.88,-52.56 174.4,-35.66 124.55,-25.33"/>
<polygon fill="#63b8ff" stroke="#63b8ff" points="309.01,-67.14 319.52,-65.75 310.43,-60.29 309.01,-67.14"/>
</a>
</g>
</g>
<!-- Node3 -->
<g id="Node000003" class="node">
<title>Node3</title>
<g id="a_Node000003"><a xlink:href="GooglyEyes_8cpp.html" target="_top" xlink:title=" ">
<polygon fill="white" stroke="#666666" points="287.5,-30.5 180,-30.5 180,0 287.5,0 287.5,-30.5"/>
<text text-anchor="start" x="188" y="-17" font-family="Helvetica,sans-Serif" font-size="10.00">src/apps/GooglyEyes</text>
<text text-anchor="middle" x="233.75" y="-5.75" font-family="Helvetica,sans-Serif" font-size="10.00">/GooglyEyes.cpp</text>
</a>
</g>
</g>
<!-- Node1&#45;&gt;Node3 -->
<g id="edge2_Node000001_Node000003" class="edge">
<title>Node1&#45;&gt;Node3</title>
<g id="a_edge2_Node000001_Node000003"><a xlink:title=" ">
<path fill="none" stroke="#63b8ff" d="M334.29,-61.44C313.96,-52.3 287.23,-40.29 266.45,-30.94"/>
<polygon fill="#63b8ff" stroke="#63b8ff" points="332.63,-64.53 343.19,-65.43 335.5,-58.14 332.63,-64.53"/>
</a>
</g>
</g>
<!-- Node4 -->
<g id="Node000004" class="node">
<title>Node4</title>
<g id="a_Node000004"><a xlink:href="PomodoroApp_8cpp.html" target="_top" xlink:title=" ">
<polygon fill="white" stroke="#666666" points="423.75,-30.5 305.75,-30.5 305.75,0 423.75,0 423.75,-30.5"/>
<text text-anchor="start" x="313.75" y="-17" font-family="Helvetica,sans-Serif" font-size="10.00">src/apps/PomodoroApp</text>
<text text-anchor="middle" x="364.75" y="-5.75" font-family="Helvetica,sans-Serif" font-size="10.00">/PomodoroApp.cpp</text>
</a>
</g>
</g>
<!-- Node1&#45;&gt;Node4 -->
<g id="edge3_Node000001_Node000004" class="edge">
<title>Node1&#45;&gt;Node4</title>
<g id="a_edge3_Node000001_Node000004"><a xlink:title=" ">
<path fill="none" stroke="#63b8ff" d="M364.75,-54.92C364.75,-46.99 364.75,-38.06 364.75,-30.78"/>
<polygon fill="#63b8ff" stroke="#63b8ff" points="361.25,-54.67 364.75,-64.67 368.25,-54.67 361.25,-54.67"/>
</a>
</g>
</g>
<!-- Node5 -->
<g id="Node000005" class="node">
<title>Node5</title>
<g id="a_Node000005"><a xlink:href="AppLauncher_8cpp.html" target="_top" xlink:title=" ">
<polygon fill="white" stroke="#666666" points="553.75,-30.5 441.75,-30.5 441.75,0 553.75,0 553.75,-30.5"/>
<text text-anchor="start" x="449.75" y="-17" font-family="Helvetica,sans-Serif" font-size="10.00">src/core/AppLauncher</text>
<text text-anchor="middle" x="497.75" y="-5.75" font-family="Helvetica,sans-Serif" font-size="10.00">/AppLauncher.cpp</text>
</a>
</g>
</g>
<!-- Node1&#45;&gt;Node5 -->
<g id="edge4_Node000001_Node000005" class="edge">
<title>Node1&#45;&gt;Node5</title>
<g id="a_edge4_Node000001_Node000005"><a xlink:title=" ">
<path fill="none" stroke="#63b8ff" d="M395.67,-61.44C416.32,-52.3 443.45,-40.29 464.55,-30.94"/>
<polygon fill="#63b8ff" stroke="#63b8ff" points="394.35,-58.19 386.62,-65.44 397.18,-64.59 394.35,-58.19"/>
</a>
</g>
</g>
<!-- Node6 -->
<g id="Node000006" class="node">
<title>Node6</title>
<g id="a_Node000006"><a xlink:href="Button_8cpp.html" target="_top" xlink:title=" ">
<polygon fill="white" stroke="#666666" points="693.62,-24.88 571.88,-24.88 571.88,-5.63 693.62,-5.63 693.62,-24.88"/>
<text text-anchor="middle" x="632.75" y="-11.38" font-family="Helvetica,sans-Serif" font-size="10.00">src/hardware/Button.cpp</text>
</a>
</g>
</g>
<!-- Node1&#45;&gt;Node6 -->
<g id="edge5_Node000001_Node000006" class="edge">
<title>Node1&#45;&gt;Node6</title>
<g id="a_edge5_Node000001_Node000006"><a xlink:title=" ">
<path fill="none" stroke="#63b8ff" d="M417.15,-63.61C468.13,-52.41 544.57,-35.62 591.42,-25.33"/>
<polygon fill="#63b8ff" stroke="#63b8ff" points="416.53,-60.17 407.52,-65.73 418.03,-67 416.53,-60.17"/>
</a>
</g>
</g>
</g>
</svg>
