<?xml version="1.0" encoding="UTF-8" standalone="no"?>
<!DOCTYPE svg PUBLIC "-//W3C//DTD SVG 1.1//EN"
 "http://www.w3.org/Graphics/SVG/1.1/DTD/svg11.dtd">
<!-- Generated by graphviz version 12.2.0 (20241103.1931)
 -->
<!-- Title: App Pages: 1 -->
<svg width="521pt" height="83pt"
 viewBox="0.00 0.00 520.50 82.50" xmlns="http://www.w3.org/2000/svg" xmlns:xlink="http://www.w3.org/1999/xlink">
<g id="graph0" class="graph" transform="scale(1 1) rotate(0) translate(4 78.5)">
<title>App</title>
<!-- Node1 -->
<g id="Node000001" class="node">
<title>Node1</title>
<g id="a_Node000001"><a xlink:title="Abstract base class for applications.">
<polygon fill="#999999" stroke="#666666" points="271.5,-74.5 238.25,-74.5 238.25,-55.25 271.5,-55.25 271.5,-74.5"/>
<text text-anchor="middle" x="254.88" y="-61" font-family="Helvetica,sans-Serif" font-size="10.00">App</text>
</a>
</g>
</g>
<!-- Node2 -->
<g id="Node000002" class="node">
<title>Node2</title>
<g id="a_Node000002"><a xlink:href="classAppLauncher.html" target="_top" xlink:title="Application for launching and managing other applications.">
<polygon fill="white" stroke="#666666" points="73.75,-19.25 0,-19.25 0,0 73.75,0 73.75,-19.25"/>
<text text-anchor="middle" x="36.88" y="-5.75" font-family="Helvetica,sans-Serif" font-size="10.00">AppLauncher</text>
</a>
</g>
</g>
<!-- Node1&#45;&gt;Node2 -->
<g id="edge1_Node000001_Node000002" class="edge">
<title>Node1&#45;&gt;Node2</title>
<g id="a_edge1_Node000001_Node000002"><a xlink:title=" ">
<path fill="none" stroke="#63b8ff" d="M226.74,-57C187.75,-47.48 117.19,-30.24 73.93,-19.68"/>
<polygon fill="#63b8ff" stroke="#63b8ff" points="225.75,-60.36 236.3,-59.34 227.41,-53.56 225.75,-60.36"/>
</a>
</g>
</g>
<!-- Node3 -->
<g id="Node000003" class="node">
<title>Node3</title>
<g id="a_Node000003"><a xlink:href="classClockApp.html" target="_top" xlink:title="Simple clock application.">
<polygon fill="white" stroke="#666666" points="149.88,-19.25 91.88,-19.25 91.88,0 149.88,0 149.88,-19.25"/>
<text text-anchor="middle" x="120.88" y="-5.75" font-family="Helvetica,sans-Serif" font-size="10.00">ClockApp</text>
</a>
</g>
</g>
<!-- Node1&#45;&gt;Node3 -->
<g id="edge2_Node000001_Node000003" class="edge">
<title>Node1&#45;&gt;Node3</title>
<g id="a_edge2_Node000001_Node000003"><a xlink:title=" ">
<path fill="none" stroke="#63b8ff" d="M227.4,-52.96C202.64,-43.12 166.66,-28.82 143.52,-19.62"/>
<polygon fill="#63b8ff" stroke="#63b8ff" points="225.91,-56.13 236.5,-56.57 228.5,-49.63 225.91,-56.13"/>
</a>
</g>
</g>
<!-- Node4 -->
<g id="Node000004" class="node">
<title>Node4</title>
<g id="a_Node000004"><a xlink:href="classGooglyEyesApp.html" target="_top" xlink:title="Basic application to display googly eyes on the screen.">
<polygon fill="white" stroke="#666666" points="252,-19.25 167.75,-19.25 167.75,0 252,0 252,-19.25"/>
<text text-anchor="middle" x="209.88" y="-5.75" font-family="Helvetica,sans-Serif" font-size="10.00">GooglyEyesApp</text>
</a>
</g>
</g>
<!-- Node1&#45;&gt;Node4 -->
<g id="edge3_Node000001_Node000004" class="edge">
<title>Node1&#45;&gt;Node4</title>
<g id="a_edge3_Node000001_Node000004"><a xlink:title=" ">
<path fill="none" stroke="#63b8ff" d="M240.2,-46.51C232.61,-37.53 223.67,-26.95 217.47,-19.61"/>
<polygon fill="#63b8ff" stroke="#63b8ff" points="237.34,-48.55 246.47,-53.93 242.69,-44.03 237.34,-48.55"/>
</a>
</g>
</g>
<!-- Node5 -->
<g id="Node000005" class="node">
<title>Node5</title>
<g id="a_Node000005"><a xlink:href="classMatrixApp.html" target="_top" xlink:title=" ">
<polygon fill="white" stroke="#666666" points="329.62,-19.25 270.12,-19.25 270.12,0 329.62,0 329.62,-19.25"/>
<text text-anchor="middle" x="299.88" y="-5.75" font-family="Helvetica,sans-Serif" font-size="10.00">MatrixApp</text>
</a>
</g>
</g>
<!-- Node1&#45;&gt;Node5 -->
<g id="edge4_Node000001_Node000005" class="edge">
<title>Node1&#45;&gt;Node5</title>
<g id="a_edge4_Node000001_Node000005"><a xlink:title=" ">
<path fill="none" stroke="#63b8ff" d="M269.55,-46.51C277.14,-37.53 286.08,-26.95 292.28,-19.61"/>
<polygon fill="#63b8ff" stroke="#63b8ff" points="267.06,-44.03 263.28,-53.93 272.41,-48.55 267.06,-44.03"/>
</a>
</g>
</g>
<!-- Node6 -->
<g id="Node000006" class="node">
<title>Node6</title>
<g id="a_Node000006"><a xlink:href="classPomodoroApp.html" target="_top" xlink:title="Simple pomodoro timer application.">
<polygon fill="white" stroke="#666666" points="425.62,-19.25 348.12,-19.25 348.12,0 425.62,0 425.62,-19.25"/>
<text text-anchor="middle" x="386.88" y="-5.75" font-family="Helvetica,sans-Serif" font-size="10.00">PomodoroApp</text>
</a>
</g>
</g>
<!-- Node1&#45;&gt;Node6 -->
<g id="edge5_Node000001_Node000006" class="edge">
<title>Node1&#45;&gt;Node6</title>
<g id="a_edge5_Node000001_Node000006"><a xlink:title=" ">
<path fill="none" stroke="#63b8ff" d="M282.23,-52.84C306.65,-42.99 341.96,-28.74 364.67,-19.58"/>
<polygon fill="#63b8ff" stroke="#63b8ff" points="281.23,-49.47 273.27,-56.46 283.85,-55.96 281.23,-49.47"/>
</a>
</g>
</g>
<!-- Node7 -->
<g id="Node000007" class="node">
<title>Node7</title>
<g id="a_Node000007"><a xlink:href="classSettingsApp.html" target="_top" xlink:title="Application for managing settings, including WiFi configuration.">
<polygon fill="white" stroke="#666666" points="512.5,-19.25 443.25,-19.25 443.25,0 512.5,0 512.5,-19.25"/>
<text text-anchor="middle" x="477.88" y="-5.75" font-family="Helvetica,sans-Serif" font-size="10.00">SettingsApp</text>
</a>
</g>
</g>
<!-- Node1&#45;&gt;Node7 -->
<g id="edge6_Node000001_Node000007" class="edge">
<title>Node1&#45;&gt;Node7</title>
<g id="a_edge6_Node000001_Node000007"><a xlink:title=" ">
<path fill="none" stroke="#63b8ff" d="M282.82,-57.2C323.44,-47.5 398.75,-29.52 442.97,-18.96"/>
<polygon fill="#63b8ff" stroke="#63b8ff" points="282.02,-53.79 273.11,-59.52 283.65,-60.6 282.02,-53.79"/>
</a>
</g>
</g>
</g>
</svg>
