<?xml version="1.0" encoding="UTF-8" standalone="no"?>
<!DOCTYPE svg PUBLIC "-//W3C//DTD SVG 1.1//EN"
 "http://www.w3.org/Graphics/SVG/1.1/DTD/svg11.dtd">
<!-- Generated by graphviz version 12.1.2 (0)
 -->
<!-- Title: App Pages: 1 -->
<svg width="443pt" height="81pt"
 viewBox="0.00 0.00 443.12 81.00" xmlns="http://www.w3.org/2000/svg" xmlns:xlink="http://www.w3.org/1999/xlink">
<g id="graph0" class="graph" transform="scale(1 1) rotate(0) translate(4 77)">
<title>App</title>
<!-- Node1 -->
<g id="Node000001" class="node">
<title>Node1</title>
<g id="a_Node000001"><a xlink:title="Abstract base class for applications.">
<polygon fill="#999999" stroke="#666666" points="227.12,-73 193.88,-73 193.88,-54.5 227.12,-54.5 227.12,-73"/>
<text text-anchor="middle" x="210.5" y="-59.5" font-family="Helvetica,sans-Serif" font-size="10.00">App</text>
</a>
</g>
</g>
<!-- Node2 -->
<g id="Node000002" class="node">
<title>Node2</title>
<g id="a_Node000002"><a xlink:href="classAppLauncher.html" target="_top" xlink:title=" ">
<polygon fill="white" stroke="#666666" points="73,-18.5 0,-18.5 0,0 73,0 73,-18.5"/>
<text text-anchor="middle" x="36.5" y="-5" font-family="Helvetica,sans-Serif" font-size="10.00">AppLauncher</text>
</a>
</g>
</g>
<!-- Node1&#45;&gt;Node2 -->
<g id="edge1_Node000001_Node000002" class="edge">
<title>Node1&#45;&gt;Node2</title>
<g id="a_edge1_Node000001_Node000002"><a xlink:title=" ">
<path fill="none" stroke="#63b8ff" d="M182.66,-54.35C150.52,-44.65 97.91,-28.78 65.35,-18.95"/>
<polygon fill="#63b8ff" stroke="#63b8ff" points="181.47,-57.65 192.05,-57.18 183.49,-50.94 181.47,-57.65"/>
</a>
</g>
</g>
<!-- Node3 -->
<g id="Node000003" class="node">
<title>Node3</title>
<g id="a_Node000003"><a xlink:href="classClockApp.html" target="_top" xlink:title="Simple clock application.">
<polygon fill="white" stroke="#666666" points="149.88,-18.5 91.12,-18.5 91.12,0 149.88,0 149.88,-18.5"/>
<text text-anchor="middle" x="120.5" y="-5" font-family="Helvetica,sans-Serif" font-size="10.00">ClockApp</text>
</a>
</g>
</g>
<!-- Node1&#45;&gt;Node3 -->
<g id="edge2_Node000001_Node000003" class="edge">
<title>Node1&#45;&gt;Node3</title>
<g id="a_edge2_Node000001_Node000003"><a xlink:title=" ">
<path fill="none" stroke="#63b8ff" d="M185.78,-48.33C169.63,-38.91 149.07,-26.92 135.38,-18.93"/>
<polygon fill="#63b8ff" stroke="#63b8ff" points="183.93,-51.3 194.33,-53.32 187.46,-45.26 183.93,-51.3"/>
</a>
</g>
</g>
<!-- Node4 -->
<g id="Node000004" class="node">
<title>Node4</title>
<g id="a_Node000004"><a xlink:href="classGooglyEyesApp.html" target="_top" xlink:title="Basic application to display googly eyes on the screen.">
<polygon fill="white" stroke="#666666" points="253,-18.5 168,-18.5 168,0 253,0 253,-18.5"/>
<text text-anchor="middle" x="210.5" y="-5" font-family="Helvetica,sans-Serif" font-size="10.00">GooglyEyesApp</text>
</a>
</g>
</g>
<!-- Node1&#45;&gt;Node4 -->
<g id="edge3_Node000001_Node000004" class="edge">
<title>Node1&#45;&gt;Node4</title>
<g id="a_edge3_Node000001_Node000004"><a xlink:title=" ">
<path fill="none" stroke="#63b8ff" d="M210.5,-42.64C210.5,-34.36 210.5,-25.21 210.5,-18.76"/>
<polygon fill="#63b8ff" stroke="#63b8ff" points="207,-42.57 210.5,-52.57 214,-42.57 207,-42.57"/>
</a>
</g>
</g>
<!-- Node5 -->
<g id="Node000005" class="node">
<title>Node5</title>
<g id="a_Node000005"><a xlink:href="classPomodoroApp.html" target="_top" xlink:title="Simple pomodoro timer application.">
<polygon fill="white" stroke="#666666" points="348.25,-18.5 270.75,-18.5 270.75,0 348.25,0 348.25,-18.5"/>
<text text-anchor="middle" x="309.5" y="-5" font-family="Helvetica,sans-Serif" font-size="10.00">PomodoroApp</text>
</a>
</g>
</g>
<!-- Node1&#45;&gt;Node5 -->
<g id="edge4_Node000001_Node000005" class="edge">
<title>Node1&#45;&gt;Node5</title>
<g id="a_edge4_Node000001_Node000005"><a xlink:title=" ">
<path fill="none" stroke="#63b8ff" d="M236.94,-48.73C254.81,-39.25 277.86,-27.03 293.13,-18.93"/>
<polygon fill="#63b8ff" stroke="#63b8ff" points="235.38,-45.59 228.18,-53.37 238.66,-51.78 235.38,-45.59"/>
</a>
</g>
</g>
<!-- Node6 -->
<g id="Node000006" class="node">
<title>Node6</title>
<g id="a_Node000006"><a xlink:href="classSettingsApp.html" target="_top" xlink:title="Application for managing settings, including WiFi configuration.">
<polygon fill="white" stroke="#666666" points="435.12,-18.5 365.88,-18.5 365.88,0 435.12,0 435.12,-18.5"/>
<text text-anchor="middle" x="400.5" y="-5" font-family="Helvetica,sans-Serif" font-size="10.00">SettingsApp</text>
</a>
</g>
</g>
<!-- Node1&#45;&gt;Node6 -->
<g id="edge5_Node000001_Node000006" class="edge">
<title>Node1&#45;&gt;Node6</title>
<g id="a_edge5_Node000001_Node000006"><a xlink:title=" ">
<path fill="none" stroke="#63b8ff" d="M238.14,-55.11C272.92,-45.5 332.51,-29.04 369.02,-18.95"/>
<polygon fill="#63b8ff" stroke="#63b8ff" points="237.53,-51.65 228.82,-57.69 239.39,-58.4 237.53,-51.65"/>
</a>
</g>
</g>
</g>
</svg>
