<?xml version="1.0" encoding="UTF-8" standalone="no"?>
<!DOCTYPE svg PUBLIC "-//W3C//DTD SVG 1.1//EN"
 "http://www.w3.org/Graphics/SVG/1.1/DTD/svg11.dtd">
<!-- Generated by graphviz version 12.2.0 (20241103.1931)
 -->
<!-- Title: App Pages: 1 -->
<svg width="443pt" height="83pt"
 viewBox="0.00 0.00 442.50 82.50" xmlns="http://www.w3.org/2000/svg" xmlns:xlink="http://www.w3.org/1999/xlink">
<g id="graph0" class="graph" transform="scale(1 1) rotate(0) translate(4 78.5)">
<title>App</title>
<!-- Node1 -->
<g id="Node000001" class="node">
<title>Node1</title>
<g id="a_Node000001"><a xlink:title="Abstract base class for applications.">
<polygon fill="#999999" stroke="#666666" points="226.5,-74.5 193.25,-74.5 193.25,-55.25 226.5,-55.25 226.5,-74.5"/>
<text text-anchor="middle" x="209.88" y="-61" font-family="Helvetica,sans-Serif" font-size="10.00">App</text>
</a>
</g>
</g>
<!-- Node2 -->
<g id="Node000002" class="node">
<title>Node2</title>
<g id="a_Node000002"><a xlink:href="classAppLauncher.html" target="_top" xlink:title="Application for launching and managing other applications.">
<polygon fill="white" stroke="#666666" points="73.75,-19.25 0,-19.25 0,0 73.75,0 73.75,-19.25"/>
<text text-anchor="middle" x="36.88" y="-5.75" font-family="Helvetica,sans-Serif" font-size="10.00">AppLauncher</text>
</a>
</g>
</g>
<!-- Node1&#45;&gt;Node2 -->
<g id="edge1_Node000001_Node000002" class="edge">
<title>Node1&#45;&gt;Node2</title>
<g id="a_edge1_Node000001_Node000002"><a xlink:title=" ">
<path fill="none" stroke="#63b8ff" d="M182.3,-55.39C150.66,-45.65 98.97,-29.74 66.5,-19.74"/>
<polygon fill="#63b8ff" stroke="#63b8ff" points="180.94,-58.63 191.53,-58.23 183,-51.94 180.94,-58.63"/>
</a>
</g>
</g>
<!-- Node3 -->
<g id="Node000003" class="node">
<title>Node3</title>
<g id="a_Node000003"><a xlink:href="classClockApp.html" target="_top" xlink:title="Simple clock application.">
<polygon fill="white" stroke="#666666" points="149.88,-19.25 91.88,-19.25 91.88,0 149.88,0 149.88,-19.25"/>
<text text-anchor="middle" x="120.88" y="-5.75" font-family="Helvetica,sans-Serif" font-size="10.00">ClockApp</text>
</a>
</g>
</g>
<!-- Node1&#45;&gt;Node3 -->
<g id="edge2_Node000001_Node000003" class="edge">
<title>Node1&#45;&gt;Node3</title>
<g id="a_edge2_Node000001_Node000003"><a xlink:title=" ">
<path fill="none" stroke="#63b8ff" d="M185.14,-49.07C169.39,-39.65 149.5,-27.75 136.05,-19.7"/>
<polygon fill="#63b8ff" stroke="#63b8ff" points="183.1,-51.93 193.48,-54.06 186.69,-45.93 183.1,-51.93"/>
</a>
</g>
</g>
<!-- Node4 -->
<g id="Node000004" class="node">
<title>Node4</title>
<g id="a_Node000004"><a xlink:href="classGooglyEyesApp.html" target="_top" xlink:title="Basic application to display googly eyes on the screen.">
<polygon fill="white" stroke="#666666" points="252,-19.25 167.75,-19.25 167.75,0 252,0 252,-19.25"/>
<text text-anchor="middle" x="209.88" y="-5.75" font-family="Helvetica,sans-Serif" font-size="10.00">GooglyEyesApp</text>
</a>
</g>
</g>
<!-- Node1&#45;&gt;Node4 -->
<g id="edge3_Node000001_Node000004" class="edge">
<title>Node1&#45;&gt;Node4</title>
<g id="a_edge3_Node000001_Node000004"><a xlink:title=" ">
<path fill="none" stroke="#63b8ff" d="M209.88,-43.63C209.88,-35.34 209.88,-26.17 209.88,-19.61"/>
<polygon fill="#63b8ff" stroke="#63b8ff" points="206.38,-43.57 209.88,-53.57 213.38,-43.57 206.38,-43.57"/>
</a>
</g>
</g>
<!-- Node5 -->
<g id="Node000005" class="node">
<title>Node5</title>
<g id="a_Node000005"><a xlink:href="classPomodoroApp.html" target="_top" xlink:title="Simple pomodoro timer application.">
<polygon fill="white" stroke="#666666" points="347.62,-19.25 270.12,-19.25 270.12,0 347.62,0 347.62,-19.25"/>
<text text-anchor="middle" x="308.88" y="-5.75" font-family="Helvetica,sans-Serif" font-size="10.00">PomodoroApp</text>
</a>
</g>
</g>
<!-- Node1&#45;&gt;Node5 -->
<g id="edge4_Node000001_Node000005" class="edge">
<title>Node1&#45;&gt;Node5</title>
<g id="a_edge4_Node000001_Node000005"><a xlink:title=" ">
<path fill="none" stroke="#63b8ff" d="M236.4,-49.61C254.07,-40.11 276.75,-27.9 292,-19.7"/>
<polygon fill="#63b8ff" stroke="#63b8ff" points="235.15,-46.31 228,-54.12 238.47,-52.47 235.15,-46.31"/>
</a>
</g>
</g>
<!-- Node6 -->
<g id="Node000006" class="node">
<title>Node6</title>
<g id="a_Node000006"><a xlink:href="classSettingsApp.html" target="_top" xlink:title="Application for managing settings, including WiFi configuration.">
<polygon fill="white" stroke="#666666" points="434.5,-19.25 365.25,-19.25 365.25,0 434.5,0 434.5,-19.25"/>
<text text-anchor="middle" x="399.88" y="-5.75" font-family="Helvetica,sans-Serif" font-size="10.00">SettingsApp</text>
</a>
</g>
</g>
<!-- Node1&#45;&gt;Node6 -->
<g id="edge5_Node000001_Node000006" class="edge">
<title>Node1&#45;&gt;Node6</title>
<g id="a_edge5_Node000001_Node000006"><a xlink:title=" ">
<path fill="none" stroke="#63b8ff" d="M237.41,-56.16C271.85,-46.51 330.72,-30.01 367.34,-19.74"/>
<polygon fill="#63b8ff" stroke="#63b8ff" points="236.88,-52.67 228.19,-58.74 238.77,-59.41 236.88,-52.67"/>
</a>
</g>
</g>
</g>
</svg>
