<?xml version="1.0" encoding="UTF-8" standalone="no"?>
<!DOCTYPE svg PUBLIC "-//W3C//DTD SVG 1.1//EN"
 "http://www.w3.org/Graphics/SVG/1.1/DTD/svg11.dtd">
<!-- Generated by graphviz version 7.0.5 (20221223.1930)
 -->
<!-- Title: src/apps/ClockApp/ClockApp.cpp Pages: 1 -->
<svg width="692pt" height="137pt"
 viewBox="0.00 0.00 691.50 137.00" xmlns="http://www.w3.org/2000/svg" xmlns:xlink="http://www.w3.org/1999/xlink">
<g id="graph0" class="graph" transform="scale(1 1) rotate(0) translate(4 133)">
<title>src/apps/ClockApp/ClockApp.cpp</title>
<!-- Node1 -->
<g id="node1" class="node">
<title>Node1</title>
<g id="a_node1"><a xlink:title=" ">
<polygon fill="#999999" stroke="#666666" points="470,-129 308,-129 308,-110 470,-110 470,-129"/>
<text text-anchor="middle" x="389" y="-117" font-family="Helvetica,sans-Serif" font-size="10.00">src/apps/ClockApp/ClockApp.cpp</text>
</a>
</g>
</g>
<!-- Node2 -->
<g id="node2" class="node">
<title>Node2</title>
<g id="a_node2"><a xlink:href="ClockApp_8h.html" target="_top" xlink:title=" ">
<polygon fill="white" stroke="#666666" points="392,-74 326,-74 326,-55 392,-55 392,-74"/>
<text text-anchor="middle" x="359" y="-62" font-family="Helvetica,sans-Serif" font-size="10.00">ClockApp.h</text>
</a>
</g>
</g>
<!-- Node1&#45;&gt;Node2 -->
<g id="edge1" class="edge">
<title>Node1&#45;&gt;Node2</title>
<path fill="none" stroke="#63b8ff" d="M384.05,-109.75C380.16,-102.88 374.61,-93.08 369.72,-84.45"/>
<polygon fill="#63b8ff" stroke="#63b8ff" points="372.78,-82.74 364.81,-75.76 366.69,-86.19 372.78,-82.74"/>
</g>
<!-- Node5 -->
<g id="node5" class="node">
<title>Node5</title>
<g id="a_node5"><a xlink:title=" ">
<polygon fill="#e0e0e0" stroke="#999999" points="443.5,-19 374.5,-19 374.5,0 443.5,0 443.5,-19"/>
<text text-anchor="middle" x="409" y="-7" font-family="Helvetica,sans-Serif" font-size="10.00">NTPClient.h</text>
</a>
</g>
</g>
<!-- Node1&#45;&gt;Node5 -->
<g id="edge8" class="edge">
<title>Node1&#45;&gt;Node5</title>
<path fill="none" stroke="#63b8ff" d="M391.75,-109.72C394.46,-100.8 398.53,-86.56 401,-74 403.84,-59.6 405.87,-43.15 407.18,-30.6"/>
<polygon fill="#63b8ff" stroke="#63b8ff" points="410.66,-30.99 408.14,-20.69 403.7,-30.31 410.66,-30.99"/>
</g>
<!-- Node6 -->
<g id="node6" class="node">
<title>Node6</title>
<g id="a_node6"><a xlink:title=" ">
<polygon fill="#e0e0e0" stroke="#999999" points="524,-19 462,-19 462,0 524,0 524,-19"/>
<text text-anchor="middle" x="493" y="-7" font-family="Helvetica,sans-Serif" font-size="10.00">WiFiUdp.h</text>
</a>
</g>
</g>
<!-- Node1&#45;&gt;Node6 -->
<g id="edge9" class="edge">
<title>Node1&#45;&gt;Node6</title>
<path fill="none" stroke="#63b8ff" d="M397.51,-109.66C414.73,-91.78 453.95,-51.05 476.41,-27.73"/>
<polygon fill="#63b8ff" stroke="#63b8ff" points="478.91,-30.18 483.32,-20.55 473.86,-25.33 478.91,-30.18"/>
</g>
<!-- Node8 -->
<g id="node8" class="node">
<title>Node8</title>
<g id="a_node8"><a xlink:title=" ">
<polygon fill="#e0e0e0" stroke="#999999" points="570,-74 486,-74 486,-55 570,-55 570,-74"/>
<text text-anchor="middle" x="528" y="-62" font-family="Helvetica,sans-Serif" font-size="10.00">ESP8266WiFi.h</text>
</a>
</g>
</g>
<!-- Node1&#45;&gt;Node8 -->
<g id="edge7" class="edge">
<title>Node1&#45;&gt;Node8</title>
<path fill="none" stroke="#63b8ff" d="M412.58,-109.51C434.98,-100.97 468.9,-88.03 494.18,-78.4"/>
<polygon fill="#63b8ff" stroke="#63b8ff" points="495.26,-81.73 503.35,-74.9 492.76,-75.19 495.26,-81.73"/>
</g>
<!-- Node9 -->
<g id="node9" class="node">
<title>Node9</title>
<g id="a_node9"><a xlink:href="Settings_8h.html" target="_top" xlink:title=" ">
<polygon fill="white" stroke="#666666" points="198,-74 116,-74 116,-55 198,-55 198,-74"/>
<text text-anchor="middle" x="157" y="-62" font-family="Helvetica,sans-Serif" font-size="10.00">core/Settings.h</text>
</a>
</g>
</g>
<!-- Node1&#45;&gt;Node9 -->
<g id="edge10" class="edge">
<title>Node1&#45;&gt;Node9</title>
<path fill="none" stroke="#63b8ff" d="M349.64,-109.51C310.36,-100.54 249.86,-86.71 207.15,-76.96"/>
<polygon fill="#63b8ff" stroke="#63b8ff" points="208.16,-73.6 197.64,-74.78 206.61,-80.42 208.16,-73.6"/>
</g>
<!-- Node10 -->
<g id="node10" class="node">
<title>Node10</title>
<g id="a_node10"><a xlink:href="Button_8h.html" target="_top" xlink:title=" ">
<polygon fill="white" stroke="#666666" points="683.5,-74 588.5,-74 588.5,-55 683.5,-55 683.5,-74"/>
<text text-anchor="middle" x="636" y="-62" font-family="Helvetica,sans-Serif" font-size="10.00">hardware/Button.h</text>
</a>
</g>
</g>
<!-- Node1&#45;&gt;Node10 -->
<g id="edge12" class="edge">
<title>Node1&#45;&gt;Node10</title>
<path fill="none" stroke="#63b8ff" d="M430.9,-109.51C472.9,-100.5 537.69,-86.6 583.18,-76.83"/>
<polygon fill="#63b8ff" stroke="#63b8ff" points="583.78,-80.28 592.83,-74.76 582.32,-73.44 583.78,-80.28"/>
</g>
<!-- Node12 -->
<g id="node12" class="node">
<title>Node12</title>
<g id="a_node12"><a xlink:href="Display_8h.html" target="_top" xlink:title=" ">
<polygon fill="white" stroke="#666666" points="98,-74 0,-74 0,-55 98,-55 98,-74"/>
<text text-anchor="middle" x="49" y="-62" font-family="Helvetica,sans-Serif" font-size="10.00">hardware/Display.h</text>
</a>
</g>
</g>
<!-- Node1&#45;&gt;Node12 -->
<g id="edge14" class="edge">
<title>Node1&#45;&gt;Node12</title>
<path fill="none" stroke="#63b8ff" d="M331.32,-109.51C269.7,-99.9 172.44,-84.74 109.68,-74.96"/>
<polygon fill="#63b8ff" stroke="#63b8ff" points="110.3,-71.51 99.88,-73.43 109.22,-78.43 110.3,-71.51"/>
</g>
<!-- Node14 -->
<g id="node14" class="node">
<title>Node14</title>
<g id="a_node14"><a xlink:href="Piezo_8h.html" target="_top" xlink:title=" ">
<polygon fill="white" stroke="#666666" points="307.5,-74 216.5,-74 216.5,-55 307.5,-55 307.5,-74"/>
<text text-anchor="middle" x="262" y="-62" font-family="Helvetica,sans-Serif" font-size="10.00">hardware/Piezo.h</text>
</a>
</g>
</g>
<!-- Node1&#45;&gt;Node14 -->
<g id="edge17" class="edge">
<title>Node1&#45;&gt;Node14</title>
<path fill="none" stroke="#63b8ff" d="M367.46,-109.51C347.26,-101.08 316.83,-88.38 293.84,-78.79"/>
<polygon fill="#63b8ff" stroke="#63b8ff" points="295.2,-75.56 284.62,-74.94 292.5,-82.02 295.2,-75.56"/>
</g>
<!-- Node3 -->
<g id="node3" class="node">
<title>Node3</title>
<g id="a_node3"><a xlink:title=" ">
<polygon fill="#e0e0e0" stroke="#999999" points="190.5,-19 133.5,-19 133.5,0 190.5,0 190.5,-19"/>
<text text-anchor="middle" x="162" y="-7" font-family="Helvetica,sans-Serif" font-size="10.00">Arduino.h</text>
</a>
</g>
</g>
<!-- Node2&#45;&gt;Node3 -->
<g id="edge2" class="edge">
<title>Node2&#45;&gt;Node3</title>
<path fill="none" stroke="#63b8ff" d="M325.58,-54.51C291.26,-45.28 237.86,-30.91 201.47,-21.12"/>
<polygon fill="#63b8ff" stroke="#63b8ff" points="202.8,-17.85 192.23,-18.63 200.98,-24.61 202.8,-17.85"/>
</g>
<!-- Node4 -->
<g id="node4" class="node">
<title>Node4</title>
<g id="a_node4"><a xlink:title=" ">
<polygon fill="#e0e0e0" stroke="#999999" points="356,-19 296,-19 296,0 356,0 356,-19"/>
<text text-anchor="middle" x="326" y="-7" font-family="Helvetica,sans-Serif" font-size="10.00">DigiFont.h</text>
</a>
</g>
</g>
<!-- Node2&#45;&gt;Node4 -->
<g id="edge3" class="edge">
<title>Node2&#45;&gt;Node4</title>
<path fill="none" stroke="#63b8ff" d="M353.55,-54.75C349.23,-47.81 343.04,-37.86 337.62,-29.16"/>
<polygon fill="#63b8ff" stroke="#63b8ff" points="340.62,-27.37 332.37,-20.73 334.68,-31.07 340.62,-27.37"/>
</g>
<!-- Node2&#45;&gt;Node5 -->
<g id="edge4" class="edge">
<title>Node2&#45;&gt;Node5</title>
<path fill="none" stroke="#63b8ff" d="M367.26,-54.75C374.16,-47.43 384.22,-36.76 392.74,-27.74"/>
<polygon fill="#63b8ff" stroke="#63b8ff" points="395.21,-30.22 399.53,-20.54 390.12,-25.42 395.21,-30.22"/>
</g>
<!-- Node2&#45;&gt;Node6 -->
<g id="edge5" class="edge">
<title>Node2&#45;&gt;Node6</title>
<path fill="none" stroke="#63b8ff" d="M381.73,-54.51C403.23,-46.01 435.73,-33.15 460.07,-23.53"/>
<polygon fill="#63b8ff" stroke="#63b8ff" points="461.19,-26.85 469.2,-19.91 458.61,-20.34 461.19,-26.85"/>
</g>
<!-- Node7 -->
<g id="node7" class="node">
<title>Node7</title>
<g id="a_node7"><a xlink:href="App_8h.html" target="_top" xlink:title="Abstract base class for applications.">
<polygon fill="white" stroke="#666666" points="277.5,-19 214.5,-19 214.5,0 277.5,0 277.5,-19"/>
<text text-anchor="middle" x="246" y="-7" font-family="Helvetica,sans-Serif" font-size="10.00">core/App.h</text>
</a>
</g>
</g>
<!-- Node2&#45;&gt;Node7 -->
<g id="edge6" class="edge">
<title>Node2&#45;&gt;Node7</title>
<path fill="none" stroke="#63b8ff" d="M339.83,-54.51C322.11,-46.2 295.52,-33.73 275.17,-24.18"/>
<polygon fill="#63b8ff" stroke="#63b8ff" points="276.8,-21.08 266.26,-20 273.82,-27.42 276.8,-21.08"/>
</g>
<!-- Node9&#45;&gt;Node3 -->
<g id="edge11" class="edge">
<title>Node9&#45;&gt;Node3</title>
<path fill="none" stroke="#63b8ff" d="M157.83,-54.75C158.44,-48.27 159.3,-39.16 160.08,-30.9"/>
<polygon fill="#63b8ff" stroke="#63b8ff" points="163.56,-31.23 161.01,-20.95 156.59,-30.58 163.56,-31.23"/>
</g>
<!-- Node11 -->
<g id="node11" class="node">
<title>Node11</title>
<g id="a_node11"><a xlink:title=" ">
<polygon fill="#e0e0e0" stroke="#999999" points="671.5,-19 600.5,-19 600.5,0 671.5,0 671.5,-19"/>
<text text-anchor="middle" x="636" y="-7" font-family="Helvetica,sans-Serif" font-size="10.00">OneButton.h</text>
</a>
</g>
</g>
<!-- Node10&#45;&gt;Node11 -->
<g id="edge13" class="edge">
<title>Node10&#45;&gt;Node11</title>
<path fill="none" stroke="#63b8ff" d="M636,-54.75C636,-48.27 636,-39.16 636,-30.9"/>
<polygon fill="#63b8ff" stroke="#63b8ff" points="639.5,-30.96 636,-20.96 632.5,-30.96 639.5,-30.96"/>
</g>
<!-- Node12&#45;&gt;Node3 -->
<g id="edge15" class="edge">
<title>Node12&#45;&gt;Node3</title>
<path fill="none" stroke="#63b8ff" d="M68.17,-54.51C85.89,-46.2 112.48,-33.73 132.83,-24.18"/>
<polygon fill="#63b8ff" stroke="#63b8ff" points="134.18,-27.42 141.74,-20 131.2,-21.08 134.18,-27.42"/>
</g>
<!-- Node13 -->
<g id="node13" class="node">
<title>Node13</title>
<g id="a_node13"><a xlink:title=" ">
<polygon fill="#e0e0e0" stroke="#999999" points="83.5,-19 14.5,-19 14.5,0 83.5,0 83.5,-19"/>
<text text-anchor="middle" x="49" y="-7" font-family="Helvetica,sans-Serif" font-size="10.00">TFT_eSPI.h</text>
</a>
</g>
</g>
<!-- Node12&#45;&gt;Node13 -->
<g id="edge16" class="edge">
<title>Node12&#45;&gt;Node13</title>
<path fill="none" stroke="#63b8ff" d="M49,-54.75C49,-48.27 49,-39.16 49,-30.9"/>
<polygon fill="#63b8ff" stroke="#63b8ff" points="52.5,-30.96 49,-20.96 45.5,-30.96 52.5,-30.96"/>
</g>
<!-- Node14&#45;&gt;Node3 -->
<g id="edge18" class="edge">
<title>Node14&#45;&gt;Node3</title>
<path fill="none" stroke="#63b8ff" d="M245.04,-54.51C229.64,-46.35 206.69,-34.19 188.81,-24.71"/>
<polygon fill="#63b8ff" stroke="#63b8ff" points="190.53,-21.66 180.05,-20.07 187.25,-27.84 190.53,-21.66"/>
</g>
</g>
</svg>
