<?xml version="1.0" encoding="UTF-8" standalone="no"?>
<!DOCTYPE svg PUBLIC "-//W3C//DTD SVG 1.1//EN"
 "http://www.w3.org/Graphics/SVG/1.1/DTD/svg11.dtd">
<!-- Generated by graphviz version 12.1.2 (0)
 -->
<!-- Title: src/apps/ClockApp/ClockApp.cpp Pages: 1 -->
<svg width="693pt" height="136pt"
 viewBox="0.00 0.00 692.62 135.50" xmlns="http://www.w3.org/2000/svg" xmlns:xlink="http://www.w3.org/1999/xlink">
<g id="graph0" class="graph" transform="scale(1 1) rotate(0) translate(4 131.5)">
<title>src/apps/ClockApp/ClockApp.cpp</title>
<!-- Node1 -->
<g id="Node000001" class="node">
<title>Node1</title>
<g id="a_Node000001"><a xlink:title=" ">
<polygon fill="#999999" stroke="#666666" points="471.12,-127.5 307.38,-127.5 307.38,-109 471.12,-109 471.12,-127.5"/>
<text text-anchor="middle" x="389.25" y="-114" font-family="Helvetica,sans-Serif" font-size="10.00">src/apps/ClockApp/ClockApp.cpp</text>
</a>
</g>
</g>
<!-- Node2 -->
<g id="Node000002" class="node">
<title>Node2</title>
<g id="a_Node000002"><a xlink:href="ClockApp_8h.html" target="_top" xlink:title=" ">
<polygon fill="white" stroke="#666666" points="391.75,-73 324.75,-73 324.75,-54.5 391.75,-54.5 391.75,-73"/>
<text text-anchor="middle" x="358.25" y="-59.5" font-family="Helvetica,sans-Serif" font-size="10.00">ClockApp.h</text>
</a>
</g>
</g>
<!-- Node1&#45;&gt;Node2 -->
<g id="edge1_Node000001_Node000002" class="edge">
<title>Node1&#45;&gt;Node2</title>
<g id="a_edge1_Node000001_Node000002"><a xlink:title=" ">
<path fill="none" stroke="#63b8ff" d="M384.13,-108.58C380.02,-101.62 374.11,-91.62 368.98,-82.92"/>
<polygon fill="#63b8ff" stroke="#63b8ff" points="372.14,-81.39 364.04,-74.56 366.11,-84.95 372.14,-81.39"/>
</a>
</g>
</g>
<!-- Node5 -->
<g id="Node000005" class="node">
<title>Node5</title>
<g id="a_Node000005"><a xlink:title=" ">
<polygon fill="#e0e0e0" stroke="#999999" points="443.5,-18.5 375,-18.5 375,0 443.5,0 443.5,-18.5"/>
<text text-anchor="middle" x="409.25" y="-5" font-family="Helvetica,sans-Serif" font-size="10.00">NTPClient.h</text>
</a>
</g>
</g>
<!-- Node1&#45;&gt;Node5 -->
<g id="edge8_Node000001_Node000005" class="edge">
<title>Node1&#45;&gt;Node5</title>
<g id="a_edge8_Node000001_Node000005"><a xlink:title=" ">
<path fill="none" stroke="#63b8ff" d="M392,-108.52C394.7,-99.65 398.77,-85.49 401.25,-73 404.07,-58.77 406.11,-42.51 407.43,-30.12"/>
<polygon fill="#63b8ff" stroke="#63b8ff" points="410.89,-30.64 408.39,-20.34 403.93,-29.95 410.89,-30.64"/>
</a>
</g>
</g>
<!-- Node6 -->
<g id="Node000006" class="node">
<title>Node6</title>
<g id="a_Node000006"><a xlink:title=" ">
<polygon fill="#e0e0e0" stroke="#999999" points="524.5,-18.5 462,-18.5 462,0 524.5,0 524.5,-18.5"/>
<text text-anchor="middle" x="493.25" y="-5" font-family="Helvetica,sans-Serif" font-size="10.00">WiFiUdp.h</text>
</a>
</g>
</g>
<!-- Node1&#45;&gt;Node6 -->
<g id="edge9_Node000001_Node000006" class="edge">
<title>Node1&#45;&gt;Node6</title>
<g id="a_edge9_Node000001_Node000006"><a xlink:title=" ">
<path fill="none" stroke="#63b8ff" d="M397.41,-108.85C414.49,-91.28 454.28,-50.34 476.85,-27.12"/>
<polygon fill="#63b8ff" stroke="#63b8ff" points="479.32,-29.6 483.78,-19.99 474.3,-24.72 479.32,-29.6"/>
</a>
</g>
</g>
<!-- Node8 -->
<g id="Node000008" class="node">
<title>Node8</title>
<g id="a_Node000008"><a xlink:title=" ">
<polygon fill="#e0e0e0" stroke="#999999" points="571.75,-73 486.75,-73 486.75,-54.5 571.75,-54.5 571.75,-73"/>
<text text-anchor="middle" x="529.25" y="-59.5" font-family="Helvetica,sans-Serif" font-size="10.00">ESP8266WiFi.h</text>
</a>
</g>
</g>
<!-- Node1&#45;&gt;Node8 -->
<g id="edge7_Node000001_Node000008" class="edge">
<title>Node1&#45;&gt;Node8</title>
<g id="a_edge7_Node000001_Node000008"><a xlink:title=" ">
<path fill="none" stroke="#63b8ff" d="M412.37,-108.58C434.96,-100.11 469.62,-87.11 495.34,-77.47"/>
<polygon fill="#63b8ff" stroke="#63b8ff" points="496.55,-80.75 504.68,-73.96 494.09,-74.2 496.55,-80.75"/>
</a>
</g>
</g>
<!-- Node9 -->
<g id="Node000009" class="node">
<title>Node9</title>
<g id="a_Node000009"><a xlink:href="Settings_8h.html" target="_top" xlink:title=" ">
<polygon fill="white" stroke="#666666" points="198.25,-73 116.25,-73 116.25,-54.5 198.25,-54.5 198.25,-73"/>
<text text-anchor="middle" x="157.25" y="-59.5" font-family="Helvetica,sans-Serif" font-size="10.00">core/Settings.h</text>
</a>
</g>
</g>
<!-- Node1&#45;&gt;Node9 -->
<g id="edge10_Node000001_Node000009" class="edge">
<title>Node1&#45;&gt;Node9</title>
<g id="a_edge10_Node000001_Node000009"><a xlink:title=" ">
<path fill="none" stroke="#63b8ff" d="M350.68,-108.52C311.29,-99.61 249.99,-85.74 206.98,-76"/>
<polygon fill="#63b8ff" stroke="#63b8ff" points="207.91,-72.63 197.39,-73.83 206.37,-79.45 207.91,-72.63"/>
</a>
</g>
</g>
<!-- Node10 -->
<g id="Node000010" class="node">
<title>Node10</title>
<g id="a_Node000010"><a xlink:href="Button_8h.html" target="_top" xlink:title=" ">
<polygon fill="white" stroke="#666666" points="684.62,-73 589.88,-73 589.88,-54.5 684.62,-54.5 684.62,-73"/>
<text text-anchor="middle" x="637.25" y="-59.5" font-family="Helvetica,sans-Serif" font-size="10.00">hardware/Button.h</text>
</a>
</g>
</g>
<!-- Node1&#45;&gt;Node10 -->
<g id="edge12_Node000001_Node000010" class="edge">
<title>Node1&#45;&gt;Node10</title>
<g id="a_edge12_Node000001_Node000010"><a xlink:title=" ">
<path fill="none" stroke="#63b8ff" d="M430.48,-108.52C472.76,-99.57 538.67,-85.62 584.68,-75.88"/>
<polygon fill="#63b8ff" stroke="#63b8ff" points="585.38,-79.31 594.44,-73.81 583.93,-72.46 585.38,-79.31"/>
</a>
</g>
</g>
<!-- Node12 -->
<g id="Node000012" class="node">
<title>Node12</title>
<g id="a_Node000012"><a xlink:href="Display_8h.html" target="_top" xlink:title=" ">
<polygon fill="white" stroke="#666666" points="98.5,-73 0,-73 0,-54.5 98.5,-54.5 98.5,-73"/>
<text text-anchor="middle" x="49.25" y="-59.5" font-family="Helvetica,sans-Serif" font-size="10.00">hardware/Display.h</text>
</a>
</g>
</g>
<!-- Node1&#45;&gt;Node12 -->
<g id="edge14_Node000001_Node000012" class="edge">
<title>Node1&#45;&gt;Node12</title>
<g id="a_edge14_Node000001_Node000012"><a xlink:title=" ">
<path fill="none" stroke="#63b8ff" d="M332.72,-108.52C271.31,-99.04 173.52,-83.94 110.36,-74.19"/>
<polygon fill="#63b8ff" stroke="#63b8ff" points="110.9,-70.73 100.48,-72.66 109.83,-77.65 110.9,-70.73"/>
</a>
</g>
</g>
<!-- Node14 -->
<g id="Node000014" class="node">
<title>Node14</title>
<g id="a_Node000014"><a xlink:href="Piezo_8h.html" target="_top" xlink:title=" ">
<polygon fill="white" stroke="#666666" points="306.38,-73 216.12,-73 216.12,-54.5 306.38,-54.5 306.38,-73"/>
<text text-anchor="middle" x="261.25" y="-59.5" font-family="Helvetica,sans-Serif" font-size="10.00">hardware/Piezo.h</text>
</a>
</g>
</g>
<!-- Node1&#45;&gt;Node14 -->
<g id="edge17_Node000001_Node000014" class="edge">
<title>Node1&#45;&gt;Node14</title>
<g id="a_edge17_Node000001_Node000014"><a xlink:title=" ">
<path fill="none" stroke="#63b8ff" d="M368.11,-108.58C347.64,-100.18 316.33,-87.34 292.89,-77.73"/>
<polygon fill="#63b8ff" stroke="#63b8ff" points="294.4,-74.56 283.82,-74.01 291.74,-81.04 294.4,-74.56"/>
</a>
</g>
</g>
<!-- Node3 -->
<g id="Node000003" class="node">
<title>Node3</title>
<g id="a_Node000003"><a xlink:title=" ">
<polygon fill="#e0e0e0" stroke="#999999" points="191.88,-18.5 134.62,-18.5 134.62,0 191.88,0 191.88,-18.5"/>
<text text-anchor="middle" x="163.25" y="-5" font-family="Helvetica,sans-Serif" font-size="10.00">Arduino.h</text>
</a>
</g>
</g>
<!-- Node2&#45;&gt;Node3 -->
<g id="edge2_Node000002_Node000003" class="edge">
<title>Node2&#45;&gt;Node3</title>
<g id="a_edge2_Node000002_Node000003"><a xlink:title=" ">
<path fill="none" stroke="#63b8ff" d="M326.05,-54.08C292.33,-45 239.31,-30.73 203,-20.95"/>
<polygon fill="#63b8ff" stroke="#63b8ff" points="204.34,-17.69 193.77,-18.47 202.52,-24.45 204.34,-17.69"/>
</a>
</g>
</g>
<!-- Node4 -->
<g id="Node000004" class="node">
<title>Node4</title>
<g id="a_Node000004"><a xlink:title=" ">
<polygon fill="#e0e0e0" stroke="#999999" points="357.38,-18.5 297.12,-18.5 297.12,0 357.38,0 357.38,-18.5"/>
<text text-anchor="middle" x="327.25" y="-5" font-family="Helvetica,sans-Serif" font-size="10.00">DigiFont.h</text>
</a>
</g>
</g>
<!-- Node2&#45;&gt;Node4 -->
<g id="edge3_Node000002_Node000004" class="edge">
<title>Node2&#45;&gt;Node4</title>
<g id="a_edge3_Node000002_Node000004"><a xlink:title=" ">
<path fill="none" stroke="#63b8ff" d="M353.13,-54.08C349.02,-47.12 343.11,-37.12 337.98,-28.42"/>
<polygon fill="#63b8ff" stroke="#63b8ff" points="341.14,-26.89 333.04,-20.06 335.11,-30.45 341.14,-26.89"/>
</a>
</g>
</g>
<!-- Node2&#45;&gt;Node5 -->
<g id="edge4_Node000002_Node000005" class="edge">
<title>Node2&#45;&gt;Node5</title>
<g id="a_edge4_Node000002_Node000005"><a xlink:title=" ">
<path fill="none" stroke="#63b8ff" d="M366.67,-54.08C373.8,-46.74 384.23,-36.01 392.98,-27"/>
<polygon fill="#63b8ff" stroke="#63b8ff" points="395.47,-29.46 399.93,-19.84 390.45,-24.58 395.47,-29.46"/>
</a>
</g>
</g>
<!-- Node2&#45;&gt;Node6 -->
<g id="edge5_Node000002_Node000006" class="edge">
<title>Node2&#45;&gt;Node6</title>
<g id="a_edge5_Node000002_Node000006"><a xlink:title=" ">
<path fill="none" stroke="#63b8ff" d="M380.54,-54.08C402.23,-45.65 435.45,-32.73 460.21,-23.1"/>
<polygon fill="#63b8ff" stroke="#63b8ff" points="461.46,-26.37 469.51,-19.48 458.93,-19.84 461.46,-26.37"/>
</a>
</g>
</g>
<!-- Node7 -->
<g id="Node000007" class="node">
<title>Node7</title>
<g id="a_Node000007"><a xlink:href="App_8h.html" target="_top" xlink:title="Abstract base class for applications.">
<polygon fill="white" stroke="#666666" points="278.88,-18.5 215.62,-18.5 215.62,0 278.88,0 278.88,-18.5"/>
<text text-anchor="middle" x="247.25" y="-5" font-family="Helvetica,sans-Serif" font-size="10.00">core/App.h</text>
</a>
</g>
</g>
<!-- Node2&#45;&gt;Node7 -->
<g id="edge6_Node000002_Node000007" class="edge">
<title>Node2&#45;&gt;Node7</title>
<g id="a_edge6_Node000002_Node000007"><a xlink:title=" ">
<path fill="none" stroke="#63b8ff" d="M339.92,-54.08C322.49,-45.84 296,-33.31 275.8,-23.75"/>
<polygon fill="#63b8ff" stroke="#63b8ff" points="277.51,-20.69 266.97,-19.58 274.52,-27.02 277.51,-20.69"/>
</a>
</g>
</g>
<!-- Node9&#45;&gt;Node3 -->
<g id="edge11_Node000009_Node000003" class="edge">
<title>Node9&#45;&gt;Node3</title>
<g id="a_edge11_Node000009_Node000003"><a xlink:title=" ">
<path fill="none" stroke="#63b8ff" d="M158.24,-54.08C158.98,-47.58 160.03,-38.42 160.97,-30.16"/>
<polygon fill="#63b8ff" stroke="#63b8ff" points="164.45,-30.59 162.11,-20.26 157.49,-29.8 164.45,-30.59"/>
</a>
</g>
</g>
<!-- Node11 -->
<g id="Node000011" class="node">
<title>Node11</title>
<g id="a_Node000011"><a xlink:title=" ">
<polygon fill="#e0e0e0" stroke="#999999" points="672.62,-18.5 601.88,-18.5 601.88,0 672.62,0 672.62,-18.5"/>
<text text-anchor="middle" x="637.25" y="-5" font-family="Helvetica,sans-Serif" font-size="10.00">OneButton.h</text>
</a>
</g>
</g>
<!-- Node10&#45;&gt;Node11 -->
<g id="edge13_Node000010_Node000011" class="edge">
<title>Node10&#45;&gt;Node11</title>
<g id="a_edge13_Node000010_Node000011"><a xlink:title=" ">
<path fill="none" stroke="#63b8ff" d="M637.25,-54.08C637.25,-47.58 637.25,-38.42 637.25,-30.16"/>
<polygon fill="#63b8ff" stroke="#63b8ff" points="640.75,-30.27 637.25,-20.27 633.75,-30.27 640.75,-30.27"/>
</a>
</g>
</g>
<!-- Node12&#45;&gt;Node3 -->
<g id="edge15_Node000012_Node000003" class="edge">
<title>Node12&#45;&gt;Node3</title>
<g id="a_edge15_Node000012_Node000003"><a xlink:title=" ">
<path fill="none" stroke="#63b8ff" d="M68.07,-54.08C86.06,-45.8 113.44,-33.19 134.22,-23.62"/>
<polygon fill="#63b8ff" stroke="#63b8ff" points="135.4,-26.93 143.02,-19.57 132.48,-20.57 135.4,-26.93"/>
</a>
</g>
</g>
<!-- Node13 -->
<g id="Node000013" class="node">
<title>Node13</title>
<g id="a_Node000013"><a xlink:title=" ">
<polygon fill="#e0e0e0" stroke="#999999" points="83.5,-18.5 15,-18.5 15,0 83.5,0 83.5,-18.5"/>
<text text-anchor="middle" x="49.25" y="-5" font-family="Helvetica,sans-Serif" font-size="10.00">TFT_eSPI.h</text>
</a>
</g>
</g>
<!-- Node12&#45;&gt;Node13 -->
<g id="edge16_Node000012_Node000013" class="edge">
<title>Node12&#45;&gt;Node13</title>
<g id="a_edge16_Node000012_Node000013"><a xlink:title=" ">
<path fill="none" stroke="#63b8ff" d="M49.25,-54.08C49.25,-47.58 49.25,-38.42 49.25,-30.16"/>
<polygon fill="#63b8ff" stroke="#63b8ff" points="52.75,-30.27 49.25,-20.27 45.75,-30.27 52.75,-30.27"/>
</a>
</g>
</g>
<!-- Node14&#45;&gt;Node3 -->
<g id="edge18_Node000014_Node000003" class="edge">
<title>Node14&#45;&gt;Node3</title>
<g id="a_edge18_Node000014_Node000003"><a xlink:title=" ">
<path fill="none" stroke="#63b8ff" d="M245.07,-54.08C229.89,-45.95 206.93,-33.65 189.2,-24.15"/>
<polygon fill="#63b8ff" stroke="#63b8ff" points="191.26,-21.28 180.79,-19.65 187.95,-27.45 191.26,-21.28"/>
</a>
</g>
</g>
</g>
</svg>
