<?xml version="1.0" encoding="UTF-8" standalone="no"?>
<!DOCTYPE svg PUBLIC "-//W3C//DTD SVG 1.1//EN"
 "http://www.w3.org/Graphics/SVG/1.1/DTD/svg11.dtd">
<!-- Generated by graphviz version 12.1.2 (0)
 -->
<!-- Title: src/apps/ClockApp/ClockApp.h Pages: 1 -->
<svg width="392pt" height="81pt"
 viewBox="0.00 0.00 392.25 81.00" xmlns="http://www.w3.org/2000/svg" xmlns:xlink="http://www.w3.org/1999/xlink">
<g id="graph0" class="graph" transform="scale(1 1) rotate(0) translate(4 77)">
<title>src/apps/ClockApp/ClockApp.h</title>
<!-- Node1 -->
<g id="Node000001" class="node">
<title>Node1</title>
<g id="a_Node000001"><a xlink:title=" ">
<polygon fill="#999999" stroke="#666666" points="264.25,-73 111,-73 111,-54.5 264.25,-54.5 264.25,-73"/>
<text text-anchor="middle" x="187.62" y="-59.5" font-family="Helvetica,sans-Serif" font-size="10.00">src/apps/ClockApp/ClockApp.h</text>
</a>
</g>
</g>
<!-- Node2 -->
<g id="Node000002" class="node">
<title>Node2</title>
<g id="a_Node000002"><a xlink:title=" ">
<polygon fill="#e0e0e0" stroke="#999999" points="57.25,-18.5 0,-18.5 0,0 57.25,0 57.25,-18.5"/>
<text text-anchor="middle" x="28.62" y="-5" font-family="Helvetica,sans-Serif" font-size="10.00">Arduino.h</text>
</a>
</g>
</g>
<!-- Node1&#45;&gt;Node2 -->
<g id="edge1_Node000001_Node000002" class="edge">
<title>Node1&#45;&gt;Node2</title>
<g id="a_edge1_Node000001_Node000002"><a xlink:title=" ">
<path fill="none" stroke="#63b8ff" d="M161.37,-54.08C135.25,-45.46 94.93,-32.14 65.58,-22.45"/>
<polygon fill="#63b8ff" stroke="#63b8ff" points="66.95,-19.22 56.36,-19.41 64.76,-25.87 66.95,-19.22"/>
</a>
</g>
</g>
<!-- Node3 -->
<g id="Node000003" class="node">
<title>Node3</title>
<g id="a_Node000003"><a xlink:title=" ">
<polygon fill="#e0e0e0" stroke="#999999" points="135.75,-18.5 75.5,-18.5 75.5,0 135.75,0 135.75,-18.5"/>
<text text-anchor="middle" x="105.62" y="-5" font-family="Helvetica,sans-Serif" font-size="10.00">DigiFont.h</text>
</a>
</g>
</g>
<!-- Node1&#45;&gt;Node3 -->
<g id="edge2_Node000001_Node000003" class="edge">
<title>Node1&#45;&gt;Node3</title>
<g id="a_edge2_Node000001_Node000003"><a xlink:title=" ">
<path fill="none" stroke="#63b8ff" d="M174.08,-54.08C161.74,-46.18 143.25,-34.34 128.6,-24.96"/>
<polygon fill="#63b8ff" stroke="#63b8ff" points="130.77,-22.19 120.46,-19.75 127,-28.09 130.77,-22.19"/>
</a>
</g>
</g>
<!-- Node4 -->
<g id="Node000004" class="node">
<title>Node4</title>
<g id="a_Node000004"><a xlink:title=" ">
<polygon fill="#e0e0e0" stroke="#999999" points="221.88,-18.5 153.38,-18.5 153.38,0 221.88,0 221.88,-18.5"/>
<text text-anchor="middle" x="187.62" y="-5" font-family="Helvetica,sans-Serif" font-size="10.00">NTPClient.h</text>
</a>
</g>
</g>
<!-- Node1&#45;&gt;Node4 -->
<g id="edge3_Node000001_Node000004" class="edge">
<title>Node1&#45;&gt;Node4</title>
<g id="a_edge3_Node000001_Node000004"><a xlink:title=" ">
<path fill="none" stroke="#63b8ff" d="M187.62,-54.08C187.62,-47.58 187.62,-38.42 187.62,-30.16"/>
<polygon fill="#63b8ff" stroke="#63b8ff" points="191.13,-30.27 187.63,-20.27 184.13,-30.27 191.13,-30.27"/>
</a>
</g>
</g>
<!-- Node5 -->
<g id="Node000005" class="node">
<title>Node5</title>
<g id="a_Node000005"><a xlink:title=" ">
<polygon fill="#e0e0e0" stroke="#999999" points="302.88,-18.5 240.38,-18.5 240.38,0 302.88,0 302.88,-18.5"/>
<text text-anchor="middle" x="271.62" y="-5" font-family="Helvetica,sans-Serif" font-size="10.00">WiFiUdp.h</text>
</a>
</g>
</g>
<!-- Node1&#45;&gt;Node5 -->
<g id="edge4_Node000001_Node000005" class="edge">
<title>Node1&#45;&gt;Node5</title>
<g id="a_edge4_Node000001_Node000005"><a xlink:title=" ">
<path fill="none" stroke="#63b8ff" d="M201.5,-54.08C214.14,-46.18 233.08,-34.34 248.09,-24.96"/>
<polygon fill="#63b8ff" stroke="#63b8ff" points="249.83,-28 256.45,-19.73 246.12,-22.07 249.83,-28"/>
</a>
</g>
</g>
<!-- Node6 -->
<g id="Node000006" class="node">
<title>Node6</title>
<g id="a_Node000006"><a xlink:href="App_8h.html" target="_top" xlink:title="Abstract base class for applications.">
<polygon fill="white" stroke="#666666" points="384.25,-18.5 321,-18.5 321,0 384.25,0 384.25,-18.5"/>
<text text-anchor="middle" x="352.62" y="-5" font-family="Helvetica,sans-Serif" font-size="10.00">core/App.h</text>
</a>
</g>
</g>
<!-- Node1&#45;&gt;Node6 -->
<g id="edge5_Node000001_Node000006" class="edge">
<title>Node1&#45;&gt;Node6</title>
<g id="a_edge5_Node000001_Node000006"><a xlink:title=" ">
<path fill="none" stroke="#63b8ff" d="M214.87,-54.08C242.1,-45.42 284.19,-32.03 314.68,-22.32"/>
<polygon fill="#63b8ff" stroke="#63b8ff" points="315.43,-25.76 323.9,-19.39 313.31,-19.09 315.43,-25.76"/>
</a>
</g>
</g>
</g>
</svg>
