<?xml version="1.0" encoding="UTF-8" standalone="no"?>
<!DOCTYPE svg PUBLIC "-//W3C//DTD SVG 1.1//EN"
 "http://www.w3.org/Graphics/SVG/1.1/DTD/svg11.dtd">
<!-- Generated by graphviz version 12.1.2 (0)
 -->
<!-- Title: src/apps/ClockApp/ClockApp.h Pages: 1 -->
<svg width="262pt" height="81pt"
 viewBox="0.00 0.00 262.00 81.00" xmlns="http://www.w3.org/2000/svg" xmlns:xlink="http://www.w3.org/1999/xlink">
<g id="graph0" class="graph" transform="scale(1 1) rotate(0) translate(4 77)">
<title>src/apps/ClockApp/ClockApp.h</title>
<!-- Node1 -->
<g id="Node000001" class="node">
<title>Node1</title>
<g id="a_Node000001"><a xlink:title=" ">
<polygon fill="#999999" stroke="#666666" points="226.5,-73 73.25,-73 73.25,-54.5 226.5,-54.5 226.5,-73"/>
<text text-anchor="middle" x="149.88" y="-59.5" font-family="Helvetica,sans-Serif" font-size="10.00">src/apps/ClockApp/ClockApp.h</text>
</a>
</g>
</g>
<!-- Node2 -->
<g id="Node000002" class="node">
<title>Node2</title>
<g id="a_Node000002"><a xlink:href="ClockApp_8cpp.html" target="_top" xlink:title=" ">
<polygon fill="white" stroke="#666666" points="163.75,-18.5 0,-18.5 0,0 163.75,0 163.75,-18.5"/>
<text text-anchor="middle" x="81.88" y="-5" font-family="Helvetica,sans-Serif" font-size="10.00">src/apps/ClockApp/ClockApp.cpp</text>
</a>
</g>
</g>
<!-- Node1&#45;&gt;Node2 -->
<g id="edge1_Node000001_Node000002" class="edge">
<title>Node1&#45;&gt;Node2</title>
<g id="a_edge1_Node000001_Node000002"><a xlink:title=" ">
<path fill="none" stroke="#63b8ff" d="M129.73,-47.2C117.68,-37.89 102.83,-26.43 92.89,-18.76"/>
<polygon fill="#63b8ff" stroke="#63b8ff" points="127.39,-49.81 137.45,-53.16 131.67,-44.27 127.39,-49.81"/>
</a>
</g>
</g>
<!-- Node3 -->
<g id="Node000003" class="node">
<title>Node3</title>
<g id="a_Node000003"><a xlink:href="main_8cpp.html" target="_top" xlink:title=" ">
<polygon fill="white" stroke="#666666" points="254,-18.5 181.75,-18.5 181.75,0 254,0 254,-18.5"/>
<text text-anchor="middle" x="217.88" y="-5" font-family="Helvetica,sans-Serif" font-size="10.00">src/main.cpp</text>
</a>
</g>
</g>
<!-- Node1&#45;&gt;Node3 -->
<g id="edge2_Node000001_Node000003" class="edge">
<title>Node1&#45;&gt;Node3</title>
<g id="a_edge2_Node000001_Node000003"><a xlink:title=" ">
<path fill="none" stroke="#63b8ff" d="M170.02,-47.2C182.07,-37.89 196.92,-26.43 206.86,-18.76"/>
<polygon fill="#63b8ff" stroke="#63b8ff" points="168.08,-44.27 162.3,-53.16 172.36,-49.81 168.08,-44.27"/>
</a>
</g>
</g>
</g>
</svg>
