<?xml version="1.0" encoding="UTF-8" standalone="no"?>
<!DOCTYPE svg PUBLIC "-//W3C//DTD SVG 1.1//EN"
 "http://www.w3.org/Graphics/SVG/1.1/DTD/svg11.dtd">
<!-- Generated by graphviz version 12.2.0 (20241103.1931)
 -->
<!-- Title: src/apps/ClockApp/ClockApp.cpp Pages: 1 -->
<svg width="819pt" height="193pt"
 viewBox="0.00 0.00 819.17 193.00" xmlns="http://www.w3.org/2000/svg" xmlns:xlink="http://www.w3.org/1999/xlink">
<g id="graph0" class="graph" transform="scale(1 1) rotate(0) translate(4 189)">
<title>src/apps/ClockApp/ClockApp.cpp</title>
<!-- Node1 -->
<g id="Node000001" class="node">
<title>Node1</title>
<g id="a_Node000001"><a xlink:title=" ">
<polygon fill="#999999" stroke="#666666" points="363.17,-185 201.67,-185 201.67,-165.75 363.17,-165.75 363.17,-185"/>
<text text-anchor="middle" x="282.42" y="-171.5" font-family="Helvetica,sans-Serif" font-size="10.00">src/apps/ClockApp/ClockApp.cpp</text>
</a>
</g>
</g>
<!-- Node2 -->
<g id="Node000002" class="node">
<title>Node2</title>
<g id="a_Node000002"><a xlink:href="ClockApp_8h.html" target="_top" xlink:title=" ">
<polygon fill="white" stroke="#666666" points="170.17,-129.75 104.67,-129.75 104.67,-110.5 170.17,-110.5 170.17,-129.75"/>
<text text-anchor="middle" x="137.42" y="-116.25" font-family="Helvetica,sans-Serif" font-size="10.00">ClockApp.h</text>
</a>
</g>
</g>
<!-- Node1&#45;&gt;Node2 -->
<g id="edge1_Node000001_Node000002" class="edge">
<title>Node1&#45;&gt;Node2</title>
<g id="a_edge1_Node000001_Node000002"><a xlink:title=" ">
<path fill="none" stroke="#63b8ff" d="M257.82,-165.34C234.49,-156.77 199.18,-143.81 172.82,-134.13"/>
<polygon fill="#63b8ff" stroke="#63b8ff" points="174.15,-130.89 163.56,-130.72 171.74,-137.46 174.15,-130.89"/>
</a>
</g>
</g>
<!-- Node5 -->
<g id="Node000005" class="node">
<title>Node5</title>
<g id="a_Node000005"><a xlink:title=" ">
<polygon fill="#e0e0e0" stroke="#999999" points="243.67,-74.5 175.17,-74.5 175.17,-55.25 243.67,-55.25 243.67,-74.5"/>
<text text-anchor="middle" x="209.42" y="-61" font-family="Helvetica,sans-Serif" font-size="10.00">NTPClient.h</text>
</a>
</g>
</g>
<!-- Node1&#45;&gt;Node5 -->
<g id="edge8_Node000001_Node000005" class="edge">
<title>Node1&#45;&gt;Node5</title>
<g id="a_edge8_Node000001_Node000005"><a xlink:title=" ">
<path fill="none" stroke="#63b8ff" d="M276.44,-165.5C264.52,-147.77 237.55,-107.69 221.7,-84.13"/>
<polygon fill="#63b8ff" stroke="#63b8ff" points="224.81,-82.48 216.32,-76.13 219,-86.38 224.81,-82.48"/>
</a>
</g>
</g>
<!-- Node6 -->
<g id="Node000006" class="node">
<title>Node6</title>
<g id="a_Node000006"><a xlink:title=" ">
<polygon fill="#e0e0e0" stroke="#999999" points="322.92,-74.5 261.92,-74.5 261.92,-55.25 322.92,-55.25 322.92,-74.5"/>
<text text-anchor="middle" x="292.42" y="-61" font-family="Helvetica,sans-Serif" font-size="10.00">WiFiUdp.h</text>
</a>
</g>
</g>
<!-- Node1&#45;&gt;Node6 -->
<g id="edge9_Node000001_Node000006" class="edge">
<title>Node1&#45;&gt;Node6</title>
<g id="a_edge9_Node000001_Node000006"><a xlink:title=" ">
<path fill="none" stroke="#63b8ff" d="M277.17,-165.25C270.7,-152.83 261.17,-129.92 266.42,-110.5 268.93,-101.22 273.89,-91.88 278.82,-84.16"/>
<polygon fill="#63b8ff" stroke="#63b8ff" points="281.63,-86.27 284.43,-76.05 275.86,-82.29 281.63,-86.27"/>
</a>
</g>
</g>
<!-- Node8 -->
<g id="Node000008" class="node">
<title>Node8</title>
<g id="a_Node000008"><a xlink:title=" ">
<polygon fill="#e0e0e0" stroke="#999999" points="359.17,-129.75 275.67,-129.75 275.67,-110.5 359.17,-110.5 359.17,-129.75"/>
<text text-anchor="middle" x="317.42" y="-116.25" font-family="Helvetica,sans-Serif" font-size="10.00">ESP8266WiFi.h</text>
</a>
</g>
</g>
<!-- Node1&#45;&gt;Node8 -->
<g id="edge7_Node000001_Node000008" class="edge">
<title>Node1&#45;&gt;Node8</title>
<g id="a_edge7_Node000001_Node000008"><a xlink:title=" ">
<path fill="none" stroke="#63b8ff" d="M288.2,-165.58C292.83,-158.53 299.49,-148.4 305.29,-139.58"/>
<polygon fill="#63b8ff" stroke="#63b8ff" points="308.11,-141.65 310.68,-131.37 302.26,-137.81 308.11,-141.65"/>
</a>
</g>
</g>
<!-- Node9 -->
<g id="Node000009" class="node">
<title>Node9</title>
<g id="a_Node000009"><a xlink:href="Settings_8h.html" target="_top" xlink:title=" ">
<polygon fill="white" stroke="#666666" points="458.04,-129.75 376.79,-129.75 376.79,-110.5 458.04,-110.5 458.04,-129.75"/>
<text text-anchor="middle" x="417.42" y="-116.25" font-family="Helvetica,sans-Serif" font-size="10.00">core/Settings.h</text>
</a>
</g>
</g>
<!-- Node1&#45;&gt;Node9 -->
<g id="edge10_Node000001_Node000009" class="edge">
<title>Node1&#45;&gt;Node9</title>
<g id="a_edge10_Node000001_Node000009"><a xlink:title=" ">
<path fill="none" stroke="#63b8ff" d="M305.32,-165.34C326.85,-156.85 359.33,-144.04 383.8,-134.39"/>
<polygon fill="#63b8ff" stroke="#63b8ff" points="384.98,-137.68 393,-130.76 382.41,-131.17 384.98,-137.68"/>
</a>
</g>
</g>
<!-- Node12 -->
<g id="Node000012" class="node">
<title>Node12</title>
<g id="a_Node000012"><a xlink:href="Hardware_8h.html" target="_top" xlink:title=" ">
<polygon fill="white" stroke="#666666" points="618.54,-129.75 510.29,-129.75 510.29,-110.5 618.54,-110.5 618.54,-129.75"/>
<text text-anchor="middle" x="564.42" y="-116.25" font-family="Helvetica,sans-Serif" font-size="10.00">hardware/Hardware.h</text>
</a>
</g>
</g>
<!-- Node1&#45;&gt;Node12 -->
<g id="edge14_Node000001_Node000012" class="edge">
<title>Node1&#45;&gt;Node12</title>
<g id="a_edge14_Node000001_Node000012"><a xlink:title=" ">
<path fill="none" stroke="#63b8ff" d="M330.57,-165.28C378.94,-156.15 453.54,-142.06 505.42,-132.26"/>
<polygon fill="#63b8ff" stroke="#63b8ff" points="505.8,-135.76 514.97,-130.46 504.5,-128.88 505.8,-135.76"/>
</a>
</g>
</g>
<!-- Node3 -->
<g id="Node000003" class="node">
<title>Node3</title>
<g id="a_Node000003"><a xlink:title=" ">
<polygon fill="#e0e0e0" stroke="#999999" points="527.67,-19.25 471.17,-19.25 471.17,0 527.67,0 527.67,-19.25"/>
<text text-anchor="middle" x="499.42" y="-5.75" font-family="Helvetica,sans-Serif" font-size="10.00">Arduino.h</text>
</a>
</g>
</g>
<!-- Node2&#45;&gt;Node3 -->
<g id="edge2_Node000002_Node000003" class="edge">
<title>Node2&#45;&gt;Node3</title>
<g id="a_edge2_Node000002_Node000003"><a xlink:title=" ">
<path fill="none" stroke="#63b8ff" d="M104.56,-114.86C56.58,-107.37 -23.7,-89.32 7.42,-55.25 37.69,-22.1 347.54,-13.33 459.41,-11.23"/>
<polygon fill="#63b8ff" stroke="#63b8ff" points="459.38,-14.73 469.31,-11.05 459.25,-7.73 459.38,-14.73"/>
</a>
</g>
</g>
<!-- Node4 -->
<g id="Node000004" class="node">
<title>Node4</title>
<g id="a_Node000004"><a xlink:title=" ">
<polygon fill="#e0e0e0" stroke="#999999" points="76.17,-74.5 16.67,-74.5 16.67,-55.25 76.17,-55.25 76.17,-74.5"/>
<text text-anchor="middle" x="46.42" y="-61" font-family="Helvetica,sans-Serif" font-size="10.00">DigiFont.h</text>
</a>
</g>
</g>
<!-- Node2&#45;&gt;Node4 -->
<g id="edge3_Node000002_Node000004" class="edge">
<title>Node2&#45;&gt;Node4</title>
<g id="a_edge3_Node000002_Node000004"><a xlink:title=" ">
<path fill="none" stroke="#63b8ff" d="M121.98,-110.09C108.25,-102.06 87.92,-90.16 71.8,-80.73"/>
<polygon fill="#63b8ff" stroke="#63b8ff" points="73.64,-77.75 63.24,-75.72 70.1,-83.79 73.64,-77.75"/>
</a>
</g>
</g>
<!-- Node2&#45;&gt;Node5 -->
<g id="edge4_Node000002_Node000005" class="edge">
<title>Node2&#45;&gt;Node5</title>
<g id="a_edge4_Node000002_Node000005"><a xlink:title=" ">
<path fill="none" stroke="#63b8ff" d="M149.63,-110.09C160.25,-102.24 175.85,-90.7 188.46,-81.37"/>
<polygon fill="#63b8ff" stroke="#63b8ff" points="190.21,-84.44 196.17,-75.67 186.05,-78.81 190.21,-84.44"/>
</a>
</g>
</g>
<!-- Node2&#45;&gt;Node6 -->
<g id="edge5_Node000002_Node000006" class="edge">
<title>Node2&#45;&gt;Node6</title>
<g id="a_edge5_Node000002_Node000006"><a xlink:title=" ">
<path fill="none" stroke="#63b8ff" d="M163.71,-110.09C188.87,-101.45 227.07,-88.32 255.32,-78.62"/>
<polygon fill="#63b8ff" stroke="#63b8ff" points="256.24,-82 264.56,-75.44 253.97,-75.38 256.24,-82"/>
</a>
</g>
</g>
<!-- Node7 -->
<g id="Node000007" class="node">
<title>Node7</title>
<g id="a_Node000007"><a xlink:href="App_8h.html" target="_top" xlink:title="Abstract base class for applications.">
<polygon fill="white" stroke="#666666" points="156.67,-74.5 94.17,-74.5 94.17,-55.25 156.67,-55.25 156.67,-74.5"/>
<text text-anchor="middle" x="125.42" y="-61" font-family="Helvetica,sans-Serif" font-size="10.00">core/App.h</text>
</a>
</g>
</g>
<!-- Node2&#45;&gt;Node7 -->
<g id="edge6_Node000002_Node000007" class="edge">
<title>Node2&#45;&gt;Node7</title>
<g id="a_edge6_Node000002_Node000007"><a xlink:title=" ">
<path fill="none" stroke="#63b8ff" d="M135.44,-110.33C133.95,-103.74 131.86,-94.46 129.97,-86.07"/>
<polygon fill="#63b8ff" stroke="#63b8ff" points="133.39,-85.32 127.78,-76.34 126.56,-86.86 133.39,-85.32"/>
</a>
</g>
</g>
<!-- Node9&#45;&gt;Node3 -->
<g id="edge11_Node000009_Node000003" class="edge">
<title>Node9&#45;&gt;Node3</title>
<g id="a_edge11_Node000009_Node000003"><a xlink:title=" ">
<path fill="none" stroke="#63b8ff" d="M402.4,-110.09C383.85,-97.78 356.36,-74.99 370.42,-55.25 390.44,-27.13 429.44,-16.57 459.34,-12.68"/>
<polygon fill="#63b8ff" stroke="#63b8ff" points="459.63,-16.17 469.2,-11.62 458.88,-9.21 459.63,-16.17"/>
</a>
</g>
</g>
<!-- Node10 -->
<g id="Node000010" class="node">
<title>Node10</title>
<g id="a_Node000010"><a xlink:title=" ">
<polygon fill="#e0e0e0" stroke="#999999" points="413.79,-74.5 379.04,-74.5 379.04,-55.25 413.79,-55.25 413.79,-74.5"/>
<text text-anchor="middle" x="396.42" y="-61" font-family="Helvetica,sans-Serif" font-size="10.00">map</text>
</a>
</g>
</g>
<!-- Node9&#45;&gt;Node10 -->
<g id="edge12_Node000009_Node000010" class="edge">
<title>Node9&#45;&gt;Node10</title>
<g id="a_edge12_Node000009_Node000010"><a xlink:title=" ">
<path fill="none" stroke="#63b8ff" d="M413.95,-110.33C411.29,-103.59 407.52,-94.02 404.15,-85.49"/>
<polygon fill="#63b8ff" stroke="#63b8ff" points="407.44,-84.29 400.52,-76.27 400.93,-86.85 407.44,-84.29"/>
</a>
</g>
</g>
<!-- Node11 -->
<g id="Node000011" class="node">
<title>Node11</title>
<g id="a_Node000011"><a xlink:title=" ">
<polygon fill="#e0e0e0" stroke="#999999" points="471.42,-74.5 431.42,-74.5 431.42,-55.25 471.42,-55.25 471.42,-74.5"/>
<text text-anchor="middle" x="451.42" y="-61" font-family="Helvetica,sans-Serif" font-size="10.00">string</text>
</a>
</g>
</g>
<!-- Node9&#45;&gt;Node11 -->
<g id="edge13_Node000009_Node000011" class="edge">
<title>Node9&#45;&gt;Node11</title>
<g id="a_edge13_Node000009_Node000011"><a xlink:title=" ">
<path fill="none" stroke="#63b8ff" d="M423.03,-110.33C427.53,-103.28 434,-93.15 439.63,-84.33"/>
<polygon fill="#63b8ff" stroke="#63b8ff" points="442.44,-86.45 444.87,-76.13 436.54,-82.68 442.44,-86.45"/>
</a>
</g>
</g>
<!-- Node12&#45;&gt;Node3 -->
<g id="edge15_Node000012_Node000003" class="edge">
<title>Node12&#45;&gt;Node3</title>
<g id="a_edge15_Node000012_Node000003"><a xlink:title=" ">
<path fill="none" stroke="#63b8ff" d="M552.15,-110.18C541.76,-101.98 527.18,-88.96 518.42,-74.5 510.24,-61 505.38,-43.75 502.63,-30.58"/>
<polygon fill="#63b8ff" stroke="#63b8ff" points="506.11,-30.16 500.87,-20.95 499.22,-31.42 506.11,-30.16"/>
</a>
</g>
</g>
<!-- Node13 -->
<g id="Node000013" class="node">
<title>Node13</title>
<g id="a_Node000013"><a xlink:href="Button_2Button_8h.html" target="_top" xlink:title=" ">
<polygon fill="white" stroke="#666666" points="811.17,-74.5 727.67,-74.5 727.67,-55.25 811.17,-55.25 811.17,-74.5"/>
<text text-anchor="middle" x="769.42" y="-61" font-family="Helvetica,sans-Serif" font-size="10.00">Button/Button.h</text>
</a>
</g>
</g>
<!-- Node12&#45;&gt;Node13 -->
<g id="edge16_Node000012_Node000013" class="edge">
<title>Node12&#45;&gt;Node13</title>
<g id="a_edge16_Node000012_Node000013"><a xlink:title=" ">
<path fill="none" stroke="#63b8ff" d="M599.19,-110.09C633.5,-101.18 686.14,-87.51 723.79,-77.73"/>
<polygon fill="#63b8ff" stroke="#63b8ff" points="724.21,-81.23 733.01,-75.33 722.45,-74.46 724.21,-81.23"/>
</a>
</g>
</g>
<!-- Node15 -->
<g id="Node000015" class="node">
<title>Node15</title>
<g id="a_Node000015"><a xlink:href="Display_8h.html" target="_top" xlink:title=" ">
<polygon fill="white" stroke="#666666" points="709.17,-74.5 619.67,-74.5 619.67,-55.25 709.17,-55.25 709.17,-74.5"/>
<text text-anchor="middle" x="664.42" y="-61" font-family="Helvetica,sans-Serif" font-size="10.00">Display/Display.h</text>
</a>
</g>
</g>
<!-- Node12&#45;&gt;Node15 -->
<g id="edge18_Node000012_Node000015" class="edge">
<title>Node12&#45;&gt;Node15</title>
<g id="a_edge18_Node000012_Node000015"><a xlink:title=" ">
<path fill="none" stroke="#63b8ff" d="M581.38,-110.09C596.68,-101.94 619.45,-89.82 637.28,-80.33"/>
<polygon fill="#63b8ff" stroke="#63b8ff" points="638.85,-83.45 646.04,-75.66 635.56,-77.27 638.85,-83.45"/>
</a>
</g>
</g>
<!-- Node17 -->
<g id="Node000017" class="node">
<title>Node17</title>
<g id="a_Node000017"><a xlink:href="Piezo_8h.html" target="_top" xlink:title=" ">
<polygon fill="white" stroke="#666666" points="601.67,-74.5 527.17,-74.5 527.17,-55.25 601.67,-55.25 601.67,-74.5"/>
<text text-anchor="middle" x="564.42" y="-61" font-family="Helvetica,sans-Serif" font-size="10.00">Piezo/Piezo.h</text>
</a>
</g>
</g>
<!-- Node12&#45;&gt;Node17 -->
<g id="edge21_Node000012_Node000017" class="edge">
<title>Node12&#45;&gt;Node17</title>
<g id="a_edge21_Node000012_Node000017"><a xlink:title=" ">
<path fill="none" stroke="#63b8ff" d="M564.42,-110.33C564.42,-103.82 564.42,-94.67 564.42,-86.37"/>
<polygon fill="#63b8ff" stroke="#63b8ff" points="567.92,-86.37 564.42,-76.37 560.92,-86.37 567.92,-86.37"/>
</a>
</g>
</g>
<!-- Node14 -->
<g id="Node000014" class="node">
<title>Node14</title>
<g id="a_Node000014"><a xlink:title=" ">
<polygon fill="#e0e0e0" stroke="#999999" points="804.42,-19.25 734.42,-19.25 734.42,0 804.42,0 804.42,-19.25"/>
<text text-anchor="middle" x="769.42" y="-5.75" font-family="Helvetica,sans-Serif" font-size="10.00">OneButton.h</text>
</a>
</g>
</g>
<!-- Node13&#45;&gt;Node14 -->
<g id="edge17_Node000013_Node000014" class="edge">
<title>Node13&#45;&gt;Node14</title>
<g id="a_edge17_Node000013_Node000014"><a xlink:title=" ">
<path fill="none" stroke="#63b8ff" d="M769.42,-55.08C769.42,-48.57 769.42,-39.42 769.42,-31.12"/>
<polygon fill="#63b8ff" stroke="#63b8ff" points="772.92,-31.12 769.42,-21.12 765.92,-31.12 772.92,-31.12"/>
</a>
</g>
</g>
<!-- Node15&#45;&gt;Node3 -->
<g id="edge19_Node000015_Node000003" class="edge">
<title>Node15&#45;&gt;Node3</title>
<g id="a_edge19_Node000015_Node000003"><a xlink:title=" ">
<path fill="none" stroke="#63b8ff" d="M636.43,-54.84C609.4,-46.12 568.26,-32.84 538.11,-23.11"/>
<polygon fill="#63b8ff" stroke="#63b8ff" points="539.58,-19.91 528.99,-20.17 537.43,-26.57 539.58,-19.91"/>
</a>
</g>
</g>
<!-- Node16 -->
<g id="Node000016" class="node">
<title>Node16</title>
<g id="a_Node000016"><a xlink:title=" ">
<polygon fill="#e0e0e0" stroke="#999999" points="698.67,-19.25 630.17,-19.25 630.17,0 698.67,0 698.67,-19.25"/>
<text text-anchor="middle" x="664.42" y="-5.75" font-family="Helvetica,sans-Serif" font-size="10.00">TFT_eSPI.h</text>
</a>
</g>
</g>
<!-- Node15&#45;&gt;Node16 -->
<g id="edge20_Node000015_Node000016" class="edge">
<title>Node15&#45;&gt;Node16</title>
<g id="a_edge20_Node000015_Node000016"><a xlink:title=" ">
<path fill="none" stroke="#63b8ff" d="M664.42,-55.08C664.42,-48.57 664.42,-39.42 664.42,-31.12"/>
<polygon fill="#63b8ff" stroke="#63b8ff" points="667.92,-31.12 664.42,-21.12 660.92,-31.12 667.92,-31.12"/>
</a>
</g>
</g>
<!-- Node17&#45;&gt;Node3 -->
<g id="edge22_Node000017_Node000003" class="edge">
<title>Node17&#45;&gt;Node3</title>
<g id="a_edge22_Node000017_Node000003"><a xlink:title=" ">
<path fill="none" stroke="#63b8ff" d="M553.39,-54.84C544,-47.15 530.27,-35.9 519.01,-26.68"/>
<polygon fill="#63b8ff" stroke="#63b8ff" points="521.41,-24.11 511.45,-20.48 516.97,-29.53 521.41,-24.11"/>
</a>
</g>
</g>
</g>
</svg>
