<?xml version="1.0" encoding="UTF-8" standalone="no"?>
<!DOCTYPE svg PUBLIC "-//W3C//DTD SVG 1.1//EN"
 "http://www.w3.org/Graphics/SVG/1.1/DTD/svg11.dtd">
<!-- Generated by graphviz version 12.2.0 (20241103.1931)
 -->
<!-- Title: src Pages: 1 -->
<svg width="118pt" height="225pt"
 viewBox="0.00 0.00 118.00 225.00" xmlns="http://www.w3.org/2000/svg" xmlns:xlink="http://www.w3.org/1999/xlink">
<g id="graph0" class="graph" transform="scale(1 1) rotate(0) translate(4 221)">
<title>src</title>
<g id="clust1" class="cluster">
<title>clusterdir_68267d1309a1af8e8297ef4c3efbcdba</title>
<g id="a_clust1"><a xlink:href="dir_68267d1309a1af8e8297ef4c3efbcdba.html" target="_top">
<polygon fill="#edf0f7" stroke="#404040" stroke-width="2" points="8,-8 8,-209 102,-209 102,-8 8,-8"/>
</a>
</g>
</g>
<!-- dir_68267d1309a1af8e8297ef4c3efbcdba -->
<g id="node1" class="node">
<title>dir_68267d1309a1af8e8297ef4c3efbcdba</title>
<text text-anchor="middle" x="73" y="-187.5" font-family="Helvetica,sans-Serif" font-size="10.00">src</text>
</g>
<!-- dir_53adf0b982dc8545998aae3f283a5a58 -->
<g id="node2" class="node">
<title>dir_53adf0b982dc8545998aae3f283a5a58</title>
<g id="a_node2"><a xlink:href="dir_53adf0b982dc8545998aae3f283a5a58.html" target="_top" xlink:title="apps">
<polygon fill="#a2b4d6" stroke="#404040" points="53.5,-145.75 16.5,-145.75 16.5,-126.5 53.5,-126.5 53.5,-145.75"/>
<text text-anchor="middle" x="35" y="-132.25" font-family="Helvetica,sans-Serif" font-size="10.00">apps</text>
</a>
</g>
</g>
<!-- dir_68267d1309a1af8e8297ef4c3efbcdba&#45;&gt;dir_53adf0b982dc8545998aae3f283a5a58 -->
<g id="edge1" class="edge">
<title>dir_68267d1309a1af8e8297ef4c3efbcdba&#45;&gt;dir_53adf0b982dc8545998aae3f283a5a58</title>
<g id="a_edge1"><a xlink:href="dir_000013_000001.html" target="_top">
<path fill="none" stroke="#63b8ff" d="M67.06,-182.05C61.97,-174.91 54.44,-164.37 47.96,-155.29"/>
<polygon fill="#63b8ff" stroke="#63b8ff" points="50.81,-153.26 42.15,-147.15 45.11,-157.32 50.81,-153.26"/>
</a>
</g>
<g id="a_edge1&#45;headlabel"><a xlink:href="dir_000013_000001.html" target="_top" xlink:title="5">
<text text-anchor="middle" x="54.33" y="-149.43" font-family="Helvetica,sans-Serif" font-size="10.00" fill="#63b8ff">5</text>
</a>
</g>
</g>
<!-- dir_aebb8dcc11953d78e620bbef0b9e2183 -->
<g id="node3" class="node">
<title>dir_aebb8dcc11953d78e620bbef0b9e2183</title>
<g id="a_node3"><a xlink:href="dir_aebb8dcc11953d78e620bbef0b9e2183.html" target="_top" xlink:title="core">
<polygon fill="#a2b4d6" stroke="#404040" points="74.38,-90.5 39.62,-90.5 39.62,-71.25 74.38,-71.25 74.38,-90.5"/>
<text text-anchor="middle" x="57" y="-77" font-family="Helvetica,sans-Serif" font-size="10.00">core</text>
</a>
</g>
</g>
<!-- dir_68267d1309a1af8e8297ef4c3efbcdba&#45;&gt;dir_aebb8dcc11953d78e620bbef0b9e2183 -->
<g id="edge3" class="edge">
<title>dir_68267d1309a1af8e8297ef4c3efbcdba&#45;&gt;dir_aebb8dcc11953d78e620bbef0b9e2183</title>
<g id="a_edge3"><a xlink:href="dir_000013_000004.html" target="_top">
<path fill="none" stroke="#63b8ff" d="M71.74,-181.86C69.23,-164.84 63.53,-126.19 60,-102.23"/>
<polygon fill="#63b8ff" stroke="#63b8ff" points="63.48,-101.84 58.56,-92.45 56.56,-102.86 63.48,-101.84"/>
</a>
</g>
<g id="a_edge3&#45;headlabel"><a xlink:href="dir_000013_000004.html" target="_top" xlink:title="11">
<text text-anchor="middle" x="66.59" y="-99.61" font-family="Helvetica,sans-Serif" font-size="10.00" fill="#63b8ff">11</text>
</a>
</g>
</g>
<!-- dir_59b1e980a670de987a696efba6dbbdbc -->
<g id="node4" class="node">
<title>dir_59b1e980a670de987a696efba6dbbdbc</title>
<g id="a_node4"><a xlink:href="dir_59b1e980a670de987a696efba6dbbdbc.html" target="_top" xlink:title="hardware">
<polygon fill="#a2b4d6" stroke="#404040" points="84.88,-35.25 29.12,-35.25 29.12,-16 84.88,-16 84.88,-35.25"/>
<text text-anchor="middle" x="57" y="-21.75" font-family="Helvetica,sans-Serif" font-size="10.00">hardware</text>
</a>
</g>
</g>
<!-- dir_68267d1309a1af8e8297ef4c3efbcdba&#45;&gt;dir_59b1e980a670de987a696efba6dbbdbc -->
<g id="edge2" class="edge">
<title>dir_68267d1309a1af8e8297ef4c3efbcdba&#45;&gt;dir_59b1e980a670de987a696efba6dbbdbc</title>
<g id="a_edge2"><a xlink:href="dir_000013_000008.html" target="_top">
<path fill="none" stroke="#63b8ff" d="M75.69,-181.82C81.51,-161.99 93.88,-111.52 83,-71.25 80.49,-61.97 75.52,-52.63 70.59,-44.91"/>
<polygon fill="#63b8ff" stroke="#63b8ff" points="73.55,-43.04 64.99,-36.8 67.79,-47.02 73.55,-43.04"/>
</a>
</g>
<g id="a_edge2&#45;headlabel"><a xlink:href="dir_000013_000008.html" target="_top" xlink:title="12">
<text text-anchor="middle" x="77.07" y="-39.26" font-family="Helvetica,sans-Serif" font-size="10.00" fill="#63b8ff">12</text>
</a>
</g>
</g>
<!-- dir_53adf0b982dc8545998aae3f283a5a58&#45;&gt;dir_aebb8dcc11953d78e620bbef0b9e2183 -->
<g id="edge4" class="edge">
<title>dir_53adf0b982dc8545998aae3f283a5a58&#45;&gt;dir_aebb8dcc11953d78e620bbef0b9e2183</title>
<g id="a_edge4"><a xlink:href="dir_000001_000004.html" target="_top">
<path fill="none" stroke="#63b8ff" d="M38.63,-126.33C41.42,-119.59 45.37,-110.02 48.9,-101.49"/>
<polygon fill="#63b8ff" stroke="#63b8ff" points="52.13,-102.84 52.71,-92.26 45.66,-100.16 52.13,-102.84"/>
</a>
</g>
<g id="a_edge4&#45;headlabel"><a xlink:href="dir_000001_000004.html" target="_top" xlink:title="7">
<text text-anchor="middle" x="53.96" y="-101.97" font-family="Helvetica,sans-Serif" font-size="10.00" fill="#63b8ff">7</text>
</a>
</g>
</g>
<!-- dir_53adf0b982dc8545998aae3f283a5a58&#45;&gt;dir_59b1e980a670de987a696efba6dbbdbc -->
<g id="edge5" class="edge">
<title>dir_53adf0b982dc8545998aae3f283a5a58&#45;&gt;dir_59b1e980a670de987a696efba6dbbdbc</title>
<g id="a_edge5"><a xlink:href="dir_000001_000008.html" target="_top">
<path fill="none" stroke="#63b8ff" d="M32.68,-126.27C29.79,-113.77 25.84,-90.34 31,-71.25 33.51,-61.97 38.48,-52.63 43.41,-44.91"/>
<polygon fill="#63b8ff" stroke="#63b8ff" points="46.21,-47.02 49.01,-36.8 40.45,-43.04 46.21,-47.02"/>
</a>
</g>
<g id="a_edge5&#45;headlabel"><a xlink:href="dir_000001_000008.html" target="_top" xlink:title="6">
<text text-anchor="middle" x="47.36" y="-46.47" font-family="Helvetica,sans-Serif" font-size="10.00" fill="#63b8ff">6</text>
</a>
</g>
</g>
<!-- dir_aebb8dcc11953d78e620bbef0b9e2183&#45;&gt;dir_59b1e980a670de987a696efba6dbbdbc -->
<g id="edge6" class="edge">
<title>dir_aebb8dcc11953d78e620bbef0b9e2183&#45;&gt;dir_59b1e980a670de987a696efba6dbbdbc</title>
<g id="a_edge6"><a xlink:href="dir_000004_000008.html" target="_top">
<path fill="none" stroke="#63b8ff" d="M57,-71.08C57,-64.57 57,-55.42 57,-47.12"/>
<polygon fill="#63b8ff" stroke="#63b8ff" points="60.5,-47.12 57,-37.12 53.5,-47.12 60.5,-47.12"/>
</a>
</g>
<g id="a_edge6&#45;headlabel"><a xlink:href="dir_000004_000008.html" target="_top" xlink:title="2">
<text text-anchor="middle" x="63.34" y="-45.33" font-family="Helvetica,sans-Serif" font-size="10.00" fill="#63b8ff">2</text>
</a>
</g>
</g>
</g>
</svg>
