<?xml version="1.0" encoding="UTF-8" standalone="no"?>
<!DOCTYPE svg PUBLIC "-//W3C//DTD SVG 1.1//EN"
 "http://www.w3.org/Graphics/SVG/1.1/DTD/svg11.dtd">
<!-- Generated by graphviz version 12.1.2 (0)
 -->
<!-- Title: src Pages: 1 -->
<svg width="118pt" height="222pt"
 viewBox="0.00 0.00 118.00 222.00" xmlns="http://www.w3.org/2000/svg" xmlns:xlink="http://www.w3.org/1999/xlink">
<g id="graph0" class="graph" transform="scale(1 1) rotate(0) translate(4 218)">
<title>src</title>
<g id="clust1" class="cluster">
<title>clusterdir_68267d1309a1af8e8297ef4c3efbcdba</title>
<g id="a_clust1"><a xlink:href="dir_68267d1309a1af8e8297ef4c3efbcdba.html" target="_top">
<polygon fill="#edf0f7" stroke="#404040" stroke-width="2" points="8,-8 8,-206 102,-206 102,-8 8,-8"/>
</a>
</g>
</g>
<!-- dir_68267d1309a1af8e8297ef4c3efbcdba -->
<g id="node1" class="node">
<title>dir_68267d1309a1af8e8297ef4c3efbcdba</title>
<text text-anchor="middle" x="73" y="-184.5" font-family="Helvetica,sans-Serif" font-size="10.00">src</text>
</g>
<!-- dir_53adf0b982dc8545998aae3f283a5a58 -->
<g id="node2" class="node">
<title>dir_53adf0b982dc8545998aae3f283a5a58</title>
<g id="a_node2"><a xlink:href="dir_53adf0b982dc8545998aae3f283a5a58.html" target="_top" xlink:title="apps">
<polygon fill="#a2b4d6" stroke="#404040" points="53.5,-143.5 16.5,-143.5 16.5,-125 53.5,-125 53.5,-143.5"/>
<text text-anchor="middle" x="35" y="-130" font-family="Helvetica,sans-Serif" font-size="10.00">apps</text>
</a>
</g>
</g>
<!-- dir_68267d1309a1af8e8297ef4c3efbcdba&#45;&gt;dir_53adf0b982dc8545998aae3f283a5a58 -->
<g id="edge1" class="edge">
<title>dir_68267d1309a1af8e8297ef4c3efbcdba&#45;&gt;dir_53adf0b982dc8545998aae3f283a5a58</title>
<g id="a_edge1"><a xlink:href="dir_000008_000001.html" target="_top">
<path fill="none" stroke="#63b8ff" d="M67.06,-179.55C61.97,-172.51 54.44,-162.11 47.96,-153.16"/>
<polygon fill="#63b8ff" stroke="#63b8ff" points="50.86,-151.19 42.16,-145.15 45.19,-155.3 50.86,-151.19"/>
</a>
</g>
<g id="a_edge1&#45;headlabel"><a xlink:href="dir_000008_000001.html" target="_top" xlink:title="3">
<text text-anchor="middle" x="54.38" y="-146.96" font-family="Helvetica,sans-Serif" font-size="10.00" fill="#63b8ff">3</text>
</a>
</g>
</g>
<!-- dir_aebb8dcc11953d78e620bbef0b9e2183 -->
<g id="node3" class="node">
<title>dir_aebb8dcc11953d78e620bbef0b9e2183</title>
<g id="a_node3"><a xlink:href="dir_aebb8dcc11953d78e620bbef0b9e2183.html" target="_top" xlink:title="core">
<polygon fill="#a2b4d6" stroke="#404040" points="74.38,-89 39.62,-89 39.62,-70.5 74.38,-70.5 74.38,-89"/>
<text text-anchor="middle" x="57" y="-75.5" font-family="Helvetica,sans-Serif" font-size="10.00">core</text>
</a>
</g>
</g>
<!-- dir_68267d1309a1af8e8297ef4c3efbcdba&#45;&gt;dir_aebb8dcc11953d78e620bbef0b9e2183 -->
<g id="edge3" class="edge">
<title>dir_68267d1309a1af8e8297ef4c3efbcdba&#45;&gt;dir_aebb8dcc11953d78e620bbef0b9e2183</title>
<g id="a_edge3"><a xlink:href="dir_000008_000003.html" target="_top">
<path fill="none" stroke="#63b8ff" d="M71.8,-179.71C69.31,-163.06 63.53,-124.41 59.97,-100.64"/>
<polygon fill="#63b8ff" stroke="#63b8ff" points="63.47,-100.35 58.53,-90.98 56.55,-101.39 63.47,-100.35"/>
</a>
</g>
<g id="a_edge3&#45;headlabel"><a xlink:href="dir_000008_000003.html" target="_top" xlink:title="8">
<text text-anchor="middle" x="66.59" y="-97.74" font-family="Helvetica,sans-Serif" font-size="10.00" fill="#63b8ff">8</text>
</a>
</g>
</g>
<!-- dir_59b1e980a670de987a696efba6dbbdbc -->
<g id="node4" class="node">
<title>dir_59b1e980a670de987a696efba6dbbdbc</title>
<g id="a_node4"><a xlink:href="dir_59b1e980a670de987a696efba6dbbdbc.html" target="_top" xlink:title="hardware">
<polygon fill="#a2b4d6" stroke="#404040" points="84.5,-34.5 29.5,-34.5 29.5,-16 84.5,-16 84.5,-34.5"/>
<text text-anchor="middle" x="57" y="-21" font-family="Helvetica,sans-Serif" font-size="10.00">hardware</text>
</a>
</g>
</g>
<!-- dir_68267d1309a1af8e8297ef4c3efbcdba&#45;&gt;dir_59b1e980a670de987a696efba6dbbdbc -->
<g id="edge2" class="edge">
<title>dir_68267d1309a1af8e8297ef4c3efbcdba&#45;&gt;dir_59b1e980a670de987a696efba6dbbdbc</title>
<g id="a_edge2"><a xlink:href="dir_000008_000005.html" target="_top">
<path fill="none" stroke="#63b8ff" d="M75.59,-179.62C81.34,-160.3 93.83,-110.32 83,-70.5 80.46,-61.16 75.39,-51.78 70.4,-44.07"/>
<polygon fill="#63b8ff" stroke="#63b8ff" points="73.36,-42.19 64.76,-36.01 67.62,-46.21 73.36,-42.19"/>
</a>
</g>
<g id="a_edge2&#45;headlabel"><a xlink:href="dir_000008_000005.html" target="_top" xlink:title="14">
<text text-anchor="middle" x="76.88" y="-38.02" font-family="Helvetica,sans-Serif" font-size="10.00" fill="#63b8ff">14</text>
</a>
</g>
</g>
<!-- dir_53adf0b982dc8545998aae3f283a5a58&#45;&gt;dir_aebb8dcc11953d78e620bbef0b9e2183 -->
<g id="edge4" class="edge">
<title>dir_53adf0b982dc8545998aae3f283a5a58&#45;&gt;dir_aebb8dcc11953d78e620bbef0b9e2183</title>
<g id="a_edge4"><a xlink:href="dir_000001_000003.html" target="_top">
<path fill="none" stroke="#63b8ff" d="M38.63,-124.58C41.45,-117.85 45.47,-108.27 49.02,-99.79"/>
<polygon fill="#63b8ff" stroke="#63b8ff" points="52.21,-101.23 52.85,-90.65 45.76,-98.52 52.21,-101.23"/>
</a>
</g>
<g id="a_edge4&#45;headlabel"><a xlink:href="dir_000001_000003.html" target="_top" xlink:title="4">
<text text-anchor="middle" x="54.03" y="-100" font-family="Helvetica,sans-Serif" font-size="10.00" fill="#63b8ff">4</text>
</a>
</g>
</g>
<!-- dir_53adf0b982dc8545998aae3f283a5a58&#45;&gt;dir_59b1e980a670de987a696efba6dbbdbc -->
<g id="edge5" class="edge">
<title>dir_53adf0b982dc8545998aae3f283a5a58&#45;&gt;dir_59b1e980a670de987a696efba6dbbdbc</title>
<g id="a_edge5"><a xlink:href="dir_000001_000005.html" target="_top">
<path fill="none" stroke="#63b8ff" d="M32.69,-124.55C29.83,-112.26 25.9,-89.25 31,-70.5 33.54,-61.16 38.61,-51.78 43.6,-44.07"/>
<polygon fill="#63b8ff" stroke="#63b8ff" points="46.38,-46.21 49.24,-36.01 40.64,-42.19 46.38,-46.21"/>
</a>
</g>
<g id="a_edge5&#45;headlabel"><a xlink:href="dir_000001_000005.html" target="_top" xlink:title="8">
<text text-anchor="middle" x="47.51" y="-45.29" font-family="Helvetica,sans-Serif" font-size="10.00" fill="#63b8ff">8</text>
</a>
</g>
</g>
<!-- dir_aebb8dcc11953d78e620bbef0b9e2183&#45;&gt;dir_59b1e980a670de987a696efba6dbbdbc -->
<g id="edge6" class="edge">
<title>dir_aebb8dcc11953d78e620bbef0b9e2183&#45;&gt;dir_59b1e980a670de987a696efba6dbbdbc</title>
<g id="a_edge6"><a xlink:href="dir_000003_000005.html" target="_top">
<path fill="none" stroke="#63b8ff" d="M57,-70.08C57,-63.58 57,-54.42 57,-46.16"/>
<polygon fill="#63b8ff" stroke="#63b8ff" points="60.5,-46.27 57,-36.27 53.5,-46.27 60.5,-46.27"/>
</a>
</g>
<g id="a_edge6&#45;headlabel"><a xlink:href="dir_000003_000005.html" target="_top" xlink:title="4">
<text text-anchor="middle" x="63.34" y="-44.1" font-family="Helvetica,sans-Serif" font-size="10.00" fill="#63b8ff">4</text>
</a>
</g>
</g>
</g>
</svg>
