<?xml version="1.0" encoding="UTF-8" standalone="no"?>
<!DOCTYPE svg PUBLIC "-//W3C//DTD SVG 1.1//EN"
 "http://www.w3.org/Graphics/SVG/1.1/DTD/svg11.dtd">
<!-- Generated by graphviz version 7.0.5 (20221223.1930)
 -->
<!-- Title: src Pages: 1 -->
<svg width="118pt" height="224pt"
 viewBox="0.00 0.00 118.00 224.00" xmlns="http://www.w3.org/2000/svg" xmlns:xlink="http://www.w3.org/1999/xlink">
<g id="graph0" class="graph" transform="scale(1 1) rotate(0) translate(4 220)">
<title>src</title>
<g id="clust1" class="cluster">
<title>clusterdir_68267d1309a1af8e8297ef4c3efbcdba</title>
<g id="a_clust1"><a xlink:href="dir_68267d1309a1af8e8297ef4c3efbcdba.html" target="_top">
<polygon fill="#edf0f7" stroke="#404040" stroke-width="2" points="8,-8 8,-208 102,-208 102,-8 8,-8"/>
</a>
</g>
</g>
<!-- dir_68267d1309a1af8e8297ef4c3efbcdba -->
<g id="node1" class="node">
<title>dir_68267d1309a1af8e8297ef4c3efbcdba</title>
<text text-anchor="middle" x="73" y="-188" font-family="Helvetica,sans-Serif" font-size="10.00">src</text>
</g>
<!-- dir_53adf0b982dc8545998aae3f283a5a58 -->
<g id="node2" class="node">
<title>dir_53adf0b982dc8545998aae3f283a5a58</title>
<g id="a_node2"><a xlink:href="dir_53adf0b982dc8545998aae3f283a5a58.html" target="_top" xlink:title="apps">
<polygon fill="#a2b4d6" stroke="#404040" points="54,-145 16,-145 16,-126 54,-126 54,-145"/>
<text text-anchor="middle" x="35" y="-133" font-family="Helvetica,sans-Serif" font-size="10.00">apps</text>
</a>
</g>
</g>
<!-- dir_68267d1309a1af8e8297ef4c3efbcdba&#45;&gt;dir_53adf0b982dc8545998aae3f283a5a58 -->
<g id="edge1" class="edge">
<title>dir_68267d1309a1af8e8297ef4c3efbcdba&#45;&gt;dir_53adf0b982dc8545998aae3f283a5a58</title>
<path fill="none" stroke="#63b8ff" d="M67.06,-181.22C61.97,-174.11 54.44,-163.62 47.96,-154.58"/>
<polygon fill="#63b8ff" stroke="#63b8ff" points="50.83,-152.57 42.16,-146.48 45.14,-156.65 50.83,-152.57"/>
<g id="a_edge1&#45;headlabel"><a xlink:href="dir_000008_000001.html" target="_top" xlink:title="3">
<text text-anchor="middle" x="54.35" y="-150.11" font-family="Helvetica,sans-Serif" font-size="10.00" fill="#63b8ff">3</text>
</a>
</g>
</g>
<!-- dir_aebb8dcc11953d78e620bbef0b9e2183 -->
<g id="node3" class="node">
<title>dir_aebb8dcc11953d78e620bbef0b9e2183</title>
<g id="a_node3"><a xlink:href="dir_aebb8dcc11953d78e620bbef0b9e2183.html" target="_top" xlink:title="core">
<polygon fill="#a2b4d6" stroke="#404040" points="73.5,-90 38.5,-90 38.5,-71 73.5,-71 73.5,-90"/>
<text text-anchor="middle" x="56" y="-78" font-family="Helvetica,sans-Serif" font-size="10.00">core</text>
</a>
</g>
</g>
<!-- dir_68267d1309a1af8e8297ef4c3efbcdba&#45;&gt;dir_aebb8dcc11953d78e620bbef0b9e2183 -->
<g id="edge3" class="edge">
<title>dir_68267d1309a1af8e8297ef4c3efbcdba&#45;&gt;dir_aebb8dcc11953d78e620bbef0b9e2183</title>
<path fill="none" stroke="#63b8ff" d="M71.67,-181.03C68.99,-164 62.88,-125.22 59.13,-101.41"/>
<polygon fill="#63b8ff" stroke="#63b8ff" points="62.62,-101.06 57.61,-91.73 55.71,-102.15 62.62,-101.06"/>
<g id="a_edge3&#45;headlabel"><a xlink:href="dir_000008_000003.html" target="_top" xlink:title="8">
<text text-anchor="middle" x="65.75" y="-100.18" font-family="Helvetica,sans-Serif" font-size="10.00" fill="#63b8ff">8</text>
</a>
</g>
</g>
<!-- dir_59b1e980a670de987a696efba6dbbdbc -->
<g id="node4" class="node">
<title>dir_59b1e980a670de987a696efba6dbbdbc</title>
<g id="a_node4"><a xlink:href="dir_59b1e980a670de987a696efba6dbbdbc.html" target="_top" xlink:title="hardware">
<polygon fill="#a2b4d6" stroke="#404040" points="84,-35 28,-35 28,-16 84,-16 84,-35"/>
<text text-anchor="middle" x="56" y="-23" font-family="Helvetica,sans-Serif" font-size="10.00">hardware</text>
</a>
</g>
</g>
<!-- dir_68267d1309a1af8e8297ef4c3efbcdba&#45;&gt;dir_59b1e980a670de987a696efba6dbbdbc -->
<g id="edge2" class="edge">
<title>dir_68267d1309a1af8e8297ef4c3efbcdba&#45;&gt;dir_59b1e980a670de987a696efba6dbbdbc</title>
<path fill="none" stroke="#63b8ff" d="M75.65,-181.27C81.51,-161.72 94.23,-111.16 83,-71 80.39,-61.67 75.23,-52.34 70.11,-44.66"/>
<polygon fill="#63b8ff" stroke="#63b8ff" points="72.97,-42.65 64.29,-36.58 67.29,-46.74 72.97,-42.65"/>
<g id="a_edge2&#45;headlabel"><a xlink:href="dir_000008_000005.html" target="_top" xlink:title="14">
<text text-anchor="middle" x="76.49" y="-40.17" font-family="Helvetica,sans-Serif" font-size="10.00" fill="#63b8ff">14</text>
</a>
</g>
</g>
<!-- dir_53adf0b982dc8545998aae3f283a5a58&#45;&gt;dir_aebb8dcc11953d78e620bbef0b9e2183 -->
<g id="edge4" class="edge">
<title>dir_53adf0b982dc8545998aae3f283a5a58&#45;&gt;dir_aebb8dcc11953d78e620bbef0b9e2183</title>
<path fill="none" stroke="#63b8ff" d="M38.47,-125.75C41.13,-119.04 44.9,-109.52 48.26,-101.02"/>
<polygon fill="#63b8ff" stroke="#63b8ff" points="51.47,-102.44 51.9,-91.85 44.96,-99.86 51.47,-102.44"/>
<g id="a_edge4&#45;headlabel"><a xlink:href="dir_000001_000003.html" target="_top" xlink:title="4">
<text text-anchor="middle" x="53.34" y="-102.92" font-family="Helvetica,sans-Serif" font-size="10.00" fill="#63b8ff">4</text>
</a>
</g>
</g>
<!-- dir_53adf0b982dc8545998aae3f283a5a58&#45;&gt;dir_59b1e980a670de987a696efba6dbbdbc -->
<g id="edge5" class="edge">
<title>dir_53adf0b982dc8545998aae3f283a5a58&#45;&gt;dir_59b1e980a670de987a696efba6dbbdbc</title>
<path fill="none" stroke="#63b8ff" d="M32.19,-125.69C28.67,-113.27 23.69,-89.98 29,-71 31.61,-61.67 36.77,-52.34 41.89,-44.66"/>
<polygon fill="#63b8ff" stroke="#63b8ff" points="44.71,-46.74 47.71,-36.58 39.03,-42.65 44.71,-46.74"/>
<g id="a_edge5&#45;headlabel"><a xlink:href="dir_000001_000005.html" target="_top" xlink:title="8">
<text text-anchor="middle" x="45.79" y="-47.59" font-family="Helvetica,sans-Serif" font-size="10.00" fill="#63b8ff">8</text>
</a>
</g>
</g>
<!-- dir_aebb8dcc11953d78e620bbef0b9e2183&#45;&gt;dir_59b1e980a670de987a696efba6dbbdbc -->
<g id="edge6" class="edge">
<title>dir_aebb8dcc11953d78e620bbef0b9e2183&#45;&gt;dir_59b1e980a670de987a696efba6dbbdbc</title>
<path fill="none" stroke="#63b8ff" d="M56,-70.75C56,-64.27 56,-55.16 56,-46.9"/>
<polygon fill="#63b8ff" stroke="#63b8ff" points="59.5,-46.96 56,-36.96 52.5,-46.96 59.5,-46.96"/>
<g id="a_edge6&#45;headlabel"><a xlink:href="dir_000003_000005.html" target="_top" xlink:title="4">
<text text-anchor="middle" x="62.34" y="-46.54" font-family="Helvetica,sans-Serif" font-size="10.00" fill="#63b8ff">4</text>
</a>
</g>
</g>
</g>
</svg>
