<?xml version="1.0" encoding="UTF-8" standalone="no"?>
<!DOCTYPE svg PUBLIC "-//W3C//DTD SVG 1.1//EN"
 "http://www.w3.org/Graphics/SVG/1.1/DTD/svg11.dtd">
<!-- Generated by graphviz version 12.2.0 (20241103.1931)
 -->
<!-- Title: src/apps Pages: 1 -->
<svg width="560pt" height="142pt"
 viewBox="0.00 0.00 560.00 141.75" xmlns="http://www.w3.org/2000/svg" xmlns:xlink="http://www.w3.org/1999/xlink">
<g id="graph0" class="graph" transform="scale(1 1) rotate(0) translate(4 137.75)">
<title>src/apps</title>
<g id="clust1" class="cluster">
<title>clusterdir_68267d1309a1af8e8297ef4c3efbcdba</title>
<g id="a_clust1"><a xlink:href="dir_68267d1309a1af8e8297ef4c3efbcdba.html" target="_top" xlink:title="src">
<polygon fill="#edf0f7" stroke="#404040" stroke-dasharray="5,2" points="8,-8 8,-125.75 544,-125.75 544,-8 8,-8"/>
<text text-anchor="middle" x="276" y="-112.25" font-family="Helvetica,sans-Serif" font-size="10.00">src</text>
</a>
</g>
</g>
<g id="clust2" class="cluster">
<title>clusterdir_53adf0b982dc8545998aae3f283a5a58</title>
<g id="a_clust2"><a xlink:href="dir_53adf0b982dc8545998aae3f283a5a58.html" target="_top">
<polygon fill="#edf0f7" stroke="#404040" stroke-width="2" points="16,-63.25 16,-98.5 536,-98.5 536,-63.25 16,-63.25"/>
</a>
</g>
</g>
<!-- dir_aebb8dcc11953d78e620bbef0b9e2183 -->
<g id="node1" class="node">
<title>dir_aebb8dcc11953d78e620bbef0b9e2183</title>
<g id="a_node1"><a xlink:href="dir_aebb8dcc11953d78e620bbef0b9e2183.html" target="_top" xlink:title="core">
<polygon fill="#a2b4d6" stroke="red" points="267.38,-35.25 232.62,-35.25 232.62,-16 267.38,-16 267.38,-35.25"/>
<text text-anchor="middle" x="250" y="-21.75" font-family="Helvetica,sans-Serif" font-size="10.00">core</text>
</a>
</g>
</g>
<!-- dir_59b1e980a670de987a696efba6dbbdbc -->
<g id="node2" class="node">
<title>dir_59b1e980a670de987a696efba6dbbdbc</title>
<g id="a_node2"><a xlink:href="dir_59b1e980a670de987a696efba6dbbdbc.html" target="_top" xlink:title="hardware">
<polygon fill="#a2b4d6" stroke="red" points="340.88,-35.25 285.12,-35.25 285.12,-16 340.88,-16 340.88,-35.25"/>
<text text-anchor="middle" x="313" y="-21.75" font-family="Helvetica,sans-Serif" font-size="10.00">hardware</text>
</a>
</g>
</g>
<!-- dir_53adf0b982dc8545998aae3f283a5a58 -->
<g id="node3" class="node">
<title>dir_53adf0b982dc8545998aae3f283a5a58</title>
<text text-anchor="middle" x="43" y="-77" font-family="Helvetica,sans-Serif" font-size="10.00">apps</text>
</g>
<!-- dir_e6ad3259da54d08d07754a1becc76e09 -->
<g id="node4" class="node">
<title>dir_e6ad3259da54d08d07754a1becc76e09</title>
<g id="a_node4"><a xlink:href="dir_e6ad3259da54d08d07754a1becc76e09.html" target="_top" xlink:title="ClockApp">
<polygon fill="#a2b4d6" stroke="#404040" points="311,-90.5 253,-90.5 253,-71.25 311,-71.25 311,-90.5"/>
<text text-anchor="middle" x="282" y="-77" font-family="Helvetica,sans-Serif" font-size="10.00">ClockApp</text>
</a>
</g>
</g>
<!-- dir_e6ad3259da54d08d07754a1becc76e09&#45;&gt;dir_aebb8dcc11953d78e620bbef0b9e2183 -->
<g id="edge2" class="edge">
<title>dir_e6ad3259da54d08d07754a1becc76e09&#45;&gt;dir_aebb8dcc11953d78e620bbef0b9e2183</title>
<g id="a_edge2"><a xlink:href="dir_000003_000004.html" target="_top">
<path fill="none" stroke="#63b8ff" d="M276.72,-71.08C272.53,-64.11 266.52,-54.12 261.27,-45.37"/>
<polygon fill="#63b8ff" stroke="#63b8ff" points="264.33,-43.68 256.18,-36.91 258.33,-47.28 264.33,-43.68"/>
</a>
</g>
<g id="a_edge2&#45;headlabel"><a xlink:href="dir_000003_000004.html" target="_top" xlink:title="2">
<text text-anchor="middle" x="267.84" y="-40.12" font-family="Helvetica,sans-Serif" font-size="10.00" fill="#63b8ff">2</text>
</a>
</g>
</g>
<!-- dir_e6ad3259da54d08d07754a1becc76e09&#45;&gt;dir_59b1e980a670de987a696efba6dbbdbc -->
<g id="edge1" class="edge">
<title>dir_e6ad3259da54d08d07754a1becc76e09&#45;&gt;dir_59b1e980a670de987a696efba6dbbdbc</title>
<g id="a_edge1"><a xlink:href="dir_000003_000008.html" target="_top">
<path fill="none" stroke="#63b8ff" d="M287.12,-71.08C291.18,-64.11 296.99,-54.12 302.09,-45.37"/>
<polygon fill="#63b8ff" stroke="#63b8ff" points="305,-47.32 307.01,-36.92 298.95,-43.8 305,-47.32"/>
</a>
</g>
<g id="a_edge1&#45;headlabel"><a xlink:href="dir_000003_000008.html" target="_top" xlink:title="1">
<text text-anchor="middle" x="306.41" y="-46.67" font-family="Helvetica,sans-Serif" font-size="10.00" fill="#63b8ff">1</text>
</a>
</g>
</g>
<!-- dir_683fcc6bf6e4034b7539b7524f4cb9f9 -->
<g id="node5" class="node">
<title>dir_683fcc6bf6e4034b7539b7524f4cb9f9</title>
<g id="a_node5"><a xlink:href="dir_683fcc6bf6e4034b7539b7524f4cb9f9.html" target="_top" xlink:title="CurrencyConverterApp">
<polygon fill="#a2b4d6" stroke="#404040" points="442.75,-90.5 329.25,-90.5 329.25,-71.25 442.75,-71.25 442.75,-90.5"/>
<text text-anchor="middle" x="386" y="-77" font-family="Helvetica,sans-Serif" font-size="10.00">CurrencyConverterApp</text>
</a>
</g>
</g>
<!-- dir_683fcc6bf6e4034b7539b7524f4cb9f9&#45;&gt;dir_aebb8dcc11953d78e620bbef0b9e2183 -->
<g id="edge4" class="edge">
<title>dir_683fcc6bf6e4034b7539b7524f4cb9f9&#45;&gt;dir_aebb8dcc11953d78e620bbef0b9e2183</title>
<g id="a_edge4"><a xlink:href="dir_000005_000004.html" target="_top">
<path fill="none" stroke="#63b8ff" d="M362.93,-70.84C339.53,-61.68 303.29,-47.49 278.21,-37.67"/>
<polygon fill="#63b8ff" stroke="#63b8ff" points="279.55,-34.43 268.96,-34.05 276.99,-40.95 279.55,-34.43"/>
</a>
</g>
<g id="a_edge4&#45;headlabel"><a xlink:href="dir_000005_000004.html" target="_top" xlink:title="2">
<text text-anchor="middle" x="282.52" y="-28.67" font-family="Helvetica,sans-Serif" font-size="10.00" fill="#63b8ff">2</text>
</a>
</g>
</g>
<!-- dir_683fcc6bf6e4034b7539b7524f4cb9f9&#45;&gt;dir_59b1e980a670de987a696efba6dbbdbc -->
<g id="edge3" class="edge">
<title>dir_683fcc6bf6e4034b7539b7524f4cb9f9&#45;&gt;dir_59b1e980a670de987a696efba6dbbdbc</title>
<g id="a_edge3"><a xlink:href="dir_000005_000008.html" target="_top">
<path fill="none" stroke="#63b8ff" d="M373.62,-70.84C362.85,-62.99 347.03,-51.45 334.25,-42.12"/>
<polygon fill="#63b8ff" stroke="#63b8ff" points="336.56,-39.48 326.42,-36.42 332.44,-45.14 336.56,-39.48"/>
</a>
</g>
<g id="a_edge3&#45;headlabel"><a xlink:href="dir_000005_000008.html" target="_top" xlink:title="1">
<text text-anchor="middle" x="339.92" y="-34.54" font-family="Helvetica,sans-Serif" font-size="10.00" fill="#63b8ff">1</text>
</a>
</g>
</g>
<!-- dir_c3eebdab689fc73e234e24e1b6441548 -->
<g id="node6" class="node">
<title>dir_c3eebdab689fc73e234e24e1b6441548</title>
<g id="a_node6"><a xlink:href="dir_c3eebdab689fc73e234e24e1b6441548.html" target="_top" xlink:title="GooglyEyes">
<polygon fill="#a2b4d6" stroke="#404040" points="527.5,-90.5 460.5,-90.5 460.5,-71.25 527.5,-71.25 527.5,-90.5"/>
<text text-anchor="middle" x="494" y="-77" font-family="Helvetica,sans-Serif" font-size="10.00">GooglyEyes</text>
</a>
</g>
</g>
<!-- dir_c3eebdab689fc73e234e24e1b6441548&#45;&gt;dir_aebb8dcc11953d78e620bbef0b9e2183 -->
<g id="edge6" class="edge">
<title>dir_c3eebdab689fc73e234e24e1b6441548&#45;&gt;dir_aebb8dcc11953d78e620bbef0b9e2183</title>
<g id="a_edge6"><a xlink:href="dir_000007_000004.html" target="_top">
<path fill="none" stroke="#63b8ff" d="M473.8,-70.84C466.98,-68.07 459.26,-65.24 452,-63.25 379.04,-43.27 355.1,-53.02 278.9,-35.6"/>
<polygon fill="#63b8ff" stroke="#63b8ff" points="279.8,-32.21 269.26,-33.3 278.18,-39.02 279.8,-32.21"/>
</a>
</g>
<g id="a_edge6&#45;headlabel"><a xlink:href="dir_000007_000004.html" target="_top" xlink:title="1">
<text text-anchor="middle" x="282.48" y="-26.06" font-family="Helvetica,sans-Serif" font-size="10.00" fill="#63b8ff">1</text>
</a>
</g>
</g>
<!-- dir_c3eebdab689fc73e234e24e1b6441548&#45;&gt;dir_59b1e980a670de987a696efba6dbbdbc -->
<g id="edge5" class="edge">
<title>dir_c3eebdab689fc73e234e24e1b6441548&#45;&gt;dir_59b1e980a670de987a696efba6dbbdbc</title>
<g id="a_edge5"><a xlink:href="dir_000007_000008.html" target="_top">
<path fill="none" stroke="#63b8ff" d="M472.81,-70.92C466.21,-68.28 458.85,-65.5 452,-63.25 418.76,-52.34 380.24,-42.39 352.2,-35.63"/>
<polygon fill="#63b8ff" stroke="#63b8ff" points="353.25,-32.28 342.71,-33.37 351.63,-39.09 353.25,-32.28"/>
</a>
</g>
<g id="a_edge5&#45;headlabel"><a xlink:href="dir_000007_000008.html" target="_top" xlink:title="1">
<text text-anchor="middle" x="355.93" y="-26.13" font-family="Helvetica,sans-Serif" font-size="10.00" fill="#63b8ff">1</text>
</a>
</g>
</g>
<!-- dir_1464269eb44042bfebfb013b34bf5951 -->
<g id="node7" class="node">
<title>dir_1464269eb44042bfebfb013b34bf5951</title>
<g id="a_node7"><a xlink:href="dir_1464269eb44042bfebfb013b34bf5951.html" target="_top" xlink:title="MatrixApp">
<polygon fill="#a2b4d6" stroke="#404040" points="138.75,-90.5 79.25,-90.5 79.25,-71.25 138.75,-71.25 138.75,-90.5"/>
<text text-anchor="middle" x="109" y="-77" font-family="Helvetica,sans-Serif" font-size="10.00">MatrixApp</text>
</a>
</g>
</g>
<!-- dir_1464269eb44042bfebfb013b34bf5951&#45;&gt;dir_aebb8dcc11953d78e620bbef0b9e2183 -->
<g id="edge8" class="edge">
<title>dir_1464269eb44042bfebfb013b34bf5951&#45;&gt;dir_aebb8dcc11953d78e620bbef0b9e2183</title>
<g id="a_edge8"><a xlink:href="dir_000009_000004.html" target="_top">
<path fill="none" stroke="#63b8ff" d="M129.55,-70.85C135.48,-68.32 141.97,-65.62 148,-63.25 172.57,-53.61 200.83,-43.54 221.37,-36.41"/>
<polygon fill="#63b8ff" stroke="#63b8ff" points="222.45,-39.73 230.76,-33.16 220.17,-33.12 222.45,-39.73"/>
</a>
</g>
<g id="a_edge8&#45;headlabel"><a xlink:href="dir_000009_000004.html" target="_top" xlink:title="1">
<text text-anchor="middle" x="221.41" y="-39.22" font-family="Helvetica,sans-Serif" font-size="10.00" fill="#63b8ff">1</text>
</a>
</g>
</g>
<!-- dir_1464269eb44042bfebfb013b34bf5951&#45;&gt;dir_59b1e980a670de987a696efba6dbbdbc -->
<g id="edge7" class="edge">
<title>dir_1464269eb44042bfebfb013b34bf5951&#45;&gt;dir_59b1e980a670de987a696efba6dbbdbc</title>
<g id="a_edge7"><a xlink:href="dir_000009_000008.html" target="_top">
<path fill="none" stroke="#63b8ff" d="M128.17,-70.86C134.4,-68.16 141.41,-65.36 148,-63.25 200.22,-46.57 217.22,-47.85 273.7,-35.69"/>
<polygon fill="#63b8ff" stroke="#63b8ff" points="274.24,-39.16 283.25,-33.58 272.73,-32.32 274.24,-39.16"/>
</a>
</g>
<g id="a_edge7&#45;headlabel"><a xlink:href="dir_000009_000008.html" target="_top" xlink:title="2">
<text text-anchor="middle" x="272.82" y="-38.5" font-family="Helvetica,sans-Serif" font-size="10.00" fill="#63b8ff">2</text>
</a>
</g>
</g>
<!-- dir_2c1da89830bcf7ef891ce242d953faa8 -->
<g id="node8" class="node">
<title>dir_2c1da89830bcf7ef891ce242d953faa8</title>
<g id="a_node8"><a xlink:href="dir_2c1da89830bcf7ef891ce242d953faa8.html" target="_top" xlink:title="PomodoroApp">
<polygon fill="#a2b4d6" stroke="#404040" points="234.75,-90.5 157.25,-90.5 157.25,-71.25 234.75,-71.25 234.75,-90.5"/>
<text text-anchor="middle" x="196" y="-77" font-family="Helvetica,sans-Serif" font-size="10.00">PomodoroApp</text>
</a>
</g>
</g>
<!-- dir_2c1da89830bcf7ef891ce242d953faa8&#45;&gt;dir_aebb8dcc11953d78e620bbef0b9e2183 -->
<g id="edge10" class="edge">
<title>dir_2c1da89830bcf7ef891ce242d953faa8&#45;&gt;dir_aebb8dcc11953d78e620bbef0b9e2183</title>
<g id="a_edge10"><a xlink:href="dir_000011_000004.html" target="_top">
<path fill="none" stroke="#63b8ff" d="M204.92,-71.08C212.45,-63.65 223.47,-52.79 232.73,-43.66"/>
<polygon fill="#63b8ff" stroke="#63b8ff" points="235.15,-46.19 239.81,-36.67 230.23,-41.2 235.15,-46.19"/>
</a>
</g>
<g id="a_edge10&#45;headlabel"><a xlink:href="dir_000011_000004.html" target="_top" xlink:title="1">
<text text-anchor="middle" x="235.66" y="-45.79" font-family="Helvetica,sans-Serif" font-size="10.00" fill="#63b8ff">1</text>
</a>
</g>
</g>
<!-- dir_2c1da89830bcf7ef891ce242d953faa8&#45;&gt;dir_59b1e980a670de987a696efba6dbbdbc -->
<g id="edge9" class="edge">
<title>dir_2c1da89830bcf7ef891ce242d953faa8&#45;&gt;dir_59b1e980a670de987a696efba6dbbdbc</title>
<g id="a_edge9"><a xlink:href="dir_000011_000008.html" target="_top">
<path fill="none" stroke="#63b8ff" d="M215.85,-70.84C234.17,-62.5 261.65,-50 282.71,-40.41"/>
<polygon fill="#63b8ff" stroke="#63b8ff" points="284.03,-43.66 291.68,-36.33 281.13,-37.29 284.03,-43.66"/>
</a>
</g>
<g id="a_edge9&#45;headlabel"><a xlink:href="dir_000011_000008.html" target="_top" xlink:title="1">
<text text-anchor="middle" x="283.31" y="-43.23" font-family="Helvetica,sans-Serif" font-size="10.00" fill="#63b8ff">1</text>
</a>
</g>
</g>
</g>
</svg>
