<?xml version="1.0" encoding="UTF-8" standalone="no"?>
<!DOCTYPE svg PUBLIC "-//W3C//DTD SVG 1.1//EN"
 "http://www.w3.org/Graphics/SVG/1.1/DTD/svg11.dtd">
<!-- Generated by graphviz version 7.0.5 (20221223.1930)
 -->
<!-- Title: src/apps Pages: 1 -->
<svg width="354pt" height="141pt"
 viewBox="0.00 0.00 354.00 141.00" xmlns="http://www.w3.org/2000/svg" xmlns:xlink="http://www.w3.org/1999/xlink">
<g id="graph0" class="graph" transform="scale(1 1) rotate(0) translate(4 137)">
<title>src/apps</title>
<g id="clust1" class="cluster">
<title>clusterdir_68267d1309a1af8e8297ef4c3efbcdba</title>
<g id="a_clust1"><a xlink:href="dir_68267d1309a1af8e8297ef4c3efbcdba.html" target="_top" xlink:title="src">
<polygon fill="#edf0f7" stroke="#404040" stroke-dasharray="5,2" points="8,-8 8,-125 338,-125 338,-8 8,-8"/>
<text text-anchor="middle" x="173" y="-113" font-family="Helvetica,sans-Serif" font-size="10.00">src</text>
</a>
</g>
</g>
<g id="clust2" class="cluster">
<title>clusterdir_53adf0b982dc8545998aae3f283a5a58</title>
<g id="a_clust2"><a xlink:href="dir_53adf0b982dc8545998aae3f283a5a58.html" target="_top">
<polygon fill="#edf0f7" stroke="#404040" stroke-width="2" points="16,-63 16,-98 330,-98 330,-63 16,-63"/>
</a>
</g>
</g>
<!-- dir_aebb8dcc11953d78e620bbef0b9e2183 -->
<g id="node1" class="node">
<title>dir_aebb8dcc11953d78e620bbef0b9e2183</title>
<g id="a_node1"><a xlink:href="dir_aebb8dcc11953d78e620bbef0b9e2183.html" target="_top" xlink:title="core">
<polygon fill="#a2b4d6" stroke="red" points="126.5,-35 91.5,-35 91.5,-16 126.5,-16 126.5,-35"/>
<text text-anchor="middle" x="109" y="-23" font-family="Helvetica,sans-Serif" font-size="10.00">core</text>
</a>
</g>
</g>
<!-- dir_59b1e980a670de987a696efba6dbbdbc -->
<g id="node2" class="node">
<title>dir_59b1e980a670de987a696efba6dbbdbc</title>
<g id="a_node2"><a xlink:href="dir_59b1e980a670de987a696efba6dbbdbc.html" target="_top" xlink:title="hardware">
<polygon fill="#a2b4d6" stroke="#404040" points="201,-35 145,-35 145,-16 201,-16 201,-35"/>
<text text-anchor="middle" x="173" y="-23" font-family="Helvetica,sans-Serif" font-size="10.00">hardware</text>
</a>
</g>
</g>
<!-- dir_53adf0b982dc8545998aae3f283a5a58 -->
<g id="node3" class="node">
<title>dir_53adf0b982dc8545998aae3f283a5a58</title>
<text text-anchor="middle" x="303" y="-78" font-family="Helvetica,sans-Serif" font-size="10.00">apps</text>
</g>
<!-- dir_e6ad3259da54d08d07754a1becc76e09 -->
<g id="node4" class="node">
<title>dir_e6ad3259da54d08d07754a1becc76e09</title>
<g id="a_node4"><a xlink:href="dir_e6ad3259da54d08d07754a1becc76e09.html" target="_top" xlink:title="ClockApp">
<polygon fill="#a2b4d6" stroke="#404040" points="83.5,-90 24.5,-90 24.5,-71 83.5,-71 83.5,-90"/>
<text text-anchor="middle" x="54" y="-78" font-family="Helvetica,sans-Serif" font-size="10.00">ClockApp</text>
</a>
</g>
</g>
<!-- dir_e6ad3259da54d08d07754a1becc76e09&#45;&gt;dir_aebb8dcc11953d78e620bbef0b9e2183 -->
<g id="edge2" class="edge">
<title>dir_e6ad3259da54d08d07754a1becc76e09&#45;&gt;dir_aebb8dcc11953d78e620bbef0b9e2183</title>
<path fill="none" stroke="#63b8ff" d="M63.08,-70.75C70.84,-63.27 82.21,-52.32 91.7,-43.17"/>
<polygon fill="#63b8ff" stroke="#63b8ff" points="93.86,-45.95 98.63,-36.49 89,-40.91 93.86,-45.95"/>
<g id="a_edge2&#45;headlabel"><a xlink:href="dir_000002_000003.html" target="_top" xlink:title="2">
<text text-anchor="middle" x="94.33" y="-46.94" font-family="Helvetica,sans-Serif" font-size="10.00" fill="#63b8ff">2</text>
</a>
</g>
</g>
<!-- dir_e6ad3259da54d08d07754a1becc76e09&#45;&gt;dir_59b1e980a670de987a696efba6dbbdbc -->
<g id="edge1" class="edge">
<title>dir_e6ad3259da54d08d07754a1becc76e09&#45;&gt;dir_59b1e980a670de987a696efba6dbbdbc</title>
<path fill="none" stroke="#63b8ff" d="M74.19,-70.51C93.02,-62.12 121.37,-49.5 142.87,-39.92"/>
<polygon fill="#63b8ff" stroke="#63b8ff" points="144.02,-43.24 151.73,-35.97 141.17,-36.85 144.02,-43.24"/>
<g id="a_edge1&#45;headlabel"><a xlink:href="dir_000002_000005.html" target="_top" xlink:title="3">
<text text-anchor="middle" x="143.27" y="-44.18" font-family="Helvetica,sans-Serif" font-size="10.00" fill="#63b8ff">3</text>
</a>
</g>
</g>
<!-- dir_c3eebdab689fc73e234e24e1b6441548 -->
<g id="node5" class="node">
<title>dir_c3eebdab689fc73e234e24e1b6441548</title>
<g id="a_node5"><a xlink:href="dir_c3eebdab689fc73e234e24e1b6441548.html" target="_top" xlink:title="GooglyEyes">
<polygon fill="#a2b4d6" stroke="#404040" points="266,-90 198,-90 198,-71 266,-71 266,-90"/>
<text text-anchor="middle" x="232" y="-78" font-family="Helvetica,sans-Serif" font-size="10.00">GooglyEyes</text>
</a>
</g>
</g>
<!-- dir_c3eebdab689fc73e234e24e1b6441548&#45;&gt;dir_aebb8dcc11953d78e620bbef0b9e2183 -->
<g id="edge4" class="edge">
<title>dir_c3eebdab689fc73e234e24e1b6441548&#45;&gt;dir_aebb8dcc11953d78e620bbef0b9e2183</title>
<path fill="none" stroke="#63b8ff" d="M211.13,-70.51C190.75,-61.73 159.6,-48.3 137.06,-38.59"/>
<polygon fill="#63b8ff" stroke="#63b8ff" points="138.73,-35.5 128.16,-34.76 135.96,-41.93 138.73,-35.5"/>
<g id="a_edge4&#45;headlabel"><a xlink:href="dir_000004_000003.html" target="_top" xlink:title="1">
<text text-anchor="middle" x="141.76" y="-31.21" font-family="Helvetica,sans-Serif" font-size="10.00" fill="#63b8ff">1</text>
</a>
</g>
</g>
<!-- dir_c3eebdab689fc73e234e24e1b6441548&#45;&gt;dir_59b1e980a670de987a696efba6dbbdbc -->
<g id="edge3" class="edge">
<title>dir_c3eebdab689fc73e234e24e1b6441548&#45;&gt;dir_59b1e980a670de987a696efba6dbbdbc</title>
<path fill="none" stroke="#63b8ff" d="M221.99,-70.51C213.63,-63 201.5,-52.1 191.4,-43.03"/>
<polygon fill="#63b8ff" stroke="#63b8ff" points="193.76,-40.45 183.99,-36.37 189.09,-45.66 193.76,-40.45"/>
<g id="a_edge3&#45;headlabel"><a xlink:href="dir_000004_000005.html" target="_top" xlink:title="2">
<text text-anchor="middle" x="197.21" y="-37.23" font-family="Helvetica,sans-Serif" font-size="10.00" fill="#63b8ff">2</text>
</a>
</g>
</g>
<!-- dir_2c1da89830bcf7ef891ce242d953faa8 -->
<g id="node6" class="node">
<title>dir_2c1da89830bcf7ef891ce242d953faa8</title>
<g id="a_node6"><a xlink:href="dir_2c1da89830bcf7ef891ce242d953faa8.html" target="_top" xlink:title="PomodoroApp">
<polygon fill="#a2b4d6" stroke="#404040" points="180,-90 102,-90 102,-71 180,-71 180,-90"/>
<text text-anchor="middle" x="141" y="-78" font-family="Helvetica,sans-Serif" font-size="10.00">PomodoroApp</text>
</a>
</g>
</g>
<!-- dir_2c1da89830bcf7ef891ce242d953faa8&#45;&gt;dir_aebb8dcc11953d78e620bbef0b9e2183 -->
<g id="edge6" class="edge">
<title>dir_2c1da89830bcf7ef891ce242d953faa8&#45;&gt;dir_aebb8dcc11953d78e620bbef0b9e2183</title>
<path fill="none" stroke="#63b8ff" d="M135.72,-70.75C131.53,-63.81 125.52,-53.86 120.27,-45.16"/>
<polygon fill="#63b8ff" stroke="#63b8ff" points="123.35,-43.49 115.18,-36.74 117.35,-47.11 123.35,-43.49"/>
<g id="a_edge6&#45;headlabel"><a xlink:href="dir_000006_000003.html" target="_top" xlink:title="1">
<text text-anchor="middle" x="126.85" y="-41.3" font-family="Helvetica,sans-Serif" font-size="10.00" fill="#63b8ff">1</text>
</a>
</g>
</g>
<!-- dir_2c1da89830bcf7ef891ce242d953faa8&#45;&gt;dir_59b1e980a670de987a696efba6dbbdbc -->
<g id="edge5" class="edge">
<title>dir_2c1da89830bcf7ef891ce242d953faa8&#45;&gt;dir_59b1e980a670de987a696efba6dbbdbc</title>
<path fill="none" stroke="#63b8ff" d="M146.28,-70.75C150.47,-63.81 156.48,-53.86 161.73,-45.16"/>
<polygon fill="#63b8ff" stroke="#63b8ff" points="164.65,-47.11 166.82,-36.74 158.65,-43.49 164.65,-47.11"/>
<g id="a_edge5&#45;headlabel"><a xlink:href="dir_000006_000005.html" target="_top" xlink:title="3">
<text text-anchor="middle" x="166" y="-47.86" font-family="Helvetica,sans-Serif" font-size="10.00" fill="#63b8ff">3</text>
</a>
</g>
</g>
</g>
</svg>
