<?xml version="1.0" encoding="UTF-8" standalone="no"?>
<!DOCTYPE svg PUBLIC "-//W3C//DTD SVG 1.1//EN"
 "http://www.w3.org/Graphics/SVG/1.1/DTD/svg11.dtd">
<!-- Generated by graphviz version 12.1.2 (0)
 -->
<!-- Title: src/hardware/Display.cpp Pages: 1 -->
<svg width="152pt" height="136pt"
 viewBox="0.00 0.00 151.88 135.50" xmlns="http://www.w3.org/2000/svg" xmlns:xlink="http://www.w3.org/1999/xlink">
<g id="graph0" class="graph" transform="scale(1 1) rotate(0) translate(4 131.5)">
<title>src/hardware/Display.cpp</title>
<!-- Node1 -->
<g id="Node000001" class="node">
<title>Node1</title>
<g id="a_Node000001"><a xlink:title=" ">
<polygon fill="#999999" stroke="#666666" points="131.38,-127.5 5.88,-127.5 5.88,-109 131.38,-109 131.38,-127.5"/>
<text text-anchor="middle" x="68.62" y="-114" font-family="Helvetica,sans-Serif" font-size="10.00">src/hardware/Display.cpp</text>
</a>
</g>
</g>
<!-- Node2 -->
<g id="Node000002" class="node">
<title>Node2</title>
<g id="a_Node000002"><a xlink:href="Display_8h.html" target="_top" xlink:title=" ">
<polygon fill="white" stroke="#666666" points="96.88,-73 40.38,-73 40.38,-54.5 96.88,-54.5 96.88,-73"/>
<text text-anchor="middle" x="68.62" y="-59.5" font-family="Helvetica,sans-Serif" font-size="10.00">Display.h</text>
</a>
</g>
</g>
<!-- Node1&#45;&gt;Node2 -->
<g id="edge1_Node000001_Node000002" class="edge">
<title>Node1&#45;&gt;Node2</title>
<g id="a_edge1_Node000001_Node000002"><a xlink:title=" ">
<path fill="none" stroke="#63b8ff" d="M68.62,-108.58C68.62,-102.08 68.62,-92.92 68.62,-84.66"/>
<polygon fill="#63b8ff" stroke="#63b8ff" points="72.13,-84.77 68.63,-74.77 65.13,-84.77 72.13,-84.77"/>
</a>
</g>
</g>
<!-- Node3 -->
<g id="Node000003" class="node">
<title>Node3</title>
<g id="a_Node000003"><a xlink:title=" ">
<polygon fill="#e0e0e0" stroke="#999999" points="57.25,-18.5 0,-18.5 0,0 57.25,0 57.25,-18.5"/>
<text text-anchor="middle" x="28.62" y="-5" font-family="Helvetica,sans-Serif" font-size="10.00">Arduino.h</text>
</a>
</g>
</g>
<!-- Node2&#45;&gt;Node3 -->
<g id="edge2_Node000002_Node000003" class="edge">
<title>Node2&#45;&gt;Node3</title>
<g id="a_edge2_Node000002_Node000003"><a xlink:title=" ">
<path fill="none" stroke="#63b8ff" d="M62.02,-54.08C56.6,-46.97 48.76,-36.68 42.03,-27.85"/>
<polygon fill="#63b8ff" stroke="#63b8ff" points="44.87,-25.8 36.02,-19.96 39.3,-30.04 44.87,-25.8"/>
</a>
</g>
</g>
<!-- Node4 -->
<g id="Node000004" class="node">
<title>Node4</title>
<g id="a_Node000004"><a xlink:title=" ">
<polygon fill="#e0e0e0" stroke="#999999" points="143.88,-18.5 75.38,-18.5 75.38,0 143.88,0 143.88,-18.5"/>
<text text-anchor="middle" x="109.62" y="-5" font-family="Helvetica,sans-Serif" font-size="10.00">TFT_eSPI.h</text>
</a>
</g>
</g>
<!-- Node2&#45;&gt;Node4 -->
<g id="edge3_Node000002_Node000004" class="edge">
<title>Node2&#45;&gt;Node4</title>
<g id="a_edge3_Node000002_Node000004"><a xlink:title=" ">
<path fill="none" stroke="#63b8ff" d="M75.4,-54.08C81.01,-46.89 89.16,-36.45 96.1,-27.57"/>
<polygon fill="#63b8ff" stroke="#63b8ff" points="98.65,-29.99 102.05,-19.95 93.14,-25.68 98.65,-29.99"/>
</a>
</g>
</g>
</g>
</svg>
