<?xml version="1.0" encoding="UTF-8" standalone="no"?>
<!DOCTYPE svg PUBLIC "-//W3C//DTD SVG 1.1//EN"
 "http://www.w3.org/Graphics/SVG/1.1/DTD/svg11.dtd">
<!-- Generated by graphviz version 12.2.0 (20241103.1931)
 -->
<!-- Title: src/hardware/Display.h Pages: 1 -->
<svg width="920pt" height="94pt"
 viewBox="0.00 0.00 919.50 93.75" xmlns="http://www.w3.org/2000/svg" xmlns:xlink="http://www.w3.org/1999/xlink">
<g id="graph0" class="graph" transform="scale(1 1) rotate(0) translate(4 89.75)">
<title>src/hardware/Display.h</title>
<!-- Node1 -->
<g id="Node000001" class="node">
<title>Node1</title>
<g id="a_Node000001"><a xlink:title=" ">
<polygon fill="#999999" stroke="#666666" points="554.88,-85.75 440.62,-85.75 440.62,-66.5 554.88,-66.5 554.88,-85.75"/>
<text text-anchor="middle" x="497.75" y="-72.25" font-family="Helvetica,sans-Serif" font-size="10.00">src/hardware/Display.h</text>
</a>
</g>
</g>
<!-- Node2 -->
<g id="Node000002" class="node">
<title>Node2</title>
<g id="a_Node000002"><a xlink:href="ClockApp_8cpp.html" target="_top" xlink:title=" ">
<polygon fill="white" stroke="#666666" points="161.5,-24.88 0,-24.88 0,-5.63 161.5,-5.63 161.5,-24.88"/>
<text text-anchor="middle" x="80.75" y="-11.38" font-family="Helvetica,sans-Serif" font-size="10.00">src/apps/ClockApp/ClockApp.cpp</text>
</a>
</g>
</g>
<!-- Node1&#45;&gt;Node2 -->
<g id="edge1_Node000001_Node000002" class="edge">
<title>Node1&#45;&gt;Node2</title>
<g id="a_edge1_Node000001_Node000002"><a xlink:title=" ">
<path fill="none" stroke="#63b8ff" d="M429.29,-66.22C363.09,-57.5 259.97,-43.65 170.75,-30.5 159.79,-28.89 148.1,-27.09 136.89,-25.33"/>
<polygon fill="#63b8ff" stroke="#63b8ff" points="428.53,-69.65 438.9,-67.48 429.44,-62.71 428.53,-69.65"/>
</a>
</g>
</g>
<!-- Node3 -->
<g id="Node000003" class="node">
<title>Node3</title>
<g id="a_Node000003"><a xlink:href="GooglyEyes_8cpp.html" target="_top" xlink:title=" ">
<polygon fill="white" stroke="#666666" points="287.5,-30.5 180,-30.5 180,0 287.5,0 287.5,-30.5"/>
<text text-anchor="start" x="188" y="-17" font-family="Helvetica,sans-Serif" font-size="10.00">src/apps/GooglyEyes</text>
<text text-anchor="middle" x="233.75" y="-5.75" font-family="Helvetica,sans-Serif" font-size="10.00">/GooglyEyes.cpp</text>
</a>
</g>
</g>
<!-- Node1&#45;&gt;Node3 -->
<g id="edge2_Node000001_Node000003" class="edge">
<title>Node1&#45;&gt;Node3</title>
<g id="a_edge2_Node000001_Node000003"><a xlink:title=" ">
<path fill="none" stroke="#63b8ff" d="M445.32,-63.54C404.75,-54.57 347.18,-41.8 296.75,-30.5 293.8,-29.84 290.76,-29.16 287.7,-28.47"/>
<polygon fill="#63b8ff" stroke="#63b8ff" points="444.55,-66.96 455.07,-65.7 446.06,-60.12 444.55,-66.96"/>
</a>
</g>
</g>
<!-- Node4 -->
<g id="Node000004" class="node">
<title>Node4</title>
<g id="a_Node000004"><a xlink:href="PomodoroApp_8cpp.html" target="_top" xlink:title=" ">
<polygon fill="white" stroke="#666666" points="423.75,-30.5 305.75,-30.5 305.75,0 423.75,0 423.75,-30.5"/>
<text text-anchor="start" x="313.75" y="-17" font-family="Helvetica,sans-Serif" font-size="10.00">src/apps/PomodoroApp</text>
<text text-anchor="middle" x="364.75" y="-5.75" font-family="Helvetica,sans-Serif" font-size="10.00">/PomodoroApp.cpp</text>
</a>
</g>
</g>
<!-- Node1&#45;&gt;Node4 -->
<g id="edge3_Node000001_Node000004" class="edge">
<title>Node1&#45;&gt;Node4</title>
<g id="a_edge3_Node000001_Node000004"><a xlink:title=" ">
<path fill="none" stroke="#63b8ff" d="M466.83,-61.44C446.18,-52.3 419.05,-40.29 397.95,-30.94"/>
<polygon fill="#63b8ff" stroke="#63b8ff" points="465.32,-64.59 475.88,-65.44 468.15,-58.19 465.32,-64.59"/>
</a>
</g>
</g>
<!-- Node5 -->
<g id="Node000005" class="node">
<title>Node5</title>
<g id="a_Node000005"><a xlink:href="AppLauncher_8cpp.html" target="_top" xlink:title=" ">
<polygon fill="white" stroke="#666666" points="553.75,-30.5 441.75,-30.5 441.75,0 553.75,0 553.75,-30.5"/>
<text text-anchor="start" x="449.75" y="-17" font-family="Helvetica,sans-Serif" font-size="10.00">src/core/AppLauncher</text>
<text text-anchor="middle" x="497.75" y="-5.75" font-family="Helvetica,sans-Serif" font-size="10.00">/AppLauncher.cpp</text>
</a>
</g>
</g>
<!-- Node1&#45;&gt;Node5 -->
<g id="edge4_Node000001_Node000005" class="edge">
<title>Node1&#45;&gt;Node5</title>
<g id="a_edge4_Node000001_Node000005"><a xlink:title=" ">
<path fill="none" stroke="#63b8ff" d="M497.75,-54.92C497.75,-46.99 497.75,-38.06 497.75,-30.78"/>
<polygon fill="#63b8ff" stroke="#63b8ff" points="494.25,-54.67 497.75,-64.67 501.25,-54.67 494.25,-54.67"/>
</a>
</g>
</g>
<!-- Node6 -->
<g id="Node000006" class="node">
<title>Node6</title>
<g id="a_Node000006"><a xlink:href="SettingsApp_8cpp.html" target="_top" xlink:title=" ">
<polygon fill="white" stroke="#666666" points="679.5,-30.5 572,-30.5 572,0 679.5,0 679.5,-30.5"/>
<text text-anchor="start" x="580" y="-17" font-family="Helvetica,sans-Serif" font-size="10.00">src/core/SettingsApp</text>
<text text-anchor="middle" x="625.75" y="-5.75" font-family="Helvetica,sans-Serif" font-size="10.00">/SettingsApp.cpp</text>
</a>
</g>
</g>
<!-- Node1&#45;&gt;Node6 -->
<g id="edge5_Node000001_Node000006" class="edge">
<title>Node1&#45;&gt;Node6</title>
<g id="a_edge5_Node000001_Node000006"><a xlink:title=" ">
<path fill="none" stroke="#63b8ff" d="M527.78,-61.31C547.62,-52.19 573.59,-40.24 593.8,-30.94"/>
<polygon fill="#63b8ff" stroke="#63b8ff" points="526.47,-58.06 518.84,-65.42 529.39,-64.42 526.47,-58.06"/>
</a>
</g>
</g>
<!-- Node7 -->
<g id="Node000007" class="node">
<title>Node7</title>
<g id="a_Node000007"><a xlink:href="Display_8cpp.html" target="_top" xlink:title=" ">
<polygon fill="white" stroke="#666666" points="822.12,-24.88 697.38,-24.88 697.38,-5.63 822.12,-5.63 822.12,-24.88"/>
<text text-anchor="middle" x="759.75" y="-11.38" font-family="Helvetica,sans-Serif" font-size="10.00">src/hardware/Display.cpp</text>
</a>
</g>
</g>
<!-- Node1&#45;&gt;Node7 -->
<g id="edge6_Node000001_Node000007" class="edge">
<title>Node1&#45;&gt;Node7</title>
<g id="a_edge6_Node000001_Node000007"><a xlink:title=" ">
<path fill="none" stroke="#63b8ff" d="M549.29,-63.54C599.13,-52.34 673.64,-35.6 719.34,-25.33"/>
<polygon fill="#63b8ff" stroke="#63b8ff" points="548.58,-60.12 539.59,-65.72 550.11,-66.95 548.58,-60.12"/>
</a>
</g>
</g>
<!-- Node8 -->
<g id="Node000008" class="node">
<title>Node8</title>
<g id="a_Node000008"><a xlink:href="main_8cpp.html" target="_top" xlink:title=" ">
<polygon fill="white" stroke="#666666" points="911.5,-24.88 840,-24.88 840,-5.63 911.5,-5.63 911.5,-24.88"/>
<text text-anchor="middle" x="875.75" y="-11.38" font-family="Helvetica,sans-Serif" font-size="10.00">src/main.cpp</text>
</a>
</g>
</g>
<!-- Node1&#45;&gt;Node8 -->
<g id="edge7_Node000001_Node000008" class="edge">
<title>Node1&#45;&gt;Node8</title>
<g id="a_edge7_Node000001_Node000008"><a xlink:title=" ">
<path fill="none" stroke="#63b8ff" d="M566.51,-69.42C634.27,-62.98 740.48,-50.68 830.75,-30.5 836.99,-29.11 843.6,-27.24 849.78,-25.31"/>
<polygon fill="#63b8ff" stroke="#63b8ff" points="566.28,-65.93 556.65,-70.34 566.93,-72.9 566.28,-65.93"/>
</a>
</g>
</g>
</g>
</svg>
