<?xml version="1.0" encoding="UTF-8" standalone="no"?>
<!DOCTYPE svg PUBLIC "-//W3C//DTD SVG 1.1//EN"
 "http://www.w3.org/Graphics/SVG/1.1/DTD/svg11.dtd">
<!-- Generated by graphviz version 12.1.2 (0)
 -->
<!-- Title: src/hardware/Display.h Pages: 1 -->
<svg width="152pt" height="81pt"
 viewBox="0.00 0.00 151.88 81.00" xmlns="http://www.w3.org/2000/svg" xmlns:xlink="http://www.w3.org/1999/xlink">
<g id="graph0" class="graph" transform="scale(1 1) rotate(0) translate(4 77)">
<title>src/hardware/Display.h</title>
<!-- Node1 -->
<g id="Node000001" class="node">
<title>Node1</title>
<g id="a_Node000001"><a xlink:title=" ">
<polygon fill="#999999" stroke="#666666" points="126.12,-73 11.12,-73 11.12,-54.5 126.12,-54.5 126.12,-73"/>
<text text-anchor="middle" x="68.62" y="-59.5" font-family="Helvetica,sans-Serif" font-size="10.00">src/hardware/Display.h</text>
</a>
</g>
</g>
<!-- Node2 -->
<g id="Node000002" class="node">
<title>Node2</title>
<g id="a_Node000002"><a xlink:title=" ">
<polygon fill="#e0e0e0" stroke="#999999" points="57.25,-18.5 0,-18.5 0,0 57.25,0 57.25,-18.5"/>
<text text-anchor="middle" x="28.62" y="-5" font-family="Helvetica,sans-Serif" font-size="10.00">Arduino.h</text>
</a>
</g>
</g>
<!-- Node1&#45;&gt;Node2 -->
<g id="edge1_Node000001_Node000002" class="edge">
<title>Node1&#45;&gt;Node2</title>
<g id="a_edge1_Node000001_Node000002"><a xlink:title=" ">
<path fill="none" stroke="#63b8ff" d="M62.02,-54.08C56.6,-46.97 48.76,-36.68 42.03,-27.85"/>
<polygon fill="#63b8ff" stroke="#63b8ff" points="44.87,-25.8 36.02,-19.96 39.3,-30.04 44.87,-25.8"/>
</a>
</g>
</g>
<!-- Node3 -->
<g id="Node000003" class="node">
<title>Node3</title>
<g id="a_Node000003"><a xlink:title=" ">
<polygon fill="#e0e0e0" stroke="#999999" points="143.88,-18.5 75.38,-18.5 75.38,0 143.88,0 143.88,-18.5"/>
<text text-anchor="middle" x="109.62" y="-5" font-family="Helvetica,sans-Serif" font-size="10.00">TFT_eSPI.h</text>
</a>
</g>
</g>
<!-- Node1&#45;&gt;Node3 -->
<g id="edge2_Node000001_Node000003" class="edge">
<title>Node1&#45;&gt;Node3</title>
<g id="a_edge2_Node000001_Node000003"><a xlink:title=" ">
<path fill="none" stroke="#63b8ff" d="M75.4,-54.08C81.01,-46.89 89.16,-36.45 96.1,-27.57"/>
<polygon fill="#63b8ff" stroke="#63b8ff" points="98.65,-29.99 102.05,-19.95 93.14,-25.68 98.65,-29.99"/>
</a>
</g>
</g>
</g>
</svg>
