<?xml version="1.0" encoding="UTF-8" standalone="no"?>
<!DOCTYPE svg PUBLIC "-//W3C//DTD SVG 1.1//EN"
 "http://www.w3.org/Graphics/SVG/1.1/DTD/svg11.dtd">
<!-- Generated by graphviz version 12.2.0 (20241103.1931)
 -->
<!-- Title: src/hardware/Display/Display.h Pages: 1 -->
<svg width="152pt" height="94pt"
 viewBox="0.00 0.00 151.50 93.75" xmlns="http://www.w3.org/2000/svg" xmlns:xlink="http://www.w3.org/1999/xlink">
<g id="graph0" class="graph" transform="scale(1 1) rotate(0) translate(4 89.75)">
<title>src/hardware/Display/Display.h</title>
<!-- Node1 -->
<g id="Node000001" class="node">
<title>Node1</title>
<g id="a_Node000001"><a xlink:title=" ">
<polygon fill="#999999" stroke="#666666" points="121.62,-85.75 14.88,-85.75 14.88,-55.25 121.62,-55.25 121.62,-85.75"/>
<text text-anchor="start" x="22.88" y="-72.25" font-family="Helvetica,sans-Serif" font-size="10.00">src/hardware/Display</text>
<text text-anchor="middle" x="68.25" y="-61" font-family="Helvetica,sans-Serif" font-size="10.00">/Display.h</text>
</a>
</g>
</g>
<!-- Node2 -->
<g id="Node000002" class="node">
<title>Node2</title>
<g id="a_Node000002"><a xlink:title=" ">
<polygon fill="#e0e0e0" stroke="#999999" points="56.5,-19.25 0,-19.25 0,0 56.5,0 56.5,-19.25"/>
<text text-anchor="middle" x="28.25" y="-5.75" font-family="Helvetica,sans-Serif" font-size="10.00">Arduino.h</text>
</a>
</g>
</g>
<!-- Node1&#45;&gt;Node2 -->
<g id="edge1_Node000001_Node000002" class="edge">
<title>Node1&#45;&gt;Node2</title>
<g id="a_edge1_Node000001_Node000002"><a xlink:title=" ">
<path fill="none" stroke="#63b8ff" d="M58.36,-54.95C53.03,-47.1 46.4,-37.35 40.72,-28.99"/>
<polygon fill="#63b8ff" stroke="#63b8ff" points="43.78,-27.26 35.27,-20.95 37.99,-31.19 43.78,-27.26"/>
</a>
</g>
</g>
<!-- Node3 -->
<g id="Node000003" class="node">
<title>Node3</title>
<g id="a_Node000003"><a xlink:title=" ">
<polygon fill="#e0e0e0" stroke="#999999" points="143.5,-19.25 75,-19.25 75,0 143.5,0 143.5,-19.25"/>
<text text-anchor="middle" x="109.25" y="-5.75" font-family="Helvetica,sans-Serif" font-size="10.00">TFT_eSPI.h</text>
</a>
</g>
</g>
<!-- Node1&#45;&gt;Node3 -->
<g id="edge2_Node000001_Node000003" class="edge">
<title>Node1&#45;&gt;Node3</title>
<g id="a_edge2_Node000001_Node000003"><a xlink:title=" ">
<path fill="none" stroke="#63b8ff" d="M78.38,-54.95C83.85,-47.1 90.64,-37.35 96.46,-28.99"/>
<polygon fill="#63b8ff" stroke="#63b8ff" points="99.22,-31.15 102.06,-20.94 93.48,-27.15 99.22,-31.15"/>
</a>
</g>
</g>
</g>
</svg>
