<?xml version="1.0" encoding="UTF-8" standalone="no"?>
<!DOCTYPE svg PUBLIC "-//W3C//DTD SVG 1.1//EN"
 "http://www.w3.org/Graphics/SVG/1.1/DTD/svg11.dtd">
<!-- Generated by graphviz version 7.0.5 (20221223.1930)
 -->
<!-- Title: src/hardware/Display.h Pages: 1 -->
<svg width="925pt" height="93pt"
 viewBox="0.00 0.00 925.00 93.00" xmlns="http://www.w3.org/2000/svg" xmlns:xlink="http://www.w3.org/1999/xlink">
<g id="graph0" class="graph" transform="scale(1 1) rotate(0) translate(4 89)">
<title>src/hardware/Display.h</title>
<!-- Node1 -->
<g id="node1" class="node">
<title>Node1</title>
<g id="a_node1"><a xlink:title=" ">
<polygon fill="#999999" stroke="#666666" points="557.5,-85 442.5,-85 442.5,-66 557.5,-66 557.5,-85"/>
<text text-anchor="middle" x="500" y="-73" font-family="Helvetica,sans-Serif" font-size="10.00">src/hardware/Display.h</text>
</a>
</g>
</g>
<!-- Node2 -->
<g id="node2" class="node">
<title>Node2</title>
<g id="a_node2"><a xlink:href="ClockApp_8cpp.html" target="_top" xlink:title=" ">
<polygon fill="white" stroke="#666666" points="162,-24.5 0,-24.5 0,-5.5 162,-5.5 162,-24.5"/>
<text text-anchor="middle" x="81" y="-12.5" font-family="Helvetica,sans-Serif" font-size="10.00">src/apps/ClockApp/ClockApp.cpp</text>
</a>
</g>
</g>
<!-- Node1&#45;&gt;Node2 -->
<g id="edge1" class="edge">
<title>Node1&#45;&gt;Node2</title>
<path fill="none" stroke="#63b8ff" d="M430.83,-65.55C364.21,-56.83 260.64,-43.03 171,-30 160.2,-28.43 148.69,-26.69 137.63,-24.98"/>
<polygon fill="#63b8ff" stroke="#63b8ff" points="430.14,-68.99 440.51,-66.81 431.04,-62.05 430.14,-68.99"/>
</g>
<!-- Node3 -->
<g id="node3" class="node">
<title>Node3</title>
<g id="a_node3"><a xlink:href="GooglyEyes_8cpp.html" target="_top" xlink:title=" ">
<polygon fill="white" stroke="#666666" points="288,-30 180,-30 180,0 288,0 288,-30"/>
<text text-anchor="start" x="188" y="-18" font-family="Helvetica,sans-Serif" font-size="10.00">src/apps/GooglyEyes</text>
<text text-anchor="middle" x="234" y="-7" font-family="Helvetica,sans-Serif" font-size="10.00">/GooglyEyes.cpp</text>
</a>
</g>
</g>
<!-- Node1&#45;&gt;Node3 -->
<g id="edge2" class="edge">
<title>Node1&#45;&gt;Node3</title>
<path fill="none" stroke="#63b8ff" d="M447.7,-63.08C406.7,-54.11 348.2,-41.3 297,-30 294.16,-29.37 291.24,-28.73 288.29,-28.08"/>
<polygon fill="#63b8ff" stroke="#63b8ff" points="446.78,-66.46 457.3,-65.18 448.28,-59.62 446.78,-66.46"/>
</g>
<!-- Node4 -->
<g id="node4" class="node">
<title>Node4</title>
<g id="a_node4"><a xlink:href="PomodoroApp_8cpp.html" target="_top" xlink:title=" ">
<polygon fill="white" stroke="#666666" points="425.5,-30 306.5,-30 306.5,0 425.5,0 425.5,-30"/>
<text text-anchor="start" x="314.5" y="-18" font-family="Helvetica,sans-Serif" font-size="10.00">src/apps/PomodoroApp</text>
<text text-anchor="middle" x="366" y="-7" font-family="Helvetica,sans-Serif" font-size="10.00">/PomodoroApp.cpp</text>
</a>
</g>
</g>
<!-- Node1&#45;&gt;Node4 -->
<g id="edge3" class="edge">
<title>Node1&#45;&gt;Node4</title>
<path fill="none" stroke="#63b8ff" d="M469.37,-61.13C448.38,-51.96 420.57,-39.82 399.08,-30.44"/>
<polygon fill="#63b8ff" stroke="#63b8ff" points="467.7,-64.22 478.26,-65.01 470.5,-57.8 467.7,-64.22"/>
</g>
<!-- Node5 -->
<g id="node5" class="node">
<title>Node5</title>
<g id="a_node5"><a xlink:href="AppLauncher_8cpp.html" target="_top" xlink:title=" ">
<polygon fill="white" stroke="#666666" points="556.5,-30 443.5,-30 443.5,0 556.5,0 556.5,-30"/>
<text text-anchor="start" x="451.5" y="-18" font-family="Helvetica,sans-Serif" font-size="10.00">src/core/AppLauncher</text>
<text text-anchor="middle" x="500" y="-7" font-family="Helvetica,sans-Serif" font-size="10.00">/AppLauncher.cpp</text>
</a>
</g>
</g>
<!-- Node1&#45;&gt;Node5 -->
<g id="edge4" class="edge">
<title>Node1&#45;&gt;Node5</title>
<path fill="none" stroke="#63b8ff" d="M500,-54.51C500,-46.49 500,-37.43 500,-30.11"/>
<polygon fill="#63b8ff" stroke="#63b8ff" points="496.5,-54.35 500,-64.35 503.5,-54.35 496.5,-54.35"/>
</g>
<!-- Node6 -->
<g id="node6" class="node">
<title>Node6</title>
<g id="a_node6"><a xlink:href="SettingsApp_8cpp.html" target="_top" xlink:title=" ">
<polygon fill="white" stroke="#666666" points="683,-30 575,-30 575,0 683,0 683,-30"/>
<text text-anchor="start" x="583" y="-18" font-family="Helvetica,sans-Serif" font-size="10.00">src/core/SettingsApp</text>
<text text-anchor="middle" x="629" y="-7" font-family="Helvetica,sans-Serif" font-size="10.00">/SettingsApp.cpp</text>
</a>
</g>
</g>
<!-- Node1&#45;&gt;Node6 -->
<g id="edge5" class="edge">
<title>Node1&#45;&gt;Node6</title>
<path fill="none" stroke="#63b8ff" d="M530.05,-60.87C550.18,-51.74 576.66,-39.74 597.16,-30.44"/>
<polygon fill="#63b8ff" stroke="#63b8ff" points="528.63,-57.67 520.97,-64.99 531.52,-64.05 528.63,-57.67"/>
</g>
<!-- Node7 -->
<g id="node7" class="node">
<title>Node7</title>
<g id="a_node7"><a xlink:href="Display_8cpp.html" target="_top" xlink:title=" ">
<polygon fill="white" stroke="#666666" points="826.5,-24.5 701.5,-24.5 701.5,-5.5 826.5,-5.5 826.5,-24.5"/>
<text text-anchor="middle" x="764" y="-12.5" font-family="Helvetica,sans-Serif" font-size="10.00">src/hardware/Display.cpp</text>
</a>
</g>
</g>
<!-- Node1&#45;&gt;Node7 -->
<g id="edge6" class="edge">
<title>Node1&#45;&gt;Node7</title>
<path fill="none" stroke="#63b8ff" d="M551.35,-63.12C601.7,-51.97 677.43,-35.18 723.62,-24.95"/>
<polygon fill="#63b8ff" stroke="#63b8ff" points="550.87,-59.64 541.86,-65.22 552.38,-66.48 550.87,-59.64"/>
</g>
<!-- Node8 -->
<g id="node8" class="node">
<title>Node8</title>
<g id="a_node8"><a xlink:href="main_8cpp.html" target="_top" xlink:title=" ">
<polygon fill="white" stroke="#666666" points="917,-24.5 845,-24.5 845,-5.5 917,-5.5 917,-24.5"/>
<text text-anchor="middle" x="881" y="-12.5" font-family="Helvetica,sans-Serif" font-size="10.00">src/main.cpp</text>
</a>
</g>
</g>
<!-- Node1&#45;&gt;Node8 -->
<g id="edge7" class="edge">
<title>Node1&#45;&gt;Node8</title>
<path fill="none" stroke="#63b8ff" d="M569.35,-68.79C637.71,-62.34 744.87,-50.06 836,-30 842.23,-28.63 848.84,-26.79 855.03,-24.9"/>
<polygon fill="#63b8ff" stroke="#63b8ff" points="569.03,-65.3 559.4,-69.71 569.68,-72.27 569.03,-65.3"/>
</g>
</g>
</svg>
