<?xml version="1.0" encoding="UTF-8" standalone="no"?>
<!DOCTYPE svg PUBLIC "-//W3C//DTD SVG 1.1//EN"
 "http://www.w3.org/Graphics/SVG/1.1/DTD/svg11.dtd">
<!-- Generated by graphviz version 12.1.2 (0)
 -->
<!-- Title: src/hardware/Display.h Pages: 1 -->
<svg width="923pt" height="92pt"
 viewBox="0.00 0.00 923.00 91.50" xmlns="http://www.w3.org/2000/svg" xmlns:xlink="http://www.w3.org/1999/xlink">
<g id="graph0" class="graph" transform="scale(1 1) rotate(0) translate(4 87.5)">
<title>src/hardware/Display.h</title>
<!-- Node1 -->
<g id="Node000001" class="node">
<title>Node1</title>
<g id="a_Node000001"><a xlink:title=" ">
<polygon fill="#999999" stroke="#666666" points="557.38,-83.5 442.38,-83.5 442.38,-65 557.38,-65 557.38,-83.5"/>
<text text-anchor="middle" x="499.88" y="-70" font-family="Helvetica,sans-Serif" font-size="10.00">src/hardware/Display.h</text>
</a>
</g>
</g>
<!-- Node2 -->
<g id="Node000002" class="node">
<title>Node2</title>
<g id="a_Node000002"><a xlink:href="ClockApp_8cpp.html" target="_top" xlink:title=" ">
<polygon fill="white" stroke="#666666" points="163.75,-23.75 0,-23.75 0,-5.25 163.75,-5.25 163.75,-23.75"/>
<text text-anchor="middle" x="81.88" y="-10.25" font-family="Helvetica,sans-Serif" font-size="10.00">src/apps/ClockApp/ClockApp.cpp</text>
</a>
</g>
</g>
<!-- Node1&#45;&gt;Node2 -->
<g id="edge1_Node000001_Node000002" class="edge">
<title>Node1&#45;&gt;Node2</title>
<g id="a_edge1_Node000001_Node000002"><a xlink:title=" ">
<path fill="none" stroke="#63b8ff" d="M430.84,-64.17C364.64,-55.4 261.88,-41.62 172.88,-29 162.12,-27.47 150.66,-25.81 139.63,-24.18"/>
<polygon fill="#63b8ff" stroke="#63b8ff" points="430.08,-67.6 440.46,-65.44 431,-60.66 430.08,-67.6"/>
</a>
</g>
</g>
<!-- Node3 -->
<g id="Node000003" class="node">
<title>Node3</title>
<g id="a_Node000003"><a xlink:href="GooglyEyes_8cpp.html" target="_top" xlink:title=" ">
<polygon fill="white" stroke="#666666" points="290,-29 181.75,-29 181.75,0 290,0 290,-29"/>
<text text-anchor="start" x="189.75" y="-15.5" font-family="Helvetica,sans-Serif" font-size="10.00">src/apps/GooglyEyes</text>
<text text-anchor="middle" x="235.88" y="-5" font-family="Helvetica,sans-Serif" font-size="10.00">/GooglyEyes.cpp</text>
</a>
</g>
</g>
<!-- Node1&#45;&gt;Node3 -->
<g id="edge2_Node000001_Node000003" class="edge">
<title>Node1&#45;&gt;Node3</title>
<g id="a_edge2_Node000001_Node000003"><a xlink:title=" ">
<path fill="none" stroke="#63b8ff" d="M448.96,-62.11C403.41,-52.15 336.81,-37.58 290.23,-27.39"/>
<polygon fill="#63b8ff" stroke="#63b8ff" points="448.07,-65.5 458.59,-64.22 449.57,-58.66 448.07,-65.5"/>
</a>
</g>
</g>
<!-- Node4 -->
<g id="Node000004" class="node">
<title>Node4</title>
<g id="a_Node000004"><a xlink:href="PomodoroApp_8cpp.html" target="_top" xlink:title=" ">
<polygon fill="white" stroke="#666666" points="425.88,-29 307.88,-29 307.88,0 425.88,0 425.88,-29"/>
<text text-anchor="start" x="315.88" y="-15.5" font-family="Helvetica,sans-Serif" font-size="10.00">src/apps/PomodoroApp</text>
<text text-anchor="middle" x="366.88" y="-5" font-family="Helvetica,sans-Serif" font-size="10.00">/PomodoroApp.cpp</text>
</a>
</g>
</g>
<!-- Node1&#45;&gt;Node4 -->
<g id="edge3_Node000001_Node000004" class="edge">
<title>Node1&#45;&gt;Node4</title>
<g id="a_edge3_Node000001_Node000004"><a xlink:title=" ">
<path fill="none" stroke="#63b8ff" d="M469.66,-60.13C448.61,-50.99 420.56,-38.81 399.08,-29.48"/>
<polygon fill="#63b8ff" stroke="#63b8ff" points="468.01,-63.23 478.58,-64 470.8,-56.81 468.01,-63.23"/>
</a>
</g>
</g>
<!-- Node5 -->
<g id="Node000005" class="node">
<title>Node5</title>
<g id="a_Node000005"><a xlink:href="AppLauncher_8cpp.html" target="_top" xlink:title=" ">
<polygon fill="white" stroke="#666666" points="555.5,-29 444.25,-29 444.25,0 555.5,0 555.5,-29"/>
<text text-anchor="start" x="452.25" y="-15.5" font-family="Helvetica,sans-Serif" font-size="10.00">src/core/AppLauncher</text>
<text text-anchor="middle" x="499.88" y="-5" font-family="Helvetica,sans-Serif" font-size="10.00">/AppLauncher.cpp</text>
</a>
</g>
</g>
<!-- Node1&#45;&gt;Node5 -->
<g id="edge4_Node000001_Node000005" class="edge">
<title>Node1&#45;&gt;Node5</title>
<g id="a_edge4_Node000001_Node000005"><a xlink:title=" ">
<path fill="none" stroke="#63b8ff" d="M499.88,-53.24C499.88,-45.39 499.88,-36.57 499.88,-29.43"/>
<polygon fill="#63b8ff" stroke="#63b8ff" points="496.38,-53.22 499.88,-63.22 503.38,-53.22 496.38,-53.22"/>
</a>
</g>
</g>
<!-- Node6 -->
<g id="Node000006" class="node">
<title>Node6</title>
<g id="a_Node000006"><a xlink:href="SettingsApp_8cpp.html" target="_top" xlink:title=" ">
<polygon fill="white" stroke="#666666" points="680.62,-29 573.12,-29 573.12,0 680.62,0 680.62,-29"/>
<text text-anchor="start" x="581.12" y="-15.5" font-family="Helvetica,sans-Serif" font-size="10.00">src/core/SettingsApp</text>
<text text-anchor="middle" x="626.88" y="-5" font-family="Helvetica,sans-Serif" font-size="10.00">/SettingsApp.cpp</text>
</a>
</g>
</g>
<!-- Node1&#45;&gt;Node6 -->
<g id="edge5_Node000001_Node000006" class="edge">
<title>Node1&#45;&gt;Node6</title>
<g id="a_edge5_Node000001_Node000006"><a xlink:title=" ">
<path fill="none" stroke="#63b8ff" d="M529.32,-59.86C549.43,-50.71 576.03,-38.62 596.37,-29.37"/>
<polygon fill="#63b8ff" stroke="#63b8ff" points="527.92,-56.65 520.27,-63.98 530.82,-63.02 527.92,-56.65"/>
</a>
</g>
</g>
<!-- Node7 -->
<g id="Node000007" class="node">
<title>Node7</title>
<g id="a_Node000007"><a xlink:href="Display_8cpp.html" target="_top" xlink:title=" ">
<polygon fill="white" stroke="#666666" points="824.62,-23.75 699.12,-23.75 699.12,-5.25 824.62,-5.25 824.62,-23.75"/>
<text text-anchor="middle" x="761.88" y="-10.25" font-family="Helvetica,sans-Serif" font-size="10.00">src/hardware/Display.cpp</text>
</a>
</g>
</g>
<!-- Node1&#45;&gt;Node7 -->
<g id="edge6_Node000001_Node000007" class="edge">
<title>Node1&#45;&gt;Node7</title>
<g id="a_edge6_Node000001_Node000007"><a xlink:title=" ">
<path fill="none" stroke="#63b8ff" d="M550.62,-62.06C600.84,-51 676.63,-34.29 722.47,-24.18"/>
<polygon fill="#63b8ff" stroke="#63b8ff" points="549.87,-58.65 540.86,-64.22 551.38,-65.48 549.87,-58.65"/>
</a>
</g>
</g>
<!-- Node8 -->
<g id="Node000008" class="node">
<title>Node8</title>
<g id="a_Node000008"><a xlink:href="main_8cpp.html" target="_top" xlink:title=" ">
<polygon fill="white" stroke="#666666" points="915,-23.75 842.75,-23.75 842.75,-5.25 915,-5.25 915,-23.75"/>
<text text-anchor="middle" x="878.88" y="-10.25" font-family="Helvetica,sans-Serif" font-size="10.00">src/main.cpp</text>
</a>
</g>
</g>
<!-- Node1&#45;&gt;Node8 -->
<g id="edge7_Node000001_Node000008" class="edge">
<title>Node1&#45;&gt;Node8</title>
<g id="a_edge7_Node000001_Node000008"><a xlink:title=" ">
<path fill="none" stroke="#63b8ff" d="M569.08,-67.34C637.01,-60.77 743.32,-48.45 833.88,-29 839.94,-27.7 846.36,-25.98 852.41,-24.21"/>
<polygon fill="#63b8ff" stroke="#63b8ff" points="568.81,-63.85 559.19,-68.28 569.48,-70.81 568.81,-63.85"/>
</a>
</g>
</g>
</g>
</svg>
