<?xml version="1.0" encoding="UTF-8" standalone="no"?>
<!DOCTYPE svg PUBLIC "-//W3C//DTD SVG 1.1//EN"
 "http://www.w3.org/Graphics/SVG/1.1/DTD/svg11.dtd">
<!-- Generated by graphviz version 12.2.0 (20241103.1931)
 -->
<!-- Title: src/apps/GooglyEyes/GooglyEyes.cpp Pages: 1 -->
<svg width="423pt" height="204pt"
 viewBox="0.00 0.00 422.82 204.25" xmlns="http://www.w3.org/2000/svg" xmlns:xlink="http://www.w3.org/1999/xlink">
<g id="graph0" class="graph" transform="scale(1 1) rotate(0) translate(4 200.25)">
<title>src/apps/GooglyEyes/GooglyEyes.cpp</title>
<!-- Node1 -->
<g id="Node000001" class="node">
<title>Node1</title>
<g id="a_Node000001"><a xlink:title=" ">
<polygon fill="#999999" stroke="#666666" points="159.82,-196.25 52.32,-196.25 52.32,-165.75 159.82,-165.75 159.82,-196.25"/>
<text text-anchor="start" x="60.32" y="-182.75" font-family="Helvetica,sans-Serif" font-size="10.00">src/apps/GooglyEyes</text>
<text text-anchor="middle" x="106.07" y="-171.5" font-family="Helvetica,sans-Serif" font-size="10.00">/GooglyEyes.cpp</text>
</a>
</g>
</g>
<!-- Node2 -->
<g id="Node000002" class="node">
<title>Node2</title>
<g id="a_Node000002"><a xlink:href="GooglyEyes_8h.html" target="_top" xlink:title=" ">
<polygon fill="white" stroke="#666666" points="81.32,-129.75 6.82,-129.75 6.82,-110.5 81.32,-110.5 81.32,-129.75"/>
<text text-anchor="middle" x="44.07" y="-116.25" font-family="Helvetica,sans-Serif" font-size="10.00">GooglyEyes.h</text>
</a>
</g>
</g>
<!-- Node1&#45;&gt;Node2 -->
<g id="edge1_Node000001_Node000002" class="edge">
<title>Node1&#45;&gt;Node2</title>
<g id="a_edge1_Node000001_Node000002"><a xlink:title=" ">
<path fill="none" stroke="#63b8ff" d="M90.75,-165.45C82.03,-157.17 71.08,-146.77 61.97,-138.12"/>
<polygon fill="#63b8ff" stroke="#63b8ff" points="64.39,-135.59 54.73,-131.24 59.57,-140.67 64.39,-135.59"/>
</a>
</g>
</g>
<!-- Node5 -->
<g id="Node000005" class="node">
<title>Node5</title>
<g id="a_Node000005"><a xlink:href="Hardware_8h.html" target="_top" xlink:title=" ">
<polygon fill="white" stroke="#666666" points="222.2,-129.75 113.95,-129.75 113.95,-110.5 222.2,-110.5 222.2,-129.75"/>
<text text-anchor="middle" x="168.07" y="-116.25" font-family="Helvetica,sans-Serif" font-size="10.00">hardware/Hardware.h</text>
</a>
</g>
</g>
<!-- Node1&#45;&gt;Node5 -->
<g id="edge4_Node000001_Node000005" class="edge">
<title>Node1&#45;&gt;Node5</title>
<g id="a_edge4_Node000001_Node000005"><a xlink:title=" ">
<path fill="none" stroke="#63b8ff" d="M121.4,-165.45C130.11,-157.17 141.07,-146.77 150.18,-138.12"/>
<polygon fill="#63b8ff" stroke="#63b8ff" points="152.58,-140.67 157.42,-131.24 147.76,-135.59 152.58,-140.67"/>
</a>
</g>
</g>
<!-- Node3 -->
<g id="Node000003" class="node">
<title>Node3</title>
<g id="a_Node000003"><a xlink:title=" ">
<polygon fill="#e0e0e0" stroke="#999999" points="164.32,-19.25 107.82,-19.25 107.82,0 164.32,0 164.32,-19.25"/>
<text text-anchor="middle" x="136.07" y="-5.75" font-family="Helvetica,sans-Serif" font-size="10.00">Arduino.h</text>
</a>
</g>
</g>
<!-- Node2&#45;&gt;Node3 -->
<g id="edge2_Node000002_Node000003" class="edge">
<title>Node2&#45;&gt;Node3</title>
<g id="a_edge2_Node000002_Node000003"><a xlink:title=" ">
<path fill="none" stroke="#63b8ff" d="M31.14,-110.01C14.86,-97.4 -9.43,-74.07 4.07,-55.25 24.89,-26.23 65.6,-15.84 96.33,-12.25"/>
<polygon fill="#63b8ff" stroke="#63b8ff" points="96.43,-15.75 106.06,-11.32 95.77,-8.78 96.43,-15.75"/>
</a>
</g>
</g>
<!-- Node4 -->
<g id="Node000004" class="node">
<title>Node4</title>
<g id="a_Node000004"><a xlink:href="App_8h.html" target="_top" xlink:title="Abstract base class for applications.">
<polygon fill="white" stroke="#666666" points="75.32,-74.5 12.82,-74.5 12.82,-55.25 75.32,-55.25 75.32,-74.5"/>
<text text-anchor="middle" x="44.07" y="-61" font-family="Helvetica,sans-Serif" font-size="10.00">core/App.h</text>
</a>
</g>
</g>
<!-- Node2&#45;&gt;Node4 -->
<g id="edge3_Node000002_Node000004" class="edge">
<title>Node2&#45;&gt;Node4</title>
<g id="a_edge3_Node000002_Node000004"><a xlink:title=" ">
<path fill="none" stroke="#63b8ff" d="M44.07,-110.33C44.07,-103.82 44.07,-94.67 44.07,-86.37"/>
<polygon fill="#63b8ff" stroke="#63b8ff" points="47.57,-86.37 44.07,-76.37 40.57,-86.37 47.57,-86.37"/>
</a>
</g>
</g>
<!-- Node5&#45;&gt;Node3 -->
<g id="edge5_Node000005_Node000003" class="edge">
<title>Node5&#45;&gt;Node3</title>
<g id="a_edge5_Node000005_Node000003"><a xlink:title=" ">
<path fill="none" stroke="#63b8ff" d="M153.85,-110.1C142.86,-102.21 128.49,-89.67 122.07,-74.5 115.98,-60.11 120.49,-42.72 125.96,-29.72"/>
<polygon fill="#63b8ff" stroke="#63b8ff" points="128.98,-31.52 130.12,-20.98 122.66,-28.51 128.98,-31.52"/>
</a>
</g>
</g>
<!-- Node6 -->
<g id="Node000006" class="node">
<title>Node6</title>
<g id="a_Node000006"><a xlink:href="Button_2Button_8h.html" target="_top" xlink:title=" ">
<polygon fill="white" stroke="#666666" points="414.82,-74.5 331.32,-74.5 331.32,-55.25 414.82,-55.25 414.82,-74.5"/>
<text text-anchor="middle" x="373.07" y="-61" font-family="Helvetica,sans-Serif" font-size="10.00">Button/Button.h</text>
</a>
</g>
</g>
<!-- Node5&#45;&gt;Node6 -->
<g id="edge6_Node000005_Node000006" class="edge">
<title>Node5&#45;&gt;Node6</title>
<g id="a_edge6_Node000005_Node000006"><a xlink:title=" ">
<path fill="none" stroke="#63b8ff" d="M202.85,-110.09C237.16,-101.18 289.79,-87.51 327.45,-77.73"/>
<polygon fill="#63b8ff" stroke="#63b8ff" points="327.86,-81.23 336.66,-75.33 326.1,-74.46 327.86,-81.23"/>
</a>
</g>
</g>
<!-- Node8 -->
<g id="Node000008" class="node">
<title>Node8</title>
<g id="a_Node000008"><a xlink:href="Display_8h.html" target="_top" xlink:title=" ">
<polygon fill="white" stroke="#666666" points="312.82,-74.5 223.32,-74.5 223.32,-55.25 312.82,-55.25 312.82,-74.5"/>
<text text-anchor="middle" x="268.07" y="-61" font-family="Helvetica,sans-Serif" font-size="10.00">Display/Display.h</text>
</a>
</g>
</g>
<!-- Node5&#45;&gt;Node8 -->
<g id="edge8_Node000005_Node000008" class="edge">
<title>Node5&#45;&gt;Node8</title>
<g id="a_edge8_Node000005_Node000008"><a xlink:title=" ">
<path fill="none" stroke="#63b8ff" d="M185.04,-110.09C200.34,-101.94 223.11,-89.82 240.93,-80.33"/>
<polygon fill="#63b8ff" stroke="#63b8ff" points="242.51,-83.45 249.69,-75.66 239.22,-77.27 242.51,-83.45"/>
</a>
</g>
</g>
<!-- Node10 -->
<g id="Node000010" class="node">
<title>Node10</title>
<g id="a_Node000010"><a xlink:href="Piezo_8h.html" target="_top" xlink:title=" ">
<polygon fill="white" stroke="#666666" points="205.32,-74.5 130.82,-74.5 130.82,-55.25 205.32,-55.25 205.32,-74.5"/>
<text text-anchor="middle" x="168.07" y="-61" font-family="Helvetica,sans-Serif" font-size="10.00">Piezo/Piezo.h</text>
</a>
</g>
</g>
<!-- Node5&#45;&gt;Node10 -->
<g id="edge11_Node000005_Node000010" class="edge">
<title>Node5&#45;&gt;Node10</title>
<g id="a_edge11_Node000005_Node000010"><a xlink:title=" ">
<path fill="none" stroke="#63b8ff" d="M168.07,-110.33C168.07,-103.82 168.07,-94.67 168.07,-86.37"/>
<polygon fill="#63b8ff" stroke="#63b8ff" points="171.57,-86.37 168.07,-76.37 164.57,-86.37 171.57,-86.37"/>
</a>
</g>
</g>
<!-- Node7 -->
<g id="Node000007" class="node">
<title>Node7</title>
<g id="a_Node000007"><a xlink:title=" ">
<polygon fill="#e0e0e0" stroke="#999999" points="408.07,-19.25 338.07,-19.25 338.07,0 408.07,0 408.07,-19.25"/>
<text text-anchor="middle" x="373.07" y="-5.75" font-family="Helvetica,sans-Serif" font-size="10.00">OneButton.h</text>
</a>
</g>
</g>
<!-- Node6&#45;&gt;Node7 -->
<g id="edge7_Node000006_Node000007" class="edge">
<title>Node6&#45;&gt;Node7</title>
<g id="a_edge7_Node000006_Node000007"><a xlink:title=" ">
<path fill="none" stroke="#63b8ff" d="M373.07,-55.08C373.07,-48.57 373.07,-39.42 373.07,-31.12"/>
<polygon fill="#63b8ff" stroke="#63b8ff" points="376.57,-31.12 373.07,-21.12 369.57,-31.12 376.57,-31.12"/>
</a>
</g>
</g>
<!-- Node8&#45;&gt;Node3 -->
<g id="edge9_Node000008_Node000003" class="edge">
<title>Node8&#45;&gt;Node3</title>
<g id="a_edge9_Node000008_Node000003"><a xlink:title=" ">
<path fill="none" stroke="#63b8ff" d="M245.68,-54.84C224.63,-46.35 192.87,-33.54 168.95,-23.89"/>
<polygon fill="#63b8ff" stroke="#63b8ff" points="170.56,-20.76 159.98,-20.27 167.94,-27.26 170.56,-20.76"/>
</a>
</g>
</g>
<!-- Node9 -->
<g id="Node000009" class="node">
<title>Node9</title>
<g id="a_Node000009"><a xlink:title=" ">
<polygon fill="#e0e0e0" stroke="#999999" points="302.32,-19.25 233.82,-19.25 233.82,0 302.32,0 302.32,-19.25"/>
<text text-anchor="middle" x="268.07" y="-5.75" font-family="Helvetica,sans-Serif" font-size="10.00">TFT_eSPI.h</text>
</a>
</g>
</g>
<!-- Node8&#45;&gt;Node9 -->
<g id="edge10_Node000008_Node000009" class="edge">
<title>Node8&#45;&gt;Node9</title>
<g id="a_edge10_Node000008_Node000009"><a xlink:title=" ">
<path fill="none" stroke="#63b8ff" d="M268.07,-55.08C268.07,-48.57 268.07,-39.42 268.07,-31.12"/>
<polygon fill="#63b8ff" stroke="#63b8ff" points="271.57,-31.12 268.07,-21.12 264.57,-31.12 271.57,-31.12"/>
</a>
</g>
</g>
<!-- Node10&#45;&gt;Node3 -->
<g id="edge12_Node000010_Node000003" class="edge">
<title>Node10&#45;&gt;Node3</title>
<g id="a_edge12_Node000010_Node000003"><a xlink:title=" ">
<path fill="none" stroke="#63b8ff" d="M162.79,-55.08C158.6,-48.11 152.59,-38.12 147.34,-29.37"/>
<polygon fill="#63b8ff" stroke="#63b8ff" points="150.4,-27.68 142.25,-20.91 144.4,-31.28 150.4,-27.68"/>
</a>
</g>
</g>
</g>
</svg>
