<?xml version="1.0" encoding="UTF-8" standalone="no"?>
<!DOCTYPE svg PUBLIC "-//W3C//DTD SVG 1.1//EN"
 "http://www.w3.org/Graphics/SVG/1.1/DTD/svg11.dtd">
<!-- Generated by graphviz version 12.1.2 (0)
 -->
<!-- Title: src/apps/GooglyEyes/GooglyEyes.h Pages: 1 -->
<svg width="146pt" height="92pt"
 viewBox="0.00 0.00 146.25 91.50" xmlns="http://www.w3.org/2000/svg" xmlns:xlink="http://www.w3.org/1999/xlink">
<g id="graph0" class="graph" transform="scale(1 1) rotate(0) translate(4 87.5)">
<title>src/apps/GooglyEyes/GooglyEyes.h</title>
<!-- Node1 -->
<g id="Node000001" class="node">
<title>Node1</title>
<g id="a_Node000001"><a xlink:title=" ">
<polygon fill="#999999" stroke="#666666" points="121.75,-83.5 13.5,-83.5 13.5,-54.5 121.75,-54.5 121.75,-83.5"/>
<text text-anchor="start" x="21.5" y="-70" font-family="Helvetica,sans-Serif" font-size="10.00">src/apps/GooglyEyes</text>
<text text-anchor="middle" x="67.62" y="-59.5" font-family="Helvetica,sans-Serif" font-size="10.00">/GooglyEyes.h</text>
</a>
</g>
</g>
<!-- Node2 -->
<g id="Node000002" class="node">
<title>Node2</title>
<g id="a_Node000002"><a xlink:title=" ">
<polygon fill="#e0e0e0" stroke="#999999" points="57.25,-18.5 0,-18.5 0,0 57.25,0 57.25,-18.5"/>
<text text-anchor="middle" x="28.62" y="-5" font-family="Helvetica,sans-Serif" font-size="10.00">Arduino.h</text>
</a>
</g>
</g>
<!-- Node1&#45;&gt;Node2 -->
<g id="edge1_Node000001_Node000002" class="edge">
<title>Node1&#45;&gt;Node2</title>
<g id="a_edge1_Node000001_Node000002"><a xlink:title=" ">
<path fill="none" stroke="#63b8ff" d="M58.18,-54.02C52.99,-46.32 46.47,-36.68 40.88,-28.4"/>
<polygon fill="#63b8ff" stroke="#63b8ff" points="43.81,-26.49 35.32,-20.16 38.01,-30.4 43.81,-26.49"/>
</a>
</g>
</g>
<!-- Node3 -->
<g id="Node000003" class="node">
<title>Node3</title>
<g id="a_Node000003"><a xlink:href="App_8h.html" target="_top" xlink:title="Abstract base class for applications.">
<polygon fill="white" stroke="#666666" points="138.25,-18.5 75,-18.5 75,0 138.25,0 138.25,-18.5"/>
<text text-anchor="middle" x="106.62" y="-5" font-family="Helvetica,sans-Serif" font-size="10.00">core/App.h</text>
</a>
</g>
</g>
<!-- Node1&#45;&gt;Node3 -->
<g id="edge2_Node000001_Node000003" class="edge">
<title>Node1&#45;&gt;Node3</title>
<g id="a_edge2_Node000001_Node000003"><a xlink:title=" ">
<path fill="none" stroke="#63b8ff" d="M77.07,-54.02C82.26,-46.32 88.78,-36.68 94.37,-28.4"/>
<polygon fill="#63b8ff" stroke="#63b8ff" points="97.24,-30.4 99.93,-20.16 91.44,-26.49 97.24,-30.4"/>
</a>
</g>
</g>
</g>
</svg>
