<?xml version="1.0" encoding="UTF-8" standalone="no"?>
<!DOCTYPE svg PUBLIC "-//W3C//DTD SVG 1.1//EN"
 "http://www.w3.org/Graphics/SVG/1.1/DTD/svg11.dtd">
<!-- Generated by graphviz version 12.1.2 (0)
 -->
<!-- Title: src/apps/GooglyEyes/GooglyEyes.h Pages: 1 -->
<svg width="206pt" height="102pt"
 viewBox="0.00 0.00 206.25 102.00" xmlns="http://www.w3.org/2000/svg" xmlns:xlink="http://www.w3.org/1999/xlink">
<g id="graph0" class="graph" transform="scale(1 1) rotate(0) translate(4 98)">
<title>src/apps/GooglyEyes/GooglyEyes.h</title>
<!-- Node1 -->
<g id="Node000001" class="node">
<title>Node1</title>
<g id="a_Node000001"><a xlink:title=" ">
<polygon fill="#999999" stroke="#666666" points="162.25,-94 54,-94 54,-65 162.25,-65 162.25,-94"/>
<text text-anchor="start" x="62" y="-80.5" font-family="Helvetica,sans-Serif" font-size="10.00">src/apps/GooglyEyes</text>
<text text-anchor="middle" x="108.12" y="-70" font-family="Helvetica,sans-Serif" font-size="10.00">/GooglyEyes.h</text>
</a>
</g>
</g>
<!-- Node2 -->
<g id="Node000002" class="node">
<title>Node2</title>
<g id="a_Node000002"><a xlink:href="GooglyEyes_8cpp.html" target="_top" xlink:title=" ">
<polygon fill="white" stroke="#666666" points="108.25,-29 0,-29 0,0 108.25,0 108.25,-29"/>
<text text-anchor="start" x="8" y="-15.5" font-family="Helvetica,sans-Serif" font-size="10.00">src/apps/GooglyEyes</text>
<text text-anchor="middle" x="54.12" y="-5" font-family="Helvetica,sans-Serif" font-size="10.00">/GooglyEyes.cpp</text>
</a>
</g>
</g>
<!-- Node1&#45;&gt;Node2 -->
<g id="edge1_Node000001_Node000002" class="edge">
<title>Node1&#45;&gt;Node2</title>
<g id="a_edge1_Node000001_Node000002"><a xlink:title=" ">
<path fill="none" stroke="#63b8ff" d="M88.69,-55.82C81.13,-47 72.71,-37.18 66.08,-29.44"/>
<polygon fill="#63b8ff" stroke="#63b8ff" points="85.99,-58.05 95.16,-63.37 91.31,-53.5 85.99,-58.05"/>
</a>
</g>
</g>
<!-- Node3 -->
<g id="Node000003" class="node">
<title>Node3</title>
<g id="a_Node000003"><a xlink:href="main_8cpp.html" target="_top" xlink:title=" ">
<polygon fill="white" stroke="#666666" points="198.25,-23.75 126,-23.75 126,-5.25 198.25,-5.25 198.25,-23.75"/>
<text text-anchor="middle" x="162.12" y="-10.25" font-family="Helvetica,sans-Serif" font-size="10.00">src/main.cpp</text>
</a>
</g>
</g>
<!-- Node1&#45;&gt;Node3 -->
<g id="edge2_Node000001_Node000003" class="edge">
<title>Node1&#45;&gt;Node3</title>
<g id="a_edge2_Node000001_Node000003"><a xlink:title=" ">
<path fill="none" stroke="#63b8ff" d="M127.58,-55.81C136.97,-44.85 147.69,-32.34 154.66,-24.21"/>
<polygon fill="#63b8ff" stroke="#63b8ff" points="124.94,-53.5 121.09,-63.37 130.26,-58.05 124.94,-53.5"/>
</a>
</g>
</g>
</g>
</svg>
