<?xml version="1.0" encoding="UTF-8" standalone="no"?>
<!DOCTYPE svg PUBLIC "-//W3C//DTD SVG 1.1//EN"
 "http://www.w3.org/Graphics/SVG/1.1/DTD/svg11.dtd">
<!-- Generated by graphviz version 12.1.2 (0)
 -->
<!-- Title: src/apps/GooglyEyes/GooglyEyes.cpp Pages: 1 -->
<svg width="347pt" height="146pt"
 viewBox="0.00 0.00 347.00 146.00" xmlns="http://www.w3.org/2000/svg" xmlns:xlink="http://www.w3.org/1999/xlink">
<g id="graph0" class="graph" transform="scale(1 1) rotate(0) translate(4 142)">
<title>src/apps/GooglyEyes/GooglyEyes.cpp</title>
<!-- Node1 -->
<g id="Node000001" class="node">
<title>Node1</title>
<g id="a_Node000001"><a xlink:title=" ">
<polygon fill="#999999" stroke="#666666" points="230.75,-138 122.5,-138 122.5,-109 230.75,-109 230.75,-138"/>
<text text-anchor="start" x="130.5" y="-124.5" font-family="Helvetica,sans-Serif" font-size="10.00">src/apps/GooglyEyes</text>
<text text-anchor="middle" x="176.62" y="-114" font-family="Helvetica,sans-Serif" font-size="10.00">/GooglyEyes.cpp</text>
</a>
</g>
</g>
<!-- Node2 -->
<g id="Node000002" class="node">
<title>Node2</title>
<g id="a_Node000002"><a xlink:href="GooglyEyes_8h.html" target="_top" xlink:title=" ">
<polygon fill="white" stroke="#666666" points="109.62,-73 33.62,-73 33.62,-54.5 109.62,-54.5 109.62,-73"/>
<text text-anchor="middle" x="71.62" y="-59.5" font-family="Helvetica,sans-Serif" font-size="10.00">GooglyEyes.h</text>
</a>
</g>
</g>
<!-- Node1&#45;&gt;Node2 -->
<g id="edge1_Node000001_Node000002" class="edge">
<title>Node1&#45;&gt;Node2</title>
<g id="a_edge1_Node000001_Node000002"><a xlink:title=" ">
<path fill="none" stroke="#63b8ff" d="M151.21,-108.52C134.88,-99.54 113.73,-87.91 97.34,-78.9"/>
<polygon fill="#63b8ff" stroke="#63b8ff" points="99.13,-75.89 88.68,-74.13 95.76,-82.02 99.13,-75.89"/>
</a>
</g>
</g>
<!-- Node5 -->
<g id="Node000005" class="node">
<title>Node5</title>
<g id="a_Node000005"><a xlink:href="Button_8h.html" target="_top" xlink:title=" ">
<polygon fill="white" stroke="#666666" points="339,-73 244.25,-73 244.25,-54.5 339,-54.5 339,-73"/>
<text text-anchor="middle" x="291.62" y="-59.5" font-family="Helvetica,sans-Serif" font-size="10.00">hardware/Button.h</text>
</a>
</g>
</g>
<!-- Node1&#45;&gt;Node5 -->
<g id="edge4_Node000001_Node000005" class="edge">
<title>Node1&#45;&gt;Node5</title>
<g id="a_edge4_Node000001_Node000005"><a xlink:title=" ">
<path fill="none" stroke="#63b8ff" d="M204.46,-108.52C222.6,-99.41 246.17,-87.58 264.22,-78.51"/>
<polygon fill="#63b8ff" stroke="#63b8ff" points="265.67,-81.7 273.04,-74.08 262.53,-75.44 265.67,-81.7"/>
</a>
</g>
</g>
<!-- Node7 -->
<g id="Node000007" class="node">
<title>Node7</title>
<g id="a_Node000007"><a xlink:href="Display_8h.html" target="_top" xlink:title=" ">
<polygon fill="white" stroke="#666666" points="225.88,-73 127.38,-73 127.38,-54.5 225.88,-54.5 225.88,-73"/>
<text text-anchor="middle" x="176.62" y="-59.5" font-family="Helvetica,sans-Serif" font-size="10.00">hardware/Display.h</text>
</a>
</g>
</g>
<!-- Node1&#45;&gt;Node7 -->
<g id="edge6_Node000001_Node000007" class="edge">
<title>Node1&#45;&gt;Node7</title>
<g id="a_edge6_Node000001_Node000007"><a xlink:title=" ">
<path fill="none" stroke="#63b8ff" d="M176.62,-108.52C176.62,-101.42 176.62,-92.67 176.62,-84.86"/>
<polygon fill="#63b8ff" stroke="#63b8ff" points="180.13,-84.92 176.63,-74.92 173.13,-84.92 180.13,-84.92"/>
</a>
</g>
</g>
<!-- Node3 -->
<g id="Node000003" class="node">
<title>Node3</title>
<g id="a_Node000003"><a xlink:title=" ">
<polygon fill="#e0e0e0" stroke="#999999" points="138.25,-18.5 81,-18.5 81,0 138.25,0 138.25,-18.5"/>
<text text-anchor="middle" x="109.62" y="-5" font-family="Helvetica,sans-Serif" font-size="10.00">Arduino.h</text>
</a>
</g>
</g>
<!-- Node2&#45;&gt;Node3 -->
<g id="edge2_Node000002_Node000003" class="edge">
<title>Node2&#45;&gt;Node3</title>
<g id="a_edge2_Node000002_Node000003"><a xlink:title=" ">
<path fill="none" stroke="#63b8ff" d="M77.9,-54.08C83.05,-46.97 90.5,-36.68 96.89,-27.85"/>
<polygon fill="#63b8ff" stroke="#63b8ff" points="99.55,-30.14 102.58,-19.98 93.88,-26.03 99.55,-30.14"/>
</a>
</g>
</g>
<!-- Node4 -->
<g id="Node000004" class="node">
<title>Node4</title>
<g id="a_Node000004"><a xlink:href="App_8h.html" target="_top" xlink:title="Abstract base class for applications.">
<polygon fill="white" stroke="#666666" points="63.25,-18.5 0,-18.5 0,0 63.25,0 63.25,-18.5"/>
<text text-anchor="middle" x="31.62" y="-5" font-family="Helvetica,sans-Serif" font-size="10.00">core/App.h</text>
</a>
</g>
</g>
<!-- Node2&#45;&gt;Node4 -->
<g id="edge3_Node000002_Node000004" class="edge">
<title>Node2&#45;&gt;Node4</title>
<g id="a_edge3_Node000002_Node000004"><a xlink:title=" ">
<path fill="none" stroke="#63b8ff" d="M65.02,-54.08C59.6,-46.97 51.76,-36.68 45.03,-27.85"/>
<polygon fill="#63b8ff" stroke="#63b8ff" points="47.87,-25.8 39.02,-19.96 42.3,-30.04 47.87,-25.8"/>
</a>
</g>
</g>
<!-- Node6 -->
<g id="Node000006" class="node">
<title>Node6</title>
<g id="a_Node000006"><a xlink:title=" ">
<polygon fill="#e0e0e0" stroke="#999999" points="327,-18.5 256.25,-18.5 256.25,0 327,0 327,-18.5"/>
<text text-anchor="middle" x="291.62" y="-5" font-family="Helvetica,sans-Serif" font-size="10.00">OneButton.h</text>
</a>
</g>
</g>
<!-- Node5&#45;&gt;Node6 -->
<g id="edge5_Node000005_Node000006" class="edge">
<title>Node5&#45;&gt;Node6</title>
<g id="a_edge5_Node000005_Node000006"><a xlink:title=" ">
<path fill="none" stroke="#63b8ff" d="M291.62,-54.08C291.62,-47.58 291.62,-38.42 291.62,-30.16"/>
<polygon fill="#63b8ff" stroke="#63b8ff" points="295.13,-30.27 291.63,-20.27 288.13,-30.27 295.13,-30.27"/>
</a>
</g>
</g>
<!-- Node7&#45;&gt;Node3 -->
<g id="edge7_Node000007_Node000003" class="edge">
<title>Node7&#45;&gt;Node3</title>
<g id="a_edge7_Node000007_Node000003"><a xlink:title=" ">
<path fill="none" stroke="#63b8ff" d="M165.56,-54.08C155.71,-46.36 141.06,-34.88 129.23,-25.61"/>
<polygon fill="#63b8ff" stroke="#63b8ff" points="131.7,-23.1 121.67,-19.69 127.39,-28.61 131.7,-23.1"/>
</a>
</g>
</g>
<!-- Node8 -->
<g id="Node000008" class="node">
<title>Node8</title>
<g id="a_Node000008"><a xlink:title=" ">
<polygon fill="#e0e0e0" stroke="#999999" points="224.88,-18.5 156.38,-18.5 156.38,0 224.88,0 224.88,-18.5"/>
<text text-anchor="middle" x="190.62" y="-5" font-family="Helvetica,sans-Serif" font-size="10.00">TFT_eSPI.h</text>
</a>
</g>
</g>
<!-- Node7&#45;&gt;Node8 -->
<g id="edge8_Node000007_Node000008" class="edge">
<title>Node7&#45;&gt;Node8</title>
<g id="a_edge8_Node000007_Node000008"><a xlink:title=" ">
<path fill="none" stroke="#63b8ff" d="M178.94,-54.08C180.69,-47.51 183.17,-38.21 185.39,-29.87"/>
<polygon fill="#63b8ff" stroke="#63b8ff" points="188.77,-30.78 187.97,-20.22 182.01,-28.98 188.77,-30.78"/>
</a>
</g>
</g>
</g>
</svg>
