<?xml version="1.0" encoding="UTF-8" standalone="no"?>
<!DOCTYPE svg PUBLIC "-//W3C//DTD SVG 1.1//EN"
 "http://www.w3.org/Graphics/SVG/1.1/DTD/svg11.dtd">
<!-- Generated by graphviz version 12.2.0 (20241103.1931)
 -->
<!-- Title: src/apps/GooglyEyes/GooglyEyes.cpp Pages: 1 -->
<svg width="346pt" height="149pt"
 viewBox="0.00 0.00 345.62 149.00" xmlns="http://www.w3.org/2000/svg" xmlns:xlink="http://www.w3.org/1999/xlink">

<svg id="main" version="1.1" xmlns="http://www.w3.org/2000/svg" xmlns:xlink="http://www.w3.org/1999/xlink" xml:space="preserve">

<style type="text/css"><![CDATA[
.node, .edge {opacity: 0.7;}
.node.selected, .edge.selected {opacity: 1;}
.edge:hover path { stroke: red; }
.edge:hover polygon { stroke: red; fill: red; }
]]></style>
<script type="application/ecmascript" xlink:href="svg.min.js"/>
<svg id="graph" class="graph">
<g id="graph0" class="graph" transform="scale(1 1) rotate(0) translate(4 145)">
<title>src/apps/GooglyEyes/GooglyEyes.cpp</title>
<!-- Node1 -->
<g id="Node000001" class="node">
<title>Node1</title>
<g id="a_Node000001"><a xlink:title=" ">
<polygon fill="#999999" stroke="#666666" points="230,-141 122.5,-141 122.5,-110.5 230,-110.5 230,-141"/>
<text text-anchor="start" x="130.5" y="-127.5" font-family="Helvetica,sans-Serif" font-size="10.00">src/apps/GooglyEyes</text>
<text text-anchor="middle" x="176.25" y="-116.25" font-family="Helvetica,sans-Serif" font-size="10.00">/GooglyEyes.cpp</text>
</a>
</g>
</g>
<!-- Node2 -->
<g id="Node000002" class="node">
<title>Node2</title>
<g id="a_Node000002"><a xlink:href="GooglyEyes_8h.html" target="_top" xlink:title=" ">
<polygon fill="white" stroke="#666666" points="109.5,-74.5 35,-74.5 35,-55.25 109.5,-55.25 109.5,-74.5"/>
<text text-anchor="middle" x="72.25" y="-61" font-family="Helvetica,sans-Serif" font-size="10.00">GooglyEyes.h</text>
</a>
</g>
</g>
<!-- Node1&#45;&gt;Node2 -->
<g id="edge1_Node000001_Node000002" class="edge">
<title>Node1&#45;&gt;Node2</title>
<g id="a_edge1_Node000001_Node000002"><a xlink:title=" ">
<path fill="none" stroke="#63b8ff" d="M150.27,-110.05C134.28,-100.99 113.87,-89.44 97.93,-80.41"/>
<polygon fill="#63b8ff" stroke="#63b8ff" points="99.94,-77.53 89.52,-75.65 96.49,-83.62 99.94,-77.53"/>
</a>
</g>
</g>
<!-- Node5 -->
<g id="Node000005" class="node">
<title>Node5</title>
<g id="a_Node000005"><a xlink:href="Button_8h.html" target="_top" xlink:title=" ">
<polygon fill="white" stroke="#666666" points="337.62,-74.5 242.88,-74.5 242.88,-55.25 337.62,-55.25 337.62,-74.5"/>
<text text-anchor="middle" x="290.25" y="-61" font-family="Helvetica,sans-Serif" font-size="10.00">hardware/Button.h</text>
</a>
</g>
</g>
<!-- Node1&#45;&gt;Node5 -->
<g id="edge4_Node000001_Node000005" class="edge">
<title>Node1&#45;&gt;Node5</title>
<g id="a_edge4_Node000001_Node000005"><a xlink:title=" ">
<path fill="none" stroke="#63b8ff" d="M204.72,-110.05C222.42,-100.91 245.05,-89.22 262.59,-80.16"/>
<polygon fill="#63b8ff" stroke="#63b8ff" points="264.14,-83.3 271.42,-75.6 260.93,-77.08 264.14,-83.3"/>
</a>
</g>
</g>
<!-- Node7 -->
<g id="Node000007" class="node">
<title>Node7</title>
<g id="a_Node000007"><a xlink:href="Display_8h.html" target="_top" xlink:title=" ">
<polygon fill="white" stroke="#666666" points="225.12,-74.5 127.38,-74.5 127.38,-55.25 225.12,-55.25 225.12,-74.5"/>
<text text-anchor="middle" x="176.25" y="-61" font-family="Helvetica,sans-Serif" font-size="10.00">hardware/Display.h</text>
</a>
</g>
</g>
<!-- Node1&#45;&gt;Node7 -->
<g id="edge6_Node000001_Node000007" class="edge">
<title>Node1&#45;&gt;Node7</title>
<g id="a_edge6_Node000001_Node000007"><a xlink:title=" ">
<path fill="none" stroke="#63b8ff" d="M176.25,-110.2C176.25,-102.96 176.25,-94.09 176.25,-86.19"/>
<polygon fill="#63b8ff" stroke="#63b8ff" points="179.75,-86.46 176.25,-76.46 172.75,-86.46 179.75,-86.46"/>
</a>
</g>
</g>
<!-- Node3 -->
<g id="Node000003" class="node">
<title>Node3</title>
<g id="a_Node000003"><a xlink:title=" ">
<polygon fill="#e0e0e0" stroke="#999999" points="137.5,-19.25 81,-19.25 81,0 137.5,0 137.5,-19.25"/>
<text text-anchor="middle" x="109.25" y="-5.75" font-family="Helvetica,sans-Serif" font-size="10.00">Arduino.h</text>
</a>
</g>
</g>
<!-- Node2&#45;&gt;Node3 -->
<g id="edge2_Node000002_Node000003" class="edge">
<title>Node2&#45;&gt;Node3</title>
<g id="a_edge2_Node000002_Node000003"><a xlink:title=" ">
<path fill="none" stroke="#63b8ff" d="M78.36,-55.08C83.31,-47.96 90.45,-37.68 96.62,-28.8"/>
<polygon fill="#63b8ff" stroke="#63b8ff" points="99.31,-31.06 102.14,-20.85 93.56,-27.07 99.31,-31.06"/>
</a>
</g>
</g>
<!-- Node4 -->
<g id="Node000004" class="node">
<title>Node4</title>
<g id="a_Node000004"><a xlink:href="App_8h.html" target="_top" xlink:title="Abstract base class for applications.">
<polygon fill="white" stroke="#666666" points="62.5,-19.25 0,-19.25 0,0 62.5,0 62.5,-19.25"/>
<text text-anchor="middle" x="31.25" y="-5.75" font-family="Helvetica,sans-Serif" font-size="10.00">core/App.h</text>
</a>
</g>
</g>
<!-- Node2&#45;&gt;Node4 -->
<g id="edge3_Node000002_Node000004" class="edge">
<title>Node2&#45;&gt;Node4</title>
<g id="a_edge3_Node000002_Node000004"><a xlink:title=" ">
<path fill="none" stroke="#63b8ff" d="M65.48,-55.08C59.93,-47.88 51.91,-37.46 45.02,-28.51"/>
<polygon fill="#63b8ff" stroke="#63b8ff" points="47.96,-26.6 39.09,-20.81 42.42,-30.87 47.96,-26.6"/>
</a>
</g>
</g>
<!-- Node6 -->
<g id="Node000006" class="node">
<title>Node6</title>
<g id="a_Node000006"><a xlink:title=" ">
<polygon fill="#e0e0e0" stroke="#999999" points="325.25,-19.25 255.25,-19.25 255.25,0 325.25,0 325.25,-19.25"/>
<text text-anchor="middle" x="290.25" y="-5.75" font-family="Helvetica,sans-Serif" font-size="10.00">OneButton.h</text>
</a>
</g>
</g>
<!-- Node5&#45;&gt;Node6 -->
<g id="edge5_Node000005_Node000006" class="edge">
<title>Node5&#45;&gt;Node6</title>
<g id="a_edge5_Node000005_Node000006"><a xlink:title=" ">
<path fill="none" stroke="#63b8ff" d="M290.25,-55.08C290.25,-48.57 290.25,-39.42 290.25,-31.12"/>
<polygon fill="#63b8ff" stroke="#63b8ff" points="293.75,-31.12 290.25,-21.12 286.75,-31.12 293.75,-31.12"/>
</a>
</g>
</g>
<!-- Node7&#45;&gt;Node3 -->
<g id="edge7_Node000007_Node000003" class="edge">
<title>Node7&#45;&gt;Node3</title>
<g id="a_edge7_Node000007_Node000003"><a xlink:title=" ">
<path fill="none" stroke="#63b8ff" d="M164.88,-54.84C155.2,-47.15 141.05,-35.9 129.44,-26.68"/>
<polygon fill="#63b8ff" stroke="#63b8ff" points="131.64,-23.95 121.63,-20.47 127.28,-29.43 131.64,-23.95"/>
</a>
</g>
</g>
<!-- Node8 -->
<g id="Node000008" class="node">
<title>Node8</title>
<g id="a_Node000008"><a xlink:title=" ">
<polygon fill="#e0e0e0" stroke="#999999" points="224.5,-19.25 156,-19.25 156,0 224.5,0 224.5,-19.25"/>
<text text-anchor="middle" x="190.25" y="-5.75" font-family="Helvetica,sans-Serif" font-size="10.00">TFT_eSPI.h</text>
</a>
</g>
</g>
<!-- Node7&#45;&gt;Node8 -->
<g id="edge8_Node000007_Node000008" class="edge">
<title>Node7&#45;&gt;Node8</title>
<g id="a_edge8_Node000007_Node000008"><a xlink:title=" ">
<path fill="none" stroke="#63b8ff" d="M178.56,-55.08C180.31,-48.42 182.79,-38.99 185.02,-30.53"/>
<polygon fill="#63b8ff" stroke="#63b8ff" points="188.35,-31.63 187.5,-21.07 181.58,-29.85 188.35,-31.63"/>
</a>
</g>
</g>
</g>
</svg>
</svg>

<style type='text/css'>
<![CDATA[
[data-mouse-over-selected='false'] { opacity: 0.7; }
[data-mouse-over-selected='true']  { opacity: 1.0; }
]]>
</style>
<script type="application/ecmascript"><![CDATA[
document.addEventListener('DOMContentLoaded', (event) => {
  highlightEdges();
  highlightAdjacentNodes();
});
]]></script>
</svg>
