<?xml version="1.0" encoding="UTF-8" standalone="no"?>
<!DOCTYPE svg PUBLIC "-//W3C//DTD SVG 1.1//EN"
 "http://www.w3.org/Graphics/SVG/1.1/DTD/svg11.dtd">
<!-- Generated by graphviz version 12.2.0 (20241103.1931)
 -->
<!-- Title: src/hardware/Hardware.h Pages: 1 -->
<!--zoomable 160 -->

<svg id="main" version="1.1" xmlns="http://www.w3.org/2000/svg" xmlns:xlink="http://www.w3.org/1999/xlink" xml:space="preserve" onload="init(evt)">

<style type="text/css"><![CDATA[
.node, .edge {opacity: 0.7;}
.node.selected, .edge.selected {opacity: 1;}
.edge:hover path { stroke: red; }
.edge:hover polygon { stroke: red; fill: red; }
]]></style>

<defs>
  <circle id="rim" cx="0" cy="0" r="7"/>
  <circle id="rim2" cx="0" cy="0" r="3.5"/>
  <g id="zoomPlus">
    <use xlink:href="#rim" fill="#404040"><set attributeName="fill" to="#808080" begin="zoomplus.mouseover" end="zoomplus.mouseout"/></use>
    <path d="M-4,0h8M0,-4v8" fill="none" stroke="white" stroke-width="1.5" pointer-events="none"/>
  </g>
  <g id="zoomMin">
    <use xlink:href="#rim" fill="#404040"><set attributeName="fill" to="#808080" begin="zoomminus.mouseover" end="zoomminus.mouseout"/></use>
    <path d="M-4,0h8" fill="none" stroke="white" stroke-width="1.5" pointer-events="none"/>
  </g>
  <g id="arrowUp" transform="translate(30 24)">
    <use xlink:href="#rim"/>
    <path pointer-events="none" fill="none" stroke="white" stroke-width="1.5" d="M0,-3.0v7 M-2.5,-0.5L0,-3.0L2.5,-0.5"/>
  </g>
  <g id="arrowRight" transform="rotate(90) translate(36 -43)">
    <use xlink:href="#rim"/>
    <path pointer-events="none" fill="none" stroke="white" stroke-width="1.5" d="M0,-3.0v7 M-2.5,-0.5L0,-3.0L2.5,-0.5"/>
  </g>
  <g id="arrowDown" transform="rotate(180) translate(-30 -48)">
    <use xlink:href="#rim"/>
    <path pointer-events="none" fill="none" stroke="white" stroke-width="1.5" d="M0,-3.0v7 M-2.5,-0.5L0,-3.0L2.5,-0.5"/>
  </g>
  <g id="arrowLeft" transform="rotate(270) translate(-36 17)">
    <use xlink:href="#rim"/>
    <path pointer-events="none" fill="none" stroke="white" stroke-width="1.5" d="M0,-3.0v7 M-2.5,-0.5L0,-3.0L2.5,-0.5"/>
  </g>
  <g id="resetDef">
    <use xlink:href="#rim2" fill="#404040"><set attributeName="fill" to="#808080" begin="reset.mouseover" end="reset.mouseout"/></use>
  </g>
</defs>
<script type="application/ecmascript">
var viewWidth = 1052;
var viewHeight = 160;
var sectionId = 'dynsection-1';
</script>
<script type="application/ecmascript" xlink:href="svg.min.js"/>
<svg id="graph" class="graph">
<g id="viewport">
<title>src/hardware/Hardware.h</title>
<!-- Node1 -->
<g id="Node000001" class="node">
<title>Node1</title>
<g id="a_Node000001"><a xlink:title=" ">
<polygon fill="#999999" stroke="#666666" points="626.12,-152.25 501.38,-152.25 501.38,-133 626.12,-133 626.12,-152.25"/>
<text text-anchor="middle" x="563.75" y="-138.75" font-family="Helvetica,sans-Serif" font-size="10.00">src/hardware/Hardware.h</text>
</a>
</g>
</g>
<!-- Node2 -->
<g id="Node000002" class="node">
<title>Node2</title>
<g id="a_Node000002"><a xlink:href="ClockApp_8cpp.html" target="_top" xlink:title=" ">
<polygon fill="white" stroke="#666666" points="161.5,-91.38 0,-91.38 0,-72.12 161.5,-72.12 161.5,-91.38"/>
<text text-anchor="middle" x="80.75" y="-77.88" font-family="Helvetica,sans-Serif" font-size="10.00">src/apps/ClockApp/ClockApp.cpp</text>
</a>
</g>
</g>
<!-- Node1&#45;&gt;Node2 -->
<g id="edge1_Node000001_Node000002" class="edge">
<title>Node1&#45;&gt;Node2</title>
<g id="a_edge1_Node000001_Node000002"><a xlink:title=" ">
<path fill="none" stroke="#63b8ff" d="M489.73,-134.2C410.63,-126.04 281.65,-112.07 170.75,-97 159.31,-95.45 147.07,-93.62 135.43,-91.8"/>
<polygon fill="#63b8ff" stroke="#63b8ff" points="489.21,-137.67 499.52,-135.21 489.93,-130.7 489.21,-137.67"/>
</a>
</g>
</g>
<!-- Node3 -->
<g id="Node000003" class="node">
<title>Node3</title>
<g id="a_Node000003"><a xlink:href="CurrencyConverterApp_8cpp.html" target="_top" xlink:title=" ">
<polygon fill="white" stroke="#666666" points="331.62,-97 179.88,-97 179.88,-66.5 331.62,-66.5 331.62,-97"/>
<text text-anchor="start" x="187.88" y="-83.5" font-family="Helvetica,sans-Serif" font-size="10.00">src/apps/CurrencyConverter</text>
<text text-anchor="middle" x="255.75" y="-72.25" font-family="Helvetica,sans-Serif" font-size="10.00">App/CurrencyConverterApp.cpp</text>
</a>
</g>
</g>
<!-- Node1&#45;&gt;Node3 -->
<g id="edge2_Node000001_Node000003" class="edge">
<title>Node1&#45;&gt;Node3</title>
<g id="a_edge2_Node000001_Node000003"><a xlink:title=" ">
<path fill="none" stroke="#63b8ff" d="M505.23,-130.44C456.1,-121.05 385.57,-107.57 332.03,-97.33"/>
<polygon fill="#63b8ff" stroke="#63b8ff" points="504.33,-133.83 514.81,-132.27 505.65,-126.96 504.33,-133.83"/>
</a>
</g>
</g>
<!-- Node4 -->
<g id="Node000004" class="node">
<title>Node4</title>
<g id="a_Node000004"><a xlink:href="GooglyEyes_8cpp.html" target="_top" xlink:title=" ">
<polygon fill="white" stroke="#666666" points="457.5,-97 350,-97 350,-66.5 457.5,-66.5 457.5,-97"/>
<text text-anchor="start" x="358" y="-83.5" font-family="Helvetica,sans-Serif" font-size="10.00">src/apps/GooglyEyes</text>
<text text-anchor="middle" x="403.75" y="-72.25" font-family="Helvetica,sans-Serif" font-size="10.00">/GooglyEyes.cpp</text>
</a>
</g>
</g>
<!-- Node1&#45;&gt;Node4 -->
<g id="edge3_Node000001_Node000004" class="edge">
<title>Node1&#45;&gt;Node4</title>
<g id="a_edge3_Node000001_Node000004"><a xlink:title=" ">
<path fill="none" stroke="#63b8ff" d="M528.59,-128.69C503.52,-119.46 469.77,-107.04 443.68,-97.44"/>
<polygon fill="#63b8ff" stroke="#63b8ff" points="527.09,-131.86 537.68,-132.03 529.5,-125.29 527.09,-131.86"/>
</a>
</g>
</g>
<!-- Node5 -->
<g id="Node000005" class="node">
<title>Node5</title>
<g id="a_Node000005"><a xlink:href="MatrixApp_8cpp.html" target="_top" xlink:title=" ">
<polygon fill="white" stroke="#666666" points="561.75,-30.5 461.75,-30.5 461.75,0 561.75,0 561.75,-30.5"/>
<text text-anchor="start" x="469.75" y="-17" font-family="Helvetica,sans-Serif" font-size="10.00">src/apps/MatrixApp</text>
<text text-anchor="middle" x="511.75" y="-5.75" font-family="Helvetica,sans-Serif" font-size="10.00">/MatrixApp.cpp</text>
</a>
</g>
</g>
<!-- Node1&#45;&gt;Node5 -->
<g id="edge4_Node000001_Node000005" class="edge">
<title>Node1&#45;&gt;Node5</title>
<g id="a_edge4_Node000001_Node000005"><a xlink:title=" ">
<path fill="none" stroke="#63b8ff" d="M533.91,-126.79C522.62,-119.49 510.99,-109.54 504.75,-97 494.22,-75.83 500.53,-47.67 506.1,-30.81"/>
<polygon fill="#63b8ff" stroke="#63b8ff" points="531.92,-129.68 542.31,-131.75 535.48,-123.65 531.92,-129.68"/>
</a>
</g>
</g>
<!-- Node6 -->
<g id="Node000006" class="node">
<title>Node6</title>
<g id="a_Node000006"><a xlink:href="MatrixApp_8h.html" target="_top" xlink:title=" ">
<polygon fill="white" stroke="#666666" points="613.75,-97 513.75,-97 513.75,-66.5 613.75,-66.5 613.75,-97"/>
<text text-anchor="start" x="521.75" y="-83.5" font-family="Helvetica,sans-Serif" font-size="10.00">src/apps/MatrixApp</text>
<text text-anchor="middle" x="563.75" y="-72.25" font-family="Helvetica,sans-Serif" font-size="10.00">/MatrixApp.h</text>
</a>
</g>
</g>
<!-- Node1&#45;&gt;Node6 -->
<g id="edge5_Node000001_Node000006" class="edge">
<title>Node1&#45;&gt;Node6</title>
<g id="a_edge5_Node000001_Node000006"><a xlink:title=" ">
<path fill="none" stroke="#63b8ff" d="M563.75,-121.42C563.75,-113.49 563.75,-104.56 563.75,-97.28"/>
<polygon fill="#63b8ff" stroke="#63b8ff" points="560.25,-121.17 563.75,-131.17 567.25,-121.17 560.25,-121.17"/>
</a>
</g>
</g>
<!-- Node7 -->
<g id="Node000007" class="node">
<title>Node7</title>
<g id="a_Node000007"><a xlink:href="main_8cpp.html" target="_top" xlink:title=" ">
<polygon fill="white" stroke="#666666" points="664.5,-24.88 593,-24.88 593,-5.63 664.5,-5.63 664.5,-24.88"/>
<text text-anchor="middle" x="628.75" y="-11.38" font-family="Helvetica,sans-Serif" font-size="10.00">src/main.cpp</text>
</a>
</g>
</g>
<!-- Node1&#45;&gt;Node7 -->
<g id="edge11_Node000001_Node000007" class="edge">
<title>Node1&#45;&gt;Node7</title>
<g id="a_edge11_Node000001_Node000007"><a xlink:title=" ">
<path fill="none" stroke="#63b8ff" d="M592.65,-126.86C604.02,-119.5 615.96,-109.47 622.75,-97 635.52,-73.54 632.64,-40.42 630.31,-24.91"/>
<polygon fill="#63b8ff" stroke="#63b8ff" points="591.05,-123.74 584.25,-131.87 594.64,-129.76 591.05,-123.74"/>
</a>
</g>
</g>
<!-- Node8 -->
<g id="Node000008" class="node">
<title>Node8</title>
<g id="a_Node000008"><a xlink:href="PomodoroApp_8cpp.html" target="_top" xlink:title=" ">
<polygon fill="white" stroke="#666666" points="787.75,-97 669.75,-97 669.75,-66.5 787.75,-66.5 787.75,-97"/>
<text text-anchor="start" x="677.75" y="-83.5" font-family="Helvetica,sans-Serif" font-size="10.00">src/apps/PomodoroApp</text>
<text text-anchor="middle" x="728.75" y="-72.25" font-family="Helvetica,sans-Serif" font-size="10.00">/PomodoroApp.cpp</text>
</a>
</g>
</g>
<!-- Node1&#45;&gt;Node8 -->
<g id="edge8_Node000001_Node000008" class="edge">
<title>Node1&#45;&gt;Node8</title>
<g id="a_edge8_Node000001_Node000008"><a xlink:title=" ">
<path fill="none" stroke="#63b8ff" d="M600,-128.69C625.86,-119.46 660.66,-107.04 687.57,-97.44"/>
<polygon fill="#63b8ff" stroke="#63b8ff" points="598.84,-125.39 590.6,-132.05 601.19,-131.98 598.84,-125.39"/>
</a>
</g>
</g>
<!-- Node9 -->
<g id="Node000009" class="node">
<title>Node9</title>
<g id="a_Node000009"><a xlink:href="AppLauncher_8cpp.html" target="_top" xlink:title=" ">
<polygon fill="white" stroke="#666666" points="917.75,-97 805.75,-97 805.75,-66.5 917.75,-66.5 917.75,-97"/>
<text text-anchor="start" x="813.75" y="-83.5" font-family="Helvetica,sans-Serif" font-size="10.00">src/core/AppLauncher</text>
<text text-anchor="middle" x="861.75" y="-72.25" font-family="Helvetica,sans-Serif" font-size="10.00">/AppLauncher.cpp</text>
</a>
</g>
</g>
<!-- Node1&#45;&gt;Node9 -->
<g id="edge9_Node000001_Node000009" class="edge">
<title>Node1&#45;&gt;Node9</title>
<g id="a_edge9_Node000001_Node000009"><a xlink:title=" ">
<path fill="none" stroke="#63b8ff" d="M624.59,-130.43C671.66,-121.66 738.42,-108.98 796.75,-97 799.58,-96.42 802.48,-95.82 805.4,-95.2"/>
<polygon fill="#63b8ff" stroke="#63b8ff" points="624.05,-126.97 614.86,-132.24 625.33,-133.85 624.05,-126.97"/>
</a>
</g>
</g>
<!-- Node10 -->
<g id="Node000010" class="node">
<title>Node10</title>
<g id="a_Node000010"><a xlink:href="SettingsApp_8cpp.html" target="_top" xlink:title=" ">
<polygon fill="white" stroke="#666666" points="1043.5,-97 936,-97 936,-66.5 1043.5,-66.5 1043.5,-97"/>
<text text-anchor="start" x="944" y="-83.5" font-family="Helvetica,sans-Serif" font-size="10.00">src/core/SettingsApp</text>
<text text-anchor="middle" x="989.75" y="-72.25" font-family="Helvetica,sans-Serif" font-size="10.00">/SettingsApp.cpp</text>
</a>
</g>
</g>
<!-- Node1&#45;&gt;Node10 -->
<g id="edge10_Node000001_Node000010" class="edge">
<title>Node1&#45;&gt;Node10</title>
<g id="a_edge10_Node000001_Node000010"><a xlink:title=" ">
<path fill="none" stroke="#63b8ff" d="M637.77,-134.72C711.36,-127.34 827.29,-114.32 926.75,-97 929.62,-96.5 932.56,-95.95 935.52,-95.38"/>
<polygon fill="#63b8ff" stroke="#63b8ff" points="637.45,-131.23 627.84,-135.7 638.14,-138.2 637.45,-131.23"/>
</a>
</g>
</g>
<!-- Node6&#45;&gt;Node5 -->
<g id="edge6_Node000006_Node000005" class="edge">
<title>Node6&#45;&gt;Node5</title>
<g id="a_edge6_Node000006_Node000005"><a xlink:title=" ">
<path fill="none" stroke="#63b8ff" d="M544.89,-57.35C537.74,-48.48 529.81,-38.65 523.5,-30.83"/>
<polygon fill="#63b8ff" stroke="#63b8ff" points="542,-59.35 551,-64.94 547.45,-54.95 542,-59.35"/>
</a>
</g>
</g>
<!-- Node6&#45;&gt;Node7 -->
<g id="edge7_Node000006_Node000007" class="edge">
<title>Node6&#45;&gt;Node7</title>
<g id="a_edge7_Node000006_Node000007"><a xlink:title=" ">
<path fill="none" stroke="#63b8ff" d="M586.47,-58.21C597.98,-46.78 611.29,-33.57 619.86,-25.07"/>
<polygon fill="#63b8ff" stroke="#63b8ff" points="584.21,-55.52 579.57,-65.05 589.14,-60.49 584.21,-55.52"/>
</a>
</g>
</g>
</g>
</svg>

<g id="navigator" transform="translate(0 0)" fill="#404254">
  <rect fill="#f2f5e9" fill-opacity="0.5" stroke="#606060" stroke-width=".5" x="0" y="0" width="60" height="60"/>
  <use id="zoomplus" xlink:href="#zoomPlus" x="17" y="9" onmousedown="handleZoom(evt,'in')"/>
  <use id="zoomminus" xlink:href="#zoomMin" x="42" y="9" onmousedown="handleZoom(evt,'out')"/>
  <use id="reset" xlink:href="#resetDef" x="30" y="36" onmousedown="handleReset()"/>
   <use id="arrowup" xlink:href="#arrowUp" x="0" y="0" onmousedown="handlePan(0,-1)"/>
  <use id="arrowright" xlink:href="#arrowRight" x="0" y="0" onmousedown="handlePan(1,0)"/>
  <use id="arrowdown" xlink:href="#arrowDown" x="0" y="0" onmousedown="handlePan(0,1)"/>
  <use id="arrowleft" xlink:href="#arrowLeft" x="0" y="0" onmousedown="handlePan(-1,0)"/>
</g>
<svg viewBox="0 0 15 15" width="100%" height="30px" preserveAspectRatio="xMaxYMin meet">
 <g id="arrow_out" transform="scale(0.3 0.3)">
  <a xlink:href="Hardware_8h__dep__incl_org.svg" target="_base">
   <rect id="button" ry="5" rx="5" y="6" x="6" height="38" width="38"
        fill="#f2f5e9" fill-opacity="0.5" stroke="#606060" stroke-width="1.0"/>
   <path id="arrow"
     d="M 11.500037,31.436501 C 11.940474,20.09759 22.043105,11.32322 32.158766,21.979434 L 37.068811,17.246167 C 37.068811,17.246167 37.088388,32 37.088388,32 L 22.160133,31.978069 C 22.160133,31.978069 26.997745,27.140456 26.997745,27.140456 C 18.528582,18.264221 13.291696,25.230495 11.500037,31.436501 z"
     style="fill:#404040;"/>
  </a>
 </g>
</svg>

<style type='text/css'>
<![CDATA[
[data-mouse-over-selected='false'] { opacity: 0.7; }
[data-mouse-over-selected='true']  { opacity: 1.0; }
]]>
</style>
<script type="application/ecmascript"><![CDATA[
document.addEventListener('DOMContentLoaded', (event) => {
  highlightEdges();
  highlightAdjacentNodes();
});
]]></script>
</svg>
