<?xml version="1.0" encoding="UTF-8" standalone="no"?>
<!DOCTYPE svg PUBLIC "-//W3C//DTD SVG 1.1//EN"
 "http://www.w3.org/Graphics/SVG/1.1/DTD/svg11.dtd">
<!-- Generated by graphviz version 12.2.0 (20241103.1931)
 -->
<!-- Title: src/hardware/Hardware.h Pages: 1 -->
<svg width="778pt" height="94pt"
 viewBox="0.00 0.00 777.50 93.75" xmlns="http://www.w3.org/2000/svg" xmlns:xlink="http://www.w3.org/1999/xlink">
<g id="graph0" class="graph" transform="scale(1 1) rotate(0) translate(4 89.75)">
<title>src/hardware/Hardware.h</title>
<!-- Node1 -->
<g id="Node000001" class="node">
<title>Node1</title>
<g id="a_Node000001"><a xlink:title=" ">
<polygon fill="#999999" stroke="#666666" points="493.12,-85.75 368.38,-85.75 368.38,-66.5 493.12,-66.5 493.12,-85.75"/>
<text text-anchor="middle" x="430.75" y="-72.25" font-family="Helvetica,sans-Serif" font-size="10.00">src/hardware/Hardware.h</text>
</a>
</g>
</g>
<!-- Node2 -->
<g id="Node000002" class="node">
<title>Node2</title>
<g id="a_Node000002"><a xlink:href="ClockApp_8cpp.html" target="_top" xlink:title=" ">
<polygon fill="white" stroke="#666666" points="161.5,-24.88 0,-24.88 0,-5.63 161.5,-5.63 161.5,-24.88"/>
<text text-anchor="middle" x="80.75" y="-11.38" font-family="Helvetica,sans-Serif" font-size="10.00">src/apps/ClockApp/ClockApp.cpp</text>
</a>
</g>
</g>
<!-- Node1&#45;&gt;Node2 -->
<g id="edge1_Node000001_Node000002" class="edge">
<title>Node1&#45;&gt;Node2</title>
<g id="a_edge1_Node000001_Node000002"><a xlink:title=" ">
<path fill="none" stroke="#63b8ff" d="M365.65,-64.17C299.1,-52.98 196.93,-35.79 134.73,-25.33"/>
<polygon fill="#63b8ff" stroke="#63b8ff" points="364.89,-67.6 375.34,-65.8 366.06,-60.69 364.89,-67.6"/>
</a>
</g>
</g>
<!-- Node3 -->
<g id="Node000003" class="node">
<title>Node3</title>
<g id="a_Node000003"><a xlink:href="GooglyEyes_8cpp.html" target="_top" xlink:title=" ">
<polygon fill="white" stroke="#666666" points="287.5,-30.5 180,-30.5 180,0 287.5,0 287.5,-30.5"/>
<text text-anchor="start" x="188" y="-17" font-family="Helvetica,sans-Serif" font-size="10.00">src/apps/GooglyEyes</text>
<text text-anchor="middle" x="233.75" y="-5.75" font-family="Helvetica,sans-Serif" font-size="10.00">/GooglyEyes.cpp</text>
</a>
</g>
</g>
<!-- Node1&#45;&gt;Node3 -->
<g id="edge2_Node000001_Node000003" class="edge">
<title>Node1&#45;&gt;Node3</title>
<g id="a_edge2_Node000001_Node000003"><a xlink:title=" ">
<path fill="none" stroke="#63b8ff" d="M389.52,-62.8C358.46,-53.52 315.76,-40.76 282.92,-30.94"/>
<polygon fill="#63b8ff" stroke="#63b8ff" points="388.37,-66.11 398.95,-65.62 390.37,-59.4 388.37,-66.11"/>
</a>
</g>
</g>
<!-- Node4 -->
<g id="Node000004" class="node">
<title>Node4</title>
<g id="a_Node000004"><a xlink:href="PomodoroApp_8cpp.html" target="_top" xlink:title=" ">
<polygon fill="white" stroke="#666666" points="423.75,-30.5 305.75,-30.5 305.75,0 423.75,0 423.75,-30.5"/>
<text text-anchor="start" x="313.75" y="-17" font-family="Helvetica,sans-Serif" font-size="10.00">src/apps/PomodoroApp</text>
<text text-anchor="middle" x="364.75" y="-5.75" font-family="Helvetica,sans-Serif" font-size="10.00">/PomodoroApp.cpp</text>
</a>
</g>
</g>
<!-- Node1&#45;&gt;Node4 -->
<g id="edge3_Node000001_Node000004" class="edge">
<title>Node1&#45;&gt;Node4</title>
<g id="a_edge3_Node000001_Node000004"><a xlink:title=" ">
<path fill="none" stroke="#63b8ff" d="M412.13,-58.52C402.35,-49.79 390.46,-39.18 381.04,-30.78"/>
<polygon fill="#63b8ff" stroke="#63b8ff" points="409.8,-61.13 419.6,-65.18 414.46,-55.91 409.8,-61.13"/>
</a>
</g>
</g>
<!-- Node5 -->
<g id="Node000005" class="node">
<title>Node5</title>
<g id="a_Node000005"><a xlink:href="AppLauncher_8cpp.html" target="_top" xlink:title=" ">
<polygon fill="white" stroke="#666666" points="553.75,-30.5 441.75,-30.5 441.75,0 553.75,0 553.75,-30.5"/>
<text text-anchor="start" x="449.75" y="-17" font-family="Helvetica,sans-Serif" font-size="10.00">src/core/AppLauncher</text>
<text text-anchor="middle" x="497.75" y="-5.75" font-family="Helvetica,sans-Serif" font-size="10.00">/AppLauncher.cpp</text>
</a>
</g>
</g>
<!-- Node1&#45;&gt;Node5 -->
<g id="edge4_Node000001_Node000005" class="edge">
<title>Node1&#45;&gt;Node5</title>
<g id="a_edge4_Node000001_Node000005"><a xlink:title=" ">
<path fill="none" stroke="#63b8ff" d="M449.34,-58.79C459.33,-50.01 471.55,-39.27 481.21,-30.78"/>
<polygon fill="#63b8ff" stroke="#63b8ff" points="447.26,-55.95 442.06,-65.18 451.89,-61.21 447.26,-55.95"/>
</a>
</g>
</g>
<!-- Node6 -->
<g id="Node000006" class="node">
<title>Node6</title>
<g id="a_Node000006"><a xlink:href="SettingsApp_8cpp.html" target="_top" xlink:title=" ">
<polygon fill="white" stroke="#666666" points="679.5,-30.5 572,-30.5 572,0 679.5,0 679.5,-30.5"/>
<text text-anchor="start" x="580" y="-17" font-family="Helvetica,sans-Serif" font-size="10.00">src/core/SettingsApp</text>
<text text-anchor="middle" x="625.75" y="-5.75" font-family="Helvetica,sans-Serif" font-size="10.00">/SettingsApp.cpp</text>
</a>
</g>
</g>
<!-- Node1&#45;&gt;Node6 -->
<g id="edge5_Node000001_Node000006" class="edge">
<title>Node1&#45;&gt;Node6</title>
<g id="a_edge5_Node000001_Node000006"><a xlink:title=" ">
<path fill="none" stroke="#63b8ff" d="M471.56,-62.8C502.3,-53.52 544.57,-40.76 577.08,-30.94"/>
<polygon fill="#63b8ff" stroke="#63b8ff" points="470.8,-59.38 462.24,-65.62 472.83,-66.08 470.8,-59.38"/>
</a>
</g>
</g>
<!-- Node7 -->
<g id="Node000007" class="node">
<title>Node7</title>
<g id="a_Node000007"><a xlink:href="main_8cpp.html" target="_top" xlink:title=" ">
<polygon fill="white" stroke="#666666" points="769.5,-24.88 698,-24.88 698,-5.63 769.5,-5.63 769.5,-24.88"/>
<text text-anchor="middle" x="733.75" y="-11.38" font-family="Helvetica,sans-Serif" font-size="10.00">src/main.cpp</text>
</a>
</g>
</g>
<!-- Node1&#45;&gt;Node7 -->
<g id="edge6_Node000001_Node000007" class="edge">
<title>Node1&#45;&gt;Node7</title>
<g id="a_edge6_Node000001_Node000007"><a xlink:title=" ">
<path fill="none" stroke="#63b8ff" d="M504.64,-65.06C556.53,-57.34 627.34,-45.46 688.75,-30.5 694.8,-29.03 701.23,-27.17 707.27,-25.29"/>
<polygon fill="#63b8ff" stroke="#63b8ff" points="504.42,-61.56 495.03,-66.47 505.44,-68.48 504.42,-61.56"/>
</a>
</g>
</g>
</g>
</svg>
