<?xml version="1.0" encoding="UTF-8" standalone="no"?>
<!DOCTYPE svg PUBLIC "-//W3C//DTD SVG 1.1//EN"
 "http://www.w3.org/Graphics/SVG/1.1/DTD/svg11.dtd">
<!-- Generated by graphviz version 7.0.5 (20221223.1930)
 -->
<!-- Title: Graphical Class Hierarchy Pages: 1 -->
<svg width="163pt" height="175pt"
 viewBox="0.00 0.00 163.00 175.00" xmlns="http://www.w3.org/2000/svg" xmlns:xlink="http://www.w3.org/1999/xlink">
<g id="graph0" class="graph" transform="scale(1 1) rotate(0) translate(4 171)">
<title>Graphical Class Hierarchy</title>
<!-- Node0 -->
<g id="node1" class="node">
<title>Node0</title>
<g id="a_node1"><a xlink:href="classApp.html" target="_top" xlink:title="Abstract base class for applications.">
<polygon fill="white" stroke="#666666" points="34,-93 0,-93 0,-74 34,-74 34,-93"/>
<text text-anchor="middle" x="17" y="-81" font-family="Helvetica,sans-Serif" font-size="10.00">App</text>
</a>
</g>
</g>
<!-- Node1 -->
<g id="node2" class="node">
<title>Node1</title>
<g id="a_node2"><a xlink:href="classAppLauncher.html" target="_top" xlink:title=" ">
<polygon fill="white" stroke="#666666" points="149.5,-167 75.5,-167 75.5,-148 149.5,-148 149.5,-167"/>
<text text-anchor="middle" x="112.5" y="-155" font-family="Helvetica,sans-Serif" font-size="10.00">AppLauncher</text>
</a>
</g>
</g>
<!-- Node0&#45;&gt;Node1 -->
<g id="edge1" class="edge">
<title>Node0&#45;&gt;Node1</title>
<path fill="none" stroke="#63b8ff" d="M32.2,-102.44C41.84,-114.29 55.45,-129.2 70,-139.5 74.36,-142.58 79.33,-145.3 84.28,-147.63"/>
<polygon fill="#63b8ff" stroke="#63b8ff" points="34.96,-100.28 26.04,-94.57 29.45,-104.6 34.96,-100.28"/>
</g>
<!-- Node2 -->
<g id="node3" class="node">
<title>Node2</title>
<g id="a_node3"><a xlink:href="classClockApp.html" target="_top" xlink:title="Simple clock application.">
<polygon fill="white" stroke="#666666" points="142,-130 83,-130 83,-111 142,-111 142,-130"/>
<text text-anchor="middle" x="112.5" y="-118" font-family="Helvetica,sans-Serif" font-size="10.00">ClockApp</text>
</a>
</g>
</g>
<!-- Node0&#45;&gt;Node2 -->
<g id="edge2" class="edge">
<title>Node0&#45;&gt;Node2</title>
<path fill="none" stroke="#63b8ff" d="M44.94,-94.16C57.95,-99.31 73.47,-105.45 86.25,-110.51"/>
<polygon fill="#63b8ff" stroke="#63b8ff" points="46.28,-90.93 35.69,-90.5 43.7,-97.44 46.28,-90.93"/>
</g>
<!-- Node3 -->
<g id="node4" class="node">
<title>Node3</title>
<g id="a_node4"><a xlink:href="classGooglyEyesApp.html" target="_top" xlink:title="Basic application to display googly eyes on the screen.">
<polygon fill="white" stroke="#666666" points="155,-93 70,-93 70,-74 155,-74 155,-93"/>
<text text-anchor="middle" x="112.5" y="-81" font-family="Helvetica,sans-Serif" font-size="10.00">GooglyEyesApp</text>
</a>
</g>
</g>
<!-- Node0&#45;&gt;Node3 -->
<g id="edge3" class="edge">
<title>Node0&#45;&gt;Node3</title>
<path fill="none" stroke="#63b8ff" d="M45.68,-83.5C53.22,-83.5 61.56,-83.5 69.69,-83.5"/>
<polygon fill="#63b8ff" stroke="#63b8ff" points="45.8,-80 35.8,-83.5 45.8,-87 45.8,-80"/>
</g>
<!-- Node4 -->
<g id="node5" class="node">
<title>Node4</title>
<g id="a_node5"><a xlink:href="classPomodoroApp.html" target="_top" xlink:title="Simple pomodoro timer application.">
<polygon fill="white" stroke="#666666" points="151.5,-56 73.5,-56 73.5,-37 151.5,-37 151.5,-56"/>
<text text-anchor="middle" x="112.5" y="-44" font-family="Helvetica,sans-Serif" font-size="10.00">PomodoroApp</text>
</a>
</g>
</g>
<!-- Node0&#45;&gt;Node4 -->
<g id="edge4" class="edge">
<title>Node0&#45;&gt;Node4</title>
<path fill="none" stroke="#63b8ff" d="M44.94,-72.84C57.95,-67.69 73.47,-61.55 86.25,-56.49"/>
<polygon fill="#63b8ff" stroke="#63b8ff" points="43.7,-69.56 35.69,-76.5 46.28,-76.07 43.7,-69.56"/>
</g>
<!-- Node5 -->
<g id="node6" class="node">
<title>Node5</title>
<g id="a_node6"><a xlink:href="classSettingsApp.html" target="_top" xlink:title="Application for managing settings, including WiFi configuration.">
<polygon fill="white" stroke="#666666" points="147.5,-19 77.5,-19 77.5,0 147.5,0 147.5,-19"/>
<text text-anchor="middle" x="112.5" y="-7" font-family="Helvetica,sans-Serif" font-size="10.00">SettingsApp</text>
</a>
</g>
</g>
<!-- Node0&#45;&gt;Node5 -->
<g id="edge5" class="edge">
<title>Node0&#45;&gt;Node5</title>
<path fill="none" stroke="#63b8ff" d="M32.34,-65.01C42.03,-53.42 55.64,-38.78 70,-28.5 74.77,-25.09 80.25,-22.06 85.63,-19.48"/>
<polygon fill="#63b8ff" stroke="#63b8ff" points="29.7,-62.71 26.14,-72.69 35.14,-67.11 29.7,-62.71"/>
</g>
</g>
</svg>
