<?xml version="1.0" encoding="UTF-8" standalone="no"?>
<!DOCTYPE svg PUBLIC "-//W3C//DTD SVG 1.1//EN"
 "http://www.w3.org/Graphics/SVG/1.1/DTD/svg11.dtd">
<!-- Generated by graphviz version 12.2.0 (20241103.1931)
 -->
<!-- Title: Graphical Class Hierarchy Pages: 1 -->
<svg width="162pt" height="212pt"
 viewBox="0.00 0.00 161.50 212.25" xmlns="http://www.w3.org/2000/svg" xmlns:xlink="http://www.w3.org/1999/xlink">
<g id="graph0" class="graph" transform="scale(1 1) rotate(0) translate(4 208.25)">
<title>Graphical Class Hierarchy</title>
<!-- Node0 -->
<g id="Node000000" class="node">
<title>Node0</title>
<g id="a_Node000000"><a xlink:href="classApp.html" target="_top" xlink:title="Abstract base class for applications.">
<polygon fill="white" stroke="#666666" points="33.25,-111.25 0,-111.25 0,-92 33.25,-92 33.25,-111.25"/>
<text text-anchor="middle" x="16.62" y="-97.75" font-family="Helvetica,sans-Serif" font-size="10.00">App</text>
</a>
</g>
</g>
<!-- Node1 -->
<g id="Node000001" class="node">
<title>Node1</title>
<g id="a_Node000001"><a xlink:href="classAppLauncher.html" target="_top" xlink:title="Application for launching and managing other applications.">
<polygon fill="white" stroke="#666666" points="148.25,-204.25 74.5,-204.25 74.5,-185 148.25,-185 148.25,-204.25"/>
<text text-anchor="middle" x="111.38" y="-190.75" font-family="Helvetica,sans-Serif" font-size="10.00">AppLauncher</text>
</a>
</g>
</g>
<!-- Node0&#45;&gt;Node1 -->
<g id="edge1_Node000000_Node000001" class="edge">
<title>Node0&#45;&gt;Node1</title>
<g id="a_edge1_Node000000_Node000001"><a xlink:title=" ">
<path fill="none" stroke="#63b8ff" d="M27.28,-121.48C36.2,-138.08 50.85,-161.43 69.25,-176.62 72.98,-179.7 77.31,-182.34 81.74,-184.58"/>
<polygon fill="#63b8ff" stroke="#63b8ff" points="30.63,-120.34 22.95,-113.04 24.4,-123.53 30.63,-120.34"/>
</a>
</g>
</g>
<!-- Node2 -->
<g id="Node000002" class="node">
<title>Node2</title>
<g id="a_Node000002"><a xlink:href="classClockApp.html" target="_top" xlink:title="Simple clock application.">
<polygon fill="white" stroke="#666666" points="140.38,-167.25 82.38,-167.25 82.38,-148 140.38,-148 140.38,-167.25"/>
<text text-anchor="middle" x="111.38" y="-153.75" font-family="Helvetica,sans-Serif" font-size="10.00">ClockApp</text>
</a>
</g>
</g>
<!-- Node0&#45;&gt;Node2 -->
<g id="edge2_Node000000_Node000002" class="edge">
<title>Node0&#45;&gt;Node2</title>
<g id="a_edge2_Node000000_Node000002"><a xlink:title=" ">
<path fill="none" stroke="#63b8ff" d="M38.17,-118.38C47.36,-125.44 58.52,-133.43 69.25,-139.62 74.24,-142.51 79.79,-145.23 85.15,-147.64"/>
<polygon fill="#63b8ff" stroke="#63b8ff" points="40.62,-115.86 30.6,-112.42 36.29,-121.36 40.62,-115.86"/>
</a>
</g>
</g>
<!-- Node3 -->
<g id="Node000003" class="node">
<title>Node3</title>
<g id="a_Node000003"><a xlink:href="classGooglyEyesApp.html" target="_top" xlink:title="Basic application to display googly eyes on the screen.">
<polygon fill="white" stroke="#666666" points="153.5,-130.25 69.25,-130.25 69.25,-111 153.5,-111 153.5,-130.25"/>
<text text-anchor="middle" x="111.38" y="-116.75" font-family="Helvetica,sans-Serif" font-size="10.00">GooglyEyesApp</text>
</a>
</g>
</g>
<!-- Node0&#45;&gt;Node3 -->
<g id="edge3_Node000000_Node000003" class="edge">
<title>Node0&#45;&gt;Node3</title>
<g id="a_edge3_Node000000_Node000003"><a xlink:title=" ">
<path fill="none" stroke="#63b8ff" d="M44.51,-107.13C52.15,-108.7 60.66,-110.44 68.96,-112.14"/>
<polygon fill="#63b8ff" stroke="#63b8ff" points="45.34,-103.73 34.84,-105.15 43.94,-110.59 45.34,-103.73"/>
</a>
</g>
</g>
<!-- Node4 -->
<g id="Node000004" class="node">
<title>Node4</title>
<g id="a_Node000004"><a xlink:href="classMatrixApp.html" target="_top" xlink:title=" ">
<polygon fill="white" stroke="#666666" points="141.12,-93.25 81.62,-93.25 81.62,-74 141.12,-74 141.12,-93.25"/>
<text text-anchor="middle" x="111.38" y="-79.75" font-family="Helvetica,sans-Serif" font-size="10.00">MatrixApp</text>
</a>
</g>
</g>
<!-- Node0&#45;&gt;Node4 -->
<g id="edge4_Node000000_Node000004" class="edge">
<title>Node0&#45;&gt;Node4</title>
<g id="a_edge4_Node000000_Node000004"><a xlink:title=" ">
<path fill="none" stroke="#63b8ff" d="M44.54,-96.4C56.1,-94.16 69.64,-91.53 81.42,-89.25"/>
<polygon fill="#63b8ff" stroke="#63b8ff" points="43.99,-92.94 34.84,-98.28 45.33,-99.81 43.99,-92.94"/>
</a>
</g>
</g>
<!-- Node5 -->
<g id="Node000005" class="node">
<title>Node5</title>
<g id="a_Node000005"><a xlink:href="classPomodoroApp.html" target="_top" xlink:title="Simple pomodoro timer application.">
<polygon fill="white" stroke="#666666" points="150.12,-56.25 72.62,-56.25 72.62,-37 150.12,-37 150.12,-56.25"/>
<text text-anchor="middle" x="111.38" y="-42.75" font-family="Helvetica,sans-Serif" font-size="10.00">PomodoroApp</text>
</a>
</g>
</g>
<!-- Node0&#45;&gt;Node5 -->
<g id="edge5_Node000000_Node000005" class="edge">
<title>Node0&#45;&gt;Node5</title>
<g id="a_edge5_Node000000_Node000005"><a xlink:title=" ">
<path fill="none" stroke="#63b8ff" d="M38.89,-84.86C47.96,-78.11 58.83,-70.55 69.25,-64.62 74.26,-61.77 79.81,-59.07 85.17,-56.66"/>
<polygon fill="#63b8ff" stroke="#63b8ff" points="36.9,-81.97 31.07,-90.82 41.14,-87.54 36.9,-81.97"/>
</a>
</g>
</g>
<!-- Node6 -->
<g id="Node000006" class="node">
<title>Node6</title>
<g id="a_Node000006"><a xlink:href="classSettingsApp.html" target="_top" xlink:title="Application for managing settings, including WiFi configuration.">
<polygon fill="white" stroke="#666666" points="146,-19.25 76.75,-19.25 76.75,0 146,0 146,-19.25"/>
<text text-anchor="middle" x="111.38" y="-5.75" font-family="Helvetica,sans-Serif" font-size="10.00">SettingsApp</text>
</a>
</g>
</g>
<!-- Node0&#45;&gt;Node6 -->
<g id="edge6_Node000000_Node000006" class="edge">
<title>Node0&#45;&gt;Node6</title>
<g id="a_edge6_Node000000_Node000006"><a xlink:title=" ">
<path fill="none" stroke="#63b8ff" d="M27.6,-81.57C36.58,-65.22 51.15,-42.48 69.25,-27.62 72.99,-24.56 77.32,-21.92 81.75,-19.69"/>
<polygon fill="#63b8ff" stroke="#63b8ff" points="24.53,-79.87 22.99,-90.35 30.73,-83.12 24.53,-79.87"/>
</a>
</g>
</g>
</g>
</svg>
