<?xml version="1.0" encoding="UTF-8" standalone="no"?>
<!DOCTYPE svg PUBLIC "-//W3C//DTD SVG 1.1//EN"
 "http://www.w3.org/Graphics/SVG/1.1/DTD/svg11.dtd">
<!-- Generated by graphviz version 12.1.2 (0)
 -->
<!-- Title: Graphical Class Hierarchy Pages: 1 -->
<svg width="162pt" height="175pt"
 viewBox="0.00 0.00 162.25 174.50" xmlns="http://www.w3.org/2000/svg" xmlns:xlink="http://www.w3.org/1999/xlink">
<g id="graph0" class="graph" transform="scale(1 1) rotate(0) translate(4 170.5)">
<title>Graphical Class Hierarchy</title>
<!-- Node0 -->
<g id="Node000000" class="node">
<title>Node0</title>
<g id="a_Node000000"><a xlink:href="classApp.html" target="_top" xlink:title="Abstract base class for applications.">
<polygon fill="white" stroke="#666666" points="33.25,-92.5 0,-92.5 0,-74 33.25,-74 33.25,-92.5"/>
<text text-anchor="middle" x="16.62" y="-79" font-family="Helvetica,sans-Serif" font-size="10.00">App</text>
</a>
</g>
</g>
<!-- Node1 -->
<g id="Node000001" class="node">
<title>Node1</title>
<g id="a_Node000001"><a xlink:href="classAppLauncher.html" target="_top" xlink:title=" ">
<polygon fill="white" stroke="#666666" points="148.25,-166.5 75.25,-166.5 75.25,-148 148.25,-148 148.25,-166.5"/>
<text text-anchor="middle" x="111.75" y="-153" font-family="Helvetica,sans-Serif" font-size="10.00">AppLauncher</text>
</a>
</g>
</g>
<!-- Node0&#45;&gt;Node1 -->
<g id="edge1_Node000000_Node000001" class="edge">
<title>Node0&#45;&gt;Node1</title>
<g id="a_edge1_Node000000_Node000001"><a xlink:title=" ">
<path fill="none" stroke="#63b8ff" d="M31.83,-101.74C41.45,-113.34 54.96,-127.98 69.25,-138.25 74.27,-141.86 80.08,-145.03 85.74,-147.7"/>
<polygon fill="#63b8ff" stroke="#63b8ff" points="34.67,-99.69 25.69,-94.06 29.21,-104.06 34.67,-99.69"/>
</a>
</g>
</g>
<!-- Node2 -->
<g id="Node000002" class="node">
<title>Node2</title>
<g id="a_Node000002"><a xlink:href="classClockApp.html" target="_top" xlink:title="Simple clock application.">
<polygon fill="white" stroke="#666666" points="141.12,-129.5 82.38,-129.5 82.38,-111 141.12,-111 141.12,-129.5"/>
<text text-anchor="middle" x="111.75" y="-116" font-family="Helvetica,sans-Serif" font-size="10.00">ClockApp</text>
</a>
</g>
</g>
<!-- Node0&#45;&gt;Node2 -->
<g id="edge2_Node000000_Node000002" class="edge">
<title>Node0&#45;&gt;Node2</title>
<g id="a_edge2_Node000000_Node000002"><a xlink:title=" ">
<path fill="none" stroke="#63b8ff" d="M43.87,-93.68C57.23,-98.99 73.38,-105.4 86.46,-110.6"/>
<polygon fill="#63b8ff" stroke="#63b8ff" points="45.41,-90.53 34.83,-90.09 42.83,-97.03 45.41,-90.53"/>
</a>
</g>
</g>
<!-- Node3 -->
<g id="Node000003" class="node">
<title>Node3</title>
<g id="a_Node000003"><a xlink:href="classGooglyEyesApp.html" target="_top" xlink:title="Basic application to display googly eyes on the screen.">
<polygon fill="white" stroke="#666666" points="154.25,-92.5 69.25,-92.5 69.25,-74 154.25,-74 154.25,-92.5"/>
<text text-anchor="middle" x="111.75" y="-79" font-family="Helvetica,sans-Serif" font-size="10.00">GooglyEyesApp</text>
</a>
</g>
</g>
<!-- Node0&#45;&gt;Node3 -->
<g id="edge3_Node000000_Node000003" class="edge">
<title>Node0&#45;&gt;Node3</title>
<g id="a_edge3_Node000000_Node000003"><a xlink:title=" ">
<path fill="none" stroke="#63b8ff" d="M44.76,-83.25C52.28,-83.25 60.61,-83.25 68.76,-83.25"/>
<polygon fill="#63b8ff" stroke="#63b8ff" points="44.94,-79.75 34.94,-83.25 44.94,-86.75 44.94,-79.75"/>
</a>
</g>
</g>
<!-- Node4 -->
<g id="Node000004" class="node">
<title>Node4</title>
<g id="a_Node000004"><a xlink:href="classPomodoroApp.html" target="_top" xlink:title="Simple pomodoro timer application.">
<polygon fill="white" stroke="#666666" points="150.5,-55.5 73,-55.5 73,-37 150.5,-37 150.5,-55.5"/>
<text text-anchor="middle" x="111.75" y="-42" font-family="Helvetica,sans-Serif" font-size="10.00">PomodoroApp</text>
</a>
</g>
</g>
<!-- Node0&#45;&gt;Node4 -->
<g id="edge4_Node000000_Node000004" class="edge">
<title>Node0&#45;&gt;Node4</title>
<g id="a_edge4_Node000000_Node000004"><a xlink:title=" ">
<path fill="none" stroke="#63b8ff" d="M43.87,-72.82C57.23,-67.51 73.38,-61.1 86.46,-55.9"/>
<polygon fill="#63b8ff" stroke="#63b8ff" points="42.83,-69.47 34.83,-76.41 45.41,-75.97 42.83,-69.47"/>
</a>
</g>
</g>
<!-- Node5 -->
<g id="Node000005" class="node">
<title>Node5</title>
<g id="a_Node000005"><a xlink:href="classSettingsApp.html" target="_top" xlink:title="Application for managing settings, including WiFi configuration.">
<polygon fill="white" stroke="#666666" points="146.38,-18.5 77.12,-18.5 77.12,0 146.38,0 146.38,-18.5"/>
<text text-anchor="middle" x="111.75" y="-5" font-family="Helvetica,sans-Serif" font-size="10.00">SettingsApp</text>
</a>
</g>
</g>
<!-- Node0&#45;&gt;Node5 -->
<g id="edge5_Node000000_Node000005" class="edge">
<title>Node0&#45;&gt;Node5</title>
<g id="a_edge5_Node000000_Node000005"><a xlink:title=" ">
<path fill="none" stroke="#63b8ff" d="M31.83,-64.76C41.45,-53.16 54.96,-38.52 69.25,-28.25 74.27,-24.64 80.08,-21.47 85.74,-18.8"/>
<polygon fill="#63b8ff" stroke="#63b8ff" points="29.21,-62.44 25.69,-72.44 34.67,-66.81 29.21,-62.44"/>
</a>
</g>
</g>
</g>
</svg>
