<?xml version="1.0" encoding="UTF-8" standalone="no"?>
<!DOCTYPE svg PUBLIC "-//W3C//DTD SVG 1.1//EN"
 "http://www.w3.org/Graphics/SVG/1.1/DTD/svg11.dtd">
<!-- Generated by graphviz version 12.2.0 (20241103.1931)
 -->
<!-- Title: Graphical Class Hierarchy Pages: 1 -->
<svg width="191pt" height="249pt"
 viewBox="0.00 0.00 190.75 249.25" xmlns="http://www.w3.org/2000/svg" xmlns:xlink="http://www.w3.org/1999/xlink">
<g id="graph0" class="graph" transform="scale(1 1) rotate(0) translate(4 245.25)">
<title>Graphical Class Hierarchy</title>
<!-- Node0 -->
<g id="Node000000" class="node">
<title>Node0</title>
<g id="a_Node000000"><a xlink:href="classApp.html" target="_top" xlink:title="Abstract base class for applications.">
<polygon fill="white" stroke="#666666" points="33.25,-130.25 0,-130.25 0,-111 33.25,-111 33.25,-130.25"/>
<text text-anchor="middle" x="16.62" y="-116.75" font-family="Helvetica,sans-Serif" font-size="10.00">App</text>
</a>
</g>
</g>
<!-- Node1 -->
<g id="Node000001" class="node">
<title>Node1</title>
<g id="a_Node000001"><a xlink:href="classAppLauncher.html" target="_top" xlink:title="Application for launching and managing other applications.">
<polygon fill="white" stroke="#666666" points="162.88,-241.25 89.12,-241.25 89.12,-222 162.88,-222 162.88,-241.25"/>
<text text-anchor="middle" x="126" y="-227.75" font-family="Helvetica,sans-Serif" font-size="10.00">AppLauncher</text>
</a>
</g>
</g>
<!-- Node0&#45;&gt;Node1 -->
<g id="edge1_Node000000_Node000001" class="edge">
<title>Node0&#45;&gt;Node1</title>
<g id="a_edge1_Node000000_Node000001"><a xlink:title=" ">
<path fill="none" stroke="#63b8ff" d="M24.04,-141.31C31.59,-162.39 46.13,-194.61 69.25,-213.62 74.91,-218.28 81.79,-221.73 88.77,-224.3"/>
<polygon fill="#63b8ff" stroke="#63b8ff" points="27.44,-140.45 20.94,-132.07 20.8,-142.67 27.44,-140.45"/>
</a>
</g>
</g>
<!-- Node2 -->
<g id="Node000002" class="node">
<title>Node2</title>
<g id="a_Node000002"><a xlink:href="classClockApp.html" target="_top" xlink:title="Simple clock application.">
<polygon fill="white" stroke="#666666" points="155,-204.25 97,-204.25 97,-185 155,-185 155,-204.25"/>
<text text-anchor="middle" x="126" y="-190.75" font-family="Helvetica,sans-Serif" font-size="10.00">ClockApp</text>
</a>
</g>
</g>
<!-- Node0&#45;&gt;Node2 -->
<g id="edge2_Node000000_Node000002" class="edge">
<title>Node0&#45;&gt;Node2</title>
<g id="a_edge2_Node000000_Node000002"><a xlink:title=" ">
<path fill="none" stroke="#63b8ff" d="M30.77,-139.27C40.22,-151.44 53.96,-166.84 69.25,-176.62 77.47,-181.89 87.37,-185.73 96.53,-188.49"/>
<polygon fill="#63b8ff" stroke="#63b8ff" points="33.83,-137.52 25.06,-131.58 28.21,-141.7 33.83,-137.52"/>
</a>
</g>
</g>
<!-- Node3 -->
<g id="Node000003" class="node">
<title>Node3</title>
<g id="a_Node000003"><a xlink:href="classCurrencyConverterApp.html" target="_top" xlink:title=" ">
<polygon fill="white" stroke="#666666" points="182.75,-167.25 69.25,-167.25 69.25,-148 182.75,-148 182.75,-167.25"/>
<text text-anchor="middle" x="126" y="-153.75" font-family="Helvetica,sans-Serif" font-size="10.00">CurrencyConverterApp</text>
</a>
</g>
</g>
<!-- Node0&#45;&gt;Node3 -->
<g id="edge3_Node000000_Node000003" class="edge">
<title>Node0&#45;&gt;Node3</title>
<g id="a_edge3_Node000000_Node000003"><a xlink:title=" ">
<path fill="none" stroke="#63b8ff" d="M44.06,-130.59C52.12,-133.56 61.03,-136.79 69.25,-139.62 76.94,-142.28 85.27,-145.03 93.09,-147.57"/>
<polygon fill="#63b8ff" stroke="#63b8ff" points="45.39,-127.35 34.8,-127.14 42.95,-133.91 45.39,-127.35"/>
</a>
</g>
</g>
<!-- Node4 -->
<g id="Node000004" class="node">
<title>Node4</title>
<g id="a_Node000004"><a xlink:href="classGooglyEyesApp.html" target="_top" xlink:title="Basic application to display googly eyes on the screen.">
<polygon fill="white" stroke="#666666" points="168.12,-130.25 83.88,-130.25 83.88,-111 168.12,-111 168.12,-130.25"/>
<text text-anchor="middle" x="126" y="-116.75" font-family="Helvetica,sans-Serif" font-size="10.00">GooglyEyesApp</text>
</a>
</g>
</g>
<!-- Node0&#45;&gt;Node4 -->
<g id="edge4_Node000000_Node000004" class="edge">
<title>Node0&#45;&gt;Node4</title>
<g id="a_edge4_Node000000_Node000004"><a xlink:title=" ">
<path fill="none" stroke="#63b8ff" d="M44.76,-120.62C56.52,-120.62 70.55,-120.62 83.57,-120.62"/>
<polygon fill="#63b8ff" stroke="#63b8ff" points="44.98,-117.13 34.98,-120.63 44.98,-124.13 44.98,-117.13"/>
</a>
</g>
</g>
<!-- Node5 -->
<g id="Node000005" class="node">
<title>Node5</title>
<g id="a_Node000005"><a xlink:href="classMatrixApp.html" target="_top" xlink:title=" ">
<polygon fill="white" stroke="#666666" points="155.75,-93.25 96.25,-93.25 96.25,-74 155.75,-74 155.75,-93.25"/>
<text text-anchor="middle" x="126" y="-79.75" font-family="Helvetica,sans-Serif" font-size="10.00">MatrixApp</text>
</a>
</g>
</g>
<!-- Node0&#45;&gt;Node5 -->
<g id="edge5_Node000000_Node000005" class="edge">
<title>Node0&#45;&gt;Node5</title>
<g id="a_edge5_Node000000_Node000005"><a xlink:title=" ">
<path fill="none" stroke="#63b8ff" d="M44.06,-110.66C52.12,-107.69 61.03,-104.46 69.25,-101.62 77.9,-98.64 87.36,-95.53 95.99,-92.75"/>
<polygon fill="#63b8ff" stroke="#63b8ff" points="42.95,-107.34 34.8,-114.11 45.39,-113.9 42.95,-107.34"/>
</a>
</g>
</g>
<!-- Node6 -->
<g id="Node000006" class="node">
<title>Node6</title>
<g id="a_Node000006"><a xlink:href="classPomodoroApp.html" target="_top" xlink:title="Simple pomodoro timer application.">
<polygon fill="white" stroke="#666666" points="164.75,-56.25 87.25,-56.25 87.25,-37 164.75,-37 164.75,-56.25"/>
<text text-anchor="middle" x="126" y="-42.75" font-family="Helvetica,sans-Serif" font-size="10.00">PomodoroApp</text>
</a>
</g>
</g>
<!-- Node0&#45;&gt;Node6 -->
<g id="edge6_Node000000_Node000006" class="edge">
<title>Node0&#45;&gt;Node6</title>
<g id="a_edge6_Node000000_Node000006"><a xlink:title=" ">
<path fill="none" stroke="#63b8ff" d="M30.77,-101.98C40.22,-89.81 53.96,-74.41 69.25,-64.62 74.65,-61.17 80.76,-58.33 86.92,-56"/>
<polygon fill="#63b8ff" stroke="#63b8ff" points="28.21,-99.55 25.06,-109.67 33.83,-103.73 28.21,-99.55"/>
</a>
</g>
</g>
<!-- Node7 -->
<g id="Node000007" class="node">
<title>Node7</title>
<g id="a_Node000007"><a xlink:href="classSettingsApp.html" target="_top" xlink:title="Application for managing settings, including WiFi configuration.">
<polygon fill="white" stroke="#666666" points="160.62,-19.25 91.38,-19.25 91.38,0 160.62,0 160.62,-19.25"/>
<text text-anchor="middle" x="126" y="-5.75" font-family="Helvetica,sans-Serif" font-size="10.00">SettingsApp</text>
</a>
</g>
</g>
<!-- Node0&#45;&gt;Node7 -->
<g id="edge7_Node000000_Node000007" class="edge">
<title>Node0&#45;&gt;Node7</title>
<g id="a_edge7_Node000000_Node000007"><a xlink:title=" ">
<path fill="none" stroke="#63b8ff" d="M24.04,-99.94C31.59,-78.86 46.13,-46.64 69.25,-27.62 75.53,-22.46 83.34,-18.76 91.09,-16.12"/>
<polygon fill="#63b8ff" stroke="#63b8ff" points="20.8,-98.58 20.94,-109.18 27.44,-100.8 20.8,-98.58"/>
</a>
</g>
</g>
</g>
</svg>
