<?xml version="1.0" encoding="UTF-8" standalone="no"?>
<!DOCTYPE svg PUBLIC "-//W3C//DTD SVG 1.1//EN"
 "http://www.w3.org/Graphics/SVG/1.1/DTD/svg11.dtd">
<!-- Generated by graphviz version 12.2.0 (20241103.1931)
 -->
<!-- Title: Graphical Class Hierarchy Pages: 1 -->
<svg width="162pt" height="175pt"
 viewBox="0.00 0.00 161.50 175.25" xmlns="http://www.w3.org/2000/svg" xmlns:xlink="http://www.w3.org/1999/xlink">
<g id="graph0" class="graph" transform="scale(1 1) rotate(0) translate(4 171.25)">
<title>Graphical Class Hierarchy</title>
<!-- Node0 -->
<g id="Node000000" class="node">
<title>Node0</title>
<g id="a_Node000000"><a xlink:href="classApp.html" target="_top" xlink:title="Abstract base class for applications.">
<polygon fill="white" stroke="#666666" points="33.25,-93.25 0,-93.25 0,-74 33.25,-74 33.25,-93.25"/>
<text text-anchor="middle" x="16.62" y="-79.75" font-family="Helvetica,sans-Serif" font-size="10.00">App</text>
</a>
</g>
</g>
<!-- Node1 -->
<g id="Node000001" class="node">
<title>Node1</title>
<g id="a_Node000001"><a xlink:href="classAppLauncher.html" target="_top" xlink:title=" ">
<polygon fill="white" stroke="#666666" points="148.25,-167.25 74.5,-167.25 74.5,-148 148.25,-148 148.25,-167.25"/>
<text text-anchor="middle" x="111.38" y="-153.75" font-family="Helvetica,sans-Serif" font-size="10.00">AppLauncher</text>
</a>
</g>
</g>
<!-- Node0&#45;&gt;Node1 -->
<g id="edge1_Node000000_Node000001" class="edge">
<title>Node0&#45;&gt;Node1</title>
<g id="a_edge1_Node000000_Node000001"><a xlink:title=" ">
<path fill="none" stroke="#63b8ff" d="M31.71,-102.55C41.28,-114.4 54.78,-129.31 69.25,-139.62 73.44,-142.61 78.2,-145.25 82.96,-147.53"/>
<polygon fill="#63b8ff" stroke="#63b8ff" points="34.5,-100.43 25.6,-94.69 28.97,-104.73 34.5,-100.43"/>
</a>
</g>
</g>
<!-- Node2 -->
<g id="Node000002" class="node">
<title>Node2</title>
<g id="a_Node000002"><a xlink:href="classClockApp.html" target="_top" xlink:title="Simple clock application.">
<polygon fill="white" stroke="#666666" points="140.38,-130.25 82.38,-130.25 82.38,-111 140.38,-111 140.38,-130.25"/>
<text text-anchor="middle" x="111.38" y="-116.75" font-family="Helvetica,sans-Serif" font-size="10.00">ClockApp</text>
</a>
</g>
</g>
<!-- Node0&#45;&gt;Node2 -->
<g id="edge2_Node000000_Node000002" class="edge">
<title>Node0&#45;&gt;Node2</title>
<g id="a_edge2_Node000000_Node000002"><a xlink:title=" ">
<path fill="none" stroke="#63b8ff" d="M43.91,-94.11C56.83,-99.26 72.32,-105.45 85.1,-110.54"/>
<polygon fill="#63b8ff" stroke="#63b8ff" points="45.35,-90.92 34.76,-90.46 42.76,-97.42 45.35,-90.92"/>
</a>
</g>
</g>
<!-- Node3 -->
<g id="Node000003" class="node">
<title>Node3</title>
<g id="a_Node000003"><a xlink:href="classGooglyEyesApp.html" target="_top" xlink:title="Basic application to display googly eyes on the screen.">
<polygon fill="white" stroke="#666666" points="153.5,-93.25 69.25,-93.25 69.25,-74 153.5,-74 153.5,-93.25"/>
<text text-anchor="middle" x="111.38" y="-79.75" font-family="Helvetica,sans-Serif" font-size="10.00">GooglyEyesApp</text>
</a>
</g>
</g>
<!-- Node0&#45;&gt;Node3 -->
<g id="edge3_Node000000_Node000003" class="edge">
<title>Node0&#45;&gt;Node3</title>
<g id="a_edge3_Node000000_Node000003"><a xlink:title=" ">
<path fill="none" stroke="#63b8ff" d="M44.78,-83.62C52.35,-83.62 60.76,-83.62 68.96,-83.62"/>
<polygon fill="#63b8ff" stroke="#63b8ff" points="44.87,-80.13 34.87,-83.63 44.87,-87.13 44.87,-80.13"/>
</a>
</g>
</g>
<!-- Node4 -->
<g id="Node000004" class="node">
<title>Node4</title>
<g id="a_Node000004"><a xlink:href="classPomodoroApp.html" target="_top" xlink:title="Simple pomodoro timer application.">
<polygon fill="white" stroke="#666666" points="150.12,-56.25 72.62,-56.25 72.62,-37 150.12,-37 150.12,-56.25"/>
<text text-anchor="middle" x="111.38" y="-42.75" font-family="Helvetica,sans-Serif" font-size="10.00">PomodoroApp</text>
</a>
</g>
</g>
<!-- Node0&#45;&gt;Node4 -->
<g id="edge4_Node000000_Node000004" class="edge">
<title>Node0&#45;&gt;Node4</title>
<g id="a_edge4_Node000000_Node000004"><a xlink:title=" ">
<path fill="none" stroke="#63b8ff" d="M43.91,-73.14C56.83,-67.99 72.32,-61.8 85.1,-56.71"/>
<polygon fill="#63b8ff" stroke="#63b8ff" points="42.76,-69.83 34.76,-76.79 45.35,-76.33 42.76,-69.83"/>
</a>
</g>
</g>
<!-- Node5 -->
<g id="Node000005" class="node">
<title>Node5</title>
<g id="a_Node000005"><a xlink:href="classSettingsApp.html" target="_top" xlink:title="Application for managing settings, including WiFi configuration.">
<polygon fill="white" stroke="#666666" points="146,-19.25 76.75,-19.25 76.75,0 146,0 146,-19.25"/>
<text text-anchor="middle" x="111.38" y="-5.75" font-family="Helvetica,sans-Serif" font-size="10.00">SettingsApp</text>
</a>
</g>
</g>
<!-- Node0&#45;&gt;Node5 -->
<g id="edge5_Node000000_Node000005" class="edge">
<title>Node0&#45;&gt;Node5</title>
<g id="a_edge5_Node000000_Node000005"><a xlink:title=" ">
<path fill="none" stroke="#63b8ff" d="M31.71,-64.7C41.28,-52.85 54.78,-37.94 69.25,-27.62 73.44,-24.64 78.2,-22 82.96,-19.72"/>
<polygon fill="#63b8ff" stroke="#63b8ff" points="28.97,-62.52 25.6,-72.56 34.5,-66.82 28.97,-62.52"/>
</a>
</g>
</g>
</g>
</svg>
