<?xml version="1.0" encoding="UTF-8" standalone="no"?>
<!DOCTYPE svg PUBLIC "-//W3C//DTD SVG 1.1//EN"
 "http://www.w3.org/Graphics/SVG/1.1/DTD/svg11.dtd">
<!-- Generated by graphviz version 12.2.0 (20241103.1931)
 -->
<!-- Title: src/main.cpp Pages: 1 -->
<!--zoomable 149 -->

<svg id="main" version="1.1" xmlns="http://www.w3.org/2000/svg" xmlns:xlink="http://www.w3.org/1999/xlink" xml:space="preserve" onload="init(evt)">

<style type="text/css"><![CDATA[
.node, .edge {opacity: 0.7;}
.node.selected, .edge.selected {opacity: 1;}
.edge:hover path { stroke: red; }
.edge:hover polygon { stroke: red; fill: red; }
]]></style>

<defs>
  <circle id="rim" cx="0" cy="0" r="7"/>
  <circle id="rim2" cx="0" cy="0" r="3.5"/>
  <g id="zoomPlus">
    <use xlink:href="#rim" fill="#404040"><set attributeName="fill" to="#808080" begin="zoomplus.mouseover" end="zoomplus.mouseout"/></use>
    <path d="M-4,0h8M0,-4v8" fill="none" stroke="white" stroke-width="1.5" pointer-events="none"/>
  </g>
  <g id="zoomMin">
    <use xlink:href="#rim" fill="#404040"><set attributeName="fill" to="#808080" begin="zoomminus.mouseover" end="zoomminus.mouseout"/></use>
    <path d="M-4,0h8" fill="none" stroke="white" stroke-width="1.5" pointer-events="none"/>
  </g>
  <g id="arrowUp" transform="translate(30 24)">
    <use xlink:href="#rim"/>
    <path pointer-events="none" fill="none" stroke="white" stroke-width="1.5" d="M0,-3.0v7 M-2.5,-0.5L0,-3.0L2.5,-0.5"/>
  </g>
  <g id="arrowRight" transform="rotate(90) translate(36 -43)">
    <use xlink:href="#rim"/>
    <path pointer-events="none" fill="none" stroke="white" stroke-width="1.5" d="M0,-3.0v7 M-2.5,-0.5L0,-3.0L2.5,-0.5"/>
  </g>
  <g id="arrowDown" transform="rotate(180) translate(-30 -48)">
    <use xlink:href="#rim"/>
    <path pointer-events="none" fill="none" stroke="white" stroke-width="1.5" d="M0,-3.0v7 M-2.5,-0.5L0,-3.0L2.5,-0.5"/>
  </g>
  <g id="arrowLeft" transform="rotate(270) translate(-36 17)">
    <use xlink:href="#rim"/>
    <path pointer-events="none" fill="none" stroke="white" stroke-width="1.5" d="M0,-3.0v7 M-2.5,-0.5L0,-3.0L2.5,-0.5"/>
  </g>
  <g id="resetDef">
    <use xlink:href="#rim2" fill="#404040"><set attributeName="fill" to="#808080" begin="reset.mouseover" end="reset.mouseout"/></use>
  </g>
</defs>
<script type="application/ecmascript">
var viewWidth = 1432;
var viewHeight = 149;
var sectionId = 'dynsection-0';
</script>
<script type="application/ecmascript" xlink:href="svg.min.js"/>
<svg id="graph" class="graph">
<g id="viewport">
<title>src/main.cpp</title>
<!-- Node1 -->
<g id="Node000001" class="node">
<title>Node1</title>
<g id="a_Node000001"><a xlink:title=" ">
<polygon fill="#999999" stroke="#666666" points="498,-141 426.5,-141 426.5,-121.75 498,-121.75 498,-141"/>
<text text-anchor="middle" x="462.25" y="-127.5" font-family="Helvetica,sans-Serif" font-size="10.00">src/main.cpp</text>
</a>
</g>
</g>
<!-- Node2 -->
<g id="Node000002" class="node">
<title>Node2</title>
<g id="a_Node000002"><a xlink:title=" ">
<polygon fill="#e0e0e0" stroke="#999999" points="611.5,-19.25 555,-19.25 555,0 611.5,0 611.5,-19.25"/>
<text text-anchor="middle" x="583.25" y="-5.75" font-family="Helvetica,sans-Serif" font-size="10.00">Arduino.h</text>
</a>
</g>
</g>
<!-- Node1&#45;&gt;Node2 -->
<g id="edge1_Node000001_Node000002" class="edge">
<title>Node1&#45;&gt;Node2</title>
<g id="a_edge1_Node000001_Node000002"><a xlink:title=" ">
<path fill="none" stroke="#63b8ff" d="M426.02,-124.78C402.94,-119.13 374.74,-107.91 360.25,-85.75 352.83,-74.41 351.66,-65.73 360.25,-55.25 382.96,-27.54 485.56,-16.69 543.35,-12.72"/>
<polygon fill="#63b8ff" stroke="#63b8ff" points="543.35,-16.23 553.11,-12.09 542.9,-9.24 543.35,-16.23"/>
</a>
</g>
</g>
<!-- Node3 -->
<g id="Node000003" class="node">
<title>Node3</title>
<g id="a_Node000003"><a xlink:title=" ">
<polygon fill="#e0e0e0" stroke="#999999" points="50.5,-19.25 0,-19.25 0,0 50.5,0 50.5,-19.25"/>
<text text-anchor="middle" x="25.25" y="-5.75" font-family="Helvetica,sans-Serif" font-size="10.00">memory</text>
</a>
</g>
</g>
<!-- Node1&#45;&gt;Node3 -->
<g id="edge2_Node000001_Node000003" class="edge">
<title>Node1&#45;&gt;Node3</title>
<g id="a_edge2_Node000001_Node000003"><a xlink:title=" ">
<path fill="none" stroke="#63b8ff" d="M426,-130.27C340.42,-129.38 128.63,-123.35 70.25,-85.75 50.41,-72.97 38.09,-48.08 31.46,-30.46"/>
<polygon fill="#63b8ff" stroke="#63b8ff" points="34.8,-29.41 28.25,-21.09 28.18,-31.68 34.8,-29.41"/>
</a>
</g>
</g>
<!-- Node4 -->
<g id="Node000004" class="node">
<title>Node4</title>
<g id="a_Node000004"><a xlink:title=" ">
<polygon fill="#e0e0e0" stroke="#999999" points="111.75,-19.25 68.75,-19.25 68.75,0 111.75,0 111.75,-19.25"/>
<text text-anchor="middle" x="90.25" y="-5.75" font-family="Helvetica,sans-Serif" font-size="10.00">vector</text>
</a>
</g>
</g>
<!-- Node1&#45;&gt;Node4 -->
<g id="edge3_Node000001_Node000004" class="edge">
<title>Node1&#45;&gt;Node4</title>
<g id="a_edge3_Node000001_Node000004"><a xlink:title=" ">
<path fill="none" stroke="#63b8ff" d="M426.04,-128.81C335.5,-124.53 104.9,-111.22 82.25,-85.75 68.79,-70.62 74.48,-46.42 81.11,-29.59"/>
<polygon fill="#63b8ff" stroke="#63b8ff" points="84.19,-31.27 85.02,-20.7 77.79,-28.45 84.19,-31.27"/>
</a>
</g>
</g>
<!-- Node5 -->
<g id="Node000005" class="node">
<title>Node5</title>
<g id="a_Node000005"><a xlink:href="AppCollection_8h.html" target="_top" xlink:title=" ">
<polygon fill="white" stroke="#666666" points="196.88,-80.12 91.62,-80.12 91.62,-60.88 196.88,-60.88 196.88,-80.12"/>
<text text-anchor="middle" x="144.25" y="-66.62" font-family="Helvetica,sans-Serif" font-size="10.00">core/AppCollection.h</text>
</a>
</g>
</g>
<!-- Node1&#45;&gt;Node5 -->
<g id="edge4_Node000001_Node000005" class="edge">
<title>Node1&#45;&gt;Node5</title>
<g id="a_edge4_Node000001_Node000005"><a xlink:title=" ">
<path fill="none" stroke="#63b8ff" d="M426.1,-124.7C376.42,-116.75 284.3,-101.51 206.25,-85.75 201.99,-84.89 197.57,-83.96 193.14,-82.99"/>
<polygon fill="#63b8ff" stroke="#63b8ff" points="194.21,-79.65 183.69,-80.89 192.69,-86.48 194.21,-79.65"/>
</a>
</g>
</g>
<!-- Node8 -->
<g id="Node000008" class="node">
<title>Node8</title>
<g id="a_Node000008"><a xlink:href="AppLauncher_8h.html" target="_top" xlink:title=" ">
<polygon fill="white" stroke="#666666" points="911.12,-80.12 747.38,-80.12 747.38,-60.88 911.12,-60.88 911.12,-80.12"/>
<text text-anchor="middle" x="829.25" y="-66.62" font-family="Helvetica,sans-Serif" font-size="10.00">core/AppLauncher/AppLauncher.h</text>
</a>
</g>
</g>
<!-- Node1&#45;&gt;Node8 -->
<g id="edge9_Node000001_Node000008" class="edge">
<title>Node1&#45;&gt;Node8</title>
<g id="a_edge9_Node000001_Node000008"><a xlink:title=" ">
<path fill="none" stroke="#63b8ff" d="M498.44,-124.57C559.46,-114.78 683.72,-94.85 761.37,-82.39"/>
<polygon fill="#63b8ff" stroke="#63b8ff" points="761.66,-85.89 770.98,-80.85 760.55,-78.98 761.66,-85.89"/>
</a>
</g>
</g>
<!-- Node10 -->
<g id="Node000010" class="node">
<title>Node10</title>
<g id="a_Node000010"><a xlink:href="Settings_8h.html" target="_top" xlink:title=" ">
<polygon fill="white" stroke="#666666" points="450.88,-80.12 369.62,-80.12 369.62,-60.88 450.88,-60.88 450.88,-80.12"/>
<text text-anchor="middle" x="410.25" y="-66.62" font-family="Helvetica,sans-Serif" font-size="10.00">core/Settings.h</text>
</a>
</g>
</g>
<!-- Node1&#45;&gt;Node10 -->
<g id="edge13_Node000001_Node000010" class="edge">
<title>Node1&#45;&gt;Node10</title>
<g id="a_edge13_Node000001_Node000010"><a xlink:title=" ">
<path fill="none" stroke="#63b8ff" d="M454.35,-121.43C446.79,-112.87 435.18,-99.73 425.77,-89.07"/>
<polygon fill="#63b8ff" stroke="#63b8ff" points="428.47,-86.84 419.22,-81.66 423.22,-91.47 428.47,-86.84"/>
</a>
</g>
</g>
<!-- Node11 -->
<g id="Node000011" class="node">
<title>Node11</title>
<g id="a_Node000011"><a xlink:href="SettingsApp_8h.html" target="_top" xlink:title=" ">
<polygon fill="white" stroke="#666666" points="1059.25,-85.75 929.25,-85.75 929.25,-55.25 1059.25,-55.25 1059.25,-85.75"/>
<text text-anchor="start" x="937.25" y="-72.25" font-family="Helvetica,sans-Serif" font-size="10.00">core/SettingsApp/Settings</text>
<text text-anchor="middle" x="994.25" y="-61" font-family="Helvetica,sans-Serif" font-size="10.00">App.h</text>
</a>
</g>
</g>
<!-- Node1&#45;&gt;Node11 -->
<g id="edge15_Node000001_Node000011" class="edge">
<title>Node1&#45;&gt;Node11</title>
<g id="a_edge15_Node000001_Node000011"><a xlink:title=" ">
<path fill="none" stroke="#63b8ff" d="M498.31,-128.01C574.07,-122.79 755.5,-109.01 917.78,-86.02"/>
<polygon fill="#63b8ff" stroke="#63b8ff" points="918.04,-89.52 927.44,-84.63 917.04,-82.59 918.04,-89.52"/>
</a>
</g>
</g>
<!-- Node13 -->
<g id="Node000013" class="node">
<title>Node13</title>
<g id="a_Node000013"><a xlink:href="Display_8h.html" target="_top" xlink:title=" ">
<polygon fill="white" stroke="#666666" points="313.12,-80.12 215.38,-80.12 215.38,-60.88 313.12,-60.88 313.12,-80.12"/>
<text text-anchor="middle" x="264.25" y="-66.62" font-family="Helvetica,sans-Serif" font-size="10.00">hardware/Display.h</text>
</a>
</g>
</g>
<!-- Node1&#45;&gt;Node13 -->
<g id="edge18_Node000001_Node000013" class="edge">
<title>Node1&#45;&gt;Node13</title>
<g id="a_edge18_Node000001_Node000013"><a xlink:title=" ">
<path fill="none" stroke="#63b8ff" d="M431.75,-121.3C397.88,-111.24 343.04,-94.93 305.4,-83.74"/>
<polygon fill="#63b8ff" stroke="#63b8ff" points="306.82,-80.51 296.24,-81.01 304.83,-87.22 306.82,-80.51"/>
</a>
</g>
</g>
<!-- Node15 -->
<g id="Node000015" class="node">
<title>Node15</title>
<g id="a_Node000015"><a xlink:href="Piezo_8h.html" target="_top" xlink:title=" ">
<polygon fill="white" stroke="#666666" points="559.38,-80.12 469.12,-80.12 469.12,-60.88 559.38,-60.88 559.38,-80.12"/>
<text text-anchor="middle" x="514.25" y="-66.62" font-family="Helvetica,sans-Serif" font-size="10.00">hardware/Piezo.h</text>
</a>
</g>
</g>
<!-- Node1&#45;&gt;Node15 -->
<g id="edge21_Node000001_Node000015" class="edge">
<title>Node1&#45;&gt;Node15</title>
<g id="a_edge21_Node000001_Node000015"><a xlink:title=" ">
<path fill="none" stroke="#63b8ff" d="M470.15,-121.43C477.71,-112.87 489.32,-99.73 498.73,-89.07"/>
<polygon fill="#63b8ff" stroke="#63b8ff" points="501.28,-91.47 505.28,-81.66 496.03,-86.84 501.28,-91.47"/>
</a>
</g>
</g>
<!-- Node16 -->
<g id="Node000016" class="node">
<title>Node16</title>
<g id="a_Node000016"><a xlink:href="ClockApp_8h.html" target="_top" xlink:title=" ">
<polygon fill="white" stroke="#666666" points="1378.5,-80.12 1244,-80.12 1244,-60.88 1378.5,-60.88 1378.5,-80.12"/>
<text text-anchor="middle" x="1311.25" y="-66.62" font-family="Helvetica,sans-Serif" font-size="10.00">apps/ClockApp/ClockApp.h</text>
</a>
</g>
</g>
<!-- Node1&#45;&gt;Node16 -->
<g id="edge23_Node000001_Node000016" class="edge">
<title>Node1&#45;&gt;Node16</title>
<g id="a_edge23_Node000001_Node000016"><a xlink:title=" ">
<path fill="none" stroke="#63b8ff" d="M498.18,-129.9C608.5,-128.08 952.03,-119.89 1234.25,-85.75 1241.42,-84.88 1248.93,-83.76 1256.33,-82.53"/>
<polygon fill="#63b8ff" stroke="#63b8ff" points="1256.68,-86.02 1265.93,-80.85 1255.48,-79.13 1256.68,-86.02"/>
</a>
</g>
</g>
<!-- Node20 -->
<g id="Node000020" class="node">
<title>Node20</title>
<g id="a_Node000020"><a xlink:href="GooglyEyes_8h.html" target="_top" xlink:title=" ">
<polygon fill="white" stroke="#666666" points="729.5,-80.12 577,-80.12 577,-60.88 729.5,-60.88 729.5,-80.12"/>
<text text-anchor="middle" x="653.25" y="-66.62" font-family="Helvetica,sans-Serif" font-size="10.00">apps/GooglyEyes/GooglyEyes.h</text>
</a>
</g>
</g>
<!-- Node1&#45;&gt;Node20 -->
<g id="edge29_Node000001_Node000020" class="edge">
<title>Node1&#45;&gt;Node20</title>
<g id="a_edge29_Node000001_Node000020"><a xlink:title=" ">
<path fill="none" stroke="#63b8ff" d="M491.68,-121.3C524.2,-111.28 576.79,-95.07 613.09,-83.88"/>
<polygon fill="#63b8ff" stroke="#63b8ff" points="613.82,-87.32 622.35,-81.03 611.76,-80.63 613.82,-87.32"/>
</a>
</g>
</g>
<!-- Node21 -->
<g id="Node000021" class="node">
<title>Node21</title>
<g id="a_Node000021"><a xlink:href="PomodoroApp_8h.html" target="_top" xlink:title=" ">
<polygon fill="white" stroke="#666666" points="1225.62,-85.75 1076.88,-85.75 1076.88,-55.25 1225.62,-55.25 1225.62,-85.75"/>
<text text-anchor="start" x="1084.88" y="-72.25" font-family="Helvetica,sans-Serif" font-size="10.00">apps/PomodoroApp/Pomodoro</text>
<text text-anchor="middle" x="1151.25" y="-61" font-family="Helvetica,sans-Serif" font-size="10.00">App.h</text>
</a>
</g>
</g>
<!-- Node1&#45;&gt;Node21 -->
<g id="edge32_Node000001_Node000021" class="edge">
<title>Node1&#45;&gt;Node21</title>
<g id="a_edge32_Node000001_Node000021"><a xlink:title=" ">
<path fill="none" stroke="#63b8ff" d="M498.23,-128.94C590.66,-124.99 844.2,-112.54 1065.47,-86.01"/>
<polygon fill="#63b8ff" stroke="#63b8ff" points="1065.63,-89.52 1075.14,-84.84 1064.79,-82.57 1065.63,-89.52"/>
</a>
</g>
</g>
<!-- Node5&#45;&gt;Node3 -->
<g id="edge5_Node000005_Node000003" class="edge">
<title>Node5&#45;&gt;Node3</title>
<g id="a_edge5_Node000005_Node000003"><a xlink:title=" ">
<path fill="none" stroke="#63b8ff" d="M125.92,-60.43C106.64,-50.89 76.07,-35.77 53.66,-24.68"/>
<polygon fill="#63b8ff" stroke="#63b8ff" points="55.28,-21.58 44.77,-20.28 52.18,-27.85 55.28,-21.58"/>
</a>
</g>
</g>
<!-- Node5&#45;&gt;Node4 -->
<g id="edge7_Node000005_Node000004" class="edge">
<title>Node5&#45;&gt;Node4</title>
<g id="a_edge7_Node000005_Node000004"><a xlink:title=" ">
<path fill="none" stroke="#63b8ff" d="M136.05,-60.56C128.12,-51.91 115.9,-38.59 106.07,-27.87"/>
<polygon fill="#63b8ff" stroke="#63b8ff" points="108.89,-25.77 99.55,-20.77 103.73,-30.5 108.89,-25.77"/>
</a>
</g>
</g>
<!-- Node6 -->
<g id="Node000006" class="node">
<title>Node6</title>
<g id="a_Node000006"><a xlink:title=" ">
<polygon fill="#e0e0e0" stroke="#999999" points="170.25,-19.25 130.25,-19.25 130.25,0 170.25,0 170.25,-19.25"/>
<text text-anchor="middle" x="150.25" y="-5.75" font-family="Helvetica,sans-Serif" font-size="10.00">string</text>
</a>
</g>
</g>
<!-- Node5&#45;&gt;Node6 -->
<g id="edge6_Node000005_Node000006" class="edge">
<title>Node5&#45;&gt;Node6</title>
<g id="a_edge6_Node000005_Node000006"><a xlink:title=" ">
<path fill="none" stroke="#63b8ff" d="M145.16,-60.56C145.96,-52.69 147.16,-40.95 148.19,-30.82"/>
<polygon fill="#63b8ff" stroke="#63b8ff" points="151.64,-31.46 149.18,-21.16 144.68,-30.75 151.64,-31.46"/>
</a>
</g>
</g>
<!-- Node7 -->
<g id="Node000007" class="node">
<title>Node7</title>
<g id="a_Node000007"><a xlink:href="App_8h.html" target="_top" xlink:title="Abstract base class for applications.">
<polygon fill="white" stroke="#666666" points="880.62,-19.25 839.88,-19.25 839.88,0 880.62,0 880.62,-19.25"/>
<text text-anchor="middle" x="860.25" y="-5.75" font-family="Helvetica,sans-Serif" font-size="10.00">App.h</text>
</a>
</g>
</g>
<!-- Node5&#45;&gt;Node7 -->
<g id="edge8_Node000005_Node000007" class="edge">
<title>Node5&#45;&gt;Node7</title>
<g id="a_edge8_Node000005_Node000007"><a xlink:title=" ">
<path fill="none" stroke="#63b8ff" d="M179.48,-60.39C188.18,-58.42 197.51,-56.54 206.25,-55.25 328.58,-37.13 714.55,-17.62 828.37,-12.13"/>
<polygon fill="#63b8ff" stroke="#63b8ff" points="828.36,-15.64 838.19,-11.66 828.03,-8.64 828.36,-15.64"/>
</a>
</g>
</g>
<!-- Node8&#45;&gt;Node2 -->
<g id="edge10_Node000008_Node000002" class="edge">
<title>Node8&#45;&gt;Node2</title>
<g id="a_edge10_Node000008_Node000002"><a xlink:title=" ">
<path fill="none" stroke="#63b8ff" d="M791.35,-60.43C745.75,-49.52 669.55,-31.28 623.1,-20.16"/>
<polygon fill="#63b8ff" stroke="#63b8ff" points="623.98,-16.77 613.44,-17.85 622.35,-23.58 623.98,-16.77"/>
</a>
</g>
</g>
<!-- Node8&#45;&gt;Node7 -->
<g id="edge12_Node000008_Node000007" class="edge">
<title>Node8&#45;&gt;Node7</title>
<g id="a_edge12_Node000008_Node000007"><a xlink:title=" ">
<path fill="none" stroke="#63b8ff" d="M833.96,-60.56C838.24,-52.43 844.69,-40.17 850.14,-29.83"/>
<polygon fill="#63b8ff" stroke="#63b8ff" points="853.23,-31.47 854.79,-20.99 847.04,-28.21 853.23,-31.47"/>
</a>
</g>
</g>
<!-- Node9 -->
<g id="Node000009" class="node">
<title>Node9</title>
<g id="a_Node000009"><a xlink:title=" ">
<polygon fill="#e0e0e0" stroke="#999999" points="1104.5,-19.25 1030,-19.25 1030,0 1104.5,0 1104.5,-19.25"/>
<text text-anchor="middle" x="1067.25" y="-5.75" font-family="Helvetica,sans-Serif" font-size="10.00">eSPI_Menu.h</text>
</a>
</g>
</g>
<!-- Node8&#45;&gt;Node9 -->
<g id="edge11_Node000008_Node000009" class="edge">
<title>Node8&#45;&gt;Node9</title>
<g id="a_edge11_Node000008_Node000009"><a xlink:title=" ">
<path fill="none" stroke="#63b8ff" d="M865.92,-60.43C907.15,-50.23 974.24,-33.63 1019.53,-22.43"/>
<polygon fill="#63b8ff" stroke="#63b8ff" points="1020.21,-25.87 1029.07,-20.07 1018.53,-19.07 1020.21,-25.87"/>
</a>
</g>
</g>
<!-- Node10&#45;&gt;Node2 -->
<g id="edge14_Node000010_Node000002" class="edge">
<title>Node10&#45;&gt;Node2</title>
<g id="a_edge14_Node000010_Node000002"><a xlink:title=" ">
<path fill="none" stroke="#63b8ff" d="M436.9,-60.43C466.11,-50.49 513.18,-34.47 546.02,-23.29"/>
<polygon fill="#63b8ff" stroke="#63b8ff" points="546.8,-26.73 555.13,-20.19 544.54,-20.1 546.8,-26.73"/>
</a>
</g>
</g>
<!-- Node11&#45;&gt;Node7 -->
<g id="edge17_Node000011_Node000007" class="edge">
<title>Node11&#45;&gt;Node7</title>
<g id="a_edge17_Node000011_Node000007"><a xlink:title=" ">
<path fill="none" stroke="#63b8ff" d="M960.78,-54.8C939.49,-45.44 912.12,-33.41 891.31,-24.27"/>
<polygon fill="#63b8ff" stroke="#63b8ff" points="892.75,-21.08 882.19,-20.26 889.93,-27.49 892.75,-21.08"/>
</a>
</g>
</g>
<!-- Node12 -->
<g id="Node000012" class="node">
<title>Node12</title>
<g id="a_Node000012"><a xlink:title=" ">
<polygon fill="#e0e0e0" stroke="#999999" points="1011.5,-19.25 931,-19.25 931,0 1011.5,0 1011.5,-19.25"/>
<text text-anchor="middle" x="971.25" y="-5.75" font-family="Helvetica,sans-Serif" font-size="10.00">WiFiManager.h</text>
</a>
</g>
</g>
<!-- Node11&#45;&gt;Node12 -->
<g id="edge16_Node000011_Node000012" class="edge">
<title>Node11&#45;&gt;Node12</title>
<g id="a_edge16_Node000011_Node000012"><a xlink:title=" ">
<path fill="none" stroke="#63b8ff" d="M988.56,-54.95C985.67,-47.53 982.11,-38.41 978.97,-30.38"/>
<polygon fill="#63b8ff" stroke="#63b8ff" points="982.25,-29.15 975.35,-21.11 975.73,-31.7 982.25,-29.15"/>
</a>
</g>
</g>
<!-- Node13&#45;&gt;Node2 -->
<g id="edge19_Node000013_Node000002" class="edge">
<title>Node13&#45;&gt;Node2</title>
<g id="a_edge19_Node000013_Node000002"><a xlink:title=" ">
<path fill="none" stroke="#63b8ff" d="M303.17,-60.38C311.12,-58.6 319.44,-56.81 327.25,-55.25 403.42,-40.01 492.95,-25.08 543.4,-16.94"/>
<polygon fill="#63b8ff" stroke="#63b8ff" points="543.94,-20.4 553.26,-15.36 542.83,-13.49 543.94,-20.4"/>
</a>
</g>
</g>
<!-- Node14 -->
<g id="Node000014" class="node">
<title>Node14</title>
<g id="a_Node000014"><a xlink:title=" ">
<polygon fill="#e0e0e0" stroke="#999999" points="298.5,-19.25 230,-19.25 230,0 298.5,0 298.5,-19.25"/>
<text text-anchor="middle" x="264.25" y="-5.75" font-family="Helvetica,sans-Serif" font-size="10.00">TFT_eSPI.h</text>
</a>
</g>
</g>
<!-- Node13&#45;&gt;Node14 -->
<g id="edge20_Node000013_Node000014" class="edge">
<title>Node13&#45;&gt;Node14</title>
<g id="a_edge20_Node000013_Node000014"><a xlink:title=" ">
<path fill="none" stroke="#63b8ff" d="M264.25,-60.56C264.25,-52.78 264.25,-41.2 264.25,-31.16"/>
<polygon fill="#63b8ff" stroke="#63b8ff" points="267.75,-31.16 264.25,-21.16 260.75,-31.16 267.75,-31.16"/>
</a>
</g>
</g>
<!-- Node15&#45;&gt;Node2 -->
<g id="edge22_Node000015_Node000002" class="edge">
<title>Node15&#45;&gt;Node2</title>
<g id="a_edge22_Node000015_Node000002"><a xlink:title=" ">
<path fill="none" stroke="#63b8ff" d="M524.73,-60.56C535.17,-51.65 551.42,-37.78 564.16,-26.92"/>
<polygon fill="#63b8ff" stroke="#63b8ff" points="566.19,-29.79 571.52,-20.63 561.64,-24.46 566.19,-29.79"/>
</a>
</g>
</g>
<!-- Node16&#45;&gt;Node2 -->
<g id="edge24_Node000016_Node000002" class="edge">
<title>Node16&#45;&gt;Node2</title>
<g id="a_edge24_Node000016_Node000002"><a xlink:title=" ">
<path fill="none" stroke="#63b8ff" d="M1267,-60.41C1256.32,-58.47 1244.91,-56.6 1234.25,-55.25 1003.97,-26.15 725.3,-15.04 623.2,-11.77"/>
<polygon fill="#63b8ff" stroke="#63b8ff" points="623.54,-8.28 613.43,-11.47 623.32,-15.28 623.54,-8.28"/>
</a>
</g>
</g>
<!-- Node16&#45;&gt;Node7 -->
<g id="edge28_Node000016_Node000007" class="edge">
<title>Node16&#45;&gt;Node7</title>
<g id="a_edge28_Node000016_Node000007"><a xlink:title=" ">
<path fill="none" stroke="#63b8ff" d="M1264.92,-60.4C1254.83,-58.56 1244.2,-56.74 1234.25,-55.25 1096.21,-34.54 1060.72,-36.87 922.25,-19.25 912.44,-18 901.77,-16.55 892.09,-15.2"/>
<polygon fill="#63b8ff" stroke="#63b8ff" points="892.79,-11.76 882.4,-13.83 891.81,-18.7 892.79,-11.76"/>
</a>
</g>
</g>
<!-- Node17 -->
<g id="Node000017" class="node">
<title>Node17</title>
<g id="a_Node000017"><a xlink:title=" ">
<polygon fill="#e0e0e0" stroke="#999999" points="1258,-19.25 1198.5,-19.25 1198.5,0 1258,0 1258,-19.25"/>
<text text-anchor="middle" x="1228.25" y="-5.75" font-family="Helvetica,sans-Serif" font-size="10.00">DigiFont.h</text>
</a>
</g>
</g>
<!-- Node16&#45;&gt;Node17 -->
<g id="edge25_Node000016_Node000017" class="edge">
<title>Node16&#45;&gt;Node17</title>
<g id="a_edge25_Node000016_Node000017"><a xlink:title=" ">
<path fill="none" stroke="#63b8ff" d="M1298.64,-60.56C1285.85,-51.48 1265.77,-37.24 1250.33,-26.29"/>
<polygon fill="#63b8ff" stroke="#63b8ff" points="1252.39,-23.46 1242.21,-20.53 1248.34,-29.17 1252.39,-23.46"/>
</a>
</g>
</g>
<!-- Node18 -->
<g id="Node000018" class="node">
<title>Node18</title>
<g id="a_Node000018"><a xlink:title=" ">
<polygon fill="#e0e0e0" stroke="#999999" points="1344.5,-19.25 1276,-19.25 1276,0 1344.5,0 1344.5,-19.25"/>
<text text-anchor="middle" x="1310.25" y="-5.75" font-family="Helvetica,sans-Serif" font-size="10.00">NTPClient.h</text>
</a>
</g>
</g>
<!-- Node16&#45;&gt;Node18 -->
<g id="edge26_Node000016_Node000018" class="edge">
<title>Node16&#45;&gt;Node18</title>
<g id="a_edge26_Node000016_Node000018"><a xlink:title=" ">
<path fill="none" stroke="#63b8ff" d="M1311.1,-60.56C1310.97,-52.78 1310.77,-41.2 1310.6,-31.16"/>
<polygon fill="#63b8ff" stroke="#63b8ff" points="1314.1,-31.1 1310.43,-21.16 1307.1,-31.22 1314.1,-31.1"/>
</a>
</g>
</g>
<!-- Node19 -->
<g id="Node000019" class="node">
<title>Node19</title>
<g id="a_Node000019"><a xlink:title=" ">
<polygon fill="#e0e0e0" stroke="#999999" points="1423.75,-19.25 1362.75,-19.25 1362.75,0 1423.75,0 1423.75,-19.25"/>
<text text-anchor="middle" x="1393.25" y="-5.75" font-family="Helvetica,sans-Serif" font-size="10.00">WiFiUdp.h</text>
</a>
</g>
</g>
<!-- Node16&#45;&gt;Node19 -->
<g id="edge27_Node000016_Node000019" class="edge">
<title>Node16&#45;&gt;Node19</title>
<g id="a_edge27_Node000016_Node000019"><a xlink:title=" ">
<path fill="none" stroke="#63b8ff" d="M1323.7,-60.56C1336.35,-51.48 1356.18,-37.24 1371.44,-26.29"/>
<polygon fill="#63b8ff" stroke="#63b8ff" points="1373.37,-29.21 1379.45,-20.53 1369.28,-23.52 1373.37,-29.21"/>
</a>
</g>
</g>
<!-- Node20&#45;&gt;Node2 -->
<g id="edge30_Node000020_Node000002" class="edge">
<title>Node20&#45;&gt;Node2</title>
<g id="a_edge30_Node000020_Node000002"><a xlink:title=" ">
<path fill="none" stroke="#63b8ff" d="M642.62,-60.56C632.03,-51.65 615.54,-37.78 602.62,-26.92"/>
<polygon fill="#63b8ff" stroke="#63b8ff" points="605.05,-24.38 595.14,-20.63 600.54,-29.74 605.05,-24.38"/>
</a>
</g>
</g>
<!-- Node20&#45;&gt;Node7 -->
<g id="edge31_Node000020_Node000007" class="edge">
<title>Node20&#45;&gt;Node7</title>
<g id="a_edge31_Node000020_Node000007"><a xlink:title=" ">
<path fill="none" stroke="#63b8ff" d="M685.14,-60.43C724.26,-49.3 790.15,-30.56 828.98,-19.52"/>
<polygon fill="#63b8ff" stroke="#63b8ff" points="829.52,-23 838.19,-16.9 827.61,-16.27 829.52,-23"/>
</a>
</g>
</g>
<!-- Node21&#45;&gt;Node2 -->
<g id="edge33_Node000021_Node000002" class="edge">
<title>Node21&#45;&gt;Node2</title>
<g id="a_edge33_Node000021_Node000002"><a xlink:title=" ">
<path fill="none" stroke="#63b8ff" d="M1076.64,-56.41C1073.81,-56 1071,-55.61 1068.25,-55.25 903.65,-33.58 706.24,-18.9 623.17,-13.24"/>
<polygon fill="#63b8ff" stroke="#63b8ff" points="623.49,-9.75 613.27,-12.57 623.01,-16.73 623.49,-9.75"/>
</a>
</g>
</g>
<!-- Node21&#45;&gt;Node7 -->
<g id="edge36_Node000021_Node000007" class="edge">
<title>Node21&#45;&gt;Node7</title>
<g id="a_edge36_Node000021_Node000007"><a xlink:title=" ">
<path fill="none" stroke="#63b8ff" d="M1078.57,-54.8C1018.74,-42.69 936.77,-26.11 892.23,-17.1"/>
<polygon fill="#63b8ff" stroke="#63b8ff" points="892.95,-13.67 882.45,-15.12 891.56,-20.53 892.95,-13.67"/>
</a>
</g>
</g>
<!-- Node21&#45;&gt;Node9 -->
<g id="edge35_Node000021_Node000009" class="edge">
<title>Node21&#45;&gt;Node9</title>
<g id="a_edge35_Node000021_Node000009"><a xlink:title=" ">
<path fill="none" stroke="#63b8ff" d="M1130.49,-54.95C1118.07,-46.24 1102.28,-35.18 1089.59,-26.28"/>
<polygon fill="#63b8ff" stroke="#63b8ff" points="1091.64,-23.44 1081.44,-20.57 1087.62,-29.18 1091.64,-23.44"/>
</a>
</g>
</g>
<!-- Node21&#45;&gt;Node17 -->
<g id="edge34_Node000021_Node000017" class="edge">
<title>Node21&#45;&gt;Node17</title>
<g id="a_edge34_Node000021_Node000017"><a xlink:title=" ">
<path fill="none" stroke="#63b8ff" d="M1170.28,-54.95C1181.56,-46.33 1195.85,-35.4 1207.42,-26.55"/>
<polygon fill="#63b8ff" stroke="#63b8ff" points="1209.36,-29.48 1215.18,-20.62 1205.11,-23.91 1209.36,-29.48"/>
</a>
</g>
</g>
<!-- Node22 -->
<g id="Node000022" class="node">
<title>Node22</title>
<g id="a_Node000022"><a xlink:title=" ">
<polygon fill="#e0e0e0" stroke="#999999" points="1179.5,-19.25 1123,-19.25 1123,0 1179.5,0 1179.5,-19.25"/>
<text text-anchor="middle" x="1151.25" y="-5.75" font-family="Helvetica,sans-Serif" font-size="10.00">ctTimer.h</text>
</a>
</g>
</g>
<!-- Node21&#45;&gt;Node22 -->
<g id="edge37_Node000021_Node000022" class="edge">
<title>Node21&#45;&gt;Node22</title>
<g id="a_edge37_Node000021_Node000022"><a xlink:title=" ">
<path fill="none" stroke="#63b8ff" d="M1151.25,-54.95C1151.25,-47.71 1151.25,-38.84 1151.25,-30.94"/>
<polygon fill="#63b8ff" stroke="#63b8ff" points="1154.75,-31.21 1151.25,-21.21 1147.75,-31.21 1154.75,-31.21"/>
</a>
</g>
</g>
</g>
</svg>

<g id="navigator" transform="translate(0 0)" fill="#404254">
  <rect fill="#f2f5e9" fill-opacity="0.5" stroke="#606060" stroke-width=".5" x="0" y="0" width="60" height="60"/>
  <use id="zoomplus" xlink:href="#zoomPlus" x="17" y="9" onmousedown="handleZoom(evt,'in')"/>
  <use id="zoomminus" xlink:href="#zoomMin" x="42" y="9" onmousedown="handleZoom(evt,'out')"/>
  <use id="reset" xlink:href="#resetDef" x="30" y="36" onmousedown="handleReset()"/>
   <use id="arrowup" xlink:href="#arrowUp" x="0" y="0" onmousedown="handlePan(0,-1)"/>
  <use id="arrowright" xlink:href="#arrowRight" x="0" y="0" onmousedown="handlePan(1,0)"/>
  <use id="arrowdown" xlink:href="#arrowDown" x="0" y="0" onmousedown="handlePan(0,1)"/>
  <use id="arrowleft" xlink:href="#arrowLeft" x="0" y="0" onmousedown="handlePan(-1,0)"/>
</g>
<svg viewBox="0 0 15 15" width="100%" height="30px" preserveAspectRatio="xMaxYMin meet">
 <g id="arrow_out" transform="scale(0.3 0.3)">
  <a xlink:href="main_8cpp__incl_org.svg" target="_base">
   <rect id="button" ry="5" rx="5" y="6" x="6" height="38" width="38"
        fill="#f2f5e9" fill-opacity="0.5" stroke="#606060" stroke-width="1.0"/>
   <path id="arrow"
     d="M 11.500037,31.436501 C 11.940474,20.09759 22.043105,11.32322 32.158766,21.979434 L 37.068811,17.246167 C 37.068811,17.246167 37.088388,32 37.088388,32 L 22.160133,31.978069 C 22.160133,31.978069 26.997745,27.140456 26.997745,27.140456 C 18.528582,18.264221 13.291696,25.230495 11.500037,31.436501 z"
     style="fill:#404040;"/>
  </a>
 </g>
</svg>

<style type='text/css'>
<![CDATA[
[data-mouse-over-selected='false'] { opacity: 0.7; }
[data-mouse-over-selected='true']  { opacity: 1.0; }
]]>
</style>
<script type="application/ecmascript"><![CDATA[
document.addEventListener('DOMContentLoaded', (event) => {
  highlightEdges();
  highlightAdjacentNodes();
});
]]></script>
</svg>
