<?xml version="1.0" encoding="UTF-8" standalone="no"?>
<!DOCTYPE svg PUBLIC "-//W3C//DTD SVG 1.1//EN"
 "http://www.w3.org/Graphics/SVG/1.1/DTD/svg11.dtd">
<!-- Generated by graphviz version 7.0.5 (20221223.1930)
 -->
<!-- Title: src/main.cpp Pages: 1 -->
<svg width="1440pt" height="148pt"
 viewBox="0.00 0.00 1439.50 148.00" xmlns="http://www.w3.org/2000/svg" xmlns:xlink="http://www.w3.org/1999/xlink">
<g id="graph0" class="graph" transform="scale(1 1) rotate(0) translate(4 144)">
<title>src/main.cpp</title>
<!-- Node1 -->
<g id="node1" class="node">
<title>Node1</title>
<g id="a_node1"><a xlink:title=" ">
<polygon fill="#999999" stroke="#666666" points="498.5,-140 426.5,-140 426.5,-121 498.5,-121 498.5,-140"/>
<text text-anchor="middle" x="462.5" y="-128" font-family="Helvetica,sans-Serif" font-size="10.00">src/main.cpp</text>
</a>
</g>
</g>
<!-- Node2 -->
<g id="node2" class="node">
<title>Node2</title>
<g id="a_node2"><a xlink:title=" ">
<polygon fill="#e0e0e0" stroke="#999999" points="614,-19 557,-19 557,0 614,0 614,-19"/>
<text text-anchor="middle" x="585.5" y="-7" font-family="Helvetica,sans-Serif" font-size="10.00">Arduino.h</text>
</a>
</g>
</g>
<!-- Node1&#45;&gt;Node2 -->
<g id="edge1" class="edge">
<title>Node1&#45;&gt;Node2</title>
<path fill="none" stroke="#63b8ff" d="M426.02,-123.89C402.99,-118.25 374.95,-107.06 360.5,-85 353.2,-73.85 352.04,-65.3 360.5,-55 383.44,-27.08 486.95,-16.38 545.25,-12.52"/>
<polygon fill="#63b8ff" stroke="#63b8ff" points="545.34,-16.02 555.1,-11.91 544.91,-9.03 545.34,-16.02"/>
</g>
<!-- Node3 -->
<g id="node3" class="node">
<title>Node3</title>
<g id="a_node3"><a xlink:title=" ">
<polygon fill="#e0e0e0" stroke="#999999" points="51,-19 0,-19 0,0 51,0 51,-19"/>
<text text-anchor="middle" x="25.5" y="-7" font-family="Helvetica,sans-Serif" font-size="10.00">memory</text>
</a>
</g>
</g>
<!-- Node1&#45;&gt;Node3 -->
<g id="edge2" class="edge">
<title>Node1&#45;&gt;Node3</title>
<path fill="none" stroke="#63b8ff" d="M426.06,-129.34C340.56,-128.34 129.91,-122.07 71.5,-85 51.58,-72.36 38.91,-47.67 32.02,-30.18"/>
<polygon fill="#63b8ff" stroke="#63b8ff" points="35.35,-29.1 28.66,-20.88 28.76,-31.48 35.35,-29.1"/>
</g>
<!-- Node4 -->
<g id="node4" class="node">
<title>Node4</title>
<g id="a_node4"><a xlink:title=" ">
<polygon fill="#e0e0e0" stroke="#999999" points="113.5,-19 69.5,-19 69.5,0 113.5,0 113.5,-19"/>
<text text-anchor="middle" x="91.5" y="-7" font-family="Helvetica,sans-Serif" font-size="10.00">vector</text>
</a>
</g>
</g>
<!-- Node1&#45;&gt;Node4 -->
<g id="edge3" class="edge">
<title>Node1&#45;&gt;Node4</title>
<path fill="none" stroke="#63b8ff" d="M426.29,-127.95C335.75,-123.7 105.16,-110.46 82.5,-85 69.13,-69.97 75.16,-45.98 82.05,-29.3"/>
<polygon fill="#63b8ff" stroke="#63b8ff" points="85.1,-31.04 86.1,-20.49 78.74,-28.11 85.1,-31.04"/>
</g>
<!-- Node5 -->
<g id="node5" class="node">
<title>Node5</title>
<g id="a_node5"><a xlink:href="AppCollection_8h.html" target="_top" xlink:title=" ">
<polygon fill="white" stroke="#666666" points="197.5,-79.5 91.5,-79.5 91.5,-60.5 197.5,-60.5 197.5,-79.5"/>
<text text-anchor="middle" x="144.5" y="-67.5" font-family="Helvetica,sans-Serif" font-size="10.00">core/AppCollection.h</text>
</a>
</g>
</g>
<!-- Node1&#45;&gt;Node5 -->
<g id="edge4" class="edge">
<title>Node1&#45;&gt;Node5</title>
<path fill="none" stroke="#63b8ff" d="M426.36,-123.8C376.68,-115.84 284.58,-100.59 206.5,-85 202.42,-84.18 198.19,-83.31 193.96,-82.4"/>
<polygon fill="#63b8ff" stroke="#63b8ff" points="194.8,-79 184.28,-80.29 193.3,-85.84 194.8,-79"/>
</g>
<!-- Node8 -->
<g id="node8" class="node">
<title>Node8</title>
<g id="a_node8"><a xlink:href="AppLauncher_8h.html" target="_top" xlink:title=" ">
<polygon fill="white" stroke="#666666" points="914.5,-79.5 750.5,-79.5 750.5,-60.5 914.5,-60.5 914.5,-79.5"/>
<text text-anchor="middle" x="832.5" y="-67.5" font-family="Helvetica,sans-Serif" font-size="10.00">core/AppLauncher/AppLauncher.h</text>
</a>
</g>
</g>
<!-- Node1&#45;&gt;Node8 -->
<g id="edge9" class="edge">
<title>Node1&#45;&gt;Node8</title>
<path fill="none" stroke="#63b8ff" d="M498.99,-123.73C560.59,-113.99 686.13,-94.14 764.39,-81.77"/>
<polygon fill="#63b8ff" stroke="#63b8ff" points="764.76,-85.25 774.09,-80.24 763.67,-78.34 764.76,-85.25"/>
</g>
<!-- Node10 -->
<g id="node10" class="node">
<title>Node10</title>
<g id="a_node10"><a xlink:href="Settings_8h.html" target="_top" xlink:title=" ">
<polygon fill="white" stroke="#666666" points="451.5,-79.5 369.5,-79.5 369.5,-60.5 451.5,-60.5 451.5,-79.5"/>
<text text-anchor="middle" x="410.5" y="-67.5" font-family="Helvetica,sans-Serif" font-size="10.00">core/Settings.h</text>
</a>
</g>
</g>
<!-- Node1&#45;&gt;Node10 -->
<g id="edge13" class="edge">
<title>Node1&#45;&gt;Node10</title>
<path fill="none" stroke="#63b8ff" d="M454.83,-120.87C447.22,-112.31 435.36,-98.97 425.82,-88.24"/>
<polygon fill="#63b8ff" stroke="#63b8ff" points="428.47,-85.95 419.21,-80.8 423.24,-90.6 428.47,-85.95"/>
</g>
<!-- Node11 -->
<g id="node11" class="node">
<title>Node11</title>
<g id="a_node11"><a xlink:href="SettingsApp_8h.html" target="_top" xlink:title=" ">
<polygon fill="white" stroke="#666666" points="1064,-85 933,-85 933,-55 1064,-55 1064,-85"/>
<text text-anchor="start" x="941" y="-73" font-family="Helvetica,sans-Serif" font-size="10.00">core/SettingsApp/Settings</text>
<text text-anchor="middle" x="998.5" y="-62" font-family="Helvetica,sans-Serif" font-size="10.00">App.h</text>
</a>
</g>
</g>
<!-- Node1&#45;&gt;Node11 -->
<g id="edge15" class="edge">
<title>Node1&#45;&gt;Node11</title>
<path fill="none" stroke="#63b8ff" d="M498.79,-127.09C575.02,-121.8 757.61,-107.89 921.44,-85.2"/>
<polygon fill="#63b8ff" stroke="#63b8ff" points="921.79,-88.69 931.21,-83.83 920.82,-81.75 921.79,-88.69"/>
</g>
<!-- Node13 -->
<g id="node13" class="node">
<title>Node13</title>
<g id="a_node13"><a xlink:href="Display_8h.html" target="_top" xlink:title=" ">
<polygon fill="white" stroke="#666666" points="313.5,-79.5 215.5,-79.5 215.5,-60.5 313.5,-60.5 313.5,-79.5"/>
<text text-anchor="middle" x="264.5" y="-67.5" font-family="Helvetica,sans-Serif" font-size="10.00">hardware/Display.h</text>
</a>
</g>
</g>
<!-- Node1&#45;&gt;Node13 -->
<g id="edge18" class="edge">
<title>Node1&#45;&gt;Node13</title>
<path fill="none" stroke="#63b8ff" d="M432.43,-120.62C398.56,-110.61 343.31,-94.29 305.5,-83.12"/>
<polygon fill="#63b8ff" stroke="#63b8ff" points="306.89,-79.87 296.31,-80.4 304.9,-86.59 306.89,-79.87"/>
</g>
<!-- Node15 -->
<g id="node15" class="node">
<title>Node15</title>
<g id="a_node15"><a xlink:href="Piezo_8h.html" target="_top" xlink:title=" ">
<polygon fill="white" stroke="#666666" points="561,-79.5 470,-79.5 470,-60.5 561,-60.5 561,-79.5"/>
<text text-anchor="middle" x="515.5" y="-67.5" font-family="Helvetica,sans-Serif" font-size="10.00">hardware/Piezo.h</text>
</a>
</g>
</g>
<!-- Node1&#45;&gt;Node15 -->
<g id="edge21" class="edge">
<title>Node1&#45;&gt;Node15</title>
<path fill="none" stroke="#63b8ff" d="M470.32,-120.87C478.15,-112.23 490.4,-98.7 500.17,-87.92"/>
<polygon fill="#63b8ff" stroke="#63b8ff" points="502.51,-90.55 506.63,-80.79 497.32,-85.85 502.51,-90.55"/>
</g>
<!-- Node16 -->
<g id="node16" class="node">
<title>Node16</title>
<g id="a_node16"><a xlink:href="ClockApp_8h.html" target="_top" xlink:title=" ">
<polygon fill="white" stroke="#666666" points="1384,-79.5 1249,-79.5 1249,-60.5 1384,-60.5 1384,-79.5"/>
<text text-anchor="middle" x="1316.5" y="-67.5" font-family="Helvetica,sans-Serif" font-size="10.00">apps/ClockApp/ClockApp.h</text>
</a>
</g>
</g>
<!-- Node1&#45;&gt;Node16 -->
<g id="edge23" class="edge">
<title>Node1&#45;&gt;Node16</title>
<path fill="none" stroke="#63b8ff" d="M498.7,-129.04C609.88,-127.27 956.07,-119.2 1240.5,-85 1247.49,-84.16 1254.81,-83.07 1262.04,-81.88"/>
<polygon fill="#63b8ff" stroke="#63b8ff" points="1262.49,-85.35 1271.75,-80.2 1261.29,-78.46 1262.49,-85.35"/>
</g>
<!-- Node20 -->
<g id="node20" class="node">
<title>Node20</title>
<g id="a_node20"><a xlink:href="GooglyEyes_8h.html" target="_top" xlink:title=" ">
<polygon fill="white" stroke="#666666" points="732,-79.5 579,-79.5 579,-60.5 732,-60.5 732,-79.5"/>
<text text-anchor="middle" x="655.5" y="-67.5" font-family="Helvetica,sans-Serif" font-size="10.00">apps/GooglyEyes/GooglyEyes.h</text>
</a>
</g>
</g>
<!-- Node1&#45;&gt;Node20 -->
<g id="edge29" class="edge">
<title>Node1&#45;&gt;Node20</title>
<path fill="none" stroke="#63b8ff" d="M491.81,-120.62C524.69,-110.65 578.21,-94.43 615.06,-83.26"/>
<polygon fill="#63b8ff" stroke="#63b8ff" points="615.91,-86.66 624.46,-80.41 613.88,-79.96 615.91,-86.66"/>
</g>
<!-- Node21 -->
<g id="node21" class="node">
<title>Node21</title>
<g id="a_node21"><a xlink:href="PomodoroApp_8h.html" target="_top" xlink:title=" ">
<polygon fill="white" stroke="#666666" points="1231,-85 1082,-85 1082,-55 1231,-55 1231,-85"/>
<text text-anchor="start" x="1090" y="-73" font-family="Helvetica,sans-Serif" font-size="10.00">apps/PomodoroApp/Pomodoro</text>
<text text-anchor="middle" x="1156.5" y="-62" font-family="Helvetica,sans-Serif" font-size="10.00">App.h</text>
</a>
</g>
</g>
<!-- Node1&#45;&gt;Node21 -->
<g id="edge32" class="edge">
<title>Node1&#45;&gt;Node21</title>
<path fill="none" stroke="#63b8ff" d="M498.77,-128.05C591.96,-124.09 847.56,-111.6 1070.62,-85.27"/>
<polygon fill="#63b8ff" stroke="#63b8ff" points="1070.87,-88.77 1080.39,-84.11 1070.04,-81.82 1070.87,-88.77"/>
</g>
<!-- Node5&#45;&gt;Node3 -->
<g id="edge5" class="edge">
<title>Node5&#45;&gt;Node3</title>
<path fill="none" stroke="#63b8ff" d="M126.43,-60.12C107.21,-50.67 76.53,-35.59 54.04,-24.53"/>
<polygon fill="#63b8ff" stroke="#63b8ff" points="55.62,-21.41 45.1,-20.14 52.53,-27.69 55.62,-21.41"/>
</g>
<!-- Node5&#45;&gt;Node4 -->
<g id="edge7" class="edge">
<title>Node5&#45;&gt;Node4</title>
<path fill="none" stroke="#63b8ff" d="M136.68,-60.37C128.85,-51.73 116.6,-38.2 106.83,-27.42"/>
<polygon fill="#63b8ff" stroke="#63b8ff" points="109.68,-25.35 100.37,-20.29 104.49,-30.05 109.68,-25.35"/>
</g>
<!-- Node6 -->
<g id="node6" class="node">
<title>Node6</title>
<g id="a_node6"><a xlink:title=" ">
<polygon fill="#e0e0e0" stroke="#999999" points="173,-19 132,-19 132,0 173,0 173,-19"/>
<text text-anchor="middle" x="152.5" y="-7" font-family="Helvetica,sans-Serif" font-size="10.00">string</text>
</a>
</g>
</g>
<!-- Node5&#45;&gt;Node6 -->
<g id="edge6" class="edge">
<title>Node5&#45;&gt;Node6</title>
<path fill="none" stroke="#63b8ff" d="M145.68,-60.37C146.76,-52.5 148.38,-40.6 149.78,-30.39"/>
<polygon fill="#63b8ff" stroke="#63b8ff" points="153.22,-31.05 151.11,-20.67 146.29,-30.1 153.22,-31.05"/>
</g>
<!-- Node7 -->
<g id="node7" class="node">
<title>Node7</title>
<g id="a_node7"><a xlink:href="App_8h.html" target="_top" xlink:title="Abstract base class for applications.">
<polygon fill="white" stroke="#666666" points="885,-19 844,-19 844,0 885,0 885,-19"/>
<text text-anchor="middle" x="864.5" y="-7" font-family="Helvetica,sans-Serif" font-size="10.00">App.h</text>
</a>
</g>
</g>
<!-- Node5&#45;&gt;Node7 -->
<g id="edge8" class="edge">
<title>Node5&#45;&gt;Node7</title>
<path fill="none" stroke="#63b8ff" d="M179.73,-60.05C188.43,-58.12 197.76,-56.27 206.5,-55 329.62,-37.05 717.92,-17.5 832.42,-12.01"/>
<polygon fill="#63b8ff" stroke="#63b8ff" points="832.49,-15.51 842.31,-11.54 832.16,-8.52 832.49,-15.51"/>
</g>
<!-- Node8&#45;&gt;Node2 -->
<g id="edge10" class="edge">
<title>Node8&#45;&gt;Node2</title>
<path fill="none" stroke="#63b8ff" d="M794.72,-60.05C749,-49.22 672.34,-31.07 625.6,-20"/>
<polygon fill="#63b8ff" stroke="#63b8ff" points="626.41,-16.59 615.88,-17.69 624.8,-23.4 626.41,-16.59"/>
</g>
<!-- Node8&#45;&gt;Node7 -->
<g id="edge12" class="edge">
<title>Node8&#45;&gt;Node7</title>
<path fill="none" stroke="#63b8ff" d="M837.22,-60.37C841.71,-52.16 848.61,-39.54 854.35,-29.05"/>
<polygon fill="#63b8ff" stroke="#63b8ff" points="857.3,-30.95 859.03,-20.5 851.16,-27.59 857.3,-30.95"/>
</g>
<!-- Node9 -->
<g id="node9" class="node">
<title>Node9</title>
<g id="a_node9"><a xlink:title=" ">
<polygon fill="#e0e0e0" stroke="#999999" points="1110,-19 1035,-19 1035,0 1110,0 1110,-19"/>
<text text-anchor="middle" x="1072.5" y="-7" font-family="Helvetica,sans-Serif" font-size="10.00">eSPI_Menu.h</text>
</a>
</g>
</g>
<!-- Node8&#45;&gt;Node9 -->
<g id="edge11" class="edge">
<title>Node8&#45;&gt;Node9</title>
<path fill="none" stroke="#63b8ff" d="M869.21,-60.05C910.85,-49.9 978.9,-33.31 1024.67,-22.16"/>
<polygon fill="#63b8ff" stroke="#63b8ff" points="1025.43,-25.57 1034.32,-19.81 1023.78,-18.77 1025.43,-25.57"/>
</g>
<!-- Node10&#45;&gt;Node2 -->
<g id="edge14" class="edge">
<title>Node10&#45;&gt;Node2</title>
<path fill="none" stroke="#63b8ff" d="M437.08,-60.12C466.63,-50.24 514.59,-34.21 547.96,-23.05"/>
<polygon fill="#63b8ff" stroke="#63b8ff" points="548.86,-26.44 557.24,-19.95 546.64,-19.8 548.86,-26.44"/>
</g>
<!-- Node11&#45;&gt;Node7 -->
<g id="edge17" class="edge">
<title>Node11&#45;&gt;Node7</title>
<path fill="none" stroke="#63b8ff" d="M965.38,-54.54C943.86,-45.15 916.02,-32.99 895.04,-23.83"/>
<polygon fill="#63b8ff" stroke="#63b8ff" points="896.72,-20.75 886.15,-19.95 893.91,-27.16 896.72,-20.75"/>
</g>
<!-- Node12 -->
<g id="node12" class="node">
<title>Node12</title>
<g id="a_node12"><a xlink:title=" ">
<polygon fill="#e0e0e0" stroke="#999999" points="1017,-19 936,-19 936,0 1017,0 1017,-19"/>
<text text-anchor="middle" x="976.5" y="-7" font-family="Helvetica,sans-Serif" font-size="10.00">WiFiManager.h</text>
</a>
</g>
</g>
<!-- Node11&#45;&gt;Node12 -->
<g id="edge16" class="edge">
<title>Node11&#45;&gt;Node12</title>
<path fill="none" stroke="#63b8ff" d="M993.06,-54.54C990.26,-47.08 986.8,-37.89 983.77,-29.83"/>
<polygon fill="#63b8ff" stroke="#63b8ff" points="987.09,-28.72 980.3,-20.59 980.54,-31.18 987.09,-28.72"/>
</g>
<!-- Node13&#45;&gt;Node2 -->
<g id="edge19" class="edge">
<title>Node13&#45;&gt;Node2</title>
<path fill="none" stroke="#63b8ff" d="M303.42,-60.04C311.37,-58.3 319.7,-56.54 327.5,-55 404.45,-39.82 494.89,-24.89 545.66,-16.76"/>
<polygon fill="#63b8ff" stroke="#63b8ff" points="545.96,-20.26 555.29,-15.23 544.86,-13.35 545.96,-20.26"/>
</g>
<!-- Node14 -->
<g id="node14" class="node">
<title>Node14</title>
<g id="a_node14"><a xlink:title=" ">
<polygon fill="#e0e0e0" stroke="#999999" points="299,-19 230,-19 230,0 299,0 299,-19"/>
<text text-anchor="middle" x="264.5" y="-7" font-family="Helvetica,sans-Serif" font-size="10.00">TFT_eSPI.h</text>
</a>
</g>
</g>
<!-- Node13&#45;&gt;Node14 -->
<g id="edge20" class="edge">
<title>Node13&#45;&gt;Node14</title>
<path fill="none" stroke="#63b8ff" d="M264.5,-60.37C264.5,-52.5 264.5,-40.6 264.5,-30.39"/>
<polygon fill="#63b8ff" stroke="#63b8ff" points="268,-30.68 264.5,-20.68 261,-30.68 268,-30.68"/>
</g>
<!-- Node15&#45;&gt;Node2 -->
<g id="edge22" class="edge">
<title>Node15&#45;&gt;Node2</title>
<path fill="none" stroke="#63b8ff" d="M526.13,-60.12C536.72,-51.27 553.21,-37.48 566.13,-26.69"/>
<polygon fill="#63b8ff" stroke="#63b8ff" points="568.18,-29.54 573.61,-20.44 563.69,-24.17 568.18,-29.54"/>
</g>
<!-- Node16&#45;&gt;Node2 -->
<g id="edge24" class="edge">
<title>Node16&#45;&gt;Node2</title>
<path fill="none" stroke="#63b8ff" d="M1272.83,-60.07C1262.28,-58.16 1251.02,-56.32 1240.5,-55 1008.8,-25.88 728.42,-14.87 625.7,-11.63"/>
<polygon fill="#63b8ff" stroke="#63b8ff" points="625.96,-8.14 615.86,-11.33 625.74,-15.13 625.96,-8.14"/>
</g>
<!-- Node16&#45;&gt;Node7 -->
<g id="edge28" class="edge">
<title>Node16&#45;&gt;Node7</title>
<path fill="none" stroke="#63b8ff" d="M1270.77,-60.06C1260.81,-58.26 1250.32,-56.47 1240.5,-55 1102.01,-34.3 1066.45,-36.36 927.5,-19 917.53,-17.75 906.69,-16.32 896.86,-14.99"/>
<polygon fill="#63b8ff" stroke="#63b8ff" points="897.37,-11.53 886.99,-13.64 896.42,-18.46 897.37,-11.53"/>
</g>
<!-- Node17 -->
<g id="node17" class="node">
<title>Node17</title>
<g id="a_node17"><a xlink:title=" ">
<polygon fill="#e0e0e0" stroke="#999999" points="1263.5,-19 1203.5,-19 1203.5,0 1263.5,0 1263.5,-19"/>
<text text-anchor="middle" x="1233.5" y="-7" font-family="Helvetica,sans-Serif" font-size="10.00">DigiFont.h</text>
</a>
</g>
</g>
<!-- Node16&#45;&gt;Node17 -->
<g id="edge25" class="edge">
<title>Node16&#45;&gt;Node17</title>
<path fill="none" stroke="#63b8ff" d="M1303.89,-60.12C1291.1,-51.1 1271.02,-36.95 1255.58,-26.06"/>
<polygon fill="#63b8ff" stroke="#63b8ff" points="1257.65,-23.24 1247.46,-20.34 1253.62,-28.96 1257.65,-23.24"/>
</g>
<!-- Node18 -->
<g id="node18" class="node">
<title>Node18</title>
<g id="a_node18"><a xlink:title=" ">
<polygon fill="#e0e0e0" stroke="#999999" points="1351,-19 1282,-19 1282,0 1351,0 1351,-19"/>
<text text-anchor="middle" x="1316.5" y="-7" font-family="Helvetica,sans-Serif" font-size="10.00">NTPClient.h</text>
</a>
</g>
</g>
<!-- Node16&#45;&gt;Node18 -->
<g id="edge26" class="edge">
<title>Node16&#45;&gt;Node18</title>
<path fill="none" stroke="#63b8ff" d="M1316.5,-60.37C1316.5,-52.5 1316.5,-40.6 1316.5,-30.39"/>
<polygon fill="#63b8ff" stroke="#63b8ff" points="1320,-30.68 1316.5,-20.68 1313,-30.68 1320,-30.68"/>
</g>
<!-- Node19 -->
<g id="node19" class="node">
<title>Node19</title>
<g id="a_node19"><a xlink:title=" ">
<polygon fill="#e0e0e0" stroke="#999999" points="1431.5,-19 1369.5,-19 1369.5,0 1431.5,0 1431.5,-19"/>
<text text-anchor="middle" x="1400.5" y="-7" font-family="Helvetica,sans-Serif" font-size="10.00">WiFiUdp.h</text>
</a>
</g>
</g>
<!-- Node16&#45;&gt;Node19 -->
<g id="edge27" class="edge">
<title>Node16&#45;&gt;Node19</title>
<path fill="none" stroke="#63b8ff" d="M1329.26,-60.12C1342.33,-51.01 1362.91,-36.68 1378.6,-25.75"/>
<polygon fill="#63b8ff" stroke="#63b8ff" points="1380.17,-28.92 1386.38,-20.33 1376.17,-23.18 1380.17,-28.92"/>
</g>
<!-- Node20&#45;&gt;Node2 -->
<g id="edge30" class="edge">
<title>Node20&#45;&gt;Node2</title>
<path fill="none" stroke="#63b8ff" d="M644.87,-60.12C634.28,-51.27 617.79,-37.48 604.87,-26.69"/>
<polygon fill="#63b8ff" stroke="#63b8ff" points="607.31,-24.17 597.39,-20.44 602.82,-29.54 607.31,-24.17"/>
</g>
<!-- Node20&#45;&gt;Node7 -->
<g id="edge31" class="edge">
<title>Node20&#45;&gt;Node7</title>
<path fill="none" stroke="#63b8ff" d="M687.24,-60.12C726.55,-49.11 793.12,-30.48 832.53,-19.45"/>
<polygon fill="#63b8ff" stroke="#63b8ff" points="833.45,-22.83 842.13,-16.76 831.56,-16.09 833.45,-22.83"/>
</g>
<!-- Node21&#45;&gt;Node2 -->
<g id="edge33" class="edge">
<title>Node21&#45;&gt;Node2</title>
<path fill="none" stroke="#63b8ff" d="M1081.88,-56.14C1079.06,-55.74 1076.25,-55.36 1073.5,-55 907.88,-33.51 709.31,-18.81 625.71,-13.13"/>
<polygon fill="#63b8ff" stroke="#63b8ff" points="626.18,-9.65 615.97,-12.47 625.71,-16.63 626.18,-9.65"/>
</g>
<!-- Node21&#45;&gt;Node7 -->
<g id="edge36" class="edge">
<title>Node21&#45;&gt;Node7</title>
<path fill="none" stroke="#63b8ff" d="M1084.32,-54.54C1024.17,-42.49 941.33,-25.89 896.48,-16.91"/>
<polygon fill="#63b8ff" stroke="#63b8ff" points="897.38,-13.52 886.89,-14.99 896.01,-20.38 897.38,-13.52"/>
</g>
<!-- Node21&#45;&gt;Node9 -->
<g id="edge35" class="edge">
<title>Node21&#45;&gt;Node9</title>
<path fill="none" stroke="#63b8ff" d="M1135.74,-54.54C1123.16,-45.78 1107.14,-34.63 1094.37,-25.73"/>
<polygon fill="#63b8ff" stroke="#63b8ff" points="1096.4,-22.88 1086.2,-20.04 1092.4,-28.63 1096.4,-22.88"/>
</g>
<!-- Node21&#45;&gt;Node17 -->
<g id="edge34" class="edge">
<title>Node21&#45;&gt;Node17</title>
<path fill="none" stroke="#63b8ff" d="M1175.53,-54.54C1186.95,-45.87 1201.45,-34.85 1213.1,-26"/>
<polygon fill="#63b8ff" stroke="#63b8ff" points="1215.03,-28.93 1220.88,-20.09 1210.8,-23.35 1215.03,-28.93"/>
</g>
<!-- Node22 -->
<g id="node22" class="node">
<title>Node22</title>
<g id="a_node22"><a xlink:title=" ">
<polygon fill="#e0e0e0" stroke="#999999" points="1185,-19 1128,-19 1128,0 1185,0 1185,-19"/>
<text text-anchor="middle" x="1156.5" y="-7" font-family="Helvetica,sans-Serif" font-size="10.00">ctTimer.h</text>
</a>
</g>
</g>
<!-- Node21&#45;&gt;Node22 -->
<g id="edge37" class="edge">
<title>Node21&#45;&gt;Node22</title>
<path fill="none" stroke="#63b8ff" d="M1156.5,-54.54C1156.5,-47.34 1156.5,-38.53 1156.5,-30.68"/>
<polygon fill="#63b8ff" stroke="#63b8ff" points="1160,-30.69 1156.5,-20.69 1153,-30.69 1160,-30.69"/>
</g>
</g>
</svg>
