<?xml version="1.0" encoding="UTF-8" standalone="no"?>
<!DOCTYPE svg PUBLIC "-//W3C//DTD SVG 1.1//EN"
 "http://www.w3.org/Graphics/SVG/1.1/DTD/svg11.dtd">
<!-- Generated by graphviz version 12.1.2 (0)
 -->
<!-- Title: src/main.cpp Pages: 1 -->
<svg width="1439pt" height="146pt"
 viewBox="0.00 0.00 1439.25 146.00" xmlns="http://www.w3.org/2000/svg" xmlns:xlink="http://www.w3.org/1999/xlink">
<g id="graph0" class="graph" transform="scale(1 1) rotate(0) translate(4 142)">
<title>src/main.cpp</title>
<!-- Node1 -->
<g id="Node000001" class="node">
<title>Node1</title>
<g id="a_Node000001"><a xlink:title=" ">
<polygon fill="#999999" stroke="#666666" points="500.12,-138 427.88,-138 427.88,-119.5 500.12,-119.5 500.12,-138"/>
<text text-anchor="middle" x="464" y="-124.5" font-family="Helvetica,sans-Serif" font-size="10.00">src/main.cpp</text>
</a>
</g>
</g>
<!-- Node2 -->
<g id="Node000002" class="node">
<title>Node2</title>
<g id="a_Node000002"><a xlink:title=" ">
<polygon fill="#e0e0e0" stroke="#999999" points="614.62,-18.5 557.38,-18.5 557.38,0 614.62,0 614.62,-18.5"/>
<text text-anchor="middle" x="586" y="-5" font-family="Helvetica,sans-Serif" font-size="10.00">Arduino.h</text>
</a>
</g>
</g>
<!-- Node1&#45;&gt;Node2 -->
<g id="edge1_Node000001_Node000002" class="edge">
<title>Node1&#45;&gt;Node2</title>
<g id="a_edge1_Node000001_Node000002"><a xlink:title=" ">
<path fill="none" stroke="#63b8ff" d="M427.52,-122.23C404.5,-116.65 376.46,-105.53 362,-83.5 354.93,-72.72 353.82,-64.46 362,-54.5 384.84,-26.71 487.88,-16.08 545.93,-12.25"/>
<polygon fill="#63b8ff" stroke="#63b8ff" points="545.97,-15.75 555.73,-11.65 545.54,-8.77 545.97,-15.75"/>
</a>
</g>
</g>
<!-- Node3 -->
<g id="Node000003" class="node">
<title>Node3</title>
<g id="a_Node000003"><a xlink:title=" ">
<polygon fill="#e0e0e0" stroke="#999999" points="52,-18.5 0,-18.5 0,0 52,0 52,-18.5"/>
<text text-anchor="middle" x="26" y="-5" font-family="Helvetica,sans-Serif" font-size="10.00">memory</text>
</a>
</g>
</g>
<!-- Node1&#45;&gt;Node3 -->
<g id="edge2_Node000001_Node000003" class="edge">
<title>Node1&#45;&gt;Node3</title>
<g id="a_edge2_Node000001_Node000003"><a xlink:title=" ">
<path fill="none" stroke="#63b8ff" d="M427.69,-127.65C341.95,-126.78 129.75,-120.83 71,-83.5 51.44,-71.07 39.06,-46.78 32.34,-29.58"/>
<polygon fill="#63b8ff" stroke="#63b8ff" points="35.66,-28.48 29,-20.24 29.07,-30.83 35.66,-28.48"/>
</a>
</g>
</g>
<!-- Node4 -->
<g id="Node000004" class="node">
<title>Node4</title>
<g id="a_Node000004"><a xlink:title=" ">
<polygon fill="#e0e0e0" stroke="#999999" points="112.12,-18.5 69.88,-18.5 69.88,0 112.12,0 112.12,-18.5"/>
<text text-anchor="middle" x="91" y="-5" font-family="Helvetica,sans-Serif" font-size="10.00">vector</text>
</a>
</g>
</g>
<!-- Node1&#45;&gt;Node4 -->
<g id="edge3_Node000001_Node000004" class="edge">
<title>Node1&#45;&gt;Node4</title>
<g id="a_edge3_Node000001_Node000004"><a xlink:title=" ">
<path fill="none" stroke="#63b8ff" d="M427.7,-126.23C336.92,-122.06 105.72,-109.02 83,-83.5 69.99,-68.89 75.38,-45.61 81.82,-29.22"/>
<polygon fill="#63b8ff" stroke="#63b8ff" points="85.01,-30.67 85.84,-20.11 78.6,-27.84 85.01,-30.67"/>
</a>
</g>
</g>
<!-- Node5 -->
<g id="Node000005" class="node">
<title>Node5</title>
<g id="a_Node000005"><a xlink:href="AppCollection_8h.html" target="_top" xlink:title=" ">
<polygon fill="white" stroke="#666666" points="198.38,-78.25 91.62,-78.25 91.62,-59.75 198.38,-59.75 198.38,-78.25"/>
<text text-anchor="middle" x="145" y="-64.75" font-family="Helvetica,sans-Serif" font-size="10.00">core/AppCollection.h</text>
</a>
</g>
</g>
<!-- Node1&#45;&gt;Node5 -->
<g id="edge4_Node000001_Node000005" class="edge">
<title>Node1&#45;&gt;Node5</title>
<g id="a_edge4_Node000001_Node000005"><a xlink:title=" ">
<path fill="none" stroke="#63b8ff" d="M427.46,-121.9C377.71,-113.84 285.94,-98.58 208,-83.5 203.97,-82.72 199.81,-81.89 195.63,-81.03"/>
<polygon fill="#63b8ff" stroke="#63b8ff" points="196.59,-77.66 186.09,-79.05 195.17,-84.51 196.59,-77.66"/>
</a>
</g>
</g>
<!-- Node8 -->
<g id="Node000008" class="node">
<title>Node8</title>
<g id="a_Node000008"><a xlink:href="AppLauncher_8h.html" target="_top" xlink:title=" ">
<polygon fill="white" stroke="#666666" points="915.5,-78.25 752.5,-78.25 752.5,-59.75 915.5,-59.75 915.5,-78.25"/>
<text text-anchor="middle" x="834" y="-64.75" font-family="Helvetica,sans-Serif" font-size="10.00">core/AppLauncher/AppLauncher.h</text>
</a>
</g>
</g>
<!-- Node1&#45;&gt;Node8 -->
<g id="edge9_Node000001_Node000008" class="edge">
<title>Node1&#45;&gt;Node8</title>
<g id="a_edge9_Node000001_Node000008"><a xlink:title=" ">
<path fill="none" stroke="#63b8ff" d="M500.49,-122.05C562.35,-112.4 688.7,-92.68 766.89,-80.48"/>
<polygon fill="#63b8ff" stroke="#63b8ff" points="767.22,-83.97 776.56,-78.96 766.14,-77.05 767.22,-83.97"/>
</a>
</g>
</g>
<!-- Node10 -->
<g id="Node000010" class="node">
<title>Node10</title>
<g id="a_Node000010"><a xlink:href="Settings_8h.html" target="_top" xlink:title=" ">
<polygon fill="white" stroke="#666666" points="453,-78.25 371,-78.25 371,-59.75 453,-59.75 453,-78.25"/>
<text text-anchor="middle" x="412" y="-64.75" font-family="Helvetica,sans-Serif" font-size="10.00">core/Settings.h</text>
</a>
</g>
</g>
<!-- Node1&#45;&gt;Node10 -->
<g id="edge13_Node000001_Node000010" class="edge">
<title>Node1&#45;&gt;Node10</title>
<g id="a_edge13_Node000001_Node000010"><a xlink:title=" ">
<path fill="none" stroke="#63b8ff" d="M456.33,-119.23C448.72,-110.78 436.86,-97.61 427.32,-87.02"/>
<polygon fill="#63b8ff" stroke="#63b8ff" points="430.01,-84.77 420.72,-79.68 424.81,-89.45 430.01,-84.77"/>
</a>
</g>
</g>
<!-- Node11 -->
<g id="Node000011" class="node">
<title>Node11</title>
<g id="a_Node000011"><a xlink:href="SettingsApp_8h.html" target="_top" xlink:title=" ">
<polygon fill="white" stroke="#666666" points="1064,-83.5 934,-83.5 934,-54.5 1064,-54.5 1064,-83.5"/>
<text text-anchor="start" x="942" y="-70" font-family="Helvetica,sans-Serif" font-size="10.00">core/SettingsApp/Settings</text>
<text text-anchor="middle" x="999" y="-59.5" font-family="Helvetica,sans-Serif" font-size="10.00">App.h</text>
</a>
</g>
</g>
<!-- Node1&#45;&gt;Node11 -->
<g id="edge15_Node000001_Node000011" class="edge">
<title>Node1&#45;&gt;Node11</title>
<g id="a_edge15_Node000001_Node000011"><a xlink:title=" ">
<path fill="none" stroke="#63b8ff" d="M500.58,-125.3C576.98,-119.95 759.28,-106 922.46,-83.77"/>
<polygon fill="#63b8ff" stroke="#63b8ff" points="922.75,-87.27 932.18,-82.43 921.79,-80.33 922.75,-87.27"/>
</a>
</g>
</g>
<!-- Node13 -->
<g id="Node000013" class="node">
<title>Node13</title>
<g id="a_Node000013"><a xlink:href="Display_8h.html" target="_top" xlink:title=" ">
<polygon fill="white" stroke="#666666" points="315.25,-78.25 216.75,-78.25 216.75,-59.75 315.25,-59.75 315.25,-78.25"/>
<text text-anchor="middle" x="266" y="-64.75" font-family="Helvetica,sans-Serif" font-size="10.00">hardware/Display.h</text>
</a>
</g>
</g>
<!-- Node1&#45;&gt;Node13 -->
<g id="edge18_Node000001_Node000013" class="edge">
<title>Node1&#45;&gt;Node13</title>
<g id="a_edge18_Node000001_Node000013"><a xlink:title=" ">
<path fill="none" stroke="#63b8ff" d="M434.36,-119.1C400.38,-109.2 344.51,-92.9 306.53,-81.82"/>
<polygon fill="#63b8ff" stroke="#63b8ff" points="307.88,-78.57 297.3,-79.13 305.92,-85.29 307.88,-78.57"/>
</a>
</g>
</g>
<!-- Node15 -->
<g id="Node000015" class="node">
<title>Node15</title>
<g id="a_Node000015"><a xlink:href="Piezo_8h.html" target="_top" xlink:title=" ">
<polygon fill="white" stroke="#666666" points="561.12,-78.25 470.88,-78.25 470.88,-59.75 561.12,-59.75 561.12,-78.25"/>
<text text-anchor="middle" x="516" y="-64.75" font-family="Helvetica,sans-Serif" font-size="10.00">hardware/Piezo.h</text>
</a>
</g>
</g>
<!-- Node1&#45;&gt;Node15 -->
<g id="edge21_Node000001_Node000015" class="edge">
<title>Node1&#45;&gt;Node15</title>
<g id="a_edge21_Node000001_Node000015"><a xlink:title=" ">
<path fill="none" stroke="#63b8ff" d="M471.67,-119.23C479.28,-110.78 491.14,-97.61 500.68,-87.02"/>
<polygon fill="#63b8ff" stroke="#63b8ff" points="503.19,-89.45 507.28,-79.68 497.99,-84.77 503.19,-89.45"/>
</a>
</g>
</g>
<!-- Node16 -->
<g id="Node000016" class="node">
<title>Node16</title>
<g id="a_Node000016"><a xlink:href="ClockApp_8h.html" target="_top" xlink:title=" ">
<polygon fill="white" stroke="#666666" points="1385.38,-78.25 1248.62,-78.25 1248.62,-59.75 1385.38,-59.75 1385.38,-78.25"/>
<text text-anchor="middle" x="1317" y="-64.75" font-family="Helvetica,sans-Serif" font-size="10.00">apps/ClockApp/ClockApp.h</text>
</a>
</g>
</g>
<!-- Node1&#45;&gt;Node16 -->
<g id="edge23_Node000001_Node000016" class="edge">
<title>Node1&#45;&gt;Node16</title>
<g id="a_edge23_Node000001_Node000016"><a xlink:title=" ">
<path fill="none" stroke="#63b8ff" d="M500.44,-127.15C611.57,-125 955.82,-115.98 1239,-83.5 1245.99,-82.7 1253.3,-81.68 1260.53,-80.56"/>
<polygon fill="#63b8ff" stroke="#63b8ff" points="1260.95,-84.03 1270.26,-78.97 1259.83,-77.12 1260.95,-84.03"/>
</a>
</g>
</g>
<!-- Node20 -->
<g id="Node000020" class="node">
<title>Node20</title>
<g id="a_Node000020"><a xlink:href="GooglyEyes_8h.html" target="_top" xlink:title=" ">
<polygon fill="white" stroke="#666666" points="734.38,-78.25 579.62,-78.25 579.62,-59.75 734.38,-59.75 734.38,-78.25"/>
<text text-anchor="middle" x="657" y="-64.75" font-family="Helvetica,sans-Serif" font-size="10.00">apps/GooglyEyes/GooglyEyes.h</text>
</a>
</g>
</g>
<!-- Node1&#45;&gt;Node20 -->
<g id="edge29_Node000001_Node000020" class="edge">
<title>Node1&#45;&gt;Node20</title>
<g id="a_edge29_Node000001_Node000020"><a xlink:title=" ">
<path fill="none" stroke="#63b8ff" d="M492.89,-119.1C525.87,-109.24 580,-93.04 617.01,-81.96"/>
<polygon fill="#63b8ff" stroke="#63b8ff" points="617.88,-85.36 626.46,-79.14 615.87,-78.65 617.88,-85.36"/>
</a>
</g>
</g>
<!-- Node21 -->
<g id="Node000021" class="node">
<title>Node21</title>
<g id="a_Node000021"><a xlink:href="PomodoroApp_8h.html" target="_top" xlink:title=" ">
<polygon fill="white" stroke="#666666" points="1230.38,-83.5 1081.62,-83.5 1081.62,-54.5 1230.38,-54.5 1230.38,-83.5"/>
<text text-anchor="start" x="1089.62" y="-70" font-family="Helvetica,sans-Serif" font-size="10.00">apps/PomodoroApp/Pomodoro</text>
<text text-anchor="middle" x="1156" y="-59.5" font-family="Helvetica,sans-Serif" font-size="10.00">App.h</text>
</a>
</g>
</g>
<!-- Node1&#45;&gt;Node21 -->
<g id="edge32_Node000001_Node000021" class="edge">
<title>Node1&#45;&gt;Node21</title>
<g id="a_edge32_Node000001_Node000021"><a xlink:title=" ">
<path fill="none" stroke="#63b8ff" d="M500.49,-126.23C593.64,-122.11 848.01,-109.34 1070.16,-83.76"/>
<polygon fill="#63b8ff" stroke="#63b8ff" points="1070.36,-87.26 1079.88,-82.63 1069.55,-80.31 1070.36,-87.26"/>
</a>
</g>
</g>
<!-- Node5&#45;&gt;Node3 -->
<g id="edge5_Node000005_Node000003" class="edge">
<title>Node5&#45;&gt;Node3</title>
<g id="a_edge5_Node000005_Node000003"><a xlink:title=" ">
<path fill="none" stroke="#63b8ff" d="M127.18,-59.35C107.91,-50 76.89,-34.95 54.28,-23.97"/>
<polygon fill="#63b8ff" stroke="#63b8ff" points="55.82,-20.83 45.3,-19.62 52.77,-27.13 55.82,-20.83"/>
</a>
</g>
</g>
<!-- Node5&#45;&gt;Node4 -->
<g id="edge7_Node000005_Node000004" class="edge">
<title>Node5&#45;&gt;Node4</title>
<g id="a_edge7_Node000005_Node000004"><a xlink:title=" ">
<path fill="none" stroke="#63b8ff" d="M137.03,-59.48C129.06,-50.95 116.57,-37.6 106.61,-26.95"/>
<polygon fill="#63b8ff" stroke="#63b8ff" points="109.42,-24.83 100.03,-19.91 104.31,-29.61 109.42,-24.83"/>
</a>
</g>
</g>
<!-- Node6 -->
<g id="Node000006" class="node">
<title>Node6</title>
<g id="a_Node000006"><a xlink:title=" ">
<polygon fill="#e0e0e0" stroke="#999999" points="170,-18.5 130,-18.5 130,0 170,0 170,-18.5"/>
<text text-anchor="middle" x="150" y="-5" font-family="Helvetica,sans-Serif" font-size="10.00">string</text>
</a>
</g>
</g>
<!-- Node5&#45;&gt;Node6 -->
<g id="edge6_Node000005_Node000006" class="edge">
<title>Node5&#45;&gt;Node6</title>
<g id="a_edge6_Node000005_Node000006"><a xlink:title=" ">
<path fill="none" stroke="#63b8ff" d="M145.74,-59.48C146.4,-51.8 147.41,-40.22 148.27,-30.22"/>
<polygon fill="#63b8ff" stroke="#63b8ff" points="151.75,-30.58 149.13,-20.31 144.78,-29.97 151.75,-30.58"/>
</a>
</g>
</g>
<!-- Node7 -->
<g id="Node000007" class="node">
<title>Node7</title>
<g id="a_Node000007"><a xlink:href="App_8h.html" target="_top" xlink:title="Abstract base class for applications.">
<polygon fill="white" stroke="#666666" points="885.75,-18.5 844.25,-18.5 844.25,0 885.75,0 885.75,-18.5"/>
<text text-anchor="middle" x="865" y="-5" font-family="Helvetica,sans-Serif" font-size="10.00">App.h</text>
</a>
</g>
</g>
<!-- Node5&#45;&gt;Node7 -->
<g id="edge8_Node000005_Node000007" class="edge">
<title>Node5&#45;&gt;Node7</title>
<g id="a_edge8_Node000005_Node000007"><a xlink:title=" ">
<path fill="none" stroke="#63b8ff" d="M181.49,-59.25C190.14,-57.44 199.36,-55.71 208,-54.5 330.89,-37.29 717.82,-17.45 832.6,-11.81"/>
<polygon fill="#63b8ff" stroke="#63b8ff" points="832.7,-15.31 842.52,-11.33 832.36,-8.32 832.7,-15.31"/>
</a>
</g>
</g>
<!-- Node8&#45;&gt;Node2 -->
<g id="edge10_Node000008_Node000002" class="edge">
<title>Node8&#45;&gt;Node2</title>
<g id="a_edge10_Node000008_Node000002"><a xlink:title=" ">
<path fill="none" stroke="#63b8ff" d="M796.6,-59.29C750.6,-48.58 672.84,-30.47 625.77,-19.51"/>
<polygon fill="#63b8ff" stroke="#63b8ff" points="626.8,-16.16 616.26,-17.3 625.21,-22.97 626.8,-16.16"/>
</a>
</g>
</g>
<!-- Node8&#45;&gt;Node7 -->
<g id="edge12_Node000008_Node000007" class="edge">
<title>Node8&#45;&gt;Node7</title>
<g id="a_edge12_Node000008_Node000007"><a xlink:title=" ">
<path fill="none" stroke="#63b8ff" d="M838.57,-59.48C842.88,-51.46 849.47,-39.18 854.99,-28.89"/>
<polygon fill="#63b8ff" stroke="#63b8ff" points="858.05,-30.61 859.69,-20.14 851.88,-27.3 858.05,-30.61"/>
</a>
</g>
</g>
<!-- Node9 -->
<g id="Node000009" class="node">
<title>Node9</title>
<g id="a_Node000009"><a xlink:title=" ">
<polygon fill="#e0e0e0" stroke="#999999" points="1109.25,-18.5 1034.75,-18.5 1034.75,0 1109.25,0 1109.25,-18.5"/>
<text text-anchor="middle" x="1072" y="-5" font-family="Helvetica,sans-Serif" font-size="10.00">eSPI_Menu.h</text>
</a>
</g>
</g>
<!-- Node8&#45;&gt;Node9 -->
<g id="edge11_Node000008_Node000009" class="edge">
<title>Node8&#45;&gt;Node9</title>
<g id="a_edge11_Node000008_Node000009"><a xlink:title=" ">
<path fill="none" stroke="#63b8ff" d="M869.89,-59.29C911.31,-49.24 979.56,-32.68 1025.14,-21.62"/>
<polygon fill="#63b8ff" stroke="#63b8ff" points="1025.85,-25.05 1034.74,-19.29 1024.19,-18.25 1025.85,-25.05"/>
</a>
</g>
</g>
<!-- Node10&#45;&gt;Node2 -->
<g id="edge14_Node000010_Node000002" class="edge">
<title>Node10&#45;&gt;Node2</title>
<g id="a_edge14_Node000010_Node000002"><a xlink:title=" ">
<path fill="none" stroke="#63b8ff" d="M438.05,-59.35C467.52,-49.57 515.74,-33.57 549.08,-22.5"/>
<polygon fill="#63b8ff" stroke="#63b8ff" points="549.95,-25.9 558.34,-19.43 547.74,-19.26 549.95,-25.9"/>
</a>
</g>
</g>
<!-- Node11&#45;&gt;Node7 -->
<g id="edge17_Node000011_Node000007" class="edge">
<title>Node11&#45;&gt;Node7</title>
<g id="a_edge17_Node000011_Node000007"><a xlink:title=" ">
<path fill="none" stroke="#63b8ff" d="M966.56,-54.02C944.93,-44.7 916.67,-32.52 895.46,-23.38"/>
<polygon fill="#63b8ff" stroke="#63b8ff" points="897.04,-20.25 886.47,-19.5 894.27,-26.67 897.04,-20.25"/>
</a>
</g>
</g>
<!-- Node12 -->
<g id="Node000012" class="node">
<title>Node12</title>
<g id="a_Node000012"><a xlink:title=" ">
<polygon fill="#e0e0e0" stroke="#999999" points="1017,-18.5 935,-18.5 935,0 1017,0 1017,-18.5"/>
<text text-anchor="middle" x="976" y="-5" font-family="Helvetica,sans-Serif" font-size="10.00">WiFiManager.h</text>
</a>
</g>
</g>
<!-- Node11&#45;&gt;Node12 -->
<g id="edge16_Node000011_Node000012" class="edge">
<title>Node11&#45;&gt;Node12</title>
<g id="a_edge16_Node000011_Node000012"><a xlink:title=" ">
<path fill="none" stroke="#63b8ff" d="M993.43,-54.02C990.5,-46.66 986.87,-37.53 983.67,-29.51"/>
<polygon fill="#63b8ff" stroke="#63b8ff" points="986.96,-28.3 980.01,-20.31 980.45,-30.9 986.96,-28.3"/>
</a>
</g>
</g>
<!-- Node13&#45;&gt;Node2 -->
<g id="edge19_Node000013_Node000002" class="edge">
<title>Node13&#45;&gt;Node2</title>
<g id="a_edge19_Node000013_Node000002"><a xlink:title=" ">
<path fill="none" stroke="#63b8ff" d="M305.61,-59.26C313.35,-57.62 321.42,-55.96 329,-54.5 405.5,-39.72 495.29,-24.82 545.93,-16.63"/>
<polygon fill="#63b8ff" stroke="#63b8ff" points="546.21,-20.13 555.53,-15.09 545.1,-13.22 546.21,-20.13"/>
</a>
</g>
</g>
<!-- Node14 -->
<g id="Node000014" class="node">
<title>Node14</title>
<g id="a_Node000014"><a xlink:title=" ">
<polygon fill="#e0e0e0" stroke="#999999" points="300.25,-18.5 231.75,-18.5 231.75,0 300.25,0 300.25,-18.5"/>
<text text-anchor="middle" x="266" y="-5" font-family="Helvetica,sans-Serif" font-size="10.00">TFT_eSPI.h</text>
</a>
</g>
</g>
<!-- Node13&#45;&gt;Node14 -->
<g id="edge20_Node000013_Node000014" class="edge">
<title>Node13&#45;&gt;Node14</title>
<g id="a_edge20_Node000013_Node000014"><a xlink:title=" ">
<path fill="none" stroke="#63b8ff" d="M266,-59.48C266,-51.8 266,-40.22 266,-30.22"/>
<polygon fill="#63b8ff" stroke="#63b8ff" points="269.5,-30.32 266,-20.32 262.5,-30.32 269.5,-30.32"/>
</a>
</g>
</g>
<!-- Node15&#45;&gt;Node2 -->
<g id="edge22_Node000015_Node000002" class="edge">
<title>Node15&#45;&gt;Node2</title>
<g id="a_edge22_Node000015_Node000002"><a xlink:title=" ">
<path fill="none" stroke="#63b8ff" d="M526.33,-59.48C536.98,-50.69 553.83,-36.79 566.91,-26"/>
<polygon fill="#63b8ff" stroke="#63b8ff" points="568.97,-28.83 574.46,-19.77 564.52,-23.43 568.97,-28.83"/>
</a>
</g>
</g>
<!-- Node16&#45;&gt;Node2 -->
<g id="edge24_Node000016_Node000002" class="edge">
<title>Node16&#45;&gt;Node2</title>
<g id="a_edge24_Node000016_Node000002"><a xlink:title=" ">
<path fill="none" stroke="#63b8ff" d="M1271.34,-59.28C1260.75,-57.49 1249.51,-55.76 1239,-54.5 1008.12,-26.77 729.08,-15.1 626.42,-11.53"/>
<polygon fill="#63b8ff" stroke="#63b8ff" points="626.69,-8.04 616.58,-11.2 626.45,-15.03 626.69,-8.04"/>
</a>
</g>
</g>
<!-- Node16&#45;&gt;Node7 -->
<g id="edge28_Node000016_Node000007" class="edge">
<title>Node16&#45;&gt;Node7</title>
<g id="a_edge28_Node000016_Node000007"><a xlink:title=" ">
<path fill="none" stroke="#63b8ff" d="M1269.22,-59.29C1259.25,-57.59 1248.79,-55.91 1239,-54.5 1100.4,-34.55 1064.94,-35.88 926,-18.5 916.68,-17.33 906.57,-16 897.31,-14.74"/>
<polygon fill="#63b8ff" stroke="#63b8ff" points="898.04,-11.31 887.66,-13.42 897.09,-18.24 898.04,-11.31"/>
</a>
</g>
</g>
<!-- Node17 -->
<g id="Node000017" class="node">
<title>Node17</title>
<g id="a_Node000017"><a xlink:title=" ">
<polygon fill="#e0e0e0" stroke="#999999" points="1264.12,-18.5 1203.88,-18.5 1203.88,0 1264.12,0 1264.12,-18.5"/>
<text text-anchor="middle" x="1234" y="-5" font-family="Helvetica,sans-Serif" font-size="10.00">DigiFont.h</text>
</a>
</g>
</g>
<!-- Node16&#45;&gt;Node17 -->
<g id="edge25_Node000016_Node000017" class="edge">
<title>Node16&#45;&gt;Node17</title>
<g id="a_edge25_Node000016_Node000017"><a xlink:title=" ">
<path fill="none" stroke="#63b8ff" d="M1304.75,-59.48C1291.95,-50.57 1271.6,-36.41 1256.01,-25.56"/>
<polygon fill="#63b8ff" stroke="#63b8ff" points="1258.02,-22.7 1247.81,-19.86 1254.02,-28.44 1258.02,-22.7"/>
</a>
</g>
</g>
<!-- Node18 -->
<g id="Node000018" class="node">
<title>Node18</title>
<g id="a_Node000018"><a xlink:title=" ">
<polygon fill="#e0e0e0" stroke="#999999" points="1350.25,-18.5 1281.75,-18.5 1281.75,0 1350.25,0 1350.25,-18.5"/>
<text text-anchor="middle" x="1316" y="-5" font-family="Helvetica,sans-Serif" font-size="10.00">NTPClient.h</text>
</a>
</g>
</g>
<!-- Node16&#45;&gt;Node18 -->
<g id="edge26_Node000016_Node000018" class="edge">
<title>Node16&#45;&gt;Node18</title>
<g id="a_edge26_Node000016_Node000018"><a xlink:title=" ">
<path fill="none" stroke="#63b8ff" d="M1316.85,-59.48C1316.72,-51.8 1316.52,-40.22 1316.35,-30.22"/>
<polygon fill="#63b8ff" stroke="#63b8ff" points="1319.85,-30.26 1316.17,-20.32 1312.85,-30.38 1319.85,-30.26"/>
</a>
</g>
</g>
<!-- Node19 -->
<g id="Node000019" class="node">
<title>Node19</title>
<g id="a_Node000019"><a xlink:title=" ">
<polygon fill="#e0e0e0" stroke="#999999" points="1431.25,-18.5 1368.75,-18.5 1368.75,0 1431.25,0 1431.25,-18.5"/>
<text text-anchor="middle" x="1400" y="-5" font-family="Helvetica,sans-Serif" font-size="10.00">WiFiUdp.h</text>
</a>
</g>
</g>
<!-- Node16&#45;&gt;Node19 -->
<g id="edge27_Node000016_Node000019" class="edge">
<title>Node16&#45;&gt;Node19</title>
<g id="a_edge27_Node000016_Node000019"><a xlink:title=" ">
<path fill="none" stroke="#63b8ff" d="M1329.25,-59.48C1342.05,-50.57 1362.4,-36.41 1377.99,-25.56"/>
<polygon fill="#63b8ff" stroke="#63b8ff" points="1379.98,-28.44 1386.19,-19.86 1375.98,-22.7 1379.98,-28.44"/>
</a>
</g>
</g>
<!-- Node20&#45;&gt;Node2 -->
<g id="edge30_Node000020_Node000002" class="edge">
<title>Node20&#45;&gt;Node2</title>
<g id="a_edge30_Node000020_Node000002"><a xlink:title=" ">
<path fill="none" stroke="#63b8ff" d="M646.52,-59.48C635.72,-50.69 618.63,-36.79 605.36,-26"/>
<polygon fill="#63b8ff" stroke="#63b8ff" points="607.66,-23.36 597.69,-19.76 603.24,-28.79 607.66,-23.36"/>
</a>
</g>
</g>
<!-- Node20&#45;&gt;Node7 -->
<g id="edge31_Node000020_Node000007" class="edge">
<title>Node20&#45;&gt;Node7</title>
<g id="a_edge31_Node000020_Node000007"><a xlink:title=" ">
<path fill="none" stroke="#63b8ff" d="M688.14,-59.35C727.05,-48.55 793.29,-30.16 832.72,-19.21"/>
<polygon fill="#63b8ff" stroke="#63b8ff" points="833.64,-22.59 842.34,-16.54 831.77,-15.84 833.64,-22.59"/>
</a>
</g>
</g>
<!-- Node21&#45;&gt;Node2 -->
<g id="edge33_Node000021_Node000002" class="edge">
<title>Node21&#45;&gt;Node2</title>
<g id="a_edge33_Node000021_Node000002"><a xlink:title=" ">
<path fill="none" stroke="#63b8ff" d="M1081.38,-55.61C1078.55,-55.22 1075.75,-54.85 1073,-54.5 907.83,-33.59 709.94,-18.75 626.38,-12.95"/>
<polygon fill="#63b8ff" stroke="#63b8ff" points="626.62,-9.46 616.4,-12.26 626.14,-16.44 626.62,-9.46"/>
</a>
</g>
</g>
<!-- Node21&#45;&gt;Node7 -->
<g id="edge36_Node000021_Node000007" class="edge">
<title>Node21&#45;&gt;Node7</title>
<g id="a_edge36_Node000021_Node000007"><a xlink:title=" ">
<path fill="none" stroke="#63b8ff" d="M1085.56,-54.02C1025.65,-42.13 942.36,-25.6 897.21,-16.64"/>
<polygon fill="#63b8ff" stroke="#63b8ff" points="898.03,-13.24 887.54,-14.72 896.67,-20.1 898.03,-13.24"/>
</a>
</g>
</g>
<!-- Node21&#45;&gt;Node9 -->
<g id="edge35_Node000021_Node000009" class="edge">
<title>Node21&#45;&gt;Node9</title>
<g id="a_edge35_Node000021_Node000009"><a xlink:title=" ">
<path fill="none" stroke="#63b8ff" d="M1135.67,-54.02C1122.97,-45.3 1106.65,-34.07 1093.71,-25.17"/>
<polygon fill="#63b8ff" stroke="#63b8ff" points="1096.06,-22.54 1085.83,-19.76 1092.09,-28.31 1096.06,-22.54"/>
</a>
</g>
</g>
<!-- Node21&#45;&gt;Node17 -->
<g id="edge34_Node000021_Node000017" class="edge">
<title>Node21&#45;&gt;Node17</title>
<g id="a_edge34_Node000021_Node000017"><a xlink:title=" ">
<path fill="none" stroke="#63b8ff" d="M1174.88,-54.02C1186.44,-45.47 1201.23,-34.51 1213.13,-25.7"/>
<polygon fill="#63b8ff" stroke="#63b8ff" points="1215.14,-28.57 1221.1,-19.8 1210.98,-22.94 1215.14,-28.57"/>
</a>
</g>
</g>
<!-- Node22 -->
<g id="Node000022" class="node">
<title>Node22</title>
<g id="a_Node000022"><a xlink:title=" ">
<polygon fill="#e0e0e0" stroke="#999999" points="1184.62,-18.5 1127.38,-18.5 1127.38,0 1184.62,0 1184.62,-18.5"/>
<text text-anchor="middle" x="1156" y="-5" font-family="Helvetica,sans-Serif" font-size="10.00">ctTimer.h</text>
</a>
</g>
</g>
<!-- Node21&#45;&gt;Node22 -->
<g id="edge37_Node000021_Node000022" class="edge">
<title>Node21&#45;&gt;Node22</title>
<g id="a_edge37_Node000021_Node000022"><a xlink:title=" ">
<path fill="none" stroke="#63b8ff" d="M1156,-54.02C1156,-46.92 1156,-38.17 1156,-30.36"/>
<polygon fill="#63b8ff" stroke="#63b8ff" points="1159.5,-30.42 1156,-20.42 1152.5,-30.42 1159.5,-30.42"/>
</a>
</g>
</g>
</g>
</svg>
