<?xml version="1.0" encoding="UTF-8" standalone="no"?>
<!DOCTYPE svg PUBLIC "-//W3C//DTD SVG 1.1//EN"
 "http://www.w3.org/Graphics/SVG/1.1/DTD/svg11.dtd">
<!-- Generated by graphviz version 12.2.0 (20241103.1931)
 -->
<!-- Title: src/main.cpp Pages: 1 -->
<!--zoomable 204 -->

<svg id="main" version="1.1" xmlns="http://www.w3.org/2000/svg" xmlns:xlink="http://www.w3.org/1999/xlink" xml:space="preserve" onload="init(evt)">

<style type="text/css"><![CDATA[
.node, .edge {opacity: 0.7;}
.node.selected, .edge.selected {opacity: 1;}
.edge:hover path { stroke: red; }
.edge:hover polygon { stroke: red; fill: red; }
]]></style>

<defs>
  <circle id="rim" cx="0" cy="0" r="7"/>
  <circle id="rim2" cx="0" cy="0" r="3.5"/>
  <g id="zoomPlus">
    <use xlink:href="#rim" fill="#404040"><set attributeName="fill" to="#808080" begin="zoomplus.mouseover" end="zoomplus.mouseout"/></use>
    <path d="M-4,0h8M0,-4v8" fill="none" stroke="white" stroke-width="1.5" pointer-events="none"/>
  </g>
  <g id="zoomMin">
    <use xlink:href="#rim" fill="#404040"><set attributeName="fill" to="#808080" begin="zoomminus.mouseover" end="zoomminus.mouseout"/></use>
    <path d="M-4,0h8" fill="none" stroke="white" stroke-width="1.5" pointer-events="none"/>
  </g>
  <g id="arrowUp" transform="translate(30 24)">
    <use xlink:href="#rim"/>
    <path pointer-events="none" fill="none" stroke="white" stroke-width="1.5" d="M0,-3.0v7 M-2.5,-0.5L0,-3.0L2.5,-0.5"/>
  </g>
  <g id="arrowRight" transform="rotate(90) translate(36 -43)">
    <use xlink:href="#rim"/>
    <path pointer-events="none" fill="none" stroke="white" stroke-width="1.5" d="M0,-3.0v7 M-2.5,-0.5L0,-3.0L2.5,-0.5"/>
  </g>
  <g id="arrowDown" transform="rotate(180) translate(-30 -48)">
    <use xlink:href="#rim"/>
    <path pointer-events="none" fill="none" stroke="white" stroke-width="1.5" d="M0,-3.0v7 M-2.5,-0.5L0,-3.0L2.5,-0.5"/>
  </g>
  <g id="arrowLeft" transform="rotate(270) translate(-36 17)">
    <use xlink:href="#rim"/>
    <path pointer-events="none" fill="none" stroke="white" stroke-width="1.5" d="M0,-3.0v7 M-2.5,-0.5L0,-3.0L2.5,-0.5"/>
  </g>
  <g id="resetDef">
    <use xlink:href="#rim2" fill="#404040"><set attributeName="fill" to="#808080" begin="reset.mouseover" end="reset.mouseout"/></use>
  </g>
</defs>
<script type="application/ecmascript">
var viewWidth = 1397;
var viewHeight = 204;
var sectionId = 'dynsection-0';
</script>
<script type="application/ecmascript" xlink:href="svg.min.js"/>
<svg id="graph" class="graph">
<g id="viewport">
<title>src/main.cpp</title>
<!-- Node1 -->
<g id="Node000001" class="node">
<title>Node1</title>
<g id="a_Node000001"><a xlink:title=" ">
<polygon fill="#999999" stroke="#666666" points="600,-196.25 528.5,-196.25 528.5,-177 600,-177 600,-196.25"/>
<text text-anchor="middle" x="564.25" y="-182.75" font-family="Helvetica,sans-Serif" font-size="10.00">src/main.cpp</text>
</a>
</g>
</g>
<!-- Node2 -->
<g id="Node000002" class="node">
<title>Node2</title>
<g id="a_Node000002"><a xlink:title=" ">
<polygon fill="#e0e0e0" stroke="#999999" points="604.5,-19.25 548,-19.25 548,0 604.5,0 604.5,-19.25"/>
<text text-anchor="middle" x="576.25" y="-5.75" font-family="Helvetica,sans-Serif" font-size="10.00">Arduino.h</text>
</a>
</g>
</g>
<!-- Node1&#45;&gt;Node2 -->
<g id="edge1_Node000001_Node000002" class="edge">
<title>Node1&#45;&gt;Node2</title>
<g id="a_edge1_Node000001_Node000002"><a xlink:title=" ">
<path fill="none" stroke="#63b8ff" d="M528.72,-176.53C510.55,-169.89 490.03,-158.83 479.25,-141 472.24,-129.4 474.15,-123.06 479.25,-110.5 483.43,-100.19 531.81,-53.02 558.62,-27.36"/>
<polygon fill="#63b8ff" stroke="#63b8ff" points="560.87,-30.05 565.69,-20.61 556.04,-24.98 560.87,-30.05"/>
</a>
</g>
</g>
<!-- Node3 -->
<g id="Node000003" class="node">
<title>Node3</title>
<g id="a_Node000003"><a xlink:title=" ">
<polygon fill="#e0e0e0" stroke="#999999" points="50.5,-74.5 0,-74.5 0,-55.25 50.5,-55.25 50.5,-74.5"/>
<text text-anchor="middle" x="25.25" y="-61" font-family="Helvetica,sans-Serif" font-size="10.00">memory</text>
</a>
</g>
</g>
<!-- Node1&#45;&gt;Node3 -->
<g id="edge2_Node000001_Node000003" class="edge">
<title>Node1&#45;&gt;Node3</title>
<g id="a_edge2_Node000001_Node000003"><a xlink:title=" ">
<path fill="none" stroke="#63b8ff" d="M528.03,-185.74C430.51,-185.49 164.6,-181.06 88.25,-141 64.28,-128.43 45.79,-102.49 35.21,-84.64"/>
<polygon fill="#63b8ff" stroke="#63b8ff" points="38.35,-83.1 30.41,-76.09 32.25,-86.52 38.35,-83.1"/>
</a>
</g>
</g>
<!-- Node4 -->
<g id="Node000004" class="node">
<title>Node4</title>
<g id="a_Node000004"><a xlink:title=" ">
<polygon fill="#e0e0e0" stroke="#999999" points="111.75,-74.5 68.75,-74.5 68.75,-55.25 111.75,-55.25 111.75,-74.5"/>
<text text-anchor="middle" x="90.25" y="-61" font-family="Helvetica,sans-Serif" font-size="10.00">vector</text>
</a>
</g>
</g>
<!-- Node1&#45;&gt;Node4 -->
<g id="edge3_Node000001_Node000004" class="edge">
<title>Node1&#45;&gt;Node4</title>
<g id="a_edge3_Node000001_Node000004"><a xlink:title=" ">
<path fill="none" stroke="#63b8ff" d="M528.15,-184.44C426.1,-180.76 140.8,-168.14 109.25,-141 93.73,-127.65 89.95,-103.63 89.43,-86.34"/>
<polygon fill="#63b8ff" stroke="#63b8ff" points="92.93,-86.5 89.51,-76.47 85.93,-86.44 92.93,-86.5"/>
</a>
</g>
</g>
<!-- Node5 -->
<g id="Node000005" class="node">
<title>Node5</title>
<g id="a_Node000005"><a xlink:href="AppCollection_8h.html" target="_top" xlink:title=" ">
<polygon fill="white" stroke="#666666" points="223.88,-135.38 118.62,-135.38 118.62,-116.12 223.88,-116.12 223.88,-135.38"/>
<text text-anchor="middle" x="171.25" y="-121.88" font-family="Helvetica,sans-Serif" font-size="10.00">core/AppCollection.h</text>
</a>
</g>
</g>
<!-- Node1&#45;&gt;Node5 -->
<g id="edge4_Node000001_Node000005" class="edge">
<title>Node1&#45;&gt;Node5</title>
<g id="a_edge4_Node000001_Node000005"><a xlink:title=" ">
<path fill="none" stroke="#63b8ff" d="M528.33,-180.24C461.91,-170.29 319.08,-148.9 235.59,-136.39"/>
<polygon fill="#63b8ff" stroke="#63b8ff" points="236.12,-132.93 225.71,-134.91 235.08,-139.85 236.12,-132.93"/>
</a>
</g>
</g>
<!-- Node8 -->
<g id="Node000008" class="node">
<title>Node8</title>
<g id="a_Node000008"><a xlink:href="AppLauncher_8h.html" target="_top" xlink:title=" ">
<polygon fill="white" stroke="#666666" points="1289.12,-135.38 1125.38,-135.38 1125.38,-116.12 1289.12,-116.12 1289.12,-135.38"/>
<text text-anchor="middle" x="1207.25" y="-121.88" font-family="Helvetica,sans-Serif" font-size="10.00">core/AppLauncher/AppLauncher.h</text>
</a>
</g>
</g>
<!-- Node1&#45;&gt;Node8 -->
<g id="edge9_Node000001_Node000008" class="edge">
<title>Node1&#45;&gt;Node8</title>
<g id="a_edge9_Node000001_Node000008"><a xlink:title=" ">
<path fill="none" stroke="#63b8ff" d="M600.18,-183.65C688.32,-178.61 922.19,-164.01 1116.25,-141 1124.64,-140.01 1133.45,-138.81 1142.14,-137.55"/>
<polygon fill="#63b8ff" stroke="#63b8ff" points="1142.58,-141.02 1151.95,-136.08 1141.54,-134.1 1142.58,-141.02"/>
</a>
</g>
</g>
<!-- Node10 -->
<g id="Node000010" class="node">
<title>Node10</title>
<g id="a_Node000010"><a xlink:href="Settings_8h.html" target="_top" xlink:title=" ">
<polygon fill="white" stroke="#666666" points="1388.88,-135.38 1307.62,-135.38 1307.62,-116.12 1388.88,-116.12 1388.88,-135.38"/>
<text text-anchor="middle" x="1348.25" y="-121.88" font-family="Helvetica,sans-Serif" font-size="10.00">core/Settings.h</text>
</a>
</g>
</g>
<!-- Node1&#45;&gt;Node10 -->
<g id="edge13_Node000001_Node000010" class="edge">
<title>Node1&#45;&gt;Node10</title>
<g id="a_edge13_Node000001_Node000010"><a xlink:title=" ">
<path fill="none" stroke="#63b8ff" d="M600.46,-186.19C707.81,-187.26 1033.35,-186.25 1298.25,-141 1301.9,-140.38 1305.66,-139.59 1309.41,-138.7"/>
<polygon fill="#63b8ff" stroke="#63b8ff" points="1310.2,-142.11 1319,-136.2 1308.44,-135.34 1310.2,-142.11"/>
</a>
</g>
</g>
<!-- Node11 -->
<g id="Node000011" class="node">
<title>Node11</title>
<g id="a_Node000011"><a xlink:href="SettingsApp_8h.html" target="_top" xlink:title=" ">
<polygon fill="white" stroke="#666666" points="788.25,-141 658.25,-141 658.25,-110.5 788.25,-110.5 788.25,-141"/>
<text text-anchor="start" x="666.25" y="-127.5" font-family="Helvetica,sans-Serif" font-size="10.00">core/SettingsApp/Settings</text>
<text text-anchor="middle" x="723.25" y="-116.25" font-family="Helvetica,sans-Serif" font-size="10.00">App.h</text>
</a>
</g>
</g>
<!-- Node1&#45;&gt;Node11 -->
<g id="edge15_Node000001_Node000011" class="edge">
<title>Node1&#45;&gt;Node11</title>
<g id="a_edge15_Node000001_Node000011"><a xlink:title=" ">
<path fill="none" stroke="#63b8ff" d="M588.75,-176.55C611.15,-168.26 644.97,-155.73 673.1,-145.32"/>
<polygon fill="#63b8ff" stroke="#63b8ff" points="673.98,-148.72 682.15,-141.97 671.55,-142.16 673.98,-148.72"/>
</a>
</g>
</g>
<!-- Node13 -->
<g id="Node000013" class="node">
<title>Node13</title>
<g id="a_Node000013"><a xlink:href="Hardware_8h.html" target="_top" xlink:title=" ">
<polygon fill="white" stroke="#666666" points="432.38,-135.38 324.12,-135.38 324.12,-116.12 432.38,-116.12 432.38,-135.38"/>
<text text-anchor="middle" x="378.25" y="-121.88" font-family="Helvetica,sans-Serif" font-size="10.00">hardware/Hardware.h</text>
</a>
</g>
</g>
<!-- Node1&#45;&gt;Node13 -->
<g id="edge18_Node000001_Node000013" class="edge">
<title>Node1&#45;&gt;Node13</title>
<g id="a_edge18_Node000001_Node000013"><a xlink:title=" ">
<path fill="none" stroke="#63b8ff" d="M535.6,-176.55C504.06,-166.57 453.15,-150.46 417.82,-139.27"/>
<polygon fill="#63b8ff" stroke="#63b8ff" points="418.97,-135.97 408.38,-136.29 416.86,-142.64 418.97,-135.97"/>
</a>
</g>
</g>
<!-- Node19 -->
<g id="Node000019" class="node">
<title>Node19</title>
<g id="a_Node000019"><a xlink:href="ClockApp_8h.html" target="_top" xlink:title=" ">
<polygon fill="white" stroke="#666666" points="940.5,-135.38 806,-135.38 806,-116.12 940.5,-116.12 940.5,-135.38"/>
<text text-anchor="middle" x="873.25" y="-121.88" font-family="Helvetica,sans-Serif" font-size="10.00">apps/ClockApp/ClockApp.h</text>
</a>
</g>
</g>
<!-- Node1&#45;&gt;Node19 -->
<g id="edge27_Node000001_Node000019" class="edge">
<title>Node1&#45;&gt;Node19</title>
<g id="a_edge27_Node000001_Node000019"><a xlink:title=" ">
<path fill="none" stroke="#63b8ff" d="M600.3,-178.76C652.94,-168.73 751.43,-149.96 814.59,-137.93"/>
<polygon fill="#63b8ff" stroke="#63b8ff" points="814.91,-141.43 824.08,-136.12 813.6,-134.55 814.91,-141.43"/>
</a>
</g>
</g>
<!-- Node23 -->
<g id="Node000023" class="node">
<title>Node23</title>
<g id="a_Node000023"><a xlink:href="GooglyEyes_8h.html" target="_top" xlink:title=" ">
<polygon fill="white" stroke="#666666" points="640.5,-135.38 488,-135.38 488,-116.12 640.5,-116.12 640.5,-135.38"/>
<text text-anchor="middle" x="564.25" y="-121.88" font-family="Helvetica,sans-Serif" font-size="10.00">apps/GooglyEyes/GooglyEyes.h</text>
</a>
</g>
</g>
<!-- Node1&#45;&gt;Node23 -->
<g id="edge33_Node000001_Node000023" class="edge">
<title>Node1&#45;&gt;Node23</title>
<g id="a_edge33_Node000001_Node000023"><a xlink:title=" ">
<path fill="none" stroke="#63b8ff" d="M564.25,-176.68C564.25,-168.9 564.25,-157.33 564.25,-147.28"/>
<polygon fill="#63b8ff" stroke="#63b8ff" points="567.75,-147.29 564.25,-137.29 560.75,-147.29 567.75,-147.29"/>
</a>
</g>
</g>
<!-- Node24 -->
<g id="Node000024" class="node">
<title>Node24</title>
<g id="a_Node000024"><a xlink:href="PomodoroApp_8h.html" target="_top" xlink:title=" ">
<polygon fill="white" stroke="#666666" points="1107.62,-141 958.88,-141 958.88,-110.5 1107.62,-110.5 1107.62,-141"/>
<text text-anchor="start" x="966.88" y="-127.5" font-family="Helvetica,sans-Serif" font-size="10.00">apps/PomodoroApp/Pomodoro</text>
<text text-anchor="middle" x="1033.25" y="-116.25" font-family="Helvetica,sans-Serif" font-size="10.00">App.h</text>
</a>
</g>
</g>
<!-- Node1&#45;&gt;Node24 -->
<g id="edge36_Node000001_Node000024" class="edge">
<title>Node1&#45;&gt;Node24</title>
<g id="a_edge36_Node000001_Node000024"><a xlink:title=" ">
<path fill="none" stroke="#63b8ff" d="M600.43,-182.07C666.87,-175.41 813.07,-160.11 947.33,-141.22"/>
<polygon fill="#63b8ff" stroke="#63b8ff" points="947.72,-144.7 957.13,-139.83 946.74,-137.77 947.72,-144.7"/>
</a>
</g>
</g>
<!-- Node5&#45;&gt;Node3 -->
<g id="edge5_Node000005_Node000003" class="edge">
<title>Node5&#45;&gt;Node3</title>
<g id="a_edge5_Node000005_Node000003"><a xlink:title=" ">
<path fill="none" stroke="#63b8ff" d="M148.76,-115.68C124.47,-105.88 85.54,-90.19 57.88,-79.04"/>
<polygon fill="#63b8ff" stroke="#63b8ff" points="59.52,-75.92 48.93,-75.42 56.9,-82.41 59.52,-75.92"/>
</a>
</g>
</g>
<!-- Node5&#45;&gt;Node4 -->
<g id="edge7_Node000005_Node000004" class="edge">
<title>Node5&#45;&gt;Node4</title>
<g id="a_edge7_Node000005_Node000004"><a xlink:title=" ">
<path fill="none" stroke="#63b8ff" d="M158.95,-115.81C146.46,-106.73 126.87,-92.49 111.8,-81.54"/>
<polygon fill="#63b8ff" stroke="#63b8ff" points="114.04,-78.84 103.89,-75.79 109.92,-84.5 114.04,-78.84"/>
</a>
</g>
</g>
<!-- Node6 -->
<g id="Node000006" class="node">
<title>Node6</title>
<g id="a_Node000006"><a xlink:title=" ">
<polygon fill="#e0e0e0" stroke="#999999" points="170.25,-74.5 130.25,-74.5 130.25,-55.25 170.25,-55.25 170.25,-74.5"/>
<text text-anchor="middle" x="150.25" y="-61" font-family="Helvetica,sans-Serif" font-size="10.00">string</text>
</a>
</g>
</g>
<!-- Node5&#45;&gt;Node6 -->
<g id="edge6_Node000005_Node000006" class="edge">
<title>Node5&#45;&gt;Node6</title>
<g id="a_edge6_Node000005_Node000006"><a xlink:title=" ">
<path fill="none" stroke="#63b8ff" d="M168.06,-115.81C165.22,-107.85 160.97,-95.94 157.34,-85.74"/>
<polygon fill="#63b8ff" stroke="#63b8ff" points="160.63,-84.57 153.98,-76.33 154.04,-86.92 160.63,-84.57"/>
</a>
</g>
</g>
<!-- Node7 -->
<g id="Node000007" class="node">
<title>Node7</title>
<g id="a_Node000007"><a xlink:href="App_8h.html" target="_top" xlink:title="Abstract base class for applications.">
<polygon fill="white" stroke="#666666" points="743.62,-74.5 702.88,-74.5 702.88,-55.25 743.62,-55.25 743.62,-74.5"/>
<text text-anchor="middle" x="723.25" y="-61" font-family="Helvetica,sans-Serif" font-size="10.00">App.h</text>
</a>
</g>
</g>
<!-- Node5&#45;&gt;Node7 -->
<g id="edge8_Node000005_Node000007" class="edge">
<title>Node5&#45;&gt;Node7</title>
<g id="a_edge8_Node000005_Node000007"><a xlink:title=" ">
<path fill="none" stroke="#63b8ff" d="M224.25,-119.46C251.45,-116.75 285.12,-113.43 315.25,-110.5 479.61,-94.54 525.49,-105.46 691.29,-74.51"/>
<polygon fill="#63b8ff" stroke="#63b8ff" points="691.73,-77.99 700.9,-72.69 690.42,-71.11 691.73,-77.99"/>
</a>
</g>
</g>
<!-- Node8&#45;&gt;Node2 -->
<g id="edge10_Node000008_Node000002" class="edge">
<title>Node8&#45;&gt;Node2</title>
<g id="a_edge10_Node000008_Node000002"><a xlink:title=" ">
<path fill="none" stroke="#63b8ff" d="M1216.7,-116.03C1231.06,-101.76 1255.03,-73.2 1238.25,-55.25 1195.68,-9.72 751.88,-9.28 615.74,-10.23"/>
<polygon fill="#63b8ff" stroke="#63b8ff" points="616.12,-6.73 606.15,-10.3 616.18,-13.73 616.12,-6.73"/>
</a>
</g>
</g>
<!-- Node8&#45;&gt;Node7 -->
<g id="edge12_Node000008_Node000007" class="edge">
<title>Node8&#45;&gt;Node7</title>
<g id="a_edge12_Node000008_Node000007"><a xlink:title=" ">
<path fill="none" stroke="#63b8ff" d="M1151.97,-115.68C1140.19,-113.87 1127.82,-112.04 1116.25,-110.5 971.76,-91.22 934.99,-91.81 790.25,-74.5 778.88,-73.14 766.43,-71.56 755.38,-70.13"/>
<polygon fill="#63b8ff" stroke="#63b8ff" points="755.93,-66.67 745.56,-68.85 755.03,-73.61 755.93,-66.67"/>
</a>
</g>
</g>
<!-- Node9 -->
<g id="Node000009" class="node">
<title>Node9</title>
<g id="a_Node000009"><a xlink:title=" ">
<polygon fill="#e0e0e0" stroke="#999999" points="1229.5,-74.5 1155,-74.5 1155,-55.25 1229.5,-55.25 1229.5,-74.5"/>
<text text-anchor="middle" x="1192.25" y="-61" font-family="Helvetica,sans-Serif" font-size="10.00">eSPI_Menu.h</text>
</a>
</g>
</g>
<!-- Node8&#45;&gt;Node9 -->
<g id="edge11_Node000008_Node000009" class="edge">
<title>Node8&#45;&gt;Node9</title>
<g id="a_edge11_Node000008_Node000009"><a xlink:title=" ">
<path fill="none" stroke="#63b8ff" d="M1204.97,-115.81C1202.95,-107.85 1199.91,-95.94 1197.31,-85.74"/>
<polygon fill="#63b8ff" stroke="#63b8ff" points="1200.78,-85.19 1194.92,-76.37 1194,-86.92 1200.78,-85.19"/>
</a>
</g>
</g>
<!-- Node10&#45;&gt;Node2 -->
<g id="edge14_Node000010_Node000002" class="edge">
<title>Node10&#45;&gt;Node2</title>
<g id="a_edge14_Node000010_Node000002"><a xlink:title=" ">
<path fill="none" stroke="#63b8ff" d="M1340.06,-115.92C1325,-100.37 1291.18,-68.52 1255.25,-55.25 1136.89,-11.55 743.3,-9.71 616.2,-10.3"/>
<polygon fill="#63b8ff" stroke="#63b8ff" points="616.25,-6.8 606.26,-10.35 616.28,-13.8 616.25,-6.8"/>
</a>
</g>
</g>
<!-- Node11&#45;&gt;Node7 -->
<g id="edge17_Node000011_Node000007" class="edge">
<title>Node11&#45;&gt;Node7</title>
<g id="a_edge17_Node000011_Node000007"><a xlink:title=" ">
<path fill="none" stroke="#63b8ff" d="M723.25,-110.2C723.25,-102.96 723.25,-94.09 723.25,-86.19"/>
<polygon fill="#63b8ff" stroke="#63b8ff" points="726.75,-86.46 723.25,-76.46 719.75,-86.46 726.75,-86.46"/>
</a>
</g>
</g>
<!-- Node12 -->
<g id="Node000012" class="node">
<title>Node12</title>
<g id="a_Node000012"><a xlink:title=" ">
<polygon fill="#e0e0e0" stroke="#999999" points="684.5,-74.5 604,-74.5 604,-55.25 684.5,-55.25 684.5,-74.5"/>
<text text-anchor="middle" x="644.25" y="-61" font-family="Helvetica,sans-Serif" font-size="10.00">WiFiManager.h</text>
</a>
</g>
</g>
<!-- Node11&#45;&gt;Node12 -->
<g id="edge16_Node000011_Node000012" class="edge">
<title>Node11&#45;&gt;Node12</title>
<g id="a_edge16_Node000011_Node000012"><a xlink:title=" ">
<path fill="none" stroke="#63b8ff" d="M703.72,-110.2C692.16,-101.58 677.49,-90.65 665.62,-81.8"/>
<polygon fill="#63b8ff" stroke="#63b8ff" points="667.75,-79.02 657.64,-75.86 663.57,-84.64 667.75,-79.02"/>
</a>
</g>
</g>
<!-- Node13&#45;&gt;Node2 -->
<g id="edge19_Node000013_Node000002" class="edge">
<title>Node13&#45;&gt;Node2</title>
<g id="a_edge19_Node000013_Node000002"><a xlink:title=" ">
<path fill="none" stroke="#63b8ff" d="M398.81,-115.74C419.91,-106.25 453.5,-90.5 481.25,-74.5 507.38,-59.44 535.9,-39.79 554.81,-26.29"/>
<polygon fill="#63b8ff" stroke="#63b8ff" points="556.71,-29.23 562.77,-20.55 552.61,-23.56 556.71,-29.23"/>
</a>
</g>
</g>
<!-- Node14 -->
<g id="Node000014" class="node">
<title>Node14</title>
<g id="a_Node000014"><a xlink:href="Button_2Button_8h.html" target="_top" xlink:title=" ">
<polygon fill="white" stroke="#666666" points="272,-74.5 188.5,-74.5 188.5,-55.25 272,-55.25 272,-74.5"/>
<text text-anchor="middle" x="230.25" y="-61" font-family="Helvetica,sans-Serif" font-size="10.00">Button/Button.h</text>
</a>
</g>
</g>
<!-- Node13&#45;&gt;Node14 -->
<g id="edge20_Node000013_Node000014" class="edge">
<title>Node13&#45;&gt;Node14</title>
<g id="a_edge20_Node000013_Node000014"><a xlink:title=" ">
<path fill="none" stroke="#63b8ff" d="M355.45,-115.68C330.83,-105.88 291.37,-90.19 263.33,-79.04"/>
<polygon fill="#63b8ff" stroke="#63b8ff" points="264.83,-75.86 254.24,-75.42 262.24,-82.37 264.83,-75.86"/>
</a>
</g>
</g>
<!-- Node16 -->
<g id="Node000016" class="node">
<title>Node16</title>
<g id="a_Node000016"><a xlink:href="Display_8h.html" target="_top" xlink:title=" ">
<polygon fill="white" stroke="#666666" points="380,-74.5 290.5,-74.5 290.5,-55.25 380,-55.25 380,-74.5"/>
<text text-anchor="middle" x="335.25" y="-61" font-family="Helvetica,sans-Serif" font-size="10.00">Display/Display.h</text>
</a>
</g>
</g>
<!-- Node13&#45;&gt;Node16 -->
<g id="edge22_Node000013_Node000016" class="edge">
<title>Node13&#45;&gt;Node16</title>
<g id="a_edge22_Node000013_Node000016"><a xlink:title=" ">
<path fill="none" stroke="#63b8ff" d="M371.72,-115.81C365.59,-107.42 356.25,-94.63 348.56,-84.09"/>
<polygon fill="#63b8ff" stroke="#63b8ff" points="351.46,-82.13 342.73,-76.12 345.81,-86.26 351.46,-82.13"/>
</a>
</g>
</g>
<!-- Node18 -->
<g id="Node000018" class="node">
<title>Node18</title>
<g id="a_Node000018"><a xlink:href="Piezo_8h.html" target="_top" xlink:title=" ">
<polygon fill="white" stroke="#666666" points="472.5,-74.5 398,-74.5 398,-55.25 472.5,-55.25 472.5,-74.5"/>
<text text-anchor="middle" x="435.25" y="-61" font-family="Helvetica,sans-Serif" font-size="10.00">Piezo/Piezo.h</text>
</a>
</g>
</g>
<!-- Node13&#45;&gt;Node18 -->
<g id="edge25_Node000013_Node000018" class="edge">
<title>Node13&#45;&gt;Node18</title>
<g id="a_edge25_Node000013_Node000018"><a xlink:title=" ">
<path fill="none" stroke="#63b8ff" d="M386.91,-115.81C395.28,-107.16 408.18,-93.84 418.55,-83.12"/>
<polygon fill="#63b8ff" stroke="#63b8ff" points="421.02,-85.61 425.46,-75.99 415.99,-80.74 421.02,-85.61"/>
</a>
</g>
</g>
<!-- Node15 -->
<g id="Node000015" class="node">
<title>Node15</title>
<g id="a_Node000015"><a xlink:title=" ">
<polygon fill="#e0e0e0" stroke="#999999" points="265.25,-19.25 195.25,-19.25 195.25,0 265.25,0 265.25,-19.25"/>
<text text-anchor="middle" x="230.25" y="-5.75" font-family="Helvetica,sans-Serif" font-size="10.00">OneButton.h</text>
</a>
</g>
</g>
<!-- Node14&#45;&gt;Node15 -->
<g id="edge21_Node000014_Node000015" class="edge">
<title>Node14&#45;&gt;Node15</title>
<g id="a_edge21_Node000014_Node000015"><a xlink:title=" ">
<path fill="none" stroke="#63b8ff" d="M230.25,-55.08C230.25,-48.57 230.25,-39.42 230.25,-31.12"/>
<polygon fill="#63b8ff" stroke="#63b8ff" points="233.75,-31.12 230.25,-21.12 226.75,-31.12 233.75,-31.12"/>
</a>
</g>
</g>
<!-- Node16&#45;&gt;Node2 -->
<g id="edge23_Node000016_Node000002" class="edge">
<title>Node16&#45;&gt;Node2</title>
<g id="a_edge23_Node000016_Node000002"><a xlink:title=" ">
<path fill="none" stroke="#63b8ff" d="M376.41,-54.78C421.2,-44.88 492.34,-29.17 536.55,-19.4"/>
<polygon fill="#63b8ff" stroke="#63b8ff" points="537.24,-22.83 546.25,-17.25 535.73,-15.99 537.24,-22.83"/>
</a>
</g>
</g>
<!-- Node17 -->
<g id="Node000017" class="node">
<title>Node17</title>
<g id="a_Node000017"><a xlink:title=" ">
<polygon fill="#e0e0e0" stroke="#999999" points="369.5,-19.25 301,-19.25 301,0 369.5,0 369.5,-19.25"/>
<text text-anchor="middle" x="335.25" y="-5.75" font-family="Helvetica,sans-Serif" font-size="10.00">TFT_eSPI.h</text>
</a>
</g>
</g>
<!-- Node16&#45;&gt;Node17 -->
<g id="edge24_Node000016_Node000017" class="edge">
<title>Node16&#45;&gt;Node17</title>
<g id="a_edge24_Node000016_Node000017"><a xlink:title=" ">
<path fill="none" stroke="#63b8ff" d="M335.25,-55.08C335.25,-48.57 335.25,-39.42 335.25,-31.12"/>
<polygon fill="#63b8ff" stroke="#63b8ff" points="338.75,-31.12 335.25,-21.12 331.75,-31.12 338.75,-31.12"/>
</a>
</g>
</g>
<!-- Node18&#45;&gt;Node2 -->
<g id="edge26_Node000018_Node000002" class="edge">
<title>Node18&#45;&gt;Node2</title>
<g id="a_edge26_Node000018_Node000002"><a xlink:title=" ">
<path fill="none" stroke="#63b8ff" d="M459.17,-54.84C481.75,-46.31 515.89,-33.42 541.48,-23.76"/>
<polygon fill="#63b8ff" stroke="#63b8ff" points="542.68,-27.04 550.8,-20.24 540.21,-20.5 542.68,-27.04"/>
</a>
</g>
</g>
<!-- Node19&#45;&gt;Node2 -->
<g id="edge28_Node000019_Node000002" class="edge">
<title>Node19&#45;&gt;Node2</title>
<g id="a_edge28_Node000019_Node000002"><a xlink:title=" ">
<path fill="none" stroke="#63b8ff" d="M858.81,-115.79C831.69,-99.07 773.92,-64.03 752.25,-55.25 707.04,-36.94 652.17,-24.46 615.85,-17.45"/>
<polygon fill="#63b8ff" stroke="#63b8ff" points="616.7,-14.05 606.23,-15.65 615.41,-20.93 616.7,-14.05"/>
</a>
</g>
</g>
<!-- Node19&#45;&gt;Node7 -->
<g id="edge32_Node000019_Node000007" class="edge">
<title>Node19&#45;&gt;Node7</title>
<g id="a_edge32_Node000019_Node000007"><a xlink:title=" ">
<path fill="none" stroke="#63b8ff" d="M850.14,-115.68C824.46,-105.6 782.85,-89.27 754.33,-78.07"/>
<polygon fill="#63b8ff" stroke="#63b8ff" points="755.73,-74.86 745.14,-74.47 753.17,-81.38 755.73,-74.86"/>
</a>
</g>
</g>
<!-- Node20 -->
<g id="Node000020" class="node">
<title>Node20</title>
<g id="a_Node000020"><a xlink:title=" ">
<polygon fill="#e0e0e0" stroke="#999999" points="1024,-74.5 964.5,-74.5 964.5,-55.25 1024,-55.25 1024,-74.5"/>
<text text-anchor="middle" x="994.25" y="-61" font-family="Helvetica,sans-Serif" font-size="10.00">DigiFont.h</text>
</a>
</g>
</g>
<!-- Node19&#45;&gt;Node20 -->
<g id="edge29_Node000019_Node000020" class="edge">
<title>Node19&#45;&gt;Node20</title>
<g id="a_edge29_Node000019_Node000020"><a xlink:title=" ">
<path fill="none" stroke="#63b8ff" d="M891.89,-115.68C911.58,-106.1 942.86,-90.88 965.67,-79.78"/>
<polygon fill="#63b8ff" stroke="#63b8ff" points="966.96,-83.04 974.43,-75.52 963.9,-76.75 966.96,-83.04"/>
</a>
</g>
</g>
<!-- Node21 -->
<g id="Node000021" class="node">
<title>Node21</title>
<g id="a_Node000021"><a xlink:title=" ">
<polygon fill="#e0e0e0" stroke="#999999" points="867.5,-74.5 799,-74.5 799,-55.25 867.5,-55.25 867.5,-74.5"/>
<text text-anchor="middle" x="833.25" y="-61" font-family="Helvetica,sans-Serif" font-size="10.00">NTPClient.h</text>
</a>
</g>
</g>
<!-- Node19&#45;&gt;Node21 -->
<g id="edge30_Node000019_Node000021" class="edge">
<title>Node19&#45;&gt;Node21</title>
<g id="a_edge30_Node000019_Node000021"><a xlink:title=" ">
<path fill="none" stroke="#63b8ff" d="M867.17,-115.81C861.54,-107.51 852.97,-94.89 845.85,-84.42"/>
<polygon fill="#63b8ff" stroke="#63b8ff" points="848.75,-82.46 840.23,-76.15 842.96,-86.39 848.75,-82.46"/>
</a>
</g>
</g>
<!-- Node22 -->
<g id="Node000022" class="node">
<title>Node22</title>
<g id="a_Node000022"><a xlink:title=" ">
<polygon fill="#e0e0e0" stroke="#999999" points="946.75,-74.5 885.75,-74.5 885.75,-55.25 946.75,-55.25 946.75,-74.5"/>
<text text-anchor="middle" x="916.25" y="-61" font-family="Helvetica,sans-Serif" font-size="10.00">WiFiUdp.h</text>
</a>
</g>
</g>
<!-- Node19&#45;&gt;Node22 -->
<g id="edge31_Node000019_Node000022" class="edge">
<title>Node19&#45;&gt;Node22</title>
<g id="a_edge31_Node000019_Node000022"><a xlink:title=" ">
<path fill="none" stroke="#63b8ff" d="M879.78,-115.81C885.91,-107.42 895.25,-94.63 902.94,-84.09"/>
<polygon fill="#63b8ff" stroke="#63b8ff" points="905.69,-86.26 908.77,-76.12 900.04,-82.13 905.69,-86.26"/>
</a>
</g>
</g>
<!-- Node23&#45;&gt;Node2 -->
<g id="edge34_Node000023_Node000002" class="edge">
<title>Node23&#45;&gt;Node2</title>
<g id="a_edge34_Node000023_Node000002"><a xlink:title=" ">
<path fill="none" stroke="#63b8ff" d="M565.19,-115.79C567.1,-97.63 571.47,-56.04 574.11,-30.95"/>
<polygon fill="#63b8ff" stroke="#63b8ff" points="577.59,-31.36 575.15,-21.04 570.63,-30.62 577.59,-31.36"/>
</a>
</g>
</g>
<!-- Node23&#45;&gt;Node7 -->
<g id="edge35_Node000023_Node000007" class="edge">
<title>Node23&#45;&gt;Node7</title>
<g id="a_edge35_Node000023_Node000007"><a xlink:title=" ">
<path fill="none" stroke="#63b8ff" d="M588.75,-115.68C616.52,-105.4 661.86,-88.61 692.12,-77.4"/>
<polygon fill="#63b8ff" stroke="#63b8ff" points="692.95,-80.83 701.11,-74.07 690.52,-74.26 692.95,-80.83"/>
</a>
</g>
</g>
<!-- Node24&#45;&gt;Node2 -->
<g id="edge37_Node000024_Node000002" class="edge">
<title>Node24&#45;&gt;Node2</title>
<g id="a_edge37_Node000024_Node000002"><a xlink:title=" ">
<path fill="none" stroke="#63b8ff" d="M1038.32,-110.24C1042.76,-94.61 1046.63,-70 1033.25,-55.25 1005.47,-24.62 722.47,-14.33 616.25,-11.53"/>
<polygon fill="#63b8ff" stroke="#63b8ff" points="616.38,-8.03 606.29,-11.27 616.2,-15.03 616.38,-8.03"/>
</a>
</g>
</g>
<!-- Node24&#45;&gt;Node7 -->
<g id="edge40_Node000024_Node000007" class="edge">
<title>Node24&#45;&gt;Node7</title>
<g id="a_edge40_Node000024_Node000007"><a xlink:title=" ">
<path fill="none" stroke="#63b8ff" d="M958.6,-110.57C893.69,-98.25 802.8,-80.98 755.2,-71.94"/>
<polygon fill="#63b8ff" stroke="#63b8ff" points="756.04,-68.54 745.56,-70.11 754.73,-75.42 756.04,-68.54"/>
</a>
</g>
</g>
<!-- Node24&#45;&gt;Node9 -->
<g id="edge39_Node000024_Node000009" class="edge">
<title>Node24&#45;&gt;Node9</title>
<g id="a_edge39_Node000024_Node000009"><a xlink:title=" ">
<path fill="none" stroke="#63b8ff" d="M1072.96,-110.05C1098.81,-100.48 1132.21,-88.11 1157.09,-78.89"/>
<polygon fill="#63b8ff" stroke="#63b8ff" points="1158.28,-82.18 1166.45,-75.43 1155.85,-75.62 1158.28,-82.18"/>
</a>
</g>
</g>
<!-- Node24&#45;&gt;Node20 -->
<g id="edge38_Node000024_Node000020" class="edge">
<title>Node24&#45;&gt;Node20</title>
<g id="a_edge38_Node000024_Node000020"><a xlink:title=" ">
<path fill="none" stroke="#63b8ff" d="M1023.61,-110.2C1018.47,-102.44 1012.09,-92.81 1006.6,-84.51"/>
<polygon fill="#63b8ff" stroke="#63b8ff" points="1009.54,-82.62 1001.1,-76.21 1003.7,-86.48 1009.54,-82.62"/>
</a>
</g>
</g>
<!-- Node25 -->
<g id="Node000025" class="node">
<title>Node25</title>
<g id="a_Node000025"><a xlink:title=" ">
<polygon fill="#e0e0e0" stroke="#999999" points="1136.5,-74.5 1080,-74.5 1080,-55.25 1136.5,-55.25 1136.5,-74.5"/>
<text text-anchor="middle" x="1108.25" y="-61" font-family="Helvetica,sans-Serif" font-size="10.00">ctTimer.h</text>
</a>
</g>
</g>
<!-- Node24&#45;&gt;Node25 -->
<g id="edge41_Node000024_Node000025" class="edge">
<title>Node24&#45;&gt;Node25</title>
<g id="a_edge41_Node000024_Node000025"><a xlink:title=" ">
<path fill="none" stroke="#63b8ff" d="M1051.79,-110.2C1062.77,-101.58 1076.69,-90.65 1087.97,-81.8"/>
<polygon fill="#63b8ff" stroke="#63b8ff" points="1089.79,-84.81 1095.5,-75.89 1085.47,-79.31 1089.79,-84.81"/>
</a>
</g>
</g>
</g>
</svg>

<g id="navigator" transform="translate(0 0)" fill="#404254">
  <rect fill="#f2f5e9" fill-opacity="0.5" stroke="#606060" stroke-width=".5" x="0" y="0" width="60" height="60"/>
  <use id="zoomplus" xlink:href="#zoomPlus" x="17" y="9" onmousedown="handleZoom(evt,'in')"/>
  <use id="zoomminus" xlink:href="#zoomMin" x="42" y="9" onmousedown="handleZoom(evt,'out')"/>
  <use id="reset" xlink:href="#resetDef" x="30" y="36" onmousedown="handleReset()"/>
   <use id="arrowup" xlink:href="#arrowUp" x="0" y="0" onmousedown="handlePan(0,-1)"/>
  <use id="arrowright" xlink:href="#arrowRight" x="0" y="0" onmousedown="handlePan(1,0)"/>
  <use id="arrowdown" xlink:href="#arrowDown" x="0" y="0" onmousedown="handlePan(0,1)"/>
  <use id="arrowleft" xlink:href="#arrowLeft" x="0" y="0" onmousedown="handlePan(-1,0)"/>
</g>
<svg viewBox="0 0 15 15" width="100%" height="30px" preserveAspectRatio="xMaxYMin meet">
 <g id="arrow_out" transform="scale(0.3 0.3)">
  <a xlink:href="main_8cpp__incl_org.svg" target="_base">
   <rect id="button" ry="5" rx="5" y="6" x="6" height="38" width="38"
        fill="#f2f5e9" fill-opacity="0.5" stroke="#606060" stroke-width="1.0"/>
   <path id="arrow"
     d="M 11.500037,31.436501 C 11.940474,20.09759 22.043105,11.32322 32.158766,21.979434 L 37.068811,17.246167 C 37.068811,17.246167 37.088388,32 37.088388,32 L 22.160133,31.978069 C 22.160133,31.978069 26.997745,27.140456 26.997745,27.140456 C 18.528582,18.264221 13.291696,25.230495 11.500037,31.436501 z"
     style="fill:#404040;"/>
  </a>
 </g>
</svg>

<style type='text/css'>
<![CDATA[
[data-mouse-over-selected='false'] { opacity: 0.7; }
[data-mouse-over-selected='true']  { opacity: 1.0; }
]]>
</style>
<script type="application/ecmascript"><![CDATA[
document.addEventListener('DOMContentLoaded', (event) => {
  highlightEdges();
  highlightAdjacentNodes();
});
]]></script>
</svg>
