<?xml version="1.0" encoding="UTF-8" standalone="no"?>
<!DOCTYPE svg PUBLIC "-//W3C//DTD SVG 1.1//EN"
 "http://www.w3.org/Graphics/SVG/1.1/DTD/svg11.dtd">
<!-- Generated by graphviz version 12.2.0 (20241103.1931)
 -->
<!-- Title: src/main.cpp Pages: 1 -->
<!--zoomable 260 -->

<svg id="main" version="1.1" xmlns="http://www.w3.org/2000/svg" xmlns:xlink="http://www.w3.org/1999/xlink" xml:space="preserve" onload="init(evt)">

<style type="text/css"><![CDATA[
.node, .edge {opacity: 0.7;}
.node.selected, .edge.selected {opacity: 1;}
.edge:hover path { stroke: red; }
.edge:hover polygon { stroke: red; fill: red; }
]]></style>

<defs>
  <circle id="rim" cx="0" cy="0" r="7"/>
  <circle id="rim2" cx="0" cy="0" r="3.5"/>
  <g id="zoomPlus">
    <use xlink:href="#rim" fill="#404040"><set attributeName="fill" to="#808080" begin="zoomplus.mouseover" end="zoomplus.mouseout"/></use>
    <path d="M-4,0h8M0,-4v8" fill="none" stroke="white" stroke-width="1.5" pointer-events="none"/>
  </g>
  <g id="zoomMin">
    <use xlink:href="#rim" fill="#404040"><set attributeName="fill" to="#808080" begin="zoomminus.mouseover" end="zoomminus.mouseout"/></use>
    <path d="M-4,0h8" fill="none" stroke="white" stroke-width="1.5" pointer-events="none"/>
  </g>
  <g id="arrowUp" transform="translate(30 24)">
    <use xlink:href="#rim"/>
    <path pointer-events="none" fill="none" stroke="white" stroke-width="1.5" d="M0,-3.0v7 M-2.5,-0.5L0,-3.0L2.5,-0.5"/>
  </g>
  <g id="arrowRight" transform="rotate(90) translate(36 -43)">
    <use xlink:href="#rim"/>
    <path pointer-events="none" fill="none" stroke="white" stroke-width="1.5" d="M0,-3.0v7 M-2.5,-0.5L0,-3.0L2.5,-0.5"/>
  </g>
  <g id="arrowDown" transform="rotate(180) translate(-30 -48)">
    <use xlink:href="#rim"/>
    <path pointer-events="none" fill="none" stroke="white" stroke-width="1.5" d="M0,-3.0v7 M-2.5,-0.5L0,-3.0L2.5,-0.5"/>
  </g>
  <g id="arrowLeft" transform="rotate(270) translate(-36 17)">
    <use xlink:href="#rim"/>
    <path pointer-events="none" fill="none" stroke="white" stroke-width="1.5" d="M0,-3.0v7 M-2.5,-0.5L0,-3.0L2.5,-0.5"/>
  </g>
  <g id="resetDef">
    <use xlink:href="#rim2" fill="#404040"><set attributeName="fill" to="#808080" begin="reset.mouseover" end="reset.mouseout"/></use>
  </g>
</defs>
<script type="application/ecmascript">
var viewWidth = 1371;
var viewHeight = 260;
var sectionId = 'dynsection-0';
</script>
<script type="application/ecmascript" xlink:href="svg.min.js"/>
<svg id="graph" class="graph">
<g id="viewport">
<title>src/main.cpp</title>
<!-- Node1 -->
<g id="Node000001" class="node">
<title>Node1</title>
<g id="a_Node000001"><a xlink:title=" ">
<polygon fill="#999999" stroke="#666666" points="742.38,-251.5 670.88,-251.5 670.88,-232.25 742.38,-232.25 742.38,-251.5"/>
<text text-anchor="middle" x="706.62" y="-238" font-family="Helvetica,sans-Serif" font-size="10.00">src/main.cpp</text>
</a>
</g>
</g>
<!-- Node2 -->
<g id="Node000002" class="node">
<title>Node2</title>
<g id="a_Node000002"><a xlink:title=" ">
<polygon fill="#e0e0e0" stroke="#999999" points="773.88,-19.25 717.38,-19.25 717.38,0 773.88,0 773.88,-19.25"/>
<text text-anchor="middle" x="745.62" y="-5.75" font-family="Helvetica,sans-Serif" font-size="10.00">Arduino.h</text>
</a>
</g>
</g>
<!-- Node1&#45;&gt;Node2 -->
<g id="edge1_Node000001_Node000002" class="edge">
<title>Node1&#45;&gt;Node2</title>
<g id="a_edge1_Node000001_Node000002"><a xlink:title=" ">
<path fill="none" stroke="#63b8ff" d="M742.57,-239.17C830.68,-234.61 1051.87,-220.81 1073.62,-196.25 1163.85,-94.39 891.05,-35.53 785.48,-17.02"/>
<polygon fill="#63b8ff" stroke="#63b8ff" points="786.28,-13.61 775.83,-15.37 785.1,-20.51 786.28,-13.61"/>
</a>
</g>
</g>
<!-- Node3 -->
<g id="Node000003" class="node">
<title>Node3</title>
<g id="a_Node000003"><a xlink:title=" ">
<polygon fill="#e0e0e0" stroke="#999999" points="1330.62,-190.62 1272.62,-190.62 1272.62,-171.38 1330.62,-171.38 1330.62,-190.62"/>
<text text-anchor="middle" x="1301.62" y="-177.12" font-family="Helvetica,sans-Serif" font-size="10.00">LittleFS.h</text>
</a>
</g>
</g>
<!-- Node1&#45;&gt;Node3 -->
<g id="edge2_Node000001_Node000003" class="edge">
<title>Node1&#45;&gt;Node3</title>
<g id="a_edge2_Node000001_Node000003"><a xlink:title=" ">
<path fill="none" stroke="#63b8ff" d="M742.65,-241.43C832.04,-242.08 1070.7,-239.26 1263.62,-196.25 1265.65,-195.8 1267.72,-195.26 1269.78,-194.67"/>
<polygon fill="#63b8ff" stroke="#63b8ff" points="1270.82,-198.01 1279.2,-191.54 1268.61,-191.37 1270.82,-198.01"/>
</a>
</g>
</g>
<!-- Node4 -->
<g id="Node000004" class="node">
<title>Node4</title>
<g id="a_Node000004"><a xlink:href="AppCollection_8h.html" target="_top" xlink:title=" ">
<polygon fill="white" stroke="#666666" points="204.25,-190.62 99,-190.62 99,-171.38 204.25,-171.38 204.25,-190.62"/>
<text text-anchor="middle" x="151.62" y="-177.12" font-family="Helvetica,sans-Serif" font-size="10.00">core/AppCollection.h</text>
</a>
</g>
</g>
<!-- Node1&#45;&gt;Node4 -->
<g id="edge3_Node000001_Node000004" class="edge">
<title>Node1&#45;&gt;Node4</title>
<g id="a_edge3_Node000001_Node000004"><a xlink:title=" ">
<path fill="none" stroke="#63b8ff" d="M670.54,-239.29C588.79,-235.33 383.36,-223.31 213.62,-196.25 208.71,-195.47 203.6,-194.52 198.52,-193.48"/>
<polygon fill="#63b8ff" stroke="#63b8ff" points="199.52,-190.12 189.01,-191.44 198.05,-196.96 199.52,-190.12"/>
</a>
</g>
</g>
<!-- Node9 -->
<g id="Node000009" class="node">
<title>Node9</title>
<g id="a_Node000009"><a xlink:href="AppLauncher_8h.html" target="_top" xlink:title=" ">
<polygon fill="white" stroke="#666666" points="898.5,-190.62 734.75,-190.62 734.75,-171.38 898.5,-171.38 898.5,-190.62"/>
<text text-anchor="middle" x="816.62" y="-177.12" font-family="Helvetica,sans-Serif" font-size="10.00">core/AppLauncher/AppLauncher.h</text>
</a>
</g>
</g>
<!-- Node1&#45;&gt;Node9 -->
<g id="edge8_Node000001_Node000009" class="edge">
<title>Node1&#45;&gt;Node9</title>
<g id="a_edge8_Node000001_Node000009"><a xlink:title=" ">
<path fill="none" stroke="#63b8ff" d="M723.33,-231.93C740.94,-222.51 768.94,-207.52 789.67,-196.43"/>
<polygon fill="#63b8ff" stroke="#63b8ff" points="791.26,-199.54 798.43,-191.74 787.96,-193.37 791.26,-199.54"/>
</a>
</g>
</g>
<!-- Node11 -->
<g id="Node000011" class="node">
<title>Node11</title>
<g id="a_Node000011"><a xlink:href="Settings_8h.html" target="_top" xlink:title=" ">
<polygon fill="white" stroke="#666666" points="81.25,-190.62 0,-190.62 0,-171.38 81.25,-171.38 81.25,-190.62"/>
<text text-anchor="middle" x="40.62" y="-177.12" font-family="Helvetica,sans-Serif" font-size="10.00">core/Settings.h</text>
</a>
</g>
</g>
<!-- Node1&#45;&gt;Node11 -->
<g id="edge12_Node000001_Node000011" class="edge">
<title>Node1&#45;&gt;Node11</title>
<g id="a_edge12_Node000001_Node000011"><a xlink:title=" ">
<path fill="none" stroke="#63b8ff" d="M670.48,-240.91C574.86,-240.43 307.65,-235.38 89.62,-196.25 86.2,-195.64 82.68,-194.88 79.17,-194.03"/>
<polygon fill="#63b8ff" stroke="#63b8ff" points="80.14,-190.66 69.57,-191.48 78.34,-197.43 80.14,-190.66"/>
</a>
</g>
</g>
<!-- Node13 -->
<g id="Node000013" class="node">
<title>Node13</title>
<g id="a_Node000013"><a xlink:href="SettingsApp_8h.html" target="_top" xlink:title=" ">
<polygon fill="white" stroke="#666666" points="352.62,-196.25 222.62,-196.25 222.62,-165.75 352.62,-165.75 352.62,-196.25"/>
<text text-anchor="start" x="230.62" y="-182.75" font-family="Helvetica,sans-Serif" font-size="10.00">core/SettingsApp/Settings</text>
<text text-anchor="middle" x="287.62" y="-171.5" font-family="Helvetica,sans-Serif" font-size="10.00">App.h</text>
</a>
</g>
</g>
<!-- Node1&#45;&gt;Node13 -->
<g id="edge16_Node000001_Node000013" class="edge">
<title>Node1&#45;&gt;Node13</title>
<g id="a_edge16_Node000001_Node000013"><a xlink:title=" ">
<path fill="none" stroke="#63b8ff" d="M670.76,-236.97C609.85,-230.19 482.07,-215.26 363.98,-196.57"/>
<polygon fill="#63b8ff" stroke="#63b8ff" points="364.88,-193.17 354.45,-195.05 363.77,-200.08 364.88,-193.17"/>
</a>
</g>
</g>
<!-- Node15 -->
<g id="Node000015" class="node">
<title>Node15</title>
<g id="a_Node000015"><a xlink:href="Hardware_8h.html" target="_top" xlink:title=" ">
<polygon fill="white" stroke="#666666" points="758.75,-129.75 650.5,-129.75 650.5,-110.5 758.75,-110.5 758.75,-129.75"/>
<text text-anchor="middle" x="704.62" y="-116.25" font-family="Helvetica,sans-Serif" font-size="10.00">hardware/Hardware.h</text>
</a>
</g>
</g>
<!-- Node1&#45;&gt;Node15 -->
<g id="edge21_Node000001_Node000015" class="edge">
<title>Node1&#45;&gt;Node15</title>
<g id="a_edge21_Node000001_Node000015"><a xlink:title=" ">
<path fill="none" stroke="#63b8ff" d="M706.47,-231.87C706.16,-212.8 705.41,-167.91 704.97,-141.51"/>
<polygon fill="#63b8ff" stroke="#63b8ff" points="708.47,-141.68 704.8,-131.74 701.47,-141.8 708.47,-141.68"/>
</a>
</g>
</g>
<!-- Node21 -->
<g id="Node000021" class="node">
<title>Node21</title>
<g id="a_Node000021"><a xlink:href="ClockApp_8h.html" target="_top" xlink:title=" ">
<polygon fill="white" stroke="#666666" points="1254.88,-190.62 1120.38,-190.62 1120.38,-171.38 1254.88,-171.38 1254.88,-190.62"/>
<text text-anchor="middle" x="1187.62" y="-177.12" font-family="Helvetica,sans-Serif" font-size="10.00">apps/ClockApp/ClockApp.h</text>
</a>
</g>
</g>
<!-- Node1&#45;&gt;Node21 -->
<g id="edge30_Node000001_Node000021" class="edge">
<title>Node1&#45;&gt;Node21</title>
<g id="a_edge30_Node000001_Node000021"><a xlink:title=" ">
<path fill="none" stroke="#63b8ff" d="M742.85,-237.61C813.16,-231.09 972.96,-215.44 1106.62,-196.25 1113.41,-195.28 1120.49,-194.17 1127.53,-193.01"/>
<polygon fill="#63b8ff" stroke="#63b8ff" points="1128.11,-196.46 1137.38,-191.34 1126.94,-189.56 1128.11,-196.46"/>
</a>
</g>
</g>
<!-- Node25 -->
<g id="Node000025" class="node">
<title>Node25</title>
<g id="a_Node000025"><a xlink:href="GooglyEyes_8h.html" target="_top" xlink:title=" ">
<polygon fill="white" stroke="#666666" points="522.88,-190.62 370.38,-190.62 370.38,-171.38 522.88,-171.38 522.88,-190.62"/>
<text text-anchor="middle" x="446.62" y="-177.12" font-family="Helvetica,sans-Serif" font-size="10.00">apps/GooglyEyes/GooglyEyes.h</text>
</a>
</g>
</g>
<!-- Node1&#45;&gt;Node25 -->
<g id="edge36_Node000001_Node000025" class="edge">
<title>Node1&#45;&gt;Node25</title>
<g id="a_edge36_Node000001_Node000025"><a xlink:title=" ">
<path fill="none" stroke="#63b8ff" d="M670.47,-232.69C625.59,-222.53 548.75,-205.12 497.82,-193.59"/>
<polygon fill="#63b8ff" stroke="#63b8ff" points="498.74,-190.21 488.21,-191.42 497.19,-197.04 498.74,-190.21"/>
</a>
</g>
</g>
<!-- Node26 -->
<g id="Node000026" class="node">
<title>Node26</title>
<g id="a_Node000026"><a xlink:href="PomodoroApp_8h.html" target="_top" xlink:title=" ">
<polygon fill="white" stroke="#666666" points="1065,-196.25 916.25,-196.25 916.25,-165.75 1065,-165.75 1065,-196.25"/>
<text text-anchor="start" x="924.25" y="-182.75" font-family="Helvetica,sans-Serif" font-size="10.00">apps/PomodoroApp/Pomodoro</text>
<text text-anchor="middle" x="990.62" y="-171.5" font-family="Helvetica,sans-Serif" font-size="10.00">App.h</text>
</a>
</g>
</g>
<!-- Node1&#45;&gt;Node26 -->
<g id="edge39_Node000001_Node000026" class="edge">
<title>Node1&#45;&gt;Node26</title>
<g id="a_edge39_Node000001_Node000026"><a xlink:title=" ">
<path fill="none" stroke="#63b8ff" d="M742.59,-233.42C784.07,-224.82 853.57,-210.41 908.47,-199.03"/>
<polygon fill="#63b8ff" stroke="#63b8ff" points="909.03,-202.49 918.12,-197.03 907.61,-195.63 909.03,-202.49"/>
</a>
</g>
</g>
<!-- Node28 -->
<g id="Node000028" class="node">
<title>Node28</title>
<g id="a_Node000028"><a xlink:href="MatrixApp_8h.html" target="_top" xlink:title=" ">
<polygon fill="white" stroke="#666666" points="678.38,-190.62 540.88,-190.62 540.88,-171.38 678.38,-171.38 678.38,-190.62"/>
<text text-anchor="middle" x="609.62" y="-177.12" font-family="Helvetica,sans-Serif" font-size="10.00">apps/MatrixApp/MatrixApp.h</text>
</a>
</g>
</g>
<!-- Node1&#45;&gt;Node28 -->
<g id="edge45_Node000001_Node000028" class="edge">
<title>Node1&#45;&gt;Node28</title>
<g id="a_edge45_Node000001_Node000028"><a xlink:title=" ">
<path fill="none" stroke="#63b8ff" d="M691.89,-231.93C676.58,-222.64 652.36,-207.94 634.15,-196.89"/>
<polygon fill="#63b8ff" stroke="#63b8ff" points="636.15,-194.01 625.79,-191.81 632.52,-199.99 636.15,-194.01"/>
</a>
</g>
</g>
<!-- Node5 -->
<g id="Node000005" class="node">
<title>Node5</title>
<g id="a_Node000005"><a xlink:title=" ">
<polygon fill="#e0e0e0" stroke="#999999" points="262.88,-129.75 212.38,-129.75 212.38,-110.5 262.88,-110.5 262.88,-129.75"/>
<text text-anchor="middle" x="237.62" y="-116.25" font-family="Helvetica,sans-Serif" font-size="10.00">memory</text>
</a>
</g>
</g>
<!-- Node4&#45;&gt;Node5 -->
<g id="edge4_Node000004_Node000005" class="edge">
<title>Node4&#45;&gt;Node5</title>
<g id="a_edge4_Node000004_Node000005"><a xlink:title=" ">
<path fill="none" stroke="#63b8ff" d="M164.69,-171.06C178.07,-161.89 199.14,-147.47 215.2,-136.48"/>
<polygon fill="#63b8ff" stroke="#63b8ff" points="216.92,-139.54 223.19,-131.01 212.96,-133.77 216.92,-139.54"/>
</a>
</g>
</g>
<!-- Node6 -->
<g id="Node000006" class="node">
<title>Node6</title>
<g id="a_Node000006"><a xlink:title=" ">
<polygon fill="#e0e0e0" stroke="#999999" points="132.62,-129.75 92.62,-129.75 92.62,-110.5 132.62,-110.5 132.62,-129.75"/>
<text text-anchor="middle" x="112.62" y="-116.25" font-family="Helvetica,sans-Serif" font-size="10.00">string</text>
</a>
</g>
</g>
<!-- Node4&#45;&gt;Node6 -->
<g id="edge5_Node000004_Node000006" class="edge">
<title>Node4&#45;&gt;Node6</title>
<g id="a_edge5_Node000004_Node000006"><a xlink:title=" ">
<path fill="none" stroke="#63b8ff" d="M145.7,-171.06C140.2,-162.76 131.85,-150.14 124.91,-139.67"/>
<polygon fill="#63b8ff" stroke="#63b8ff" points="127.88,-137.82 119.44,-131.41 122.04,-141.68 127.88,-137.82"/>
</a>
</g>
</g>
<!-- Node7 -->
<g id="Node000007" class="node">
<title>Node7</title>
<g id="a_Node000007"><a xlink:title=" ">
<polygon fill="#e0e0e0" stroke="#999999" points="194.12,-129.75 151.12,-129.75 151.12,-110.5 194.12,-110.5 194.12,-129.75"/>
<text text-anchor="middle" x="172.62" y="-116.25" font-family="Helvetica,sans-Serif" font-size="10.00">vector</text>
</a>
</g>
</g>
<!-- Node4&#45;&gt;Node7 -->
<g id="edge6_Node000004_Node000007" class="edge">
<title>Node4&#45;&gt;Node7</title>
<g id="a_edge6_Node000004_Node000007"><a xlink:title=" ">
<path fill="none" stroke="#63b8ff" d="M154.81,-171.06C157.65,-163.1 161.9,-151.19 165.54,-140.99"/>
<polygon fill="#63b8ff" stroke="#63b8ff" points="168.83,-142.17 168.9,-131.58 162.24,-139.82 168.83,-142.17"/>
</a>
</g>
</g>
<!-- Node8 -->
<g id="Node000008" class="node">
<title>Node8</title>
<g id="a_Node000008"><a xlink:href="App_8h.html" target="_top" xlink:title="Abstract base class for applications.">
<polygon fill="white" stroke="#666666" points="632,-129.75 591.25,-129.75 591.25,-110.5 632,-110.5 632,-129.75"/>
<text text-anchor="middle" x="611.62" y="-116.25" font-family="Helvetica,sans-Serif" font-size="10.00">App.h</text>
</a>
</g>
</g>
<!-- Node4&#45;&gt;Node8 -->
<g id="edge7_Node000004_Node000008" class="edge">
<title>Node4&#45;&gt;Node8</title>
<g id="a_edge7_Node000004_Node000008"><a xlink:title=" ">
<path fill="none" stroke="#63b8ff" d="M187.88,-170.94C196.29,-169.04 205.24,-167.18 213.62,-165.75 348.76,-142.72 511.82,-128.69 579.63,-123.46"/>
<polygon fill="#63b8ff" stroke="#63b8ff" points="579.58,-126.98 589.28,-122.73 579.05,-120 579.58,-126.98"/>
</a>
</g>
</g>
<!-- Node9&#45;&gt;Node2 -->
<g id="edge9_Node000009_Node000002" class="edge">
<title>Node9&#45;&gt;Node2</title>
<g id="a_edge9_Node000009_Node000002"><a xlink:title=" ">
<path fill="none" stroke="#63b8ff" d="M816.61,-170.92C816.2,-149.45 812.98,-94.42 791.62,-55.25 785.7,-44.37 776.22,-34.52 767.41,-26.85"/>
<polygon fill="#63b8ff" stroke="#63b8ff" points="769.78,-24.27 759.82,-20.66 765.36,-29.69 769.78,-24.27"/>
</a>
</g>
</g>
<!-- Node9&#45;&gt;Node8 -->
<g id="edge11_Node000009_Node000008" class="edge">
<title>Node9&#45;&gt;Node8</title>
<g id="a_edge11_Node000009_Node000008"><a xlink:title=" ">
<path fill="none" stroke="#63b8ff" d="M785.01,-170.93C752.08,-161.47 698.72,-146.15 643.07,-130.16"/>
<polygon fill="#63b8ff" stroke="#63b8ff" points="644.31,-126.88 633.74,-127.48 642.38,-133.61 644.31,-126.88"/>
</a>
</g>
</g>
<!-- Node10 -->
<g id="Node000010" class="node">
<title>Node10</title>
<g id="a_Node000010"><a xlink:title=" ">
<polygon fill="#e0e0e0" stroke="#999999" points="912.88,-129.75 838.38,-129.75 838.38,-110.5 912.88,-110.5 912.88,-129.75"/>
<text text-anchor="middle" x="875.62" y="-116.25" font-family="Helvetica,sans-Serif" font-size="10.00">eSPI_Menu.h</text>
</a>
</g>
</g>
<!-- Node9&#45;&gt;Node10 -->
<g id="edge10_Node000009_Node000010" class="edge">
<title>Node9&#45;&gt;Node10</title>
<g id="a_edge10_Node000009_Node000010"><a xlink:title=" ">
<path fill="none" stroke="#63b8ff" d="M825.59,-171.06C834.34,-162.33 847.87,-148.82 858.66,-138.05"/>
<polygon fill="#63b8ff" stroke="#63b8ff" points="860.9,-140.76 865.51,-131.22 855.96,-135.81 860.9,-140.76"/>
</a>
</g>
</g>
<!-- Node11&#45;&gt;Node2 -->
<g id="edge13_Node000011_Node000002" class="edge">
<title>Node11&#45;&gt;Node2</title>
<g id="a_edge13_Node000011_Node000002"><a xlink:title=" ">
<path fill="none" stroke="#63b8ff" d="M43.46,-171.09C48.75,-156 61.63,-125.6 83.62,-110.5 185.97,-40.25 578.43,-17.7 705.6,-12.15"/>
<polygon fill="#63b8ff" stroke="#63b8ff" points="705.7,-15.65 715.55,-11.73 705.41,-8.66 705.7,-15.65"/>
</a>
</g>
</g>
<!-- Node11&#45;&gt;Node6 -->
<g id="edge15_Node000011_Node000006" class="edge">
<title>Node11&#45;&gt;Node6</title>
<g id="a_edge15_Node000011_Node000006"><a xlink:title=" ">
<path fill="none" stroke="#63b8ff" d="M51.56,-171.06C62.45,-162.15 79.41,-148.28 92.7,-137.42"/>
<polygon fill="#63b8ff" stroke="#63b8ff" points="94.89,-140.15 100.42,-131.11 90.46,-134.73 94.89,-140.15"/>
</a>
</g>
</g>
<!-- Node12 -->
<g id="Node000012" class="node">
<title>Node12</title>
<g id="a_Node000012"><a xlink:title=" ">
<polygon fill="#e0e0e0" stroke="#999999" points="37,-129.75 2.25,-129.75 2.25,-110.5 37,-110.5 37,-129.75"/>
<text text-anchor="middle" x="19.62" y="-116.25" font-family="Helvetica,sans-Serif" font-size="10.00">map</text>
</a>
</g>
</g>
<!-- Node11&#45;&gt;Node12 -->
<g id="edge14_Node000011_Node000012" class="edge">
<title>Node11&#45;&gt;Node12</title>
<g id="a_edge14_Node000011_Node000012"><a xlink:title=" ">
<path fill="none" stroke="#63b8ff" d="M37.44,-171.06C34.6,-163.1 30.35,-151.19 26.71,-140.99"/>
<polygon fill="#63b8ff" stroke="#63b8ff" points="30.01,-139.82 23.35,-131.58 23.42,-142.17 30.01,-139.82"/>
</a>
</g>
</g>
<!-- Node13&#45;&gt;Node5 -->
<g id="edge19_Node000013_Node000005" class="edge">
<title>Node13&#45;&gt;Node5</title>
<g id="a_edge19_Node000013_Node000005"><a xlink:title=" ">
<path fill="none" stroke="#63b8ff" d="M275.27,-165.45C268.46,-157.43 259.95,-147.42 252.75,-138.94"/>
<polygon fill="#63b8ff" stroke="#63b8ff" points="255.45,-136.71 246.31,-131.35 250.12,-141.24 255.45,-136.71"/>
</a>
</g>
</g>
<!-- Node13&#45;&gt;Node7 -->
<g id="edge18_Node000013_Node000007" class="edge">
<title>Node13&#45;&gt;Node7</title>
<g id="a_edge18_Node000013_Node000007"><a xlink:title=" ">
<path fill="none" stroke="#63b8ff" d="M258.9,-165.3C240.88,-156.07 217.79,-144.25 200.02,-135.15"/>
<polygon fill="#63b8ff" stroke="#63b8ff" points="202.1,-132.29 191.61,-130.84 198.91,-138.52 202.1,-132.29"/>
</a>
</g>
</g>
<!-- Node13&#45;&gt;Node8 -->
<g id="edge20_Node000013_Node000008" class="edge">
<title>Node13&#45;&gt;Node8</title>
<g id="a_edge20_Node000013_Node000008"><a xlink:title=" ">
<path fill="none" stroke="#63b8ff" d="M352.99,-167.36C355.9,-166.82 358.79,-166.28 361.62,-165.75 439.95,-151.22 532.25,-134.97 579.78,-126.67"/>
<polygon fill="#63b8ff" stroke="#63b8ff" points="580.12,-130.16 589.37,-124.99 578.92,-123.26 580.12,-130.16"/>
</a>
</g>
</g>
<!-- Node14 -->
<g id="Node000014" class="node">
<title>Node14</title>
<g id="a_Node000014"><a xlink:title=" ">
<polygon fill="#e0e0e0" stroke="#999999" points="361.88,-129.75 281.38,-129.75 281.38,-110.5 361.88,-110.5 361.88,-129.75"/>
<text text-anchor="middle" x="321.62" y="-116.25" font-family="Helvetica,sans-Serif" font-size="10.00">WiFiManager.h</text>
</a>
</g>
</g>
<!-- Node13&#45;&gt;Node14 -->
<g id="edge17_Node000013_Node000014" class="edge">
<title>Node13&#45;&gt;Node14</title>
<g id="a_edge17_Node000013_Node000014"><a xlink:title=" ">
<path fill="none" stroke="#63b8ff" d="M296.03,-165.45C300.46,-157.78 305.95,-148.27 310.7,-140.04"/>
<polygon fill="#63b8ff" stroke="#63b8ff" points="313.66,-141.92 315.63,-131.51 307.59,-138.42 313.66,-141.92"/>
</a>
</g>
</g>
<!-- Node15&#45;&gt;Node2 -->
<g id="edge22_Node000015_Node000002" class="edge">
<title>Node15&#45;&gt;Node2</title>
<g id="a_edge22_Node000015_Node000002"><a xlink:title=" ">
<path fill="none" stroke="#63b8ff" d="M701.37,-110.03C697.34,-97.24 691.91,-73.48 699.62,-55.25 704.39,-43.99 713.53,-34.18 722.42,-26.65"/>
<polygon fill="#63b8ff" stroke="#63b8ff" points="724.47,-29.49 730.2,-20.58 720.16,-23.97 724.47,-29.49"/>
</a>
</g>
</g>
<!-- Node16 -->
<g id="Node000016" class="node">
<title>Node16</title>
<g id="a_Node000016"><a xlink:href="Button_2Button_8h.html" target="_top" xlink:title=" ">
<polygon fill="white" stroke="#666666" points="469.38,-74.5 385.88,-74.5 385.88,-55.25 469.38,-55.25 469.38,-74.5"/>
<text text-anchor="middle" x="427.62" y="-61" font-family="Helvetica,sans-Serif" font-size="10.00">Button/Button.h</text>
</a>
</g>
</g>
<!-- Node15&#45;&gt;Node16 -->
<g id="edge23_Node000015_Node000016" class="edge">
<title>Node15&#45;&gt;Node16</title>
<g id="a_edge23_Node000015_Node000016"><a xlink:title=" ">
<path fill="none" stroke="#63b8ff" d="M657.32,-110.03C608.34,-100.61 531.95,-85.93 480.87,-76.11"/>
<polygon fill="#63b8ff" stroke="#63b8ff" points="481.71,-72.71 471.23,-74.26 480.39,-79.58 481.71,-72.71"/>
</a>
</g>
</g>
<!-- Node18 -->
<g id="Node000018" class="node">
<title>Node18</title>
<g id="a_Node000018"><a xlink:href="Display_8h.html" target="_top" xlink:title=" ">
<polygon fill="white" stroke="#666666" points="577.38,-74.5 487.88,-74.5 487.88,-55.25 577.38,-55.25 577.38,-74.5"/>
<text text-anchor="middle" x="532.62" y="-61" font-family="Helvetica,sans-Serif" font-size="10.00">Display/Display.h</text>
</a>
</g>
</g>
<!-- Node15&#45;&gt;Node18 -->
<g id="edge25_Node000015_Node000018" class="edge">
<title>Node15&#45;&gt;Node18</title>
<g id="a_edge25_Node000015_Node000018"><a xlink:title=" ">
<path fill="none" stroke="#63b8ff" d="M675.45,-110.09C647.15,-101.33 604.01,-87.98 572.54,-78.23"/>
<polygon fill="#63b8ff" stroke="#63b8ff" points="573.98,-75.01 563.39,-75.4 571.91,-81.7 573.98,-75.01"/>
</a>
</g>
</g>
<!-- Node20 -->
<g id="Node000020" class="node">
<title>Node20</title>
<g id="a_Node000020"><a xlink:href="Piezo_8h.html" target="_top" xlink:title=" ">
<polygon fill="white" stroke="#666666" points="782.88,-74.5 708.38,-74.5 708.38,-55.25 782.88,-55.25 782.88,-74.5"/>
<text text-anchor="middle" x="745.62" y="-61" font-family="Helvetica,sans-Serif" font-size="10.00">Piezo/Piezo.h</text>
</a>
</g>
</g>
<!-- Node15&#45;&gt;Node20 -->
<g id="edge28_Node000015_Node000020" class="edge">
<title>Node15&#45;&gt;Node20</title>
<g id="a_edge28_Node000015_Node000020"><a xlink:title=" ">
<path fill="none" stroke="#63b8ff" d="M711.4,-110.33C716.94,-103.13 724.97,-92.71 731.85,-83.76"/>
<polygon fill="#63b8ff" stroke="#63b8ff" points="734.46,-86.12 737.78,-76.06 728.91,-81.85 734.46,-86.12"/>
</a>
</g>
</g>
<!-- Node17 -->
<g id="Node000017" class="node">
<title>Node17</title>
<g id="a_Node000017"><a xlink:title=" ">
<polygon fill="#e0e0e0" stroke="#999999" points="462.62,-19.25 392.62,-19.25 392.62,0 462.62,0 462.62,-19.25"/>
<text text-anchor="middle" x="427.62" y="-5.75" font-family="Helvetica,sans-Serif" font-size="10.00">OneButton.h</text>
</a>
</g>
</g>
<!-- Node16&#45;&gt;Node17 -->
<g id="edge24_Node000016_Node000017" class="edge">
<title>Node16&#45;&gt;Node17</title>
<g id="a_edge24_Node000016_Node000017"><a xlink:title=" ">
<path fill="none" stroke="#63b8ff" d="M427.62,-55.08C427.62,-48.57 427.62,-39.42 427.62,-31.12"/>
<polygon fill="#63b8ff" stroke="#63b8ff" points="431.13,-31.12 427.63,-21.12 424.13,-31.12 431.13,-31.12"/>
</a>
</g>
</g>
<!-- Node18&#45;&gt;Node2 -->
<g id="edge26_Node000018_Node000002" class="edge">
<title>Node18&#45;&gt;Node2</title>
<g id="a_edge26_Node000018_Node000002"><a xlink:title=" ">
<path fill="none" stroke="#63b8ff" d="M568.76,-54.84C606.89,-45.31 666.81,-30.33 706.16,-20.49"/>
<polygon fill="#63b8ff" stroke="#63b8ff" points="706.85,-23.93 715.7,-18.11 705.15,-17.14 706.85,-23.93"/>
</a>
</g>
</g>
<!-- Node19 -->
<g id="Node000019" class="node">
<title>Node19</title>
<g id="a_Node000019"><a xlink:title=" ">
<polygon fill="#e0e0e0" stroke="#999999" points="566.88,-19.25 498.38,-19.25 498.38,0 566.88,0 566.88,-19.25"/>
<text text-anchor="middle" x="532.62" y="-5.75" font-family="Helvetica,sans-Serif" font-size="10.00">TFT_eSPI.h</text>
</a>
</g>
</g>
<!-- Node18&#45;&gt;Node19 -->
<g id="edge27_Node000018_Node000019" class="edge">
<title>Node18&#45;&gt;Node19</title>
<g id="a_edge27_Node000018_Node000019"><a xlink:title=" ">
<path fill="none" stroke="#63b8ff" d="M532.62,-55.08C532.62,-48.57 532.62,-39.42 532.62,-31.12"/>
<polygon fill="#63b8ff" stroke="#63b8ff" points="536.13,-31.12 532.63,-21.12 529.13,-31.12 536.13,-31.12"/>
</a>
</g>
</g>
<!-- Node20&#45;&gt;Node2 -->
<g id="edge29_Node000020_Node000002" class="edge">
<title>Node20&#45;&gt;Node2</title>
<g id="a_edge29_Node000020_Node000002"><a xlink:title=" ">
<path fill="none" stroke="#63b8ff" d="M745.62,-55.08C745.62,-48.57 745.62,-39.42 745.62,-31.12"/>
<polygon fill="#63b8ff" stroke="#63b8ff" points="749.13,-31.12 745.63,-21.12 742.13,-31.12 749.13,-31.12"/>
</a>
</g>
</g>
<!-- Node21&#45;&gt;Node2 -->
<g id="edge31_Node000021_Node000002" class="edge">
<title>Node21&#45;&gt;Node2</title>
<g id="a_edge31_Node000021_Node000002"><a xlink:title=" ">
<path fill="none" stroke="#63b8ff" d="M1187.16,-171.03C1186.02,-156.9 1182.09,-129.16 1168.62,-110.5 1142.69,-74.57 1127.12,-70.82 1085.62,-55.25 982.25,-16.47 850.22,-10.46 785.3,-10.09"/>
<polygon fill="#63b8ff" stroke="#63b8ff" points="785.5,-6.59 775.49,-10.08 785.49,-13.59 785.5,-6.59"/>
</a>
</g>
</g>
<!-- Node21&#45;&gt;Node8 -->
<g id="edge35_Node000021_Node000008" class="edge">
<title>Node21&#45;&gt;Node8</title>
<g id="a_edge35_Node000021_Node000008"><a xlink:title=" ">
<path fill="none" stroke="#63b8ff" d="M1120.16,-171.1C1104.87,-169.21 1088.7,-167.32 1073.62,-165.75 885.64,-146.18 833.11,-163.84 643.67,-129.73"/>
<polygon fill="#63b8ff" stroke="#63b8ff" points="644.44,-126.32 633.97,-127.96 643.18,-133.2 644.44,-126.32"/>
</a>
</g>
</g>
<!-- Node22 -->
<g id="Node000022" class="node">
<title>Node22</title>
<g id="a_Node000022"><a xlink:title=" ">
<polygon fill="#e0e0e0" stroke="#999999" points="1159.38,-129.75 1099.88,-129.75 1099.88,-110.5 1159.38,-110.5 1159.38,-129.75"/>
<text text-anchor="middle" x="1129.62" y="-116.25" font-family="Helvetica,sans-Serif" font-size="10.00">DigiFont.h</text>
</a>
</g>
</g>
<!-- Node21&#45;&gt;Node22 -->
<g id="edge32_Node000021_Node000022" class="edge">
<title>Node21&#45;&gt;Node22</title>
<g id="a_edge32_Node000021_Node000022"><a xlink:title=" ">
<path fill="none" stroke="#63b8ff" d="M1178.82,-171.06C1170.21,-162.33 1156.91,-148.82 1146.3,-138.05"/>
<polygon fill="#63b8ff" stroke="#63b8ff" points="1149.09,-135.9 1139.58,-131.23 1144.1,-140.81 1149.09,-135.9"/>
</a>
</g>
</g>
<!-- Node23 -->
<g id="Node000023" class="node">
<title>Node23</title>
<g id="a_Node000023"><a xlink:title=" ">
<polygon fill="#e0e0e0" stroke="#999999" points="1283.88,-129.75 1215.38,-129.75 1215.38,-110.5 1283.88,-110.5 1283.88,-129.75"/>
<text text-anchor="middle" x="1249.62" y="-116.25" font-family="Helvetica,sans-Serif" font-size="10.00">NTPClient.h</text>
</a>
</g>
</g>
<!-- Node21&#45;&gt;Node23 -->
<g id="edge33_Node000021_Node000023" class="edge">
<title>Node21&#45;&gt;Node23</title>
<g id="a_edge33_Node000021_Node000023"><a xlink:title=" ">
<path fill="none" stroke="#63b8ff" d="M1197.04,-171.06C1206.24,-162.33 1220.46,-148.82 1231.8,-138.05"/>
<polygon fill="#63b8ff" stroke="#63b8ff" points="1234.18,-140.62 1239.02,-131.19 1229.36,-135.54 1234.18,-140.62"/>
</a>
</g>
</g>
<!-- Node24 -->
<g id="Node000024" class="node">
<title>Node24</title>
<g id="a_Node000024"><a xlink:title=" ">
<polygon fill="#e0e0e0" stroke="#999999" points="1363.12,-129.75 1302.12,-129.75 1302.12,-110.5 1363.12,-110.5 1363.12,-129.75"/>
<text text-anchor="middle" x="1332.62" y="-116.25" font-family="Helvetica,sans-Serif" font-size="10.00">WiFiUdp.h</text>
</a>
</g>
</g>
<!-- Node21&#45;&gt;Node24 -->
<g id="edge34_Node000021_Node000024" class="edge">
<title>Node21&#45;&gt;Node24</title>
<g id="a_edge34_Node000021_Node000024"><a xlink:title=" ">
<path fill="none" stroke="#63b8ff" d="M1209.96,-170.93C1233.98,-161.18 1272.41,-145.58 1299.85,-134.43"/>
<polygon fill="#63b8ff" stroke="#63b8ff" points="1301.15,-137.68 1309.1,-130.68 1298.51,-131.2 1301.15,-137.68"/>
</a>
</g>
</g>
<!-- Node25&#45;&gt;Node2 -->
<g id="edge37_Node000025_Node000002" class="edge">
<title>Node25&#45;&gt;Node2</title>
<g id="a_edge37_Node000025_Node000002"><a xlink:title=" ">
<path fill="none" stroke="#63b8ff" d="M462.7,-170.89C511.79,-143.09 660.04,-59.11 720.02,-25.13"/>
<polygon fill="#63b8ff" stroke="#63b8ff" points="721.54,-28.29 728.52,-20.32 718.09,-22.2 721.54,-28.29"/>
</a>
</g>
</g>
<!-- Node25&#45;&gt;Node8 -->
<g id="edge38_Node000025_Node000008" class="edge">
<title>Node25&#45;&gt;Node8</title>
<g id="a_edge38_Node000025_Node000008"><a xlink:title=" ">
<path fill="none" stroke="#63b8ff" d="M472.04,-170.93C501.19,-160.53 548.98,-143.48 580.37,-132.28"/>
<polygon fill="#63b8ff" stroke="#63b8ff" points="581.46,-135.6 589.7,-128.95 579.11,-129.01 581.46,-135.6"/>
</a>
</g>
</g>
<!-- Node26&#45;&gt;Node2 -->
<g id="edge40_Node000026_Node000002" class="edge">
<title>Node26&#45;&gt;Node2</title>
<g id="a_edge40_Node000026_Node000002"><a xlink:title=" ">
<path fill="none" stroke="#63b8ff" d="M978.16,-165.26C965.06,-150.33 943.37,-127.12 921.62,-110.5 873.99,-74.09 811.65,-41.84 775.38,-24.39"/>
<polygon fill="#63b8ff" stroke="#63b8ff" points="777.34,-21.44 766.81,-20.31 774.34,-27.76 777.34,-21.44"/>
</a>
</g>
</g>
<!-- Node26&#45;&gt;Node8 -->
<g id="edge43_Node000026_Node000008" class="edge">
<title>Node26&#45;&gt;Node8</title>
<g id="a_edge43_Node000026_Node000008"><a xlink:title=" ">
<path fill="none" stroke="#63b8ff" d="M915.99,-167.06C913.17,-166.61 910.37,-166.17 907.62,-165.75 793.28,-148.2 760.35,-153.92 643.39,-129.81"/>
<polygon fill="#63b8ff" stroke="#63b8ff" points="644.17,-126.4 633.66,-127.77 642.73,-133.25 644.17,-126.4"/>
</a>
</g>
</g>
<!-- Node26&#45;&gt;Node10 -->
<g id="edge42_Node000026_Node000010" class="edge">
<title>Node26&#45;&gt;Node10</title>
<g id="a_edge42_Node000026_Node000010"><a xlink:title=" ">
<path fill="none" stroke="#63b8ff" d="M961.9,-165.3C943.88,-156.07 920.79,-144.25 903.02,-135.15"/>
<polygon fill="#63b8ff" stroke="#63b8ff" points="905.1,-132.29 894.61,-130.84 901.91,-138.52 905.1,-132.29"/>
</a>
</g>
</g>
<!-- Node26&#45;&gt;Node22 -->
<g id="edge41_Node000026_Node000022" class="edge">
<title>Node26&#45;&gt;Node22</title>
<g id="a_edge41_Node000026_Node000022"><a xlink:title=" ">
<path fill="none" stroke="#63b8ff" d="M1025.34,-165.3C1047.63,-155.85 1076.35,-143.69 1098,-134.52"/>
<polygon fill="#63b8ff" stroke="#63b8ff" points="1099.07,-137.87 1106.91,-130.74 1096.34,-131.42 1099.07,-137.87"/>
</a>
</g>
</g>
<!-- Node27 -->
<g id="Node000027" class="node">
<title>Node27</title>
<g id="a_Node000027"><a xlink:title=" ">
<polygon fill="#e0e0e0" stroke="#999999" points="1024.88,-129.75 968.38,-129.75 968.38,-110.5 1024.88,-110.5 1024.88,-129.75"/>
<text text-anchor="middle" x="996.62" y="-116.25" font-family="Helvetica,sans-Serif" font-size="10.00">ctTimer.h</text>
</a>
</g>
</g>
<!-- Node26&#45;&gt;Node27 -->
<g id="edge44_Node000026_Node000027" class="edge">
<title>Node26&#45;&gt;Node27</title>
<g id="a_edge44_Node000026_Node000027"><a xlink:title=" ">
<path fill="none" stroke="#63b8ff" d="M992.11,-165.45C992.85,-158.21 993.75,-149.34 994.55,-141.44"/>
<polygon fill="#63b8ff" stroke="#63b8ff" points="998.01,-142.01 995.55,-131.71 991.05,-141.3 998.01,-142.01"/>
</a>
</g>
</g>
<!-- Node28&#45;&gt;Node8 -->
<g id="edge46_Node000028_Node000008" class="edge">
<title>Node28&#45;&gt;Node8</title>
<g id="a_edge46_Node000028_Node000008"><a xlink:title=" ">
<path fill="none" stroke="#63b8ff" d="M609.93,-171.06C610.2,-163.19 610.59,-151.45 610.94,-141.32"/>
<polygon fill="#63b8ff" stroke="#63b8ff" points="614.43,-141.78 611.27,-131.66 607.43,-141.54 614.43,-141.78"/>
</a>
</g>
</g>
<!-- Node28&#45;&gt;Node15 -->
<g id="edge47_Node000028_Node000015" class="edge">
<title>Node28&#45;&gt;Node15</title>
<g id="a_edge47_Node000028_Node000015"><a xlink:title=" ">
<path fill="none" stroke="#63b8ff" d="M624.05,-171.06C638.98,-161.81 662.56,-147.2 680.36,-136.17"/>
<polygon fill="#63b8ff" stroke="#63b8ff" points="682.12,-139.19 688.77,-130.95 678.43,-133.24 682.12,-139.19"/>
</a>
</g>
</g>
</g>
</svg>

<g id="navigator" transform="translate(0 0)" fill="#404254">
  <rect fill="#f2f5e9" fill-opacity="0.5" stroke="#606060" stroke-width=".5" x="0" y="0" width="60" height="60"/>
  <use id="zoomplus" xlink:href="#zoomPlus" x="17" y="9" onmousedown="handleZoom(evt,'in')"/>
  <use id="zoomminus" xlink:href="#zoomMin" x="42" y="9" onmousedown="handleZoom(evt,'out')"/>
  <use id="reset" xlink:href="#resetDef" x="30" y="36" onmousedown="handleReset()"/>
   <use id="arrowup" xlink:href="#arrowUp" x="0" y="0" onmousedown="handlePan(0,-1)"/>
  <use id="arrowright" xlink:href="#arrowRight" x="0" y="0" onmousedown="handlePan(1,0)"/>
  <use id="arrowdown" xlink:href="#arrowDown" x="0" y="0" onmousedown="handlePan(0,1)"/>
  <use id="arrowleft" xlink:href="#arrowLeft" x="0" y="0" onmousedown="handlePan(-1,0)"/>
</g>
<svg viewBox="0 0 15 15" width="100%" height="30px" preserveAspectRatio="xMaxYMin meet">
 <g id="arrow_out" transform="scale(0.3 0.3)">
  <a xlink:href="main_8cpp__incl_org.svg" target="_base">
   <rect id="button" ry="5" rx="5" y="6" x="6" height="38" width="38"
        fill="#f2f5e9" fill-opacity="0.5" stroke="#606060" stroke-width="1.0"/>
   <path id="arrow"
     d="M 11.500037,31.436501 C 11.940474,20.09759 22.043105,11.32322 32.158766,21.979434 L 37.068811,17.246167 C 37.068811,17.246167 37.088388,32 37.088388,32 L 22.160133,31.978069 C 22.160133,31.978069 26.997745,27.140456 26.997745,27.140456 C 18.528582,18.264221 13.291696,25.230495 11.500037,31.436501 z"
     style="fill:#404040;"/>
  </a>
 </g>
</svg>

<style type='text/css'>
<![CDATA[
[data-mouse-over-selected='false'] { opacity: 0.7; }
[data-mouse-over-selected='true']  { opacity: 1.0; }
]]>
</style>
<script type="application/ecmascript"><![CDATA[
document.addEventListener('DOMContentLoaded', (event) => {
  highlightEdges();
  highlightAdjacentNodes();
});
]]></script>
</svg>
