<?xml version="1.0" encoding="UTF-8" standalone="no"?>
<!DOCTYPE svg PUBLIC "-//W3C//DTD SVG 1.1//EN"
 "http://www.w3.org/Graphics/SVG/1.1/DTD/svg11.dtd">
<!-- Generated by graphviz version 12.2.0 (20241103.1931)
 -->
<!-- Title: src/main.cpp Pages: 1 -->
<!--zoomable 260 -->

<svg id="main" version="1.1" xmlns="http://www.w3.org/2000/svg" xmlns:xlink="http://www.w3.org/1999/xlink" xml:space="preserve" onload="init(evt)">

<style type="text/css"><![CDATA[
.node, .edge {opacity: 0.7;}
.node.selected, .edge.selected {opacity: 1;}
.edge:hover path { stroke: red; }
.edge:hover polygon { stroke: red; fill: red; }
]]></style>

<defs>
  <circle id="rim" cx="0" cy="0" r="7"/>
  <circle id="rim2" cx="0" cy="0" r="3.5"/>
  <g id="zoomPlus">
    <use xlink:href="#rim" fill="#404040"><set attributeName="fill" to="#808080" begin="zoomplus.mouseover" end="zoomplus.mouseout"/></use>
    <path d="M-4,0h8M0,-4v8" fill="none" stroke="white" stroke-width="1.5" pointer-events="none"/>
  </g>
  <g id="zoomMin">
    <use xlink:href="#rim" fill="#404040"><set attributeName="fill" to="#808080" begin="zoomminus.mouseover" end="zoomminus.mouseout"/></use>
    <path d="M-4,0h8" fill="none" stroke="white" stroke-width="1.5" pointer-events="none"/>
  </g>
  <g id="arrowUp" transform="translate(30 24)">
    <use xlink:href="#rim"/>
    <path pointer-events="none" fill="none" stroke="white" stroke-width="1.5" d="M0,-3.0v7 M-2.5,-0.5L0,-3.0L2.5,-0.5"/>
  </g>
  <g id="arrowRight" transform="rotate(90) translate(36 -43)">
    <use xlink:href="#rim"/>
    <path pointer-events="none" fill="none" stroke="white" stroke-width="1.5" d="M0,-3.0v7 M-2.5,-0.5L0,-3.0L2.5,-0.5"/>
  </g>
  <g id="arrowDown" transform="rotate(180) translate(-30 -48)">
    <use xlink:href="#rim"/>
    <path pointer-events="none" fill="none" stroke="white" stroke-width="1.5" d="M0,-3.0v7 M-2.5,-0.5L0,-3.0L2.5,-0.5"/>
  </g>
  <g id="arrowLeft" transform="rotate(270) translate(-36 17)">
    <use xlink:href="#rim"/>
    <path pointer-events="none" fill="none" stroke="white" stroke-width="1.5" d="M0,-3.0v7 M-2.5,-0.5L0,-3.0L2.5,-0.5"/>
  </g>
  <g id="resetDef">
    <use xlink:href="#rim2" fill="#404040"><set attributeName="fill" to="#808080" begin="reset.mouseover" end="reset.mouseout"/></use>
  </g>
</defs>
<script type="application/ecmascript">
var viewWidth = 1520;
var viewHeight = 260;
var sectionId = 'dynsection-0';
</script>
<script type="application/ecmascript" xlink:href="svg.min.js"/>
<svg id="graph" class="graph">
<g id="viewport">
<title>src/main.cpp</title>
<!-- Node1 -->
<g id="Node000001" class="node">
<title>Node1</title>
<g id="a_Node000001"><a xlink:title=" ">
<polygon fill="#999999" stroke="#666666" points="761.38,-251.5 689.88,-251.5 689.88,-232.25 761.38,-232.25 761.38,-251.5"/>
<text text-anchor="middle" x="725.62" y="-238" font-family="Helvetica,sans-Serif" font-size="10.00">src/main.cpp</text>
</a>
</g>
</g>
<!-- Node2 -->
<g id="Node000002" class="node">
<title>Node2</title>
<g id="a_Node000002"><a xlink:title=" ">
<polygon fill="#e0e0e0" stroke="#999999" points="859.88,-19.25 803.38,-19.25 803.38,0 859.88,0 859.88,-19.25"/>
<text text-anchor="middle" x="831.62" y="-5.75" font-family="Helvetica,sans-Serif" font-size="10.00">Arduino.h</text>
</a>
</g>
</g>
<!-- Node1&#45;&gt;Node2 -->
<g id="edge1_Node000001_Node000002" class="edge">
<title>Node1&#45;&gt;Node2</title>
<g id="a_edge1_Node000001_Node000002"><a xlink:title=" ">
<path fill="none" stroke="#63b8ff" d="M761.47,-240.7C891.43,-239.75 1332.88,-233.77 1382.62,-196.25 1407.71,-177.33 1401.21,-160.7 1406.62,-129.75 1424.27,-28.89 1289.24,-74.21 1188.62,-55.25 1074.26,-33.7 937.27,-19.88 871.16,-13.95"/>
<polygon fill="#63b8ff" stroke="#63b8ff" points="871.82,-10.5 861.55,-13.1 871.2,-17.47 871.82,-10.5"/>
</a>
</g>
</g>
<!-- Node3 -->
<g id="Node000003" class="node">
<title>Node3</title>
<g id="a_Node000003"><a xlink:title=" ">
<polygon fill="#e0e0e0" stroke="#999999" points="1511.62,-190.62 1453.62,-190.62 1453.62,-171.38 1511.62,-171.38 1511.62,-190.62"/>
<text text-anchor="middle" x="1482.62" y="-177.12" font-family="Helvetica,sans-Serif" font-size="10.00">LittleFS.h</text>
</a>
</g>
</g>
<!-- Node1&#45;&gt;Node3 -->
<g id="edge2_Node000001_Node000003" class="edge">
<title>Node1&#45;&gt;Node3</title>
<g id="a_edge2_Node000001_Node000003"><a xlink:title=" ">
<path fill="none" stroke="#63b8ff" d="M761.51,-239.85C887.26,-236.08 1307.48,-221.83 1439.62,-196.25 1442.39,-195.71 1445.23,-195.05 1448.07,-194.3"/>
<polygon fill="#63b8ff" stroke="#63b8ff" points="1448.77,-197.74 1457.36,-191.53 1446.78,-191.03 1448.77,-197.74"/>
</a>
</g>
</g>
<!-- Node4 -->
<g id="Node000004" class="node">
<title>Node4</title>
<g id="a_Node000004"><a xlink:href="AppCollection_8h.html" target="_top" xlink:title=" ">
<polygon fill="white" stroke="#666666" points="204.25,-190.62 99,-190.62 99,-171.38 204.25,-171.38 204.25,-190.62"/>
<text text-anchor="middle" x="151.62" y="-177.12" font-family="Helvetica,sans-Serif" font-size="10.00">core/AppCollection.h</text>
</a>
</g>
</g>
<!-- Node1&#45;&gt;Node4 -->
<g id="edge3_Node000001_Node000004" class="edge">
<title>Node1&#45;&gt;Node4</title>
<g id="a_edge3_Node000001_Node000004"><a xlink:title=" ">
<path fill="none" stroke="#63b8ff" d="M689.41,-239.45C605.38,-235.77 390.78,-224.19 213.62,-196.25 208.64,-195.46 203.46,-194.51 198.32,-193.46"/>
<polygon fill="#63b8ff" stroke="#63b8ff" points="199.19,-190.07 188.68,-191.39 197.72,-196.91 199.19,-190.07"/>
</a>
</g>
</g>
<!-- Node9 -->
<g id="Node000009" class="node">
<title>Node9</title>
<g id="a_Node000009"><a xlink:href="AppLauncher_8h.html" target="_top" xlink:title=" ">
<polygon fill="white" stroke="#666666" points="1054.5,-190.62 890.75,-190.62 890.75,-171.38 1054.5,-171.38 1054.5,-190.62"/>
<text text-anchor="middle" x="972.62" y="-177.12" font-family="Helvetica,sans-Serif" font-size="10.00">core/AppLauncher/AppLauncher.h</text>
</a>
</g>
</g>
<!-- Node1&#45;&gt;Node9 -->
<g id="edge8_Node000001_Node000009" class="edge">
<title>Node1&#45;&gt;Node9</title>
<g id="a_edge8_Node000001_Node000009"><a xlink:title=" ">
<path fill="none" stroke="#63b8ff" d="M761.81,-232.25C804.6,-222.05 876.05,-205.02 923.74,-193.65"/>
<polygon fill="#63b8ff" stroke="#63b8ff" points="924.34,-197.11 933.25,-191.38 922.71,-190.3 924.34,-197.11"/>
</a>
</g>
</g>
<!-- Node11 -->
<g id="Node000011" class="node">
<title>Node11</title>
<g id="a_Node000011"><a xlink:href="Settings_8h.html" target="_top" xlink:title=" ">
<polygon fill="white" stroke="#666666" points="81.25,-190.62 0,-190.62 0,-171.38 81.25,-171.38 81.25,-190.62"/>
<text text-anchor="middle" x="40.62" y="-177.12" font-family="Helvetica,sans-Serif" font-size="10.00">core/Settings.h</text>
</a>
</g>
</g>
<!-- Node1&#45;&gt;Node11 -->
<g id="edge12_Node000001_Node000011" class="edge">
<title>Node1&#45;&gt;Node11</title>
<g id="a_edge12_Node000001_Node000011"><a xlink:title=" ">
<path fill="none" stroke="#63b8ff" d="M689.43,-241.02C591.81,-240.83 315.19,-236.49 89.62,-196.25 86.2,-195.64 82.68,-194.88 79.16,-194.04"/>
<polygon fill="#63b8ff" stroke="#63b8ff" points="80.13,-190.67 69.57,-191.49 78.34,-197.44 80.13,-190.67"/>
</a>
</g>
</g>
<!-- Node13 -->
<g id="Node000013" class="node">
<title>Node13</title>
<g id="a_Node000013"><a xlink:href="SettingsApp_8h.html" target="_top" xlink:title=" ">
<polygon fill="white" stroke="#666666" points="352.62,-196.25 222.62,-196.25 222.62,-165.75 352.62,-165.75 352.62,-196.25"/>
<text text-anchor="start" x="230.62" y="-182.75" font-family="Helvetica,sans-Serif" font-size="10.00">core/SettingsApp/Settings</text>
<text text-anchor="middle" x="287.62" y="-171.5" font-family="Helvetica,sans-Serif" font-size="10.00">App.h</text>
</a>
</g>
</g>
<!-- Node1&#45;&gt;Node13 -->
<g id="edge16_Node000001_Node000013" class="edge">
<title>Node1&#45;&gt;Node13</title>
<g id="a_edge16_Node000001_Node000013"><a xlink:title=" ">
<path fill="none" stroke="#63b8ff" d="M689.6,-237.28C626.04,-230.77 489.58,-215.98 364.27,-196.6"/>
<polygon fill="#63b8ff" stroke="#63b8ff" points="364.87,-193.15 354.45,-195.06 363.79,-200.07 364.87,-193.15"/>
</a>
</g>
</g>
<!-- Node15 -->
<g id="Node000015" class="node">
<title>Node15</title>
<g id="a_Node000015"><a xlink:href="Hardware_8h.html" target="_top" xlink:title=" ">
<polygon fill="white" stroke="#666666" points="701.75,-129.75 593.5,-129.75 593.5,-110.5 701.75,-110.5 701.75,-129.75"/>
<text text-anchor="middle" x="647.62" y="-116.25" font-family="Helvetica,sans-Serif" font-size="10.00">hardware/Hardware.h</text>
</a>
</g>
</g>
<!-- Node1&#45;&gt;Node15 -->
<g id="edge21_Node000001_Node000015" class="edge">
<title>Node1&#45;&gt;Node15</title>
<g id="a_edge21_Node000001_Node000015"><a xlink:title=" ">
<path fill="none" stroke="#63b8ff" d="M689.52,-235.62C648.1,-228.77 584.04,-215.37 569.62,-196.25 561.46,-185.43 562.82,-177.48 569.62,-165.75 577.81,-151.63 592.33,-141.6 606.64,-134.67"/>
<polygon fill="#63b8ff" stroke="#63b8ff" points="607.79,-137.99 615.55,-130.77 604.98,-131.58 607.79,-137.99"/>
</a>
</g>
</g>
<!-- Node21 -->
<g id="Node000021" class="node">
<title>Node21</title>
<g id="a_Node000021"><a xlink:href="ClockApp_8h.html" target="_top" xlink:title=" ">
<polygon fill="white" stroke="#666666" points="1373.88,-190.62 1239.38,-190.62 1239.38,-171.38 1373.88,-171.38 1373.88,-190.62"/>
<text text-anchor="middle" x="1306.62" y="-177.12" font-family="Helvetica,sans-Serif" font-size="10.00">apps/ClockApp/ClockApp.h</text>
</a>
</g>
</g>
<!-- Node1&#45;&gt;Node21 -->
<g id="edge30_Node000001_Node000021" class="edge">
<title>Node1&#45;&gt;Node21</title>
<g id="a_edge30_Node000001_Node000021"><a xlink:title=" ">
<path fill="none" stroke="#63b8ff" d="M761.81,-238.85C844.8,-233.95 1055.12,-220.07 1229.62,-196.25 1236.35,-195.33 1243.38,-194.23 1250.34,-193.05"/>
<polygon fill="#63b8ff" stroke="#63b8ff" points="1250.81,-196.52 1260.06,-191.34 1249.6,-189.63 1250.81,-196.52"/>
</a>
</g>
</g>
<!-- Node25 -->
<g id="Node000025" class="node">
<title>Node25</title>
<g id="a_Node000025"><a xlink:href="GooglyEyes_8h.html" target="_top" xlink:title=" ">
<polygon fill="white" stroke="#666666" points="522.88,-190.62 370.38,-190.62 370.38,-171.38 522.88,-171.38 522.88,-190.62"/>
<text text-anchor="middle" x="446.62" y="-177.12" font-family="Helvetica,sans-Serif" font-size="10.00">apps/GooglyEyes/GooglyEyes.h</text>
</a>
</g>
</g>
<!-- Node1&#45;&gt;Node25 -->
<g id="edge36_Node000001_Node000025" class="edge">
<title>Node1&#45;&gt;Node25</title>
<g id="a_edge36_Node000001_Node000025"><a xlink:title=" ">
<path fill="none" stroke="#63b8ff" d="M689.44,-233.24C641.43,-223.11 556.3,-205.14 500.67,-193.4"/>
<polygon fill="#63b8ff" stroke="#63b8ff" points="501.6,-190.02 491.09,-191.38 500.15,-196.87 501.6,-190.02"/>
</a>
</g>
</g>
<!-- Node26 -->
<g id="Node000026" class="node">
<title>Node26</title>
<g id="a_Node000026"><a xlink:href="PomodoroApp_8h.html" target="_top" xlink:title=" ">
<polygon fill="white" stroke="#666666" points="1221,-196.25 1072.25,-196.25 1072.25,-165.75 1221,-165.75 1221,-196.25"/>
<text text-anchor="start" x="1080.25" y="-182.75" font-family="Helvetica,sans-Serif" font-size="10.00">apps/PomodoroApp/Pomodoro</text>
<text text-anchor="middle" x="1146.62" y="-171.5" font-family="Helvetica,sans-Serif" font-size="10.00">App.h</text>
</a>
</g>
</g>
<!-- Node1&#45;&gt;Node26 -->
<g id="edge39_Node000001_Node000026" class="edge">
<title>Node1&#45;&gt;Node26</title>
<g id="a_edge39_Node000001_Node000026"><a xlink:title=" ">
<path fill="none" stroke="#63b8ff" d="M761.71,-236.58C821.65,-229.34 945.82,-213.91 1060.89,-196.63"/>
<polygon fill="#63b8ff" stroke="#63b8ff" points="1061.13,-200.13 1070.49,-195.18 1060.08,-193.21 1061.13,-200.13"/>
</a>
</g>
</g>
<!-- Node28 -->
<g id="Node000028" class="node">
<title>Node28</title>
<g id="a_Node000028"><a xlink:href="MatrixApp_8h.html" target="_top" xlink:title=" ">
<polygon fill="white" stroke="#666666" points="716.38,-190.62 578.88,-190.62 578.88,-171.38 716.38,-171.38 716.38,-190.62"/>
<text text-anchor="middle" x="647.62" y="-177.12" font-family="Helvetica,sans-Serif" font-size="10.00">apps/MatrixApp/MatrixApp.h</text>
</a>
</g>
</g>
<!-- Node1&#45;&gt;Node28 -->
<g id="edge45_Node000001_Node000028" class="edge">
<title>Node1&#45;&gt;Node28</title>
<g id="a_edge45_Node000001_Node000028"><a xlink:title=" ">
<path fill="none" stroke="#63b8ff" d="M713.78,-231.93C701.75,-222.86 682.89,-208.62 668.38,-197.66"/>
<polygon fill="#63b8ff" stroke="#63b8ff" points="670.88,-195.17 660.79,-191.94 666.66,-200.76 670.88,-195.17"/>
</a>
</g>
</g>
<!-- Node29 -->
<g id="Node000029" class="node">
<title>Node29</title>
<g id="a_Node000029"><a xlink:href="CurrencyConverterApp_8h.html" target="_top" xlink:title=" ">
<polygon fill="white" stroke="#666666" points="872.38,-196.25 734.88,-196.25 734.88,-165.75 872.38,-165.75 872.38,-196.25"/>
<text text-anchor="start" x="742.88" y="-182.75" font-family="Helvetica,sans-Serif" font-size="10.00">apps/CurrencyConverterApp</text>
<text text-anchor="middle" x="803.62" y="-171.5" font-family="Helvetica,sans-Serif" font-size="10.00">/CurrencyConverterApp.h</text>
</a>
</g>
</g>
<!-- Node1&#45;&gt;Node29 -->
<g id="edge48_Node000001_Node000029" class="edge">
<title>Node1&#45;&gt;Node29</title>
<g id="a_edge48_Node000001_Node000029"><a xlink:title=" ">
<path fill="none" stroke="#63b8ff" d="M737.47,-231.93C747.49,-224.37 762.24,-213.24 775.28,-203.4"/>
<polygon fill="#63b8ff" stroke="#63b8ff" points="777.29,-206.26 783.16,-197.44 773.07,-200.67 777.29,-206.26"/>
</a>
</g>
</g>
<!-- Node5 -->
<g id="Node000005" class="node">
<title>Node5</title>
<g id="a_Node000005"><a xlink:title=" ">
<polygon fill="#e0e0e0" stroke="#999999" points="199.88,-129.75 149.38,-129.75 149.38,-110.5 199.88,-110.5 199.88,-129.75"/>
<text text-anchor="middle" x="174.62" y="-116.25" font-family="Helvetica,sans-Serif" font-size="10.00">memory</text>
</a>
</g>
</g>
<!-- Node4&#45;&gt;Node5 -->
<g id="edge4_Node000004_Node000005" class="edge">
<title>Node4&#45;&gt;Node5</title>
<g id="a_edge4_Node000004_Node000005"><a xlink:title=" ">
<path fill="none" stroke="#63b8ff" d="M155.12,-171.06C158.26,-163.02 162.98,-150.93 166.99,-140.66"/>
<polygon fill="#63b8ff" stroke="#63b8ff" points="170.17,-142.15 170.55,-131.56 163.65,-139.6 170.17,-142.15"/>
</a>
</g>
</g>
<!-- Node6 -->
<g id="Node000006" class="node">
<title>Node6</title>
<g id="a_Node000006"><a xlink:title=" ">
<polygon fill="#e0e0e0" stroke="#999999" points="131.62,-129.75 91.62,-129.75 91.62,-110.5 131.62,-110.5 131.62,-129.75"/>
<text text-anchor="middle" x="111.62" y="-116.25" font-family="Helvetica,sans-Serif" font-size="10.00">string</text>
</a>
</g>
</g>
<!-- Node4&#45;&gt;Node6 -->
<g id="edge5_Node000004_Node000006" class="edge">
<title>Node4&#45;&gt;Node6</title>
<g id="a_edge5_Node000004_Node000006"><a xlink:title=" ">
<path fill="none" stroke="#63b8ff" d="M145.55,-171.06C139.91,-162.76 131.34,-150.14 124.23,-139.67"/>
<polygon fill="#63b8ff" stroke="#63b8ff" points="127.12,-137.71 118.61,-131.4 121.33,-141.64 127.12,-137.71"/>
</a>
</g>
</g>
<!-- Node7 -->
<g id="Node000007" class="node">
<title>Node7</title>
<g id="a_Node000007"><a xlink:title=" ">
<polygon fill="#e0e0e0" stroke="#999999" points="261.12,-129.75 218.12,-129.75 218.12,-110.5 261.12,-110.5 261.12,-129.75"/>
<text text-anchor="middle" x="239.62" y="-116.25" font-family="Helvetica,sans-Serif" font-size="10.00">vector</text>
</a>
</g>
</g>
<!-- Node4&#45;&gt;Node7 -->
<g id="edge6_Node000004_Node000007" class="edge">
<title>Node4&#45;&gt;Node7</title>
<g id="a_edge6_Node000004_Node000007"><a xlink:title=" ">
<path fill="none" stroke="#63b8ff" d="M164.99,-171.06C178.69,-161.89 200.25,-147.47 216.68,-136.48"/>
<polygon fill="#63b8ff" stroke="#63b8ff" points="218.51,-139.46 224.88,-130.99 214.62,-133.64 218.51,-139.46"/>
</a>
</g>
</g>
<!-- Node8 -->
<g id="Node000008" class="node">
<title>Node8</title>
<g id="a_Node000008"><a xlink:href="App_8h.html" target="_top" xlink:title="Abstract base class for applications.">
<polygon fill="white" stroke="#666666" points="792,-129.75 751.25,-129.75 751.25,-110.5 792,-110.5 792,-129.75"/>
<text text-anchor="middle" x="771.62" y="-116.25" font-family="Helvetica,sans-Serif" font-size="10.00">App.h</text>
</a>
</g>
</g>
<!-- Node4&#45;&gt;Node8 -->
<g id="edge7_Node000004_Node000008" class="edge">
<title>Node4&#45;&gt;Node8</title>
<g id="a_edge7_Node000004_Node000008"><a xlink:title=" ">
<path fill="none" stroke="#63b8ff" d="M186.86,-170.92C195.56,-168.95 204.89,-167.06 213.62,-165.75 432.64,-132.85 490.41,-153.27 710.62,-129.75 720.05,-128.74 730.25,-127.4 739.57,-126.08"/>
<polygon fill="#63b8ff" stroke="#63b8ff" points="739.89,-129.57 749.28,-124.65 738.88,-122.64 739.89,-129.57"/>
</a>
</g>
</g>
<!-- Node9&#45;&gt;Node2 -->
<g id="edge9_Node000009_Node000002" class="edge">
<title>Node9&#45;&gt;Node2</title>
<g id="a_edge9_Node000009_Node000002"><a xlink:title=" ">
<path fill="none" stroke="#63b8ff" d="M962.81,-171.13C952.22,-161.39 935.07,-145.08 921.62,-129.75 891.85,-95.8 860.92,-52.89 844.2,-28.93"/>
<polygon fill="#63b8ff" stroke="#63b8ff" points="847.19,-27.11 838.62,-20.88 841.43,-31.09 847.19,-27.11"/>
</a>
</g>
</g>
<!-- Node9&#45;&gt;Node8 -->
<g id="edge11_Node000009_Node000008" class="edge">
<title>Node9&#45;&gt;Node8</title>
<g id="a_edge11_Node000009_Node000008"><a xlink:title=" ">
<path fill="none" stroke="#63b8ff" d="M941.66,-170.93C904.14,-159.94 841.25,-141.52 803.37,-130.42"/>
<polygon fill="#63b8ff" stroke="#63b8ff" points="804.51,-127.11 793.93,-127.66 802.54,-133.83 804.51,-127.11"/>
</a>
</g>
</g>
<!-- Node10 -->
<g id="Node000010" class="node">
<title>Node10</title>
<g id="a_Node000010"><a xlink:title=" ">
<polygon fill="#e0e0e0" stroke="#999999" points="1004.88,-129.75 930.38,-129.75 930.38,-110.5 1004.88,-110.5 1004.88,-129.75"/>
<text text-anchor="middle" x="967.62" y="-116.25" font-family="Helvetica,sans-Serif" font-size="10.00">eSPI_Menu.h</text>
</a>
</g>
</g>
<!-- Node9&#45;&gt;Node10 -->
<g id="edge10_Node000009_Node000010" class="edge">
<title>Node9&#45;&gt;Node10</title>
<g id="a_edge10_Node000009_Node000010"><a xlink:title=" ">
<path fill="none" stroke="#63b8ff" d="M971.87,-171.06C971.2,-163.19 970.2,-151.45 969.34,-141.32"/>
<polygon fill="#63b8ff" stroke="#63b8ff" points="972.85,-141.33 968.52,-131.66 965.88,-141.92 972.85,-141.33"/>
</a>
</g>
</g>
<!-- Node11&#45;&gt;Node2 -->
<g id="edge13_Node000011_Node000002" class="edge">
<title>Node11&#45;&gt;Node2</title>
<g id="a_edge13_Node000011_Node000002"><a xlink:title=" ">
<path fill="none" stroke="#63b8ff" d="M43.26,-170.99C48.23,-155.75 60.52,-125.12 82.62,-110.5 142.42,-70.95 646.15,-26.13 792.13,-13.87"/>
<polygon fill="#63b8ff" stroke="#63b8ff" points="792,-17.39 801.68,-13.07 791.42,-10.42 792,-17.39"/>
</a>
</g>
</g>
<!-- Node11&#45;&gt;Node6 -->
<g id="edge15_Node000011_Node000006" class="edge">
<title>Node11&#45;&gt;Node6</title>
<g id="a_edge15_Node000011_Node000006"><a xlink:title=" ">
<path fill="none" stroke="#63b8ff" d="M51.41,-171.06C62.15,-162.15 78.88,-148.28 91.98,-137.42"/>
<polygon fill="#63b8ff" stroke="#63b8ff" points="94.11,-140.19 99.58,-131.12 89.64,-134.81 94.11,-140.19"/>
</a>
</g>
</g>
<!-- Node12 -->
<g id="Node000012" class="node">
<title>Node12</title>
<g id="a_Node000012"><a xlink:title=" ">
<polygon fill="#e0e0e0" stroke="#999999" points="36,-129.75 1.25,-129.75 1.25,-110.5 36,-110.5 36,-129.75"/>
<text text-anchor="middle" x="18.62" y="-116.25" font-family="Helvetica,sans-Serif" font-size="10.00">map</text>
</a>
</g>
</g>
<!-- Node11&#45;&gt;Node12 -->
<g id="edge14_Node000011_Node000012" class="edge">
<title>Node11&#45;&gt;Node12</title>
<g id="a_edge14_Node000011_Node000012"><a xlink:title=" ">
<path fill="none" stroke="#63b8ff" d="M37.28,-171.06C34.28,-163.02 29.76,-150.93 25.92,-140.66"/>
<polygon fill="#63b8ff" stroke="#63b8ff" points="29.31,-139.71 22.53,-131.57 22.75,-142.16 29.31,-139.71"/>
</a>
</g>
</g>
<!-- Node13&#45;&gt;Node5 -->
<g id="edge19_Node000013_Node000005" class="edge">
<title>Node13&#45;&gt;Node5</title>
<g id="a_edge19_Node000013_Node000005"><a xlink:title=" ">
<path fill="none" stroke="#63b8ff" d="M259.4,-165.3C241.86,-156.16 219.42,-144.47 202.04,-135.41"/>
<polygon fill="#63b8ff" stroke="#63b8ff" points="203.78,-132.37 193.3,-130.85 200.55,-138.58 203.78,-132.37"/>
</a>
</g>
</g>
<!-- Node13&#45;&gt;Node7 -->
<g id="edge18_Node000013_Node000007" class="edge">
<title>Node13&#45;&gt;Node7</title>
<g id="a_edge18_Node000013_Node000007"><a xlink:title=" ">
<path fill="none" stroke="#63b8ff" d="M275.76,-165.45C269.22,-157.43 261.06,-147.42 254.15,-138.94"/>
<polygon fill="#63b8ff" stroke="#63b8ff" points="257.01,-136.91 247.98,-131.37 251.59,-141.34 257.01,-136.91"/>
</a>
</g>
</g>
<!-- Node13&#45;&gt;Node8 -->
<g id="edge20_Node000013_Node000008" class="edge">
<title>Node13&#45;&gt;Node8</title>
<g id="a_edge20_Node000013_Node000008"><a xlink:title=" ">
<path fill="none" stroke="#63b8ff" d="M352.94,-167.1C355.87,-166.62 358.78,-166.17 361.62,-165.75 515.89,-142.99 555.84,-148.67 710.62,-129.75 720.03,-128.6 730.23,-127.21 739.55,-125.89"/>
<polygon fill="#63b8ff" stroke="#63b8ff" points="739.86,-129.38 749.26,-124.49 738.86,-122.45 739.86,-129.38"/>
</a>
</g>
</g>
<!-- Node14 -->
<g id="Node000014" class="node">
<title>Node14</title>
<g id="a_Node000014"><a xlink:title=" ">
<polygon fill="#e0e0e0" stroke="#999999" points="359.88,-129.75 279.38,-129.75 279.38,-110.5 359.88,-110.5 359.88,-129.75"/>
<text text-anchor="middle" x="319.62" y="-116.25" font-family="Helvetica,sans-Serif" font-size="10.00">WiFiManager.h</text>
</a>
</g>
</g>
<!-- Node13&#45;&gt;Node14 -->
<g id="edge17_Node000013_Node000014" class="edge">
<title>Node13&#45;&gt;Node14</title>
<g id="a_edge17_Node000013_Node000014"><a xlink:title=" ">
<path fill="none" stroke="#63b8ff" d="M295.54,-165.45C299.66,-157.86 304.75,-148.49 309.19,-140.32"/>
<polygon fill="#63b8ff" stroke="#63b8ff" points="312.27,-141.99 313.97,-131.53 306.12,-138.65 312.27,-141.99"/>
</a>
</g>
</g>
<!-- Node15&#45;&gt;Node2 -->
<g id="edge22_Node000015_Node000002" class="edge">
<title>Node15&#45;&gt;Node2</title>
<g id="a_edge22_Node000015_Node000002"><a xlink:title=" ">
<path fill="none" stroke="#63b8ff" d="M702.01,-112.24C731.57,-106.25 767.35,-95.12 793.62,-74.5 808.22,-63.05 818.4,-44.32 824.53,-30.09"/>
<polygon fill="#63b8ff" stroke="#63b8ff" points="827.75,-31.46 828.17,-20.87 821.24,-28.88 827.75,-31.46"/>
</a>
</g>
</g>
<!-- Node16 -->
<g id="Node000016" class="node">
<title>Node16</title>
<g id="a_Node000016"><a xlink:href="Button_2Button_8h.html" target="_top" xlink:title=" ">
<polygon fill="white" stroke="#666666" points="584.38,-74.5 500.88,-74.5 500.88,-55.25 584.38,-55.25 584.38,-74.5"/>
<text text-anchor="middle" x="542.62" y="-61" font-family="Helvetica,sans-Serif" font-size="10.00">Button/Button.h</text>
</a>
</g>
</g>
<!-- Node15&#45;&gt;Node16 -->
<g id="edge23_Node000015_Node000016" class="edge">
<title>Node15&#45;&gt;Node16</title>
<g id="a_edge23_Node000015_Node000016"><a xlink:title=" ">
<path fill="none" stroke="#63b8ff" d="M629.81,-110.09C613.6,-101.87 589.39,-89.59 570.59,-80.06"/>
<polygon fill="#63b8ff" stroke="#63b8ff" points="572.38,-77.04 561.87,-75.64 569.21,-83.28 572.38,-77.04"/>
</a>
</g>
</g>
<!-- Node18 -->
<g id="Node000018" class="node">
<title>Node18</title>
<g id="a_Node000018"><a xlink:href="Display_8h.html" target="_top" xlink:title=" ">
<polygon fill="white" stroke="#666666" points="692.38,-74.5 602.88,-74.5 602.88,-55.25 692.38,-55.25 692.38,-74.5"/>
<text text-anchor="middle" x="647.62" y="-61" font-family="Helvetica,sans-Serif" font-size="10.00">Display/Display.h</text>
</a>
</g>
</g>
<!-- Node15&#45;&gt;Node18 -->
<g id="edge25_Node000015_Node000018" class="edge">
<title>Node15&#45;&gt;Node18</title>
<g id="a_edge25_Node000015_Node000018"><a xlink:title=" ">
<path fill="none" stroke="#63b8ff" d="M647.62,-110.33C647.62,-103.82 647.62,-94.67 647.62,-86.37"/>
<polygon fill="#63b8ff" stroke="#63b8ff" points="651.13,-86.37 647.63,-76.37 644.13,-86.37 651.13,-86.37"/>
</a>
</g>
</g>
<!-- Node20 -->
<g id="Node000020" class="node">
<title>Node20</title>
<g id="a_Node000020"><a xlink:href="Piezo_8h.html" target="_top" xlink:title=" ">
<polygon fill="white" stroke="#666666" points="784.88,-74.5 710.38,-74.5 710.38,-55.25 784.88,-55.25 784.88,-74.5"/>
<text text-anchor="middle" x="747.62" y="-61" font-family="Helvetica,sans-Serif" font-size="10.00">Piezo/Piezo.h</text>
</a>
</g>
</g>
<!-- Node15&#45;&gt;Node20 -->
<g id="edge28_Node000015_Node000020" class="edge">
<title>Node15&#45;&gt;Node20</title>
<g id="a_edge28_Node000015_Node000020"><a xlink:title=" ">
<path fill="none" stroke="#63b8ff" d="M664.59,-110.09C679.89,-101.94 702.66,-89.82 720.49,-80.33"/>
<polygon fill="#63b8ff" stroke="#63b8ff" points="722.06,-83.45 729.24,-75.66 718.77,-77.27 722.06,-83.45"/>
</a>
</g>
</g>
<!-- Node17 -->
<g id="Node000017" class="node">
<title>Node17</title>
<g id="a_Node000017"><a xlink:title=" ">
<polygon fill="#e0e0e0" stroke="#999999" points="577.62,-19.25 507.62,-19.25 507.62,0 577.62,0 577.62,-19.25"/>
<text text-anchor="middle" x="542.62" y="-5.75" font-family="Helvetica,sans-Serif" font-size="10.00">OneButton.h</text>
</a>
</g>
</g>
<!-- Node16&#45;&gt;Node17 -->
<g id="edge24_Node000016_Node000017" class="edge">
<title>Node16&#45;&gt;Node17</title>
<g id="a_edge24_Node000016_Node000017"><a xlink:title=" ">
<path fill="none" stroke="#63b8ff" d="M542.62,-55.08C542.62,-48.57 542.62,-39.42 542.62,-31.12"/>
<polygon fill="#63b8ff" stroke="#63b8ff" points="546.13,-31.12 542.63,-21.12 539.13,-31.12 546.13,-31.12"/>
</a>
</g>
</g>
<!-- Node18&#45;&gt;Node2 -->
<g id="edge26_Node000018_Node000002" class="edge">
<title>Node18&#45;&gt;Node2</title>
<g id="a_edge26_Node000018_Node000002"><a xlink:title=" ">
<path fill="none" stroke="#63b8ff" d="M678.84,-54.84C710.07,-45.8 758.21,-31.87 792.09,-22.07"/>
<polygon fill="#63b8ff" stroke="#63b8ff" points="792.9,-25.48 801.53,-19.33 790.95,-18.75 792.9,-25.48"/>
</a>
</g>
</g>
<!-- Node19 -->
<g id="Node000019" class="node">
<title>Node19</title>
<g id="a_Node000019"><a xlink:title=" ">
<polygon fill="#e0e0e0" stroke="#999999" points="681.88,-19.25 613.38,-19.25 613.38,0 681.88,0 681.88,-19.25"/>
<text text-anchor="middle" x="647.62" y="-5.75" font-family="Helvetica,sans-Serif" font-size="10.00">TFT_eSPI.h</text>
</a>
</g>
</g>
<!-- Node18&#45;&gt;Node19 -->
<g id="edge27_Node000018_Node000019" class="edge">
<title>Node18&#45;&gt;Node19</title>
<g id="a_edge27_Node000018_Node000019"><a xlink:title=" ">
<path fill="none" stroke="#63b8ff" d="M647.62,-55.08C647.62,-48.57 647.62,-39.42 647.62,-31.12"/>
<polygon fill="#63b8ff" stroke="#63b8ff" points="651.13,-31.12 647.63,-21.12 644.13,-31.12 651.13,-31.12"/>
</a>
</g>
</g>
<!-- Node20&#45;&gt;Node2 -->
<g id="edge29_Node000020_Node000002" class="edge">
<title>Node20&#45;&gt;Node2</title>
<g id="a_edge29_Node000020_Node000002"><a xlink:title=" ">
<path fill="none" stroke="#63b8ff" d="M761.87,-54.84C774.42,-46.89 792.96,-35.14 807.77,-25.75"/>
<polygon fill="#63b8ff" stroke="#63b8ff" points="809.46,-28.82 816.03,-20.51 805.71,-22.91 809.46,-28.82"/>
</a>
</g>
</g>
<!-- Node21&#45;&gt;Node2 -->
<g id="edge31_Node000021_Node000002" class="edge">
<title>Node21&#45;&gt;Node2</title>
<g id="a_edge31_Node000021_Node000002"><a xlink:title=" ">
<path fill="none" stroke="#63b8ff" d="M1306.24,-171.27C1305.08,-156.47 1300.54,-126.47 1282.62,-110.5 1221.36,-55.88 969.76,-24.76 871.35,-14.47"/>
<polygon fill="#63b8ff" stroke="#63b8ff" points="871.94,-11.01 861.63,-13.48 871.22,-17.98 871.94,-11.01"/>
</a>
</g>
</g>
<!-- Node21&#45;&gt;Node8 -->
<g id="edge35_Node000021_Node000008" class="edge">
<title>Node21&#45;&gt;Node8</title>
<g id="a_edge35_Node000021_Node000008"><a xlink:title=" ">
<path fill="none" stroke="#63b8ff" d="M1261.13,-170.91C1250.8,-169.03 1239.86,-167.19 1229.62,-165.75 1070.39,-143.3 878.4,-128.56 803.62,-123.29"/>
<polygon fill="#63b8ff" stroke="#63b8ff" points="803.97,-119.81 793.75,-122.6 803.48,-126.79 803.97,-119.81"/>
</a>
</g>
</g>
<!-- Node22 -->
<g id="Node000022" class="node">
<title>Node22</title>
<g id="a_Node000022"><a xlink:title=" ">
<polygon fill="#e0e0e0" stroke="#999999" points="1194.38,-129.75 1134.88,-129.75 1134.88,-110.5 1194.38,-110.5 1194.38,-129.75"/>
<text text-anchor="middle" x="1164.62" y="-116.25" font-family="Helvetica,sans-Serif" font-size="10.00">DigiFont.h</text>
</a>
</g>
</g>
<!-- Node21&#45;&gt;Node22 -->
<g id="edge32_Node000021_Node000022" class="edge">
<title>Node21&#45;&gt;Node22</title>
<g id="a_edge32_Node000021_Node000022"><a xlink:title=" ">
<path fill="none" stroke="#63b8ff" d="M1284.75,-170.93C1261.23,-161.18 1223.6,-145.58 1196.72,-134.43"/>
<polygon fill="#63b8ff" stroke="#63b8ff" points="1198.27,-131.29 1187.69,-130.69 1195.59,-137.75 1198.27,-131.29"/>
</a>
</g>
</g>
<!-- Node23 -->
<g id="Node000023" class="node">
<title>Node23</title>
<g id="a_Node000023"><a xlink:title=" ">
<polygon fill="#e0e0e0" stroke="#999999" points="1397.88,-129.75 1329.38,-129.75 1329.38,-110.5 1397.88,-110.5 1397.88,-129.75"/>
<text text-anchor="middle" x="1363.62" y="-116.25" font-family="Helvetica,sans-Serif" font-size="10.00">NTPClient.h</text>
</a>
</g>
</g>
<!-- Node21&#45;&gt;Node23 -->
<g id="edge33_Node000021_Node000023" class="edge">
<title>Node21&#45;&gt;Node23</title>
<g id="a_edge33_Node000021_Node000023"><a xlink:title=" ">
<path fill="none" stroke="#63b8ff" d="M1315.28,-171.06C1323.65,-162.41 1336.55,-149.09 1346.93,-138.37"/>
<polygon fill="#63b8ff" stroke="#63b8ff" points="1349.39,-140.86 1353.83,-131.24 1344.36,-135.99 1349.39,-140.86"/>
</a>
</g>
</g>
<!-- Node24 -->
<g id="Node000024" class="node">
<title>Node24</title>
<g id="a_Node000024"><a xlink:title=" ">
<polygon fill="#e0e0e0" stroke="#999999" points="1273.12,-129.75 1212.12,-129.75 1212.12,-110.5 1273.12,-110.5 1273.12,-129.75"/>
<text text-anchor="middle" x="1242.62" y="-116.25" font-family="Helvetica,sans-Serif" font-size="10.00">WiFiUdp.h</text>
</a>
</g>
</g>
<!-- Node21&#45;&gt;Node24 -->
<g id="edge34_Node000021_Node000024" class="edge">
<title>Node21&#45;&gt;Node24</title>
<g id="a_edge34_Node000021_Node000024"><a xlink:title=" ">
<path fill="none" stroke="#63b8ff" d="M1296.9,-171.06C1287.32,-162.24 1272.44,-148.55 1260.68,-137.73"/>
<polygon fill="#63b8ff" stroke="#63b8ff" points="1263.28,-135.37 1253.55,-131.18 1258.54,-140.52 1263.28,-135.37"/>
</a>
</g>
</g>
<!-- Node25&#45;&gt;Node2 -->
<g id="edge37_Node000025_Node000002" class="edge">
<title>Node25&#45;&gt;Node2</title>
<g id="a_edge37_Node000025_Node000002"><a xlink:title=" ">
<path fill="none" stroke="#63b8ff" d="M446.88,-170.99C448.05,-147.64 454.67,-84.98 491.62,-55.25 514.67,-36.71 706.75,-20.07 791.6,-13.55"/>
<polygon fill="#63b8ff" stroke="#63b8ff" points="791.86,-17.04 801.56,-12.79 791.33,-10.06 791.86,-17.04"/>
</a>
</g>
</g>
<!-- Node25&#45;&gt;Node8 -->
<g id="edge38_Node000025_Node000008" class="edge">
<title>Node25&#45;&gt;Node8</title>
<g id="a_edge38_Node000025_Node000008"><a xlink:title=" ">
<path fill="none" stroke="#63b8ff" d="M496.69,-170.93C564.35,-158.67 683.01,-137.18 739.71,-126.91"/>
<polygon fill="#63b8ff" stroke="#63b8ff" points="740.12,-130.39 749.33,-125.16 738.87,-123.5 740.12,-130.39"/>
</a>
</g>
</g>
<!-- Node26&#45;&gt;Node2 -->
<g id="edge40_Node000026_Node000002" class="edge">
<title>Node26&#45;&gt;Node2</title>
<g id="a_edge40_Node000026_Node000002"><a xlink:title=" ">
<path fill="none" stroke="#63b8ff" d="M1118.74,-165.34C1099.78,-155.35 1074.16,-141.81 1051.62,-129.75 981.67,-92.31 899.53,-47.65 858.21,-25.13"/>
<polygon fill="#63b8ff" stroke="#63b8ff" points="859.94,-22.08 849.48,-20.37 856.59,-28.23 859.94,-22.08"/>
</a>
</g>
</g>
<!-- Node26&#45;&gt;Node8 -->
<g id="edge43_Node000026_Node000008" class="edge">
<title>Node26&#45;&gt;Node8</title>
<g id="a_edge43_Node000026_Node000008"><a xlink:title=" ">
<path fill="none" stroke="#63b8ff" d="M1071.98,-167.12C1069.16,-166.65 1066.37,-166.19 1063.62,-165.75 969.03,-150.4 856.95,-133.68 803.31,-125.77"/>
<polygon fill="#63b8ff" stroke="#63b8ff" points="804.08,-122.35 793.68,-124.35 803.06,-129.27 804.08,-122.35"/>
</a>
</g>
</g>
<!-- Node26&#45;&gt;Node10 -->
<g id="edge42_Node000026_Node000010" class="edge">
<title>Node26&#45;&gt;Node10</title>
<g id="a_edge42_Node000026_Node000010"><a xlink:title=" ">
<path fill="none" stroke="#63b8ff" d="M1101.92,-165.3C1072.39,-155.58 1034.1,-142.99 1005.96,-133.73"/>
<polygon fill="#63b8ff" stroke="#63b8ff" points="1007.37,-130.51 996.78,-130.71 1005.18,-137.16 1007.37,-130.51"/>
</a>
</g>
</g>
<!-- Node26&#45;&gt;Node22 -->
<g id="edge41_Node000026_Node000022" class="edge">
<title>Node26&#45;&gt;Node22</title>
<g id="a_edge41_Node000026_Node000022"><a xlink:title=" ">
<path fill="none" stroke="#63b8ff" d="M1151.07,-165.45C1153.31,-158.12 1156.06,-149.12 1158.5,-141.16"/>
<polygon fill="#63b8ff" stroke="#63b8ff" points="1161.83,-142.24 1161.41,-131.65 1155.14,-140.19 1161.83,-142.24"/>
</a>
</g>
</g>
<!-- Node27 -->
<g id="Node000027" class="node">
<title>Node27</title>
<g id="a_Node000027"><a xlink:title=" ">
<polygon fill="#e0e0e0" stroke="#999999" points="1116.88,-129.75 1060.38,-129.75 1060.38,-110.5 1116.88,-110.5 1116.88,-129.75"/>
<text text-anchor="middle" x="1088.62" y="-116.25" font-family="Helvetica,sans-Serif" font-size="10.00">ctTimer.h</text>
</a>
</g>
</g>
<!-- Node26&#45;&gt;Node27 -->
<g id="edge44_Node000026_Node000027" class="edge">
<title>Node26&#45;&gt;Node27</title>
<g id="a_edge44_Node000026_Node000027"><a xlink:title=" ">
<path fill="none" stroke="#63b8ff" d="M1132.29,-165.45C1124.22,-157.26 1114.1,-146.98 1105.63,-138.39"/>
<polygon fill="#63b8ff" stroke="#63b8ff" points="1108.14,-135.95 1098.63,-131.28 1103.15,-140.86 1108.14,-135.95"/>
</a>
</g>
</g>
<!-- Node28&#45;&gt;Node8 -->
<g id="edge46_Node000028_Node000008" class="edge">
<title>Node28&#45;&gt;Node8</title>
<g id="a_edge46_Node000028_Node000008"><a xlink:title=" ">
<path fill="none" stroke="#63b8ff" d="M666.73,-170.93C686.9,-161.35 718.96,-146.13 742.34,-135.03"/>
<polygon fill="#63b8ff" stroke="#63b8ff" points="743.8,-138.21 751.34,-130.76 740.8,-131.89 743.8,-138.21"/>
</a>
</g>
</g>
<!-- Node28&#45;&gt;Node15 -->
<g id="edge47_Node000028_Node000015" class="edge">
<title>Node28&#45;&gt;Node15</title>
<g id="a_edge47_Node000028_Node000015"><a xlink:title=" ">
<path fill="none" stroke="#63b8ff" d="M647.62,-171.06C647.62,-163.28 647.62,-151.7 647.62,-141.66"/>
<polygon fill="#63b8ff" stroke="#63b8ff" points="651.13,-141.66 647.63,-131.66 644.13,-141.66 651.13,-141.66"/>
</a>
</g>
</g>
<!-- Node29&#45;&gt;Node2 -->
<g id="edge49_Node000029_Node000002" class="edge">
<title>Node29&#45;&gt;Node2</title>
<g id="a_edge49_Node000029_Node000002"><a xlink:title=" ">
<path fill="none" stroke="#63b8ff" d="M806.06,-165.27C811.09,-134.87 822.6,-65.19 828.3,-30.71"/>
<polygon fill="#63b8ff" stroke="#63b8ff" points="831.69,-31.67 829.87,-21.23 824.79,-30.52 831.69,-31.67"/>
</a>
</g>
</g>
<!-- Node29&#45;&gt;Node8 -->
<g id="edge50_Node000029_Node000008" class="edge">
<title>Node29&#45;&gt;Node8</title>
<g id="a_edge50_Node000029_Node000008"><a xlink:title=" ">
<path fill="none" stroke="#63b8ff" d="M795.71,-165.45C791.59,-157.86 786.5,-148.49 782.06,-140.32"/>
<polygon fill="#63b8ff" stroke="#63b8ff" points="785.13,-138.65 777.28,-131.53 778.98,-141.99 785.13,-138.65"/>
</a>
</g>
</g>
</g>
</svg>

<g id="navigator" transform="translate(0 0)" fill="#404254">
  <rect fill="#f2f5e9" fill-opacity="0.5" stroke="#606060" stroke-width=".5" x="0" y="0" width="60" height="60"/>
  <use id="zoomplus" xlink:href="#zoomPlus" x="17" y="9" onmousedown="handleZoom(evt,'in')"/>
  <use id="zoomminus" xlink:href="#zoomMin" x="42" y="9" onmousedown="handleZoom(evt,'out')"/>
  <use id="reset" xlink:href="#resetDef" x="30" y="36" onmousedown="handleReset()"/>
   <use id="arrowup" xlink:href="#arrowUp" x="0" y="0" onmousedown="handlePan(0,-1)"/>
  <use id="arrowright" xlink:href="#arrowRight" x="0" y="0" onmousedown="handlePan(1,0)"/>
  <use id="arrowdown" xlink:href="#arrowDown" x="0" y="0" onmousedown="handlePan(0,1)"/>
  <use id="arrowleft" xlink:href="#arrowLeft" x="0" y="0" onmousedown="handlePan(-1,0)"/>
</g>
<svg viewBox="0 0 15 15" width="100%" height="30px" preserveAspectRatio="xMaxYMin meet">
 <g id="arrow_out" transform="scale(0.3 0.3)">
  <a xlink:href="main_8cpp__incl_org.svg" target="_base">
   <rect id="button" ry="5" rx="5" y="6" x="6" height="38" width="38"
        fill="#f2f5e9" fill-opacity="0.5" stroke="#606060" stroke-width="1.0"/>
   <path id="arrow"
     d="M 11.500037,31.436501 C 11.940474,20.09759 22.043105,11.32322 32.158766,21.979434 L 37.068811,17.246167 C 37.068811,17.246167 37.088388,32 37.088388,32 L 22.160133,31.978069 C 22.160133,31.978069 26.997745,27.140456 26.997745,27.140456 C 18.528582,18.264221 13.291696,25.230495 11.500037,31.436501 z"
     style="fill:#404040;"/>
  </a>
 </g>
</svg>

<style type='text/css'>
<![CDATA[
[data-mouse-over-selected='false'] { opacity: 0.7; }
[data-mouse-over-selected='true']  { opacity: 1.0; }
]]>
</style>
<script type="application/ecmascript"><![CDATA[
document.addEventListener('DOMContentLoaded', (event) => {
  highlightEdges();
  highlightAdjacentNodes();
});
]]></script>
</svg>
