<?xml version="1.0" encoding="UTF-8" standalone="no"?>
<!DOCTYPE svg PUBLIC "-//W3C//DTD SVG 1.1//EN"
 "http://www.w3.org/Graphics/SVG/1.1/DTD/svg11.dtd">
<!-- Generated by graphviz version 12.2.0 (20241103.1931)
 -->
<!-- Title: src/apps/MatrixApp/MatrixApp.h Pages: 1 -->
<svg width="330pt" height="204pt"
 viewBox="0.00 0.00 329.50 204.25" xmlns="http://www.w3.org/2000/svg" xmlns:xlink="http://www.w3.org/1999/xlink">
<g id="graph0" class="graph" transform="scale(1 1) rotate(0) translate(4 200.25)">
<title>src/apps/MatrixApp/MatrixApp.h</title>
<!-- Node1 -->
<g id="Node000001" class="node">
<title>Node1</title>
<g id="a_Node000001"><a xlink:title=" ">
<polygon fill="#999999" stroke="#666666" points="142.75,-196.25 42.75,-196.25 42.75,-165.75 142.75,-165.75 142.75,-196.25"/>
<text text-anchor="start" x="50.75" y="-182.75" font-family="Helvetica,sans-Serif" font-size="10.00">src/apps/MatrixApp</text>
<text text-anchor="middle" x="92.75" y="-171.5" font-family="Helvetica,sans-Serif" font-size="10.00">/MatrixApp.h</text>
</a>
</g>
</g>
<!-- Node2 -->
<g id="Node000002" class="node">
<title>Node2</title>
<g id="a_Node000002"><a xlink:href="App_8h.html" target="_top" xlink:title="Abstract base class for applications.">
<polygon fill="white" stroke="#666666" points="73,-129.75 10.5,-129.75 10.5,-110.5 73,-110.5 73,-129.75"/>
<text text-anchor="middle" x="41.75" y="-116.25" font-family="Helvetica,sans-Serif" font-size="10.00">core/App.h</text>
</a>
</g>
</g>
<!-- Node1&#45;&gt;Node2 -->
<g id="edge1_Node000001_Node000002" class="edge">
<title>Node1&#45;&gt;Node2</title>
<g id="a_edge1_Node000001_Node000002"><a xlink:title=" ">
<path fill="none" stroke="#63b8ff" d="M80.14,-165.45C73.12,-157.34 64.34,-147.2 56.94,-138.66"/>
<polygon fill="#63b8ff" stroke="#63b8ff" points="59.8,-136.61 50.6,-131.35 54.51,-141.2 59.8,-136.61"/>
</a>
</g>
</g>
<!-- Node3 -->
<g id="Node000003" class="node">
<title>Node3</title>
<g id="a_Node000003"><a xlink:href="Hardware_8h.html" target="_top" xlink:title=" ">
<polygon fill="white" stroke="#666666" points="198.88,-129.75 90.62,-129.75 90.62,-110.5 198.88,-110.5 198.88,-129.75"/>
<text text-anchor="middle" x="144.75" y="-116.25" font-family="Helvetica,sans-Serif" font-size="10.00">hardware/Hardware.h</text>
</a>
</g>
</g>
<!-- Node1&#45;&gt;Node3 -->
<g id="edge2_Node000001_Node000003" class="edge">
<title>Node1&#45;&gt;Node3</title>
<g id="a_edge2_Node000001_Node000003"><a xlink:title=" ">
<path fill="none" stroke="#63b8ff" d="M105.6,-165.45C112.76,-157.34 121.72,-147.2 129.26,-138.66"/>
<polygon fill="#63b8ff" stroke="#63b8ff" points="131.74,-141.15 135.73,-131.34 126.49,-136.51 131.74,-141.15"/>
</a>
</g>
</g>
<!-- Node4 -->
<g id="Node000004" class="node">
<title>Node4</title>
<g id="a_Node000004"><a xlink:title=" ">
<polygon fill="#e0e0e0" stroke="#999999" points="205,-19.25 148.5,-19.25 148.5,0 205,0 205,-19.25"/>
<text text-anchor="middle" x="176.75" y="-5.75" font-family="Helvetica,sans-Serif" font-size="10.00">Arduino.h</text>
</a>
</g>
</g>
<!-- Node3&#45;&gt;Node4 -->
<g id="edge3_Node000003_Node000004" class="edge">
<title>Node3&#45;&gt;Node4</title>
<g id="a_edge3_Node000003_Node000004"><a xlink:title=" ">
<path fill="none" stroke="#63b8ff" d="M139.45,-110.13C132.72,-97.47 122.88,-73.86 130.75,-55.25 135.51,-43.99 144.66,-34.18 153.55,-26.65"/>
<polygon fill="#63b8ff" stroke="#63b8ff" points="155.59,-29.49 161.33,-20.58 151.29,-23.97 155.59,-29.49"/>
</a>
</g>
</g>
<!-- Node5 -->
<g id="Node000005" class="node">
<title>Node5</title>
<g id="a_Node000005"><a xlink:href="Button_2Button_8h.html" target="_top" xlink:title=" ">
<polygon fill="white" stroke="#666666" points="83.5,-74.5 0,-74.5 0,-55.25 83.5,-55.25 83.5,-74.5"/>
<text text-anchor="middle" x="41.75" y="-61" font-family="Helvetica,sans-Serif" font-size="10.00">Button/Button.h</text>
</a>
</g>
</g>
<!-- Node3&#45;&gt;Node5 -->
<g id="edge4_Node000003_Node000005" class="edge">
<title>Node3&#45;&gt;Node5</title>
<g id="a_edge4_Node000003_Node000005"><a xlink:title=" ">
<path fill="none" stroke="#63b8ff" d="M127.28,-110.09C111.44,-101.91 87.84,-89.71 69.44,-80.19"/>
<polygon fill="#63b8ff" stroke="#63b8ff" points="71.14,-77.13 60.65,-75.65 67.93,-83.35 71.14,-77.13"/>
</a>
</g>
</g>
<!-- Node7 -->
<g id="Node000007" class="node">
<title>Node7</title>
<g id="a_Node000007"><a xlink:href="Display_8h.html" target="_top" xlink:title=" ">
<polygon fill="white" stroke="#666666" points="321.5,-74.5 232,-74.5 232,-55.25 321.5,-55.25 321.5,-74.5"/>
<text text-anchor="middle" x="276.75" y="-61" font-family="Helvetica,sans-Serif" font-size="10.00">Display/Display.h</text>
</a>
</g>
</g>
<!-- Node3&#45;&gt;Node7 -->
<g id="edge6_Node000003_Node000007" class="edge">
<title>Node3&#45;&gt;Node7</title>
<g id="a_edge6_Node000003_Node000007"><a xlink:title=" ">
<path fill="none" stroke="#63b8ff" d="M167.14,-110.09C188.19,-101.6 219.95,-88.79 243.87,-79.14"/>
<polygon fill="#63b8ff" stroke="#63b8ff" points="244.88,-82.51 252.84,-75.52 242.26,-76.01 244.88,-82.51"/>
</a>
</g>
</g>
<!-- Node9 -->
<g id="Node000009" class="node">
<title>Node9</title>
<g id="a_Node000009"><a xlink:href="Piezo_8h.html" target="_top" xlink:title=" ">
<polygon fill="white" stroke="#666666" points="214,-74.5 139.5,-74.5 139.5,-55.25 214,-55.25 214,-74.5"/>
<text text-anchor="middle" x="176.75" y="-61" font-family="Helvetica,sans-Serif" font-size="10.00">Piezo/Piezo.h</text>
</a>
</g>
</g>
<!-- Node3&#45;&gt;Node9 -->
<g id="edge9_Node000003_Node000009" class="edge">
<title>Node3&#45;&gt;Node9</title>
<g id="a_edge9_Node000003_Node000009"><a xlink:title=" ">
<path fill="none" stroke="#63b8ff" d="M150.03,-110.33C154.22,-103.36 160.23,-93.37 165.48,-84.62"/>
<polygon fill="#63b8ff" stroke="#63b8ff" points="168.42,-86.53 170.57,-76.16 162.42,-82.93 168.42,-86.53"/>
</a>
</g>
</g>
<!-- Node6 -->
<g id="Node000006" class="node">
<title>Node6</title>
<g id="a_Node000006"><a xlink:title=" ">
<polygon fill="#e0e0e0" stroke="#999999" points="76.75,-19.25 6.75,-19.25 6.75,0 76.75,0 76.75,-19.25"/>
<text text-anchor="middle" x="41.75" y="-5.75" font-family="Helvetica,sans-Serif" font-size="10.00">OneButton.h</text>
</a>
</g>
</g>
<!-- Node5&#45;&gt;Node6 -->
<g id="edge5_Node000005_Node000006" class="edge">
<title>Node5&#45;&gt;Node6</title>
<g id="a_edge5_Node000005_Node000006"><a xlink:title=" ">
<path fill="none" stroke="#63b8ff" d="M41.75,-55.08C41.75,-48.57 41.75,-39.42 41.75,-31.12"/>
<polygon fill="#63b8ff" stroke="#63b8ff" points="45.25,-31.12 41.75,-21.12 38.25,-31.12 45.25,-31.12"/>
</a>
</g>
</g>
<!-- Node7&#45;&gt;Node4 -->
<g id="edge7_Node000007_Node000004" class="edge">
<title>Node7&#45;&gt;Node4</title>
<g id="a_edge7_Node000007_Node000004"><a xlink:title=" ">
<path fill="none" stroke="#63b8ff" d="M259.79,-54.84C244.49,-46.69 221.72,-34.57 203.89,-25.08"/>
<polygon fill="#63b8ff" stroke="#63b8ff" points="205.6,-22.02 195.13,-20.41 202.31,-28.2 205.6,-22.02"/>
</a>
</g>
</g>
<!-- Node8 -->
<g id="Node000008" class="node">
<title>Node8</title>
<g id="a_Node000008"><a xlink:title=" ">
<polygon fill="#e0e0e0" stroke="#999999" points="311,-19.25 242.5,-19.25 242.5,0 311,0 311,-19.25"/>
<text text-anchor="middle" x="276.75" y="-5.75" font-family="Helvetica,sans-Serif" font-size="10.00">TFT_eSPI.h</text>
</a>
</g>
</g>
<!-- Node7&#45;&gt;Node8 -->
<g id="edge8_Node000007_Node000008" class="edge">
<title>Node7&#45;&gt;Node8</title>
<g id="a_edge8_Node000007_Node000008"><a xlink:title=" ">
<path fill="none" stroke="#63b8ff" d="M276.75,-55.08C276.75,-48.57 276.75,-39.42 276.75,-31.12"/>
<polygon fill="#63b8ff" stroke="#63b8ff" points="280.25,-31.12 276.75,-21.12 273.25,-31.12 280.25,-31.12"/>
</a>
</g>
</g>
<!-- Node9&#45;&gt;Node4 -->
<g id="edge10_Node000009_Node000004" class="edge">
<title>Node9&#45;&gt;Node4</title>
<g id="a_edge10_Node000009_Node000004"><a xlink:title=" ">
<path fill="none" stroke="#63b8ff" d="M176.75,-55.08C176.75,-48.57 176.75,-39.42 176.75,-31.12"/>
<polygon fill="#63b8ff" stroke="#63b8ff" points="180.25,-31.12 176.75,-21.12 173.25,-31.12 180.25,-31.12"/>
</a>
</g>
</g>
</g>
</svg>
