<?xml version="1.0" encoding="UTF-8" standalone="no"?>
<!DOCTYPE svg PUBLIC "-//W3C//DTD SVG 1.1//EN"
 "http://www.w3.org/Graphics/SVG/1.1/DTD/svg11.dtd">
<!-- Generated by graphviz version 12.2.0 (20241103.1931)
 -->
<!-- Title: src/apps/MatrixApp/MatrixApp.cpp Pages: 1 -->
<svg width="336pt" height="260pt"
 viewBox="0.00 0.00 335.75 259.50" xmlns="http://www.w3.org/2000/svg" xmlns:xlink="http://www.w3.org/1999/xlink">

<svg id="main" version="1.1" xmlns="http://www.w3.org/2000/svg" xmlns:xlink="http://www.w3.org/1999/xlink" xml:space="preserve">

<style type="text/css"><![CDATA[
.node, .edge {opacity: 0.7;}
.node.selected, .edge.selected {opacity: 1;}
.edge:hover path { stroke: red; }
.edge:hover polygon { stroke: red; fill: red; }
]]></style>
<script type="application/ecmascript" xlink:href="svg.min.js"/>
<svg id="graph" class="graph">
<g id="graph0" class="graph" transform="scale(1 1) rotate(0) translate(4 255.5)">
<title>src/apps/MatrixApp/MatrixApp.cpp</title>
<!-- Node1 -->
<g id="Node000001" class="node">
<title>Node1</title>
<g id="a_Node000001"><a xlink:title=" ">
<polygon fill="#999999" stroke="#666666" points="100,-251.5 0,-251.5 0,-221 100,-221 100,-251.5"/>
<text text-anchor="start" x="8" y="-238" font-family="Helvetica,sans-Serif" font-size="10.00">src/apps/MatrixApp</text>
<text text-anchor="middle" x="50" y="-226.75" font-family="Helvetica,sans-Serif" font-size="10.00">/MatrixApp.cpp</text>
</a>
</g>
</g>
<!-- Node2 -->
<g id="Node000002" class="node">
<title>Node2</title>
<g id="a_Node000002"><a xlink:title=" ">
<polygon fill="#e0e0e0" stroke="#999999" points="77.25,-19.25 20.75,-19.25 20.75,0 77.25,0 77.25,-19.25"/>
<text text-anchor="middle" x="49" y="-5.75" font-family="Helvetica,sans-Serif" font-size="10.00">Arduino.h</text>
</a>
</g>
</g>
<!-- Node1&#45;&gt;Node2 -->
<g id="edge1_Node000001_Node000002" class="edge">
<title>Node1&#45;&gt;Node2</title>
<g id="a_edge1_Node000001_Node000002"><a xlink:title=" ">
<path fill="none" stroke="#63b8ff" d="M42.79,-220.54C32.27,-197.49 14.34,-151.25 18,-110.5 20.23,-85.65 20.4,-79.02 28,-55.25 30.77,-46.59 34.85,-37.44 38.68,-29.69"/>
<polygon fill="#63b8ff" stroke="#63b8ff" points="41.74,-31.4 43.24,-20.92 35.53,-28.18 41.74,-31.4"/>
</a>
</g>
</g>
<!-- Node3 -->
<g id="Node000003" class="node">
<title>Node3</title>
<g id="a_Node000003"><a xlink:href="MatrixApp_8h.html" target="_top" xlink:title=" ">
<polygon fill="white" stroke="#666666" points="145.5,-185 78.5,-185 78.5,-165.75 145.5,-165.75 145.5,-185"/>
<text text-anchor="middle" x="112" y="-171.5" font-family="Helvetica,sans-Serif" font-size="10.00">MatrixApp.h</text>
</a>
</g>
</g>
<!-- Node1&#45;&gt;Node3 -->
<g id="edge2_Node000001_Node000003" class="edge">
<title>Node1&#45;&gt;Node3</title>
<g id="a_edge2_Node000001_Node000003"><a xlink:title=" ">
<path fill="none" stroke="#63b8ff" d="M65.33,-220.7C74.04,-212.42 85,-202.02 94.1,-193.37"/>
<polygon fill="#63b8ff" stroke="#63b8ff" points="96.5,-195.92 101.34,-186.49 91.68,-190.84 96.5,-195.92"/>
</a>
</g>
</g>
<!-- Node5 -->
<g id="Node000005" class="node">
<title>Node5</title>
<g id="a_Node000005"><a xlink:href="Hardware_8h.html" target="_top" xlink:title=" ">
<polygon fill="white" stroke="#666666" points="135.12,-129.75 26.88,-129.75 26.88,-110.5 135.12,-110.5 135.12,-129.75"/>
<text text-anchor="middle" x="81" y="-116.25" font-family="Helvetica,sans-Serif" font-size="10.00">hardware/Hardware.h</text>
</a>
</g>
</g>
<!-- Node1&#45;&gt;Node5 -->
<g id="edge13_Node000001_Node000005" class="edge">
<title>Node1&#45;&gt;Node5</title>
<g id="a_edge13_Node000001_Node000005"><a xlink:title=" ">
<path fill="none" stroke="#63b8ff" d="M53.93,-220.8C59.4,-200.65 69.34,-164.06 75.53,-141.25"/>
<polygon fill="#63b8ff" stroke="#63b8ff" points="78.89,-142.23 78.14,-131.66 72.14,-140.39 78.89,-142.23"/>
</a>
</g>
</g>
<!-- Node4 -->
<g id="Node000004" class="node">
<title>Node4</title>
<g id="a_Node000004"><a xlink:href="App_8h.html" target="_top" xlink:title="Abstract base class for applications.">
<polygon fill="white" stroke="#666666" points="215.25,-129.75 152.75,-129.75 152.75,-110.5 215.25,-110.5 215.25,-129.75"/>
<text text-anchor="middle" x="184" y="-116.25" font-family="Helvetica,sans-Serif" font-size="10.00">core/App.h</text>
</a>
</g>
</g>
<!-- Node3&#45;&gt;Node4 -->
<g id="edge3_Node000003_Node000004" class="edge">
<title>Node3&#45;&gt;Node4</title>
<g id="a_edge3_Node000003_Node000004"><a xlink:title=" ">
<path fill="none" stroke="#63b8ff" d="M124.21,-165.34C134.83,-157.49 150.44,-145.95 163.04,-136.62"/>
<polygon fill="#63b8ff" stroke="#63b8ff" points="164.79,-139.69 170.75,-130.92 160.63,-134.06 164.79,-139.69"/>
</a>
</g>
</g>
<!-- Node3&#45;&gt;Node5 -->
<g id="edge4_Node000003_Node000005" class="edge">
<title>Node3&#45;&gt;Node5</title>
<g id="a_edge4_Node000003_Node000005"><a xlink:title=" ">
<path fill="none" stroke="#63b8ff" d="M106.88,-165.58C102.82,-158.61 97.01,-148.62 91.91,-139.87"/>
<polygon fill="#63b8ff" stroke="#63b8ff" points="95.05,-138.3 86.99,-131.42 89,-141.82 95.05,-138.3"/>
</a>
</g>
</g>
<!-- Node5&#45;&gt;Node2 -->
<g id="edge5_Node000005_Node000002" class="edge">
<title>Node5&#45;&gt;Node2</title>
<g id="a_edge5_Node000005_Node000002"><a xlink:title=" ">
<path fill="none" stroke="#63b8ff" d="M66.77,-110.1C55.79,-102.21 41.42,-89.67 35,-74.5 28.91,-60.11 33.42,-42.72 38.89,-29.72"/>
<polygon fill="#63b8ff" stroke="#63b8ff" points="41.91,-31.52 43.05,-20.98 35.59,-28.51 41.91,-31.52"/>
</a>
</g>
</g>
<!-- Node6 -->
<g id="Node000006" class="node">
<title>Node6</title>
<g id="a_Node000006"><a xlink:href="Button_2Button_8h.html" target="_top" xlink:title=" ">
<polygon fill="white" stroke="#666666" points="327.75,-74.5 244.25,-74.5 244.25,-55.25 327.75,-55.25 327.75,-74.5"/>
<text text-anchor="middle" x="286" y="-61" font-family="Helvetica,sans-Serif" font-size="10.00">Button/Button.h</text>
</a>
</g>
</g>
<!-- Node5&#45;&gt;Node6 -->
<g id="edge6_Node000005_Node000006" class="edge">
<title>Node5&#45;&gt;Node6</title>
<g id="a_edge6_Node000005_Node000006"><a xlink:title=" ">
<path fill="none" stroke="#63b8ff" d="M115.78,-110.09C150.09,-101.18 202.72,-87.51 240.37,-77.73"/>
<polygon fill="#63b8ff" stroke="#63b8ff" points="240.79,-81.23 249.59,-75.33 239.03,-74.46 240.79,-81.23"/>
</a>
</g>
</g>
<!-- Node8 -->
<g id="Node000008" class="node">
<title>Node8</title>
<g id="a_Node000008"><a xlink:href="Display_8h.html" target="_top" xlink:title=" ">
<polygon fill="white" stroke="#666666" points="225.75,-74.5 136.25,-74.5 136.25,-55.25 225.75,-55.25 225.75,-74.5"/>
<text text-anchor="middle" x="181" y="-61" font-family="Helvetica,sans-Serif" font-size="10.00">Display/Display.h</text>
</a>
</g>
</g>
<!-- Node5&#45;&gt;Node8 -->
<g id="edge8_Node000005_Node000008" class="edge">
<title>Node5&#45;&gt;Node8</title>
<g id="a_edge8_Node000005_Node000008"><a xlink:title=" ">
<path fill="none" stroke="#63b8ff" d="M97.96,-110.09C113.26,-101.94 136.03,-89.82 153.86,-80.33"/>
<polygon fill="#63b8ff" stroke="#63b8ff" points="155.44,-83.45 162.62,-75.66 152.15,-77.27 155.44,-83.45"/>
</a>
</g>
</g>
<!-- Node10 -->
<g id="Node000010" class="node">
<title>Node10</title>
<g id="a_Node000010"><a xlink:href="Piezo_8h.html" target="_top" xlink:title=" ">
<polygon fill="white" stroke="#666666" points="118.25,-74.5 43.75,-74.5 43.75,-55.25 118.25,-55.25 118.25,-74.5"/>
<text text-anchor="middle" x="81" y="-61" font-family="Helvetica,sans-Serif" font-size="10.00">Piezo/Piezo.h</text>
</a>
</g>
</g>
<!-- Node5&#45;&gt;Node10 -->
<g id="edge11_Node000005_Node000010" class="edge">
<title>Node5&#45;&gt;Node10</title>
<g id="a_edge11_Node000005_Node000010"><a xlink:title=" ">
<path fill="none" stroke="#63b8ff" d="M81,-110.33C81,-103.82 81,-94.67 81,-86.37"/>
<polygon fill="#63b8ff" stroke="#63b8ff" points="84.5,-86.37 81,-76.37 77.5,-86.37 84.5,-86.37"/>
</a>
</g>
</g>
<!-- Node7 -->
<g id="Node000007" class="node">
<title>Node7</title>
<g id="a_Node000007"><a xlink:title=" ">
<polygon fill="#e0e0e0" stroke="#999999" points="321,-19.25 251,-19.25 251,0 321,0 321,-19.25"/>
<text text-anchor="middle" x="286" y="-5.75" font-family="Helvetica,sans-Serif" font-size="10.00">OneButton.h</text>
</a>
</g>
</g>
<!-- Node6&#45;&gt;Node7 -->
<g id="edge7_Node000006_Node000007" class="edge">
<title>Node6&#45;&gt;Node7</title>
<g id="a_edge7_Node000006_Node000007"><a xlink:title=" ">
<path fill="none" stroke="#63b8ff" d="M286,-55.08C286,-48.57 286,-39.42 286,-31.12"/>
<polygon fill="#63b8ff" stroke="#63b8ff" points="289.5,-31.12 286,-21.12 282.5,-31.12 289.5,-31.12"/>
</a>
</g>
</g>
<!-- Node8&#45;&gt;Node2 -->
<g id="edge9_Node000008_Node000002" class="edge">
<title>Node8&#45;&gt;Node2</title>
<g id="a_edge9_Node000008_Node000002"><a xlink:title=" ">
<path fill="none" stroke="#63b8ff" d="M158.61,-54.84C137.56,-46.35 105.8,-33.54 81.88,-23.89"/>
<polygon fill="#63b8ff" stroke="#63b8ff" points="83.49,-20.76 72.91,-20.27 80.87,-27.26 83.49,-20.76"/>
</a>
</g>
</g>
<!-- Node9 -->
<g id="Node000009" class="node">
<title>Node9</title>
<g id="a_Node000009"><a xlink:title=" ">
<polygon fill="#e0e0e0" stroke="#999999" points="215.25,-19.25 146.75,-19.25 146.75,0 215.25,0 215.25,-19.25"/>
<text text-anchor="middle" x="181" y="-5.75" font-family="Helvetica,sans-Serif" font-size="10.00">TFT_eSPI.h</text>
</a>
</g>
</g>
<!-- Node8&#45;&gt;Node9 -->
<g id="edge10_Node000008_Node000009" class="edge">
<title>Node8&#45;&gt;Node9</title>
<g id="a_edge10_Node000008_Node000009"><a xlink:title=" ">
<path fill="none" stroke="#63b8ff" d="M181,-55.08C181,-48.57 181,-39.42 181,-31.12"/>
<polygon fill="#63b8ff" stroke="#63b8ff" points="184.5,-31.12 181,-21.12 177.5,-31.12 184.5,-31.12"/>
</a>
</g>
</g>
<!-- Node10&#45;&gt;Node2 -->
<g id="edge12_Node000010_Node000002" class="edge">
<title>Node10&#45;&gt;Node2</title>
<g id="a_edge12_Node000010_Node000002"><a xlink:title=" ">
<path fill="none" stroke="#63b8ff" d="M75.72,-55.08C71.53,-48.11 65.52,-38.12 60.27,-29.37"/>
<polygon fill="#63b8ff" stroke="#63b8ff" points="63.33,-27.68 55.18,-20.91 57.33,-31.28 63.33,-27.68"/>
</a>
</g>
</g>
</g>
</svg>
</svg>

<style type='text/css'>
<![CDATA[
[data-mouse-over-selected='false'] { opacity: 0.7; }
[data-mouse-over-selected='true']  { opacity: 1.0; }
]]>
</style>
<script type="application/ecmascript"><![CDATA[
document.addEventListener('DOMContentLoaded', (event) => {
  highlightEdges();
  highlightAdjacentNodes();
});
]]></script>
</svg>
