<?xml version="1.0" encoding="UTF-8" standalone="no"?>
<!DOCTYPE svg PUBLIC "-//W3C//DTD SVG 1.1//EN"
 "http://www.w3.org/Graphics/SVG/1.1/DTD/svg11.dtd">
<!-- Generated by graphviz version 12.2.0 (20241103.1931)
 -->
<!-- Title: src/hardware/Piezo/Piezo.h Pages: 1 -->
<svg width="1052pt" height="238pt"
 viewBox="0.00 0.00 1051.50 238.00" xmlns="http://www.w3.org/2000/svg" xmlns:xlink="http://www.w3.org/1999/xlink">
<g id="graph0" class="graph" transform="scale(1 1) rotate(0) translate(4 234)">
<title>src/hardware/Piezo/Piezo.h</title>
<!-- Node1 -->
<g id="Node000001" class="node">
<title>Node1</title>
<g id="a_Node000001"><a xlink:title=" ">
<polygon fill="#999999" stroke="#666666" points="678.38,-230 579.12,-230 579.12,-199.5 678.38,-199.5 678.38,-230"/>
<text text-anchor="start" x="587.12" y="-216.5" font-family="Helvetica,sans-Serif" font-size="10.00">src/hardware/Piezo</text>
<text text-anchor="middle" x="628.75" y="-205.25" font-family="Helvetica,sans-Serif" font-size="10.00">/Piezo.h</text>
</a>
</g>
</g>
<!-- Node2 -->
<g id="Node000002" class="node">
<title>Node2</title>
<g id="a_Node000002"><a xlink:href="Hardware_8h.html" target="_top" xlink:title=" ">
<polygon fill="white" stroke="#666666" points="626.12,-157.88 501.38,-157.88 501.38,-138.62 626.12,-138.62 626.12,-157.88"/>
<text text-anchor="middle" x="563.75" y="-144.38" font-family="Helvetica,sans-Serif" font-size="10.00">src/hardware/Hardware.h</text>
</a>
</g>
</g>
<!-- Node1&#45;&gt;Node2 -->
<g id="edge1_Node000001_Node000002" class="edge">
<title>Node1&#45;&gt;Node2</title>
<g id="a_edge1_Node000001_Node000002"><a xlink:title=" ">
<path fill="none" stroke="#63b8ff" d="M606.03,-191.21C594.52,-179.78 581.21,-166.57 572.64,-158.07"/>
<polygon fill="#63b8ff" stroke="#63b8ff" points="603.36,-193.49 612.93,-198.05 608.29,-188.52 603.36,-193.49"/>
</a>
</g>
</g>
<!-- Node12 -->
<g id="Node000012" class="node">
<title>Node12</title>
<g id="a_Node000012"><a xlink:href="Piezo_8cpp.html" target="_top" xlink:title=" ">
<polygon fill="white" stroke="#666666" points="743.38,-163.5 644.12,-163.5 644.12,-133 743.38,-133 743.38,-163.5"/>
<text text-anchor="start" x="652.12" y="-150" font-family="Helvetica,sans-Serif" font-size="10.00">src/hardware/Piezo</text>
<text text-anchor="middle" x="693.75" y="-138.75" font-family="Helvetica,sans-Serif" font-size="10.00">/Piezo.cpp</text>
</a>
</g>
</g>
<!-- Node1&#45;&gt;Node12 -->
<g id="edge13_Node000001_Node000012" class="edge">
<title>Node1&#45;&gt;Node12</title>
<g id="a_edge13_Node000001_Node000012"><a xlink:title=" ">
<path fill="none" stroke="#63b8ff" d="M651.49,-191.19C660.64,-182.11 670.92,-171.9 679.06,-163.83"/>
<polygon fill="#63b8ff" stroke="#63b8ff" points="649.21,-188.52 644.57,-198.05 654.14,-193.49 649.21,-188.52"/>
</a>
</g>
</g>
<!-- Node3 -->
<g id="Node000003" class="node">
<title>Node3</title>
<g id="a_Node000003"><a xlink:href="ClockApp_8cpp.html" target="_top" xlink:title=" ">
<polygon fill="white" stroke="#666666" points="161.5,-91.38 0,-91.38 0,-72.12 161.5,-72.12 161.5,-91.38"/>
<text text-anchor="middle" x="80.75" y="-77.88" font-family="Helvetica,sans-Serif" font-size="10.00">src/apps/ClockApp/ClockApp.cpp</text>
</a>
</g>
</g>
<!-- Node2&#45;&gt;Node3 -->
<g id="edge2_Node000002_Node000003" class="edge">
<title>Node2&#45;&gt;Node3</title>
<g id="a_edge2_Node000002_Node000003"><a xlink:title=" ">
<path fill="none" stroke="#63b8ff" d="M489.76,-138.46C410.69,-128.91 281.73,-112.88 170.75,-97 159.63,-95.41 147.76,-93.6 136.4,-91.83"/>
<polygon fill="#63b8ff" stroke="#63b8ff" points="489.2,-141.92 499.55,-139.64 490.04,-134.97 489.2,-141.92"/>
</a>
</g>
</g>
<!-- Node4 -->
<g id="Node000004" class="node">
<title>Node4</title>
<g id="a_Node000004"><a xlink:href="CurrencyConverterApp_8cpp.html" target="_top" xlink:title=" ">
<polygon fill="white" stroke="#666666" points="331.62,-97 179.88,-97 179.88,-66.5 331.62,-66.5 331.62,-97"/>
<text text-anchor="start" x="187.88" y="-83.5" font-family="Helvetica,sans-Serif" font-size="10.00">src/apps/CurrencyConverter</text>
<text text-anchor="middle" x="255.75" y="-72.25" font-family="Helvetica,sans-Serif" font-size="10.00">App/CurrencyConverterApp.cpp</text>
</a>
</g>
</g>
<!-- Node2&#45;&gt;Node4 -->
<g id="edge3_Node000002_Node000004" class="edge">
<title>Node2&#45;&gt;Node4</title>
<g id="a_edge3_Node000002_Node000004"><a xlink:title=" ">
<path fill="none" stroke="#63b8ff" d="M509.15,-135.82C458.09,-125.12 381.58,-109.1 326,-97.46"/>
<polygon fill="#63b8ff" stroke="#63b8ff" points="508.29,-139.21 518.79,-137.84 509.72,-132.36 508.29,-139.21"/>
</a>
</g>
</g>
<!-- Node5 -->
<g id="Node000005" class="node">
<title>Node5</title>
<g id="a_Node000005"><a xlink:href="GooglyEyes_8cpp.html" target="_top" xlink:title=" ">
<polygon fill="white" stroke="#666666" points="457.5,-97 350,-97 350,-66.5 457.5,-66.5 457.5,-97"/>
<text text-anchor="start" x="358" y="-83.5" font-family="Helvetica,sans-Serif" font-size="10.00">src/apps/GooglyEyes</text>
<text text-anchor="middle" x="403.75" y="-72.25" font-family="Helvetica,sans-Serif" font-size="10.00">/GooglyEyes.cpp</text>
</a>
</g>
</g>
<!-- Node2&#45;&gt;Node5 -->
<g id="edge4_Node000002_Node000005" class="edge">
<title>Node2&#45;&gt;Node5</title>
<g id="a_edge4_Node000002_Node000005"><a xlink:title=" ">
<path fill="none" stroke="#63b8ff" d="M530.55,-133.87C504.16,-123.23 467.27,-108.36 440.09,-97.4"/>
<polygon fill="#63b8ff" stroke="#63b8ff" points="529.18,-137.09 539.76,-137.58 531.8,-130.59 529.18,-137.09"/>
</a>
</g>
</g>
<!-- Node6 -->
<g id="Node000006" class="node">
<title>Node6</title>
<g id="a_Node000006"><a xlink:href="MatrixApp_8cpp.html" target="_top" xlink:title=" ">
<polygon fill="white" stroke="#666666" points="561.75,-30.5 461.75,-30.5 461.75,0 561.75,0 561.75,-30.5"/>
<text text-anchor="start" x="469.75" y="-17" font-family="Helvetica,sans-Serif" font-size="10.00">src/apps/MatrixApp</text>
<text text-anchor="middle" x="511.75" y="-5.75" font-family="Helvetica,sans-Serif" font-size="10.00">/MatrixApp.cpp</text>
</a>
</g>
</g>
<!-- Node2&#45;&gt;Node6 -->
<g id="edge5_Node000002_Node000006" class="edge">
<title>Node2&#45;&gt;Node6</title>
<g id="a_edge5_Node000002_Node000006"><a xlink:title=" ">
<path fill="none" stroke="#63b8ff" d="M536.96,-132C524.72,-123.45 511.47,-111.55 504.75,-97 494.84,-75.54 500.95,-47.47 506.32,-30.71"/>
<polygon fill="#63b8ff" stroke="#63b8ff" points="534.85,-134.81 545.14,-137.31 538.66,-128.93 534.85,-134.81"/>
</a>
</g>
</g>
<!-- Node7 -->
<g id="Node000007" class="node">
<title>Node7</title>
<g id="a_Node000007"><a xlink:href="MatrixApp_8h.html" target="_top" xlink:title=" ">
<polygon fill="white" stroke="#666666" points="613.75,-97 513.75,-97 513.75,-66.5 613.75,-66.5 613.75,-97"/>
<text text-anchor="start" x="521.75" y="-83.5" font-family="Helvetica,sans-Serif" font-size="10.00">src/apps/MatrixApp</text>
<text text-anchor="middle" x="563.75" y="-72.25" font-family="Helvetica,sans-Serif" font-size="10.00">/MatrixApp.h</text>
</a>
</g>
</g>
<!-- Node2&#45;&gt;Node7 -->
<g id="edge6_Node000002_Node000007" class="edge">
<title>Node2&#45;&gt;Node7</title>
<g id="a_edge6_Node000002_Node000007"><a xlink:title=" ">
<path fill="none" stroke="#63b8ff" d="M563.75,-126.87C563.75,-117.19 563.75,-105.85 563.75,-97.09"/>
<polygon fill="#63b8ff" stroke="#63b8ff" points="560.25,-126.77 563.75,-136.77 567.25,-126.77 560.25,-126.77"/>
</a>
</g>
</g>
<!-- Node8 -->
<g id="Node000008" class="node">
<title>Node8</title>
<g id="a_Node000008"><a xlink:href="main_8cpp.html" target="_top" xlink:title=" ">
<polygon fill="white" stroke="#666666" points="664.5,-24.88 593,-24.88 593,-5.63 664.5,-5.63 664.5,-24.88"/>
<text text-anchor="middle" x="628.75" y="-11.38" font-family="Helvetica,sans-Serif" font-size="10.00">src/main.cpp</text>
</a>
</g>
</g>
<!-- Node2&#45;&gt;Node8 -->
<g id="edge12_Node000002_Node000008" class="edge">
<title>Node2&#45;&gt;Node8</title>
<g id="a_edge12_Node000002_Node000008"><a xlink:title=" ">
<path fill="none" stroke="#63b8ff" d="M589.84,-131.95C602.03,-123.33 615.45,-111.39 622.75,-97 634.71,-73.43 632.34,-40.93 630.24,-25.33"/>
<polygon fill="#63b8ff" stroke="#63b8ff" points="588.15,-128.87 581.73,-137.3 592,-134.72 588.15,-128.87"/>
</a>
</g>
</g>
<!-- Node9 -->
<g id="Node000009" class="node">
<title>Node9</title>
<g id="a_Node000009"><a xlink:href="PomodoroApp_8cpp.html" target="_top" xlink:title=" ">
<polygon fill="white" stroke="#666666" points="787.75,-97 669.75,-97 669.75,-66.5 787.75,-66.5 787.75,-97"/>
<text text-anchor="start" x="677.75" y="-83.5" font-family="Helvetica,sans-Serif" font-size="10.00">src/apps/PomodoroApp</text>
<text text-anchor="middle" x="728.75" y="-72.25" font-family="Helvetica,sans-Serif" font-size="10.00">/PomodoroApp.cpp</text>
</a>
</g>
</g>
<!-- Node2&#45;&gt;Node9 -->
<g id="edge9_Node000002_Node000009" class="edge">
<title>Node2&#45;&gt;Node9</title>
<g id="a_edge9_Node000002_Node000009"><a xlink:title=" ">
<path fill="none" stroke="#63b8ff" d="M597.62,-134.01C624.87,-123.36 663.12,-108.41 691.28,-97.4"/>
<polygon fill="#63b8ff" stroke="#63b8ff" points="596.49,-130.69 588.45,-137.59 599.04,-137.21 596.49,-130.69"/>
</a>
</g>
</g>
<!-- Node10 -->
<g id="Node000010" class="node">
<title>Node10</title>
<g id="a_Node000010"><a xlink:href="AppLauncher_8cpp.html" target="_top" xlink:title=" ">
<polygon fill="white" stroke="#666666" points="917.75,-97 805.75,-97 805.75,-66.5 917.75,-66.5 917.75,-97"/>
<text text-anchor="start" x="813.75" y="-83.5" font-family="Helvetica,sans-Serif" font-size="10.00">src/core/AppLauncher</text>
<text text-anchor="middle" x="861.75" y="-72.25" font-family="Helvetica,sans-Serif" font-size="10.00">/AppLauncher.cpp</text>
</a>
</g>
</g>
<!-- Node2&#45;&gt;Node10 -->
<g id="edge10_Node000002_Node000010" class="edge">
<title>Node2&#45;&gt;Node10</title>
<g id="a_edge10_Node000002_Node000010"><a xlink:title=" ">
<path fill="none" stroke="#63b8ff" d="M617.03,-135.81C664.27,-125.66 735.11,-110.4 796.75,-97 799.57,-96.39 802.46,-95.76 805.38,-95.12"/>
<polygon fill="#63b8ff" stroke="#63b8ff" points="616.37,-132.37 607.33,-137.9 617.84,-139.22 616.37,-132.37"/>
</a>
</g>
</g>
<!-- Node11 -->
<g id="Node000011" class="node">
<title>Node11</title>
<g id="a_Node000011"><a xlink:href="SettingsApp_8cpp.html" target="_top" xlink:title=" ">
<polygon fill="white" stroke="#666666" points="1043.5,-97 936,-97 936,-66.5 1043.5,-66.5 1043.5,-97"/>
<text text-anchor="start" x="944" y="-83.5" font-family="Helvetica,sans-Serif" font-size="10.00">src/core/SettingsApp</text>
<text text-anchor="middle" x="989.75" y="-72.25" font-family="Helvetica,sans-Serif" font-size="10.00">/SettingsApp.cpp</text>
</a>
</g>
</g>
<!-- Node2&#45;&gt;Node11 -->
<g id="edge11_Node000002_Node000011" class="edge">
<title>Node2&#45;&gt;Node11</title>
<g id="a_edge11_Node000002_Node000011"><a xlink:title=" ">
<path fill="none" stroke="#63b8ff" d="M617.52,-136.01C623.33,-134.93 629.15,-133.91 634.75,-133 763.83,-112.12 797.93,-119.45 926.75,-97 929.62,-96.5 932.56,-95.95 935.52,-95.38"/>
<polygon fill="#63b8ff" stroke="#63b8ff" points="617.1,-132.53 607.94,-137.85 618.42,-139.4 617.1,-132.53"/>
</a>
</g>
</g>
<!-- Node7&#45;&gt;Node6 -->
<g id="edge7_Node000007_Node000006" class="edge">
<title>Node7&#45;&gt;Node6</title>
<g id="a_edge7_Node000007_Node000006"><a xlink:title=" ">
<path fill="none" stroke="#63b8ff" d="M544.89,-57.35C537.74,-48.48 529.81,-38.65 523.5,-30.83"/>
<polygon fill="#63b8ff" stroke="#63b8ff" points="542,-59.35 551,-64.94 547.45,-54.95 542,-59.35"/>
</a>
</g>
</g>
<!-- Node7&#45;&gt;Node8 -->
<g id="edge8_Node000007_Node000008" class="edge">
<title>Node7&#45;&gt;Node8</title>
<g id="a_edge8_Node000007_Node000008"><a xlink:title=" ">
<path fill="none" stroke="#63b8ff" d="M586.47,-58.21C597.98,-46.78 611.29,-33.57 619.86,-25.07"/>
<polygon fill="#63b8ff" stroke="#63b8ff" points="584.21,-55.52 579.57,-65.05 589.14,-60.49 584.21,-55.52"/>
</a>
</g>
</g>
</g>
</svg>
