<?xml version="1.0" encoding="UTF-8" standalone="no"?>
<!DOCTYPE svg PUBLIC "-//W3C//DTD SVG 1.1//EN"
 "http://www.w3.org/Graphics/SVG/1.1/DTD/svg11.dtd">
<!-- Generated by graphviz version 12.1.2 (0)
 -->
<!-- Title: src/hardware/Piezo.h Pages: 1 -->
<svg width="663pt" height="92pt"
 viewBox="0.00 0.00 663.00 91.50" xmlns="http://www.w3.org/2000/svg" xmlns:xlink="http://www.w3.org/1999/xlink">
<g id="graph0" class="graph" transform="scale(1 1) rotate(0) translate(4 87.5)">
<title>src/hardware/Piezo.h</title>
<!-- Node1 -->
<g id="Node000001" class="node">
<title>Node1</title>
<g id="a_Node000001"><a xlink:title=" ">
<polygon fill="#999999" stroke="#666666" points="427.25,-83.5 320.5,-83.5 320.5,-65 427.25,-65 427.25,-83.5"/>
<text text-anchor="middle" x="373.88" y="-70" font-family="Helvetica,sans-Serif" font-size="10.00">src/hardware/Piezo.h</text>
</a>
</g>
</g>
<!-- Node2 -->
<g id="Node000002" class="node">
<title>Node2</title>
<g id="a_Node000002"><a xlink:href="ClockApp_8cpp.html" target="_top" xlink:title=" ">
<polygon fill="white" stroke="#666666" points="163.75,-23.75 0,-23.75 0,-5.25 163.75,-5.25 163.75,-23.75"/>
<text text-anchor="middle" x="81.88" y="-10.25" font-family="Helvetica,sans-Serif" font-size="10.00">src/apps/ClockApp/ClockApp.cpp</text>
</a>
</g>
</g>
<!-- Node1&#45;&gt;Node2 -->
<g id="edge1_Node000001_Node000002" class="edge">
<title>Node1&#45;&gt;Node2</title>
<g id="a_edge1_Node000001_Node000002"><a xlink:title=" ">
<path fill="none" stroke="#63b8ff" d="M318.72,-62.34C262.78,-51.28 177.31,-34.37 125.79,-24.18"/>
<polygon fill="#63b8ff" stroke="#63b8ff" points="317.87,-65.74 328.36,-64.25 319.23,-58.87 317.87,-65.74"/>
</a>
</g>
</g>
<!-- Node3 -->
<g id="Node000003" class="node">
<title>Node3</title>
<g id="a_Node000003"><a xlink:href="PomodoroApp_8cpp.html" target="_top" xlink:title=" ">
<polygon fill="white" stroke="#666666" points="299.88,-29 181.88,-29 181.88,0 299.88,0 299.88,-29"/>
<text text-anchor="start" x="189.88" y="-15.5" font-family="Helvetica,sans-Serif" font-size="10.00">src/apps/PomodoroApp</text>
<text text-anchor="middle" x="240.88" y="-5" font-family="Helvetica,sans-Serif" font-size="10.00">/PomodoroApp.cpp</text>
</a>
</g>
</g>
<!-- Node1&#45;&gt;Node3 -->
<g id="edge2_Node000001_Node000003" class="edge">
<title>Node1&#45;&gt;Node3</title>
<g id="a_edge2_Node000001_Node000003"><a xlink:title=" ">
<path fill="none" stroke="#63b8ff" d="M343.66,-60.13C322.61,-50.99 294.56,-38.81 273.08,-29.48"/>
<polygon fill="#63b8ff" stroke="#63b8ff" points="342.01,-63.23 352.58,-64 344.8,-56.81 342.01,-63.23"/>
</a>
</g>
</g>
<!-- Node4 -->
<g id="Node000004" class="node">
<title>Node4</title>
<g id="a_Node000004"><a xlink:href="AppLauncher_8cpp.html" target="_top" xlink:title=" ">
<polygon fill="white" stroke="#666666" points="429.5,-29 318.25,-29 318.25,0 429.5,0 429.5,-29"/>
<text text-anchor="start" x="326.25" y="-15.5" font-family="Helvetica,sans-Serif" font-size="10.00">src/core/AppLauncher</text>
<text text-anchor="middle" x="373.88" y="-5" font-family="Helvetica,sans-Serif" font-size="10.00">/AppLauncher.cpp</text>
</a>
</g>
</g>
<!-- Node1&#45;&gt;Node4 -->
<g id="edge3_Node000001_Node000004" class="edge">
<title>Node1&#45;&gt;Node4</title>
<g id="a_edge3_Node000001_Node000004"><a xlink:title=" ">
<path fill="none" stroke="#63b8ff" d="M373.88,-53.24C373.88,-45.39 373.88,-36.57 373.88,-29.43"/>
<polygon fill="#63b8ff" stroke="#63b8ff" points="370.38,-53.22 373.88,-63.22 377.38,-53.22 370.38,-53.22"/>
</a>
</g>
</g>
<!-- Node5 -->
<g id="Node000005" class="node">
<title>Node5</title>
<g id="a_Node000005"><a xlink:href="Piezo_8cpp.html" target="_top" xlink:title=" ">
<polygon fill="white" stroke="#666666" points="564.5,-23.75 447.25,-23.75 447.25,-5.25 564.5,-5.25 564.5,-23.75"/>
<text text-anchor="middle" x="505.88" y="-10.25" font-family="Helvetica,sans-Serif" font-size="10.00">src/hardware/Piezo.cpp</text>
</a>
</g>
</g>
<!-- Node1&#45;&gt;Node5 -->
<g id="edge4_Node000001_Node000005" class="edge">
<title>Node1&#45;&gt;Node5</title>
<g id="a_edge4_Node000001_Node000005"><a xlink:title=" ">
<path fill="none" stroke="#63b8ff" d="M404.06,-60.04C429.19,-49.05 464.25,-33.71 485.98,-24.2"/>
<polygon fill="#63b8ff" stroke="#63b8ff" points="402.78,-56.78 395.02,-64 405.59,-63.2 402.78,-56.78"/>
</a>
</g>
</g>
<!-- Node6 -->
<g id="Node000006" class="node">
<title>Node6</title>
<g id="a_Node000006"><a xlink:href="main_8cpp.html" target="_top" xlink:title=" ">
<polygon fill="white" stroke="#666666" points="655,-23.75 582.75,-23.75 582.75,-5.25 655,-5.25 655,-23.75"/>
<text text-anchor="middle" x="618.88" y="-10.25" font-family="Helvetica,sans-Serif" font-size="10.00">src/main.cpp</text>
</a>
</g>
</g>
<!-- Node1&#45;&gt;Node6 -->
<g id="edge5_Node000001_Node000006" class="edge">
<title>Node1&#45;&gt;Node6</title>
<g id="a_edge5_Node000001_Node000006"><a xlink:title=" ">
<path fill="none" stroke="#63b8ff" d="M428.99,-62.2C469.31,-53.83 525.22,-41.66 573.88,-29 579.4,-27.56 585.27,-25.9 590.88,-24.25"/>
<polygon fill="#63b8ff" stroke="#63b8ff" points="428.36,-58.75 419.28,-64.2 429.78,-65.61 428.36,-58.75"/>
</a>
</g>
</g>
</g>
</svg>
