<?xml version="1.0" encoding="UTF-8" standalone="no"?>
<!DOCTYPE svg PUBLIC "-//W3C//DTD SVG 1.1//EN"
 "http://www.w3.org/Graphics/SVG/1.1/DTD/svg11.dtd">
<!-- Generated by graphviz version 12.2.0 (20241103.1931)
 -->
<!-- Title: src/hardware/Piezo.h Pages: 1 -->
<svg width="661pt" height="94pt"
 viewBox="0.00 0.00 660.50 93.75" xmlns="http://www.w3.org/2000/svg" xmlns:xlink="http://www.w3.org/1999/xlink">
<g id="graph0" class="graph" transform="scale(1 1) rotate(0) translate(4 89.75)">
<title>src/hardware/Piezo.h</title>
<!-- Node1 -->
<g id="Node000001" class="node">
<title>Node1</title>
<g id="a_Node000001"><a xlink:title=" ">
<polygon fill="#999999" stroke="#666666" points="425.12,-85.75 318.38,-85.75 318.38,-66.5 425.12,-66.5 425.12,-85.75"/>
<text text-anchor="middle" x="371.75" y="-72.25" font-family="Helvetica,sans-Serif" font-size="10.00">src/hardware/Piezo.h</text>
</a>
</g>
</g>
<!-- Node2 -->
<g id="Node000002" class="node">
<title>Node2</title>
<g id="a_Node000002"><a xlink:href="ClockApp_8cpp.html" target="_top" xlink:title=" ">
<polygon fill="white" stroke="#666666" points="161.5,-24.88 0,-24.88 0,-5.63 161.5,-5.63 161.5,-24.88"/>
<text text-anchor="middle" x="80.75" y="-11.38" font-family="Helvetica,sans-Serif" font-size="10.00">src/apps/ClockApp/ClockApp.cpp</text>
</a>
</g>
</g>
<!-- Node1&#45;&gt;Node2 -->
<g id="edge1_Node000001_Node000002" class="edge">
<title>Node1&#45;&gt;Node2</title>
<g id="a_edge1_Node000001_Node000002"><a xlink:title=" ">
<path fill="none" stroke="#63b8ff" d="M315.9,-63.83C260.54,-52.63 176.81,-35.69 125.63,-25.33"/>
<polygon fill="#63b8ff" stroke="#63b8ff" points="314.94,-67.2 325.44,-65.75 316.33,-60.34 314.94,-67.2"/>
</a>
</g>
</g>
<!-- Node3 -->
<g id="Node000003" class="node">
<title>Node3</title>
<g id="a_Node000003"><a xlink:href="PomodoroApp_8cpp.html" target="_top" xlink:title=" ">
<polygon fill="white" stroke="#666666" points="297.75,-30.5 179.75,-30.5 179.75,0 297.75,0 297.75,-30.5"/>
<text text-anchor="start" x="187.75" y="-17" font-family="Helvetica,sans-Serif" font-size="10.00">src/apps/PomodoroApp</text>
<text text-anchor="middle" x="238.75" y="-5.75" font-family="Helvetica,sans-Serif" font-size="10.00">/PomodoroApp.cpp</text>
</a>
</g>
</g>
<!-- Node1&#45;&gt;Node3 -->
<g id="edge2_Node000001_Node000003" class="edge">
<title>Node1&#45;&gt;Node3</title>
<g id="a_edge2_Node000001_Node000003"><a xlink:title=" ">
<path fill="none" stroke="#63b8ff" d="M340.83,-61.44C320.18,-52.3 293.05,-40.29 271.95,-30.94"/>
<polygon fill="#63b8ff" stroke="#63b8ff" points="339.32,-64.59 349.88,-65.44 342.15,-58.19 339.32,-64.59"/>
</a>
</g>
</g>
<!-- Node4 -->
<g id="Node000004" class="node">
<title>Node4</title>
<g id="a_Node000004"><a xlink:href="AppLauncher_8cpp.html" target="_top" xlink:title=" ">
<polygon fill="white" stroke="#666666" points="427.75,-30.5 315.75,-30.5 315.75,0 427.75,0 427.75,-30.5"/>
<text text-anchor="start" x="323.75" y="-17" font-family="Helvetica,sans-Serif" font-size="10.00">src/core/AppLauncher</text>
<text text-anchor="middle" x="371.75" y="-5.75" font-family="Helvetica,sans-Serif" font-size="10.00">/AppLauncher.cpp</text>
</a>
</g>
</g>
<!-- Node1&#45;&gt;Node4 -->
<g id="edge3_Node000001_Node000004" class="edge">
<title>Node1&#45;&gt;Node4</title>
<g id="a_edge3_Node000001_Node000004"><a xlink:title=" ">
<path fill="none" stroke="#63b8ff" d="M371.75,-54.92C371.75,-46.99 371.75,-38.06 371.75,-30.78"/>
<polygon fill="#63b8ff" stroke="#63b8ff" points="368.25,-54.67 371.75,-64.67 375.25,-54.67 368.25,-54.67"/>
</a>
</g>
</g>
<!-- Node5 -->
<g id="Node000005" class="node">
<title>Node5</title>
<g id="a_Node000005"><a xlink:href="Piezo_8cpp.html" target="_top" xlink:title=" ">
<polygon fill="white" stroke="#666666" points="563.38,-24.88 446.12,-24.88 446.12,-5.63 563.38,-5.63 563.38,-24.88"/>
<text text-anchor="middle" x="504.75" y="-11.38" font-family="Helvetica,sans-Serif" font-size="10.00">src/hardware/Piezo.cpp</text>
</a>
</g>
</g>
<!-- Node1&#45;&gt;Node5 -->
<g id="edge4_Node000001_Node000005" class="edge">
<title>Node1&#45;&gt;Node5</title>
<g id="a_edge4_Node000001_Node000005"><a xlink:title=" ">
<path fill="none" stroke="#63b8ff" d="M402.71,-61.42C427.89,-50.27 462.7,-34.87 484.46,-25.23"/>
<polygon fill="#63b8ff" stroke="#63b8ff" points="401.35,-58.19 393.62,-65.44 404.18,-64.59 401.35,-58.19"/>
</a>
</g>
</g>
<!-- Node6 -->
<g id="Node000006" class="node">
<title>Node6</title>
<g id="a_Node000006"><a xlink:href="main_8cpp.html" target="_top" xlink:title=" ">
<polygon fill="white" stroke="#666666" points="652.5,-24.88 581,-24.88 581,-5.63 652.5,-5.63 652.5,-24.88"/>
<text text-anchor="middle" x="616.75" y="-11.38" font-family="Helvetica,sans-Serif" font-size="10.00">src/main.cpp</text>
</a>
</g>
</g>
<!-- Node1&#45;&gt;Node6 -->
<g id="edge5_Node000001_Node000006" class="edge">
<title>Node1&#45;&gt;Node6</title>
<g id="a_edge5_Node000001_Node000006"><a xlink:title=" ">
<path fill="none" stroke="#63b8ff" d="M430,-63.72C470.32,-55.45 525.09,-43.48 572.75,-30.5 578.48,-28.94 584.58,-27.09 590.35,-25.25"/>
<polygon fill="#63b8ff" stroke="#63b8ff" points="429.35,-60.28 420.25,-65.7 430.74,-67.14 429.35,-60.28"/>
</a>
</g>
</g>
</g>
</svg>
