<?xml version="1.0" encoding="UTF-8" standalone="no"?>
<!DOCTYPE svg PUBLIC "-//W3C//DTD SVG 1.1//EN"
 "http://www.w3.org/Graphics/SVG/1.1/DTD/svg11.dtd">
<!-- Generated by graphviz version 12.1.2 (0)
 -->
<!-- Title: src/hardware/Piezo.cpp Pages: 1 -->
<svg width="125pt" height="136pt"
 viewBox="0.00 0.00 125.25 135.50" xmlns="http://www.w3.org/2000/svg" xmlns:xlink="http://www.w3.org/1999/xlink">
<g id="graph0" class="graph" transform="scale(1 1) rotate(0) translate(4 131.5)">
<title>src/hardware/Piezo.cpp</title>
<!-- Node1 -->
<g id="Node000001" class="node">
<title>Node1</title>
<g id="a_Node000001"><a xlink:title=" ">
<polygon fill="#999999" stroke="#666666" points="117.25,-127.5 0,-127.5 0,-109 117.25,-109 117.25,-127.5"/>
<text text-anchor="middle" x="58.62" y="-114" font-family="Helvetica,sans-Serif" font-size="10.00">src/hardware/Piezo.cpp</text>
</a>
</g>
</g>
<!-- Node2 -->
<g id="Node000002" class="node">
<title>Node2</title>
<g id="a_Node000002"><a xlink:href="Piezo_8h.html" target="_top" xlink:title=" ">
<polygon fill="white" stroke="#666666" points="82.75,-73 34.5,-73 34.5,-54.5 82.75,-54.5 82.75,-73"/>
<text text-anchor="middle" x="58.62" y="-59.5" font-family="Helvetica,sans-Serif" font-size="10.00">Piezo.h</text>
</a>
</g>
</g>
<!-- Node1&#45;&gt;Node2 -->
<g id="edge1_Node000001_Node000002" class="edge">
<title>Node1&#45;&gt;Node2</title>
<g id="a_edge1_Node000001_Node000002"><a xlink:title=" ">
<path fill="none" stroke="#63b8ff" d="M58.62,-108.58C58.62,-102.08 58.62,-92.92 58.62,-84.66"/>
<polygon fill="#63b8ff" stroke="#63b8ff" points="62.13,-84.77 58.63,-74.77 55.13,-84.77 62.13,-84.77"/>
</a>
</g>
</g>
<!-- Node3 -->
<g id="Node000003" class="node">
<title>Node3</title>
<g id="a_Node000003"><a xlink:title=" ">
<polygon fill="#e0e0e0" stroke="#999999" points="87.25,-18.5 30,-18.5 30,0 87.25,0 87.25,-18.5"/>
<text text-anchor="middle" x="58.62" y="-5" font-family="Helvetica,sans-Serif" font-size="10.00">Arduino.h</text>
</a>
</g>
</g>
<!-- Node2&#45;&gt;Node3 -->
<g id="edge2_Node000002_Node000003" class="edge">
<title>Node2&#45;&gt;Node3</title>
<g id="a_edge2_Node000002_Node000003"><a xlink:title=" ">
<path fill="none" stroke="#63b8ff" d="M58.62,-54.08C58.62,-47.58 58.62,-38.42 58.62,-30.16"/>
<polygon fill="#63b8ff" stroke="#63b8ff" points="62.13,-30.27 58.63,-20.27 55.13,-30.27 62.13,-30.27"/>
</a>
</g>
</g>
</g>
</svg>
