<?xml version="1.0" encoding="UTF-8" standalone="no"?>
<!DOCTYPE svg PUBLIC "-//W3C//DTD SVG 1.1//EN"
 "http://www.w3.org/Graphics/SVG/1.1/DTD/svg11.dtd">
<!-- Generated by graphviz version 7.0.5 (20221223.1930)
 -->
<!-- Title: src/apps/PomodoroApp/PomodoroApp.h Pages: 1 -->
<svg width="393pt" height="93pt"
 viewBox="0.00 0.00 393.00 93.00" xmlns="http://www.w3.org/2000/svg" xmlns:xlink="http://www.w3.org/1999/xlink">
<g id="graph0" class="graph" transform="scale(1 1) rotate(0) translate(4 89)">
<title>src/apps/PomodoroApp/PomodoroApp.h</title>
<!-- Node1 -->
<g id="node1" class="node">
<title>Node1</title>
<g id="a_node1"><a xlink:title=" ">
<polygon fill="#999999" stroke="#666666" points="251,-85 132,-85 132,-55 251,-55 251,-85"/>
<text text-anchor="start" x="140" y="-73" font-family="Helvetica,sans-Serif" font-size="10.00">src/apps/PomodoroApp</text>
<text text-anchor="middle" x="191.5" y="-62" font-family="Helvetica,sans-Serif" font-size="10.00">/PomodoroApp.h</text>
</a>
</g>
</g>
<!-- Node2 -->
<g id="node2" class="node">
<title>Node2</title>
<g id="a_node2"><a xlink:title=" ">
<polygon fill="#e0e0e0" stroke="#999999" points="57,-19 0,-19 0,0 57,0 57,-19"/>
<text text-anchor="middle" x="28.5" y="-7" font-family="Helvetica,sans-Serif" font-size="10.00">Arduino.h</text>
</a>
</g>
</g>
<!-- Node1&#45;&gt;Node2 -->
<g id="edge1" class="edge">
<title>Node1&#45;&gt;Node2</title>
<path fill="none" stroke="#63b8ff" d="M151.21,-54.54C124.44,-44.93 89.61,-32.43 63.91,-23.21"/>
<polygon fill="#63b8ff" stroke="#63b8ff" points="65.17,-19.94 54.57,-19.86 62.8,-26.53 65.17,-19.94"/>
</g>
<!-- Node3 -->
<g id="node3" class="node">
<title>Node3</title>
<g id="a_node3"><a xlink:title=" ">
<polygon fill="#e0e0e0" stroke="#999999" points="135.5,-19 75.5,-19 75.5,0 135.5,0 135.5,-19"/>
<text text-anchor="middle" x="105.5" y="-7" font-family="Helvetica,sans-Serif" font-size="10.00">DigiFont.h</text>
</a>
</g>
</g>
<!-- Node1&#45;&gt;Node3 -->
<g id="edge2" class="edge">
<title>Node1&#45;&gt;Node3</title>
<path fill="none" stroke="#63b8ff" d="M170.24,-54.54C157.32,-45.75 140.84,-34.54 127.75,-25.63"/>
<polygon fill="#63b8ff" stroke="#63b8ff" points="129.99,-22.93 119.76,-20.2 126.06,-28.72 129.99,-22.93"/>
</g>
<!-- Node4 -->
<g id="node4" class="node">
<title>Node4</title>
<g id="a_node4"><a xlink:title=" ">
<polygon fill="#e0e0e0" stroke="#999999" points="229,-19 154,-19 154,0 229,0 229,-19"/>
<text text-anchor="middle" x="191.5" y="-7" font-family="Helvetica,sans-Serif" font-size="10.00">eSPI_Menu.h</text>
</a>
</g>
</g>
<!-- Node1&#45;&gt;Node4 -->
<g id="edge3" class="edge">
<title>Node1&#45;&gt;Node4</title>
<path fill="none" stroke="#63b8ff" d="M191.5,-54.54C191.5,-47.34 191.5,-38.53 191.5,-30.68"/>
<polygon fill="#63b8ff" stroke="#63b8ff" points="195,-30.69 191.5,-20.69 188,-30.69 195,-30.69"/>
</g>
<!-- Node5 -->
<g id="node5" class="node">
<title>Node5</title>
<g id="a_node5"><a xlink:href="App_8h.html" target="_top" xlink:title="Abstract base class for applications.">
<polygon fill="white" stroke="#666666" points="310,-19 247,-19 247,0 310,0 310,-19"/>
<text text-anchor="middle" x="278.5" y="-7" font-family="Helvetica,sans-Serif" font-size="10.00">core/App.h</text>
</a>
</g>
</g>
<!-- Node1&#45;&gt;Node5 -->
<g id="edge4" class="edge">
<title>Node1&#45;&gt;Node5</title>
<path fill="none" stroke="#63b8ff" d="M213.01,-54.54C226.08,-45.75 242.75,-34.54 255.99,-25.63"/>
<polygon fill="#63b8ff" stroke="#63b8ff" points="257.74,-28.68 264.09,-20.19 253.84,-22.87 257.74,-28.68"/>
</g>
<!-- Node6 -->
<g id="node6" class="node">
<title>Node6</title>
<g id="a_node6"><a xlink:title=" ">
<polygon fill="#e0e0e0" stroke="#999999" points="385,-19 328,-19 328,0 385,0 385,-19"/>
<text text-anchor="middle" x="356.5" y="-7" font-family="Helvetica,sans-Serif" font-size="10.00">ctTimer.h</text>
</a>
</g>
</g>
<!-- Node1&#45;&gt;Node6 -->
<g id="edge5" class="edge">
<title>Node1&#45;&gt;Node6</title>
<path fill="none" stroke="#63b8ff" d="M232.29,-54.54C259.51,-44.89 294.95,-32.32 321.01,-23.08"/>
<polygon fill="#63b8ff" stroke="#63b8ff" points="321.87,-26.49 330.12,-19.85 319.53,-19.89 321.87,-26.49"/>
</g>
</g>
</svg>
