<?xml version="1.0" encoding="UTF-8" standalone="no"?>
<!DOCTYPE svg PUBLIC "-//W3C//DTD SVG 1.1//EN"
 "http://www.w3.org/Graphics/SVG/1.1/DTD/svg11.dtd">
<!-- Generated by graphviz version 12.2.0 (20241103.1931)
 -->
<!-- Title: src/apps/PomodoroApp/PomodoroApp.cpp Pages: 1 -->
<!--zoomable 149 -->

<svg id="main" version="1.1" xmlns="http://www.w3.org/2000/svg" xmlns:xlink="http://www.w3.org/1999/xlink" xml:space="preserve" onload="init(evt)">

<style type="text/css"><![CDATA[
.node, .edge {opacity: 0.7;}
.node.selected, .edge.selected {opacity: 1;}
.edge:hover path { stroke: red; }
.edge:hover polygon { stroke: red; fill: red; }
]]></style>

<defs>
  <circle id="rim" cx="0" cy="0" r="7"/>
  <circle id="rim2" cx="0" cy="0" r="3.5"/>
  <g id="zoomPlus">
    <use xlink:href="#rim" fill="#404040"><set attributeName="fill" to="#808080" begin="zoomplus.mouseover" end="zoomplus.mouseout"/></use>
    <path d="M-4,0h8M0,-4v8" fill="none" stroke="white" stroke-width="1.5" pointer-events="none"/>
  </g>
  <g id="zoomMin">
    <use xlink:href="#rim" fill="#404040"><set attributeName="fill" to="#808080" begin="zoomminus.mouseover" end="zoomminus.mouseout"/></use>
    <path d="M-4,0h8" fill="none" stroke="white" stroke-width="1.5" pointer-events="none"/>
  </g>
  <g id="arrowUp" transform="translate(30 24)">
    <use xlink:href="#rim"/>
    <path pointer-events="none" fill="none" stroke="white" stroke-width="1.5" d="M0,-3.0v7 M-2.5,-0.5L0,-3.0L2.5,-0.5"/>
  </g>
  <g id="arrowRight" transform="rotate(90) translate(36 -43)">
    <use xlink:href="#rim"/>
    <path pointer-events="none" fill="none" stroke="white" stroke-width="1.5" d="M0,-3.0v7 M-2.5,-0.5L0,-3.0L2.5,-0.5"/>
  </g>
  <g id="arrowDown" transform="rotate(180) translate(-30 -48)">
    <use xlink:href="#rim"/>
    <path pointer-events="none" fill="none" stroke="white" stroke-width="1.5" d="M0,-3.0v7 M-2.5,-0.5L0,-3.0L2.5,-0.5"/>
  </g>
  <g id="arrowLeft" transform="rotate(270) translate(-36 17)">
    <use xlink:href="#rim"/>
    <path pointer-events="none" fill="none" stroke="white" stroke-width="1.5" d="M0,-3.0v7 M-2.5,-0.5L0,-3.0L2.5,-0.5"/>
  </g>
  <g id="resetDef">
    <use xlink:href="#rim2" fill="#404040"><set attributeName="fill" to="#808080" begin="reset.mouseover" end="reset.mouseout"/></use>
  </g>
</defs>
<script type="application/ecmascript">
var viewWidth = 611;
var viewHeight = 149;
var sectionId = 'dynsection-0';
</script>
<script type="application/ecmascript" xlink:href="svg.min.js"/>
<svg id="graph" class="graph">
<g id="viewport">
<title>src/apps/PomodoroApp/PomodoroApp.cpp</title>
<!-- Node1 -->
<g id="Node000001" class="node">
<title>Node1</title>
<g id="a_Node000001"><a xlink:title=" ">
<polygon fill="#999999" stroke="#666666" points="330.88,-141 212.88,-141 212.88,-110.5 330.88,-110.5 330.88,-141"/>
<text text-anchor="start" x="220.88" y="-127.5" font-family="Helvetica,sans-Serif" font-size="10.00">src/apps/PomodoroApp</text>
<text text-anchor="middle" x="271.88" y="-116.25" font-family="Helvetica,sans-Serif" font-size="10.00">/PomodoroApp.cpp</text>
</a>
</g>
</g>
<!-- Node2 -->
<g id="Node000002" class="node">
<title>Node2</title>
<g id="a_Node000002"><a xlink:href="PomodoroApp_8h.html" target="_top" xlink:title=" ">
<polygon fill="white" stroke="#666666" points="385.38,-74.5 300.38,-74.5 300.38,-55.25 385.38,-55.25 385.38,-74.5"/>
<text text-anchor="middle" x="342.88" y="-61" font-family="Helvetica,sans-Serif" font-size="10.00">PomodoroApp.h</text>
</a>
</g>
</g>
<!-- Node1&#45;&gt;Node2 -->
<g id="edge1_Node000001_Node000002" class="edge">
<title>Node1&#45;&gt;Node2</title>
<g id="a_edge1_Node000001_Node000002"><a xlink:title=" ">
<path fill="none" stroke="#63b8ff" d="M289.43,-110.2C299.72,-101.66 312.74,-90.87 323.35,-82.06"/>
<polygon fill="#63b8ff" stroke="#63b8ff" points="325.3,-84.99 330.76,-75.92 320.83,-79.61 325.3,-84.99"/>
</a>
</g>
</g>
<!-- Node3 -->
<g id="Node000003" class="node">
<title>Node3</title>
<g id="a_Node000003"><a xlink:title=" ">
<polygon fill="#e0e0e0" stroke="#999999" points="189.12,-19.25 132.62,-19.25 132.62,0 189.12,0 189.12,-19.25"/>
<text text-anchor="middle" x="160.88" y="-5.75" font-family="Helvetica,sans-Serif" font-size="10.00">Arduino.h</text>
</a>
</g>
</g>
<!-- Node1&#45;&gt;Node3 -->
<g id="edge7_Node000001_Node000003" class="edge">
<title>Node1&#45;&gt;Node3</title>
<g id="a_edge7_Node000001_Node000003"><a xlink:title=" ">
<path fill="none" stroke="#63b8ff" d="M261.27,-110.22C250.36,-95.66 232.5,-72.94 214.88,-55.25 204.62,-44.96 192.18,-34.56 181.83,-26.39"/>
<polygon fill="#63b8ff" stroke="#63b8ff" points="184.28,-23.86 174.22,-20.51 179.99,-29.39 184.28,-23.86"/>
</a>
</g>
</g>
<!-- Node4 -->
<g id="Node000004" class="node">
<title>Node4</title>
<g id="a_Node000004"><a xlink:title=" ">
<polygon fill="#e0e0e0" stroke="#999999" points="266.62,-19.25 207.12,-19.25 207.12,0 266.62,0 266.62,-19.25"/>
<text text-anchor="middle" x="236.88" y="-5.75" font-family="Helvetica,sans-Serif" font-size="10.00">DigiFont.h</text>
</a>
</g>
</g>
<!-- Node1&#45;&gt;Node4 -->
<g id="edge8_Node000001_Node000004" class="edge">
<title>Node1&#45;&gt;Node4</title>
<g id="a_edge8_Node000001_Node000004"><a xlink:title=" ">
<path fill="none" stroke="#63b8ff" d="M267.44,-110.3C261.24,-90.06 249.94,-53.22 242.95,-30.44"/>
<polygon fill="#63b8ff" stroke="#63b8ff" points="246.38,-29.68 240.1,-21.15 239.69,-31.73 246.38,-29.68"/>
</a>
</g>
</g>
<!-- Node7 -->
<g id="Node000007" class="node">
<title>Node7</title>
<g id="a_Node000007"><a xlink:title=" ">
<polygon fill="#e0e0e0" stroke="#999999" points="515.12,-19.25 458.62,-19.25 458.62,0 515.12,0 515.12,-19.25"/>
<text text-anchor="middle" x="486.88" y="-5.75" font-family="Helvetica,sans-Serif" font-size="10.00">ctTimer.h</text>
</a>
</g>
</g>
<!-- Node1&#45;&gt;Node7 -->
<g id="edge9_Node000001_Node000007" class="edge">
<title>Node1&#45;&gt;Node7</title>
<g id="a_edge9_Node000001_Node000007"><a xlink:title=" ">
<path fill="none" stroke="#63b8ff" d="M314.2,-110.08C338.42,-101.05 369.03,-88.53 394.88,-74.5 420.97,-60.33 448.67,-40.34 466.78,-26.51"/>
<polygon fill="#63b8ff" stroke="#63b8ff" points="468.82,-29.35 474.58,-20.46 464.53,-23.82 468.82,-29.35"/>
</a>
</g>
</g>
<!-- Node8 -->
<g id="Node000008" class="node">
<title>Node8</title>
<g id="a_Node000008"><a xlink:href="Button_8h.html" target="_top" xlink:title=" ">
<polygon fill="white" stroke="#666666" points="593.25,-74.5 498.5,-74.5 498.5,-55.25 593.25,-55.25 593.25,-74.5"/>
<text text-anchor="middle" x="545.88" y="-61" font-family="Helvetica,sans-Serif" font-size="10.00">hardware/Button.h</text>
</a>
</g>
</g>
<!-- Node1&#45;&gt;Node8 -->
<g id="edge10_Node000001_Node000008" class="edge">
<title>Node1&#45;&gt;Node8</title>
<g id="a_edge10_Node000001_Node000008"><a xlink:title=" ">
<path fill="none" stroke="#63b8ff" d="M331.33,-111.98C379.31,-101.66 446.22,-87.29 492.5,-77.34"/>
<polygon fill="#63b8ff" stroke="#63b8ff" points="492.99,-80.82 502.03,-75.3 491.52,-73.98 492.99,-80.82"/>
</a>
</g>
</g>
<!-- Node10 -->
<g id="Node000010" class="node">
<title>Node10</title>
<g id="a_Node000010"><a xlink:href="Display_8h.html" target="_top" xlink:title=" ">
<polygon fill="white" stroke="#666666" points="97.75,-74.5 0,-74.5 0,-55.25 97.75,-55.25 97.75,-74.5"/>
<text text-anchor="middle" x="48.88" y="-61" font-family="Helvetica,sans-Serif" font-size="10.00">hardware/Display.h</text>
</a>
</g>
</g>
<!-- Node1&#45;&gt;Node10 -->
<g id="edge12_Node000001_Node000010" class="edge">
<title>Node1&#45;&gt;Node10</title>
<g id="a_edge12_Node000001_Node000010"><a xlink:title=" ">
<path fill="none" stroke="#63b8ff" d="M216.18,-110.05C178.58,-100.12 129.57,-87.18 94.33,-77.88"/>
<polygon fill="#63b8ff" stroke="#63b8ff" points="95.43,-74.55 84.87,-75.38 93.64,-81.31 95.43,-74.55"/>
</a>
</g>
</g>
<!-- Node12 -->
<g id="Node000012" class="node">
<title>Node12</title>
<g id="a_Node000012"><a xlink:href="Piezo_8h.html" target="_top" xlink:title=" ">
<polygon fill="white" stroke="#666666" points="206,-74.5 115.75,-74.5 115.75,-55.25 206,-55.25 206,-74.5"/>
<text text-anchor="middle" x="160.88" y="-61" font-family="Helvetica,sans-Serif" font-size="10.00">hardware/Piezo.h</text>
</a>
</g>
</g>
<!-- Node1&#45;&gt;Node12 -->
<g id="edge15_Node000001_Node000012" class="edge">
<title>Node1&#45;&gt;Node12</title>
<g id="a_edge15_Node000001_Node000012"><a xlink:title=" ">
<path fill="none" stroke="#63b8ff" d="M244.15,-110.05C226.92,-100.91 204.88,-89.22 187.8,-80.16"/>
<polygon fill="#63b8ff" stroke="#63b8ff" points="189.71,-77.21 179.23,-75.61 186.43,-83.39 189.71,-77.21"/>
</a>
</g>
</g>
<!-- Node2&#45;&gt;Node3 -->
<g id="edge2_Node000002_Node000003" class="edge">
<title>Node2&#45;&gt;Node3</title>
<g id="a_edge2_Node000002_Node000003"><a xlink:title=" ">
<path fill="none" stroke="#63b8ff" d="M312,-54.84C281.2,-45.83 233.78,-31.95 200.28,-22.15"/>
<polygon fill="#63b8ff" stroke="#63b8ff" points="201.53,-18.87 190.95,-19.42 199.56,-25.59 201.53,-18.87"/>
</a>
</g>
</g>
<!-- Node2&#45;&gt;Node4 -->
<g id="edge3_Node000002_Node000004" class="edge">
<title>Node2&#45;&gt;Node4</title>
<g id="a_edge3_Node000002_Node000004"><a xlink:title=" ">
<path fill="none" stroke="#63b8ff" d="M324.89,-54.84C308.52,-46.62 284.09,-34.34 265.11,-24.81"/>
<polygon fill="#63b8ff" stroke="#63b8ff" points="266.8,-21.74 256.3,-20.38 263.66,-28 266.8,-21.74"/>
</a>
</g>
</g>
<!-- Node5 -->
<g id="Node000005" class="node">
<title>Node5</title>
<g id="a_Node000005"><a xlink:title=" ">
<polygon fill="#e0e0e0" stroke="#999999" points="440.12,-19.25 365.62,-19.25 365.62,0 440.12,0 440.12,-19.25"/>
<text text-anchor="middle" x="402.88" y="-5.75" font-family="Helvetica,sans-Serif" font-size="10.00">eSPI_Menu.h</text>
</a>
</g>
</g>
<!-- Node2&#45;&gt;Node5 -->
<g id="edge4_Node000002_Node000005" class="edge">
<title>Node2&#45;&gt;Node5</title>
<g id="a_edge4_Node000002_Node000005"><a xlink:title=" ">
<path fill="none" stroke="#63b8ff" d="M353.05,-54.84C361.64,-47.22 374.14,-36.12 384.48,-26.95"/>
<polygon fill="#63b8ff" stroke="#63b8ff" points="386.56,-29.79 391.72,-20.53 381.91,-24.55 386.56,-29.79"/>
</a>
</g>
</g>
<!-- Node6 -->
<g id="Node000006" class="node">
<title>Node6</title>
<g id="a_Node000006"><a xlink:href="App_8h.html" target="_top" xlink:title="Abstract base class for applications.">
<polygon fill="white" stroke="#666666" points="347.12,-19.25 284.62,-19.25 284.62,0 347.12,0 347.12,-19.25"/>
<text text-anchor="middle" x="315.88" y="-5.75" font-family="Helvetica,sans-Serif" font-size="10.00">core/App.h</text>
</a>
</g>
</g>
<!-- Node2&#45;&gt;Node6 -->
<g id="edge5_Node000002_Node000006" class="edge">
<title>Node2&#45;&gt;Node6</title>
<g id="a_edge5_Node000002_Node000006"><a xlink:title=" ">
<path fill="none" stroke="#63b8ff" d="M338.42,-55.08C334.92,-48.19 329.93,-38.34 325.53,-29.66"/>
<polygon fill="#63b8ff" stroke="#63b8ff" points="328.76,-28.3 321.11,-20.96 322.52,-31.46 328.76,-28.3"/>
</a>
</g>
</g>
<!-- Node2&#45;&gt;Node7 -->
<g id="edge6_Node000002_Node000007" class="edge">
<title>Node2&#45;&gt;Node7</title>
<g id="a_edge6_Node000002_Node000007"><a xlink:title=" ">
<path fill="none" stroke="#63b8ff" d="M367.3,-54.84C390.47,-46.27 425.54,-33.31 451.71,-23.63"/>
<polygon fill="#63b8ff" stroke="#63b8ff" points="452.74,-26.98 460.91,-20.23 450.31,-20.41 452.74,-26.98"/>
</a>
</g>
</g>
<!-- Node9 -->
<g id="Node000009" class="node">
<title>Node9</title>
<g id="a_Node000009"><a xlink:title=" ">
<polygon fill="#e0e0e0" stroke="#999999" points="602.88,-19.25 532.88,-19.25 532.88,0 602.88,0 602.88,-19.25"/>
<text text-anchor="middle" x="567.88" y="-5.75" font-family="Helvetica,sans-Serif" font-size="10.00">OneButton.h</text>
</a>
</g>
</g>
<!-- Node8&#45;&gt;Node9 -->
<g id="edge11_Node000008_Node000009" class="edge">
<title>Node8&#45;&gt;Node9</title>
<g id="a_edge11_Node000008_Node000009"><a xlink:title=" ">
<path fill="none" stroke="#63b8ff" d="M549.51,-55.08C552.29,-48.34 556.25,-38.77 559.77,-30.24"/>
<polygon fill="#63b8ff" stroke="#63b8ff" points="563,-31.59 563.59,-21.01 556.53,-28.91 563,-31.59"/>
</a>
</g>
</g>
<!-- Node10&#45;&gt;Node3 -->
<g id="edge13_Node000010_Node000003" class="edge">
<title>Node10&#45;&gt;Node3</title>
<g id="a_edge13_Node000010_Node000003"><a xlink:title=" ">
<path fill="none" stroke="#63b8ff" d="M67.87,-54.84C85.33,-46.54 111.47,-34.11 131.6,-24.54"/>
<polygon fill="#63b8ff" stroke="#63b8ff" points="132.89,-27.81 140.42,-20.35 129.88,-21.49 132.89,-27.81"/>
</a>
</g>
</g>
<!-- Node11 -->
<g id="Node000011" class="node">
<title>Node11</title>
<g id="a_Node000011"><a xlink:title=" ">
<polygon fill="#e0e0e0" stroke="#999999" points="83.12,-19.25 14.62,-19.25 14.62,0 83.12,0 83.12,-19.25"/>
<text text-anchor="middle" x="48.88" y="-5.75" font-family="Helvetica,sans-Serif" font-size="10.00">TFT_eSPI.h</text>
</a>
</g>
</g>
<!-- Node10&#45;&gt;Node11 -->
<g id="edge14_Node000010_Node000011" class="edge">
<title>Node10&#45;&gt;Node11</title>
<g id="a_edge14_Node000010_Node000011"><a xlink:title=" ">
<path fill="none" stroke="#63b8ff" d="M48.88,-55.08C48.88,-48.57 48.88,-39.42 48.88,-31.12"/>
<polygon fill="#63b8ff" stroke="#63b8ff" points="52.38,-31.12 48.88,-21.12 45.38,-31.12 52.38,-31.12"/>
</a>
</g>
</g>
<!-- Node12&#45;&gt;Node3 -->
<g id="edge16_Node000012_Node000003" class="edge">
<title>Node12&#45;&gt;Node3</title>
<g id="a_edge16_Node000012_Node000003"><a xlink:title=" ">
<path fill="none" stroke="#63b8ff" d="M160.88,-55.08C160.88,-48.57 160.88,-39.42 160.88,-31.12"/>
<polygon fill="#63b8ff" stroke="#63b8ff" points="164.38,-31.12 160.88,-21.12 157.38,-31.12 164.38,-31.12"/>
</a>
</g>
</g>
</g>
</svg>

<g id="navigator" transform="translate(0 0)" fill="#404254">
  <rect fill="#f2f5e9" fill-opacity="0.5" stroke="#606060" stroke-width=".5" x="0" y="0" width="60" height="60"/>
  <use id="zoomplus" xlink:href="#zoomPlus" x="17" y="9" onmousedown="handleZoom(evt,'in')"/>
  <use id="zoomminus" xlink:href="#zoomMin" x="42" y="9" onmousedown="handleZoom(evt,'out')"/>
  <use id="reset" xlink:href="#resetDef" x="30" y="36" onmousedown="handleReset()"/>
   <use id="arrowup" xlink:href="#arrowUp" x="0" y="0" onmousedown="handlePan(0,-1)"/>
  <use id="arrowright" xlink:href="#arrowRight" x="0" y="0" onmousedown="handlePan(1,0)"/>
  <use id="arrowdown" xlink:href="#arrowDown" x="0" y="0" onmousedown="handlePan(0,1)"/>
  <use id="arrowleft" xlink:href="#arrowLeft" x="0" y="0" onmousedown="handlePan(-1,0)"/>
</g>
<svg viewBox="0 0 15 15" width="100%" height="30px" preserveAspectRatio="xMaxYMin meet">
 <g id="arrow_out" transform="scale(0.3 0.3)">
  <a xlink:href="PomodoroApp_8cpp__incl_org.svg" target="_base">
   <rect id="button" ry="5" rx="5" y="6" x="6" height="38" width="38"
        fill="#f2f5e9" fill-opacity="0.5" stroke="#606060" stroke-width="1.0"/>
   <path id="arrow"
     d="M 11.500037,31.436501 C 11.940474,20.09759 22.043105,11.32322 32.158766,21.979434 L 37.068811,17.246167 C 37.068811,17.246167 37.088388,32 37.088388,32 L 22.160133,31.978069 C 22.160133,31.978069 26.997745,27.140456 26.997745,27.140456 C 18.528582,18.264221 13.291696,25.230495 11.500037,31.436501 z"
     style="fill:#404040;"/>
  </a>
 </g>
</svg>

<style type='text/css'>
<![CDATA[
[data-mouse-over-selected='false'] { opacity: 0.7; }
[data-mouse-over-selected='true']  { opacity: 1.0; }
]]>
</style>
<script type="application/ecmascript"><![CDATA[
document.addEventListener('DOMContentLoaded', (event) => {
  highlightEdges();
  highlightAdjacentNodes();
});
]]></script>
</svg>
