<?xml version="1.0" encoding="UTF-8" standalone="no"?>
<!DOCTYPE svg PUBLIC "-//W3C//DTD SVG 1.1//EN"
 "http://www.w3.org/Graphics/SVG/1.1/DTD/svg11.dtd">
<!-- Generated by graphviz version 7.0.5 (20221223.1930)
 -->
<!-- Title: src/apps/PomodoroApp/PomodoroApp.cpp Pages: 1 -->
<svg width="616pt" height="148pt"
 viewBox="0.00 0.00 615.50 148.00" xmlns="http://www.w3.org/2000/svg" xmlns:xlink="http://www.w3.org/1999/xlink">
<g id="graph0" class="graph" transform="scale(1 1) rotate(0) translate(4 144)">
<title>src/apps/PomodoroApp/PomodoroApp.cpp</title>
<!-- Node1 -->
<g id="node1" class="node">
<title>Node1</title>
<g id="a_node1"><a xlink:title=" ">
<polygon fill="#999999" stroke="#666666" points="333.5,-140 214.5,-140 214.5,-110 333.5,-110 333.5,-140"/>
<text text-anchor="start" x="222.5" y="-128" font-family="Helvetica,sans-Serif" font-size="10.00">src/apps/PomodoroApp</text>
<text text-anchor="middle" x="274" y="-117" font-family="Helvetica,sans-Serif" font-size="10.00">/PomodoroApp.cpp</text>
</a>
</g>
</g>
<!-- Node2 -->
<g id="node2" class="node">
<title>Node2</title>
<g id="a_node2"><a xlink:href="PomodoroApp_8h.html" target="_top" xlink:title=" ">
<polygon fill="white" stroke="#666666" points="388,-74 302,-74 302,-55 388,-55 388,-74"/>
<text text-anchor="middle" x="345" y="-62" font-family="Helvetica,sans-Serif" font-size="10.00">PomodoroApp.h</text>
</a>
</g>
</g>
<!-- Node1&#45;&gt;Node2 -->
<g id="edge1" class="edge">
<title>Node1&#45;&gt;Node2</title>
<path fill="none" stroke="#63b8ff" d="M291.55,-109.54C301.97,-100.96 315.18,-90.07 325.87,-81.26"/>
<polygon fill="#63b8ff" stroke="#63b8ff" points="327.81,-84.2 333.3,-75.14 323.36,-78.8 327.81,-84.2"/>
</g>
<!-- Node3 -->
<g id="node3" class="node">
<title>Node3</title>
<g id="a_node3"><a xlink:title=" ">
<polygon fill="#e0e0e0" stroke="#999999" points="190.5,-19 133.5,-19 133.5,0 190.5,0 190.5,-19"/>
<text text-anchor="middle" x="162" y="-7" font-family="Helvetica,sans-Serif" font-size="10.00">Arduino.h</text>
</a>
</g>
</g>
<!-- Node1&#45;&gt;Node3 -->
<g id="edge7" class="edge">
<title>Node1&#45;&gt;Node3</title>
<path fill="none" stroke="#63b8ff" d="M263.15,-109.6C252,-95.17 233.79,-72.62 216,-55 205.69,-44.79 193.25,-34.42 182.9,-26.26"/>
<polygon fill="#63b8ff" stroke="#63b8ff" points="185.36,-23.74 175.31,-20.39 181.08,-29.28 185.36,-23.74"/>
</g>
<!-- Node4 -->
<g id="node4" class="node">
<title>Node4</title>
<g id="a_node4"><a xlink:title=" ">
<polygon fill="#e0e0e0" stroke="#999999" points="269,-19 209,-19 209,0 269,0 269,-19"/>
<text text-anchor="middle" x="239" y="-7" font-family="Helvetica,sans-Serif" font-size="10.00">DigiFont.h</text>
</a>
</g>
</g>
<!-- Node1&#45;&gt;Node4 -->
<g id="edge8" class="edge">
<title>Node1&#45;&gt;Node4</title>
<path fill="none" stroke="#63b8ff" d="M269.57,-109.63C263.36,-89.49 252.05,-52.83 245.07,-30.18"/>
<polygon fill="#63b8ff" stroke="#63b8ff" points="248.43,-29.2 242.14,-20.68 241.74,-31.26 248.43,-29.2"/>
</g>
<!-- Node7 -->
<g id="node7" class="node">
<title>Node7</title>
<g id="a_node7"><a xlink:title=" ">
<polygon fill="#e0e0e0" stroke="#999999" points="518.5,-19 461.5,-19 461.5,0 518.5,0 518.5,-19"/>
<text text-anchor="middle" x="490" y="-7" font-family="Helvetica,sans-Serif" font-size="10.00">ctTimer.h</text>
</a>
</g>
</g>
<!-- Node1&#45;&gt;Node7 -->
<g id="edge9" class="edge">
<title>Node1&#45;&gt;Node7</title>
<path fill="none" stroke="#63b8ff" d="M315.72,-109.57C340.01,-100.55 370.9,-88.01 397,-74 423.31,-59.88 451.32,-40.01 469.65,-26.27"/>
<polygon fill="#63b8ff" stroke="#63b8ff" points="471.71,-29.1 477.55,-20.26 467.47,-23.53 471.71,-29.1"/>
</g>
<!-- Node8 -->
<g id="node8" class="node">
<title>Node8</title>
<g id="a_node8"><a xlink:href="Button_8h.html" target="_top" xlink:title=" ">
<polygon fill="white" stroke="#666666" points="597.5,-74 502.5,-74 502.5,-55 597.5,-55 597.5,-74"/>
<text text-anchor="middle" x="550" y="-62" font-family="Helvetica,sans-Serif" font-size="10.00">hardware/Button.h</text>
</a>
</g>
</g>
<!-- Node1&#45;&gt;Node8 -->
<g id="edge10" class="edge">
<title>Node1&#45;&gt;Node8</title>
<path fill="none" stroke="#63b8ff" d="M333.89,-111.31C382.37,-101.03 450.03,-86.69 496.66,-76.81"/>
<polygon fill="#63b8ff" stroke="#63b8ff" points="497.21,-80.27 506.27,-74.77 495.76,-73.42 497.21,-80.27"/>
</g>
<!-- Node10 -->
<g id="node10" class="node">
<title>Node10</title>
<g id="a_node10"><a xlink:href="Display_8h.html" target="_top" xlink:title=" ">
<polygon fill="white" stroke="#666666" points="98,-74 0,-74 0,-55 98,-55 98,-74"/>
<text text-anchor="middle" x="49" y="-62" font-family="Helvetica,sans-Serif" font-size="10.00">hardware/Display.h</text>
</a>
</g>
</g>
<!-- Node1&#45;&gt;Node10 -->
<g id="edge12" class="edge">
<title>Node1&#45;&gt;Node10</title>
<path fill="none" stroke="#63b8ff" d="M218.38,-109.54C180.22,-99.62 130.2,-86.61 94.43,-77.31"/>
<polygon fill="#63b8ff" stroke="#63b8ff" points="95.38,-73.94 84.82,-74.81 93.62,-80.72 95.38,-73.94"/>
</g>
<!-- Node12 -->
<g id="node12" class="node">
<title>Node12</title>
<g id="a_node12"><a xlink:href="Piezo_8h.html" target="_top" xlink:title=" ">
<polygon fill="white" stroke="#666666" points="207.5,-74 116.5,-74 116.5,-55 207.5,-55 207.5,-74"/>
<text text-anchor="middle" x="162" y="-62" font-family="Helvetica,sans-Serif" font-size="10.00">hardware/Piezo.h</text>
</a>
</g>
</g>
<!-- Node1&#45;&gt;Node12 -->
<g id="edge15" class="edge">
<title>Node1&#45;&gt;Node12</title>
<path fill="none" stroke="#63b8ff" d="M246.31,-109.54C228.83,-100.4 206.34,-88.66 188.99,-79.6"/>
<polygon fill="#63b8ff" stroke="#63b8ff" points="190.76,-76.57 180.28,-75.05 187.52,-82.78 190.76,-76.57"/>
</g>
<!-- Node2&#45;&gt;Node3 -->
<g id="edge2" class="edge">
<title>Node2&#45;&gt;Node3</title>
<path fill="none" stroke="#63b8ff" d="M313.96,-54.51C282.99,-45.54 235.3,-31.73 201.62,-21.97"/>
<polygon fill="#63b8ff" stroke="#63b8ff" points="202.81,-18.68 192.23,-19.26 200.86,-25.4 202.81,-18.68"/>
</g>
<!-- Node2&#45;&gt;Node4 -->
<g id="edge3" class="edge">
<title>Node2&#45;&gt;Node4</title>
<path fill="none" stroke="#63b8ff" d="M327.02,-54.51C310.55,-46.27 285.91,-33.96 266.89,-24.45"/>
<polygon fill="#63b8ff" stroke="#63b8ff" points="268.58,-21.38 258.07,-20.03 265.45,-27.64 268.58,-21.38"/>
</g>
<!-- Node5 -->
<g id="node5" class="node">
<title>Node5</title>
<g id="a_node5"><a xlink:title=" ">
<polygon fill="#e0e0e0" stroke="#999999" points="443.5,-19 368.5,-19 368.5,0 443.5,0 443.5,-19"/>
<text text-anchor="middle" x="406" y="-7" font-family="Helvetica,sans-Serif" font-size="10.00">eSPI_Menu.h</text>
</a>
</g>
</g>
<!-- Node2&#45;&gt;Node5 -->
<g id="edge4" class="edge">
<title>Node2&#45;&gt;Node5</title>
<path fill="none" stroke="#63b8ff" d="M355.35,-54.51C364.08,-46.93 376.79,-35.88 387.3,-26.75"/>
<polygon fill="#63b8ff" stroke="#63b8ff" points="389.41,-29.55 394.66,-20.35 384.82,-24.27 389.41,-29.55"/>
</g>
<!-- Node6 -->
<g id="node6" class="node">
<title>Node6</title>
<g id="a_node6"><a xlink:href="App_8h.html" target="_top" xlink:title="Abstract base class for applications.">
<polygon fill="white" stroke="#666666" points="350.5,-19 287.5,-19 287.5,0 350.5,0 350.5,-19"/>
<text text-anchor="middle" x="319" y="-7" font-family="Helvetica,sans-Serif" font-size="10.00">core/App.h</text>
</a>
</g>
</g>
<!-- Node2&#45;&gt;Node6 -->
<g id="edge5" class="edge">
<title>Node2&#45;&gt;Node6</title>
<path fill="none" stroke="#63b8ff" d="M340.71,-54.75C337.38,-47.96 332.64,-38.3 328.44,-29.73"/>
<polygon fill="#63b8ff" stroke="#63b8ff" points="331.6,-28.24 324.05,-20.8 325.32,-31.32 331.6,-28.24"/>
</g>
<!-- Node2&#45;&gt;Node7 -->
<g id="edge6" class="edge">
<title>Node2&#45;&gt;Node7</title>
<path fill="none" stroke="#63b8ff" d="M369.6,-54.51C393.07,-45.93 428.67,-32.92 455.07,-23.27"/>
<polygon fill="#63b8ff" stroke="#63b8ff" points="456.15,-26.6 464.34,-19.88 453.75,-20.02 456.15,-26.6"/>
</g>
<!-- Node9 -->
<g id="node9" class="node">
<title>Node9</title>
<g id="a_node9"><a xlink:title=" ">
<polygon fill="#e0e0e0" stroke="#999999" points="607.5,-19 536.5,-19 536.5,0 607.5,0 607.5,-19"/>
<text text-anchor="middle" x="572" y="-7" font-family="Helvetica,sans-Serif" font-size="10.00">OneButton.h</text>
</a>
</g>
</g>
<!-- Node8&#45;&gt;Node9 -->
<g id="edge11" class="edge">
<title>Node8&#45;&gt;Node9</title>
<path fill="none" stroke="#63b8ff" d="M553.63,-54.75C556.42,-48.04 560.37,-38.52 563.9,-30.02"/>
<polygon fill="#63b8ff" stroke="#63b8ff" points="567.11,-31.42 567.71,-20.84 560.64,-28.73 567.11,-31.42"/>
</g>
<!-- Node10&#45;&gt;Node3 -->
<g id="edge13" class="edge">
<title>Node10&#45;&gt;Node3</title>
<path fill="none" stroke="#63b8ff" d="M68.17,-54.51C85.89,-46.2 112.48,-33.73 132.83,-24.18"/>
<polygon fill="#63b8ff" stroke="#63b8ff" points="134.18,-27.42 141.74,-20 131.2,-21.08 134.18,-27.42"/>
</g>
<!-- Node11 -->
<g id="node11" class="node">
<title>Node11</title>
<g id="a_node11"><a xlink:title=" ">
<polygon fill="#e0e0e0" stroke="#999999" points="83.5,-19 14.5,-19 14.5,0 83.5,0 83.5,-19"/>
<text text-anchor="middle" x="49" y="-7" font-family="Helvetica,sans-Serif" font-size="10.00">TFT_eSPI.h</text>
</a>
</g>
</g>
<!-- Node10&#45;&gt;Node11 -->
<g id="edge14" class="edge">
<title>Node10&#45;&gt;Node11</title>
<path fill="none" stroke="#63b8ff" d="M49,-54.75C49,-48.27 49,-39.16 49,-30.9"/>
<polygon fill="#63b8ff" stroke="#63b8ff" points="52.5,-30.96 49,-20.96 45.5,-30.96 52.5,-30.96"/>
</g>
<!-- Node12&#45;&gt;Node3 -->
<g id="edge16" class="edge">
<title>Node12&#45;&gt;Node3</title>
<path fill="none" stroke="#63b8ff" d="M162,-54.75C162,-48.27 162,-39.16 162,-30.9"/>
<polygon fill="#63b8ff" stroke="#63b8ff" points="165.5,-30.96 162,-20.96 158.5,-30.96 165.5,-30.96"/>
</g>
</g>
</svg>
