<?xml version="1.0" encoding="UTF-8" standalone="no"?>
<!DOCTYPE svg PUBLIC "-//W3C//DTD SVG 1.1//EN"
 "http://www.w3.org/Graphics/SVG/1.1/DTD/svg11.dtd">
<!-- Generated by graphviz version 12.1.2 (0)
 -->
<!-- Title: src/apps/PomodoroApp/PomodoroApp.cpp Pages: 1 -->
<svg width="615pt" height="146pt"
 viewBox="0.00 0.00 614.62 146.00" xmlns="http://www.w3.org/2000/svg" xmlns:xlink="http://www.w3.org/1999/xlink">
<g id="graph0" class="graph" transform="scale(1 1) rotate(0) translate(4 142)">
<title>src/apps/PomodoroApp/PomodoroApp.cpp</title>
<!-- Node1 -->
<g id="Node000001" class="node">
<title>Node1</title>
<g id="a_Node000001"><a xlink:title=" ">
<polygon fill="#999999" stroke="#666666" points="331.25,-138 213.25,-138 213.25,-109 331.25,-109 331.25,-138"/>
<text text-anchor="start" x="221.25" y="-124.5" font-family="Helvetica,sans-Serif" font-size="10.00">src/apps/PomodoroApp</text>
<text text-anchor="middle" x="272.25" y="-114" font-family="Helvetica,sans-Serif" font-size="10.00">/PomodoroApp.cpp</text>
</a>
</g>
</g>
<!-- Node2 -->
<g id="Node000002" class="node">
<title>Node2</title>
<g id="a_Node000002"><a xlink:href="PomodoroApp_8h.html" target="_top" xlink:title=" ">
<polygon fill="white" stroke="#666666" points="386.12,-73 300.38,-73 300.38,-54.5 386.12,-54.5 386.12,-73"/>
<text text-anchor="middle" x="343.25" y="-59.5" font-family="Helvetica,sans-Serif" font-size="10.00">PomodoroApp.h</text>
</a>
</g>
</g>
<!-- Node1&#45;&gt;Node2 -->
<g id="edge1_Node000001_Node000002" class="edge">
<title>Node1&#45;&gt;Node2</title>
<g id="a_edge1_Node000001_Node000002"><a xlink:title=" ">
<path fill="none" stroke="#63b8ff" d="M289.44,-108.52C299.85,-100.05 313.15,-89.23 323.93,-80.47"/>
<polygon fill="#63b8ff" stroke="#63b8ff" points="325.89,-83.38 331.44,-74.36 321.47,-77.95 325.89,-83.38"/>
</a>
</g>
</g>
<!-- Node3 -->
<g id="Node000003" class="node">
<title>Node3</title>
<g id="a_Node000003"><a xlink:title=" ">
<polygon fill="#e0e0e0" stroke="#999999" points="189.88,-18.5 132.62,-18.5 132.62,0 189.88,0 189.88,-18.5"/>
<text text-anchor="middle" x="161.25" y="-5" font-family="Helvetica,sans-Serif" font-size="10.00">Arduino.h</text>
</a>
</g>
</g>
<!-- Node1&#45;&gt;Node3 -->
<g id="edge7_Node000001_Node000003" class="edge">
<title>Node1&#45;&gt;Node3</title>
<g id="a_edge7_Node000001_Node000003"><a xlink:title=" ">
<path fill="none" stroke="#63b8ff" d="M261.81,-108.56C250.88,-94.34 232.88,-71.94 215.25,-54.5 204.82,-44.19 192.19,-33.74 181.77,-25.59"/>
<polygon fill="#63b8ff" stroke="#63b8ff" points="184.21,-23.05 174.15,-19.74 179.95,-28.6 184.21,-23.05"/>
</a>
</g>
</g>
<!-- Node4 -->
<g id="Node000004" class="node">
<title>Node4</title>
<g id="a_Node000004"><a xlink:title=" ">
<polygon fill="#e0e0e0" stroke="#999999" points="268.38,-18.5 208.12,-18.5 208.12,0 268.38,0 268.38,-18.5"/>
<text text-anchor="middle" x="238.25" y="-5" font-family="Helvetica,sans-Serif" font-size="10.00">DigiFont.h</text>
</a>
</g>
</g>
<!-- Node1&#45;&gt;Node4 -->
<g id="edge8_Node000001_Node000004" class="edge">
<title>Node1&#45;&gt;Node4</title>
<g id="a_edge8_Node000001_Node000004"><a xlink:title=" ">
<path fill="none" stroke="#63b8ff" d="M268.08,-108.74C262.1,-88.98 251.04,-52.47 244.2,-29.89"/>
<polygon fill="#63b8ff" stroke="#63b8ff" points="247.58,-28.97 241.33,-20.41 240.88,-31 247.58,-28.97"/>
</a>
</g>
</g>
<!-- Node7 -->
<g id="Node000007" class="node">
<title>Node7</title>
<g id="a_Node000007"><a xlink:title=" ">
<polygon fill="#e0e0e0" stroke="#999999" points="517.88,-18.5 460.62,-18.5 460.62,0 517.88,0 517.88,-18.5"/>
<text text-anchor="middle" x="489.25" y="-5" font-family="Helvetica,sans-Serif" font-size="10.00">ctTimer.h</text>
</a>
</g>
</g>
<!-- Node1&#45;&gt;Node7 -->
<g id="edge9_Node000001_Node000007" class="edge">
<title>Node1&#45;&gt;Node7</title>
<g id="a_edge9_Node000001_Node000007"><a xlink:title=" ">
<path fill="none" stroke="#63b8ff" d="M312.79,-108.58C337.24,-99.61 368.68,-87.02 395.25,-73 421.75,-59.01 450.09,-39.38 468.64,-25.82"/>
<polygon fill="#63b8ff" stroke="#63b8ff" points="470.69,-28.65 476.64,-19.88 466.53,-23.03 470.69,-28.65"/>
</a>
</g>
</g>
<!-- Node8 -->
<g id="Node000008" class="node">
<title>Node8</title>
<g id="a_Node000008"><a xlink:href="Button_8h.html" target="_top" xlink:title=" ">
<polygon fill="white" stroke="#666666" points="595.62,-73 500.88,-73 500.88,-54.5 595.62,-54.5 595.62,-73"/>
<text text-anchor="middle" x="548.25" y="-59.5" font-family="Helvetica,sans-Serif" font-size="10.00">hardware/Button.h</text>
</a>
</g>
</g>
<!-- Node1&#45;&gt;Node8 -->
<g id="edge10_Node000001_Node000008" class="edge">
<title>Node1&#45;&gt;Node8</title>
<g id="a_edge10_Node000001_Node000008"><a xlink:title=" ">
<path fill="none" stroke="#63b8ff" d="M331.46,-110.11C380.19,-99.92 448.62,-85.6 495.49,-75.79"/>
<polygon fill="#63b8ff" stroke="#63b8ff" points="496.07,-79.24 505.14,-73.77 494.64,-72.39 496.07,-79.24"/>
</a>
</g>
</g>
<!-- Node10 -->
<g id="Node000010" class="node">
<title>Node10</title>
<g id="a_Node000010"><a xlink:href="Display_8h.html" target="_top" xlink:title=" ">
<polygon fill="white" stroke="#666666" points="98.5,-73 0,-73 0,-54.5 98.5,-54.5 98.5,-73"/>
<text text-anchor="middle" x="49.25" y="-59.5" font-family="Helvetica,sans-Serif" font-size="10.00">hardware/Display.h</text>
</a>
</g>
</g>
<!-- Node1&#45;&gt;Node10 -->
<g id="edge12_Node000001_Node000010" class="edge">
<title>Node1&#45;&gt;Node10</title>
<g id="a_edge12_Node000001_Node000010"><a xlink:title=" ">
<path fill="none" stroke="#63b8ff" d="M218.27,-108.52C180.23,-98.67 129.9,-85.64 94.08,-76.36"/>
<polygon fill="#63b8ff" stroke="#63b8ff" points="95.02,-72.99 84.46,-73.87 93.26,-79.76 95.02,-72.99"/>
</a>
</g>
</g>
<!-- Node12 -->
<g id="Node000012" class="node">
<title>Node12</title>
<g id="a_Node000012"><a xlink:href="Piezo_8h.html" target="_top" xlink:title=" ">
<polygon fill="white" stroke="#666666" points="206.38,-73 116.12,-73 116.12,-54.5 206.38,-54.5 206.38,-73"/>
<text text-anchor="middle" x="161.25" y="-59.5" font-family="Helvetica,sans-Serif" font-size="10.00">hardware/Piezo.h</text>
</a>
</g>
</g>
<!-- Node1&#45;&gt;Node12 -->
<g id="edge15_Node000001_Node000012" class="edge">
<title>Node1&#45;&gt;Node12</title>
<g id="a_edge15_Node000001_Node000012"><a xlink:title=" ">
<path fill="none" stroke="#63b8ff" d="M245.38,-108.52C227.95,-99.45 205.34,-87.69 187.94,-78.64"/>
<polygon fill="#63b8ff" stroke="#63b8ff" points="189.71,-75.61 179.23,-74.1 186.48,-81.82 189.71,-75.61"/>
</a>
</g>
</g>
<!-- Node2&#45;&gt;Node3 -->
<g id="edge2_Node000002_Node000003" class="edge">
<title>Node2&#45;&gt;Node3</title>
<g id="a_edge2_Node000002_Node000003"><a xlink:title=" ">
<path fill="none" stroke="#63b8ff" d="M313.2,-54.08C282.54,-45.24 234.79,-31.46 201.02,-21.72"/>
<polygon fill="#63b8ff" stroke="#63b8ff" points="202.18,-18.41 191.6,-19 200.24,-25.14 202.18,-18.41"/>
</a>
</g>
</g>
<!-- Node2&#45;&gt;Node4 -->
<g id="edge3_Node000002_Node000004" class="edge">
<title>Node2&#45;&gt;Node4</title>
<g id="a_edge3_Node000002_Node000004"><a xlink:title=" ">
<path fill="none" stroke="#63b8ff" d="M325.91,-54.08C309.57,-45.91 284.82,-33.54 265.79,-24.02"/>
<polygon fill="#63b8ff" stroke="#63b8ff" points="267.48,-20.95 256.97,-19.61 264.35,-27.21 267.48,-20.95"/>
</a>
</g>
</g>
<!-- Node5 -->
<g id="Node000005" class="node">
<title>Node5</title>
<g id="a_Node000005"><a xlink:title=" ">
<polygon fill="#e0e0e0" stroke="#999999" points="442.5,-18.5 368,-18.5 368,0 442.5,0 442.5,-18.5"/>
<text text-anchor="middle" x="405.25" y="-5" font-family="Helvetica,sans-Serif" font-size="10.00">eSPI_Menu.h</text>
</a>
</g>
</g>
<!-- Node2&#45;&gt;Node5 -->
<g id="edge4_Node000002_Node000005" class="edge">
<title>Node2&#45;&gt;Node5</title>
<g id="a_edge4_Node000002_Node000005"><a xlink:title=" ">
<path fill="none" stroke="#63b8ff" d="M353.49,-54.08C362.43,-46.51 375.63,-35.33 386.46,-26.16"/>
<polygon fill="#63b8ff" stroke="#63b8ff" points="388.68,-28.87 394.05,-19.74 384.15,-23.53 388.68,-28.87"/>
</a>
</g>
</g>
<!-- Node6 -->
<g id="Node000006" class="node">
<title>Node6</title>
<g id="a_Node000006"><a xlink:href="App_8h.html" target="_top" xlink:title="Abstract base class for applications.">
<polygon fill="white" stroke="#666666" points="349.88,-18.5 286.62,-18.5 286.62,0 349.88,0 349.88,-18.5"/>
<text text-anchor="middle" x="318.25" y="-5" font-family="Helvetica,sans-Serif" font-size="10.00">core/App.h</text>
</a>
</g>
</g>
<!-- Node2&#45;&gt;Node6 -->
<g id="edge5_Node000002_Node000006" class="edge">
<title>Node2&#45;&gt;Node6</title>
<g id="a_edge5_Node000002_Node000006"><a xlink:title=" ">
<path fill="none" stroke="#63b8ff" d="M339.12,-54.08C335.88,-47.28 331.25,-37.56 327.18,-29"/>
<polygon fill="#63b8ff" stroke="#63b8ff" points="330.41,-27.65 322.95,-20.12 324.09,-30.66 330.41,-27.65"/>
</a>
</g>
</g>
<!-- Node2&#45;&gt;Node7 -->
<g id="edge6_Node000002_Node000007" class="edge">
<title>Node2&#45;&gt;Node7</title>
<g id="a_edge6_Node000002_Node000007"><a xlink:title=" ">
<path fill="none" stroke="#63b8ff" d="M367.36,-54.08C391.13,-45.53 427.72,-32.38 454.6,-22.71"/>
<polygon fill="#63b8ff" stroke="#63b8ff" points="455.46,-26.12 463.68,-19.44 453.09,-19.53 455.46,-26.12"/>
</a>
</g>
</g>
<!-- Node9 -->
<g id="Node000009" class="node">
<title>Node9</title>
<g id="a_Node000009"><a xlink:title=" ">
<polygon fill="#e0e0e0" stroke="#999999" points="606.62,-18.5 535.88,-18.5 535.88,0 606.62,0 606.62,-18.5"/>
<text text-anchor="middle" x="571.25" y="-5" font-family="Helvetica,sans-Serif" font-size="10.00">OneButton.h</text>
</a>
</g>
</g>
<!-- Node8&#45;&gt;Node9 -->
<g id="edge11_Node000008_Node000009" class="edge">
<title>Node8&#45;&gt;Node9</title>
<g id="a_edge11_Node000008_Node000009"><a xlink:title=" ">
<path fill="none" stroke="#63b8ff" d="M552.05,-54.08C555,-47.35 559.19,-37.77 562.91,-29.29"/>
<polygon fill="#63b8ff" stroke="#63b8ff" points="566.11,-30.71 566.92,-20.14 559.7,-27.9 566.11,-30.71"/>
</a>
</g>
</g>
<!-- Node10&#45;&gt;Node3 -->
<g id="edge13_Node000010_Node000003" class="edge">
<title>Node10&#45;&gt;Node3</title>
<g id="a_edge13_Node000010_Node000003"><a xlink:title=" ">
<path fill="none" stroke="#63b8ff" d="M67.74,-54.08C85.33,-45.84 112.06,-33.31 132.44,-23.75"/>
<polygon fill="#63b8ff" stroke="#63b8ff" points="133.79,-26.99 141.36,-19.57 130.82,-20.65 133.79,-26.99"/>
</a>
</g>
</g>
<!-- Node11 -->
<g id="Node000011" class="node">
<title>Node11</title>
<g id="a_Node000011"><a xlink:title=" ">
<polygon fill="#e0e0e0" stroke="#999999" points="83.5,-18.5 15,-18.5 15,0 83.5,0 83.5,-18.5"/>
<text text-anchor="middle" x="49.25" y="-5" font-family="Helvetica,sans-Serif" font-size="10.00">TFT_eSPI.h</text>
</a>
</g>
</g>
<!-- Node10&#45;&gt;Node11 -->
<g id="edge14_Node000010_Node000011" class="edge">
<title>Node10&#45;&gt;Node11</title>
<g id="a_edge14_Node000010_Node000011"><a xlink:title=" ">
<path fill="none" stroke="#63b8ff" d="M49.25,-54.08C49.25,-47.58 49.25,-38.42 49.25,-30.16"/>
<polygon fill="#63b8ff" stroke="#63b8ff" points="52.75,-30.27 49.25,-20.27 45.75,-30.27 52.75,-30.27"/>
</a>
</g>
</g>
<!-- Node12&#45;&gt;Node3 -->
<g id="edge16_Node000012_Node000003" class="edge">
<title>Node12&#45;&gt;Node3</title>
<g id="a_edge16_Node000012_Node000003"><a xlink:title=" ">
<path fill="none" stroke="#63b8ff" d="M161.25,-54.08C161.25,-47.58 161.25,-38.42 161.25,-30.16"/>
<polygon fill="#63b8ff" stroke="#63b8ff" points="164.75,-30.27 161.25,-20.27 157.75,-30.27 164.75,-30.27"/>
</a>
</g>
</g>
</g>
</svg>
