<?xml version="1.0" encoding="UTF-8" standalone="no"?>
<!DOCTYPE svg PUBLIC "-//W3C//DTD SVG 1.1//EN"
 "http://www.w3.org/Graphics/SVG/1.1/DTD/svg11.dtd">
<!-- Generated by graphviz version 12.1.2 (0)
 -->
<!-- Title: src/apps/PomodoroApp/PomodoroApp.h Pages: 1 -->
<svg width="392pt" height="92pt"
 viewBox="0.00 0.00 392.25 91.50" xmlns="http://www.w3.org/2000/svg" xmlns:xlink="http://www.w3.org/1999/xlink">
<g id="graph0" class="graph" transform="scale(1 1) rotate(0) translate(4 87.5)">
<title>src/apps/PomodoroApp/PomodoroApp.h</title>
<!-- Node1 -->
<g id="Node000001" class="node">
<title>Node1</title>
<g id="a_Node000001"><a xlink:title=" ">
<polygon fill="#999999" stroke="#666666" points="249.62,-83.5 131.62,-83.5 131.62,-54.5 249.62,-54.5 249.62,-83.5"/>
<text text-anchor="start" x="139.62" y="-70" font-family="Helvetica,sans-Serif" font-size="10.00">src/apps/PomodoroApp</text>
<text text-anchor="middle" x="190.62" y="-59.5" font-family="Helvetica,sans-Serif" font-size="10.00">/PomodoroApp.h</text>
</a>
</g>
</g>
<!-- Node2 -->
<g id="Node000002" class="node">
<title>Node2</title>
<g id="a_Node000002"><a xlink:title=" ">
<polygon fill="#e0e0e0" stroke="#999999" points="57.25,-18.5 0,-18.5 0,0 57.25,0 57.25,-18.5"/>
<text text-anchor="middle" x="28.62" y="-5" font-family="Helvetica,sans-Serif" font-size="10.00">Arduino.h</text>
</a>
</g>
</g>
<!-- Node1&#45;&gt;Node2 -->
<g id="edge1_Node000001_Node000002" class="edge">
<title>Node1&#45;&gt;Node2</title>
<g id="a_edge1_Node000001_Node000002"><a xlink:title=" ">
<path fill="none" stroke="#63b8ff" d="M151.41,-54.02C124.65,-44.48 89.52,-31.96 63.7,-22.75"/>
<polygon fill="#63b8ff" stroke="#63b8ff" points="64.92,-19.47 54.33,-19.41 62.57,-26.07 64.92,-19.47"/>
</a>
</g>
</g>
<!-- Node3 -->
<g id="Node000003" class="node">
<title>Node3</title>
<g id="a_Node000003"><a xlink:title=" ">
<polygon fill="#e0e0e0" stroke="#999999" points="135.75,-18.5 75.5,-18.5 75.5,0 135.75,0 135.75,-18.5"/>
<text text-anchor="middle" x="105.62" y="-5" font-family="Helvetica,sans-Serif" font-size="10.00">DigiFont.h</text>
</a>
</g>
</g>
<!-- Node1&#45;&gt;Node3 -->
<g id="edge2_Node000001_Node000003" class="edge">
<title>Node1&#45;&gt;Node3</title>
<g id="a_edge2_Node000001_Node000003"><a xlink:title=" ">
<path fill="none" stroke="#63b8ff" d="M170.05,-54.02C157.21,-45.3 140.69,-34.07 127.59,-25.17"/>
<polygon fill="#63b8ff" stroke="#63b8ff" points="129.85,-22.48 119.61,-19.75 125.92,-28.27 129.85,-22.48"/>
</a>
</g>
</g>
<!-- Node4 -->
<g id="Node000004" class="node">
<title>Node4</title>
<g id="a_Node000004"><a xlink:title=" ">
<polygon fill="#e0e0e0" stroke="#999999" points="227.88,-18.5 153.38,-18.5 153.38,0 227.88,0 227.88,-18.5"/>
<text text-anchor="middle" x="190.62" y="-5" font-family="Helvetica,sans-Serif" font-size="10.00">eSPI_Menu.h</text>
</a>
</g>
</g>
<!-- Node1&#45;&gt;Node4 -->
<g id="edge3_Node000001_Node000004" class="edge">
<title>Node1&#45;&gt;Node4</title>
<g id="a_edge3_Node000001_Node000004"><a xlink:title=" ">
<path fill="none" stroke="#63b8ff" d="M190.62,-54.02C190.62,-46.92 190.62,-38.17 190.62,-30.36"/>
<polygon fill="#63b8ff" stroke="#63b8ff" points="194.13,-30.42 190.63,-20.42 187.13,-30.42 194.13,-30.42"/>
</a>
</g>
</g>
<!-- Node5 -->
<g id="Node000005" class="node">
<title>Node5</title>
<g id="a_Node000005"><a xlink:href="App_8h.html" target="_top" xlink:title="Abstract base class for applications.">
<polygon fill="white" stroke="#666666" points="309.25,-18.5 246,-18.5 246,0 309.25,0 309.25,-18.5"/>
<text text-anchor="middle" x="277.62" y="-5" font-family="Helvetica,sans-Serif" font-size="10.00">core/App.h</text>
</a>
</g>
</g>
<!-- Node1&#45;&gt;Node5 -->
<g id="edge4_Node000001_Node000005" class="edge">
<title>Node1&#45;&gt;Node5</title>
<g id="a_edge4_Node000001_Node000005"><a xlink:title=" ">
<path fill="none" stroke="#63b8ff" d="M211.69,-54.02C224.83,-45.3 241.74,-34.07 255.14,-25.17"/>
<polygon fill="#63b8ff" stroke="#63b8ff" points="256.93,-28.19 263.33,-19.74 253.06,-22.36 256.93,-28.19"/>
</a>
</g>
</g>
<!-- Node6 -->
<g id="Node000006" class="node">
<title>Node6</title>
<g id="a_Node000006"><a xlink:title=" ">
<polygon fill="#e0e0e0" stroke="#999999" points="384.25,-18.5 327,-18.5 327,0 384.25,0 384.25,-18.5"/>
<text text-anchor="middle" x="355.62" y="-5" font-family="Helvetica,sans-Serif" font-size="10.00">ctTimer.h</text>
</a>
</g>
</g>
<!-- Node1&#45;&gt;Node6 -->
<g id="edge5_Node000001_Node000006" class="edge">
<title>Node1&#45;&gt;Node6</title>
<g id="a_edge5_Node000001_Node000006"><a xlink:title=" ">
<path fill="none" stroke="#63b8ff" d="M230.57,-54.02C257.94,-44.44 293.92,-31.85 320.26,-22.63"/>
<polygon fill="#63b8ff" stroke="#63b8ff" points="321.19,-26.01 329.47,-19.4 318.88,-19.4 321.19,-26.01"/>
</a>
</g>
</g>
</g>
</svg>
