<?xml version="1.0" encoding="UTF-8" standalone="no"?>
<!DOCTYPE svg PUBLIC "-//W3C//DTD SVG 1.1//EN"
 "http://www.w3.org/Graphics/SVG/1.1/DTD/svg11.dtd">
<!-- Generated by graphviz version 12.2.0 (20241103.1931)
 -->
<!-- Title: src/core/Settings.cpp Pages: 1 -->
<svg width="240pt" height="138pt"
 viewBox="0.00 0.00 239.75 137.75" xmlns="http://www.w3.org/2000/svg" xmlns:xlink="http://www.w3.org/1999/xlink">
<g id="graph0" class="graph" transform="scale(1 1) rotate(0) translate(4 133.75)">
<title>src/core/Settings.cpp</title>
<!-- Node1 -->
<g id="Node000001" class="node">
<title>Node1</title>
<g id="a_Node000001"><a xlink:title=" ">
<polygon fill="#999999" stroke="#666666" points="170.88,-129.75 62.62,-129.75 62.62,-110.5 170.88,-110.5 170.88,-129.75"/>
<text text-anchor="middle" x="116.75" y="-116.25" font-family="Helvetica,sans-Serif" font-size="10.00">src/core/Settings.cpp</text>
</a>
</g>
</g>
<!-- Node2 -->
<g id="Node000002" class="node">
<title>Node2</title>
<g id="a_Node000002"><a xlink:href="Settings_8h.html" target="_top" xlink:title=" ">
<polygon fill="white" stroke="#666666" points="59.5,-74.5 0,-74.5 0,-55.25 59.5,-55.25 59.5,-74.5"/>
<text text-anchor="middle" x="29.75" y="-61" font-family="Helvetica,sans-Serif" font-size="10.00">Settings.h</text>
</a>
</g>
</g>
<!-- Node1&#45;&gt;Node2 -->
<g id="edge1_Node000001_Node000002" class="edge">
<title>Node1&#45;&gt;Node2</title>
<g id="a_edge1_Node000001_Node000002"><a xlink:title=" ">
<path fill="none" stroke="#63b8ff" d="M101.99,-110.09C88.87,-102.06 69.43,-90.16 54.02,-80.73"/>
<polygon fill="#63b8ff" stroke="#63b8ff" points="56.23,-77.98 45.87,-75.74 52.57,-83.95 56.23,-77.98"/>
</a>
</g>
</g>
<!-- Node4 -->
<g id="Node000004" class="node">
<title>Node4</title>
<g id="a_Node000004"><a xlink:title=" ">
<polygon fill="#e0e0e0" stroke="#999999" points="155.5,-74.5 78,-74.5 78,-55.25 155.5,-55.25 155.5,-74.5"/>
<text text-anchor="middle" x="116.75" y="-61" font-family="Helvetica,sans-Serif" font-size="10.00">ArduinoJson.h</text>
</a>
</g>
</g>
<!-- Node1&#45;&gt;Node4 -->
<g id="edge3_Node000001_Node000004" class="edge">
<title>Node1&#45;&gt;Node4</title>
<g id="a_edge3_Node000001_Node000004"><a xlink:title=" ">
<path fill="none" stroke="#63b8ff" d="M116.75,-110.33C116.75,-103.82 116.75,-94.67 116.75,-86.37"/>
<polygon fill="#63b8ff" stroke="#63b8ff" points="120.25,-86.37 116.75,-76.37 113.25,-86.37 120.25,-86.37"/>
</a>
</g>
</g>
<!-- Node5 -->
<g id="Node000005" class="node">
<title>Node5</title>
<g id="a_Node000005"><a xlink:title=" ">
<polygon fill="#e0e0e0" stroke="#999999" points="231.75,-74.5 173.75,-74.5 173.75,-55.25 231.75,-55.25 231.75,-74.5"/>
<text text-anchor="middle" x="202.75" y="-61" font-family="Helvetica,sans-Serif" font-size="10.00">LittleFS.h</text>
</a>
</g>
</g>
<!-- Node1&#45;&gt;Node5 -->
<g id="edge4_Node000001_Node000005" class="edge">
<title>Node1&#45;&gt;Node5</title>
<g id="a_edge4_Node000001_Node000005"><a xlink:title=" ">
<path fill="none" stroke="#63b8ff" d="M131.34,-110.09C144.19,-102.14 163.16,-90.39 178.32,-81"/>
<polygon fill="#63b8ff" stroke="#63b8ff" points="180.14,-83.99 186.8,-75.75 176.46,-78.04 180.14,-83.99"/>
</a>
</g>
</g>
<!-- Node3 -->
<g id="Node000003" class="node">
<title>Node3</title>
<g id="a_Node000003"><a xlink:title=" ">
<polygon fill="#e0e0e0" stroke="#999999" points="58,-19.25 1.5,-19.25 1.5,0 58,0 58,-19.25"/>
<text text-anchor="middle" x="29.75" y="-5.75" font-family="Helvetica,sans-Serif" font-size="10.00">Arduino.h</text>
</a>
</g>
</g>
<!-- Node2&#45;&gt;Node3 -->
<g id="edge2_Node000002_Node000003" class="edge">
<title>Node2&#45;&gt;Node3</title>
<g id="a_edge2_Node000002_Node000003"><a xlink:title=" ">
<path fill="none" stroke="#63b8ff" d="M29.75,-55.08C29.75,-48.57 29.75,-39.42 29.75,-31.12"/>
<polygon fill="#63b8ff" stroke="#63b8ff" points="33.25,-31.12 29.75,-21.12 26.25,-31.12 33.25,-31.12"/>
</a>
</g>
</g>
</g>
</svg>
