<?xml version="1.0" encoding="UTF-8" standalone="no"?>
<!DOCTYPE svg PUBLIC "-//W3C//DTD SVG 1.1//EN"
 "http://www.w3.org/Graphics/SVG/1.1/DTD/svg11.dtd">
<!-- Generated by graphviz version 12.2.0 (20241103.1931)
 -->
<!-- Title: src/core/SettingsApp/SettingsApp.h Pages: 1 -->
<svg width="170pt" height="94pt"
 viewBox="0.00 0.00 169.50 93.75" xmlns="http://www.w3.org/2000/svg" xmlns:xlink="http://www.w3.org/1999/xlink">
<g id="graph0" class="graph" transform="scale(1 1) rotate(0) translate(4 89.75)">
<title>src/core/SettingsApp/SettingsApp.h</title>
<!-- Node1 -->
<g id="Node000001" class="node">
<title>Node1</title>
<g id="a_Node000001"><a xlink:title=" ">
<polygon fill="#999999" stroke="#666666" points="139,-85.75 31.5,-85.75 31.5,-55.25 139,-55.25 139,-85.75"/>
<text text-anchor="start" x="39.5" y="-72.25" font-family="Helvetica,sans-Serif" font-size="10.00">src/core/SettingsApp</text>
<text text-anchor="middle" x="85.25" y="-61" font-family="Helvetica,sans-Serif" font-size="10.00">/SettingsApp.h</text>
</a>
</g>
</g>
<!-- Node2 -->
<g id="Node000002" class="node">
<title>Node2</title>
<g id="a_Node000002"><a xlink:title=" ">
<polygon fill="#e0e0e0" stroke="#999999" points="80.5,-19.25 0,-19.25 0,0 80.5,0 80.5,-19.25"/>
<text text-anchor="middle" x="40.25" y="-5.75" font-family="Helvetica,sans-Serif" font-size="10.00">WiFiManager.h</text>
</a>
</g>
</g>
<!-- Node1&#45;&gt;Node2 -->
<g id="edge1_Node000001_Node000002" class="edge">
<title>Node1&#45;&gt;Node2</title>
<g id="a_edge1_Node000001_Node000002"><a xlink:title=" ">
<path fill="none" stroke="#63b8ff" d="M74.13,-54.95C68.07,-47.02 60.51,-37.13 54.07,-28.71"/>
<polygon fill="#63b8ff" stroke="#63b8ff" points="56.96,-26.72 48.11,-20.9 51.4,-30.97 56.96,-26.72"/>
</a>
</g>
</g>
<!-- Node3 -->
<g id="Node000003" class="node">
<title>Node3</title>
<g id="a_Node000003"><a xlink:href="App_8h.html" target="_top" xlink:title="Abstract base class for applications.">
<polygon fill="white" stroke="#666666" points="161.5,-19.25 99,-19.25 99,0 161.5,0 161.5,-19.25"/>
<text text-anchor="middle" x="130.25" y="-5.75" font-family="Helvetica,sans-Serif" font-size="10.00">core/App.h</text>
</a>
</g>
</g>
<!-- Node1&#45;&gt;Node3 -->
<g id="edge2_Node000001_Node000003" class="edge">
<title>Node1&#45;&gt;Node3</title>
<g id="a_edge2_Node000001_Node000003"><a xlink:title=" ">
<path fill="none" stroke="#63b8ff" d="M96.37,-54.95C102.43,-47.02 109.99,-37.13 116.43,-28.71"/>
<polygon fill="#63b8ff" stroke="#63b8ff" points="119.1,-30.97 122.39,-20.9 113.54,-26.72 119.1,-30.97"/>
</a>
</g>
</g>
</g>
</svg>
