<?xml version="1.0" encoding="UTF-8" standalone="no"?>
<!DOCTYPE svg PUBLIC "-//W3C//DTD SVG 1.1//EN"
 "http://www.w3.org/Graphics/SVG/1.1/DTD/svg11.dtd">
<!-- Generated by graphviz version 12.1.2 (0)
 -->
<!-- Title: src/core/SettingsApp/SettingsApp.cpp Pages: 1 -->
<svg width="383pt" height="146pt"
 viewBox="0.00 0.00 383.25 146.00" xmlns="http://www.w3.org/2000/svg" xmlns:xlink="http://www.w3.org/1999/xlink">
<g id="graph0" class="graph" transform="scale(1 1) rotate(0) translate(4 142)">
<title>src/core/SettingsApp/SettingsApp.cpp</title>
<!-- Node1 -->
<g id="Node000001" class="node">
<title>Node1</title>
<g id="a_Node000001"><a xlink:title=" ">
<polygon fill="#999999" stroke="#666666" points="271.75,-138 164.25,-138 164.25,-109 271.75,-109 271.75,-138"/>
<text text-anchor="start" x="172.25" y="-124.5" font-family="Helvetica,sans-Serif" font-size="10.00">src/core/SettingsApp</text>
<text text-anchor="middle" x="218" y="-114" font-family="Helvetica,sans-Serif" font-size="10.00">/SettingsApp.cpp</text>
</a>
</g>
</g>
<!-- Node2 -->
<g id="Node000002" class="node">
<title>Node2</title>
<g id="a_Node000002"><a xlink:href="SettingsApp_8h.html" target="_top" xlink:title=" ">
<polygon fill="white" stroke="#666666" points="158.75,-73 81.25,-73 81.25,-54.5 158.75,-54.5 158.75,-73"/>
<text text-anchor="middle" x="120" y="-59.5" font-family="Helvetica,sans-Serif" font-size="10.00">SettingsApp.h</text>
</a>
</g>
</g>
<!-- Node1&#45;&gt;Node2 -->
<g id="edge1_Node000001_Node000002" class="edge">
<title>Node1&#45;&gt;Node2</title>
<g id="a_edge1_Node000001_Node000002"><a xlink:title=" ">
<path fill="none" stroke="#63b8ff" d="M194.28,-108.52C179.18,-99.62 159.68,-88.13 144.44,-79.15"/>
<polygon fill="#63b8ff" stroke="#63b8ff" points="146.38,-76.23 135.99,-74.17 142.83,-82.26 146.38,-76.23"/>
</a>
</g>
</g>
<!-- Node5 -->
<g id="Node000005" class="node">
<title>Node5</title>
<g id="a_Node000005"><a xlink:href="Settings_8h.html" target="_top" xlink:title=" ">
<polygon fill="white" stroke="#666666" points="259,-73 177,-73 177,-54.5 259,-54.5 259,-73"/>
<text text-anchor="middle" x="218" y="-59.5" font-family="Helvetica,sans-Serif" font-size="10.00">core/Settings.h</text>
</a>
</g>
</g>
<!-- Node1&#45;&gt;Node5 -->
<g id="edge4_Node000001_Node000005" class="edge">
<title>Node1&#45;&gt;Node5</title>
<g id="a_edge4_Node000001_Node000005"><a xlink:title=" ">
<path fill="none" stroke="#63b8ff" d="M218,-108.52C218,-101.42 218,-92.67 218,-84.86"/>
<polygon fill="#63b8ff" stroke="#63b8ff" points="221.5,-84.92 218,-74.92 214.5,-84.92 221.5,-84.92"/>
</a>
</g>
</g>
<!-- Node7 -->
<g id="Node000007" class="node">
<title>Node7</title>
<g id="a_Node000007"><a xlink:href="Display_8h.html" target="_top" xlink:title=" ">
<polygon fill="white" stroke="#666666" points="375.25,-73 276.75,-73 276.75,-54.5 375.25,-54.5 375.25,-73"/>
<text text-anchor="middle" x="326" y="-59.5" font-family="Helvetica,sans-Serif" font-size="10.00">hardware/Display.h</text>
</a>
</g>
</g>
<!-- Node1&#45;&gt;Node7 -->
<g id="edge6_Node000001_Node000007" class="edge">
<title>Node1&#45;&gt;Node7</title>
<g id="a_edge6_Node000001_Node000007"><a xlink:title=" ">
<path fill="none" stroke="#63b8ff" d="M244.14,-108.52C261.1,-99.45 283.1,-87.69 300.03,-78.64"/>
<polygon fill="#63b8ff" stroke="#63b8ff" points="301.31,-81.92 308.48,-74.12 298.01,-75.75 301.31,-81.92"/>
</a>
</g>
</g>
<!-- Node3 -->
<g id="Node000003" class="node">
<title>Node3</title>
<g id="a_Node000003"><a xlink:title=" ">
<polygon fill="#e0e0e0" stroke="#999999" points="82,-18.5 0,-18.5 0,0 82,0 82,-18.5"/>
<text text-anchor="middle" x="41" y="-5" font-family="Helvetica,sans-Serif" font-size="10.00">WiFiManager.h</text>
</a>
</g>
</g>
<!-- Node2&#45;&gt;Node3 -->
<g id="edge2_Node000002_Node000003" class="edge">
<title>Node2&#45;&gt;Node3</title>
<g id="a_edge2_Node000002_Node000003"><a xlink:title=" ">
<path fill="none" stroke="#63b8ff" d="M106.95,-54.08C95.18,-46.25 77.59,-34.57 63.54,-25.23"/>
<polygon fill="#63b8ff" stroke="#63b8ff" points="65.59,-22.39 55.33,-19.77 61.72,-28.22 65.59,-22.39"/>
</a>
</g>
</g>
<!-- Node4 -->
<g id="Node000004" class="node">
<title>Node4</title>
<g id="a_Node000004"><a xlink:href="App_8h.html" target="_top" xlink:title="Abstract base class for applications.">
<polygon fill="white" stroke="#666666" points="163.62,-18.5 100.38,-18.5 100.38,0 163.62,0 163.62,-18.5"/>
<text text-anchor="middle" x="132" y="-5" font-family="Helvetica,sans-Serif" font-size="10.00">core/App.h</text>
</a>
</g>
</g>
<!-- Node2&#45;&gt;Node4 -->
<g id="edge3_Node000002_Node000004" class="edge">
<title>Node2&#45;&gt;Node4</title>
<g id="a_edge3_Node000002_Node000004"><a xlink:title=" ">
<path fill="none" stroke="#63b8ff" d="M121.98,-54.08C123.48,-47.51 125.61,-38.21 127.52,-29.87"/>
<polygon fill="#63b8ff" stroke="#63b8ff" points="130.9,-30.76 129.72,-20.23 124.08,-29.2 130.9,-30.76"/>
</a>
</g>
</g>
<!-- Node6 -->
<g id="Node000006" class="node">
<title>Node6</title>
<g id="a_Node000006"><a xlink:title=" ">
<polygon fill="#e0e0e0" stroke="#999999" points="261.62,-18.5 204.38,-18.5 204.38,0 261.62,0 261.62,-18.5"/>
<text text-anchor="middle" x="233" y="-5" font-family="Helvetica,sans-Serif" font-size="10.00">Arduino.h</text>
</a>
</g>
</g>
<!-- Node5&#45;&gt;Node6 -->
<g id="edge5_Node000005_Node000006" class="edge">
<title>Node5&#45;&gt;Node6</title>
<g id="a_edge5_Node000005_Node000006"><a xlink:title=" ">
<path fill="none" stroke="#63b8ff" d="M220.48,-54.08C222.38,-47.43 225.07,-37.99 227.48,-29.58"/>
<polygon fill="#63b8ff" stroke="#63b8ff" points="230.77,-30.79 230.15,-20.21 224.04,-28.87 230.77,-30.79"/>
</a>
</g>
</g>
<!-- Node7&#45;&gt;Node6 -->
<g id="edge7_Node000007_Node000006" class="edge">
<title>Node7&#45;&gt;Node6</title>
<g id="a_edge7_Node000007_Node000006"><a xlink:title=" ">
<path fill="none" stroke="#63b8ff" d="M310.64,-54.08C296.37,-46.03 274.86,-33.88 258.1,-24.42"/>
<polygon fill="#63b8ff" stroke="#63b8ff" points="260.13,-21.54 249.7,-19.68 256.69,-27.64 260.13,-21.54"/>
</a>
</g>
</g>
<!-- Node8 -->
<g id="Node000008" class="node">
<title>Node8</title>
<g id="a_Node000008"><a xlink:title=" ">
<polygon fill="#e0e0e0" stroke="#999999" points="360.25,-18.5 291.75,-18.5 291.75,0 360.25,0 360.25,-18.5"/>
<text text-anchor="middle" x="326" y="-5" font-family="Helvetica,sans-Serif" font-size="10.00">TFT_eSPI.h</text>
</a>
</g>
</g>
<!-- Node7&#45;&gt;Node8 -->
<g id="edge8_Node000007_Node000008" class="edge">
<title>Node7&#45;&gt;Node8</title>
<g id="a_edge8_Node000007_Node000008"><a xlink:title=" ">
<path fill="none" stroke="#63b8ff" d="M326,-54.08C326,-47.58 326,-38.42 326,-30.16"/>
<polygon fill="#63b8ff" stroke="#63b8ff" points="329.5,-30.27 326,-20.27 322.5,-30.27 329.5,-30.27"/>
</a>
</g>
</g>
</g>
</svg>
