<?xml version="1.0" encoding="UTF-8" standalone="no"?>
<!DOCTYPE svg PUBLIC "-//W3C//DTD SVG 1.1//EN"
 "http://www.w3.org/Graphics/SVG/1.1/DTD/svg11.dtd">
<!-- Generated by graphviz version 12.2.0 (20241103.1931)
 -->
<!-- Title: src/core/Settings.h Pages: 1 -->
<svg width="682pt" height="94pt"
 viewBox="0.00 0.00 681.50 93.75" xmlns="http://www.w3.org/2000/svg" xmlns:xlink="http://www.w3.org/1999/xlink">
<g id="graph0" class="graph" transform="scale(1 1) rotate(0) translate(4 89.75)">
<title>src/core/Settings.h</title>
<!-- Node1 -->
<g id="Node000001" class="node">
<title>Node1</title>
<g id="a_Node000001"><a xlink:title=" ">
<polygon fill="#999999" stroke="#666666" points="452.62,-85.75 354.88,-85.75 354.88,-66.5 452.62,-66.5 452.62,-85.75"/>
<text text-anchor="middle" x="403.75" y="-72.25" font-family="Helvetica,sans-Serif" font-size="10.00">src/core/Settings.h</text>
</a>
</g>
</g>
<!-- Node2 -->
<g id="Node000002" class="node">
<title>Node2</title>
<g id="a_Node000002"><a xlink:href="ClockApp_8cpp.html" target="_top" xlink:title=" ">
<polygon fill="white" stroke="#666666" points="161.5,-24.88 0,-24.88 0,-5.63 161.5,-5.63 161.5,-24.88"/>
<text text-anchor="middle" x="80.75" y="-11.38" font-family="Helvetica,sans-Serif" font-size="10.00">src/apps/ClockApp/ClockApp.cpp</text>
</a>
</g>
</g>
<!-- Node1&#45;&gt;Node2 -->
<g id="edge1_Node000001_Node000002" class="edge">
<title>Node1&#45;&gt;Node2</title>
<g id="a_edge1_Node000001_Node000002"><a xlink:title=" ">
<path fill="none" stroke="#63b8ff" d="M343.64,-64.17C282.31,-52.99 188.21,-35.84 130.8,-25.37"/>
<polygon fill="#63b8ff" stroke="#63b8ff" points="342.74,-67.56 353.2,-65.91 343.99,-60.68 342.74,-67.56"/>
</a>
</g>
</g>
<!-- Node3 -->
<g id="Node000003" class="node">
<title>Node3</title>
<g id="a_Node000003"><a xlink:href="CurrencyConverterApp_8cpp.html" target="_top" xlink:title=" ">
<polygon fill="white" stroke="#666666" points="331.62,-30.5 179.88,-30.5 179.88,0 331.62,0 331.62,-30.5"/>
<text text-anchor="start" x="187.88" y="-17" font-family="Helvetica,sans-Serif" font-size="10.00">src/apps/CurrencyConverter</text>
<text text-anchor="middle" x="255.75" y="-5.75" font-family="Helvetica,sans-Serif" font-size="10.00">App/CurrencyConverterApp.cpp</text>
</a>
</g>
</g>
<!-- Node1&#45;&gt;Node3 -->
<g id="edge2_Node000001_Node000003" class="edge">
<title>Node1&#45;&gt;Node3</title>
<g id="a_edge2_Node000001_Node000003"><a xlink:title=" ">
<path fill="none" stroke="#63b8ff" d="M370.29,-61.81C347.2,-52.63 316.5,-40.42 292.69,-30.94"/>
<polygon fill="#63b8ff" stroke="#63b8ff" points="368.96,-65.05 379.54,-65.5 371.54,-58.55 368.96,-65.05"/>
</a>
</g>
</g>
<!-- Node4 -->
<g id="Node000004" class="node">
<title>Node4</title>
<g id="a_Node000004"><a xlink:href="Settings_8cpp.html" target="_top" xlink:title=" ">
<polygon fill="white" stroke="#666666" points="457.88,-24.88 349.62,-24.88 349.62,-5.63 457.88,-5.63 457.88,-24.88"/>
<text text-anchor="middle" x="403.75" y="-11.38" font-family="Helvetica,sans-Serif" font-size="10.00">src/core/Settings.cpp</text>
</a>
</g>
</g>
<!-- Node1&#45;&gt;Node4 -->
<g id="edge3_Node000001_Node000004" class="edge">
<title>Node1&#45;&gt;Node4</title>
<g id="a_edge3_Node000001_Node000004"><a xlink:title=" ">
<path fill="none" stroke="#63b8ff" d="M403.75,-54.7C403.75,-44.67 403.75,-33.08 403.75,-25.28"/>
<polygon fill="#63b8ff" stroke="#63b8ff" points="400.25,-54.67 403.75,-64.67 407.25,-54.67 400.25,-54.67"/>
</a>
</g>
</g>
<!-- Node5 -->
<g id="Node000005" class="node">
<title>Node5</title>
<g id="a_Node000005"><a xlink:href="SettingsApp_8cpp.html" target="_top" xlink:title=" ">
<polygon fill="white" stroke="#666666" points="583.5,-30.5 476,-30.5 476,0 583.5,0 583.5,-30.5"/>
<text text-anchor="start" x="484" y="-17" font-family="Helvetica,sans-Serif" font-size="10.00">src/core/SettingsApp</text>
<text text-anchor="middle" x="529.75" y="-5.75" font-family="Helvetica,sans-Serif" font-size="10.00">/SettingsApp.cpp</text>
</a>
</g>
</g>
<!-- Node1&#45;&gt;Node5 -->
<g id="edge4_Node000001_Node000005" class="edge">
<title>Node1&#45;&gt;Node5</title>
<g id="a_edge4_Node000001_Node000005"><a xlink:title=" ">
<path fill="none" stroke="#63b8ff" d="M433.59,-61.18C453.08,-52.08 478.49,-40.2 498.3,-30.94"/>
<polygon fill="#63b8ff" stroke="#63b8ff" points="432.11,-58.01 424.53,-65.41 435.07,-64.35 432.11,-58.01"/>
</a>
</g>
</g>
<!-- Node6 -->
<g id="Node000006" class="node">
<title>Node6</title>
<g id="a_Node000006"><a xlink:href="main_8cpp.html" target="_top" xlink:title=" ">
<polygon fill="white" stroke="#666666" points="673.5,-24.88 602,-24.88 602,-5.63 673.5,-5.63 673.5,-24.88"/>
<text text-anchor="middle" x="637.75" y="-11.38" font-family="Helvetica,sans-Serif" font-size="10.00">src/main.cpp</text>
</a>
</g>
</g>
<!-- Node1&#45;&gt;Node6 -->
<g id="edge5_Node000001_Node000006" class="edge">
<title>Node1&#45;&gt;Node6</title>
<g id="a_edge5_Node000001_Node000006"><a xlink:title=" ">
<path fill="none" stroke="#63b8ff" d="M457.21,-63.62C495.21,-55.18 547.34,-43.03 592.75,-30.5 598.44,-28.93 604.49,-27.12 610.24,-25.32"/>
<polygon fill="#63b8ff" stroke="#63b8ff" points="456.88,-60.11 447.87,-65.69 458.39,-66.95 456.88,-60.11"/>
</a>
</g>
</g>
</g>
</svg>
