<?xml version="1.0" encoding="UTF-8" standalone="no"?>
<!DOCTYPE svg PUBLIC "-//W3C//DTD SVG 1.1//EN"
 "http://www.w3.org/Graphics/SVG/1.1/DTD/svg11.dtd">
<!-- Generated by graphviz version 12.2.0 (20241103.1931)
 -->
<!-- Title: src/core/SettingsApp/SettingsApp.h Pages: 1 -->
<svg width="206pt" height="105pt"
 viewBox="0.00 0.00 205.50 105.00" xmlns="http://www.w3.org/2000/svg" xmlns:xlink="http://www.w3.org/1999/xlink">
<g id="graph0" class="graph" transform="scale(1 1) rotate(0) translate(4 101)">
<title>src/core/SettingsApp/SettingsApp.h</title>
<!-- Node1 -->
<g id="Node000001" class="node">
<title>Node1</title>
<g id="a_Node000001"><a xlink:title=" ">
<polygon fill="#999999" stroke="#666666" points="161.5,-97 54,-97 54,-66.5 161.5,-66.5 161.5,-97"/>
<text text-anchor="start" x="62" y="-83.5" font-family="Helvetica,sans-Serif" font-size="10.00">src/core/SettingsApp</text>
<text text-anchor="middle" x="107.75" y="-72.25" font-family="Helvetica,sans-Serif" font-size="10.00">/SettingsApp.h</text>
</a>
</g>
</g>
<!-- Node2 -->
<g id="Node000002" class="node">
<title>Node2</title>
<g id="a_Node000002"><a xlink:href="SettingsApp_8cpp.html" target="_top" xlink:title=" ">
<polygon fill="white" stroke="#666666" points="107.5,-30.5 0,-30.5 0,0 107.5,0 107.5,-30.5"/>
<text text-anchor="start" x="8" y="-17" font-family="Helvetica,sans-Serif" font-size="10.00">src/core/SettingsApp</text>
<text text-anchor="middle" x="53.75" y="-5.75" font-family="Helvetica,sans-Serif" font-size="10.00">/SettingsApp.cpp</text>
</a>
</g>
</g>
<!-- Node1&#45;&gt;Node2 -->
<g id="edge1_Node000001_Node000002" class="edge">
<title>Node1&#45;&gt;Node2</title>
<g id="a_edge1_Node000001_Node000002"><a xlink:title=" ">
<path fill="none" stroke="#63b8ff" d="M88.16,-57.35C80.74,-48.48 72.51,-38.65 65.95,-30.83"/>
<polygon fill="#63b8ff" stroke="#63b8ff" points="85.42,-59.53 94.52,-64.95 90.79,-55.04 85.42,-59.53"/>
</a>
</g>
</g>
<!-- Node3 -->
<g id="Node000003" class="node">
<title>Node3</title>
<g id="a_Node000003"><a xlink:href="main_8cpp.html" target="_top" xlink:title=" ">
<polygon fill="white" stroke="#666666" points="197.5,-24.88 126,-24.88 126,-5.63 197.5,-5.63 197.5,-24.88"/>
<text text-anchor="middle" x="161.75" y="-11.38" font-family="Helvetica,sans-Serif" font-size="10.00">src/main.cpp</text>
</a>
</g>
</g>
<!-- Node1&#45;&gt;Node3 -->
<g id="edge2_Node000001_Node000003" class="edge">
<title>Node1&#45;&gt;Node3</title>
<g id="a_edge2_Node000001_Node000003"><a xlink:title=" ">
<path fill="none" stroke="#63b8ff" d="M127.18,-57.54C136.61,-46.27 147.39,-33.41 154.36,-25.07"/>
<polygon fill="#63b8ff" stroke="#63b8ff" points="124.71,-55.04 120.98,-64.95 130.08,-59.53 124.71,-55.04"/>
</a>
</g>
</g>
</g>
</svg>
