<?xml version="1.0" encoding="UTF-8" standalone="no"?>
<!DOCTYPE svg PUBLIC "-//W3C//DTD SVG 1.1//EN"
 "http://www.w3.org/Graphics/SVG/1.1/DTD/svg11.dtd">
<!-- Generated by graphviz version 12.1.2 (0)
 -->
<!-- Title: src/core/Settings.cpp Pages: 1 -->
<svg width="240pt" height="136pt"
 viewBox="0.00 0.00 240.12 135.50" xmlns="http://www.w3.org/2000/svg" xmlns:xlink="http://www.w3.org/1999/xlink">
<g id="graph0" class="graph" transform="scale(1 1) rotate(0) translate(4 131.5)">
<title>src/core/Settings.cpp</title>
<!-- Node1 -->
<g id="Node000001" class="node">
<title>Node1</title>
<g id="a_Node000001"><a xlink:title=" ">
<polygon fill="#999999" stroke="#666666" points="171.62,-127.5 62.62,-127.5 62.62,-109 171.62,-109 171.62,-127.5"/>
<text text-anchor="middle" x="117.12" y="-114" font-family="Helvetica,sans-Serif" font-size="10.00">src/core/Settings.cpp</text>
</a>
</g>
</g>
<!-- Node2 -->
<g id="Node000002" class="node">
<title>Node2</title>
<g id="a_Node000002"><a xlink:href="Settings_8h.html" target="_top" xlink:title=" ">
<polygon fill="white" stroke="#666666" points="60.25,-73 0,-73 0,-54.5 60.25,-54.5 60.25,-73"/>
<text text-anchor="middle" x="30.12" y="-59.5" font-family="Helvetica,sans-Serif" font-size="10.00">Settings.h</text>
</a>
</g>
</g>
<!-- Node1&#45;&gt;Node2 -->
<g id="edge1_Node000001_Node000002" class="edge">
<title>Node1&#45;&gt;Node2</title>
<g id="a_edge1_Node000001_Node000002"><a xlink:title=" ">
<path fill="none" stroke="#63b8ff" d="M102.76,-108.58C89.54,-100.6 69.67,-88.61 54.05,-79.19"/>
<polygon fill="#63b8ff" stroke="#63b8ff" points="56.18,-76.38 45.81,-74.21 52.56,-82.38 56.18,-76.38"/>
</a>
</g>
</g>
<!-- Node4 -->
<g id="Node000004" class="node">
<title>Node4</title>
<g id="a_Node000004"><a xlink:title=" ">
<polygon fill="#e0e0e0" stroke="#999999" points="156.25,-73 78,-73 78,-54.5 156.25,-54.5 156.25,-73"/>
<text text-anchor="middle" x="117.12" y="-59.5" font-family="Helvetica,sans-Serif" font-size="10.00">ArduinoJson.h</text>
</a>
</g>
</g>
<!-- Node1&#45;&gt;Node4 -->
<g id="edge3_Node000001_Node000004" class="edge">
<title>Node1&#45;&gt;Node4</title>
<g id="a_edge3_Node000001_Node000004"><a xlink:title=" ">
<path fill="none" stroke="#63b8ff" d="M117.12,-108.58C117.12,-102.08 117.12,-92.92 117.12,-84.66"/>
<polygon fill="#63b8ff" stroke="#63b8ff" points="120.63,-84.77 117.13,-74.77 113.63,-84.77 120.63,-84.77"/>
</a>
</g>
</g>
<!-- Node5 -->
<g id="Node000005" class="node">
<title>Node5</title>
<g id="a_Node000005"><a xlink:title=" ">
<polygon fill="#e0e0e0" stroke="#999999" points="232.12,-73 174.12,-73 174.12,-54.5 232.12,-54.5 232.12,-73"/>
<text text-anchor="middle" x="203.12" y="-59.5" font-family="Helvetica,sans-Serif" font-size="10.00">LittleFS.h</text>
</a>
</g>
</g>
<!-- Node1&#45;&gt;Node5 -->
<g id="edge4_Node000001_Node000005" class="edge">
<title>Node1&#45;&gt;Node5</title>
<g id="a_edge4_Node000001_Node000005"><a xlink:title=" ">
<path fill="none" stroke="#63b8ff" d="M131.33,-108.58C144.4,-100.6 164.04,-88.61 179.48,-79.19"/>
<polygon fill="#63b8ff" stroke="#63b8ff" points="180.9,-82.42 187.61,-74.22 177.25,-76.44 180.9,-82.42"/>
</a>
</g>
</g>
<!-- Node3 -->
<g id="Node000003" class="node">
<title>Node3</title>
<g id="a_Node000003"><a xlink:title=" ">
<polygon fill="#e0e0e0" stroke="#999999" points="58.75,-18.5 1.5,-18.5 1.5,0 58.75,0 58.75,-18.5"/>
<text text-anchor="middle" x="30.12" y="-5" font-family="Helvetica,sans-Serif" font-size="10.00">Arduino.h</text>
</a>
</g>
</g>
<!-- Node2&#45;&gt;Node3 -->
<g id="edge2_Node000002_Node000003" class="edge">
<title>Node2&#45;&gt;Node3</title>
<g id="a_edge2_Node000002_Node000003"><a xlink:title=" ">
<path fill="none" stroke="#63b8ff" d="M30.12,-54.08C30.12,-47.58 30.12,-38.42 30.12,-30.16"/>
<polygon fill="#63b8ff" stroke="#63b8ff" points="33.63,-30.27 30.13,-20.27 26.63,-30.27 33.63,-30.27"/>
</a>
</g>
</g>
</g>
</svg>
