<?xml version="1.0" encoding="UTF-8" standalone="no"?>
<!DOCTYPE svg PUBLIC "-//W3C//DTD SVG 1.1//EN"
 "http://www.w3.org/Graphics/SVG/1.1/DTD/svg11.dtd">
<!-- Generated by graphviz version 12.1.2 (0)
 -->
<!-- Title: src/core/Settings.h Pages: 1 -->
<svg width="514pt" height="92pt"
 viewBox="0.00 0.00 514.00 91.50" xmlns="http://www.w3.org/2000/svg" xmlns:xlink="http://www.w3.org/1999/xlink">
<g id="graph0" class="graph" transform="scale(1 1) rotate(0) translate(4 87.5)">
<title>src/core/Settings.h</title>
<!-- Node1 -->
<g id="Node000001" class="node">
<title>Node1</title>
<g id="a_Node000001"><a xlink:title=" ">
<polygon fill="#999999" stroke="#666666" points="348.12,-83.5 249.62,-83.5 249.62,-65 348.12,-65 348.12,-83.5"/>
<text text-anchor="middle" x="298.88" y="-70" font-family="Helvetica,sans-Serif" font-size="10.00">src/core/Settings.h</text>
</a>
</g>
</g>
<!-- Node2 -->
<g id="Node000002" class="node">
<title>Node2</title>
<g id="a_Node000002"><a xlink:href="ClockApp_8cpp.html" target="_top" xlink:title=" ">
<polygon fill="white" stroke="#666666" points="163.75,-23.75 0,-23.75 0,-5.25 163.75,-5.25 163.75,-23.75"/>
<text text-anchor="middle" x="81.88" y="-10.25" font-family="Helvetica,sans-Serif" font-size="10.00">src/apps/ClockApp/ClockApp.cpp</text>
</a>
</g>
</g>
<!-- Node1&#45;&gt;Node2 -->
<g id="edge1_Node000001_Node000002" class="edge">
<title>Node1&#45;&gt;Node2</title>
<g id="a_edge1_Node000001_Node000002"><a xlink:title=" ">
<path fill="none" stroke="#63b8ff" d="M255.5,-61.71C213.94,-50.65 152.15,-34.2 114.58,-24.2"/>
<polygon fill="#63b8ff" stroke="#63b8ff" points="254.36,-65.03 264.93,-64.21 256.16,-58.26 254.36,-65.03"/>
</a>
</g>
</g>
<!-- Node3 -->
<g id="Node000003" class="node">
<title>Node3</title>
<g id="a_Node000003"><a xlink:href="Settings_8cpp.html" target="_top" xlink:title=" ">
<polygon fill="white" stroke="#666666" points="290.38,-23.75 181.38,-23.75 181.38,-5.25 290.38,-5.25 290.38,-23.75"/>
<text text-anchor="middle" x="235.88" y="-10.25" font-family="Helvetica,sans-Serif" font-size="10.00">src/core/Settings.cpp</text>
</a>
</g>
</g>
<!-- Node1&#45;&gt;Node3 -->
<g id="edge2_Node000001_Node000003" class="edge">
<title>Node1&#45;&gt;Node3</title>
<g id="a_edge2_Node000001_Node000003"><a xlink:title=" ">
<path fill="none" stroke="#63b8ff" d="M281.4,-57.23C269.68,-46.49 254.72,-32.77 245.21,-24.06"/>
<polygon fill="#63b8ff" stroke="#63b8ff" points="278.73,-59.53 288.46,-63.71 283.46,-54.37 278.73,-59.53"/>
</a>
</g>
</g>
<!-- Node4 -->
<g id="Node000004" class="node">
<title>Node4</title>
<g id="a_Node000004"><a xlink:href="SettingsApp_8cpp.html" target="_top" xlink:title=" ">
<polygon fill="white" stroke="#666666" points="415.62,-29 308.12,-29 308.12,0 415.62,0 415.62,-29"/>
<text text-anchor="start" x="316.12" y="-15.5" font-family="Helvetica,sans-Serif" font-size="10.00">src/core/SettingsApp</text>
<text text-anchor="middle" x="361.88" y="-5" font-family="Helvetica,sans-Serif" font-size="10.00">/SettingsApp.cpp</text>
</a>
</g>
</g>
<!-- Node1&#45;&gt;Node4 -->
<g id="edge3_Node000001_Node000004" class="edge">
<title>Node1&#45;&gt;Node4</title>
<g id="a_edge3_Node000001_Node000004"><a xlink:title=" ">
<path fill="none" stroke="#63b8ff" d="M316.48,-57.11C325.97,-48.41 337.58,-37.77 346.67,-29.43"/>
<polygon fill="#63b8ff" stroke="#63b8ff" points="314.29,-54.37 309.29,-63.71 319.02,-59.53 314.29,-54.37"/>
</a>
</g>
</g>
<!-- Node5 -->
<g id="Node000005" class="node">
<title>Node5</title>
<g id="a_Node000005"><a xlink:href="main_8cpp.html" target="_top" xlink:title=" ">
<polygon fill="white" stroke="#666666" points="506,-23.75 433.75,-23.75 433.75,-5.25 506,-5.25 506,-23.75"/>
<text text-anchor="middle" x="469.88" y="-10.25" font-family="Helvetica,sans-Serif" font-size="10.00">src/main.cpp</text>
</a>
</g>
</g>
<!-- Node1&#45;&gt;Node5 -->
<g id="edge4_Node000001_Node000005" class="edge">
<title>Node1&#45;&gt;Node5</title>
<g id="a_edge4_Node000001_Node000005"><a xlink:title=" ">
<path fill="none" stroke="#63b8ff" d="M334.96,-61.06C367.66,-50.02 415.06,-34.01 444.1,-24.2"/>
<polygon fill="#63b8ff" stroke="#63b8ff" points="334.26,-57.6 325.91,-64.12 336.5,-64.24 334.26,-57.6"/>
</a>
</g>
</g>
</g>
</svg>
