<?xml version="1.0" encoding="UTF-8" standalone="no"?>
<!DOCTYPE svg PUBLIC "-//W3C//DTD SVG 1.1//EN"
 "http://www.w3.org/Graphics/SVG/1.1/DTD/svg11.dtd">
<!-- Generated by graphviz version 12.2.0 (20241103.1931)
 -->
<!-- Title: src/core/Settings.h Pages: 1 -->
<svg width="512pt" height="94pt"
 viewBox="0.00 0.00 511.50 93.75" xmlns="http://www.w3.org/2000/svg" xmlns:xlink="http://www.w3.org/1999/xlink">
<g id="graph0" class="graph" transform="scale(1 1) rotate(0) translate(4 89.75)">
<title>src/core/Settings.h</title>
<!-- Node1 -->
<g id="Node000001" class="node">
<title>Node1</title>
<g id="a_Node000001"><a xlink:title=" ">
<polygon fill="#999999" stroke="#666666" points="345.62,-85.75 247.88,-85.75 247.88,-66.5 345.62,-66.5 345.62,-85.75"/>
<text text-anchor="middle" x="296.75" y="-72.25" font-family="Helvetica,sans-Serif" font-size="10.00">src/core/Settings.h</text>
</a>
</g>
</g>
<!-- Node2 -->
<g id="Node000002" class="node">
<title>Node2</title>
<g id="a_Node000002"><a xlink:href="ClockApp_8cpp.html" target="_top" xlink:title=" ">
<polygon fill="white" stroke="#666666" points="161.5,-24.88 0,-24.88 0,-5.63 161.5,-5.63 161.5,-24.88"/>
<text text-anchor="middle" x="80.75" y="-11.38" font-family="Helvetica,sans-Serif" font-size="10.00">src/apps/ClockApp/ClockApp.cpp</text>
</a>
</g>
</g>
<!-- Node1&#45;&gt;Node2 -->
<g id="edge1_Node000001_Node000002" class="edge">
<title>Node1&#45;&gt;Node2</title>
<g id="a_edge1_Node000001_Node000002"><a xlink:title=" ">
<path fill="none" stroke="#63b8ff" d="M252.43,-63.05C211.36,-51.85 151.18,-35.45 114.06,-25.33"/>
<polygon fill="#63b8ff" stroke="#63b8ff" points="251.44,-66.4 262.01,-65.66 253.29,-59.65 251.44,-66.4"/>
</a>
</g>
</g>
<!-- Node3 -->
<g id="Node000003" class="node">
<title>Node3</title>
<g id="a_Node000003"><a xlink:href="Settings_8cpp.html" target="_top" xlink:title=" ">
<polygon fill="white" stroke="#666666" points="287.88,-24.88 179.62,-24.88 179.62,-5.63 287.88,-5.63 287.88,-24.88"/>
<text text-anchor="middle" x="233.75" y="-11.38" font-family="Helvetica,sans-Serif" font-size="10.00">src/core/Settings.cpp</text>
</a>
</g>
</g>
<!-- Node1&#45;&gt;Node3 -->
<g id="edge2_Node000001_Node000003" class="edge">
<title>Node1&#45;&gt;Node3</title>
<g id="a_edge2_Node000001_Node000003"><a xlink:title=" ">
<path fill="none" stroke="#63b8ff" d="M279.09,-58.62C267.53,-47.82 252.88,-34.12 243.41,-25.28"/>
<polygon fill="#63b8ff" stroke="#63b8ff" points="276.38,-60.88 286.08,-65.15 281.16,-55.76 276.38,-60.88"/>
</a>
</g>
</g>
<!-- Node4 -->
<g id="Node000004" class="node">
<title>Node4</title>
<g id="a_Node000004"><a xlink:href="SettingsApp_8cpp.html" target="_top" xlink:title=" ">
<polygon fill="white" stroke="#666666" points="413.5,-30.5 306,-30.5 306,0 413.5,0 413.5,-30.5"/>
<text text-anchor="start" x="314" y="-17" font-family="Helvetica,sans-Serif" font-size="10.00">src/core/SettingsApp</text>
<text text-anchor="middle" x="359.75" y="-5.75" font-family="Helvetica,sans-Serif" font-size="10.00">/SettingsApp.cpp</text>
</a>
</g>
</g>
<!-- Node1&#45;&gt;Node4 -->
<g id="edge3_Node000001_Node000004" class="edge">
<title>Node1&#45;&gt;Node4</title>
<g id="a_edge3_Node000001_Node000004"><a xlink:title=" ">
<path fill="none" stroke="#63b8ff" d="M314.52,-58.52C323.86,-49.79 335.21,-39.18 344.2,-30.78"/>
<polygon fill="#63b8ff" stroke="#63b8ff" points="312.34,-55.76 307.42,-65.15 317.12,-60.88 312.34,-55.76"/>
</a>
</g>
</g>
<!-- Node5 -->
<g id="Node000005" class="node">
<title>Node5</title>
<g id="a_Node000005"><a xlink:href="main_8cpp.html" target="_top" xlink:title=" ">
<polygon fill="white" stroke="#666666" points="503.5,-24.88 432,-24.88 432,-5.63 503.5,-5.63 503.5,-24.88"/>
<text text-anchor="middle" x="467.75" y="-11.38" font-family="Helvetica,sans-Serif" font-size="10.00">src/main.cpp</text>
</a>
</g>
</g>
<!-- Node1&#45;&gt;Node5 -->
<g id="edge4_Node000001_Node000005" class="edge">
<title>Node1&#45;&gt;Node5</title>
<g id="a_edge4_Node000001_Node000005"><a xlink:title=" ">
<path fill="none" stroke="#63b8ff" d="M333.94,-62.32C366.38,-51.15 412.62,-35.23 441.38,-25.33"/>
<polygon fill="#63b8ff" stroke="#63b8ff" points="332.84,-59 324.53,-65.56 335.12,-65.62 332.84,-59"/>
</a>
</g>
</g>
</g>
</svg>
