<?xml version="1.0" encoding="UTF-8" standalone="no"?>
<!DOCTYPE svg PUBLIC "-//W3C//DTD SVG 1.1//EN"
 "http://www.w3.org/Graphics/SVG/1.1/DTD/svg11.dtd">
<!-- Generated by graphviz version 12.1.2 (0)
 -->
<!-- Title: src/core/SettingsApp/SettingsApp.h Pages: 1 -->
<svg width="172pt" height="92pt"
 viewBox="0.00 0.00 171.62 91.50" xmlns="http://www.w3.org/2000/svg" xmlns:xlink="http://www.w3.org/1999/xlink">
<g id="graph0" class="graph" transform="scale(1 1) rotate(0) translate(4 87.5)">
<title>src/core/SettingsApp/SettingsApp.h</title>
<!-- Node1 -->
<g id="Node000001" class="node">
<title>Node1</title>
<g id="a_Node000001"><a xlink:title=" ">
<polygon fill="#999999" stroke="#666666" points="139.75,-83.5 32.25,-83.5 32.25,-54.5 139.75,-54.5 139.75,-83.5"/>
<text text-anchor="start" x="40.25" y="-70" font-family="Helvetica,sans-Serif" font-size="10.00">src/core/SettingsApp</text>
<text text-anchor="middle" x="86" y="-59.5" font-family="Helvetica,sans-Serif" font-size="10.00">/SettingsApp.h</text>
</a>
</g>
</g>
<!-- Node2 -->
<g id="Node000002" class="node">
<title>Node2</title>
<g id="a_Node000002"><a xlink:title=" ">
<polygon fill="#e0e0e0" stroke="#999999" points="82,-18.5 0,-18.5 0,0 82,0 82,-18.5"/>
<text text-anchor="middle" x="41" y="-5" font-family="Helvetica,sans-Serif" font-size="10.00">WiFiManager.h</text>
</a>
</g>
</g>
<!-- Node1&#45;&gt;Node2 -->
<g id="edge1_Node000001_Node000002" class="edge">
<title>Node1&#45;&gt;Node2</title>
<g id="a_edge1_Node000001_Node000002"><a xlink:title=" ">
<path fill="none" stroke="#63b8ff" d="M75.11,-54.02C68.97,-46.15 61.26,-36.25 54.72,-27.85"/>
<polygon fill="#63b8ff" stroke="#63b8ff" points="57.58,-25.83 48.67,-20.1 52.06,-30.14 57.58,-25.83"/>
</a>
</g>
</g>
<!-- Node3 -->
<g id="Node000003" class="node">
<title>Node3</title>
<g id="a_Node000003"><a xlink:href="App_8h.html" target="_top" xlink:title="Abstract base class for applications.">
<polygon fill="white" stroke="#666666" points="163.62,-18.5 100.38,-18.5 100.38,0 163.62,0 163.62,-18.5"/>
<text text-anchor="middle" x="132" y="-5" font-family="Helvetica,sans-Serif" font-size="10.00">core/App.h</text>
</a>
</g>
</g>
<!-- Node1&#45;&gt;Node3 -->
<g id="edge2_Node000001_Node000003" class="edge">
<title>Node1&#45;&gt;Node3</title>
<g id="a_edge2_Node000001_Node000003"><a xlink:title=" ">
<path fill="none" stroke="#63b8ff" d="M97.14,-54.02C103.4,-46.15 111.29,-36.25 117.98,-27.85"/>
<polygon fill="#63b8ff" stroke="#63b8ff" points="120.67,-30.09 124.16,-20.09 115.2,-25.73 120.67,-30.09"/>
</a>
</g>
</g>
</g>
</svg>
