<?xml version="1.0" encoding="UTF-8" standalone="no"?>
<!DOCTYPE svg PUBLIC "-//W3C//DTD SVG 1.1//EN"
 "http://www.w3.org/Graphics/SVG/1.1/DTD/svg11.dtd">
<!-- Generated by graphviz version 12.2.0 (20241103.1931)
 -->
<!-- Title: src/core/Settings.cpp Pages: 1 -->
<svg width="302pt" height="138pt"
 viewBox="0.00 0.00 302.25 137.75" xmlns="http://www.w3.org/2000/svg" xmlns:xlink="http://www.w3.org/1999/xlink">

<svg id="main" version="1.1" xmlns="http://www.w3.org/2000/svg" xmlns:xlink="http://www.w3.org/1999/xlink" xml:space="preserve">

<style type="text/css"><![CDATA[
.node, .edge {opacity: 0.7;}
.node.selected, .edge.selected {opacity: 1;}
.edge:hover path { stroke: red; }
.edge:hover polygon { stroke: red; fill: red; }
]]></style>
<script type="application/ecmascript" xlink:href="svg.min.js"/>
<svg id="graph" class="graph">
<g id="graph0" class="graph" transform="scale(1 1) rotate(0) translate(4 133.75)">
<title>src/core/Settings.cpp</title>
<!-- Node1 -->
<g id="Node000001" class="node">
<title>Node1</title>
<g id="a_Node000001"><a xlink:title=" ">
<polygon fill="#999999" stroke="#666666" points="233.38,-129.75 125.12,-129.75 125.12,-110.5 233.38,-110.5 233.38,-129.75"/>
<text text-anchor="middle" x="179.25" y="-116.25" font-family="Helvetica,sans-Serif" font-size="10.00">src/core/Settings.cpp</text>
</a>
</g>
</g>
<!-- Node2 -->
<g id="Node000002" class="node">
<title>Node2</title>
<g id="a_Node000002"><a xlink:href="Settings_8h.html" target="_top" xlink:title=" ">
<polygon fill="white" stroke="#666666" points="122,-74.5 62.5,-74.5 62.5,-55.25 122,-55.25 122,-74.5"/>
<text text-anchor="middle" x="92.25" y="-61" font-family="Helvetica,sans-Serif" font-size="10.00">Settings.h</text>
</a>
</g>
</g>
<!-- Node1&#45;&gt;Node2 -->
<g id="edge1_Node000001_Node000002" class="edge">
<title>Node1&#45;&gt;Node2</title>
<g id="a_edge1_Node000001_Node000002"><a xlink:title=" ">
<path fill="none" stroke="#63b8ff" d="M164.49,-110.09C151.37,-102.06 131.93,-90.16 116.52,-80.73"/>
<polygon fill="#63b8ff" stroke="#63b8ff" points="118.73,-77.98 108.37,-75.74 115.07,-83.95 118.73,-77.98"/>
</a>
</g>
</g>
<!-- Node6 -->
<g id="Node000006" class="node">
<title>Node6</title>
<g id="a_Node000006"><a xlink:title=" ">
<polygon fill="#e0e0e0" stroke="#999999" points="218,-74.5 140.5,-74.5 140.5,-55.25 218,-55.25 218,-74.5"/>
<text text-anchor="middle" x="179.25" y="-61" font-family="Helvetica,sans-Serif" font-size="10.00">ArduinoJson.h</text>
</a>
</g>
</g>
<!-- Node1&#45;&gt;Node6 -->
<g id="edge5_Node000001_Node000006" class="edge">
<title>Node1&#45;&gt;Node6</title>
<g id="a_edge5_Node000001_Node000006"><a xlink:title=" ">
<path fill="none" stroke="#63b8ff" d="M179.25,-110.33C179.25,-103.82 179.25,-94.67 179.25,-86.37"/>
<polygon fill="#63b8ff" stroke="#63b8ff" points="182.75,-86.37 179.25,-76.37 175.75,-86.37 182.75,-86.37"/>
</a>
</g>
</g>
<!-- Node7 -->
<g id="Node000007" class="node">
<title>Node7</title>
<g id="a_Node000007"><a xlink:title=" ">
<polygon fill="#e0e0e0" stroke="#999999" points="294.25,-74.5 236.25,-74.5 236.25,-55.25 294.25,-55.25 294.25,-74.5"/>
<text text-anchor="middle" x="265.25" y="-61" font-family="Helvetica,sans-Serif" font-size="10.00">LittleFS.h</text>
</a>
</g>
</g>
<!-- Node1&#45;&gt;Node7 -->
<g id="edge6_Node000001_Node000007" class="edge">
<title>Node1&#45;&gt;Node7</title>
<g id="a_edge6_Node000001_Node000007"><a xlink:title=" ">
<path fill="none" stroke="#63b8ff" d="M193.84,-110.09C206.69,-102.14 225.66,-90.39 240.82,-81"/>
<polygon fill="#63b8ff" stroke="#63b8ff" points="242.64,-83.99 249.3,-75.75 238.96,-78.04 242.64,-83.99"/>
</a>
</g>
</g>
<!-- Node3 -->
<g id="Node000003" class="node">
<title>Node3</title>
<g id="a_Node000003"><a xlink:title=" ">
<polygon fill="#e0e0e0" stroke="#999999" points="56.5,-19.25 0,-19.25 0,0 56.5,0 56.5,-19.25"/>
<text text-anchor="middle" x="28.25" y="-5.75" font-family="Helvetica,sans-Serif" font-size="10.00">Arduino.h</text>
</a>
</g>
</g>
<!-- Node2&#45;&gt;Node3 -->
<g id="edge2_Node000002_Node000003" class="edge">
<title>Node2&#45;&gt;Node3</title>
<g id="a_edge2_Node000002_Node000003"><a xlink:title=" ">
<path fill="none" stroke="#63b8ff" d="M81.39,-54.84C72.14,-47.15 58.63,-35.9 47.54,-26.68"/>
<polygon fill="#63b8ff" stroke="#63b8ff" points="50.04,-24.2 40.11,-20.49 45.56,-29.58 50.04,-24.2"/>
</a>
</g>
</g>
<!-- Node4 -->
<g id="Node000004" class="node">
<title>Node4</title>
<g id="a_Node000004"><a xlink:title=" ">
<polygon fill="#e0e0e0" stroke="#999999" points="109.62,-19.25 74.88,-19.25 74.88,0 109.62,0 109.62,-19.25"/>
<text text-anchor="middle" x="92.25" y="-5.75" font-family="Helvetica,sans-Serif" font-size="10.00">map</text>
</a>
</g>
</g>
<!-- Node2&#45;&gt;Node4 -->
<g id="edge3_Node000002_Node000004" class="edge">
<title>Node2&#45;&gt;Node4</title>
<g id="a_edge3_Node000002_Node000004"><a xlink:title=" ">
<path fill="none" stroke="#63b8ff" d="M92.25,-55.08C92.25,-48.57 92.25,-39.42 92.25,-31.12"/>
<polygon fill="#63b8ff" stroke="#63b8ff" points="95.75,-31.12 92.25,-21.12 88.75,-31.12 95.75,-31.12"/>
</a>
</g>
</g>
<!-- Node5 -->
<g id="Node000005" class="node">
<title>Node5</title>
<g id="a_Node000005"><a xlink:title=" ">
<polygon fill="#e0e0e0" stroke="#999999" points="167.25,-19.25 127.25,-19.25 127.25,0 167.25,0 167.25,-19.25"/>
<text text-anchor="middle" x="147.25" y="-5.75" font-family="Helvetica,sans-Serif" font-size="10.00">string</text>
</a>
</g>
</g>
<!-- Node2&#45;&gt;Node5 -->
<g id="edge4_Node000002_Node000005" class="edge">
<title>Node2&#45;&gt;Node5</title>
<g id="a_edge4_Node000002_Node000005"><a xlink:title=" ">
<path fill="none" stroke="#63b8ff" d="M101.33,-55.08C109.09,-47.57 120.46,-36.56 129.95,-27.38"/>
<polygon fill="#63b8ff" stroke="#63b8ff" points="132.13,-30.13 136.88,-20.66 127.26,-25.1 132.13,-30.13"/>
</a>
</g>
</g>
</g>
</svg>
</svg>

<style type='text/css'>
<![CDATA[
[data-mouse-over-selected='false'] { opacity: 0.7; }
[data-mouse-over-selected='true']  { opacity: 1.0; }
]]>
</style>
<script type="application/ecmascript"><![CDATA[
document.addEventListener('DOMContentLoaded', (event) => {
  highlightEdges();
  highlightAdjacentNodes();
});
]]></script>
</svg>
