<?xml version="1.0" encoding="UTF-8" standalone="no"?>
<!DOCTYPE svg PUBLIC "-//W3C//DTD SVG 1.1//EN"
 "http://www.w3.org/Graphics/SVG/1.1/DTD/svg11.dtd">
<!-- Generated by graphviz version 12.2.0 (20241103.1931)
 -->
<!-- Title: src/core/SettingsApp/SettingsApp.cpp Pages: 1 -->
<!--zoomable 204 -->

<svg id="main" version="1.1" xmlns="http://www.w3.org/2000/svg" xmlns:xlink="http://www.w3.org/1999/xlink" xml:space="preserve" onload="init(evt)">

<style type="text/css"><![CDATA[
.node, .edge {opacity: 0.7;}
.node.selected, .edge.selected {opacity: 1;}
.edge:hover path { stroke: red; }
.edge:hover polygon { stroke: red; fill: red; }
]]></style>

<defs>
  <circle id="rim" cx="0" cy="0" r="7"/>
  <circle id="rim2" cx="0" cy="0" r="3.5"/>
  <g id="zoomPlus">
    <use xlink:href="#rim" fill="#404040"><set attributeName="fill" to="#808080" begin="zoomplus.mouseover" end="zoomplus.mouseout"/></use>
    <path d="M-4,0h8M0,-4v8" fill="none" stroke="white" stroke-width="1.5" pointer-events="none"/>
  </g>
  <g id="zoomMin">
    <use xlink:href="#rim" fill="#404040"><set attributeName="fill" to="#808080" begin="zoomminus.mouseover" end="zoomminus.mouseout"/></use>
    <path d="M-4,0h8" fill="none" stroke="white" stroke-width="1.5" pointer-events="none"/>
  </g>
  <g id="arrowUp" transform="translate(30 24)">
    <use xlink:href="#rim"/>
    <path pointer-events="none" fill="none" stroke="white" stroke-width="1.5" d="M0,-3.0v7 M-2.5,-0.5L0,-3.0L2.5,-0.5"/>
  </g>
  <g id="arrowRight" transform="rotate(90) translate(36 -43)">
    <use xlink:href="#rim"/>
    <path pointer-events="none" fill="none" stroke="white" stroke-width="1.5" d="M0,-3.0v7 M-2.5,-0.5L0,-3.0L2.5,-0.5"/>
  </g>
  <g id="arrowDown" transform="rotate(180) translate(-30 -48)">
    <use xlink:href="#rim"/>
    <path pointer-events="none" fill="none" stroke="white" stroke-width="1.5" d="M0,-3.0v7 M-2.5,-0.5L0,-3.0L2.5,-0.5"/>
  </g>
  <g id="arrowLeft" transform="rotate(270) translate(-36 17)">
    <use xlink:href="#rim"/>
    <path pointer-events="none" fill="none" stroke="white" stroke-width="1.5" d="M0,-3.0v7 M-2.5,-0.5L0,-3.0L2.5,-0.5"/>
  </g>
  <g id="resetDef">
    <use xlink:href="#rim2" fill="#404040"><set attributeName="fill" to="#808080" begin="reset.mouseover" end="reset.mouseout"/></use>
  </g>
</defs>
<script type="application/ecmascript">
var viewWidth = 566;
var viewHeight = 204;
var sectionId = 'dynsection-0';
</script>
<script type="application/ecmascript" xlink:href="svg.min.js"/>
<svg id="graph" class="graph">
<g id="viewport">
<title>src/core/SettingsApp/SettingsApp.cpp</title>
<!-- Node1 -->
<g id="Node000001" class="node">
<title>Node1</title>
<g id="a_Node000001"><a xlink:title=" ">
<polygon fill="#999999" stroke="#666666" points="262,-196.25 154.5,-196.25 154.5,-165.75 262,-165.75 262,-196.25"/>
<text text-anchor="start" x="162.5" y="-182.75" font-family="Helvetica,sans-Serif" font-size="10.00">src/core/SettingsApp</text>
<text text-anchor="middle" x="208.25" y="-171.5" font-family="Helvetica,sans-Serif" font-size="10.00">/SettingsApp.cpp</text>
</a>
</g>
</g>
<!-- Node2 -->
<g id="Node000002" class="node">
<title>Node2</title>
<g id="a_Node000002"><a xlink:href="SettingsApp_8h.html" target="_top" xlink:title=" ">
<polygon fill="white" stroke="#666666" points="149.62,-129.75 72.88,-129.75 72.88,-110.5 149.62,-110.5 149.62,-129.75"/>
<text text-anchor="middle" x="111.25" y="-116.25" font-family="Helvetica,sans-Serif" font-size="10.00">SettingsApp.h</text>
</a>
</g>
</g>
<!-- Node1&#45;&gt;Node2 -->
<g id="edge1_Node000001_Node000002" class="edge">
<title>Node1&#45;&gt;Node2</title>
<g id="a_edge1_Node000001_Node000002"><a xlink:title=" ">
<path fill="none" stroke="#63b8ff" d="M184.27,-165.45C169.5,-156.48 150.62,-145.02 135.75,-136"/>
<polygon fill="#63b8ff" stroke="#63b8ff" points="137.86,-133.18 127.5,-130.99 134.23,-139.17 137.86,-133.18"/>
</a>
</g>
</g>
<!-- Node5 -->
<g id="Node000005" class="node">
<title>Node5</title>
<g id="a_Node000005"><a xlink:href="Settings_8h.html" target="_top" xlink:title=" ">
<polygon fill="white" stroke="#666666" points="248.88,-129.75 167.62,-129.75 167.62,-110.5 248.88,-110.5 248.88,-129.75"/>
<text text-anchor="middle" x="208.25" y="-116.25" font-family="Helvetica,sans-Serif" font-size="10.00">core/Settings.h</text>
</a>
</g>
</g>
<!-- Node1&#45;&gt;Node5 -->
<g id="edge4_Node000001_Node000005" class="edge">
<title>Node1&#45;&gt;Node5</title>
<g id="a_edge4_Node000001_Node000005"><a xlink:title=" ">
<path fill="none" stroke="#63b8ff" d="M208.25,-165.45C208.25,-158.21 208.25,-149.34 208.25,-141.44"/>
<polygon fill="#63b8ff" stroke="#63b8ff" points="211.75,-141.71 208.25,-131.71 204.75,-141.71 211.75,-141.71"/>
</a>
</g>
</g>
<!-- Node7 -->
<g id="Node000007" class="node">
<title>Node7</title>
<g id="a_Node000007"><a xlink:href="Hardware_8h.html" target="_top" xlink:title=" ">
<polygon fill="white" stroke="#666666" points="375.38,-129.75 267.12,-129.75 267.12,-110.5 375.38,-110.5 375.38,-129.75"/>
<text text-anchor="middle" x="321.25" y="-116.25" font-family="Helvetica,sans-Serif" font-size="10.00">hardware/Hardware.h</text>
</a>
</g>
</g>
<!-- Node1&#45;&gt;Node7 -->
<g id="edge6_Node000001_Node000007" class="edge">
<title>Node1&#45;&gt;Node7</title>
<g id="a_edge6_Node000001_Node000007"><a xlink:title=" ">
<path fill="none" stroke="#63b8ff" d="M236.47,-165.3C254.01,-156.16 276.45,-144.47 293.84,-135.41"/>
<polygon fill="#63b8ff" stroke="#63b8ff" points="295.33,-138.58 302.58,-130.85 292.09,-132.37 295.33,-138.58"/>
</a>
</g>
</g>
<!-- Node3 -->
<g id="Node000003" class="node">
<title>Node3</title>
<g id="a_Node000003"><a xlink:title=" ">
<polygon fill="#e0e0e0" stroke="#999999" points="80.5,-74.5 0,-74.5 0,-55.25 80.5,-55.25 80.5,-74.5"/>
<text text-anchor="middle" x="40.25" y="-61" font-family="Helvetica,sans-Serif" font-size="10.00">WiFiManager.h</text>
</a>
</g>
</g>
<!-- Node2&#45;&gt;Node3 -->
<g id="edge2_Node000002_Node000003" class="edge">
<title>Node2&#45;&gt;Node3</title>
<g id="a_edge2_Node000002_Node000003"><a xlink:title=" ">
<path fill="none" stroke="#63b8ff" d="M99.21,-110.09C88.84,-102.32 73.65,-90.92 61.28,-81.65"/>
<polygon fill="#63b8ff" stroke="#63b8ff" points="63.43,-78.88 53.33,-75.68 59.23,-84.48 63.43,-78.88"/>
</a>
</g>
</g>
<!-- Node4 -->
<g id="Node000004" class="node">
<title>Node4</title>
<g id="a_Node000004"><a xlink:href="App_8h.html" target="_top" xlink:title="Abstract base class for applications.">
<polygon fill="white" stroke="#666666" points="161.5,-74.5 99,-74.5 99,-55.25 161.5,-55.25 161.5,-74.5"/>
<text text-anchor="middle" x="130.25" y="-61" font-family="Helvetica,sans-Serif" font-size="10.00">core/App.h</text>
</a>
</g>
</g>
<!-- Node2&#45;&gt;Node4 -->
<g id="edge3_Node000002_Node000004" class="edge">
<title>Node2&#45;&gt;Node4</title>
<g id="a_edge3_Node000002_Node000004"><a xlink:title=" ">
<path fill="none" stroke="#63b8ff" d="M114.39,-110.33C116.79,-103.59 120.21,-94.02 123.25,-85.49"/>
<polygon fill="#63b8ff" stroke="#63b8ff" points="126.47,-86.88 126.54,-76.28 119.88,-84.53 126.47,-86.88"/>
</a>
</g>
</g>
<!-- Node6 -->
<g id="Node000006" class="node">
<title>Node6</title>
<g id="a_Node000006"><a xlink:title=" ">
<polygon fill="#e0e0e0" stroke="#999999" points="307.5,-19.25 251,-19.25 251,0 307.5,0 307.5,-19.25"/>
<text text-anchor="middle" x="279.25" y="-5.75" font-family="Helvetica,sans-Serif" font-size="10.00">Arduino.h</text>
</a>
</g>
</g>
<!-- Node5&#45;&gt;Node6 -->
<g id="edge5_Node000005_Node000006" class="edge">
<title>Node5&#45;&gt;Node6</title>
<g id="a_edge5_Node000005_Node000006"><a xlink:title=" ">
<path fill="none" stroke="#63b8ff" d="M214.06,-110.25C225.61,-92.6 251.65,-52.8 267.1,-29.2"/>
<polygon fill="#63b8ff" stroke="#63b8ff" points="269.98,-31.18 272.53,-20.89 264.13,-27.34 269.98,-31.18"/>
</a>
</g>
</g>
<!-- Node7&#45;&gt;Node6 -->
<g id="edge7_Node000007_Node000006" class="edge">
<title>Node7&#45;&gt;Node6</title>
<g id="a_edge7_Node000007_Node000006"><a xlink:title=" ">
<path fill="none" stroke="#63b8ff" d="M302.66,-110.08C289.54,-102.56 272.97,-90.52 265.25,-74.5 258.47,-60.42 263.03,-43.01 268.69,-29.92"/>
<polygon fill="#63b8ff" stroke="#63b8ff" points="271.77,-31.61 273.03,-21.09 265.48,-28.52 271.77,-31.61"/>
</a>
</g>
</g>
<!-- Node8 -->
<g id="Node000008" class="node">
<title>Node8</title>
<g id="a_Node000008"><a xlink:href="Button_2Button_8h.html" target="_top" xlink:title=" ">
<polygon fill="white" stroke="#666666" points="558,-74.5 474.5,-74.5 474.5,-55.25 558,-55.25 558,-74.5"/>
<text text-anchor="middle" x="516.25" y="-61" font-family="Helvetica,sans-Serif" font-size="10.00">Button/Button.h</text>
</a>
</g>
</g>
<!-- Node7&#45;&gt;Node8 -->
<g id="edge8_Node000007_Node000008" class="edge">
<title>Node7&#45;&gt;Node8</title>
<g id="a_edge8_Node000007_Node000008"><a xlink:title=" ">
<path fill="none" stroke="#63b8ff" d="M354.33,-110.09C386.69,-101.26 436.17,-87.74 471.92,-77.98"/>
<polygon fill="#63b8ff" stroke="#63b8ff" points="472.82,-81.36 481.55,-75.35 470.98,-74.61 472.82,-81.36"/>
</a>
</g>
</g>
<!-- Node10 -->
<g id="Node000010" class="node">
<title>Node10</title>
<g id="a_Node000010"><a xlink:href="Display_8h.html" target="_top" xlink:title=" ">
<polygon fill="white" stroke="#666666" points="456,-74.5 366.5,-74.5 366.5,-55.25 456,-55.25 456,-74.5"/>
<text text-anchor="middle" x="411.25" y="-61" font-family="Helvetica,sans-Serif" font-size="10.00">Display/Display.h</text>
</a>
</g>
</g>
<!-- Node7&#45;&gt;Node10 -->
<g id="edge10_Node000007_Node000010" class="edge">
<title>Node7&#45;&gt;Node10</title>
<g id="a_edge10_Node000007_Node000010"><a xlink:title=" ">
<path fill="none" stroke="#63b8ff" d="M336.52,-110.09C350.09,-102.06 370.2,-90.16 386.15,-80.73"/>
<polygon fill="#63b8ff" stroke="#63b8ff" points="387.78,-83.83 394.61,-75.72 384.22,-77.8 387.78,-83.83"/>
</a>
</g>
</g>
<!-- Node12 -->
<g id="Node000012" class="node">
<title>Node12</title>
<g id="a_Node000012"><a xlink:href="Piezo_8h.html" target="_top" xlink:title=" ">
<polygon fill="white" stroke="#666666" points="348.5,-74.5 274,-74.5 274,-55.25 348.5,-55.25 348.5,-74.5"/>
<text text-anchor="middle" x="311.25" y="-61" font-family="Helvetica,sans-Serif" font-size="10.00">Piezo/Piezo.h</text>
</a>
</g>
</g>
<!-- Node7&#45;&gt;Node12 -->
<g id="edge13_Node000007_Node000012" class="edge">
<title>Node7&#45;&gt;Node12</title>
<g id="a_edge13_Node000007_Node000012"><a xlink:title=" ">
<path fill="none" stroke="#63b8ff" d="M319.6,-110.33C318.36,-103.74 316.62,-94.46 315.04,-86.07"/>
<polygon fill="#63b8ff" stroke="#63b8ff" points="318.5,-85.53 313.22,-76.35 311.62,-86.82 318.5,-85.53"/>
</a>
</g>
</g>
<!-- Node9 -->
<g id="Node000009" class="node">
<title>Node9</title>
<g id="a_Node000009"><a xlink:title=" ">
<polygon fill="#e0e0e0" stroke="#999999" points="551.25,-19.25 481.25,-19.25 481.25,0 551.25,0 551.25,-19.25"/>
<text text-anchor="middle" x="516.25" y="-5.75" font-family="Helvetica,sans-Serif" font-size="10.00">OneButton.h</text>
</a>
</g>
</g>
<!-- Node8&#45;&gt;Node9 -->
<g id="edge9_Node000008_Node000009" class="edge">
<title>Node8&#45;&gt;Node9</title>
<g id="a_edge9_Node000008_Node000009"><a xlink:title=" ">
<path fill="none" stroke="#63b8ff" d="M516.25,-55.08C516.25,-48.57 516.25,-39.42 516.25,-31.12"/>
<polygon fill="#63b8ff" stroke="#63b8ff" points="519.75,-31.12 516.25,-21.12 512.75,-31.12 519.75,-31.12"/>
</a>
</g>
</g>
<!-- Node10&#45;&gt;Node6 -->
<g id="edge11_Node000010_Node000006" class="edge">
<title>Node10&#45;&gt;Node6</title>
<g id="a_edge11_Node000010_Node000006"><a xlink:title=" ">
<path fill="none" stroke="#63b8ff" d="M388.86,-54.84C367.81,-46.35 336.05,-33.54 312.13,-23.89"/>
<polygon fill="#63b8ff" stroke="#63b8ff" points="313.74,-20.76 303.16,-20.27 311.12,-27.26 313.74,-20.76"/>
</a>
</g>
</g>
<!-- Node11 -->
<g id="Node000011" class="node">
<title>Node11</title>
<g id="a_Node000011"><a xlink:title=" ">
<polygon fill="#e0e0e0" stroke="#999999" points="445.5,-19.25 377,-19.25 377,0 445.5,0 445.5,-19.25"/>
<text text-anchor="middle" x="411.25" y="-5.75" font-family="Helvetica,sans-Serif" font-size="10.00">TFT_eSPI.h</text>
</a>
</g>
</g>
<!-- Node10&#45;&gt;Node11 -->
<g id="edge12_Node000010_Node000011" class="edge">
<title>Node10&#45;&gt;Node11</title>
<g id="a_edge12_Node000010_Node000011"><a xlink:title=" ">
<path fill="none" stroke="#63b8ff" d="M411.25,-55.08C411.25,-48.57 411.25,-39.42 411.25,-31.12"/>
<polygon fill="#63b8ff" stroke="#63b8ff" points="414.75,-31.12 411.25,-21.12 407.75,-31.12 414.75,-31.12"/>
</a>
</g>
</g>
<!-- Node12&#45;&gt;Node6 -->
<g id="edge14_Node000012_Node000006" class="edge">
<title>Node12&#45;&gt;Node6</title>
<g id="a_edge14_Node000012_Node000006"><a xlink:title=" ">
<path fill="none" stroke="#63b8ff" d="M305.97,-55.08C301.78,-48.11 295.77,-38.12 290.52,-29.37"/>
<polygon fill="#63b8ff" stroke="#63b8ff" points="293.58,-27.68 285.43,-20.91 287.58,-31.28 293.58,-27.68"/>
</a>
</g>
</g>
</g>
</svg>

<g id="navigator" transform="translate(0 0)" fill="#404254">
  <rect fill="#f2f5e9" fill-opacity="0.5" stroke="#606060" stroke-width=".5" x="0" y="0" width="60" height="60"/>
  <use id="zoomplus" xlink:href="#zoomPlus" x="17" y="9" onmousedown="handleZoom(evt,'in')"/>
  <use id="zoomminus" xlink:href="#zoomMin" x="42" y="9" onmousedown="handleZoom(evt,'out')"/>
  <use id="reset" xlink:href="#resetDef" x="30" y="36" onmousedown="handleReset()"/>
   <use id="arrowup" xlink:href="#arrowUp" x="0" y="0" onmousedown="handlePan(0,-1)"/>
  <use id="arrowright" xlink:href="#arrowRight" x="0" y="0" onmousedown="handlePan(1,0)"/>
  <use id="arrowdown" xlink:href="#arrowDown" x="0" y="0" onmousedown="handlePan(0,1)"/>
  <use id="arrowleft" xlink:href="#arrowLeft" x="0" y="0" onmousedown="handlePan(-1,0)"/>
</g>
<svg viewBox="0 0 15 15" width="100%" height="30px" preserveAspectRatio="xMaxYMin meet">
 <g id="arrow_out" transform="scale(0.3 0.3)">
  <a xlink:href="SettingsApp_8cpp__incl_org.svg" target="_base">
   <rect id="button" ry="5" rx="5" y="6" x="6" height="38" width="38"
        fill="#f2f5e9" fill-opacity="0.5" stroke="#606060" stroke-width="1.0"/>
   <path id="arrow"
     d="M 11.500037,31.436501 C 11.940474,20.09759 22.043105,11.32322 32.158766,21.979434 L 37.068811,17.246167 C 37.068811,17.246167 37.088388,32 37.088388,32 L 22.160133,31.978069 C 22.160133,31.978069 26.997745,27.140456 26.997745,27.140456 C 18.528582,18.264221 13.291696,25.230495 11.500037,31.436501 z"
     style="fill:#404040;"/>
  </a>
 </g>
</svg>

<style type='text/css'>
<![CDATA[
[data-mouse-over-selected='false'] { opacity: 0.7; }
[data-mouse-over-selected='true']  { opacity: 1.0; }
]]>
</style>
<script type="application/ecmascript"><![CDATA[
document.addEventListener('DOMContentLoaded', (event) => {
  highlightEdges();
  highlightAdjacentNodes();
});
]]></script>
</svg>
