<?xml version="1.0" encoding="UTF-8" standalone="no"?>
<!DOCTYPE svg PUBLIC "-//W3C//DTD SVG 1.1//EN"
 "http://www.w3.org/Graphics/SVG/1.1/DTD/svg11.dtd">
<!-- Generated by graphviz version 12.2.0 (20241103.1931)
 -->
<!-- Title: src/core/SettingsApp/SettingsApp.cpp Pages: 1 -->
<!--zoomable 204 -->

<svg id="main" version="1.1" xmlns="http://www.w3.org/2000/svg" xmlns:xlink="http://www.w3.org/1999/xlink" xml:space="preserve" onload="init(evt)">

<style type="text/css"><![CDATA[
.node, .edge {opacity: 0.7;}
.node.selected, .edge.selected {opacity: 1;}
.edge:hover path { stroke: red; }
.edge:hover polygon { stroke: red; fill: red; }
]]></style>

<defs>
  <circle id="rim" cx="0" cy="0" r="7"/>
  <circle id="rim2" cx="0" cy="0" r="3.5"/>
  <g id="zoomPlus">
    <use xlink:href="#rim" fill="#404040"><set attributeName="fill" to="#808080" begin="zoomplus.mouseover" end="zoomplus.mouseout"/></use>
    <path d="M-4,0h8M0,-4v8" fill="none" stroke="white" stroke-width="1.5" pointer-events="none"/>
  </g>
  <g id="zoomMin">
    <use xlink:href="#rim" fill="#404040"><set attributeName="fill" to="#808080" begin="zoomminus.mouseover" end="zoomminus.mouseout"/></use>
    <path d="M-4,0h8" fill="none" stroke="white" stroke-width="1.5" pointer-events="none"/>
  </g>
  <g id="arrowUp" transform="translate(30 24)">
    <use xlink:href="#rim"/>
    <path pointer-events="none" fill="none" stroke="white" stroke-width="1.5" d="M0,-3.0v7 M-2.5,-0.5L0,-3.0L2.5,-0.5"/>
  </g>
  <g id="arrowRight" transform="rotate(90) translate(36 -43)">
    <use xlink:href="#rim"/>
    <path pointer-events="none" fill="none" stroke="white" stroke-width="1.5" d="M0,-3.0v7 M-2.5,-0.5L0,-3.0L2.5,-0.5"/>
  </g>
  <g id="arrowDown" transform="rotate(180) translate(-30 -48)">
    <use xlink:href="#rim"/>
    <path pointer-events="none" fill="none" stroke="white" stroke-width="1.5" d="M0,-3.0v7 M-2.5,-0.5L0,-3.0L2.5,-0.5"/>
  </g>
  <g id="arrowLeft" transform="rotate(270) translate(-36 17)">
    <use xlink:href="#rim"/>
    <path pointer-events="none" fill="none" stroke="white" stroke-width="1.5" d="M0,-3.0v7 M-2.5,-0.5L0,-3.0L2.5,-0.5"/>
  </g>
  <g id="resetDef">
    <use xlink:href="#rim2" fill="#404040"><set attributeName="fill" to="#808080" begin="reset.mouseover" end="reset.mouseout"/></use>
  </g>
</defs>
<script type="application/ecmascript">
var viewWidth = 788;
var viewHeight = 204;
var sectionId = 'dynsection-0';
</script>
<script type="application/ecmascript" xlink:href="svg.min.js"/>
<svg id="graph" class="graph">
<g id="viewport">
<title>src/core/SettingsApp/SettingsApp.cpp</title>
<!-- Node1 -->
<g id="Node000001" class="node">
<title>Node1</title>
<g id="a_Node000001"><a xlink:title=" ">
<polygon fill="#999999" stroke="#666666" points="560,-196.25 452.5,-196.25 452.5,-165.75 560,-165.75 560,-196.25"/>
<text text-anchor="start" x="460.5" y="-182.75" font-family="Helvetica,sans-Serif" font-size="10.00">src/core/SettingsApp</text>
<text text-anchor="middle" x="506.25" y="-171.5" font-family="Helvetica,sans-Serif" font-size="10.00">/SettingsApp.cpp</text>
</a>
</g>
</g>
<!-- Node2 -->
<g id="Node000002" class="node">
<title>Node2</title>
<g id="a_Node000002"><a xlink:href="SettingsApp_8h.html" target="_top" xlink:title=" ">
<polygon fill="white" stroke="#666666" points="239.62,-129.75 162.88,-129.75 162.88,-110.5 239.62,-110.5 239.62,-129.75"/>
<text text-anchor="middle" x="201.25" y="-116.25" font-family="Helvetica,sans-Serif" font-size="10.00">SettingsApp.h</text>
</a>
</g>
</g>
<!-- Node1&#45;&gt;Node2 -->
<g id="edge1_Node000001_Node000002" class="edge">
<title>Node1&#45;&gt;Node2</title>
<g id="a_edge1_Node000001_Node000002"><a xlink:title=" ">
<path fill="none" stroke="#63b8ff" d="M452.07,-169.54C395.18,-158.56 306.46,-141.43 251.2,-130.77"/>
<polygon fill="#63b8ff" stroke="#63b8ff" points="251.91,-127.34 241.43,-128.88 250.59,-134.21 251.91,-127.34"/>
</a>
</g>
</g>
<!-- Node7 -->
<g id="Node000007" class="node">
<title>Node7</title>
<g id="a_Node000007"><a xlink:href="Settings_8h.html" target="_top" xlink:title=" ">
<polygon fill="white" stroke="#666666" points="723.88,-129.75 642.62,-129.75 642.62,-110.5 723.88,-110.5 723.88,-129.75"/>
<text text-anchor="middle" x="683.25" y="-116.25" font-family="Helvetica,sans-Serif" font-size="10.00">core/Settings.h</text>
</a>
</g>
</g>
<!-- Node1&#45;&gt;Node7 -->
<g id="edge6_Node000001_Node000007" class="edge">
<title>Node1&#45;&gt;Node7</title>
<g id="a_edge6_Node000001_Node000007"><a xlink:title=" ">
<path fill="none" stroke="#63b8ff" d="M550.46,-165.3C579.53,-155.63 617.18,-143.1 644.97,-133.86"/>
<polygon fill="#63b8ff" stroke="#63b8ff" points="646.02,-137.2 654.41,-130.72 643.82,-130.55 646.02,-137.2"/>
</a>
</g>
</g>
<!-- Node11 -->
<g id="Node000011" class="node">
<title>Node11</title>
<g id="a_Node000011"><a xlink:href="Hardware_8h.html" target="_top" xlink:title=" ">
<polygon fill="white" stroke="#666666" points="560.38,-129.75 452.12,-129.75 452.12,-110.5 560.38,-110.5 560.38,-129.75"/>
<text text-anchor="middle" x="506.25" y="-116.25" font-family="Helvetica,sans-Serif" font-size="10.00">hardware/Hardware.h</text>
</a>
</g>
</g>
<!-- Node1&#45;&gt;Node11 -->
<g id="edge10_Node000001_Node000011" class="edge">
<title>Node1&#45;&gt;Node11</title>
<g id="a_edge10_Node000001_Node000011"><a xlink:title=" ">
<path fill="none" stroke="#63b8ff" d="M506.25,-165.45C506.25,-158.21 506.25,-149.34 506.25,-141.44"/>
<polygon fill="#63b8ff" stroke="#63b8ff" points="509.75,-141.71 506.25,-131.71 502.75,-141.71 509.75,-141.71"/>
</a>
</g>
</g>
<!-- Node3 -->
<g id="Node000003" class="node">
<title>Node3</title>
<g id="a_Node000003"><a xlink:title=" ">
<polygon fill="#e0e0e0" stroke="#999999" points="161.5,-74.5 81,-74.5 81,-55.25 161.5,-55.25 161.5,-74.5"/>
<text text-anchor="middle" x="121.25" y="-61" font-family="Helvetica,sans-Serif" font-size="10.00">WiFiManager.h</text>
</a>
</g>
</g>
<!-- Node2&#45;&gt;Node3 -->
<g id="edge2_Node000002_Node000003" class="edge">
<title>Node2&#45;&gt;Node3</title>
<g id="a_edge2_Node000002_Node000003"><a xlink:title=" ">
<path fill="none" stroke="#63b8ff" d="M187.68,-110.09C175.84,-102.21 158.41,-90.61 144.38,-81.27"/>
<polygon fill="#63b8ff" stroke="#63b8ff" points="146.41,-78.42 136.15,-75.79 142.53,-84.25 146.41,-78.42"/>
</a>
</g>
</g>
<!-- Node4 -->
<g id="Node000004" class="node">
<title>Node4</title>
<g id="a_Node000004"><a xlink:title=" ">
<polygon fill="#e0e0e0" stroke="#999999" points="222.75,-74.5 179.75,-74.5 179.75,-55.25 222.75,-55.25 222.75,-74.5"/>
<text text-anchor="middle" x="201.25" y="-61" font-family="Helvetica,sans-Serif" font-size="10.00">vector</text>
</a>
</g>
</g>
<!-- Node2&#45;&gt;Node4 -->
<g id="edge3_Node000002_Node000004" class="edge">
<title>Node2&#45;&gt;Node4</title>
<g id="a_edge3_Node000002_Node000004"><a xlink:title=" ">
<path fill="none" stroke="#63b8ff" d="M201.25,-110.33C201.25,-103.82 201.25,-94.67 201.25,-86.37"/>
<polygon fill="#63b8ff" stroke="#63b8ff" points="204.75,-86.37 201.25,-76.37 197.75,-86.37 204.75,-86.37"/>
</a>
</g>
</g>
<!-- Node5 -->
<g id="Node000005" class="node">
<title>Node5</title>
<g id="a_Node000005"><a xlink:title=" ">
<polygon fill="#e0e0e0" stroke="#999999" points="291.5,-74.5 241,-74.5 241,-55.25 291.5,-55.25 291.5,-74.5"/>
<text text-anchor="middle" x="266.25" y="-61" font-family="Helvetica,sans-Serif" font-size="10.00">memory</text>
</a>
</g>
</g>
<!-- Node2&#45;&gt;Node5 -->
<g id="edge4_Node000002_Node000005" class="edge">
<title>Node2&#45;&gt;Node5</title>
<g id="a_edge4_Node000002_Node000005"><a xlink:title=" ">
<path fill="none" stroke="#63b8ff" d="M212.28,-110.09C221.67,-102.4 235.4,-91.15 246.66,-81.93"/>
<polygon fill="#63b8ff" stroke="#63b8ff" points="248.7,-84.78 254.22,-75.73 244.26,-79.36 248.7,-84.78"/>
</a>
</g>
</g>
<!-- Node6 -->
<g id="Node000006" class="node">
<title>Node6</title>
<g id="a_Node000006"><a xlink:href="App_8h.html" target="_top" xlink:title="Abstract base class for applications.">
<polygon fill="white" stroke="#666666" points="62.5,-74.5 0,-74.5 0,-55.25 62.5,-55.25 62.5,-74.5"/>
<text text-anchor="middle" x="31.25" y="-61" font-family="Helvetica,sans-Serif" font-size="10.00">core/App.h</text>
</a>
</g>
</g>
<!-- Node2&#45;&gt;Node6 -->
<g id="edge5_Node000002_Node000006" class="edge">
<title>Node2&#45;&gt;Node6</title>
<g id="a_edge5_Node000002_Node000006"><a xlink:title=" ">
<path fill="none" stroke="#63b8ff" d="M172.41,-110.09C144.57,-101.37 102.18,-88.09 71.11,-78.36"/>
<polygon fill="#63b8ff" stroke="#63b8ff" points="72.26,-75.05 61.67,-75.4 70.17,-81.73 72.26,-75.05"/>
</a>
</g>
</g>
<!-- Node8 -->
<g id="Node000008" class="node">
<title>Node8</title>
<g id="a_Node000008"><a xlink:title=" ">
<polygon fill="#e0e0e0" stroke="#999999" points="616.5,-19.25 560,-19.25 560,0 616.5,0 616.5,-19.25"/>
<text text-anchor="middle" x="588.25" y="-5.75" font-family="Helvetica,sans-Serif" font-size="10.00">Arduino.h</text>
</a>
</g>
</g>
<!-- Node7&#45;&gt;Node8 -->
<g id="edge7_Node000007_Node000008" class="edge">
<title>Node7&#45;&gt;Node8</title>
<g id="a_edge7_Node000007_Node000008"><a xlink:title=" ">
<path fill="none" stroke="#63b8ff" d="M675.48,-110.25C659.82,-92.36 624.23,-51.72 603.68,-28.25"/>
<polygon fill="#63b8ff" stroke="#63b8ff" points="606.35,-25.98 597.13,-20.77 601.08,-30.59 606.35,-25.98"/>
</a>
</g>
</g>
<!-- Node9 -->
<g id="Node000009" class="node">
<title>Node9</title>
<g id="a_Node000009"><a xlink:title=" ">
<polygon fill="#e0e0e0" stroke="#999999" points="779.62,-74.5 744.88,-74.5 744.88,-55.25 779.62,-55.25 779.62,-74.5"/>
<text text-anchor="middle" x="762.25" y="-61" font-family="Helvetica,sans-Serif" font-size="10.00">map</text>
</a>
</g>
</g>
<!-- Node7&#45;&gt;Node9 -->
<g id="edge8_Node000007_Node000009" class="edge">
<title>Node7&#45;&gt;Node9</title>
<g id="a_edge8_Node000007_Node000009"><a xlink:title=" ">
<path fill="none" stroke="#63b8ff" d="M696.65,-110.09C708.34,-102.21 725.55,-90.61 739.41,-81.27"/>
<polygon fill="#63b8ff" stroke="#63b8ff" points="741.19,-84.29 747.53,-75.8 737.28,-78.49 741.19,-84.29"/>
</a>
</g>
</g>
<!-- Node10 -->
<g id="Node000010" class="node">
<title>Node10</title>
<g id="a_Node000010"><a xlink:title=" ">
<polygon fill="#e0e0e0" stroke="#999999" points="727.25,-74.5 687.25,-74.5 687.25,-55.25 727.25,-55.25 727.25,-74.5"/>
<text text-anchor="middle" x="707.25" y="-61" font-family="Helvetica,sans-Serif" font-size="10.00">string</text>
</a>
</g>
</g>
<!-- Node7&#45;&gt;Node10 -->
<g id="edge9_Node000007_Node000010" class="edge">
<title>Node7&#45;&gt;Node10</title>
<g id="a_edge9_Node000007_Node000010"><a xlink:title=" ">
<path fill="none" stroke="#63b8ff" d="M687.21,-110.33C690.29,-103.51 694.66,-93.81 698.54,-85.2"/>
<polygon fill="#63b8ff" stroke="#63b8ff" points="701.66,-86.79 702.58,-76.24 695.28,-83.92 701.66,-86.79"/>
</a>
</g>
</g>
<!-- Node11&#45;&gt;Node8 -->
<g id="edge11_Node000011_Node000008" class="edge">
<title>Node11&#45;&gt;Node8</title>
<g id="a_edge11_Node000011_Node000008"><a xlink:title=" ">
<path fill="none" stroke="#63b8ff" d="M549.7,-110.14C569.28,-103.69 590.59,-92.78 602.25,-74.5 610.84,-61.04 605.76,-43.09 599.45,-29.65"/>
<polygon fill="#63b8ff" stroke="#63b8ff" points="602.61,-28.15 594.83,-20.95 596.43,-31.43 602.61,-28.15"/>
</a>
</g>
</g>
<!-- Node12 -->
<g id="Node000012" class="node">
<title>Node12</title>
<g id="a_Node000012"><a xlink:href="Button_2Button_8h.html" target="_top" xlink:title=" ">
<polygon fill="white" stroke="#666666" points="393,-74.5 309.5,-74.5 309.5,-55.25 393,-55.25 393,-74.5"/>
<text text-anchor="middle" x="351.25" y="-61" font-family="Helvetica,sans-Serif" font-size="10.00">Button/Button.h</text>
</a>
</g>
</g>
<!-- Node11&#45;&gt;Node12 -->
<g id="edge12_Node000011_Node000012" class="edge">
<title>Node11&#45;&gt;Node12</title>
<g id="a_edge12_Node000011_Node000012"><a xlink:title=" ">
<path fill="none" stroke="#63b8ff" d="M479.96,-110.09C454.79,-101.45 416.6,-88.32 388.34,-78.62"/>
<polygon fill="#63b8ff" stroke="#63b8ff" points="389.7,-75.38 379.1,-75.44 387.42,-82 389.7,-75.38"/>
</a>
</g>
</g>
<!-- Node14 -->
<g id="Node000014" class="node">
<title>Node14</title>
<g id="a_Node000014"><a xlink:href="Display_8h.html" target="_top" xlink:title=" ">
<polygon fill="white" stroke="#666666" points="501,-74.5 411.5,-74.5 411.5,-55.25 501,-55.25 501,-74.5"/>
<text text-anchor="middle" x="456.25" y="-61" font-family="Helvetica,sans-Serif" font-size="10.00">Display/Display.h</text>
</a>
</g>
</g>
<!-- Node11&#45;&gt;Node14 -->
<g id="edge14_Node000011_Node000014" class="edge">
<title>Node11&#45;&gt;Node14</title>
<g id="a_edge14_Node000011_Node000014"><a xlink:title=" ">
<path fill="none" stroke="#63b8ff" d="M497.99,-110.33C491.09,-102.98 481.03,-92.26 472.51,-83.19"/>
<polygon fill="#63b8ff" stroke="#63b8ff" points="475.12,-80.86 465.72,-75.96 470.02,-85.65 475.12,-80.86"/>
</a>
</g>
</g>
<!-- Node16 -->
<g id="Node000016" class="node">
<title>Node16</title>
<g id="a_Node000016"><a xlink:href="Piezo_8h.html" target="_top" xlink:title=" ">
<polygon fill="white" stroke="#666666" points="593.5,-74.5 519,-74.5 519,-55.25 593.5,-55.25 593.5,-74.5"/>
<text text-anchor="middle" x="556.25" y="-61" font-family="Helvetica,sans-Serif" font-size="10.00">Piezo/Piezo.h</text>
</a>
</g>
</g>
<!-- Node11&#45;&gt;Node16 -->
<g id="edge17_Node000011_Node000016" class="edge">
<title>Node11&#45;&gt;Node16</title>
<g id="a_edge17_Node000011_Node000016"><a xlink:title=" ">
<path fill="none" stroke="#63b8ff" d="M514.51,-110.33C521.41,-102.98 531.47,-92.26 539.99,-83.19"/>
<polygon fill="#63b8ff" stroke="#63b8ff" points="542.48,-85.65 546.78,-75.96 537.38,-80.86 542.48,-85.65"/>
</a>
</g>
</g>
<!-- Node13 -->
<g id="Node000013" class="node">
<title>Node13</title>
<g id="a_Node000013"><a xlink:title=" ">
<polygon fill="#e0e0e0" stroke="#999999" points="386.25,-19.25 316.25,-19.25 316.25,0 386.25,0 386.25,-19.25"/>
<text text-anchor="middle" x="351.25" y="-5.75" font-family="Helvetica,sans-Serif" font-size="10.00">OneButton.h</text>
</a>
</g>
</g>
<!-- Node12&#45;&gt;Node13 -->
<g id="edge13_Node000012_Node000013" class="edge">
<title>Node12&#45;&gt;Node13</title>
<g id="a_edge13_Node000012_Node000013"><a xlink:title=" ">
<path fill="none" stroke="#63b8ff" d="M351.25,-55.08C351.25,-48.57 351.25,-39.42 351.25,-31.12"/>
<polygon fill="#63b8ff" stroke="#63b8ff" points="354.75,-31.12 351.25,-21.12 347.75,-31.12 354.75,-31.12"/>
</a>
</g>
</g>
<!-- Node14&#45;&gt;Node8 -->
<g id="edge15_Node000014_Node000008" class="edge">
<title>Node14&#45;&gt;Node8</title>
<g id="a_edge15_Node000014_Node000008"><a xlink:title=" ">
<path fill="none" stroke="#63b8ff" d="M478.64,-54.84C499.69,-46.35 531.45,-33.54 555.37,-23.89"/>
<polygon fill="#63b8ff" stroke="#63b8ff" points="556.38,-27.26 564.34,-20.27 553.76,-20.76 556.38,-27.26"/>
</a>
</g>
</g>
<!-- Node15 -->
<g id="Node000015" class="node">
<title>Node15</title>
<g id="a_Node000015"><a xlink:title=" ">
<polygon fill="#e0e0e0" stroke="#999999" points="490.5,-19.25 422,-19.25 422,0 490.5,0 490.5,-19.25"/>
<text text-anchor="middle" x="456.25" y="-5.75" font-family="Helvetica,sans-Serif" font-size="10.00">TFT_eSPI.h</text>
</a>
</g>
</g>
<!-- Node14&#45;&gt;Node15 -->
<g id="edge16_Node000014_Node000015" class="edge">
<title>Node14&#45;&gt;Node15</title>
<g id="a_edge16_Node000014_Node000015"><a xlink:title=" ">
<path fill="none" stroke="#63b8ff" d="M456.25,-55.08C456.25,-48.57 456.25,-39.42 456.25,-31.12"/>
<polygon fill="#63b8ff" stroke="#63b8ff" points="459.75,-31.12 456.25,-21.12 452.75,-31.12 459.75,-31.12"/>
</a>
</g>
</g>
<!-- Node16&#45;&gt;Node8 -->
<g id="edge18_Node000016_Node000008" class="edge">
<title>Node16&#45;&gt;Node8</title>
<g id="a_edge18_Node000016_Node000008"><a xlink:title=" ">
<path fill="none" stroke="#63b8ff" d="M561.53,-55.08C565.72,-48.11 571.73,-38.12 576.98,-29.37"/>
<polygon fill="#63b8ff" stroke="#63b8ff" points="579.92,-31.28 582.07,-20.91 573.92,-27.68 579.92,-31.28"/>
</a>
</g>
</g>
</g>
</svg>

<g id="navigator" transform="translate(0 0)" fill="#404254">
  <rect fill="#f2f5e9" fill-opacity="0.5" stroke="#606060" stroke-width=".5" x="0" y="0" width="60" height="60"/>
  <use id="zoomplus" xlink:href="#zoomPlus" x="17" y="9" onmousedown="handleZoom(evt,'in')"/>
  <use id="zoomminus" xlink:href="#zoomMin" x="42" y="9" onmousedown="handleZoom(evt,'out')"/>
  <use id="reset" xlink:href="#resetDef" x="30" y="36" onmousedown="handleReset()"/>
   <use id="arrowup" xlink:href="#arrowUp" x="0" y="0" onmousedown="handlePan(0,-1)"/>
  <use id="arrowright" xlink:href="#arrowRight" x="0" y="0" onmousedown="handlePan(1,0)"/>
  <use id="arrowdown" xlink:href="#arrowDown" x="0" y="0" onmousedown="handlePan(0,1)"/>
  <use id="arrowleft" xlink:href="#arrowLeft" x="0" y="0" onmousedown="handlePan(-1,0)"/>
</g>
<svg viewBox="0 0 15 15" width="100%" height="30px" preserveAspectRatio="xMaxYMin meet">
 <g id="arrow_out" transform="scale(0.3 0.3)">
  <a xlink:href="SettingsApp_8cpp__incl_org.svg" target="_base">
   <rect id="button" ry="5" rx="5" y="6" x="6" height="38" width="38"
        fill="#f2f5e9" fill-opacity="0.5" stroke="#606060" stroke-width="1.0"/>
   <path id="arrow"
     d="M 11.500037,31.436501 C 11.940474,20.09759 22.043105,11.32322 32.158766,21.979434 L 37.068811,17.246167 C 37.068811,17.246167 37.088388,32 37.088388,32 L 22.160133,31.978069 C 22.160133,31.978069 26.997745,27.140456 26.997745,27.140456 C 18.528582,18.264221 13.291696,25.230495 11.500037,31.436501 z"
     style="fill:#404040;"/>
  </a>
 </g>
</svg>

<style type='text/css'>
<![CDATA[
[data-mouse-over-selected='false'] { opacity: 0.7; }
[data-mouse-over-selected='true']  { opacity: 1.0; }
]]>
</style>
<script type="application/ecmascript"><![CDATA[
document.addEventListener('DOMContentLoaded', (event) => {
  highlightEdges();
  highlightAdjacentNodes();
});
]]></script>
</svg>
